<svg id="Layer_1" data-name="Layer 1" xmlns="http://www.w3.org/2000/svg" viewBox="0 0 65 65"><defs><style>.cls-1{fill:#4dc0b3;}</style></defs><path class="cls-1" d="M10.5,32.7c0-3.85,0-7.7,0-11.55A3.29,3.29,0,0,1,12.3,18Q22.43,12.2,32.5,6.32a3.09,3.09,0,0,1,3.38,0q10.17,5.9,20.36,11.75a3,3,0,0,1,1.64,2.83q0,11.81,0,23.6a3,3,0,0,1-1.59,2.79Q46,53.19,35.76,59.13a2.88,2.88,0,0,1-3.15,0c-1.61-1-3.24-1.87-4.86-2.81a2.7,2.7,0,1,1,2.66-4.68c1.14.64,2.25,1.32,3.39,1.94a.92.92,0,0,0,.78,0c5.84-3.34,11.66-6.71,17.48-10.06a.75.75,0,0,0,.44-.74q0-10.08,0-20.18a.68.68,0,0,0-.41-.69q-8.76-5.05-17.53-10.1a.85.85,0,0,0-.73,0Q25,16.84,16.26,22a.84.84,0,0,0-.35.62q0,10.17,0,20.32a1,1,0,0,0,.37.69c1.14.79,2.31,1.54,3.48,2.28a1,1,0,0,0,.69.19c.76-.15,1.51-.35,2.25-.57a1,1,0,0,0,.74-1.15q0-9.66,0-19.31a4.63,4.63,0,0,1,.11-1.18,2.66,2.66,0,0,1,3-1.88,2.62,2.62,0,0,1,2.25,2.57c0,2.4,0,4.8,0,7.2V44.22a6.2,6.2,0,0,1-4.3,6.36,12.67,12.67,0,0,1-5.05.92,3.7,3.7,0,0,1-1.76-.57c-1.93-1.19-3.8-2.48-5.71-3.7A3,3,0,0,1,10.5,44.5C10.51,40.56,10.5,36.63,10.5,32.7Z"/><path class="cls-1" d="M40.94,46.15a11.53,11.53,0,0,1-6.39-1.6,6.1,6.1,0,0,1-3-5,2.67,2.67,0,0,1,5.32-.44,1.48,1.48,0,0,0,1.08,1.18,7.78,7.78,0,0,0,4.16.43A8.7,8.7,0,0,0,44.35,40c.68-.31.78-.73.33-1.32a3.05,3.05,0,0,0-1.28-1c-1.57-.55-3.17-1-4.76-1.44a16,16,0,0,1-4.46-2A6.39,6.39,0,0,1,34,23.93a9.77,9.77,0,0,1,5-1.88,13.92,13.92,0,0,1,6.77.7A6.7,6.7,0,0,1,50.3,28a2.73,2.73,0,0,1-1.84,3.19,2.65,2.65,0,0,1-3.2-1.34,2,2,0,0,1-.23-.71,1.4,1.4,0,0,0-1-1.3,8.52,8.52,0,0,0-6.28.05,1.79,1.79,0,0,0-.47.3.93.93,0,0,0,.06,1.59,27.28,27.28,0,0,0,3.3,1.37c1.54.52,3.16.87,4.69,1.43a7.38,7.38,0,0,1,4.57,4.49,5.93,5.93,0,0,1-2,7.08,10.89,10.89,0,0,1-6.46,2Z"/></svg>