<svg id="Layer_1" data-name="Layer 1" xmlns="http://www.w3.org/2000/svg" viewBox="0 0 65 65"><defs><style>.cls-1{fill:blue;}.cls-2{fill:#f3f945;}</style></defs><path class="cls-1" d="M59.45,23.82A51.63,51.63,0,0,1,56,43.15,34.23,34.23,0,0,1,35.67,62.9c-2.15.83-4.2.36-6.25-.52C18.75,57.8,12.09,49.75,8.94,38.69a52.83,52.83,0,0,1-1.6-19.51c.1-1,.22-2.05.39-3.07a5.37,5.37,0,0,1,3.45-4.26c6.46-2.7,12.93-5.38,19.38-8.12a6.45,6.45,0,0,1,5.3,0c6.41,2.71,12.85,5.38,19.27,8.06a5.51,5.51,0,0,1,3.63,4.71C59,18.93,59.22,21.38,59.45,23.82Zm-2.07,0c-.22-2.35-.42-4.71-.68-7.06a3.45,3.45,0,0,0-2.25-3L34.63,5.47a3.61,3.61,0,0,0-2.88,0L12,13.74a3.53,3.53,0,0,0-2.28,3,52.06,52.06,0,0,0,.9,20.2c2.9,11.49,9.63,19.71,20.82,24A4.78,4.78,0,0,0,35,61,32.21,32.21,0,0,0,54.15,42.07,49.94,49.94,0,0,0,57.38,23.79Z"/><path class="cls-1" d="M11.46,24.42c.22-2.44.45-4.88.67-7.32A1.27,1.27,0,0,1,13,16C19.55,13.24,26.07,10.5,32.6,7.8a1.85,1.85,0,0,1,1.23,0c6.51,2.69,13,5.42,19.52,8.13a1.48,1.48,0,0,1,1,1.37c1.12,8.88.52,17.54-3.27,25.77A29.28,29.28,0,0,1,34.17,58.61a3,3,0,0,1-2,0C22,54.64,15.81,47.11,13.06,36.64A53.87,53.87,0,0,1,11.46,24.42Zm2.1.09a47.47,47.47,0,0,0,2.21,14.05,27.74,27.74,0,0,0,16.88,18,1.66,1.66,0,0,0,1.1,0A27.18,27.18,0,0,0,49.26,42.05c3.46-7.66,4-15.72,3.06-23.95a.88.88,0,0,0-.5-.54Q42.75,13.74,33.67,10a1.33,1.33,0,0,0-.9,0q-9.12,3.78-18.22,7.59a.67.67,0,0,0-.5.64C13.9,20.3,13.73,22.4,13.56,24.51Z"/><path class="cls-2" d="M33.19,46H28.28a4.83,4.83,0,0,1-4.9-4.86c0-2.69,0-5.38,0-8.07a4.69,4.69,0,0,1,1.95-3.89,1,1,0,0,0,.41-.86A22.38,22.38,0,0,1,26,24.47a7.38,7.38,0,0,1,7.92-5.85,7.5,7.5,0,0,1,6.8,7.16c0,.85,0,1.72,0,2.58a1.2,1.2,0,0,0,.37.78,4.93,4.93,0,0,1,2,4c0,2.66,0,5.33,0,8A4.82,4.82,0,0,1,38.1,46Zm0-2.07h4.84A2.77,2.77,0,0,0,41,41c0-2.61,0-5.21,0-7.82a2.78,2.78,0,0,0-2.92-2.93q-4.84,0-9.69,0a2.78,2.78,0,0,0-2.91,2.94c0,2.6,0,5.21,0,7.81a2.76,2.76,0,0,0,2.91,2.92ZM27.83,28.16H38.61c0-.79,0-1.56,0-2.33a5.38,5.38,0,0,0-3.93-5A5.44,5.44,0,0,0,28.76,23C27.65,24.58,27.75,26.35,27.83,28.16Z"/><path class="cls-2" d="M36.06,35.74A2.87,2.87,0,0,1,34.63,38a.92.92,0,0,0-.37.63c0,.57,0,1.16,0,1.74a1,1,0,1,1-2.06,0,5.61,5.61,0,0,1,0-.58,2.17,2.17,0,0,0-.91-2.28,2.6,2.6,0,0,1-.58-3.39,2.89,2.89,0,0,1,3.25-1.41A3,3,0,0,1,36.06,35.74Zm-2.87-1.06a.77.77,0,0,0-.76.8.73.73,0,0,0,.83.75.7.7,0,0,0,.72-.8C34,34.94,33.64,34.73,33.19,34.68Z"/></svg>