<svg id="Layer_1" data-name="Layer 1" xmlns="http://www.w3.org/2000/svg" viewBox="0 0 65 65"><defs><style>.cls-1{fill:blue;}.cls-2{fill:#f3f945;}</style></defs><path class="cls-1" d="M2.12,35.58a2.54,2.54,0,0,1,2.74-1.66c2.22.06,4.44,0,6.67,0A2.2,2.2,0,0,1,14,36.41v2a21,21,0,0,1,2.62.46c1.18.35,2.32.84,3.47,1.29a6,6,0,0,1,1,.58,16.81,16.81,0,0,0,8.79,2.6c3,.12,6,.42,9,.8A5.27,5.27,0,0,1,43.44,49c0,.45.18.64.64.63s1.08.08,1.62.06a1.78,1.78,0,0,0,.81-.3Q52,45.69,57.58,42a3.83,3.83,0,0,1,3.59-.54A3.72,3.72,0,0,1,62.4,47.7c-1.87,1.75-3.8,3.44-5.7,5.15S53.08,56,51.35,57.68A10.79,10.79,0,0,1,45,60.58q-7.78,1.05-15.56,2.26a9.73,9.73,0,0,1-6.14-.63c-.63-.31-1.31-.5-2-.75L14.76,59l-.66-.23c0,.06-.08.09-.08.13-.09,1.94-.77,2.6-2.71,2.6-2.14,0-4.28-.06-6.42,0a2.55,2.55,0,0,1-2.77-1.61ZM14,40.26c0,.69,0,1.29,0,1.88s-.32,1.12-.88,1.13-.92-.4-.92-1.15V36.54c0-.76,0-.8-.77-.8-2.26,0-4.52,0-6.78,0-.58,0-.75.2-.75.77q0,11.2,0,22.41c0,.6.21.75.77.74,2.24,0,4.48,0,6.72,0,.8,0,.81,0,.81-.8v-12a3.23,3.23,0,0,1,0-.54.86.86,0,0,1,.91-.79.85.85,0,0,1,.86.77,2.42,2.42,0,0,1,0,.54c0,3.1,0,6.2,0,9.31a.69.69,0,0,0,.53.77q5.37,2,10.71,4a4.65,4.65,0,0,0,2.42.25c5.76-.83,11.51-1.68,17.28-2.47a8.88,8.88,0,0,0,5.13-2.37c1.48-1.42,3-2.76,4.58-4.14,2.16-2,4.32-3.88,6.47-5.84a1.89,1.89,0,0,0,.51-2.34,1.86,1.86,0,0,0-2-1.05,3,3,0,0,0-1.08.49q-5.7,3.78-11.37,7.61a2.11,2.11,0,0,1-1.46.37,24.28,24.28,0,0,0-3.18-.16c-2.72.13-5.43.35-8.15.52-3.18.19-6.35.37-9.53.54A3.55,3.55,0,0,1,22,51.18a.9.9,0,1,1,1.28-1.26,2.17,2.17,0,0,0,1.83.69l14.63-.9,1.88-.13a3.6,3.6,0,0,0-3.26-3.77c-3.33-.3-6.66-.65-10-.84a14.55,14.55,0,0,1-6.67-1.92c-.86-.51-1.74-1-2.63-1.44A11.9,11.9,0,0,0,14,40.26Z"/><path class="cls-1" d="M32.82,5.54h8.83c1.42,0,2,.49,2.19,1.9a7.84,7.84,0,0,0,4.61,6.23,2.14,2.14,0,0,1,1.48,2.56c-1.22,9.65-5.25,17.63-13.68,23-.74.47-1.54.85-2.3,1.29a1.84,1.84,0,0,1-1.87,0C24.72,37,20,31.09,17.38,23.45a33.18,33.18,0,0,1-1.61-7.18A2.09,2.09,0,0,1,17,14a8,8,0,0,0,4.8-6.74A1.73,1.73,0,0,1,23.7,5.65c3,0,6.08,0,9.12,0ZM23.66,7.42a2.78,2.78,0,0,0-.07.31,9.62,9.62,0,0,1-5.67,7.79.58.58,0,0,0-.34.73c.34,1.66.56,3.36,1,5,2.08,7.33,6.15,13.18,12.91,17,1.5.84,1.51.85,3,0,8.41-5,12.4-12.66,13.64-22.07.06-.48-.15-.66-.54-.84a9.42,9.42,0,0,1-5.14-5.8c-.22-.68-.34-1.39-.5-2Z"/><path class="cls-1" d="M4.72,54.85a3.19,3.19,0,0,1,6.37,0,3.19,3.19,0,1,1-6.37,0Zm3.2-1.38A1.35,1.35,0,0,0,6.53,54.8,1.38,1.38,0,0,0,7.9,56.23a1.41,1.41,0,0,0,1.38-1.38A1.38,1.38,0,0,0,7.92,53.47Z"/><path class="cls-1" d="M32.84,8.93h6.49a1.5,1.5,0,0,1,1.72,1.24,10.72,10.72,0,0,0,4.46,5.71,1.61,1.61,0,0,1,.83,1.91c-.19.82-.32,1.65-.51,2.47-.15.64-.59,1-1.11.84s-.79-.59-.65-1.27.32-1.29.41-1.94a.86.86,0,0,0-.27-.68,12.79,12.79,0,0,1-4.72-6.06.52.52,0,0,0-.6-.42l-12.19.1a.7.7,0,0,0-.49.36,13,13,0,0,1-4.69,6.17.83.83,0,0,0-.24.68c.1.67.29,1.33.43,2a.9.9,0,1,1-1.72.45c-.24-1-.46-1.95-.64-2.93a1.23,1.23,0,0,1,.56-1.3A11.22,11.22,0,0,0,24.72,10,1.37,1.37,0,0,1,26.17,9h6.67Z"/><path class="cls-1" d="M33,37.09a5.47,5.47,0,0,1-.81-.29A24.33,24.33,0,0,1,21.45,24.7a.89.89,0,0,1,.42-1.31A.91.91,0,0,1,23.1,24a22,22,0,0,0,5.2,7.64c1.29,1.18,2.78,2.15,4.16,3.23a.82.82,0,0,0,1.08,0,22.8,22.8,0,0,0,8.94-10.4l.26-.6a.91.91,0,1,1,1.64.74,26,26,0,0,1-4.49,7.27,23.59,23.59,0,0,1-6,4.86A7.74,7.74,0,0,1,33,37.09Z"/><path class="cls-2" d="M32.3,24.9l5.16-7.78a3.27,3.27,0,0,1,.35-.48A.82.82,0,0,1,39,16.51a.81.81,0,0,1,.31,1.1,3.07,3.07,0,0,1-.27.46l-5.57,8.4c-.6.91-1.07,1-1.87.21l-3.31-3.14c-.53-.51-.6-1.06-.19-1.46s.89-.36,1.42.14Z"/></svg>