<svg id="Layer_1" data-name="Layer 1" xmlns="http://www.w3.org/2000/svg" viewBox="0 0 65 65"><defs><style>.cls-1{fill:blue;}.cls-2{fill:#f3f945;}</style></defs><path class="cls-1" d="M63.5,57.53c-.52.5-1,1-1.58,1.49-1.58,1.28-3.18,2.53-4.77,3.8a1.35,1.35,0,0,1-1.52.35,1.4,1.4,0,0,1-.75-1.44c0-.26,0-.53,0-.89H45.5c-1.25,0-1.67-.42-1.67-1.65V55.1c0-1.23.39-1.63,1.61-1.63h9.45c0-.44,0-.81,0-1.19a1.24,1.24,0,0,1,.71-1.16A1.22,1.22,0,0,1,57,51.3L62.83,56a8.82,8.82,0,0,1,.67.7Zm-17.17.83h.75c2.83,0,5.65,0,8.47,0,.85,0,1.58.12,1.84,1.13l2.92-2.34-2.92-2.32c-.28,1-1,1.11-1.81,1.1-2.87,0-5.76,0-8.64,0h-.61Z"/><path class="cls-2" d="M63.5,21.81c-.42.73-.91,1-1.49.89a1.21,1.21,0,0,1-.95-1.21c0-.79,0-1.57,0-2.36a1.22,1.22,0,0,1,2.34-.57l.1.14Z"/><path class="cls-2" d="M19.6,4.29a1.42,1.42,0,0,1,.88,1.18,1.2,1.2,0,0,1-1.2,1.26c-.81,0-1.61,0-2.42,0a1.21,1.21,0,0,1-1.26-1,1.24,1.24,0,0,1,.69-1.37l.2-.12Z"/><path class="cls-2" d="M63.5,36.56c-.42.73-.91,1-1.49.89a1.22,1.22,0,0,1-.95-1.21c0-.79,0-1.57,0-2.36A1.19,1.19,0,0,1,62,32.61a1.2,1.2,0,0,1,1.41.7,1.47,1.47,0,0,0,.1.13Z"/><path class="cls-2" d="M27,4.29a1.45,1.45,0,0,1,.88,1.18,1.21,1.21,0,0,1-1.21,1.26c-.8,0-1.61,0-2.41,0a1.23,1.23,0,0,1-1.27-1,1.25,1.25,0,0,1,.7-1.37l.2-.12Z"/><path class="cls-2" d="M63.5,43.93c-.42.74-.91,1-1.49.89a1.21,1.21,0,0,1-.95-1.21c0-.78,0-1.57,0-2.35a1.22,1.22,0,0,1,2.34-.57,1.47,1.47,0,0,0,.1.13Z"/><path class="cls-2" d="M34.35,4.29a1.42,1.42,0,0,1,.88,1.18A1.2,1.2,0,0,1,34,6.73c-.8,0-1.6,0-2.41,0a1.21,1.21,0,0,1-1.26-1A1.24,1.24,0,0,1,31,4.41l.2-.12Z"/><path class="cls-2" d="M41.73,4.29a1.45,1.45,0,0,1,.88,1.18A1.21,1.21,0,0,1,41.4,6.73c-.8,0-1.61,0-2.41,0a1.23,1.23,0,0,1-1.27-1,1.25,1.25,0,0,1,.7-1.37l.19-.12Z"/><path class="cls-2" d="M63.5,51.3c-.42.74-.91,1-1.49.9A1.22,1.22,0,0,1,61.06,51c0-.79,0-1.57,0-2.36a1.22,1.22,0,0,1,2.34-.57,1.47,1.47,0,0,0,.1.13Z"/><path class="cls-2" d="M49.1,4.29A1.42,1.42,0,0,1,50,5.47a1.2,1.2,0,0,1-1.21,1.26c-.8,0-1.6,0-2.41,0a1.21,1.21,0,0,1-1.26-1,1.24,1.24,0,0,1,.69-1.37l.2-.12Z"/><path class="cls-2" d="M56.47,4.29a1.42,1.42,0,0,1,.88,1.18,1.2,1.2,0,0,1-1.2,1.26c-.81,0-1.61,0-2.41,0a1.21,1.21,0,0,1-1.27-1,1.25,1.25,0,0,1,.7-1.37l.19-.12Z"/><path class="cls-2" d="M63.5,14.43c-.42.74-.91,1-1.49.89a1.21,1.21,0,0,1-.95-1.21c0-.78,0-1.57,0-2.35a1.22,1.22,0,0,1,2.34-.57,1.47,1.47,0,0,0,.1.13Z"/><path class="cls-2" d="M63.5,29.18c-.42.74-.91,1-1.49.89a1.21,1.21,0,0,1-.95-1.21c0-.78,0-1.57,0-2.35a1.22,1.22,0,0,1,2.34-.57,1.47,1.47,0,0,0,.1.13Z"/><path class="cls-2" d="M63.5,7.06c-.56,1-1.49,1.26-2.06.54a7,7,0,0,0-1.25-1.25c-.72-.57-.43-1.51.55-2.06h1.84l.92.92Z"/><path class="cls-1" d="M9.41,48.49V46.14a6.56,6.56,0,0,1-.85-.23A2.36,2.36,0,0,1,7,43.6q0-3.66,0-7.32A2.42,2.42,0,0,1,9.5,33.79H38.82a2.45,2.45,0,0,1,2.56,2.59c0,2.32,0,4.64,0,7a2.46,2.46,0,0,1-2.18,2.71l-.24.08V48.5a2.52,2.52,0,0,1,2.35,2,3,3,0,0,1,.07.74v7a2.47,2.47,0,0,1-2.61,2.66H9.57A2.45,2.45,0,0,1,7,58.23c0-2.23,0-4.46,0-6.68C7,49.66,7.57,48.89,9.41,48.49Zm.06-12.22v7.3H38.89v-7.3ZM38.9,51H9.48v7.31H38.9Zm-27-2.53H36.4V46.13H11.9Z"/><path class="cls-1" d="M7,12.9c-.46,0-.83,0-1.19,0a1.19,1.19,0,0,1-1.09-.73,1.17,1.17,0,0,1,.17-1.29c1.61-2,3.21-4,4.83-6a1.18,1.18,0,0,1,1.94,0c1.58,1.92,3.14,3.87,4.69,5.82.34.43.7.89.37,1.52a1.52,1.52,0,0,1-1.51.73h-.84v16.7c0,1.35-.37,1.72-1.7,1.72H8.71C7.35,31.34,7,31,7,29.61V12.9Zm4.92,15.94v-.71c0-5.27,0-10.55,0-15.83,0-.86.06-1.63,1.12-1.89L10.65,7.49,8.33,10.4c.95.28,1.11.95,1.11,1.77q0,8,0,16v.66Z"/><path class="cls-2" d="M50,26.43c0,.4,0,.81,0,1.21a1.21,1.21,0,0,1-1.26,1.22,1.2,1.2,0,0,1-1.19-1.22c0-.83,0-1.65,0-2.48A1.19,1.19,0,0,1,48.75,24,1.22,1.22,0,0,1,50,25.17C50,25.58,50,26,50,26.43Z"/><path class="cls-2" d="M47.52,33.79c0-.4,0-.8,0-1.2a1.22,1.22,0,0,1,1.25-1.24A1.18,1.18,0,0,1,50,32.55c0,.82,0,1.65,0,2.47a1.23,1.23,0,0,1-2.45,0C47.5,34.6,47.52,34.2,47.52,33.79Z"/><path class="cls-2" d="M19.25,20.27c-.42,0-.85,0-1.27,0A1.18,1.18,0,0,1,16.82,19,1.17,1.17,0,0,1,18,17.82a24.86,24.86,0,0,1,2.59,0A1.17,1.17,0,0,1,21.7,19a1.19,1.19,0,0,1-1.13,1.23c-.44,0-.88,0-1.32,0Z"/><path class="cls-2" d="M26.68,20.27c-.42,0-.84,0-1.26,0A1.21,1.21,0,0,1,24.19,19a1.19,1.19,0,0,1,1.21-1.2c.82,0,1.65,0,2.47,0A1.18,1.18,0,0,1,29.07,19a1.21,1.21,0,0,1-1.18,1.24c-.4,0-.81,0-1.21,0Z"/><path class="cls-2" d="M34,20.27c-.42,0-.85,0-1.27,0A1.2,1.2,0,0,1,31.56,19a1.18,1.18,0,0,1,1.16-1.2,24.66,24.66,0,0,1,2.58,0A1.17,1.17,0,0,1,36.45,19a1.19,1.19,0,0,1-1.13,1.23c-.44,0-.88,0-1.32,0Z"/><path class="cls-2" d="M41.43,17.81c.4,0,.8,0,1.2,0a1.22,1.22,0,0,1,0,2.44c-.85,0-1.69,0-2.53,0A1.17,1.17,0,0,1,38.94,19a1.19,1.19,0,0,1,1.17-1.19c.43,0,.88,0,1.32,0Z"/><path class="cls-2" d="M47.52,41.13c0-.41,0-.81,0-1.21a1.21,1.21,0,0,1,1.22-1.2A1.19,1.19,0,0,1,50,39.91a23.72,23.72,0,0,1,0,2.53,1.17,1.17,0,0,1-1.24,1.16,1.2,1.2,0,0,1-1.2-1.21C47.5,42,47.52,41.55,47.52,41.13Z"/><path class="cls-2" d="M47.52,48.54c0-.4,0-.8,0-1.2a1.21,1.21,0,0,1,1.24-1.24A1.18,1.18,0,0,1,50,47.3c0,.82,0,1.65,0,2.47a1.23,1.23,0,0,1-2.45,0C47.5,49.35,47.52,49,47.52,48.54Z"/><path class="cls-2" d="M50,19.71a7,7,0,0,1-.07.79,1.17,1.17,0,0,1-1.06,1,1.25,1.25,0,0,1-1.28-.77,1.12,1.12,0,0,0-.5-.51,1.25,1.25,0,0,1-.78-1.27,1.12,1.12,0,0,1,1-1.08,7.78,7.78,0,0,1,1.6,0,1.13,1.13,0,0,1,1,1.07,5.33,5.33,0,0,1,0,.8Z"/><path class="cls-2" d="M14.35,41.16c-.42,0-.85,0-1.27,0a1.22,1.22,0,0,1-1.19-1.23,1.19,1.19,0,0,1,1.2-1.2c.85,0,1.69,0,2.53,0a1.2,1.2,0,0,1,1.18,1.18,1.24,1.24,0,0,1-1.19,1.25C15.19,41.18,14.77,41.16,14.35,41.16Z"/><path class="cls-2" d="M35.32,38.73A1.17,1.17,0,0,1,36.44,40a1.21,1.21,0,0,1-1.29,1.17A1.25,1.25,0,0,1,34,39.88,1.21,1.21,0,0,1,35.32,38.73Z"/><path class="cls-2" d="M14.36,53.47c.42,0,.84,0,1.26,0a1.21,1.21,0,0,1,.06,2.42c-.9,0-1.81,0-2.71,0a1.18,1.18,0,0,1-1.08-1.26A1.2,1.2,0,0,1,13,53.48C13.47,53.45,13.91,53.47,14.36,53.47Z"/><path class="cls-2" d="M35.25,53.47a1.19,1.19,0,0,1,1.2,1.2,1.23,1.23,0,0,1-1.23,1.24A1.25,1.25,0,0,1,34,54.7,1.22,1.22,0,0,1,35.25,53.47Z"/></svg>