<svg id="Layer_1" data-name="Layer 1" xmlns="http://www.w3.org/2000/svg" viewBox="0 0 65 65"><defs><style>.cls-1{fill:blue;}.cls-2{fill:#f3f945;}</style></defs><path class="cls-1" d="M2.54,33.48q0-12.63,0-25.27A4.69,4.69,0,0,1,6.26,3.35a5.57,5.57,0,0,1,1.08-.1h51A4.64,4.64,0,0,1,63,7a6,6,0,0,1,.11,1.34V58.79a4.71,4.71,0,0,1-5,5.07q-25.26,0-50.53,0a5,5,0,0,1-5.08-5.13C2.59,50.33,2.54,41.9,2.54,33.48ZM61.27,16.1h-.8c-3.4,0-6.8,0-10.2,0a2.35,2.35,0,0,1-2.34-1.45c-.29-.62-.63-1.21-.91-1.84a.78.78,0,0,0-.84-.52c-1.52,0-3,0-4.55,0-.77,0-1.69-.21-2.26.14s-.77,1.26-1.14,1.93a.61.61,0,0,0,0,.12,2.53,2.53,0,0,1-2.63,1.62q-15.18,0-30.34,0H4.42V58.45a7.39,7.39,0,0,0,.06,1.15,2.76,2.76,0,0,0,2.33,2.32,7.81,7.81,0,0,0,1.08,0H58.12a2.82,2.82,0,0,0,3-1.95,4.88,4.88,0,0,0,.16-1.38q0-20.88,0-41.76Zm0-1.91c0-2,0-4,0-5.92a2.87,2.87,0,0,0-3.16-3.14H7.57A2.86,2.86,0,0,0,4.42,8.27c0,1.77,0,3.55,0,5.32a5.46,5.46,0,0,0,0,.57l.43,0H35.67a.75.75,0,0,0,.79-.5c.31-.68.65-1.34,1-2a2.14,2.14,0,0,1,2.06-1.27h7a2.17,2.17,0,0,1,2.06,1.26c.29.57.61,1.13.85,1.73a1.12,1.12,0,0,0,1.25.79c3.27,0,6.54,0,9.81,0Z"/><path class="cls-2" d="M27.24,49.76H11.66a3.88,3.88,0,0,1-2.48-.68A3.24,3.24,0,0,1,7.8,46,24.53,24.53,0,0,1,20.44,26.88,25.18,25.18,0,0,1,56.6,40.41a28.92,28.92,0,0,1,1.23,5.28,3.36,3.36,0,0,1-3.61,4.06q-7.44,0-14.88,0a1,1,0,0,0-1.17.85,5.52,5.52,0,0,1-5.45,3.87,5.64,5.64,0,0,1-5.27-4C27.39,50.26,27.32,50,27.24,49.76ZM37.1,33.82c-9.87-3-19.63,4.78-19.78,14a.22.22,0,0,0,.11,0c3.16,0,6.32,0,9.48,0,.16,0,.4-.27.45-.46a5.19,5.19,0,0,1,1.84-2.85,7.55,7.55,0,0,0,1.91-2.12l1-1.42ZM19.88,36.71l-4-3.92a2.93,2.93,0,0,1-.19.27A22.92,22.92,0,0,0,9.73,45.73c-.19,1.45.41,2.14,1.87,2.14,1.07,0,2.14,0,3.2,0,.39,0,.57-.07.6-.51a14.79,14.79,0,0,1,1.65-6.08C17.88,39.74,18.9,38.29,19.88,36.71Zm25.79.12a17.59,17.59,0,0,1,4.65,10.66.53.53,0,0,0,.32.37c1.36,0,2.73,0,4.09-.06A1.45,1.45,0,0,0,56,46.1,23.05,23.05,0,0,0,50,33a1,1,0,0,0-.21-.17Zm2.8,11.05a15.77,15.77,0,0,0-7.36-12.33l-.2.67c-.4,1.57-.81,3.14-1.21,4.71-.47,1.84-1,3.68-1.42,5.52-.27,1.06,0,1.43,1,1.43h9.14ZM17.3,31.4l4.21,4.05h0a17.44,17.44,0,0,1,10-4.1c.43,0,.4-.29.4-.57V25.54A23.52,23.52,0,0,0,17.3,31.4Zm16.58-5.85a1.09,1.09,0,0,0-.09.24c0,1.71,0,3.42,0,5.13,0,.15.27.39.45.42a25.47,25.47,0,0,1,2.52.43c1,.31,1.74.37,2.33-.73a1.42,1.42,0,0,1,1.9-.4,1.6,1.6,0,0,1,.86,1.81c-.08.39-.17.78-.25,1.13l2.61,1.84,4.16-4A23.34,23.34,0,0,0,33.88,25.55Zm2.71,23.23a3.75,3.75,0,1,0-3.7,3.78A3.72,3.72,0,0,0,36.59,48.78Zm3-14.88-.15-.07-6.48,9.33a6,6,0,0,1,3.85,1.56Z"/><path class="cls-2" d="M11.11,10.6c-.44,0-.89,0-1.34,0a.89.89,0,0,1-.93-.92.85.85,0,0,1,.86-.93c1,0,2,0,2.94,0a.83.83,0,0,1,.83.94.86.86,0,0,1-.89.9c-.49,0-1,0-1.47,0Z"/><path class="cls-2" d="M18,10.6c-.45,0-.89,0-1.34,0a.86.86,0,0,1-.91-.87.86.86,0,0,1,.86-1c1,0,1.92,0,2.87,0a.9.9,0,0,1,.9,1,1,1,0,0,1-1,.9H18Z"/><path class="cls-2" d="M25,10.6c-.47,0-.94,0-1.41,0a.86.86,0,0,1-.89-.89.83.83,0,0,1,.83-.95c1-.05,2,0,3,0a.83.83,0,0,1,.8.91.86.86,0,0,1-.86.93C25.94,10.62,25.45,10.6,25,10.6Z"/><path d="M33.79,48.82a.94.94,0,1,1-1.87-.06.89.89,0,0,1,1-.88A.91.91,0,0,1,33.79,48.82Z"/></svg>