<svg id="Layer_1" data-name="Layer 1" xmlns="http://www.w3.org/2000/svg" viewBox="0 0 65 65"><defs><style>.cls-1{fill:blue;}.cls-2{fill:#f3f945;}.cls-3{fill:#190f2d;}</style></defs><path class="cls-1" d="M1.62,27V4.25c0-1.83.81-2.64,2.65-2.64H36.46c1.83,0,2.66.82,2.66,2.64v45.5c0,1.78-.83,2.6-2.62,2.6H4.24c-1.79,0-2.62-.83-2.62-2.6ZM4.39,4.59,4.07,49.65l32.49-.25.19-44.75L27.94,4.4a44.4,44.4,0,0,1,.15,5.68A2.79,2.79,0,0,1,27.43,12a2.57,2.57,0,0,1-1.87.62H15.16A2.55,2.55,0,0,1,13.29,12a2.7,2.7,0,0,1-.64-1.87,21,21,0,0,1,.42-5.29ZM26.92,6.31l-12-.06V11.1l12-.13Z"/><path class="cls-1" d="M61.2,34.63c1.73.48,2.18,1.08,2.18,2.9s0,3.86,0,5.79A2.21,2.21,0,0,1,61,45.73H57a.62.62,0,0,0-.18,0v4.36h2A2.2,2.2,0,0,1,61,51.44c.73,1.43,1.44,2.87,2.16,4.31a2.19,2.19,0,0,1,0,2c-.72,1.44-1.42,2.88-2.16,4.31a2.18,2.18,0,0,1-3,1,2.22,2.22,0,0,1-.94-3.06c.45-.93.9-1.86,1.39-2.77a1.24,1.24,0,0,0,0-1.08,2.21,2.21,0,0,0-2.74-1.71c-1.22.15-2.48,0-3.72,0a1.16,1.16,0,0,0-.72.44,2.62,2.62,0,0,0,0,3.47,9.9,9.9,0,0,1,.87,1.72,2.2,2.2,0,0,1-1,2.94,2.16,2.16,0,0,1-2.94-1c-.77-1.46-1.49-3-2.22-4.43a2.12,2.12,0,0,1,0-2c.72-1.45,1.44-2.91,2.18-4.37a2.18,2.18,0,0,1,2.07-1.23H52.3V45.74H48.9c-.35,0-.69,0-1,0a2.18,2.18,0,0,1-2.12-2.13q0-3.37,0-6.75c0-1.16.71-1.84,2.18-2.21V25.9H41.36V21.5H47a8.74,8.74,0,0,1,0-8.85H41.36V8.27c.19,0,.39,0,.58,0,4.21,0,8.41,0,12.62,0a8.82,8.82,0,0,1,8.8,9.29,8.72,8.72,0,0,1-1.88,4.95,1.44,1.44,0,0,0-.29.79q0,5.55,0,11.1A2.45,2.45,0,0,0,61.2,34.63Zm-.58-17.34A5.84,5.84,0,1,0,54.75,23,6,6,0,0,0,60.62,17.29ZM58.9,35.74,59,24.63l-8.24-.19q0,5.74.07,11.49ZM61,43.91c.13-2.09.25-4.17.38-6.26l-13-.25c0,2.23,0,4.46.07,6.7Z"/><path class="cls-2" d="M13,20c3.65-4.35,5-4.85,5.59-4.55a1.72,1.72,0,0,1,.62,1.12,2.42,2.42,0,0,1-.77,2.18q-2,2.05-4.09,4.09a2.21,2.21,0,0,1-3.44,0c-.67-.66-1.34-1.32-2-2a2.29,2.29,0,0,1-.66-2,1.79,1.79,0,0,1,.61-1.16C9.67,17.23,11.37,18.11,13,20Z"/><path class="cls-2" d="M13,29.06c3.65-4.35,5-4.85,5.59-4.55a1.72,1.72,0,0,1,.62,1.11,2.4,2.4,0,0,1-.77,2.18c-1.36,1.37-2.72,2.74-4.09,4.09a2.21,2.21,0,0,1-3.44,0c-.67-.66-1.34-1.32-2-2a2.27,2.27,0,0,1-.66-2,1.83,1.83,0,0,1,.61-1.17C9.67,26.25,11.37,27.14,13,29.06Z"/><path class="cls-2" d="M13.31,39.33c3.66-4.36,5-4.85,5.59-4.55a1.68,1.68,0,0,1,.62,1.11,2.41,2.41,0,0,1-.77,2.18l-4.09,4.09a2.21,2.21,0,0,1-3.44,0c-.67-.66-1.34-1.32-2-2a2.28,2.28,0,0,1-.66-2A1.86,1.86,0,0,1,9.18,37C10,36.52,11.67,37.4,13.31,39.33Z"/><path class="cls-3" d="M-145,99.86-26.44,214.13A65.62,65.62,0,0,0-16.6,218c6.68,2.05,35.23,10.82,54-6.21,20.7-18.74,11.28-52.16,10.83-53.65a52.59,52.59,0,0,0-2.47-6.63l-113-113.5A276.53,276.53,0,0,1-102.86,72.1,276.32,276.32,0,0,1-145,99.86Z"/></svg>