<svg id="Layer_1" data-name="Layer 1" xmlns="http://www.w3.org/2000/svg" viewBox="0 0 65 65"><defs><style>.cls-1{fill:blue;}.cls-2{fill:#f3f945;}</style></defs><path class="cls-1" d="M32.52,60.77H6.68a1.28,1.28,0,0,1-.48,0c-.36-.15-.84-.27-1-.55a1.34,1.34,0,0,1,.14-1.11c1.37-2,2.8-4,4.2-6,.79-1.14,1.88-2.19,2.28-3.46s.1-2.71.1-4.08V19c0-2.26,1.13-3.41,3.38-3.41H49.8c2.21,0,3.37,1.15,3.37,3.35q0,15,0,30.07a2.25,2.25,0,0,0,.37,1.17c2,2.91,4,5.8,6.07,8.7.29.41.58.82.3,1.35s-.76.54-1.27.54ZM13.89,49H51.21V19c0-1.2-.27-1.46-1.48-1.46H15.37c-1.21,0-1.48.26-1.48,1.46V49ZM57.1,58.78a1.7,1.7,0,0,0-.11-.23q-2.54-3.64-5.11-7.28a1,1,0,0,0-.7-.3q-18.63,0-37.24,0a.9.9,0,0,0-.84.46C11.52,53.69,9.92,56,8.33,58.24L8,58.78Z"/><path class="cls-2" d="M28.62,3.78a3.93,3.93,0,1,1,3.91,4A3.94,3.94,0,0,1,28.62,3.78Zm5.89,0a2,2,0,1,0-1.92,2A2,2,0,0,0,34.51,3.79Z"/><path class="cls-2" d="M6.05,20.07A3.93,3.93,0,1,1,10,16.19,3.93,3.93,0,0,1,6.05,20.07Zm0-2a2,2,0,1,0-1.92-2A2,2,0,0,0,6,18.1Z"/><path class="cls-2" d="M59,20.06a3.92,3.92,0,0,1,.11-7.84A3.92,3.92,0,1,1,59,20.06Zm.07-2a2,2,0,1,0-2-1.94A2,2,0,0,0,59.06,18.1Z"/><path class="cls-1" d="M25.79,3.33a.69.69,0,0,1,.1.16c.08.56.17,1.13.26,1.76-5.68.93-11,2.69-15.58,6.5L9.93,11c-.21-.23-.4-.46-.66-.76C14.09,6.22,19.75,4.31,25.79,3.33Z"/><path class="cls-1" d="M55.66,10.13l-1.27,1.48C49.84,7.9,44.53,6.14,38.78,5.23l.27-1.94C45.15,4.24,50.8,6.14,55.66,10.13Z"/><path class="cls-1" d="M10.85,29.59,9.64,31.05a15,15,0,0,1-5.27-8l.54-.15,1.3-.29C7.76,26.34,7.53,26.25,10.85,29.59Z"/><path class="cls-1" d="M55.66,30.89l-1.17-1.37a34.36,34.36,0,0,0,2.65-3.23A35.24,35.24,0,0,0,59,22.5l1.73.36A15,15,0,0,1,55.66,30.89Z"/><path class="cls-2" d="M39.61,44.91a8.56,8.56,0,0,1-1-.75c-.33-.36-.64-.53-1.08-.2a.7.7,0,0,1-.28.12c-.93.23-1.57.63-1.38,1.78.08.48-.32.82-.82.92a13.05,13.05,0,0,1-5.06,0,1,1,0,0,1-.87-1,2.53,2.53,0,0,1,0-.55.69.69,0,0,0-.65-.9l-.11,0c-.88-.5-1.7-.81-2.44.27a.79.79,0,0,1-1.12,0A13.22,13.22,0,0,1,21.17,41a.93.93,0,0,1,.09-1.19,3.65,3.65,0,0,1,.52-.52.57.57,0,0,0,.13-.89,1,1,0,0,1-.15-.34c-.25-.93-.64-1.6-1.83-1.41-.5.08-.8-.37-.9-.9a13,13,0,0,1,0-4.82c.15-.77.44-1.08,1.2-1s1.24-.19,1.36-1a.42.42,0,0,1,0-.12,1.26,1.26,0,0,0-.3-2,.9.9,0,0,1-.09-1.32A13.51,13.51,0,0,1,24.72,22a.93.93,0,0,1,1.46.15,1.11,1.11,0,0,0,1.74.28l.11-.05a1.21,1.21,0,0,0,1.15-1.55c-.08-.57.29-.94.89-1.05a12.76,12.76,0,0,1,4.81,0c.81.15,1.12.44,1,1.23a1,1,0,0,0,.94,1.32.28.28,0,0,1,.12,0A1.3,1.3,0,0,0,39,22a.87.87,0,0,1,1.27-.09,13.4,13.4,0,0,1,3.58,3.58,1,1,0,0,1-.09,1.29,2.91,2.91,0,0,1-.43.43.63.63,0,0,0-.15,1,.9.9,0,0,1,.13.28c.24.93.62,1.61,1.81,1.42.51-.09.81.37.91.9a13.18,13.18,0,0,1,0,4.81c-.15.77-.44,1.08-1.2,1s-1.23.2-1.36,1a.22.22,0,0,1-.05.11,1.26,1.26,0,0,0,.31,2,.92.92,0,0,1,.09,1.33,13.21,13.21,0,0,1-3.54,3.53A4.37,4.37,0,0,1,39.61,44.91Zm2.27-19L40,23.9C38.58,25,38.1,25,36.7,24.37c-.39-.18-.79-.33-1.19-.48A2.22,2.22,0,0,1,34,22a.63.63,0,0,0-.42-.43c-.59-.06-1.19,0-1.78,0s-.72.14-.71.66a1.57,1.57,0,0,1-.26.74c-.48.85-3.28,2.07-4.23,1.83a4.29,4.29,0,0,1-.93-.42,3.45,3.45,0,0,1-.47-.34l-2,1.81c1.06,1.46,1.1,1.94.46,3.34-.17.37-.31.75-.45,1.14a2.27,2.27,0,0,1-1.93,1.58.65.65,0,0,0-.43.42c-.06.59,0,1.18,0,1.78s.14.71.66.71a1.85,1.85,0,0,1,.79.29A6.51,6.51,0,0,1,24,39.19a3.88,3.88,0,0,1-.37.9,3.54,3.54,0,0,1-.37.5l1.95,2a2.4,2.4,0,0,1,3.16-.39,9.31,9.31,0,0,0,1.14.45,2.25,2.25,0,0,1,1.58,1.93.65.65,0,0,0,.42.43c.59.06,1.19,0,1.78,0s.72-.13.71-.66a1.57,1.57,0,0,1,.23-.68c.51-1,3.34-2.15,4.37-1.86a4.75,4.75,0,0,1,.82.39,4.46,4.46,0,0,1,.42.31l2-2a2.38,2.38,0,0,1-.4-3.15,9.68,9.68,0,0,0,.48-1.2,2.2,2.2,0,0,1,1.9-1.52.67.67,0,0,0,.43-.42c0-.65,0-1.31,0-2,0-.35-.16-.49-.52-.52A2,2,0,0,1,42,30.43c-.18-.43-.31-.89-.53-1.3A2.43,2.43,0,0,1,41.88,25.94Z"/><path class="cls-2" d="M18.8,55.82c0-.57,0-1.1,0-1.63a1.3,1.3,0,0,1,0-.26H49.2v1.89Z"/><path class="cls-1" d="M24.31,33.27c0-4.6,3.77-8.6,8.23-8.52a8.53,8.53,0,0,1,0,17C28.06,41.87,24.31,37.88,24.31,33.27Zm14.52.06a6.58,6.58,0,1,0-6.59,6.54A6.45,6.45,0,0,0,38.83,33.33Z"/><path class="cls-1" d="M37.2,32.6a1.87,1.87,0,0,1-.45.65,2.45,2.45,0,0,0-1,3.09,1,1,0,0,1-1.45,1.1,2.56,2.56,0,0,0-3.36,0,1,1,0,0,1-1.47-1.07,2.55,2.55,0,0,0-1-3.16,1.33,1.33,0,0,1-.37-1.06.83.83,0,0,1,.93-.71,2.38,2.38,0,0,0,2.63-1.89.84.84,0,0,1,1-.66c.35.09.83.36.92.66a2.49,2.49,0,0,0,2.64,1.89A1,1,0,0,1,37.2,32.6Zm-4.69-.39a1.22,1.22,0,0,1-1.14.88l.52,1.67c.45-.46,1-.23,1.73.07a1.26,1.26,0,0,1,.3-1.59Z"/></svg>