<svg id="Layer_1" data-name="Layer 1" xmlns="http://www.w3.org/2000/svg" viewBox="0 0 65 65"><defs><style>.cls-1{fill:blue;}.cls-2{fill:#f3f945;}</style></defs><path class="cls-1" d="M22.9,43.7c.42.22.79.4,1.14.6a.94.94,0,0,1,.49,1.19c-.31,1-.63,1.95-1,2.91a1,1,0,0,1-1.28.63c-1-.3-1.92-.59-2.84-1a1.57,1.57,0,0,1-.72-.76c-.28-.64-.45-1.32-.68-2-.06-.16-.16-.37-.3-.42-1.26-.44-2.54-.86-4-1.34L16.53,53h3.81c1,0,1.3.33,1.3,1.28v4.58H34.41V55.32c0-1,.32-1.31,1.32-1.31h9.44V22.58H43.36c-2,0-2.07,0-2.07-2.1V17.7H26.56c0,.78,0,1.57,0,2.36a.69.69,0,0,0,.24.39c.94.95,1.87,1.9,2.83,2.82a1.12,1.12,0,0,0,.69.28c1,0,2,0,2.94,0a1,1,0,0,1,1.14,1.13c0,1.87,0,3.73,0,5.59a1,1,0,0,1-1.13,1.13q-7.71,0-15.41,0a1,1,0,0,1-1.14-1.13q0-2.79,0-5.58a1,1,0,0,1,1.13-1.14c1,0,1.93,0,2.89,0a1.39,1.39,0,0,0,.79-.32c.94-.89,1.84-1.81,2.74-2.73a1,1,0,0,0,.29-.56c0-.73,0-1.46,0-2.27H15.11c-1,0-1.32-.32-1.33-1.31V13.23c0-1.18.27-1.46,1.43-1.46h26c.18-.89.83-1,1.61-1,3.29,0,6.59,0,9.88,0,.88,0,1.07.13,1.38,1H56c.16-.83.75-1,1.53-1,1.09,0,2.17,0,3.26,0,.77,0,1.14.37,1.14,1.13q0,4.26,0,8.53c0,.79-.37,1.14-1.18,1.14-1.15,0-2.29,0-3.44,0-.93,0-1.26-.33-1.27-1.24v-.69l-.35,0H54.06c0,.53,0,1,0,1.54,0,.74-.17,1.29-1,1.44V54h5.71A1,1,0,0,1,60,55.14c0,1.23,0,2.45,0,3.75h1.92v2H3V58.93H4.94V54.65c0-1.43.19-1.61,1.63-1.63h.5c.56-1.87,1.13-3.76,1.68-5.65a1.44,1.44,0,0,0-.06-.71c-.23-.87-.49-1.73-.73-2.6a6,6,0,0,0-1.18-2.42,3.78,3.78,0,0,1,.56-5.37,3.93,3.93,0,0,1,5.43.36,2.05,2.05,0,0,0,.84.55c1.77.62,3.56,1.2,5.34,1.81a.64.64,0,0,0,.8-.19,5.27,5.27,0,0,0,1.18-1.66,2.9,2.9,0,0,1,4.2-1.37c1.36.79,2.71,1.6,4.13,2.26a1.81,1.81,0,0,1,1.24,2c-.08,1,0,2,0,2.95,0,.8-.36,1.16-1.15,1.17H26.75c-.81,0-1.16-.35-1.18-1.15v-.8a1.19,1.19,0,0,0-1.44-1,.58.58,0,0,0-.34.29C23.48,42.2,23.21,42.92,22.9,43.7ZM36.4,58.87H57.94V56H36.4ZM15.77,15.66H41.26V13.77H15.77Zm33.33,2V12.79H43.29v4.85ZM14.76,54a2.95,2.95,0,1,0-2.9,3A3,3,0,0,0,14.76,54Zm1.89,1a5.07,5.07,0,0,1-4,3.87h7V55ZM43.28,20.57h8.77V12.79h-.94v5.65c0,.84-.36,1.19-1.2,1.19-1.57,0-3.15,0-4.72,0H43.28ZM58,19.6h1.9V12.8H58ZM47.76,35.24l3.3,3.31V31.94Zm-.55,9.3,3.25-3.25-3.25-3.24Zm3.32-15.08-3.31-3.31v6.64ZM47.81,47.07l3.26,3.26V43.8ZM13.3,41.35,18,42.91l.49-2-4.62-1.54ZM51.07,27V22.62h-4a2.58,2.58,0,0,0,.33.74C48.59,24.57,49.8,25.76,51.07,27ZM47.22,49.55V54h4c-.1-.28-.12-.55-.27-.7C49.73,52,48.51,50.84,47.22,49.55ZM11.81,39.29a2,2,0,1,0-2,1.94A2,2,0,0,0,11.81,39.29ZM22.4,45.67l-.93-.48c-.84-.42-1-.78-.62-1.67.27-.69.54-1.37.82-2.05s.32-.81-.56-1.37a5.32,5.32,0,0,0-.64,1.07,9.29,9.29,0,0,0-.62,2.6,10.33,10.33,0,0,0,.64,2.56c0,.05.14.07.21.1l1.29.43ZM56,17.64V13.79H54.09v3.85ZM9.78,43.28l.81,2.85h1.88l-.93-3.24ZM22.67,25.55v.91h5.82v-.91Zm-.05,3.86h5.87V28.5H22.66a1.38,1.38,0,0,0,0,.26C22.62,29,22.62,29.17,22.62,29.41ZM10.86,58.89a5.37,5.37,0,0,1-3.92-3.75v3.75ZM28.52,42.21c0-.72,0-1.39,0-2.06a.51.51,0,0,0-.23-.37c-.56-.31-1.15-.59-1.75-.89l-.37.94a1.93,1.93,0,0,1,1.36,2.38Zm-4.91-2.94a1,1,0,0,0,0-2,1,1,0,1,0,0,2ZM13.32,49.2l-.27-1.07H10.59l-.28,1.07ZM27,23.53l-1.4-1.44-1.4,1.44Zm-6.37,2.95v-.91H18.73v.91Zm9.91,2v.91H32.4V28.5Zm-9.89,0h-1.9v.91h1.9Zm9.89-2.95v.91h1.9v-.91Z"/><path class="cls-2" d="M51.32,5.51a6,6,0,0,0-8.26.1c-.43-.45-.87-.9-1.31-1.34a7.71,7.71,0,0,1,11,0Z"/><path class="cls-2" d="M15.41,27.83,14,29.11a6,6,0,0,0-8.28.07L4.41,27.85A7.73,7.73,0,0,1,15.41,27.83Z"/><path class="cls-2" d="M45.15,7.69,43.83,6.38a4.72,4.72,0,0,1,6.82,0L49.28,7.65A3,3,0,0,0,45.15,7.69Z"/><path class="cls-2" d="M6.49,29.89a4.77,4.77,0,0,1,6.82,0l-1.37,1.28a3,3,0,0,0-4.12.05Z"/><path class="cls-2" d="M47.23,9.81a1,1,0,0,1-1-1,1,1,0,0,1,1-1,1,1,0,0,1,0,2Z"/><path class="cls-2" d="M9.82,33.37A1,1,0,0,1,10,31.42a1,1,0,0,1,.88,1.06A1,1,0,0,1,9.82,33.37Z"/><path d="M11.79,55a1,1,0,1,1,1-.94A1,1,0,0,1,11.79,55Z"/><path d="M9.82,40.25a1,1,0,1,1,1-1A1,1,0,0,1,9.82,40.25Z"/></svg>