<svg id="Layer_1" data-name="Layer 1" xmlns="http://www.w3.org/2000/svg" viewBox="0 0 65 65"><defs><style>.cls-1{fill:#190f2d;}</style></defs><path class="cls-1" d="M22.89,50.82V47.16H3c-1,0-1.19-.2-1.19-1.17q0-16.86,0-33.73c0-1,.18-1.19,1.17-1.19H51.78c1,0,1.21.21,1.21,1.24V29.53c.62.12,1.2.2,1.77.34a10.83,10.83,0,0,1-.57,21.18,10.65,10.65,0,0,1-10.11-3.47,1.12,1.12,0,0,0-.71-.4c-3.75,0-7.49,0-11.24,0a1.39,1.39,0,0,0-.23,0v3.59c.22,0,.44,0,.67,0h7.36c.89,0,1.08.2,1.09,1.09,0,1.29,0,2.58,0,3.87,0,.79-.25,1-1,1H14.78c-.76,0-1-.26-1-1q0-2,0-3.93c0-.79.24-1,1-1h8.09ZM51.42,29.49V12.64h-48v27H40.78c.42,0,.62,0,.69-.55a10.59,10.59,0,0,1,7.27-9A23.33,23.33,0,0,1,51.42,29.49Zm.78,1.58a9.32,9.32,0,1,0,9.34,9.33A9.37,9.37,0,0,0,52.2,31.07ZM41.33,41.21H3.38v4.38H42.62c-.27-.73-.58-1.4-.78-2.1S41.5,42,41.33,41.21Zm-26,14H39.45V52.38H15.32Zm9.17-8.06v3.59h5.8V47.19Z"/><path class="cls-1" d="M25.79,23.63c-.26.59,0,.84.47,1.08,1.09.62,2.16,1.27,3.22,1.93a.61.61,0,0,0,.83,0,2.94,2.94,0,0,1,3.12-.31.54.54,0,0,0,.71-.11q2.19-2.09,4.4-4.13a.59.59,0,0,0,.17-.76,3.1,3.1,0,0,1,5.19-3.18A3.1,3.1,0,0,1,40.32,23a.54.54,0,0,0-.71.1c-1.46,1.39-2.92,2.77-4.4,4.13A.58.58,0,0,0,35,28a3.05,3.05,0,0,1-.87,3.46,3.13,3.13,0,0,1-3.5.37,3.17,3.17,0,0,1-1.59-3.27.73.73,0,0,0-.29-.57c-1.16-.74-2.35-1.42-3.52-2.15a.54.54,0,0,0-.72,0,2.93,2.93,0,0,1-3.23.31.54.54,0,0,0-.71.12c-1.44,1.32-2.88,2.63-4.34,3.92a.56.56,0,0,0-.16.71A3.09,3.09,0,0,1,13.94,35a3.12,3.12,0,0,1-3.82-2.45A3.06,3.06,0,0,1,12.81,29a4.48,4.48,0,0,1,1.72.29.59.59,0,0,0,.71-.12c1.41-1.29,2.82-2.58,4.25-3.83a.73.73,0,0,0,.23-.92,3.09,3.09,0,1,1,5.91-1.82A8.82,8.82,0,0,1,25.79,23.63Zm-12.61,10A1.59,1.59,0,0,0,14.77,32a1.59,1.59,0,1,0-3.17,0A1.57,1.57,0,0,0,13.18,33.58Zm28.4-11.79a1.57,1.57,0,1,0,.09-3.13,1.57,1.57,0,1,0-.09,3.13Zm-9.46,8.9a1.57,1.57,0,1,0-1.57-1.57A1.59,1.59,0,0,0,32.12,30.69Zm-7.89-7.27a1.57,1.57,0,0,0-3.14,0,1.57,1.57,0,1,0,3.14,0Z"/><path class="cls-1" d="M53,39.65h2.57c.63,0,1,.27,1,.75s-.36.76-1,.77H52.39c-.66,0-.92-.28-.92-.94,0-1.65,0-3.3,0-4.95,0-.52.2-.87.74-.91s.78.35.78,1c0,1.19,0,2.37,0,3.55Z"/></svg>