<svg id="Layer_1" data-name="Layer 1" xmlns="http://www.w3.org/2000/svg" viewBox="0 0 65 65"><defs><style>.cls-1{fill:blue;}.cls-2{fill:#f3f945;}</style></defs><path class="cls-1" d="M21.93,28V38.84h.71c2.61,0,5.21,0,7.81,0,2.35,0,3.62,1.27,3.62,3.6q0,7.88,0,15.75a3.22,3.22,0,0,1-3.21,3.43,3.18,3.18,0,0,1-3.14-2.83c0-.32,0-.64,0-.95V45.23H15.86a3.38,3.38,0,0,1-3.74-3.72c0-5.7,0-11.39,0-17.08a3.7,3.7,0,0,1,2-3.69,4.85,4.85,0,0,1-1.81-4.47,4.7,4.7,0,0,1,1.69-3,4.79,4.79,0,0,1,6.55.4A4.86,4.86,0,0,1,20,20.74l.76.44c1.9,1.1,3.78,2.24,5.72,3.27a5.27,5.27,0,0,0,2.16.58c1.92.08,3.85,0,5.77,0a2.59,2.59,0,0,1,2.45,1.52,2.52,2.52,0,0,1-.25,2.7,2.43,2.43,0,0,1-2,1.09c-2.52,0-5,.05-7.56,0a5.2,5.2,0,0,1-2-.62C23.94,29.25,23,28.64,21.93,28Zm-8.54,4.78v8.64c0,1.75.76,2.5,2.52,2.5H27.58c1.35,0,1.36,0,1.36,1.33q0,6.28,0,12.56a5.71,5.71,0,0,0,0,.83,1.89,1.89,0,0,0,3.72.24,4.16,4.16,0,0,0,.09-.94q0-7.74,0-15.49c0-1.68-.7-2.38-2.39-2.38H21.59c-.79,0-1-.17-1-.91q0-6,0-12c0-.88.43-1.12,1.22-.68,1.19.69,2.36,1.41,3.58,2a3.93,3.93,0,0,0,1.6.53c2.47.05,4.95,0,7.42,0a1.29,1.29,0,0,0,1.29-.94,1.38,1.38,0,0,0-1.41-1.83c-1.82,0-3.64,0-5.46,0a5.71,5.71,0,0,1-3.25-.86c-1.15-.71-2.4-1.28-3.5-2.06a9.19,9.19,0,0,0-6.44-1.71c-1.49.13-2.28.82-2.28,2.34Q13.39,28.43,13.39,32.81Zm7.14-15.9A3.52,3.52,0,1,0,17,20.46,3.53,3.53,0,0,0,20.53,16.91Z"/><path class="cls-1" d="M55.68,37.49V58.13a3.16,3.16,0,0,1-3.5,3.49q-4.6,0-9.21,0a3.13,3.13,0,0,1-3.43-3.41q0-9.94,0-19.87v-.85H28.8c-1.47,0-2.09-.62-2.1-2.06,0-.4,0-.81,0-1.21a1.73,1.73,0,0,1,1.69-1.78,5.42,5.42,0,0,1,.57,0H55.87c1.71,0,2.29.58,2.29,2.28v.89a1.75,1.75,0,0,1-1.9,1.89ZM42.44,33.7H29.62c-1.9,0-1.64-.09-1.65,1.62,0,.85.05.9.9.9H39.72c.94,0,1.08.15,1.08,1.12V58.15c0,1.52.69,2.2,2.21,2.2h9.14c1.56,0,2.26-.69,2.26-2.23V37.24c0-.85.15-1,1-1,1.63,0,1.51.1,1.51-1.52,0-1,0-1-1-1Z"/><path class="cls-2" d="M16.4,60.35V48.3H10a2.83,2.83,0,0,1-3-3c0-5.89,0-11.77,0-17.65,0-.43.07-.85.61-.86s.66.48.66.94c0,5.57,0,11.13,0,16.7,0,1.79.28,2.63,2.59,2.59,4.27-.08,8.55,0,12.82,0h.51c.44,0,.76.2.75.67s-.32.6-.75.6H17.75V60.35h6.33c.44,0,.79.14.8.61s-.34.67-.81.67q-7,0-14,0c-.47,0-.83-.17-.81-.67s.37-.61.8-.61Z"/><path class="cls-1" d="M38.85,20.35H36.63a1.68,1.68,0,0,1-1.77-1.54,4.29,4.29,0,0,0-.71-1.64,6,6,0,0,1-.48-6.73,6,6,0,0,1,11,1.59,5.75,5.75,0,0,1-1.11,5.08,3.2,3.2,0,0,0-.75,1.77,1.55,1.55,0,0,1-1.68,1.47Zm-.06-1.27c.74,0,1.48,0,2.22,0,.19,0,.52-.24.53-.37a4.59,4.59,0,0,1,1.15-2.55A4.53,4.53,0,0,0,42.87,11a4.61,4.61,0,0,0-4.65-2.2,4.53,4.53,0,0,0-3.75,2.94,4.53,4.53,0,0,0,.77,4.76,3.37,3.37,0,0,1,.89,2.12c0,.42.26.52.63.51C37.44,19.07,38.11,19.08,38.79,19.08Z"/><path class="cls-1" d="M44.52,31.13h-5a3.27,3.27,0,0,1-.44,0c-.38-.05-.64-.24-.62-.66a.57.57,0,0,1,.66-.6h1.91c2.53,0,5.07,0,7.61,0,.63,0,.85-.21,1-.79.82-2.93,1.69-5.84,2.54-8.76,0-.12,0-.29.12-.35.23-.17.49-.42.74-.41s.54.38.44.76c-.24.89-.51,1.78-.77,2.68L50.7,30.18c-.26.89-.35.95-1.29.95Z"/><path class="cls-2" d="M38.86,21c.72,0,1.44,0,2.16,0,.44,0,.82.1.82.64s-.36.63-.78.63c-1.48,0-3,0-4.43,0-.43,0-.77-.17-.76-.65s.35-.62.78-.62C37.39,21,38.12,21,38.86,21Z"/><path class="cls-2" d="M38.84,24.05H37.13a.58.58,0,0,1-.66-.6.59.59,0,0,1,.62-.65q1.77,0,3.54,0c.39,0,.69.28.58.67a.89.89,0,0,1-.6.55,13,13,0,0,1-1.77,0Z"/><path class="cls-2" d="M47.16,7.86c.25.24.51.38.56.57a.74.74,0,0,1-.18.66,21.74,21.74,0,0,1-2.24,1.3.71.71,0,0,1-.66-.18c-.13-.16-.17-.61-.07-.68C45.38,9,46.25,8.44,47.16,7.86Z"/><path class="cls-2" d="M33.31,5.15c.2-.24.33-.53.51-.57a.78.78,0,0,1,.71.18A18.22,18.22,0,0,1,35.8,6.94a.77.77,0,0,1-.19.71c-.13.13-.6.15-.67,0C34.38,6.89,33.87,6.05,33.31,5.15Z"/><path class="cls-2" d="M44.34,5.09c-.12.25-.18.41-.26.55A19,19,0,0,1,43,7.44a1,1,0,0,1-.84.26c-.37-.1-.44-.49-.25-.84.38-.68.75-1.38,1.19-2a.91.91,0,0,1,.73-.28C44,4.6,44.18,4.91,44.34,5.09Z"/><path class="cls-2" d="M47.25,18.89a3.45,3.45,0,0,1-.47-.16l-1.92-1.11a.62.62,0,0,1-.3-.91c.22-.38.57-.39.94-.18.64.37,1.3.71,1.9,1.13a.87.87,0,0,1,.32.72C47.71,18.58,47.4,18.74,47.25,18.89Z"/><path class="cls-2" d="M38.23,5.05a4.77,4.77,0,0,1,0-1.2c.06-.25.36-.43.56-.64.22.21.61.41.63.64a12.83,12.83,0,0,1,0,2.4.83.83,0,0,1-.6.56c-.2,0-.53-.33-.59-.57a4.71,4.71,0,0,1,0-1.19Z"/><path class="cls-2" d="M47.27,14.05a4.77,4.77,0,0,1-1.2,0c-.25-.06-.43-.37-.65-.56.21-.22.41-.61.64-.63a12.19,12.19,0,0,1,2.34,0,.94.94,0,0,1,.63.61c.09.38-.23.6-.62.62Z"/><path class="cls-2" d="M33.23,17.16a1.49,1.49,0,0,1-.34.42c-.64.41-1.31.78-2,1.15a.61.61,0,0,1-.92-.24.59.59,0,0,1,.3-.85c.65-.39,1.3-.78,2-1.13C32.76,16.25,33.22,16.52,33.23,17.16Z"/><path class="cls-2" d="M30.55,7.93l.81.44a11.92,11.92,0,0,1,1.57,1,.83.83,0,0,1,.19.79.85.85,0,0,1-.78.25A16.3,16.3,0,0,1,30.2,9.12a.78.78,0,0,1-.2-.7C30.06,8.22,30.36,8.09,30.55,7.93Z"/><path class="cls-2" d="M30.46,14.05a4.25,4.25,0,0,1-1.13,0c-.26-.08-.46-.38-.69-.58.21-.22.41-.6.64-.62a11.44,11.44,0,0,1,2.34,0c.24,0,.44.4.66.61-.22.21-.42.52-.68.59A3.93,3.93,0,0,1,30.46,14.05Z"/><path class="cls-2" d="M34.9,13.15c0-1.51,1.6-3.44,2.91-3.54.22,0,.65.26.65.4a1,1,0,0,1-.39.78,3.06,3.06,0,0,0-1.64,1.42,7.06,7.06,0,0,1-.32.95,1,1,0,0,1-.72.42C35.19,13.58,35,13.25,34.9,13.15Z"/></svg>