<svg id="Layer_1" data-name="Layer 1" xmlns="http://www.w3.org/2000/svg" viewBox="0 0 65 65"><defs><style>.cls-1{fill:blue;}.cls-2{fill:#f3f945;}</style></defs><path class="cls-1" d="M0,10.26A11.36,11.36,0,0,1,.73,9.1c1.5-1.91,3-3.79,4.53-5.68.77-1,1.6-1,2.36,0,1.55,1.9,3.07,3.8,4.6,5.7.13.16.24.33.36.49a1.26,1.26,0,0,1-1,2.12c-.39,0-.79,0-1.26,0V29.3c0,1.37-.4,1.77-1.76,1.77H4.33c-1.31,0-1.75-.44-1.75-1.74q0-8.44,0-16.89v-.73c-1,0-2.2.17-2.57-1.21Zm4-1.2a1.53,1.53,0,0,1,1.19,1.75c0,5.63,0,11.26,0,16.89v.72H7.75v-.75c0-5.47,0-10.94,0-16.4,0-.95-.1-1.91,1.17-2.21L6.46,6Z"/><path class="cls-2" d="M15.87,2.62a1.53,1.53,0,0,1,.93,1.24,1.27,1.27,0,0,1-1.27,1.33c-.85,0-1.69,0-2.54,0a1.28,1.28,0,0,1-1.33-1,1.33,1.33,0,0,1,.73-1.45,2.25,2.25,0,0,0,.21-.12Z"/><path class="cls-2" d="M23.63,2.62a1.5,1.5,0,0,1,.92,1.24,1.27,1.27,0,0,1-1.27,1.33c-.84,0-1.69,0-2.53,0a1.28,1.28,0,0,1-1.33-1,1.32,1.32,0,0,1,.73-1.45l.21-.12Z"/><path class="cls-2" d="M31.38,2.62a1.53,1.53,0,0,1,.93,1.24A1.28,1.28,0,0,1,31,5.19c-.85,0-1.69,0-2.54,0a1.28,1.28,0,0,1-1.33-1,1.33,1.33,0,0,1,.73-1.45l.21-.12Z"/><path class="cls-2" d="M39.14,2.62a1.5,1.5,0,0,1,.92,1.24,1.27,1.27,0,0,1-1.27,1.33c-.84,0-1.69,0-2.53,0a1.28,1.28,0,0,1-1.33-1,1.31,1.31,0,0,1,.73-1.45,1.32,1.32,0,0,0,.2-.12Z"/><path class="cls-2" d="M46.89,2.62a1.53,1.53,0,0,1,.93,1.24,1.28,1.28,0,0,1-1.27,1.33c-.85,0-1.69,0-2.54,0a1.28,1.28,0,0,1-1.33-1,1.33,1.33,0,0,1,.73-1.45l.21-.12Z"/><path class="cls-2" d="M54.65,2.62a1.51,1.51,0,0,1,.92,1.24A1.27,1.27,0,0,1,54.3,5.19c-.84,0-1.69,0-2.53,0a1.29,1.29,0,0,1-1.34-1,1.33,1.33,0,0,1,.74-1.45,1.32,1.32,0,0,0,.2-.12Z"/><path class="cls-2" d="M61.07,2.62a1.53,1.53,0,0,1,1,1.69c0,.32,0,.65,0,1a1.3,1.3,0,0,1-1.14,1.21,1.32,1.32,0,0,1-1.37-.87c-.06-.15-.14-.39-.25-.42A1.28,1.28,0,0,1,58.17,4c0-.68.4-1.05,1-1.33Z"/><path class="cls-1" d="M36.22,46.63V49.1l.57.13a2.51,2.51,0,0,1,2,2.45c0,2.62,0,5.25,0,7.87A2.51,2.51,0,0,1,36.61,62a5.11,5.11,0,0,1-.78,0q-15.15,0-30.29,0a4.32,4.32,0,0,1-1.19-.15,2.55,2.55,0,0,1-1.77-2.55c0-2.51,0-5,0-7.51,0-1.54.86-2.45,2.55-2.76V46.66s0-.06-.07-.06c-1.92-.5-2.48-1.23-2.49-3.21q0-3.42,0-6.85a2.62,2.62,0,0,1,2.88-2.9H35.92a2.6,2.6,0,0,1,2.85,2.86v6.85C38.77,45.39,38.23,46.1,36.22,46.63Zm-31-10.38v7.67H36.15V36.25Zm0,23.19H36.14V51.77H5.21ZM33.56,46.62H7.79v2.5H33.56Z"/><path class="cls-1" d="M52.93,62.09H43c-1.19,0-1.67-.46-1.67-1.63,0-1.52,0-3,0-4.54,0-1.13.46-1.58,1.59-1.58H53V53.12a1.32,1.32,0,0,1,.77-1.27,1.28,1.28,0,0,1,1.41.22c2.05,1.64,4.09,3.29,6.15,4.92a1.34,1.34,0,0,1,0,2.38c-2.08,1.66-4.14,3.35-6.24,5A1.24,1.24,0,0,1,53,63.54,12.54,12.54,0,0,1,52.93,62.09Zm2.68-1.44,3.07-2.45L55.6,55.74a1.53,1.53,0,0,1-1.74,1.18c-3.07,0-6.14,0-9.21,0H44v2.57h.75c3,0,6,0,9,0C54.63,59.47,55.33,59.65,55.61,60.65Z"/><path class="cls-2" d="M15.51,16.84c.45,0,.89,0,1.33,0a1.24,1.24,0,0,1,1.23,1.3,1.22,1.22,0,0,1-1.21,1.26,24.68,24.68,0,0,1-2.72,0,1.23,1.23,0,0,1-1.2-1.27,1.26,1.26,0,0,1,1.25-1.29C14.63,16.81,15.07,16.84,15.51,16.84Z"/><path class="cls-2" d="M47.82,33.7c0,.42,0,.85,0,1.27a1.29,1.29,0,0,1-2.57,0c0-.87,0-1.74,0-2.6a1.25,1.25,0,0,1,1.27-1.27,1.27,1.27,0,0,1,1.31,1.29c0,.44,0,.89,0,1.33Z"/><path class="cls-2" d="M45.23,41.36c0-.43,0-.85,0-1.27a1.26,1.26,0,0,1,1.28-1.26,1.24,1.24,0,0,1,1.29,1.25c0,.88,0,1.77,0,2.65A1.23,1.23,0,0,1,46.5,44a1.26,1.26,0,0,1-1.26-1.27C45.21,42.25,45.23,41.8,45.23,41.36Z"/><path class="cls-2" d="M38.72,19.43c-.42,0-.85,0-1.27,0a1.26,1.26,0,0,1-1.24-1.29,1.24,1.24,0,0,1,1.26-1.28c.86,0,1.73,0,2.6,0a1.24,1.24,0,0,1,1.27,1.26,1.28,1.28,0,0,1-1.29,1.32c-.44,0-.89,0-1.33,0Z"/><path class="cls-2" d="M45.23,49.15c0-.45,0-.89,0-1.33a1.25,1.25,0,0,1,1.31-1.23,1.22,1.22,0,0,1,1.26,1.21c0,.9,0,1.81,0,2.71a1.22,1.22,0,0,1-1.26,1.21,1.26,1.26,0,0,1-1.3-1.24C45.2,50,45.23,49.59,45.23,49.15Z"/><path class="cls-2" d="M31,19.43c-.42,0-.85,0-1.27,0a1.26,1.26,0,0,1-1.25-1.29,1.24,1.24,0,0,1,1.26-1.28c.88,0,1.77,0,2.65,0a1.23,1.23,0,0,1,1.22,1.25,1.25,1.25,0,0,1-1.22,1.32c-.46,0-.93,0-1.39,0Z"/><path class="cls-2" d="M23.24,19.43c-.42,0-.85,0-1.27,0a1.29,1.29,0,0,1,0-2.58c.85,0,1.7,0,2.54,0a1.3,1.3,0,1,1,0,2.59c-.42,0-.84,0-1.27,0Z"/><path class="cls-2" d="M47.82,25.93c0,.42,0,.85,0,1.27a1.26,1.26,0,0,1-1.29,1.25,1.24,1.24,0,0,1-1.29-1.24,26.21,26.21,0,0,1,0-2.66,1.23,1.23,0,0,1,1.3-1.23,1.25,1.25,0,0,1,1.26,1.22c0,.46,0,.92,0,1.39Z"/><path class="cls-2" d="M59.47,11.68c0-.47,0-.93,0-1.4a1.27,1.27,0,0,1,2.53,0c.05.95.05,1.9,0,2.85A1.28,1.28,0,0,1,59.47,13c0-.45,0-.89,0-1.33Z"/><path class="cls-2" d="M62,27.19c0,.43,0,.85,0,1.27a1.29,1.29,0,0,1-1.31,1.3,1.26,1.26,0,0,1-1.25-1.29c0-.87,0-1.74,0-2.6a1.27,1.27,0,0,1,1.27-1.27A1.29,1.29,0,0,1,62,25.86C62.05,26.3,62,26.75,62,27.19Z"/><path class="cls-2" d="M62,34.92c0,.45,0,.89,0,1.33a1.3,1.3,0,0,1-1.29,1.27,1.27,1.27,0,0,1-1.27-1.27c0-.89,0-1.78,0-2.66a1.25,1.25,0,0,1,1.24-1.24A1.29,1.29,0,0,1,62,33.59C62.05,34,62,34.48,62,34.92Z"/><path class="cls-2" d="M59.47,19.41c0-.44,0-.88,0-1.33A1.28,1.28,0,0,1,62,18c0,.94,0,1.89,0,2.84a1.27,1.27,0,0,1-2.53-.06c0-.46,0-.92,0-1.39Z"/><path class="cls-2" d="M59.47,42.71c0-.46,0-.93,0-1.39a1.27,1.27,0,0,1,2.54,0c0,.92,0,1.85,0,2.78A1.28,1.28,0,0,1,59.47,44C59.45,43.6,59.47,43.15,59.47,42.71Z"/><path class="cls-2" d="M59.47,50.45c0-.47,0-.93,0-1.39A1.27,1.27,0,0,1,62,49c.05.94.05,1.89,0,2.84a1.28,1.28,0,0,1-2.55-.08c0-.44,0-.89,0-1.33Z"/><path class="cls-2" d="M47.85,18.81c0,.27,0,.57-.07.87a1.23,1.23,0,0,1-1.12,1,1.31,1.31,0,0,1-1.35-.81,1.26,1.26,0,0,0-.52-.53A1.31,1.31,0,0,1,44,18,1.19,1.19,0,0,1,45,16.88a7.86,7.86,0,0,1,1.68,0,1.16,1.16,0,0,1,1.08,1.05A7.94,7.94,0,0,1,47.85,18.81Z"/><path class="cls-2" d="M10.39,38.83c.45,0,.89,0,1.33,0a1.27,1.27,0,0,1,0,2.53c-.95.05-1.9.05-2.84,0A1.28,1.28,0,0,1,9,38.83c.46,0,.93,0,1.39,0Z"/><path class="cls-2" d="M33.58,40.08a1.27,1.27,0,0,1-1.28,1.31A1.31,1.31,0,0,1,31,40.13a1.28,1.28,0,0,1,1.29-1.3A1.24,1.24,0,0,1,33.58,40.08Z"/><path class="cls-2" d="M10.37,54.34c.45,0,.89,0,1.33,0a1.27,1.27,0,0,1,0,2.54c-.93,0-1.86,0-2.78,0a1.27,1.27,0,0,1,0-2.54C9.44,54.32,9.91,54.34,10.37,54.34Z"/><path class="cls-2" d="M33.59,55.62a1.28,1.28,0,0,1-1.26,1.28A1.3,1.3,0,0,1,31,55.61a1.28,1.28,0,0,1,1.33-1.27A1.25,1.25,0,0,1,33.59,55.62Z"/></svg>