<svg id="Layer_1" data-name="Layer 1" xmlns="http://www.w3.org/2000/svg" viewBox="0 0 65 65"><defs><style>.cls-1{fill:blue;}.cls-2{fill:#f3f945;}</style></defs><path class="cls-1" d="M2.6,27.25V4.5c0-1.83.81-2.64,2.65-2.64H37.44c1.84,0,2.66.82,2.66,2.64V50c0,1.78-.83,2.61-2.62,2.61H5.22c-1.79,0-2.62-.83-2.62-2.61ZM5.37,4.84,5.05,49.9l32.49-.25L37.73,4.9l-8.8-.25a46.57,46.57,0,0,1,.14,5.69,2.82,2.82,0,0,1-.65,1.93,2.61,2.61,0,0,1-1.88.62H16.14a2.56,2.56,0,0,1-1.87-.63,2.73,2.73,0,0,1-.64-1.87,21,21,0,0,1,.42-5.29ZM27.9,6.56l-12-.06v4.85l12-.13Z"/><path class="cls-1" d="M62.18,34.88c1.73.48,2.18,1.09,2.18,2.9s0,3.86,0,5.79A2.22,2.22,0,0,1,62,46H58l-.18,0V50.4h2.05A2.2,2.2,0,0,1,62,51.69c.73,1.43,1.44,2.87,2.16,4.31a2.19,2.19,0,0,1,0,2c-.72,1.44-1.42,2.88-2.16,4.31a2.17,2.17,0,0,1-3,1A2.22,2.22,0,0,1,58,60.34c.45-.93.91-1.86,1.39-2.77a1.18,1.18,0,0,0,0-1.07,2.21,2.21,0,0,0-2.74-1.72c-1.22.15-2.48,0-3.72,0a1.16,1.16,0,0,0-.72.44,2.63,2.63,0,0,0,0,3.48,10.17,10.17,0,0,1,.87,1.71,2.2,2.2,0,0,1-1,2.94,2.17,2.17,0,0,1-2.94-1C48.41,61,47.68,59.48,47,58a2.1,2.1,0,0,1,0-2c.73-1.46,1.44-2.92,2.19-4.37a2.15,2.15,0,0,1,2.06-1.24h2.06V46h-3.4c-.35,0-.69,0-1,0a2.17,2.17,0,0,1-2.11-2.13q0-3.37,0-6.75c0-1.16.71-1.83,2.17-2.21V26.15H42.34v-4.4h5.59a8.74,8.74,0,0,1,0-8.84H42.34V8.52c.19,0,.39,0,.59,0,4.2,0,8.4,0,12.61,0a8.8,8.8,0,0,1,8.8,9.29,8.69,8.69,0,0,1-1.88,4.94,1.47,1.47,0,0,0-.29.8c0,3.7,0,7.4,0,11.1A2.11,2.11,0,0,0,62.18,34.88Zm-.57-17.34a6,6,0,0,0-6.32-6.19,5.94,5.94,0,1,0,6.32,6.19ZM59.88,36,60,24.88l-8.23-.19.06,11.49ZM62,44.16c.13-2.09.25-4.17.38-6.26l-13-.25c0,2.23.05,4.47.07,6.7Z"/><path class="cls-2" d="M14,20.29c3.66-4.36,5-4.85,5.59-4.55a1.68,1.68,0,0,1,.62,1.11A2.41,2.41,0,0,1,19.43,19c-1.36,1.37-2.72,2.74-4.09,4.09a2.22,2.22,0,0,1-3.44,0c-.67-.67-1.34-1.32-2-2a2.28,2.28,0,0,1-.66-2A1.86,1.86,0,0,1,9.86,18C10.65,17.48,12.35,18.36,14,20.29Z"/><path class="cls-2" d="M14,29.31c3.66-4.35,5-4.85,5.59-4.55a1.68,1.68,0,0,1,.62,1.12,2.42,2.42,0,0,1-.77,2.18q-2,2.06-4.09,4.09a2.21,2.21,0,0,1-3.44,0c-.67-.66-1.34-1.32-2-2a2.27,2.27,0,0,1-.66-2A1.84,1.84,0,0,1,9.86,27C10.65,26.5,12.35,27.39,14,29.31Z"/><path class="cls-2" d="M14.29,39.58c3.66-4.36,5-4.85,5.59-4.55a1.69,1.69,0,0,1,.63,1.11,2.44,2.44,0,0,1-.78,2.18c-1.35,1.37-2.72,2.74-4.08,4.09a2.22,2.22,0,0,1-3.45,0c-.67-.66-1.34-1.32-2-2a2.28,2.28,0,0,1-.66-2,1.83,1.83,0,0,1,.62-1.17C11,36.77,12.66,37.65,14.29,39.58Z"/></svg>