<svg id="Layer_1" data-name="Layer 1" xmlns="http://www.w3.org/2000/svg" viewBox="0 0 65 65"><defs><style>.cls-1{fill:blue;}.cls-2{fill:#f3f945;}</style></defs><path class="cls-1" d="M49.43,37.09c.38-.4.74-.77,1.07-1.16a1.19,1.19,0,0,0,.21-.44,1.1,1.1,0,0,0,0-.4,3.92,3.92,0,0,1,1.63-3.48c1-.89,2-1.92,2.92-2.89a1.15,1.15,0,0,1,1.27-.41,1.13,1.13,0,0,1,.76,1.14c0,.91.13,1.82.2,2.78,1,.07,1.87.15,2.8.2a1.13,1.13,0,0,1,1.11.73,1.1,1.1,0,0,1-.34,1.23c-1.35,1.35-2.68,2.7-4,4a2.52,2.52,0,0,1-.94.47,1.6,1.6,0,0,1-.62.06,2.8,2.8,0,0,0-2.74,1.48,12.75,12.75,0,0,1,2.07,5.46A12.52,12.52,0,0,1,45,59.7a12.32,12.32,0,0,1-10.76-2.76,1.48,1.48,0,0,0-.87-.28q-12.94,0-25.89,0A4.12,4.12,0,0,1,5,56,3.73,3.73,0,0,1,3.36,52.8c0-4.62,0-9.23,0-13.85q0-15.06,0-30.11A3.69,3.69,0,0,1,6.18,5a5.07,5.07,0,0,1,1.24-.12c12.2,0,24.4,0,36.6,0A3.94,3.94,0,0,1,48.11,9c-.06,8.8,0,17.6,0,26.4,0,.66.11,1.13.78,1.36A4.61,4.61,0,0,1,49.43,37.09ZM46.26,35.5V9.06c0-1.65-.67-2.32-2.31-2.32H7.53c-1.67,0-2.34.68-2.34,2.35V52.47c0,1.68.67,2.35,2.34,2.35h24.7c-3.1-5.07-3.31-10.11.26-14.85C35.94,35.39,40.7,34.14,46.26,35.5Zm1.79,3a10.65,10.65,0,1,0,3.31,3.24c-.52.54-1,1.08-1.56,1.59a.56.56,0,0,0-.14.77,7.57,7.57,0,0,1,.71,4.44,7.69,7.69,0,0,1-5.48,6.58,7.51,7.51,0,0,1-8.28-2.13A7.59,7.59,0,0,1,35,44.58a8,8,0,0,1,10.68-4.46c.18.08.51.12.63,0C46.88,39.61,47.44,39,48.05,38.45Zm-3.28,3.34a6.17,6.17,0,1,0,2,10.11A5.93,5.93,0,0,0,48,45c-.38.41-.73.8-1.1,1.19a3.81,3.81,0,0,0-1.33,2.06,3.11,3.11,0,0,1-3.47,2.46,3.27,3.27,0,0,1-.32-6.45,1.39,1.39,0,0,0,.62-.22C43.17,43.34,43.93,42.59,44.77,41.79Z"/><path class="cls-2" d="M12.51,22.75H34.79c.16,0,.31,0,.46,0,.66,0,1.07.38,1.06.93a.94.94,0,0,1-1.05.89H12c-1,0-1.33-.27-1.33-1.31V12.55a2.19,2.19,0,0,1,.08-.68.81.81,0,0,1,.91-.61.84.84,0,0,1,.82.79,5.43,5.43,0,0,1,0,.57V22.75Z"/><path class="cls-2" d="M33.35,14.36l-8.82,5.51-1.11.69c-.68.42-1,.38-1.57-.16L19.24,18l-.17-.08-2.7,2.72c-.24.24-.48.49-.73.72a.9.9,0,0,1-1.28,0,.86.86,0,0,1,0-1.27c.61-.65,1.25-1.27,1.88-1.9s1.34-1.35,2-2,1-.61,1.66,0l2.78,2.54.14.08,9.76-6.1c-.51-.14-.91-.24-1.29-.37a.91.91,0,0,1-.68-1.14.89.89,0,0,1,1.13-.61c1.12.28,2.23.59,3.34.92a.85.85,0,0,1,.63,1.11c-.28,1.12-.59,2.24-.91,3.35a.91.91,0,1,1-1.74-.51C33.15,15.11,33.23,14.8,33.35,14.36Z"/><path class="cls-1" d="M14,29.26c.7,0,1.4,0,2.1,0s1.13.33,1.14,1.1q0,2.19,0,4.38a1,1,0,0,1-1.09,1.09c-1.46,0-2.92,0-4.38,0-.78,0-1.1-.35-1.11-1.13,0-1.44,0-2.88,0-4.33,0-.78.34-1.1,1.12-1.11S13.28,29.26,14,29.26Z"/><path class="cls-1" d="M14,45.67H11.76c-.71,0-1.07-.34-1.07-1,0-1.5,0-3,0-4.49a.92.92,0,0,1,1-1c1.5,0,3,0,4.49,0a.94.94,0,0,1,1.05,1.07q0,2.22,0,4.44a.94.94,0,0,1-1.07,1C15.45,45.68,14.71,45.67,14,45.67Z"/><path class="cls-2" d="M30.45,31.52H21.38a2.6,2.6,0,0,1-.56,0,.87.87,0,0,1-.7-1,.85.85,0,0,1,.81-.81,3.53,3.53,0,0,1,.46,0H39.46a3.53,3.53,0,0,1,.46,0,.86.86,0,0,1,.84.84.9.9,0,0,1-.79,1,4.34,4.34,0,0,1-.51,0Z"/><path class="cls-2" d="M28.77,35.4H21.41a2.15,2.15,0,0,1-.67-.07.89.89,0,0,1,.16-1.74c.13,0,.27,0,.4,0H36.47a.88.88,0,0,1,.87.87.87.87,0,0,1-.77.92,2.6,2.6,0,0,1-.56,0Z"/><path class="cls-2" d="M25.4,41.35H21.24c-.74,0-1.13-.32-1.12-.91s.39-.91,1.12-.91h8.32c.7,0,1.14.36,1.14.92s-.43.9-1.15.9Z"/><path class="cls-2" d="M24.42,45.22H21.23c-.73,0-1.12-.32-1.11-.91s.39-.91,1.07-.91h6.5a1,1,0,0,1,1.07.93c0,.54-.42.89-1.09.89Z"/></svg>