<svg id="Layer_1" data-name="Layer 1" xmlns="http://www.w3.org/2000/svg" xmlns:xlink="http://www.w3.org/1999/xlink" viewBox="0 0 65 65"><defs><style>.cls-1{fill:#4dc0b3;}</style></defs><image width="512" height="512" transform="translate(10.57 64.74) scale(0)" xlink:href="../Proficiency%20in%20Angular%20Framework.png"/><image width="512" height="512" transform="translate(10.57 64.74) scale(0)" xlink:href="../Advanced%20Node.js%20Frameworks.png"/><image width="512" height="512" transform="translate(10.57 64.74) scale(0)" xlink:href="../Advanced%20PHP%20Frameworks.png"/><path class="cls-1" d="M38.66,48c-.67.26-1.25.5-1.85.71a1,1,0,0,0-.77,1,2.72,2.72,0,0,1-2.78,2.63H29.55a2.71,2.71,0,0,1-2.78-2.62,1.09,1.09,0,0,0-.77-1c-.9-.35-1.79-.72-2.68-1.1a1,1,0,0,0-1.18.14,2.77,2.77,0,0,1-4-.22c-.81-.81-1.62-1.61-2.42-2.43a2.69,2.69,0,0,1-.15-3.85,1.1,1.1,0,0,0,.19-1.28c-.39-.86-.76-1.73-1.09-2.62a1.11,1.11,0,0,0-1.08-.79A2.69,2.69,0,0,1,11,33.75c0-1.26,0-2.52,0-3.78a2.69,2.69,0,0,1,2.6-2.73,1.1,1.1,0,0,0,1.06-.81c.33-.87.69-1.72,1.07-2.57a1.11,1.11,0,0,0-.18-1.32,2.68,2.68,0,0,1,.13-3.82c.83-.84,1.66-1.68,2.5-2.51a2.77,2.77,0,0,1,4-.19,1.1,1.1,0,0,0,1.28.15c.85-.38,1.7-.74,2.57-1.06a1.08,1.08,0,0,0,.81-1.06,2.71,2.71,0,0,1,2.78-2.62h3.66A2.71,2.71,0,0,1,36,14.06a1.06,1.06,0,0,0,.78,1c.88.33,1.75.7,2.61,1.09A1.11,1.11,0,0,0,40.71,16a2.76,2.76,0,0,1,3.92.2q1.24,1.22,2.46,2.46a2.7,2.7,0,0,1,.17,3.9,1.11,1.11,0,0,0-.17,1.28c.38.86.75,1.73,1.09,2.62a1.06,1.06,0,0,0,1,.77,2.73,2.73,0,0,1,2.64,2.83v3.6a2.72,2.72,0,0,1-2.68,2.85,1,1,0,0,0-.95.69c-.22.62-.47,1.23-.73,1.92L46.18,38a.33.33,0,0,1-.12-.24,3.69,3.69,0,0,1,2-2.86,3.38,3.38,0,0,1,.89-.2c.73-.08,1-.35,1-1.07q0-1.74,0-3.48a.91.91,0,0,0-1-1,2.78,2.78,0,0,1-2.56-1.94c-.31-.85-.66-1.69-1-2.52a2.79,2.79,0,0,1,.38-3.19c.5-.6.49-1-.06-1.51-.8-.81-1.6-1.62-2.42-2.42a.89.89,0,0,0-1.42-.06,2.84,2.84,0,0,1-3.34.37c-.75-.35-1.52-.67-2.3-.95a2.8,2.8,0,0,1-2.06-2.65.88.88,0,0,0-1-.92h-3.6a.88.88,0,0,0-1,1,2.75,2.75,0,0,1-2,2.58c-.86.32-1.71.7-2.56,1.07A2.77,2.77,0,0,1,21,17.5c-.63-.51-1-.51-1.55.06-.8.79-1.6,1.58-2.38,2.38A.9.9,0,0,0,17,21.4a2.8,2.8,0,0,1,.39,3.24q-.55,1.21-1,2.46a2.77,2.77,0,0,1-2.58,2,.88.88,0,0,0-.95,1q0,1.77,0,3.54c0,.69.28,1,1,1a2.77,2.77,0,0,1,2.55,1.94c.32.85.66,1.69,1,2.52A2.79,2.79,0,0,1,17,42.31c-.49.6-.48,1,.06,1.51l2.38,2.38a.93.93,0,0,0,1.51.06,2.8,2.8,0,0,1,3.19-.38c.82.38,1.66.73,2.51,1a2.76,2.76,0,0,1,1.95,2.55c.06.68.35,1,1,1h3.54a.89.89,0,0,0,1-1,2.75,2.75,0,0,1,2-2.6c1.15-.4,1.15-.4,2,.52Z"/><path class="cls-1" d="M12.25,53.38c-.6.63-1.17,1.21-1.72,1.8-.31.31-.7.56-1.08.34a1.61,1.61,0,0,1-.67-.92c-.45-2-.83-4.09-1.24-6.14-.17-.87.32-1.41,1.2-1.24q3.16.6,6.31,1.26a1,1,0,0,1,.47,1.71c-.61.62-1.24,1.22-1.86,1.83,6.7,6.35,19.08,9.58,30.29,3.69A26.92,26.92,0,0,0,58.28,33.59,26.78,26.78,0,0,0,55.69,20.2l1.64-.78A28.68,28.68,0,0,1,51,53a27.88,27.88,0,0,1-19.26,7.68A28.52,28.52,0,0,1,12.25,53.38ZM9.6,49.28l.67,3.39L13,50Z"/><path class="cls-1" d="M50.57,10.35c.58-.6,1.15-1.18,1.7-1.78.3-.32.7-.57,1.07-.35a1.59,1.59,0,0,1,.68.91c.45,2.06.85,4.13,1.25,6.19.16.82-.32,1.36-1.14,1.21q-3.24-.62-6.48-1.3a.9.9,0,0,1-.45-1.57c.64-.67,1.33-1.29,2-1.94a26.76,26.76,0,0,0-31-3.34A26.16,26.16,0,0,0,5.74,23.74,26.72,26.72,0,0,0,7.08,43.53a2.63,2.63,0,0,1-.26.16l-1.3.62c-4.34-8.07-4.68-22,4.92-32.19A28.86,28.86,0,0,1,50.57,10.35Zm2.63,4.11-.67-3.39-2.68,2.71Z"/><path class="cls-1" d="M27.85,31l2.66-2.66-1.87-1.85c-.83-.84-.65-1.56.48-1.91A7.43,7.43,0,0,1,38.52,33a.86.86,0,0,0,.31.94c2.66,2.34,5.31,4.68,8,7a4.21,4.21,0,0,1,1.34,4.47,4.16,4.16,0,0,1-3.3,3.16,4.27,4.27,0,0,1-4.33-1.45c-2.06-2.31-4.15-4.59-6.15-7a2.81,2.81,0,0,0-2.73-1.18,7.33,7.33,0,0,1-7.51-9.42c.34-1.18,1.07-1.37,1.93-.51Zm-2.12.41A5.5,5.5,0,0,0,32.78,37a1.33,1.33,0,0,1,1.58.44c2.46,2.81,5,5.6,7.42,8.39a2.58,2.58,0,1,0,3.63-3.6Q41.22,38.54,37,34.83a1.31,1.31,0,0,1-.47-1.57,5.44,5.44,0,0,0-1.82-5.89,5.36,5.36,0,0,0-3.8-1.21c.56.55,1,1,1.46,1.44a1,1,0,0,1,0,1.6Q30.59,31,28.75,32.85a1,1,0,0,1-1.6,0C26.7,32.42,26.27,32,25.73,31.4Z"/><path class="cls-1" d="M44.48,36.47a14,14,0,0,1-1.25-1.13.94.94,0,0,1-.08-.71,11.69,11.69,0,0,0-3.33-11.44,11.46,11.46,0,0,0-12.71-2.67,11.46,11.46,0,0,0-7.79,10.21A12.05,12.05,0,0,0,32.1,43.92c.75,0,1.49-.24,2.24-.33a.88.88,0,0,1,.62.2c.36.34.67.74,1,1.12C32.4,46.56,25.6,46.26,21,41.28a14,14,0,1,1,23.44-4.81Z"/><path class="cls-1" d="M43.73,43.26a.92.92,0,1,1-.95.88A.92.92,0,0,1,43.73,43.26Z"/></svg>