<svg id="Layer_1" data-name="Layer 1" xmlns="http://www.w3.org/2000/svg" viewBox="0 0 65 65"><defs><style>.cls-1{fill:#4dc0b3;}</style></defs><path class="cls-1" d="M2.07,51.24V14.68c.09-.46.17-.93.28-1.38a11.9,11.9,0,0,1,11.8-9.4q17,0,34,0a13.09,13.09,0,0,1,2.65.27,11.86,11.86,0,0,1,9.41,11.67q0,17.11,0,34.23a11.82,11.82,0,0,1-8,11.29,27.87,27.87,0,0,1-2.73.67H12.86a3,3,0,0,0-.43-.11,11.73,11.73,0,0,1-9.62-7.78A23.24,23.24,0,0,1,2.07,51.24ZM5.48,32.93q0,8.43,0,16.86a9.83,9.83,0,0,0,.18,2,8.47,8.47,0,0,0,8.54,6.8q16.92,0,33.85,0a8.51,8.51,0,0,0,8.76-8.74V16.05A8.52,8.52,0,0,0,48.06,7.3H14.22a8.8,8.8,0,0,0-1.92.18A8.48,8.48,0,0,0,5.48,16C5.47,21.62,5.48,27.28,5.48,32.93Z"/><path class="cls-1" d="M31.15,17.94c.21-.32.36-.58.53-.82A2.82,2.82,0,0,1,36.55,20c-.17.36-.38.7-.58,1L27.12,36.32l-.33.62H30c.86,0,1.71,0,2.56,0a.76.76,0,0,1,.54.27c1,1.75,2,3.52,3.1,5.35a4.3,4.3,0,0,1-.46,0H14.81a2.84,2.84,0,1,1,0-5.67c1.65,0,3.3,0,4.94,0a.72.72,0,0,0,.72-.4Q24,30.3,27.64,24.07a.67.67,0,0,0,0-.81c-.65-1.09-1.31-2.17-1.88-3.3a2.8,2.8,0,0,1,2.53-4.13A2.69,2.69,0,0,1,30.52,17C30.73,17.26,30.91,17.57,31.15,17.94Z"/><path class="cls-1" d="M35.74,25.94c.51.89,1,1.69,1.44,2.49q2.32,4,4.64,8.06a.78.78,0,0,0,.79.46c1.7,0,3.41,0,5.11,0a2.83,2.83,0,0,1,2.73,2.23,2.8,2.8,0,0,1-1.58,3.14,4,4,0,0,1-1.37.28c-.68,0-1.35,0-2.13,0,.62,1.08,1.19,2.07,1.77,3.06a2.91,2.91,0,0,1,.34,2.45,2.73,2.73,0,0,1-2.3,1.94,2.6,2.6,0,0,1-2.67-1.13c-.52-.76-1-1.58-1.43-2.38q-4.17-7.23-8.34-14.44a.83.83,0,0,1,0-1C33.73,29.45,34.7,27.75,35.74,25.94Z"/><path class="cls-1" d="M22.23,44.89c-.93,1.51-1.72,3-2.69,4.32a2.7,2.7,0,0,1-3.51.46,2.82,2.82,0,0,1-1.15-3.41c.54-1.35.57-1.37,2-1.37h5.36Z"/></svg>