<svg id="Layer_1" data-name="Layer 1" xmlns="http://www.w3.org/2000/svg" viewBox="0 0 64 64"><defs><style>.cls-1{fill:#1a0f2e;}</style></defs><path class="cls-1" d="M63,62.84H2c-1.13,0-1.41-.27-1.41-1.4V.49h2V60.82H63Z"/><path class="cls-1" d="M25.08,27.58,19.85,17.13c-.12.27-.21.44-.28.61L11.75,38.59c-.08.21-.12.5-.28.61s-.71.51-1,.44a1.34,1.34,0,0,1-.83-.78c-.58-1.75-1.07-3.52-1.59-5.28L4.75,22.39c0-.15-.07-.32-.12-.52l1.92-.57,4.17,14.12c.15-.34.23-.51.3-.7l7.55-20.07a4,4,0,0,1,.26-.63,1,1,0,0,1,1.66-.1,2.89,2.89,0,0,1,.33.6c1.92,3.81,3.84,7.63,5.73,11.46a1,1,0,0,0,1.07.66,4,4,0,0,1,4.15,3.42,4,4,0,1,1-7.33-1.69C24.62,28.11,24.83,27.88,25.08,27.58Zm4.69,3a2,2,0,1,0-2,2A2.07,2.07,0,0,0,29.77,30.62Z"/><path class="cls-1" d="M49.91,21.58a10.06,10.06,0,1,1,10.1-10A10,10,0,0,1,49.91,21.58Zm0-2a8.05,8.05,0,1,0,0-16.1,8.12,8.12,0,0,0-8.07,8A8.11,8.11,0,0,0,49.9,19.57Z"/><path class="cls-1" d="M60,48.75a10.08,10.08,0,1,1-10.15-10A10,10,0,0,1,60,48.75Zm-10-8a8.05,8.05,0,1,0,8,8.15A8.12,8.12,0,0,0,50,40.71Z"/><path class="cls-1" d="M41.44,21.42,40.06,22.8l-1.41-1.41L40.05,20Z"/><path class="cls-1" d="M39.09,39.65l1.44-1.23,1.19,1.47-1.29,1.35Z"/><path class="cls-1" d="M38.57,24.25l-1.35,1.38L36,24.24,37.22,23Z"/><path class="cls-1" d="M37.5,35.53l1.34,1.54-1.3,1.36L36.07,37Z"/><path class="cls-1" d="M36,34.18l-1.4,1.48-1.48-1.39,1.4-1.48Z"/><path class="cls-1" d="M33,27.06l1.35-1.36,1.34,1.43-1.37,1.24Z"/><path class="cls-1" d="M53,11.52v4.71c0,1-.31,1.33-1.3,1.33H48.07c-.8,0-1.15-.36-1.16-1.16V11.52a3.07,3.07,0,0,1-.92,0c-.35-.11-.82-.27-.94-.54a1.29,1.29,0,0,1,.14-1.13C46.28,8.37,47.44,7,48.58,5.54s1.55-1.44,2.72,0,2.17,2.72,3.26,4.07a1.18,1.18,0,0,1,.32,1.32,1.09,1.09,0,0,1-1.21.58Zm-2,4c0-1.58,0-3.08,0-4.59a1.28,1.28,0,0,1,.89-1.47L49.93,7.12,48.05,9.47a1.2,1.2,0,0,1,.88,1.38c0,1,0,1.92,0,2.88v1.79Z"/><path class="cls-1" d="M46.91,48.76v-4.7c0-1,.3-1.34,1.34-1.34h3.53c.82,0,1.17.36,1.18,1.19v4.85a3.23,3.23,0,0,1,.94,0,1.69,1.69,0,0,1,.94.57,1.18,1.18,0,0,1-.09,1c-1.31,1.71-2.67,3.39-4,5a1,1,0,0,1-1.58,0c-1.35-1.66-2.69-3.32-4-5a1.26,1.26,0,0,1-.09-1.09c.12-.26.56-.43.89-.53A3.37,3.37,0,0,1,46.91,48.76Zm3,4.4,1.88-2.34a1.22,1.22,0,0,1-.88-1.38c0-1,0-2,0-3V44.76h-2c0,1.52,0,3,0,4.48,0,.72-.1,1.31-.88,1.59Z"/></svg>