<svg id="Layer_1" data-name="Layer 1" xmlns="http://www.w3.org/2000/svg" viewBox="0 0 64 64"><defs><style>.cls-1{fill:#190f2d;}.cls-2{fill:#0e0e0e;}.cls-3{fill:#fff;}</style></defs><path class="cls-1" d="M15.61,40.32l-3.63-4c-1.34-1.47-2.69-2.94-4-4.42-.5-.54-.54-1-.11-1.42s.91-.32,1.41.22q4.08,4.47,8.14,8.93a1,1,0,0,0,1,.39,130.41,130.41,0,0,1,19.36-.57c2.58.12,5.14.36,7.71.56a1.11,1.11,0,0,0,1-.4c2.6-2.87,5.22-5.72,7.83-8.57l.12-.13a.89.89,0,0,1,1.33-.14.87.87,0,0,1,0,1.33c-1.67,1.84-3.35,3.66-5,5.49l-2,2.23c-.13.14-.24.29-.37.45,1.55.33,3.07.6,4.56,1a17.93,17.93,0,0,1,2.54.92,2.93,2.93,0,0,1,1.77,2.12c.91,3.52,1.92,7,2.88,10.52a1.77,1.77,0,0,1-.76,2.25,10.1,10.1,0,0,1-3.63,1.56,53.82,53.82,0,0,1-9.09,1.47,152.8,152.8,0,0,1-16.29.69,142.5,142.5,0,0,1-15.72-1A32.55,32.55,0,0,1,6.36,58a9.28,9.28,0,0,1-2-1.16A1.61,1.61,0,0,1,3.76,55c1-3.74,2-7.48,3.07-11.21a2.16,2.16,0,0,1,1.38-1.44c1.42-.53,2.87-1,4.33-1.44C13.5,40.63,14.51,40.53,15.61,40.32ZM8.16,45.88A2.15,2.15,0,0,0,8,46.2c-.82,3-1.63,6-2.47,8.95-.14.46,0,.71.38.85a25.3,25.3,0,0,0,2.78,1,83.56,83.56,0,0,0,16.15,1.94A160.52,160.52,0,0,0,41,58.78,83.7,83.7,0,0,0,53.62,57.3a41.09,41.09,0,0,0,4.15-1.24A.73.73,0,0,0,58.3,55c-.84-2.85-1.61-5.72-2.4-8.59,0-.17-.12-.35-.16-.5-.7.27-1.33.55-2,.76a43.52,43.52,0,0,1-9.88,1.65c-3.32.27-6.66.44-10,.5A118.08,118.08,0,0,1,15,47.75,21.3,21.3,0,0,1,8.16,45.88ZM55.36,44a10.14,10.14,0,0,0-1.6-.69c-2.18-.49-4.36-.93-6.54-1.35a1.09,1.09,0,0,0-.77.31c-.48.45-.9,1-1.36,1.45a.88.88,0,0,1-1.29.08.89.89,0,0,1,0-1.25c.22-.28.47-.53.72-.81-2.07-.83-23-.83-25.15,0,.24.26.47.51.68.77a.87.87,0,0,1,0,1.29.89.89,0,0,1-1.34-.12c-.43-.45-.86-.91-1.25-1.39a.85.85,0,0,0-.89-.35c-1.74.33-3.48.6-5.21,1a25.56,25.56,0,0,0-2.75,1v.29c.65.26,1.3.58,2,.78a42,42,0,0,0,8.69,1.46c3.27.24,6.54.5,9.81.58a106.42,106.42,0,0,0,14.17-.47c2.88-.31,5.76-.76,8.62-1.22A8.21,8.21,0,0,0,55.36,44Z"/><path class="cls-1" d="M45,29.51c.16,2.88-1.47,4.67-3.5,6.18a7.08,7.08,0,0,1-4.06,1.83,5.81,5.81,0,0,1-2.27-.4,1.24,1.24,0,0,1-.08-2.32,2.9,2.9,0,0,0,.53-.26c.27-.27.68-.57.7-.88a1.29,1.29,0,0,0-.6-.93,5,5,0,0,1-1.94-2,7.48,7.48,0,0,1-6.87-1.26,22.07,22.07,0,0,1-2.33,2.63,7.6,7.6,0,0,1-12.24-4,1.48,1.48,0,0,0-.54-.8,6,6,0,0,1-.69-9.2,1.19,1.19,0,0,0,.29-.83A9.85,9.85,0,0,1,18.71,6.79a6.19,6.19,0,0,0,3-1.62,8,8,0,0,1,9.82-.8.78.78,0,0,0,.82.13,7.58,7.58,0,0,1,8.72,2.06,1.15,1.15,0,0,0,.69.35A9,9,0,0,1,50.66,15a1.28,1.28,0,0,0,.34.71,8,8,0,0,1-5.54,13.83Zm-32.8-4.39a7.65,7.65,0,0,1,1.41-3.29.77.77,0,0,1,1-.34,1.38,1.38,0,0,1,.6.8c.05.23-.17.56-.33.8A5.51,5.51,0,0,0,14,27.16a5.88,5.88,0,0,0,11.24,1.31,1,1,0,0,0-.07-1,8.71,8.71,0,0,1-.75-1.57A.88.88,0,0,1,26,25.26c.06.12.1.26.15.39a5.71,5.71,0,0,0,8.53,2.65,5.38,5.38,0,0,0,2.61-5.71,4.86,4.86,0,0,1-.06-1.32.81.81,0,0,1,1.23-.66,1.48,1.48,0,0,1,.48.95,6.44,6.44,0,0,0,7.68,6.05,6.25,6.25,0,0,0,.18-12.23c-.49-.1-1-.1-1.49-.19a.82.82,0,0,1-.75-.93.81.81,0,0,1,.89-.8,5.55,5.55,0,0,1,1.08.07c.69.13,1.37.31,2.08.48-.71-3.27-4.18-5.46-6.53-5.22,0,.12,0,.23,0,.35a5.25,5.25,0,0,1-1.43,3.31.87.87,0,0,1-1.24.15.88.88,0,0,1-.14-1.24c.09-.14.21-.25.29-.39a8.21,8.21,0,0,0,.56-1,2,2,0,0,0-.42-2.28C38.06,5.9,35.32,5.14,33.49,6c.37.64.77,1.27,1.11,1.93s.16,1.12-.32,1.35-1,0-1.28-.62a6.38,6.38,0,0,0-6.39-3.78,6,6,0,0,0-3.79,1.64,5.59,5.59,0,0,1,.71.18c1,.43,2.08.84,3.07,1.35A1,1,0,0,1,27,9c-.07.28-.48.55-.8.65s-.52-.15-.76-.29a8.11,8.11,0,0,0-11.78,4.22,7.06,7.06,0,0,0-.44,3.26l2.5-.33c.47-.66.88-1.33,1.38-1.91a.84.84,0,0,1,1.33-.09.89.89,0,0,1-.06,1.29,2.71,2.71,0,0,0-.25,3.86A.9.9,0,0,1,18,21a.81.81,0,0,1-1.25-.25,10.35,10.35,0,0,1-.94-2c-.12-.33-.24-.45-.58-.43a4.32,4.32,0,0,0-3.85,2.84A3.72,3.72,0,0,0,12.19,25.12Zm25,10.67c-.06,0,0,0,0,0a1,1,0,0,0,.3,0,8.54,8.54,0,0,0,5.42-4.45,4.79,4.79,0,0,0,.23-1.71.66.66,0,0,0-.34-.46,8.46,8.46,0,0,1-4.06-2.86,21.32,21.32,0,0,1-1.43,2.09,25.93,25.93,0,0,1-2,1.83c.45.35.87.71,1.33,1a2.63,2.63,0,0,1,1.38,2.84A7.78,7.78,0,0,1,37.22,35.79Z"/><path class="cls-1" d="M8.16,45.88A21.3,21.3,0,0,0,15,47.75a118.08,118.08,0,0,0,18.88,1.08c3.34-.06,6.68-.23,10-.5a43.52,43.52,0,0,0,9.88-1.65c.64-.21,1.27-.49,2-.76,0,.15.11.33.16.5.79,2.87,1.56,5.74,2.4,8.59a.73.73,0,0,1-.53,1.05,41.09,41.09,0,0,1-4.15,1.24A83.7,83.7,0,0,1,41,58.78a160.52,160.52,0,0,1-16.12.11A83.56,83.56,0,0,1,8.72,57a25.3,25.3,0,0,1-2.78-1c-.38-.14-.52-.39-.38-.85.84-3,1.65-6,2.47-8.95A2.15,2.15,0,0,1,8.16,45.88Zm.69,7A3.14,3.14,0,0,0,12,56.07a3.2,3.2,0,0,0,3.15-3.17A3.16,3.16,0,0,0,12,49.79,3.09,3.09,0,0,0,8.85,52.91Z"/><path class="cls-2" d="M8.85,52.91A3.09,3.09,0,0,1,12,49.79a3.16,3.16,0,0,1,3.13,3.11A3.2,3.2,0,0,1,12,56.07,3.14,3.14,0,0,1,8.85,52.91Zm4.49,0A1.38,1.38,0,0,0,12,51.55a1.36,1.36,0,0,0-1.36,1.39A1.38,1.38,0,0,0,12,54.29,1.39,1.39,0,0,0,13.34,52.89Z"/><path class="cls-1" d="M28.22,17.8H24.66v2.06a6.69,6.69,0,0,1,0,.78.81.81,0,0,1-.92.76.77.77,0,0,1-.8-.81c0-2.09-.07-4.19,0-6.28a3.52,3.52,0,0,1,7-.1c.12,1.11.08,2.25.09,3.37,0,1,0,1.89,0,2.84,0,.64-.36,1-.9,1s-.86-.35-.86-1C28.22,19.55,28.22,18.71,28.22,17.8Zm0-1.83c.07-1,.17-2-.79-2.62a1.7,1.7,0,0,0-2,0c-.93.66-.77,1.62-.73,2.59Z"/><path class="cls-1" d="M35.15,13.66V19.2a5.86,5.86,0,0,1,.61,0,.87.87,0,0,1,.82.93.82.82,0,0,1-.86.84c-1,0-1.93,0-2.9,0a.89.89,0,0,1-.92-.85.93.93,0,0,1,.92-.93l.5,0V13.67c-.23,0-.44-.05-.65-.09a.87.87,0,0,1,.13-1.74h2.9a.79.79,0,0,1,.88.8.82.82,0,0,1-.75.93C35.62,13.62,35.4,13.63,35.15,13.66Z"/><path class="cls-3" d="M13.34,52.89A1.39,1.39,0,0,1,12,54.29a1.38,1.38,0,0,1-1.35-1.35A1.36,1.36,0,0,1,12,51.55,1.38,1.38,0,0,1,13.34,52.89Z"/></svg>