<svg id="Layer_1" data-name="Layer 1" xmlns="http://www.w3.org/2000/svg" viewBox="0 0 64 64"><defs><style>.cls-1{fill:#190f2d;}</style></defs><path class="cls-1" d="M10.62,45.49H6.16A5.46,5.46,0,0,1,.5,39.82V28.13A5.46,5.46,0,0,1,6.14,22.5c1.43,0,2.86,0,4.36,0V20.08A17.49,17.49,0,0,1,22.65,3.32a16.34,16.34,0,0,1,5.09-.83c2.92,0,5.84,0,8.75,0A17.52,17.52,0,0,1,53.25,17c.16,1.07.2,2.15.26,3.23,0,.73,0,1.45,0,2.26H58a5.5,5.5,0,0,1,5.48,5.42q0,6.09,0,12.19a5.45,5.45,0,0,1-5.37,5.39c-2,0-4,0-5.94,0a1.5,1.5,0,0,1-1.68-1.69c0-7.88,0-15.75,0-23.63A14.42,14.42,0,0,0,40,6.09a17.88,17.88,0,0,0-4.12-.58c-2.56-.09-5.13,0-7.69,0A14.48,14.48,0,0,0,13.81,17.12a16.12,16.12,0,0,0-.3,3.1q0,11.79,0,23.57a10.5,10.5,0,0,0,8.62,10.52,9.14,9.14,0,0,0,1.05.14,2.93,2.93,0,0,0,1.35,0c.31-.14.44-.67.64-1A5.38,5.38,0,0,1,30,50.5c1.37,0,2.75,0,4.13,0a5.5,5.5,0,0,1,0,11c-1.29,0-2.58,0-3.88,0a5.44,5.44,0,0,1-5.38-3.68c0-.1-.09-.19-.14-.32a13.18,13.18,0,0,1-9.38-3.21A13.57,13.57,0,0,1,10.62,45.49Zm-.14-20H6.1A2.52,2.52,0,0,0,3.5,28.1c0,3.92,0,7.83,0,11.75A2.53,2.53,0,0,0,6.19,42.5H10a4.12,4.12,0,0,0,.48,0Zm43.06,17c1.55,0,3,0,4.51,0a2.47,2.47,0,0,0,2.46-2.55q0-5.94,0-11.87a2.51,2.51,0,0,0-2.63-2.58H53.94a2.76,2.76,0,0,0-.4.06Zm-21.47,11c-.67,0-1.33,0-2,0a2.5,2.5,0,1,0,0,5q2,0,3.93,0a2.5,2.5,0,1,0,0-5C33.32,53.48,32.69,53.5,32.07,53.5Z"/><path class="cls-1" d="M29,20.49c2.08,0,2.14.05,2.78,2.07,1.51,4.86,3,9.71,4.55,14.57a2.93,2.93,0,0,1,.12,1.28,1.41,1.41,0,0,1-1.36,1.08,1.44,1.44,0,0,1-1.49-1c-.29-.84-.56-1.7-.8-2.56a.53.53,0,0,0-.61-.45c-2.13,0-4.25,0-6.38,0a.47.47,0,0,0-.56.41c-.23.8-.49,1.59-.74,2.38a1.54,1.54,0,0,1-1.91,1.17,1.52,1.52,0,0,1-1-2.05Q24,29.56,26.51,21.7a1.51,1.51,0,0,1,1.67-1.2Zm-2.67,12h5.37L29.08,24.1h-.15Z"/><path class="cls-1" d="M42.51,30v7.68c0,1.1-.56,1.76-1.48,1.77s-1.52-.65-1.52-1.74V22.2A1.5,1.5,0,0,1,41,20.5c.94,0,1.52.65,1.52,1.73Z"/></svg>