<svg id="Layer_1" data-name="Layer 1" xmlns="http://www.w3.org/2000/svg" viewBox="0 0 64 64"><defs><style>.cls-1{fill:#190f2d;}</style></defs><path class="cls-1" d="M29.69,53.42c0,2-.05,3.93,0,5.89a2.2,2.2,0,0,1-1,2,8.9,8.9,0,0,1-8.64,1.35,9.61,9.61,0,0,1-6.75-8.19,1.28,1.28,0,0,0-.94-1.22A8.65,8.65,0,0,1,6.51,47a8,8,0,0,1,.63-5.33,3.57,3.57,0,0,0,.15-.33,41.31,41.31,0,0,1-3-3.48A8.14,8.14,0,0,1,4.5,27.67a6,6,0,0,1,4.38-2.49c-4.35-7,.72-14.17,7.7-14.24.09-.63.14-1.27.27-1.9,1-4.68,6.41-7.67,10.75-5.86A11.05,11.05,0,0,1,30,4.89a.85.85,0,0,1,.26.58,9.93,9.93,0,0,1,0,1.89,1,1,0,0,1-.65.68c-.41.09-.7-.22-.7-.7a2.44,2.44,0,0,1,0-.54,1.72,1.72,0,0,0-1.12-2A6.18,6.18,0,0,0,21,5.32a6.45,6.45,0,0,0-3,5.55c0,.18,0,.36,0,.54,0,.83-.23,1-1.06,1A7.88,7.88,0,0,0,9.79,16,7.53,7.53,0,0,0,12,26.13c.17.11.33.24.49.36a.71.71,0,1,1-.82,1.15,10.19,10.19,0,0,0-1.39-.8,3.57,3.57,0,0,0-3.87.87c-2.88,2.64-3.19,6.42-.68,9.73a21.88,21.88,0,0,0,2.83,2.78c.45.41.58.77.27,1.28-2.58,4.17-.45,9.13,4.49,10.6,1.38.41,1.26.48,1.34,1.69a8.5,8.5,0,0,0,10.11,7.8,12,12,0,0,0,3.13-1.49,1.08,1.08,0,0,0,.4-.84c0-1.85,0-3.7,0-5.55A1.5,1.5,0,0,0,27.9,53c-.12-.18-.39-.29-.46-.48-.25-.66-.75-.7-1.35-.69-1.44,0-2.89,0-4.33,0a1.32,1.32,0,0,1-1.2-.58c-1.38-1.84-2.79-3.66-4.19-5.49l-.2-.27a.68.68,0,0,1,.13-1,.66.66,0,0,1,1,.18l2.23,2.9c.61.81,1.21,1.64,1.86,2.41a1.25,1.25,0,0,0,.81.43c1.47,0,2.93,0,4.4,0a.83.83,0,0,0,.61-.34,2.43,2.43,0,0,1,2.64-1.2A2.36,2.36,0,0,1,31.69,51,2.39,2.39,0,0,1,30,53.29Zm.56-2.3a.88.88,0,0,0-.88-.92.94.94,0,0,0-1,.86,1,1,0,0,0,1,.94A.93.93,0,0,0,30.25,51.12Z"/><path class="cls-1" d="M49,10.94c7.84.31,11.69,7.84,7.69,14.22a6.5,6.5,0,0,1,5.18,3.64,8,8,0,0,1,.08,8,12.88,12.88,0,0,1-3.24,4l-.38.32c.3,1,.67,2,.85,3a8.37,8.37,0,0,1-5.64,9.11,1.71,1.71,0,0,0-1.3,1.61,9.86,9.86,0,0,1-10.51,8.39,9.48,9.48,0,0,1-5.52-1.92,1.83,1.83,0,0,1-.77-1.62c0-1.8,0-3.61,0-5.41,0-.39,0-.64-.49-.8a2.25,2.25,0,0,1-1.47-2.47,2.39,2.39,0,0,1,4.56-.47,2.31,2.31,0,0,1-.82,2.71,1,1,0,0,0-.36.69c0,1.85,0,3.7,0,5.55a1.33,1.33,0,0,0,.45.88,7.71,7.71,0,0,0,4.42,1.45,8.46,8.46,0,0,0,9-6.59A10.75,10.75,0,0,0,51,53.27a1.06,1.06,0,0,1,.83-1.05,13.75,13.75,0,0,0,3.25-1.57,6.66,6.66,0,0,0,1.85-9c-.48-.84-.45-1,.3-1.56a10.84,10.84,0,0,0,4.06-5.43c.1-.32.16-.64.27-1.08-1.28,0-2.48,0-3.68,0-.15,0-.32.27-.43.44A2.13,2.13,0,0,1,55,35a2.06,2.06,0,0,1-1.45-2.18A2.09,2.09,0,0,1,55.31,31a2.19,2.19,0,0,1,2.08.87,1.15,1.15,0,0,0,.74.39c1.1.05,2.2,0,3.4,0a8.83,8.83,0,0,0-.2-1.15,6.79,6.79,0,0,0-2.6-3.76,3.48,3.48,0,0,0-4.27,0c-.21.14-.42.35-.63.37s-.74,0-.87-.22,0-.61.09-.89.34-.29.52-.41a7.63,7.63,0,0,0,3.16-8,7.64,7.64,0,0,0-6.42-5.71,12.82,12.82,0,0,0-1.75-.08c-.74,0-1-.18-1-.92a6.89,6.89,0,0,0-8.29-7.26A5.09,5.09,0,0,0,38,4.73c-.85.45-1.48,1-1.25,2.13a1,1,0,0,1,0,.67c-.16.25-.43.58-.66.58a.84.84,0,0,1-.65-.56,11,11,0,0,1,0-2.15,1.26,1.26,0,0,1,.38-.68c2.12-2.22,4.71-2.51,7.47-1.64A8.06,8.06,0,0,1,49,10.45,3.25,3.25,0,0,0,49,10.94ZM36.79,51.29a.94.94,0,0,0-1.88,0,.94.94,0,0,0,1.88,0Zm19-19h-.3c-.19.26-.56.54-.53.76a.68.68,0,0,0,1.35,0C56.33,32.79,56,32.51,55.78,32.25Z"/><path class="cls-1" d="M43.29,28.5h1.94c.48,0,.88.17.88.72s-.38.72-.87.72H43.35v2.94h1.73c.5,0,1,0,1,.7s-.47.72-1,.71-1.17,0-1.78,0V37H45c.79,0,1.17.24,1.13.74-.06.69-.58.7-1.1.69l-1.55,0s-.08,0-.17.07a4.87,4.87,0,0,1-1.53,3.32,5.11,5.11,0,0,1-3.54,1.34c0,.72,0,1.43,0,2.14,0,.52-.06,1-.68,1s-.74-.53-.73-1.06V43.22H33.74c0,.75,0,1.49,0,2.23,0,.51-.16.94-.72.94s-.73-.44-.72-1v-2.2H29.42c0,.72,0,1.46,0,2.19,0,.51-.12,1-.69,1S28,46,28,45.45V43.22A5.35,5.35,0,0,1,24.39,42a4.91,4.91,0,0,1-1.63-3.49c-.76,0-1.54,0-2.32,0a1.23,1.23,0,0,1-.75-.43.68.68,0,0,1,.08-.66,1.57,1.57,0,0,1,.84-.31c.69,0,1.39,0,2.13,0V34.27c-.72,0-1.44,0-2.15,0-.5,0-.95-.1-1-.67s.46-.75,1-.74h2.13V29.94c-.73,0-1.45,0-2.16,0-.51,0-.95-.14-.95-.71s.42-.73.93-.73h.2c1.24.13,2.11.05,2.58-1.52a4.07,4.07,0,0,1,3.84-2.74l.86-.08c0-.83-.05-1.66,0-2.47a1,1,0,0,1,.61-.72c.18-.06.52.29.72.52s0,.35,0,.53v2.14h2.89c0-.66,0-1.31,0-1.95,0-.23-.07-.51,0-.66s.52-.61.75-.58a1,1,0,0,1,.61.72c.08.8,0,1.62,0,2.47h3.07V21.9c0-.49.11-1,.69-1s.74.46.72,1c0,.72,0,1.44,0,2.23A5,5,0,0,1,43.29,28.5ZM33,41.75c1.81,0,3.61,0,5.42,0a3.35,3.35,0,0,0,3.47-3.5c0-3,0-6.05,0-9.07a3.4,3.4,0,0,0-3.58-3.56H27.75A3.38,3.38,0,0,0,24.17,29q-.06,4.66,0,9.33a3.32,3.32,0,0,0,3.47,3.37C29.43,41.76,31.21,41.75,33,41.75Z"/><path class="cls-1" d="M42.25,52H40.83c-.46,0-.81-.18-.83-.68s.37-.74.84-.75c.7,0,1.4,0,2.1,0a1.31,1.31,0,0,0,.83-.4c1.65-2.11,3.27-4.25,4.9-6.37a.68.68,0,0,0,.09-.89,2.22,2.22,0,0,1,.48-2.76,2.44,2.44,0,0,1,2.83-.25,2.27,2.27,0,0,1,1,2.56,2.23,2.23,0,0,1-2.24,1.7,1.24,1.24,0,0,0-1.2.62c-1.59,2.13-3.24,4.21-4.81,6.35A1.81,1.81,0,0,1,43,52,4.7,4.7,0,0,0,42.25,52ZM51.77,41.8a1,1,0,0,0-.94-.88,1,1,0,0,0-1,.95.94.94,0,0,0,1,.86A.9.9,0,0,0,51.77,41.8Z"/><path class="cls-1" d="M35.52,10.32A2.31,2.31,0,0,1,38,12.42a.69.69,0,0,0,.63.7c1.28.34,2.56.67,3.83,1.07a1.71,1.71,0,0,1,.87.65c1.08,1.7,2.12,3.45,3.18,5.17.27.45.45.9-.09,1.23s-.86-.07-1.12-.5c-1-1.58-1.91-3.16-2.9-4.72a1.6,1.6,0,0,0-.81-.61c-1.18-.37-2.38-.67-3.56-1a1.15,1.15,0,0,0-1.11.15,2.21,2.21,0,0,1-2.6,0,2.16,2.16,0,0,1-1-2.29A2.17,2.17,0,0,1,35,10.42,2.46,2.46,0,0,1,35.52,10.32Zm1.09,2.28a1,1,0,0,0-1.9,0,1,1,0,0,0,1,.93A.94.94,0,0,0,36.61,12.6Z"/><path class="cls-1" d="M18.85,22.2a2.34,2.34,0,1,1-3.22,3.4,2.12,2.12,0,0,1-.55-2.36,2.35,2.35,0,0,1,2-1.57,1.07,1.07,0,0,0,.7-.48c1.31-2.09,2.61-4.2,3.88-6.33a1.75,1.75,0,0,1,1.22-.94,16.53,16.53,0,0,0,2-.53.7.7,0,0,1,1,.48c.14.49-.2.75-.63.88a8.9,8.9,0,0,1-1.43.39,1.61,1.61,0,0,0-1.21.93C21.37,18.12,20.11,20.14,18.85,22.2Zm-1.55.87a.93.93,0,0,0-.92,1,.91.91,0,0,0,.95.86.93.93,0,0,0,.93-.88A1,1,0,0,0,17.3,23.07Z"/><path class="cls-1" d="M8.28,32.24c.3,0,.59,0,.88,0a2,2,0,0,0,2-.73,2,2,0,0,1,3,.15,2.09,2.09,0,0,1-.36,3.05,2.05,2.05,0,0,1-3-.55,1,1,0,0,0-1-.56c-1.13,0-2.26,0-3.38,0-.51,0-.94-.12-.93-.72s.42-.67.91-.66Zm5.05,1v-.3c-.24-.2-.46-.49-.74-.56a.56.56,0,0,0-.74.61,1.11,1.11,0,0,0,.68.72C12.75,33.74,13.06,33.39,13.33,33.22Z"/><path class="cls-1" d="M16.69,41.62a2.36,2.36,0,1,1-2.35-2.31A2.36,2.36,0,0,1,16.69,41.62Zm-2.38-.86a.88.88,0,0,0-.91.88.89.89,0,0,0,1,.9.89.89,0,1,0,0-1.78Z"/><path class="cls-1" d="M31.85,12.46a2.36,2.36,0,1,1-2.36-2.36A2.36,2.36,0,0,1,31.85,12.46Zm-1.41,0a.94.94,0,0,0-1.88,0,.88.88,0,0,0,.88.91A.9.9,0,0,0,30.44,12.45Z"/><path class="cls-1" d="M45.39,24.29A2.36,2.36,0,0,1,47.75,22a2.33,2.33,0,1,1,0,4.66A2.36,2.36,0,0,1,45.39,24.29Zm2.35.93a.89.89,0,1,0,0-1.78,1,1,0,0,0-1,.86A.94.94,0,0,0,47.74,25.22Z"/><path class="cls-1" d="M27.46,36.52c.12-.31.19-.5.27-.69.91-2,1.83-4,2.75-6.08.2-.45.39-.89,1-.88s.74.45.93.86l2.79,6.15c.17.38.43.84-.14,1.1A.74.74,0,0,1,34,36.4a1.59,1.59,0,0,0-2.12-1.3,1.48,1.48,0,0,1-.47,0c-1.22-.17-2.21,0-2.51,1.44A.62.62,0,0,1,28,37C27.75,36.91,27.61,36.67,27.46,36.52Zm5.38-2.63-1.41-3.34L30,33.89Z"/><path class="cls-1" d="M38,33c0,1.06,0,2.12,0,3.18,0,.49-.14.86-.69.88s-.79-.34-.79-.86V29.76c0-.51.18-.9.78-.88s.7.37.7.86C38,30.82,38,31.9,38,33Z"/></svg>