<svg id="Layer_1" data-name="Layer 1" xmlns="http://www.w3.org/2000/svg" viewBox="0 0 64 64"><defs><style>.cls-1{fill:#190f2d;}.cls-2{fill:none;stroke:#231f20;stroke-miterlimit:10;stroke-width:2px;}</style></defs><path class="cls-1" d="M1,55.89A8.16,8.16,0,0,1,3.65,52c2.27-2.22,4.5-4.48,6.74-6.73.38-.39.78-.65,1.31-.33.21.13.29,0,.4-.11.72-.71,1.43-1.45,2.16-2.15.26-.24.14-.4,0-.6a25.39,25.39,0,0,1-4.19-10,26.16,26.16,0,0,1,3.82-19.48.91.91,0,0,1,1.33-.38.93.93,0,0,1,.17,1.41,24.16,24.16,0,0,0-3.68,9.62A23.89,23.89,0,0,0,14.87,39.6,23.46,23.46,0,0,0,31.38,51.14C40.59,52.77,48.43,50,54.64,43a23.14,23.14,0,0,0,5.63-12.5A24.42,24.42,0,0,0,41.19,3.07c-9-1.86-16.84.68-23.28,7.32l-.16.17c-.51.53-1,.61-1.46.21s-.4-.89.13-1.47A25.61,25.61,0,0,1,28.63,1.7,25.61,25.61,0,0,1,50.26,4.89,25.26,25.26,0,0,1,62,22.72C63.41,32,60.64,40,53.82,46.44a25,25,0,0,1-15,6.82A25.88,25.88,0,0,1,21,48.79c-.32-.21-.5-.24-.79.06-.62.68-1.28,1.32-1.94,1.95-.21.2-.32.35-.14.65a.76.76,0,0,1-.21,1c-1.07,1.08-2.14,2.16-3.22,3.22a.91.91,0,1,1-1.25-1.31c.73-.75,1.46-1.49,2.21-2.21.26-.25.32-.39,0-.69-1.4-1.36-2.78-2.75-4.15-4.15-.25-.25-.38-.27-.65,0C8.57,49.65,6.2,52,3.85,54.36A3.23,3.23,0,0,0,3,57.82a3.26,3.26,0,0,0,2.76,2.33,3.23,3.23,0,0,0,2.84-.94C9.3,58.52,10,57.8,10.7,57.1s1-.61,1.46-.19.37.93-.15,1.46-1.32,1.28-1.95,2A6.34,6.34,0,0,1,7.11,62H5.31A4.92,4.92,0,0,1,1,57.69Z"/><path class="cls-1" d="M57.27,27c-.37,8.6-4.21,15-11.89,19.11a.94.94,0,0,1-1.4-.29c-.28-.52-.07-1,.59-1.34A19.2,19.2,0,0,0,54.8,31.86a19.4,19.4,0,1,0-13.95,14,1.4,1.4,0,0,1,.88,0,.87.87,0,0,1,.59.89.94.94,0,0,1-.78.87,19.5,19.5,0,0,1-3.1.6A21,21,0,0,1,24.57,45,20.58,20.58,0,0,1,15,30.69a21.27,21.27,0,0,1,41.71-8.3A26.5,26.5,0,0,1,57.27,27Z"/><path class="cls-1" d="M26.19,33a5.74,5.74,0,0,1-3.86-1.65A1,1,0,0,1,22.18,30a.9.9,0,0,1,1.41.06,3.74,3.74,0,0,0,3.34,1.06,2,2,0,0,0,1.18-.65A1.25,1.25,0,0,0,28,28.56a4.33,4.33,0,0,0-1.31-.69c-.74-.3-1.48-.58-2.21-.89a2.83,2.83,0,0,1-1.94-2.73,3.08,3.08,0,0,1,2.08-2.86,5.1,5.1,0,0,1,5,.93.87.87,0,0,1,.19,1.23.9.9,0,0,1-1.32.18,3.87,3.87,0,0,0-2.68-.79A1.57,1.57,0,0,0,24.37,24a1,1,0,0,0,.6,1.22c1,.41,2,.79,3,1.21a3.76,3.76,0,0,1,2.25,2.26,3.18,3.18,0,0,1-1.27,3.47A4.41,4.41,0,0,1,26.19,33Z"/><path class="cls-1" d="M31.91,27V22.26c0-.81.31-1.11,1.12-1.12h3.89c.64,0,1,.36,1,.91a.92.92,0,0,1-1,.89c-.92,0-1.84,0-2.75,0-.34,0-.45.09-.44.43,0,.78,0,1.55,0,2.33,0,.36.13.44.45.43.8,0,1.6,0,2.39,0s1.1.39,1.09.93-.43.9-1.12.91S35,28,34.2,28c-.34,0-.5.05-.48.45,0,.76,0,1.52,0,2.27,0,.34.08.45.43.45.88,0,1.76,0,2.64,0s1.15.34,1.16.91-.41.94-1.14.94H33c-.79,0-1.12-.36-1.13-1.14Z"/><path class="cls-2" d="M39.93,26.89a5.95,5.95,0,1,1,5.89,6A6,6,0,0,1,39.93,26.89Z"/></svg>