<svg id="Layer_1" data-name="Layer 1" xmlns="http://www.w3.org/2000/svg" viewBox="0 0 64 64"><defs><style>.cls-1{fill:#1a0f2e;}</style></defs><path class="cls-1" d="M1,49.78V4.29c0-.09.1-.18.13-.27a4,4,0,0,1,4.1-3H58.91a5,5,0,0,1,1,.08,4,4,0,0,1,3.18,4.15l0,35.05c0,2.75,0,5.5,0,8.25a4.12,4.12,0,0,1-2.82,4.27.49.49,0,0,0-.28.37c-.2,1.43-.75,1.92-2.2,1.92H41.42v1.12c.87,0,1.7,0,2.52,0a3.33,3.33,0,0,1,3.47,3.11,13.59,13.59,0,0,1,0,2.3A1.42,1.42,0,0,1,45.92,63H18.08a1.31,1.31,0,0,1-1.39-1.09,13.08,13.08,0,0,1,.07-3.13,3.24,3.24,0,0,1,3.39-2.55h2.48V53H14.46c-.26,0-.59,0-.76-.1s-.62-.55-.62-.84.35-.63.63-.83a1.56,1.56,0,0,1,.82-.09H33.41c0-.78,0-1.46,0-2.14a1.82,1.82,0,0,1,1.92-1.9l.58,0V45.59H2.82c0,1.09,0,2.13,0,3.18A2.19,2.19,0,0,0,5.2,51.15H8.29c.64.05,1.06.44,1.05,1a1,1,0,0,1-1,.9c-1.11,0-2.23,0-3.34,0a3.9,3.9,0,0,1-3.2-1.68A11.77,11.77,0,0,1,1,49.78ZM2.86,13.4V43.68H33.41V39.29a1.88,1.88,0,0,1,2-2.11l.47,0v-1.8l-.32,0c-1.55,0-2.18-.7-2.18-2.26,0-1.23,0-2.47,0-3.7a1.84,1.84,0,0,1,2.05-2.06c1.5,0,3,0,4.49,0,2.41,0,4.81,0,7.22,0,.7,0,1.13.38,1.12.92s-.45.9-1.15.92H35.3V33.4H58.1V29.17l-.33,0c-1.53,0-3.07,0-4.61,0a1,1,0,0,1-1-.94.92.92,0,0,1,1-.88c1.7,0,3.39,0,5.09,0A1.72,1.72,0,0,1,60,29.13c0,1.42,0,2.83,0,4.25a1.83,1.83,0,0,1-1.88,1.94l-.59,0v1.8l.45,0a1.86,1.86,0,0,1,2,2.11v4.39h1.2V13.4Zm.05-1.88H61.18c0-2.32,0-4.6,0-6.88a2.16,2.16,0,0,0-.59-1.15,2.37,2.37,0,0,0-1.94-.67H5.49a5.09,5.09,0,0,0-.55,0A2.15,2.15,0,0,0,2.92,5c0,.76,0,1.53,0,2.3ZM18.47,61.19H45.53a16.73,16.73,0,0,0,0-2,1.17,1.17,0,0,0-.54-.75,2.55,2.55,0,0,0-1.18-.33H20.25a3.39,3.39,0,0,0-.55,0,1.48,1.48,0,0,0-1.23,1.31C18.44,60,18.47,60.56,18.47,61.19Zm16.81-7.94H58.1V49H35.28ZM58.1,39.09H35.3v4.22H58.1ZM24.55,56.18H39.47V55.11c-1.26,0-2.47,0-3.68,0a2,2,0,0,1-2.44-2.05h-8.8Zm13.23-9.11H55.56V45.25H37.78Zm17.8-11.7H37.8v1.77H55.58Zm1.89,11.7a2,2,0,0,0,.32,0c1.59.06,2.16.65,2.16,2.23v1.58a1.74,1.74,0,0,0,1.16-1.38c.09-1.31,0-2.63,0-4H57.47Z"/><path class="cls-1" d="M38.16,20.89H29c-.25,0-.6,0-.75-.13s-.53-.63-.49-.91.44-.56.73-.75.43,0,.66,0H47.58c.72,0,1.1.34,1.1.92s-.41.91-1.13.91Z"/><path class="cls-1" d="M21.36,27.42H26.2a3.71,3.71,0,0,1,.67,0,.8.8,0,0,1,.7.79.79.79,0,0,1-.54.9,2.15,2.15,0,0,1-.71.11h-10a2.64,2.64,0,0,1-.49,0,.91.91,0,0,1-.81-.91.85.85,0,0,1,.88-.89c.81,0,1.62,0,2.43,0Z"/><path class="cls-1" d="M7.18,20.15c.76.74,1.46,1.38,2.11,2.07a1.39,1.39,0,0,1,.39.89.88.88,0,0,1-1.5.54c-1-.93-1.93-1.89-2.88-2.86a.85.85,0,0,1,0-1.26c.94-1,1.89-1.93,2.87-2.87A.91.91,0,1,1,9.4,18c-.34.37-.71.72-1.07,1.07S7.63,19.73,7.18,20.15Z"/><path class="cls-1" d="M17.19,20.14l-2.05-2c-.53-.54-.58-1.07-.15-1.48s.93-.33,1.43.17c.85.83,1.69,1.67,2.53,2.53a1,1,0,0,1,0,1.62c-.84.84-1.68,1.69-2.53,2.52-.53.52-1,.56-1.43.15s-.37-.93.12-1.44Z"/><path class="cls-1" d="M27.19,36.9H23.55c-.24,0-.55,0-.69-.12s-.57-.6-.55-.88.41-.57.68-.79.35-.06.53-.06h7.57c.64.06,1,.39,1,.93a.92.92,0,0,1-1,.91C29.77,36.92,28.48,36.9,27.19,36.9Z"/><path class="cls-1" d="M16.17,33.08H12.36c-.44,0-.84-.15-.93-.61a1.22,1.22,0,0,1,.18-.88,1.1,1.1,0,0,1,.79-.33c2.5,0,5,0,7.5,0a1,1,0,0,1,1.08.92c0,.52-.4.9-1.06.91-1.25,0-2.5,0-3.75,0Z"/><path class="cls-1" d="M41,24.89c-1.23,0-2.46,0-3.69,0-.81,0-1.32-.65-1-1.25a1.23,1.23,0,0,1,.83-.55c2.57,0,5.13,0,7.7,0a.86.86,0,0,1,.94.89.91.91,0,0,1-1,.93C43.52,24.91,42.24,24.89,41,24.89Z"/><path class="cls-1" d="M25.25,24.89c-1.05,0-2.09,0-3.14,0-.84,0-1.33-.77-.88-1.38a1.14,1.14,0,0,1,.79-.43q3.21,0,6.41,0a.87.87,0,0,1,1,.92.91.91,0,0,1-1,.9C27.35,24.91,26.3,24.89,25.25,24.89Z"/><path class="cls-1" d="M11.21,23.92a.92.92,0,0,1-.91-1.06,4.19,4.19,0,0,1,.27-.8q.93-2.41,1.89-4.83c.28-.72.73-1,1.28-.78s.71.74.44,1.43q-1,2.61-2,5.22A1.07,1.07,0,0,1,11.21,23.92Z"/><path class="cls-1" d="M52.62,32.2H49.77c-.7,0-1.1-.36-1.09-.93s.41-.89,1.08-.89h5.81c.68,0,1.11.38,1.1.94s-.42.87-1.08.88Z"/><path class="cls-1" d="M17,36.9c-.95,0-1.91.05-2.85,0a1.47,1.47,0,0,1-.95-.57c-.14-.17-.05-.64.11-.87a1.06,1.06,0,0,1,.77-.36c2,0,3.95,0,5.93,0a.94.94,0,0,1,1,.9,1,1,0,0,1-1.06.94C18.94,36.92,18,36.9,17,36.9Z"/><path class="cls-1" d="M9.51,29.26H6.78a2,2,0,0,1-.54-.06.84.84,0,0,1-.67-.94.82.82,0,0,1,.88-.82q3.06,0,6.12,0a.86.86,0,0,1,.92.91.91.91,0,0,1-1,.9c-1,0-2,0-3,0Z"/><path class="cls-1" d="M8.82,36.9H6.64c-.66,0-1.07-.38-1.08-.91s.36-.92,1-.93c1.48,0,2.95,0,4.43,0,.69,0,1,.35,1,.92s-.39.9-1.06.92S9.55,36.9,8.82,36.9Z"/><path class="cls-1" d="M39.78,32.2H37.72a.93.93,0,0,1-1-.89,1,1,0,0,1,1-.93h4.19a.93.93,0,0,1,1,.91.9.9,0,0,1-1,.91C41.2,32.22,40.49,32.2,39.78,32.2Z"/><path class="cls-1" d="M23.52,19.07c.53,0,1.05,0,1.57,0a.84.84,0,0,1,.91.85.87.87,0,0,1-.87,1c-1.06,0-2.13,0-3.2,0a.9.9,0,0,1-.87-.91.89.89,0,0,1,.89-.88c.52,0,1.05,0,1.57,0Z"/><path class="cls-1" d="M29.34,33.07c-.5,0-1,0-1.51,0a.9.9,0,0,1,0-1.8c1-.05,2-.05,3,0a.87.87,0,0,1,.88,1,.86.86,0,0,1-.9.86H29.34Z"/><path class="cls-1" d="M32.82,24.89c-.38,0-.76,0-1.15,0A1,1,0,0,1,30.62,24a.93.93,0,0,1,1-.88c.83,0,1.66,0,2.49,0a.87.87,0,0,1,1,.91.93.93,0,0,1-1,.91C33.67,24.91,33.25,24.89,32.82,24.89Z"/><path class="cls-1" d="M7.75,33.05c-.46,0-.93,0-1.39,0a.81.81,0,0,1-.79-.84.78.78,0,0,1,.7-.91,24.37,24.37,0,0,1,3,0,.79.79,0,0,1,.73,1,.82.82,0,0,1-.82.81c-.46,0-.93,0-1.39,0Z"/><path class="cls-1" d="M24.12,33.1c-.3,0-.61,0-.9-.06a.82.82,0,0,1-.75-.81.76.76,0,0,1,.62-.9,10.3,10.3,0,0,1,2.15,0,.75.75,0,0,1,.61.91.82.82,0,0,1-.77.79C24.76,33.08,24.44,33.08,24.12,33.1Z"/><path class="cls-1" d="M45.76,32.19c-.24,0-.49,0-.73,0a.9.9,0,0,1-.09-1.78,7.35,7.35,0,0,1,1.69,0,.9.9,0,0,1-.09,1.78C46.28,32.21,46,32.19,45.76,32.19Z"/><path class="cls-1" d="M21.3,4.51a2.62,2.62,0,0,1,2.64,2.65,2.67,2.67,0,0,1-2.63,2.69,2.72,2.72,0,0,1-2.7-2.71A2.67,2.67,0,0,1,21.3,4.51Zm0,3.47a.81.81,0,0,0,.85-.76.84.84,0,0,0-.79-.88.83.83,0,0,0-.85.83A.81.81,0,0,0,21.26,8Z"/><path class="cls-1" d="M14.51,4.51a2.63,2.63,0,0,1,2.64,2.66,2.68,2.68,0,0,1-2.64,2.68,2.74,2.74,0,0,1-2.7-2.71A2.69,2.69,0,0,1,14.51,4.51ZM14.5,8a.83.83,0,0,0,.82-.8.85.85,0,0,0-.83-.85A.83.83,0,0,0,14.5,8Z"/><path class="cls-1" d="M10.36,7.16A2.68,2.68,0,0,1,7.72,9.85,2.74,2.74,0,0,1,5,7.14a2.69,2.69,0,0,1,2.7-2.63A2.62,2.62,0,0,1,10.36,7.16ZM7.67,6.34a.83.83,0,1,0,.86.82A.85.85,0,0,0,7.67,6.34Z"/><path class="cls-1" d="M52.68,50.18h3c.61.06,1,.41,1,.91a.94.94,0,0,1-1,.94q-3,0-6.06,0a.88.88,0,0,1-1-.89.91.91,0,0,1,1-.94c1,0,2,0,3,0Z"/><path class="cls-1" d="M39.86,50.18c.65,0,1.3,0,1.94,0s1.07.36,1.09.9-.37,1-1.09,1c-1.33,0-2.66,0-4,0-.68,0-1.12-.42-1.1-1s.44-.88,1.1-.9S39.18,50.18,39.86,50.18Z"/><path d="M45.76,52.06c-.26,0-.52,0-.78-.06a.83.83,0,0,1-.79-.9.82.82,0,0,1,.81-.88,9.73,9.73,0,0,1,1.62,0,.81.81,0,0,1,.77.86.84.84,0,0,1-.79.91C46.32,52,46,52,45.76,52.06Z"/><path class="cls-1" d="M52.69,40.3h2.9c.66,0,1.07.36,1.08.89s-.42.93-1.11.93H49.81c-.71,0-1.12-.35-1.13-.91s.39-.91,1.1-.92Z"/><path class="cls-1" d="M39.85,40.3c.69,0,1.37,0,2.06,0a.89.89,0,0,1,1,.91.9.9,0,0,1-1,.9c-1.42,0-2.83,0-4.25,0a.91.91,0,1,1,0-1.81C38.43,40.29,39.14,40.3,39.85,40.3Z"/><path d="M45.79,40.31c.24,0,.48,0,.72,0a.87.87,0,0,1,.89.88.86.86,0,0,1-.8.91,8.88,8.88,0,0,1-1.63,0,.85.85,0,0,1-.78-1,.84.84,0,0,1,.88-.82C45.31,40.3,45.55,40.31,45.79,40.31Z"/></svg>