<svg id="Layer_1" data-name="Layer 1" xmlns="http://www.w3.org/2000/svg" viewBox="0 0 64 64"><defs><style>.cls-1{fill:#1a0f2e;}</style></defs><path class="cls-1" d="M20,44.34H9.47c-3.18,0-4.75-1.53-4.76-4.72q0-7,0-14a4.75,4.75,0,0,1,3.47-4.77,4.81,4.81,0,0,1,6.12,4.65c0,1.11,0,2.23,0,3.42h.79c2.52,0,5,0,7.55,0a2.81,2.81,0,1,1,0,5.61c-1.92,0-3.84.08-5.76,0a9.42,9.42,0,0,0-4.44,1.14c-.77.34-1.49.8-2.24,1.18a1.08,1.08,0,0,1-1.71-1c0-3.08,0-6.16.06-9.24a1,1,0,0,1,1.1-1.11c.62,0,1,.44,1,1.15,0,2.23,0,4.47,0,6.71V34c1.22-.49,2.4-1,3.59-1.42a3.6,3.6,0,0,1,1.26-.23c2.26,0,4.53,0,6.79,0,.21,0,.47.06.61,0s.49-.43.51-.67-.28-.47-.5-.6a1.47,1.47,0,0,0-.67,0H13.75c-1.32,0-1.62-.31-1.62-1.61s0-2.6,0-3.9a2.66,2.66,0,0,0-2.56-2.76,2.7,2.7,0,0,0-2.75,2.43,6.26,6.26,0,0,0,0,.75q0,6.33,0,12.66c0,.57,0,1.14,0,1.71a2,2,0,0,0,2.11,1.88H20.58c1.27,0,1.56.3,1.56,1.58V56.15c0,.18,0,.37,0,.55a1.15,1.15,0,0,0,1.08,1.19,1.13,1.13,0,0,0,1.1-1.23q0-4,0-8V39.89c0-1.31-.36-1.68-1.73-1.69-1.92,0-3.84,0-5.76,0h-3.5a1.05,1.05,0,1,1,0-2.09c3.39,0,6.77,0,10.15.06a3.07,3.07,0,0,1,3,2.81,7.38,7.38,0,0,1,0,.82c0,5.52,0,11,0,16.56a4.69,4.69,0,0,1-.51,2.15,3.09,3.09,0,0,1-3.49,1.42A3.17,3.17,0,0,1,20,56.79c0-3.38,0-6.76,0-10.13Z"/><path class="cls-1" d="M50,36v-.81c0-3.24,0-6.48,0-9.72a4.84,4.84,0,0,1,3.91-4.8,4.73,4.73,0,0,1,5.29,2.85,5.75,5.75,0,0,1,.38,2.06c0,4.88,0,9.76,0,14.64a4.11,4.11,0,0,1-4.27,4.08c-3.41,0-6.81,0-10.22,0h-.85v.84c0,3.77,0,7.53,0,11.3A3.38,3.38,0,0,1,43.4,59a3.05,3.05,0,0,1-3.33.84,3,3,0,0,1-2.18-2.63,6.3,6.3,0,0,1,0-.75V39.68a3.24,3.24,0,0,1,2.5-3.46,7.46,7.46,0,0,1,1.57-.14h7.61C49.65,36.08,49.79,36.06,50,36Zm3.69-.88v-.79c0-2.6,0-5.2,0-7.8a1,1,0,0,1,1-1.14,1,1,0,0,1,1.08,1.07c0,3.1.06,6.21.07,9.31A1.12,1.12,0,0,1,55,37c-.82.26-1.63.59-2.47.8a11.47,11.47,0,0,1-2.47.4c-2.79,0-5.58,0-8.37,0-1.36,0-1.7.37-1.7,1.71V56.27a4.26,4.26,0,0,0,0,.62,1,1,0,0,0,1.05,1,1,1,0,0,0,1.1-.93,3.83,3.83,0,0,0,0-.68V43.87c0-1.45.24-1.69,1.72-1.69H55.41a2,2,0,0,0,2.09-1.91c0-.45,0-.91,0-1.36,0-4.45,0-8.9,0-13.35a2.67,2.67,0,1,0-5.33.05V35c0,.19,0,.39,0,.66Z"/><path class="cls-1" d="M25.83,17.94V7.27A3.84,3.84,0,0,1,29.9,3.19c3.75,0,7.5,0,11.25,0a2.08,2.08,0,0,1,1.26.52q2.12,2,4.12,4.11a2.06,2.06,0,0,1,.52,1.26c0,6.64,0,13.27,0,19.91a3.77,3.77,0,0,1-3.87,3.79q-6.72.06-13.44,0a3.8,3.8,0,0,1-3.89-4Zm19.09-7.83H40.5C39.36,10.1,39,9.76,39,8.65V5.33H30.24c-1.73,0-2.29.55-2.29,2.29,0,4.31,0,8.62,0,12.93,0,2.7,0,5.39,0,8.08,0,1.42.65,2,2.06,2H43a1.73,1.73,0,0,0,1.93-2q0-8.92,0-17.86ZM43.46,7.93,41.2,5.64V8h2Z"/><path class="cls-1" d="M60.84,45.24V24.51a3.1,3.1,0,0,1,.07-.81,1,1,0,0,1,1-.74,1,1,0,0,1,1,.78,3.13,3.13,0,0,1,.07.81V45.71c0,1.4-.26,1.65-1.68,1.66h-.71v.84c0,3.47,0,6.93,0,10.4,0,.88-.29,1.3-.92,1.37a1,1,0,0,1-1.18-1.15c0-1.64,0-3.28,0-4.93V47.42h-7.7V58.61c0,.81-.29,1.26-.86,1.36-.77.14-1.3-.36-1.3-1.26V47.37c-.64,0-1.2,0-1.77,0a1.06,1.06,0,1,1-.06-2.11c.31,0,.64,0,1,0H60.84Z"/><path class="cls-1" d="M3.69,47.37c-.46,0-.84,0-1.23,0A1.08,1.08,0,0,1,1.3,46.29c0-.19,0-.37,0-.55V24.59c0-1.13.34-1.64,1.09-1.63s1.06.51,1.06,1.65V45.24H16.92a4.53,4.53,0,0,1,.82.06,1,1,0,0,1-.14,2.06c-.61,0-1.22,0-1.93,0v.77c0,3.44,0,6.89,0,10.33a2.68,2.68,0,0,1-.05.75,1,1,0,0,1-1,.77,1,1,0,0,1-1-.75,2.59,2.59,0,0,1-.08-.74V47.4H5.8v11c0,.2,0,.41,0,.61a1,1,0,0,1-1,1,1,1,0,0,1-1.06-.94,6.27,6.27,0,0,1,0-.75V47.37Z"/><path class="cls-1" d="M54.75,8.88A5.15,5.15,0,1,1,49.58,14,5.13,5.13,0,0,1,54.75,8.88Zm-3,5a3,3,0,0,0,2.94,3.13A3,3,0,1,0,54.78,11,3,3,0,0,0,51.71,13.92Z"/><path class="cls-1" d="M20.09,15.56A5.16,5.16,0,1,1,15,10.4,5.1,5.1,0,0,1,20.09,15.56Zm-8.18-.06a3,3,0,0,0,3,3.07A3,3,0,0,0,15,12.5,3,3,0,0,0,11.91,15.5Z"/><path class="cls-1" d="M39.34,15.6c-.75,0-1.5,0-2.26,0a1.05,1.05,0,0,1-1.14-1A1,1,0,0,1,37,13.48c1.58,0,3.15,0,4.72,0a1,1,0,0,1,1,1.12,1.06,1.06,0,0,1-1.16,1C40.85,15.61,40.1,15.6,39.34,15.6Z"/><path class="cls-1" d="M39.37,19c.75,0,1.5,0,2.25,0a1.06,1.06,0,0,1,1.15,1,1,1,0,0,1-1.07,1.1c-1.57,0-3.15,0-4.72,0A1,1,0,0,1,36,20a1,1,0,0,1,1.16-1C37.86,19,38.61,19,39.37,19Z"/><path class="cls-1" d="M39.18,26.36c-.69,0-1.37,0-2.06,0s-1.21-.47-1.17-1.13.48-1,1.23-1h4c.74,0,1.19.39,1.21,1a1.05,1.05,0,0,1-1.13,1.11c-.7,0-1.41,0-2.12,0Z"/><path class="cls-1" d="M31.93,19.56c.26-.41.49-.82.76-1.22a1.06,1.06,0,1,1,1.82,1.08c-.47.83-1,1.65-1.49,2.44a1,1,0,0,1-1.61.2c-.33-.27-.64-.57-1-.87a1.12,1.12,0,0,1-.3-1.56c.37-.5.9-.55,1.57-.16Z"/><path class="cls-1" d="M31.94,24.76c.27-.45.5-.84.75-1.22a1.06,1.06,0,1,1,1.82,1.08c-.47.83-1,1.65-1.5,2.45a1,1,0,0,1-1.6.19c-.33-.27-.65-.57-1-.87a1.12,1.12,0,0,1-.29-1.57c.36-.49.89-.54,1.57-.14C31.78,24.71,31.85,24.72,31.94,24.76Z"/><path class="cls-1" d="M31.93,14c.28-.45.51-.85.76-1.22a1.07,1.07,0,0,1,1.49-.36,1,1,0,0,1,.32,1.44c-.46.82-.94,1.62-1.46,2.4a1,1,0,0,1-1.64.23c-.36-.29-.67-.62-1-.93a1,1,0,0,1-.25-1.46,1.06,1.06,0,0,1,1.51-.25Z"/></svg>