<svg id="Layer_1" data-name="Layer 1" xmlns="http://www.w3.org/2000/svg" viewBox="0 0 64 64"><defs><style>.cls-1{fill:#190f2d;}</style></defs><path class="cls-1" d="M23.76,12.73A10.18,10.18,0,1,1,13.67,2.52,10.15,10.15,0,0,1,23.76,12.73Zm-18.17-3a8.35,8.35,0,0,0,0,5.91l3.57-1V10.77Zm16,5.91a8.35,8.35,0,0,0,0-5.91l-3.57,1v3.86ZM10.86,14.37H16.3V11H10.86Zm.22,1.68c.07.35.1.62.16.87a8.22,8.22,0,0,0,1.47,3.45c.57.68,1.12.72,1.66.09a8.87,8.87,0,0,0,1.72-4.41Zm5-6.7A9.36,9.36,0,0,0,14.46,5c-.58-.71-1.12-.73-1.69,0a9.06,9.06,0,0,0-1.7,4.36Zm.2,11.43a8.62,8.62,0,0,0,4.55-3.62l-3.07-.85c-.21.83-.36,1.58-.6,2.29S16.62,20,16.3,20.78Zm.11-16.12,1.46,4.43,3-.85A8.52,8.52,0,0,0,16.41,4.66ZM6.32,17.17a8.58,8.58,0,0,0,4.44,3.57L9.3,16.33ZM10.76,4.66A8.54,8.54,0,0,0,6.33,8.24l3,.84Z"/><path class="cls-1" d="M45,18.54H40.4a2.11,2.11,0,0,1-2.29-2.24c0-3.53,0-7,0-10.58A2.14,2.14,0,0,1,40.4,3.47q7.89,0,15.79,0a2.17,2.17,0,0,1,2.28,2.27q0,5.26,0,10.52a2.17,2.17,0,0,1-2.33,2.28H51.52c.14.6.26,1.14.42,1.66,0,.11.26.2.4.21.37,0,.74,0,1.11,0a.78.78,0,0,1,.83.85.76.76,0,0,1-.83.78H43.33c-.67,0-1.06-.3-1.07-.8s.4-.83,1.1-.84C44.78,20.41,44.91,20.26,45,18.54ZM56.77,14.2a2.3,2.3,0,0,0,0-.28c0-2.69,0-5.38,0-8.06,0-.61-.17-.74-.85-.74H40.59c-.71,0-.82.13-.83.87V14.2ZM39.83,15.9c-.13.82,0,1,.75,1H56c.71,0,.91-.3.68-1Zm6.87,2.67-.34,1.82h3.83l-.31-1.82Z"/><path class="cls-1" d="M42.7,47a6.15,6.15,0,0,1,5.15-5.15c0-1.22,0-2.43,0-3.63,0-.14-.23-.32-.39-.41a3,3,0,0,1-1.66-2.9,2.92,2.92,0,0,1,2.37-2.56,2.87,2.87,0,0,1,3.24,1.88A2.82,2.82,0,0,1,50,37.68a.84.84,0,0,0-.56.93c0,.93,0,1.87,0,2.8,0,.3.06.45.38.52a6,6,0,0,1,3.73,9.24l-.14.23c.86.85,1.7,1.72,2.58,2.54a.77.77,0,0,0,.62,0,2.9,2.9,0,0,1,3.71,1.92,2.85,2.85,0,0,1-2.08,3.61,2.86,2.86,0,0,1-3.42-3.67.75.75,0,0,0-.21-.91c-.8-.76-1.57-1.56-2.37-2.36a6.18,6.18,0,0,1-3.68,1.2,6,6,0,0,1-5.75-4.61c-.1-.48-.29-.57-.73-.56-.93,0-1.87,0-2.8,0a.59.59,0,0,0-.67.39,2.85,2.85,0,0,1-3.4,1.58,2.9,2.9,0,0,1,.5-5.68,2.86,2.86,0,0,1,2.89,1.67.6.6,0,0,0,.66.41Zm1.64.81a4.33,4.33,0,1,0,4.35-4.33A4.35,4.35,0,0,0,44.34,47.78ZM57.6,55.49a1.19,1.19,0,0,0-1.23,1.19A1.26,1.26,0,0,0,57.61,58a1.29,1.29,0,0,0,1.22-1.25A1.24,1.24,0,0,0,57.6,55.49ZM47.45,35.18a1.22,1.22,0,1,0,2.43,0,1.22,1.22,0,0,0-2.43,0ZM36,49a1.2,1.2,0,0,0,1.24-1.2,1.21,1.21,0,0,0-1.2-1.24A1.22,1.22,0,0,0,36,49Z"/><path class="cls-1" d="M13.47,58.78a15.27,15.27,0,0,1-5.42-.93l-.26-.12a3.23,3.23,0,0,1-2.13-4,8,8,0,0,1,15.83-.09c.42,2.23-.37,3.53-2.66,4.35A16,16,0,0,1,13.47,58.78Zm.38-1.66c.65,0,1.1,0,1.55-.1a9.64,9.64,0,0,0,3.68-1,1.44,1.44,0,0,0,.84-1.46,6.35,6.35,0,0,0-12.68,0A1.36,1.36,0,0,0,8,56a7,7,0,0,0,1.11.5A14.83,14.83,0,0,0,13.85,57.12Z"/><path class="cls-1" d="M9.45,42.47a4.15,4.15,0,0,1,8.29.16,4.15,4.15,0,1,1-8.29-.16Zm6.61.06a2.48,2.48,0,1,0-4.95,0,2.48,2.48,0,0,0,4.95,0Z"/><path class="cls-1" d="M30.76,55.86a22.8,22.8,0,0,1-6.65-1,1.64,1.64,0,0,1-.87-.66.83.83,0,0,1,.2-.76,1.07,1.07,0,0,1,.83-.22c1.28.22,2.54.58,3.82.76A23.43,23.43,0,0,0,41,52.09l.11-.05c.7-.32,1.18-.23,1.41.27s0,.9-.72,1.23A25.42,25.42,0,0,1,30.76,55.86Z"/><path class="cls-1" d="M31.16,23.37a11.48,11.48,0,0,1,8,3.22,1.22,1.22,0,0,1,.4.72.91.91,0,0,1-.4.74,1.18,1.18,0,0,1-.95-.12c-.5-.32-.91-.78-1.4-1.13a9.94,9.94,0,0,0-12.43.91,2.83,2.83,0,0,1-.25.24.81.81,0,0,1-1.2-.05A.75.75,0,0,1,23,26.76a21.94,21.94,0,0,1,2.45-1.86A11.1,11.1,0,0,1,31.16,23.37Z"/><path class="cls-1" d="M56.75,30.26A25,25,0,0,1,54.39,41a1.23,1.23,0,0,1-.55.63.93.93,0,0,1-.83-.14,1.25,1.25,0,0,1-.18-1c.38-1.16.93-2.27,1.28-3.44a23.42,23.42,0,0,0,.44-11.87c-.19-.88,0-1.36.57-1.47s.91.23,1,1.11c.28,1.8.5,3.61.74,5.42Z"/><path class="cls-1" d="M5.38,30.2a31.09,31.09,0,0,1,1-6.47c.19-.72.55-1,1-.93s.76.59.57,1.36c0,.05,0,.11-.05.16a24,24,0,0,0-.74,5.83,23.66,23.66,0,0,0,1.39,8.12c.06.16.12.33.17.5A.85.85,0,0,1,8.2,39.9a.81.81,0,0,1-1-.59,35.5,35.5,0,0,1-1.14-4C5.7,33.61,5.58,31.9,5.38,30.2Z"/><path class="cls-1" d="M31.13,4.52c1.48.16,3,.3,4.46.48.6.07.95.47.89,1s-.49.78-1.15.67a24.78,24.78,0,0,0-10.46.46c-.63.17-1.07-.06-1.19-.58s.2-.87.81-1A30.83,30.83,0,0,1,31.13,4.52Z"/><path class="cls-1" d="M31,28.59a6.29,6.29,0,0,1,4.47,1.74c.47.45.52.89.15,1.27s-.8.36-1.28-.06a4.7,4.7,0,0,0-6.5,0c-.49.42-.94.45-1.29.08s-.32-.84.19-1.31A6.23,6.23,0,0,1,31,28.59Z"/><path class="cls-1" d="M31.12,33.72A1.27,1.27,0,0,1,32.4,35a1.31,1.31,0,0,1-1.26,1.28A1.28,1.28,0,0,1,29.84,35,1.25,1.25,0,0,1,31.12,33.72Z"/></svg>