<svg xmlns="http://www.w3.org/2000/svg" xmlns:xlink="http://www.w3.org/1999/xlink" width="225" zoomAndPan="magnify" viewBox="0 0 168.75 168.749997" height="225" preserveAspectRatio="xMidYMid meet" version="1.0"><defs><clipPath id="95e4700d54"><path d="M 0 0 L 168.5 0 L 168.5 168.5 L 0 168.5 Z M 0 0 " clip-rule="nonzero"/></clipPath><clipPath id="3d2bca830e"><path d="M 45.496094 39.542969 L 122 39.542969 L 122 115.929688 L 45.496094 115.929688 Z M 45.496094 39.542969 " clip-rule="nonzero"/></clipPath></defs><g clip-path="url(#95e4700d54)"><path fill="#ffffff" d="M 0 0 L 168.5 0 L 168.5 168.5 L 0 168.5 Z M 0 0 " fill-opacity="1" fill-rule="nonzero"/><path fill="#ffffff" d="M 0 0 L 168.5 0 L 168.5 168.5 L 0 168.5 Z M 0 0 " fill-opacity="1" fill-rule="nonzero"/></g><g clip-path="url(#3d2bca830e)"><path fill="#f26f21" d="M 83.507812 39.542969 C 104.503906 39.542969 121.519531 56.644531 121.519531 77.734375 C 121.519531 98.828125 104.503906 115.929688 83.507812 115.929688 C 62.511719 115.929688 45.496094 98.828125 45.496094 77.734375 C 45.496094 56.644531 62.511719 39.542969 83.507812 39.542969 Z M 83.507812 39.542969 " fill-opacity="1" fill-rule="evenodd"/></g><path fill="#ffffff" d="M 83.507812 112.109375 L 90.28125 102.773438 L 76.738281 102.773438 Z M 83.507812 102.773438 L 84.460938 100.902344 L 87.210938 95.539062 L 79.816406 95.539062 Z M 83.507812 67.191406 L 87.046875 67.191406 L 84.910156 62.808594 L 83.507812 59.925781 L 79.964844 67.191406 Z M 83.507812 59.925781 L 88.183594 59.925781 L 83.507812 50.863281 L 78.832031 59.925781 Z M 83.507812 50.863281 L 89.234375 50.863281 L 83.507812 43.363281 L 77.78125 50.863281 Z M 98.597656 102.773438 L 90.28125 102.773438 L 95.523438 95.539062 Z M 116.550781 86.660156 L 101.972656 86.660156 L 109.074219 76.855469 Z M 101.972656 86.660156 L 106.546875 95.539062 L 95.53125 95.539062 Z M 101.699219 67.191406 L 116.082031 67.191406 L 109.074219 76.855469 Z M 101.699219 67.191406 L 96.152344 59.925781 L 105.417969 59.925781 Z M 88.183594 59.925781 L 96.152344 59.925781 L 91.945312 67.191406 Z M 96.152344 59.925781 L 89.234375 50.863281 L 101.375 50.863281 Z M 83.507812 95.53125 L 87.554688 86.660156 L 79.472656 86.660156 L 82.589844 93.511719 Z M 83.507812 81.875 L 84.003906 81.011719 L 87.09375 75.648438 L 79.917969 75.648438 Z M 83.507812 71.820312 L 85.472656 71.820312 L 83.507812 67.191406 L 81.542969 71.820312 Z M 87.210938 95.539062 L 91.761719 86.660156 L 95.53125 95.539062 Z M 91.746094 86.660156 L 87.554688 86.660156 L 89.730469 81.875 L 91.753906 86.660156 Z M 88.640625 79.289062 L 89.738281 81.875 L 86.839844 81.875 Z M 91.894531 77.144531 L 94.195312 81.875 L 89.738281 81.875 Z M 94.328125 71.820312 L 91.894531 77.144531 L 91.164062 75.648438 L 89.300781 71.820312 Z M 96.839844 76.707031 L 101.972656 86.660156 L 91.761719 86.660156 L 94.195312 81.875 Z M 101.699219 67.191406 L 96.839844 76.707031 L 91.945312 67.191406 Z M 89.300781 71.820312 L 87.046875 67.191406 L 91.945312 67.191406 Z M 89.300781 71.820312 L 87.09375 75.648438 L 85.472656 71.820312 Z M 88.640625 79.289062 L 87.09375 75.648438 L 91.164062 75.648438 Z M 68.425781 102.773438 L 76.738281 102.773438 L 71.492188 95.539062 Z M 50.464844 86.660156 L 65.046875 86.660156 L 57.941406 76.855469 Z M 65.046875 86.660156 L 60.46875 95.539062 L 71.484375 95.539062 Z M 65.316406 67.191406 L 50.933594 67.191406 L 57.941406 76.855469 Z M 65.316406 67.191406 L 70.863281 59.925781 L 61.605469 59.925781 Z M 78.832031 59.925781 L 70.871094 59.925781 L 75.070312 67.191406 Z M 70.871094 59.925781 L 77.789062 50.863281 L 65.648438 50.863281 Z M 83.507812 86.660156 L 82.78125 85.621094 L 80.183594 81.875 L 86.828125 81.875 Z M 79.8125 95.539062 L 75.261719 86.660156 L 71.492188 95.539062 Z M 75.269531 86.660156 L 79.460938 86.660156 L 77.285156 81.875 L 75.261719 86.660156 Z M 78.382812 79.289062 L 77.285156 81.875 L 80.183594 81.875 Z M 75.125 77.144531 L 72.820312 81.875 L 77.277344 81.875 Z M 72.695312 71.820312 L 75.128906 77.144531 L 75.855469 75.648438 L 77.722656 71.820312 Z M 70.183594 76.707031 L 65.050781 86.660156 L 75.261719 86.660156 L 72.828125 81.875 Z M 65.316406 67.191406 L 70.175781 76.707031 L 75.0625 67.191406 Z M 77.714844 71.820312 L 79.964844 67.191406 L 75.0625 67.191406 Z M 77.714844 71.820312 L 79.917969 75.648438 L 81.542969 71.820312 Z M 78.382812 79.289062 L 79.925781 75.648438 L 75.855469 75.648438 Z M 78.382812 79.289062 " fill-opacity="1" fill-rule="evenodd"/></svg>