<svg id="Layer_1" data-name="Layer 1" xmlns="http://www.w3.org/2000/svg" viewBox="0 0 838 769"><defs><style>.cls-1{fill:#9bdaef;}</style></defs><path class="cls-1" d="M92,478a19.85,19.85,0,0,1,15.75,13.55c10,27.57,27,52.05,40.12,78.28,1.27,2.54,3,6,5.13,10.17q-1.12-48.93-2.24-97.87c-7.67,0-15.07,0-22.46,0a84.47,84.47,0,0,1-32.83-6.86c-22.3-9.41-33.94-27.28-38.49-50C52.74,404,57.54,384.61,71.85,368,80.21,358.27,91,352.46,103,348.41a8.56,8.56,0,0,0,4.8-4.46c14.13-39.31,48.46-63.12,90.1-61,27.48,1.42,49.72,13.95,66.43,35.9,2.25,3,4.36,4.45,8.4,4.4,44.26-.58,77.76,26.37,84.2,70a77.17,77.17,0,0,1-4.75,40.48c-13.75,33.83-48.36,44.07-54.15,45.81A90.21,90.21,0,0,1,264,483q-.5,19.5-1,39l52,1a16.29,16.29,0,0,1,1-6,18,18,0,0,1,8-9,18.8,18.8,0,0,1,25,4,17.08,17.08,0,0,1,4,11,16.9,16.9,0,0,1-3,9c-.47.71-5.39,8-14,9-8.21.92-16.69-4.27-20.59-13H263v34a14.41,14.41,0,0,1,6,1,14.76,14.76,0,0,1,7,6c11.21-2.92,49.12-12.55,86-17,16.69-2,33-3,33-3,11.57-.7,22-1,31-1q-.5-83-1-166H359c-.3-1.34-.59-2.68-.89-4L425,379q.5-83,1-166l-66-4c-27.61-4.33-47.08-7.56-50.36-8.61a5.82,5.82,0,0,0-4.1,0,5.23,5.23,0,0,0-2.32,2.5q-9.37,17.42-29.36,15.8a6.1,6.1,0,0,0-4.78,3.07,364.11,364.11,0,0,0-18.74,69.44c-.31,1.83-.82,3.63-1.25,5.53-8.48-3.83-8.82-3.93-6.64-11.81,6.18-22.36,12.71-44.63,19-67,.36-1.3.14-3.46-.72-4.3C250,203.09,247.55,197,248.79,183.16L175,148c-5.51,6.58-12.86,15.71-21,27-8.92,12.37-21.08,29.38-33,53a333.33,333.33,0,0,0-23,59,273.09,273.09,0,0,0-14,67l-4.67-.22A401.64,401.64,0,0,1,87,305c3.22-14.59,8.91-39.73,22.45-70.09A335.35,335.35,0,0,1,147,171.1C198.59,101.94,266.45,57.73,351.05,39.66A362.49,362.49,0,0,1,458.46,33c73.26,6.29,138.93,31.88,195.25,79.45C708.94,159.1,745.41,218,764,287.86a319.19,319.19,0,0,1,10.59,65.45c.09,1.6,2,3.79,3.64,4.5,9.53,4.23,15.71,12.59,15.77,22,.07,11.29-14.16,21.58-15.69,22.63A37.68,37.68,0,0,1,774,405q-7,36-14,72a387.48,387.48,0,0,1-30,69c-12.44,22.36-37.63,66.63-88,107a337.65,337.65,0,0,1-134,65c-11.94,2.79-50.46,11.1-101,8-9.38-.57-52.2-4.85-104-22a263.26,263.26,0,0,1-91-52,223.94,223.94,0,0,1-27-1c-20.12-2-24.54-5.19-27-8-2.12-2.42-3.84-5.37-5-14a177,177,0,0,1-1-36c-.81-1.43-2.23-3.92-4-7-27.12-47.25-36.45-59.34-47-84C98.79,496.83,95.44,488.57,92,478Zm337-99H558a97.13,97.13,0,0,1-4.77-12.1c-1.44-4.55-1.65-6.37-1-8.17.73-2,2.62-3.55,6-5.57,5.24-3.1,10.71-5.87,16.23-8.47,6.87-3.25,10.72-2.17,15,4.27,2.82,4.22,5.2,8.75,7.11,12,5.71,0,10.46,0,15.21,0,3.82,0,5.81,0,7.5-1.33,3.25-2.58,2.86-8.1,2.65-10.65-3.68-44.3-9-68-9-68-.79-3.54-2.22-9.9-4-18-6.91-25.89-12.89-44.57-15-48a10.42,10.42,0,0,0-4.53-4.14,7,7,0,0,0-3-.52c-10.07,1.1-17.76-3.16-23.62-11.36a627.06,627.06,0,0,1-64.61,10.92A624.1,624.1,0,0,1,431,214Q430,296.5,429,379ZM685,154l-75,28a23.3,23.3,0,0,1-2,16,22.85,22.85,0,0,1-9.06,9.18q.43,2.61.89,5.21a573.2,573.2,0,0,1,23.72,92.84c2,12.12,3.61,23.86,4.79,35.17,4.29.87,8,1.27,11.56,2.42,4.52,1.49,8.84,3.55,13.23,5.41,9.17,3.87,9.83,5.12,7.85,14.69-3.05,14.78-3.05,14.77,11.86,14.77h73.4c1.14-6.22,3.57-11.42,7.69-15.13a26.51,26.51,0,0,1,7.47-4.35A34.27,34.27,0,0,1,769,356a390.83,390.83,0,0,0-16-80,328.81,328.81,0,0,0-24-59A313.52,313.52,0,0,0,685,154ZM430,548c10.53-.07,21.55.23,33,1a448.64,448.64,0,0,1,102,19,20.84,20.84,0,0,1,3.14-4.94,22.64,22.64,0,0,1,11.43-6.86,26.08,26.08,0,0,1,11.39-.51c1.92-7.92,3.82-15.77,5.68-23.46-7.13-3-13.82-5.74-20.45-8.62-4.72-2.05-6.51-5.6-5.09-10.68,1.23-4.36,2.33-8.75,3.5-13.17l-11.38-8.3c-1.57,1.31-2.89,2.43-4.22,3.52-1.49,1.21-3,2.44-4.49,3.58-4.74,3.51-9.49,3.1-13.09-1.57-4.42-5.76-8.44-11.83-12.75-17.67-3.34-4.53-2.48-8.57,1.11-12.36,2.77-2.92,5.79-5.61,8.41-8.66,1.08-1.26,2.11-3.28,1.92-4.79-.72-5.62-2-11.17-3.07-17.14-2-.72-4.46-1.64-7-2.53s-5.11-1.58-7.54-2.65c-5.34-2.37-7.73-6.67-6.2-11.9,1.86-6.38,3.95-12.72,6.43-18.88,2.11-5.23,6.5-7.1,12.15-6,3.68.75,7.36,1.55,11,2.31L557,382H429Q429.5,465,430,548Zm241.2-65.25c-7.31,5.06-12.25,10.88-7.54,20.36.89,1.8.75,4.11,1.17,6.16,1,4.84-.91,8.38-5.24,10.32-6.25,2.81-12.62,5.37-19,7.83-5,1.94-9,.35-11.6-4.34-2.16-3.83-4.16-7.75-6.44-11.5-1.81-3-6.84-2.84-8.17.3-3.52,8.32-7.11,16.65-10.06,25.18-1.92,5.55-2.57,11.53-4.21,17.19-.79,2.76-.2,4,1.78,6.22,3.58,4,7.2,8.7,8.57,13.71,1.07,3.91,2.17,6,5.88,6.92,2.29.58,3.27,1.37,4.78,1.87,2.49.84,18.26,8,56.9,26a335.76,335.76,0,0,0,86.92-205.51c-10.5-4.08-12.14-5.76-17.49-15.59-.72-1.34-3.21-2.39-4.9-2.41-12.66-.2-25.33-.11-38-.11H695c3.22,8.23,6.47,15.74,9.08,23.45,2.21,6.54-.3,11-6.76,13.48-3.36,1.28-6.77,2.45-9.38,3.39-3.43,12.94-.38,22.78,11.88,28.52a3.24,3.24,0,0,1,1.67,1.54c1,2.75,3.08,6,2.31,8.26a147.25,147.25,0,0,1-9.45,21.4c-2.46,4.61-6.71,6-11.75,3.18C678.91,486.56,675.13,484.76,671.2,482.75ZM572,165c-18.61-34-53.81-84.44-115-114a229.57,229.57,0,0,0-27-11q1,84,2,168a449.88,449.88,0,0,0,67-4,450.38,450.38,0,0,0,61.32-12.68,24.91,24.91,0,0,1,.76-12.92A25.46,25.46,0,0,1,572,165ZM425,39A243.31,243.31,0,0,0,292,163a31.13,31.13,0,0,1,15.28,28.26A439.8,439.8,0,0,0,355,202a439.18,439.18,0,0,0,71,6Q425.51,123.5,425,39Zm6,580q-.5,50.5-1,101a158.47,158.47,0,0,0,28.16-8.16c36.29-14.29,58.49-38.22,74-56.66a339.84,339.84,0,0,0,38.39-56.71c-7.35-9.31-9-14.86-7.6-25.38A426.18,426.18,0,0,0,430,553q.5,30.5,1,61l47.55-2.61a18.15,18.15,0,0,1,2.18-6.7A20.11,20.11,0,0,1,501,595c7.15,1.16,14.53,6.53,16,15,1.52,8.71-3.88,16.81-11,20-9.82,4.41-19.13-2.22-20.44-3.18A23.14,23.14,0,0,1,478,617h-4C459.25,617.06,444.91,617.76,431,619Zm-245.93-3.6L200,631l19,16c48.88.53,83.51.92,88,1,.41,0,1.67,0,3.34,0a59,59,0,0,0,8.66-1,54.51,54.51,0,0,0,17-6c8.22-4.68,14.13-11.44,19-17,1.47-1.68,7-8.07,13.62-9.71a24.34,24.34,0,0,1,2.7-.49c3.47-.43,4.15.43,10.68,1.2,7.28.85,10.85.31,21,0,5.23-.16,12.74-.27,22,0q.5-30.5,1-61a654.75,654.75,0,0,0-149,19c.21.61,4.22,12.56-2.66,20.51a19.65,19.65,0,0,1-7.7,5.22,18.94,18.94,0,0,1-10.29.86C250,598.12,245,592.37,243,585ZM423.42,719.54Q424.2,669.28,425,619H377a23.41,23.41,0,0,0-9,2c-3.63,1.63-5.73,3.77-8,6-8.45,8.3-12.67,12.45-18,16a85.27,85.27,0,0,1-11,6c-4.36,2.09-6.08,2.6-7.46,2.89A24.25,24.25,0,0,1,314,652l-92-1a355,355,0,0,0,201.42,68.54ZM286.67,160.71A255.76,255.76,0,0,1,411,38,328.59,328.59,0,0,0,179,142l72.32,32.92C260.39,161.38,271.93,157.27,286.67,160.71ZM437,36A233.65,233.65,0,0,1,576,162.66a28.2,28.2,0,0,1,18,1.18A28.63,28.63,0,0,1,609,179l74-30A349.52,349.52,0,0,0,437,36ZM576,603a390.36,390.36,0,0,1-30,45c-11.09,14.38-20.71,26.85-35,39-11.77,10-32.41,24.65-64,34A326,326,0,0,0,674,615l-63.2-27.33A25.81,25.81,0,0,1,576,603Zm-394,8,60-31a18.37,18.37,0,0,1,2-6c2.27-4.18,5.65-6.38,8.08-8a31.12,31.12,0,0,1,5.92-3q-.5-17.5-1-35c-8.33-.42-15.12-.28-19.79-.07a167,167,0,0,1-27-.79c-9-1-12.9-6.25-12.94-15.21-.05-9.73,0-19.46,0-29.37H158.23Q157.1,533.79,156,585l5,5ZM611.34,399.9c-18.84,0-31.58,13.71-31.58,33.88,0,18.11,16.14,33.44,34.84,33.1,17.45-.32,30.81-15.39,30.75-34.71C645.3,413.06,631.39,399.86,611.34,399.9ZM258,483H203v30a15.35,15.35,0,0,0,4,6c3.21,2.9,7,3.63,10,4,7.45.93,21.72,1.13,40,0Q257.5,503,258,483ZM208,648l-51-51a65,65,0,0,0,1.32,27.54c1.74,6.41,4,14.23,10.75,17.82a17,17,0,0,0,7.07,1.83C183.53,644.8,193.5,645.91,208,648ZM334.94,535c6.08,0,11.83-5.52,12-11.55.17-6.25-6.19-12.69-12.42-12.54-6,.14-11.54,5.91-11.6,12C322.87,529.24,328.63,535,334.94,535ZM499.1,624.76c5.95-.14,11.53-6.1,11.47-12.23-.06-6.33-6-12-12.35-11.78a12.49,12.49,0,0,0-11.56,12.08C486.74,619,492.94,624.91,499.1,624.76Z"/></svg>