<svg id="Layer_1" data-name="Layer 1" xmlns="http://www.w3.org/2000/svg" viewBox="0 0 502 523"><defs><style>.cls-1{fill:#1a0f2e;}.cls-2{fill:#eeea4c;}</style></defs><path class="cls-1" d="M338.16,20.32c7.77,2,15.37,4.34,21.69,9.59,11.24,9.35,17.08,21.25,17.08,36q0,123.47,0,246.94v4.8c4.92,0,9.72-.73,14.23.13C404,320.2,412.86,330.52,413,343.51c.25,32.87.13,65.74.06,98.6,0,5.92-4,9.84-9.34,9.72s-8.89-4.07-8.9-10.17q-.06-46.56,0-93.13c0-1.4,0-2.81,0-4.21-.17-5.41-3.44-8.93-8.44-9.13s-9.07,3.36-9.3,8.8-.06,10.95-.08,16.43c0,6.47-3.4,10.45-8.87,10.5s-9-3.75-9.13-10.28c-.12-8.15,0-16.3-.08-24.44-.08-5.63-2.79-9.17-7.22-9.93-5.72-1-10.3,2.82-10.49,9.13-.23,7.58-.07,15.17-.1,22.76a37.49,37.49,0,0,1-.18,4.62c-.61,5.15-4.44,8.41-9.45,8.13a8.74,8.74,0,0,1-8.36-8.85c-.1-11.66,0-23.32-.07-35-.08-7.47-6.1-11.92-12.33-9.25-3.74,1.61-5.5,4.55-5.48,8.65q0,17.06,0,34.13c0,5.77-3.14,9.69-7.93,10.27-5.36.65-9.8-3.05-10.29-8.7-.17-1.95-.06-3.93-.06-5.9q0-45.93,0-91.86c0-6.33-3.29-10.09-8.7-10.16-4.76-.07-8.43,3.23-9,8.22a34.77,34.77,0,0,0-.09,4.21q0,55.62,0,111.25c0,9-5.13,12.77-13.7,9.94-11.57-3.82-23.09-7.82-34.71-11.48-7.15-2.25-12.68,1.89-11.38,8.47a11.28,11.28,0,0,0,3.77,5.74c13.76,11.78,27.73,23.33,41.5,35.1,4.26,3.64,8.23,7.63,12.11,11.68,2.2,2.29,3.61,5.17,2.17,8.46-1.58,3.62-4.31,5.82-8.44,5.89-2.53,0-5.06.1-7.59.1-32.87,0-65.76-.46-98.62.15-26.39.49-47.18-20.84-47.09-46.9.38-112.65.16-225.3.16-338,0-24,13.82-41.09,37.24-46.14a7.57,7.57,0,0,0,1.52-.67Zm20.57,72.36H125.51V379.24c.52.25.76.48,1,.48,20.79.06,41.57.12,62.36,0a3.54,3.54,0,0,0,2.54-2c6.23-18.1,19.18-24.49,37.18-18.25l22,7.6v-86H187c-5.05,0-10.11.09-15.17-.05a15.92,15.92,0,0,1-5.71-1,8.81,8.81,0,0,1-4.82-10.19c1-4.09,4.63-6.74,9.48-6.75q37.72,0,75.44,0h4.47c.45-2.61.64-4.7,1.17-6.71a27,27,0,0,1,29.6-20.16c13,1.48,23.34,12.88,23.62,26.56.23,11,.06,21.91.06,32.87v3.23c6.52.66,12.65.21,17.94,2.11s9.71,6.15,15.09,9.76c5.81-3.13,13-3.86,20.54-1.31Zm.15-18.54c0-2.77,0-5.14,0-7.5-.32-17.15-11.15-28.19-28.31-28.22q-88.46-.16-176.91,0c-19.7,0-32.15,16.2-27.82,35.72Zm-234,323.76c.41,5.57.16,10.71,1.27,15.53,2.94,12.74,13.48,20.31,27.79,20.35,25.56.09,51.12,0,76.68,0,1.16,0,2.32-.18,4.36-.35-11.17-9.53-22.3-17.78-31.82-27.59-6.7-6.9-13.69-8.35-22.57-8.11C162.4,398.25,144.14,397.9,124.92,397.9Z"/><path class="cls-2" d="M298.38,164.19c7.39,9.85,14.6,19.52,21.87,29.13,2.24,3,4,6.33,2.09,9.68a14,14,0,0,1-6.55,5.79c-3.51,1.35-6.87-.39-9.2-3.47q-9-11.91-18-23.87c-.42-.56-.85-1.1-1.61-2.08l-14.21,18.87c-1.69,2.24-3.31,4.54-5.08,6.72-3.8,4.68-9.06,5.53-13.28,2.22-4-3.12-4.52-8.54-1.11-13.14,6.59-8.91,13.29-17.74,19.94-26.61.75-1,1.45-2.05,2.36-3.32-7.49-10-15-19.91-22.38-30-4.38-6-1.77-13.39,5.12-14.83,4.24-.89,7.28,1.19,9.72,4.45L284,145c.92,1.21,1.89,2.38,3.1,3.91,6.36-8.46,12.51-16.61,18.62-24.79,2.51-3.34,5.51-5.73,10-4.77,6.9,1.48,9.5,8.79,5.13,14.81-6.44,8.85-13.1,17.54-19.66,26.3C300.31,161.57,299.48,162.7,298.38,164.19Z"/><path class="cls-1" d="M233.65,153.26c-.55,9.51,0,19.23-1.89,28.46-3.64,17.92-20.89,29.38-39,27.25a36,36,0,0,1-31.63-35.72c-.06-14.61,0-29.21,0-43.81,0-6.07,3.48-10.15,8.7-10.34s9.24,4,9.29,10.25c.11,14.18-.06,28.36.08,42.54.12,12.57,9.1,20.53,20.92,18.81,8.7-1.26,14.89-8.87,14.94-18.59.07-14.61,0-29.21,0-43.81a8.64,8.64,0,0,1,6.92-8.86,8.08,8.08,0,0,1,9.42,3.83,14.1,14.1,0,0,1,1.6,6.8c.19,7.72.07,15.44.07,23.16Z"/><path class="cls-2" d="M197.2,245.24c-8.42,0-16.85,0-25.27,0-6.69,0-10.77-3.53-10.78-9.13s4.07-9.14,10.76-9.15q25.26,0,50.53,0c6.59,0,10.68,3.71,10.57,9.33-.1,5.43-4.15,8.91-10.55,8.95C214,245.28,205.62,245.24,197.2,245.24Z"/><path class="cls-2" d="M188.29,317c-5.89,0-11.77.05-17.66,0-5.47-.06-9.29-3.57-9.47-8.56-.19-5.17,3.19-9.19,8.69-9.29q18.27-.36,36.55,0c5.47.11,8.87,4.18,8.65,9.34-.21,5-4,8.45-9.53,8.51C199.78,317,194,317,188.29,317Z"/></svg>