<svg id="Layer_1" data-name="Layer 1" xmlns="http://www.w3.org/2000/svg" viewBox="0 0 502 523"><defs><style>.cls-1{fill:#1a0f2e;}.cls-2{fill:#eeea4c;}</style></defs><path class="cls-1" d="M12,394.5V48.77a17.36,17.36,0,0,0,1-2.05c4.9-15.07,15.43-22.81,31.22-22.81q203.94,0,407.88,0a35.32,35.32,0,0,1,7.77.64C474.94,28,484,39.85,484,56.07q-.08,133.2-.19,266.39c0,20.89-.11,41.79-.11,62.68,0,15.56-6.31,26.86-21.44,32.44a4.21,4.21,0,0,0-2.16,2.85c-1.47,10.84-5.66,14.6-16.66,14.6q-59.46,0-118.91,0h-5.34v8.51c6.59,0,12.87-.13,19.14,0,14.7.35,24.8,9.26,26.34,23.67a98.12,98.12,0,0,1,.09,17.48c-.45,6.29-5.2,10.24-11.39,10.24q-105.78,0-211.55,0c-5.25,0-10.31-3.32-10.6-8.26-.47-7.92-.93-16.11.53-23.81,2.28-12.05,12.57-19.1,25.75-19.33,6.26-.11,12.52,0,18.91,0V419.16H171q-28.35,0-56.69,0c-2,0-4.45.27-5.8-.76-2.08-1.59-4.69-4.2-4.68-6.37s2.63-4.81,4.76-6.3c1.53-1.06,4.14-.74,6.27-.74q68.67,0,137.35,0h6.09c0-5.91-.1-11.12,0-16.32.2-8.76,5.79-14.22,14.55-14.39,1.48,0,2.95-.15,4.42-.22V362.64H25.81c0,8.28,0,16.25,0,24.21.09,11.36,6.65,17.92,18.06,18.07,6.76.08,13.52,0,20.28,0,1.07,0,2.15-.05,3.22,0,4.85.39,8.1,3.36,8,7.23s-3.24,6.77-7.83,6.87c-8.45.19-16.91.29-25.34-.05-10-.4-18.56-4.31-24.33-12.76C15.43,402.68,13.93,398.44,12,394.5ZM26.14,118V348.16H258.28c0-11.31,0-22.34,0-33.37,0-10.27,5.28-15.72,15.42-16,1.17,0,2.34-.15,3.58-.22V284.86c-1-.09-1.7-.19-2.44-.22-11.79-.4-16.57-5.35-16.58-17.2,0-9.37,0-18.74,0-28.12.05-10.24,5.3-15.56,15.62-15.65,11.37-.09,22.74,0,34.11,0,18.28,0,36.56,0,54.84,0,5.33,0,8.59,2.89,8.51,7s-3.39,6.8-8.71,7c-1.07,0-2.15,0-3.23,0H272.63v32.41H445.91V237.89c-1-.09-1.74-.22-2.48-.22-11.67,0-23.35.06-35-.06-4.84-.06-8.11-3.19-8-7.15s3.09-6.7,7.83-6.74c12.9-.11,25.81-.21,38.71.11,7.85.19,13,5.88,13.06,13.78.1,10.75.07,21.51,0,32.26,0,8.73-5.47,14.28-14.27,14.75l-4.53.26v13.64c1.35.1,2.4.21,3.47.25,10.27.36,15.34,5.62,15.34,16,0,6.92,0,13.83,0,20.74,0,4.24,0,8.47,0,12.65h9.15V118Zm.38-14.28H469.31c0-17.62.21-34.95-.21-52.27-.07-3-2.4-6.29-4.5-8.75-3.76-4.4-9.15-5.08-14.72-5.07q-201.87,0-403.76,0a40.8,40.8,0,0,0-4.14.1c-9.07.91-15.16,7.34-15.4,16.45-.15,5.84,0,11.68-.06,17.52ZM144.73,481.18H350.38c0-5.21.4-10.27-.19-15.21a8.9,8.9,0,0,0-4.09-5.75,19.24,19.24,0,0,0-9-2.45q-89.4-.21-178.8-.09a27.12,27.12,0,0,0-4.13.27,11.22,11.22,0,0,0-9.36,9.94C144.53,472.15,144.73,476.44,144.73,481.18Zm127.81-60.32h173.4V388.29H272.54Zm173.38-107.6H272.68v32.1H445.92Zm-255,129.91H304.39V435c-9.59,0-18.81-.35-28,.1-9.68.47-17.1-2.53-18.52-15.58H190.93ZM291.5,373.93H426.6V360.1H291.5ZM426.79,285H291.63v13.44H426.79Zm14.35,88.95c.94.12,1.67.26,2.39.29,12.14.46,16.48,4.91,16.49,16.93v12c5.2-2.47,8.51-6.06,8.79-10.46.65-10,.21-20,.21-30.09H441.14Z"/><path class="cls-2" d="M272.54,420.86V388.29h173.4v32.57Zm132.21-23.34v.05c-7.67,0-15.34-.19-23,.07-4.79.16-7.47,3.1-7.39,7.13.08,3.82,2.66,6.73,7.22,6.79q23,.33,46,0c4.57-.06,7.56-3.34,7.46-7.12S432,398,427.3,397.56c-.91-.08-1.84,0-2.76,0Zm-97.4,0c-5.23,0-10.45-.11-15.67,0-5.06.15-8.2,2.84-8.37,6.81s3.15,7.2,8.36,7.28q15.21.22,30.42,0c5.42-.08,8.38-2.92,8.24-7.26-.13-4.11-3-6.66-8.24-6.82C317.18,397.41,312.26,397.53,307.35,397.53Zm44.78,14.31c2.16-.15,4.31-.17,6.42-.47,3.92-.56,6-3.08,6-6.89,0-3.58-2.09-6.22-5.82-6.54a70.41,70.41,0,0,0-12.32-.09c-3.75.33-6.14,2.65-6.18,6.68s2.23,6.2,6,6.85C348.17,411.71,350.17,411.7,352.13,411.84Z"/><path class="cls-2" d="M445.92,313.26v32.1H272.68v-32.1Zm-41.14,9.21c-7.36,0-14.72-.06-22.08,0-5.41.06-8.43,2.66-8.35,7s3.18,6.86,8.59,6.87q21.85.07,43.71,0c5.24,0,8.48-2.88,8.41-7.1-.06-4-3.18-6.69-8.19-6.74C419.51,322.41,412.15,322.47,404.78,322.47Zm-97.55,0c-5.37,0-10.75-.09-16.12,0-4.7.1-7.73,2.81-7.81,6.72s3,7,7.56,7.07q16.13.21,32.26,0c4.33-.06,7.19-3,7.25-6.81.06-4.06-2.8-6.84-7.47-7C317.68,322.38,312.46,322.48,307.23,322.48Zm45.14,0c-1.83,0-3.67-.09-5.5,0-3.89.23-6.24,2.28-6.63,6.21a6.47,6.47,0,0,0,5.93,7.38,63.8,63.8,0,0,0,12.36,0c3.79-.38,6-3,6.07-6.89s-2.66-6.38-6.72-6.69C356.05,322.42,354.21,322.53,352.37,322.53Z"/><path class="cls-1" d="M294.41,175q-34.77,0-69.53,0c-1.95,0-4.56.14-5.7-1-1.86-1.82-4-4.81-3.71-7s3.3-4.19,5.52-5.64c1.22-.79,3.29-.32,5-.32q68.85,0,137.68,0c.77,0,1.54,0,2.3,0,5.54.17,8.42,2.59,8.37,7s-3.1,6.92-8.53,6.93Q330.1,175,294.41,175Z"/><path class="cls-1" d="M166.69,224.57q18.42,0,36.85,0a29.17,29.17,0,0,1,5,.32,6.11,6.11,0,0,1,5.37,6c.28,3.29-1,5.78-4.16,6.9a16.37,16.37,0,0,1-5.41.77q-38,.08-76,0a19.58,19.58,0,0,1-3.68-.17c-3.76-.74-6-3-6.17-6.92-.16-3.7,2.53-6.54,6.71-6.73,6.13-.28,12.27-.16,18.41-.18C151.34,224.55,159,224.57,166.69,224.57Z"/><path class="cls-1" d="M59,169.36c5.76,5.58,11.1,10.43,16,15.68,1.62,1.73,3.08,4.53,3,6.77-.24,5.56-7.14,8.08-11.39,4.11-7.5-7-14.7-14.38-21.86-21.76-2.86-2.94-3-6.57-.12-9.53q10.68-11.12,21.8-21.81a6.74,6.74,0,0,1,9.87.19c2.72,3,2.68,6.44-.44,9.9-2.56,2.85-5.35,5.5-8.1,8.17S62.38,166.14,59,169.36Z"/><path class="cls-1" d="M135,169.28c-5.5-5.41-10.57-10.32-15.55-15.32-4-4.06-4.4-8.12-1.19-11.22,3-2.91,7.07-2.52,10.91,1.27q9.68,9.53,19.2,19.21c4.26,4.34,4.22,7.95-.07,12.31q-9.53,9.67-19.21,19.2c-4,4-7.71,4.26-10.91,1.14-3-2.94-2.75-7.12,1-10.92C124.23,179.8,129.42,174.81,135,169.28Z"/><path class="cls-1" d="M211,296.63c-9.2,0-18.41.05-27.62,0-1.81,0-4.2.15-5.29-.87-1.92-1.81-4.33-4.57-4.15-6.74s3.11-4.27,5.19-6c.88-.72,2.66-.46,4-.46q27.85,0,55.7,0c.62,0,1.23,0,1.84,0,4.84.44,7.44,2.94,7.38,7.08s-2.86,6.82-7.62,6.9C230.65,296.74,220.82,296.62,211,296.63Z"/><path class="cls-1" d="M127.26,267.58c-9.65,0-19.31,0-29,0-3.32,0-6.38-1.17-7-4.68a9.22,9.22,0,0,1,1.33-6.66c1.19-1.53,3.94-2.52,6-2.54,19-.19,38-.17,57-.08,4.93,0,8.12,3,8.17,7s-3.05,6.9-8.06,7c-9.5.15-19,.05-28.51.05Z"/><path class="cls-1" d="M315.76,205.39c-9.36,0-18.72.11-28.08,0-6.13-.09-10-5-7.41-9.49,1.16-2,4.14-4.15,6.33-4.18,19.48-.33,39-.27,58.45-.16,4.51,0,7.11,2.81,7.14,6.74s-2.77,7-7.43,7.07C335.09,205.5,325.42,205.39,315.76,205.39Z"/><path class="cls-1" d="M196.3,205.39c-8,0-15.93.14-23.89,0-6.4-.15-10.08-5.84-6.71-10.5a8.77,8.77,0,0,1,6.07-3.22c16.23-.27,32.47-.24,48.71-.12,4.75,0,7.42,2.86,7.36,7s-2.92,6.76-7.64,6.85C212.24,205.5,204.27,205.39,196.3,205.39Z"/><path class="cls-1" d="M89.59,198c-4.24,0-7.73-4-7-8a36.18,36.18,0,0,1,2.06-6.07q7.15-18.37,14.38-36.73c2.16-5.45,5.55-7.43,9.75-5.93,4,1.42,5.37,5.67,3.36,10.84-5.16,13.25-10.4,26.47-15.59,39.71C95.29,195.1,93.36,197.68,89.59,198Z"/><path class="cls-1" d="M404.27,260.94c-7.21,0-14.42.05-21.63,0-5.37-.06-8.4-2.72-8.29-7.05.11-4.15,3.12-6.78,8.18-6.8q22.08-.1,44.17,0c5.2,0,8.46,2.93,8.36,7.16-.1,4-3.2,6.64-8.24,6.69C419.3,261,411.78,260.93,404.27,260.94Z"/><path class="cls-1" d="M133.27,296.63c-7.22,0-14.46.38-21.63-.2a11.44,11.44,0,0,1-7.26-4.36c-1-1.33-.34-4.89.83-6.59s3.82-2.73,5.85-2.76c15-.23,30.09-.23,45.13-.08,4.71,0,7.69,3,7.73,6.85s-3.21,7-8.08,7.1C148.32,296.74,140.79,296.63,133.27,296.63Z"/><path class="cls-1" d="M76.65,238.57c-6.9,0-13.81,0-20.71,0a15.09,15.09,0,0,1-4.09-.43c-3.55-1-5.42-3.51-5.11-7.18.33-3.92,2.77-6.2,6.68-6.22,15.5-.11,31-.16,46.49,0,4.39,0,7.07,3.07,7,6.92s-2.82,6.72-7.23,6.84c-7.67.22-15.34.06-23,.06Z"/><path class="cls-1" d="M71.43,296.63c-5.52,0-11.05.1-16.57,0-5-.11-8.13-2.84-8.23-6.87s2.78-7,7.87-7.11q16.8-.25,33.61,0c5.26.07,7.93,2.69,7.91,7s-2.93,6.87-8,7C82.49,296.74,77,296.63,71.43,296.63Z"/><path class="cls-1" d="M306.72,260.92c-5.23,0-10.45.09-15.67,0-4.69-.1-7.71-2.87-7.75-6.78s3.08-7,7.62-7q15.88-.18,31.8,0c4.6,0,7.61,2.95,7.64,6.9s-2.8,6.8-7.51,6.91C317.47,261,312.09,260.92,306.72,260.92Z"/><path class="cls-1" d="M183.16,161.11c4,0,8-.1,11.93,0s6.6,2.21,6.89,6.44a6.54,6.54,0,0,1-6.58,7.28q-12.15.38-24.32,0a7,7,0,0,1-6.63-7c0-3.63,2.73-6.47,6.78-6.7s8,0,11.93,0Z"/><path class="cls-1" d="M227.38,267.5c-3.83,0-7.68.16-11.5-.05-4.07-.22-6.57-2.42-6.69-6.68s2.5-6.8,6.41-7c7.65-.38,15.34-.35,23-.07a6.55,6.55,0,0,1,6.68,7.25c-.24,4.26-2.82,6.2-6.85,6.57-.31,0-.62.07-.92.07H227.38Z"/><path class="cls-1" d="M253.84,205.39c-2.91,0-5.83.1-8.74,0-4.86-.19-8.07-3.12-8-7.13.07-3.85,3.09-6.64,7.77-6.75,6.28-.14,12.58-.16,18.86,0,4.8.13,7.44,2.82,7.38,7s-2.89,6.68-7.61,6.89C260.29,205.5,257.06,205.39,253.84,205.39Z"/><path class="cls-1" d="M63.29,267.38c-3.53,0-7.06.18-10.57-.05-3.8-.25-5.81-2.75-6-6.37s1.76-6.68,5.36-6.9A181.14,181.14,0,0,1,74.55,254c3.76.23,5.9,3.27,5.55,7.2-.31,3.66-2.51,5.94-6.24,6.16-3.51.22-7,.05-10.57.05Z"/><path class="cls-1" d="M187.69,267.73c-2.29-.14-4.59-.11-6.85-.44-3.46-.5-5.4-2.66-5.64-6.16s1.32-6.48,4.71-6.83a76.66,76.66,0,0,1,16.31.06c3.36.38,5,3.49,4.62,6.91s-2.31,5.64-5.83,6.05C192.59,267.6,190.14,267.6,187.69,267.73Z"/><path class="cls-1" d="M352.14,260.85c-1.83,0-3.68.13-5.5,0-3.88-.34-6.18-2.49-6.42-6.43s2-6.62,5.72-7.08a54.8,54.8,0,0,1,12.8,0c3.8.42,6,3.24,5.78,7.07s-2.41,6.21-6.42,6.46C356.12,261,354.13,260.85,352.14,260.85Z"/><path class="cls-1" d="M166.24,50.47a20,20,0,0,1,20.13,20.15,20.37,20.37,0,0,1-20,20.44A20.76,20.76,0,0,1,145.8,70.49,20.38,20.38,0,0,1,166.24,50.47ZM166,76.86a6.22,6.22,0,0,0,6.46-5.75,6.42,6.42,0,0,0-6-6.71,6.32,6.32,0,0,0-6.48,6.27A6.23,6.23,0,0,0,166,76.86Z"/><path class="cls-1" d="M114.68,50.46a20.08,20.08,0,0,1,20.09,20.22,20.44,20.44,0,0,1-20.1,20.38c-11.06.07-20.66-9.59-20.5-20.63A20.44,20.44,0,0,1,114.68,50.46Zm-.07,26.43a6.25,6.25,0,0,0,6.21-6,6.39,6.39,0,0,0-6.28-6.45,6.24,6.24,0,0,0,.07,12.48Z"/><path class="cls-1" d="M83.15,70.65A20.37,20.37,0,0,1,63.09,91.06c-11.06.1-20.67-9.55-20.53-20.59A20.42,20.42,0,0,1,63,50.46,20,20,0,0,1,83.15,70.65ZM62.73,64.41a6.24,6.24,0,1,0,6.48,6.24A6.35,6.35,0,0,0,62.73,64.41Z"/><path class="cls-1" d="M404.75,397.52h19.79c.92,0,1.85,0,2.76,0,4.68.42,7.67,3.1,7.76,6.91s-2.89,7.06-7.46,7.12q-23,.29-46,0c-4.56-.06-7.14-3-7.22-6.79-.08-4,2.6-7,7.39-7.13,7.66-.26,15.33-.07,23-.07Z"/><path class="cls-1" d="M307.35,397.53c4.91,0,9.83-.12,14.74,0,5.2.16,8.11,2.71,8.24,6.82.14,4.34-2.82,7.18-8.24,7.26q-15.21.24-30.42,0c-5.21-.08-8.54-3.21-8.36-7.28s3.31-6.66,8.37-6.81C296.9,397.42,302.12,397.53,307.35,397.53Z"/><path d="M352.13,411.84c-2-.14-4-.13-5.9-.46-3.79-.65-6.06-2.84-6-6.85s2.43-6.35,6.18-6.68a70.41,70.41,0,0,1,12.32.09c3.73.32,5.77,3,5.82,6.54.06,3.81-2.06,6.33-6,6.89C356.44,411.67,354.29,411.69,352.13,411.84Z"/><path class="cls-1" d="M404.78,322.47c7.37,0,14.73-.06,22.09,0,5,.05,8.13,2.71,8.19,6.74.07,4.22-3.17,7.08-8.41,7.1q-21.86.09-43.71,0c-5.41,0-8.51-2.59-8.59-6.87s2.94-6.92,8.35-7C390.06,322.41,397.42,322.47,404.78,322.47Z"/><path class="cls-1" d="M307.23,322.48c5.23,0,10.45-.1,15.67,0,4.67.12,7.53,2.9,7.47,7-.06,3.79-2.92,6.75-7.25,6.81q-16.12.23-32.26,0c-4.54-.06-7.64-3.19-7.56-7.07s3.11-6.62,7.81-6.72C296.48,322.39,301.86,322.48,307.23,322.48Z"/><path d="M352.37,322.53c1.84,0,3.68-.11,5.51,0,4.06.31,6.83,3,6.72,6.69s-2.28,6.51-6.07,6.89a63.8,63.8,0,0,1-12.36,0,6.47,6.47,0,0,1-5.93-7.38c.39-3.93,2.74-6,6.63-6.21C348.7,322.44,350.54,322.53,352.37,322.53Z"/><path class="cls-2" d="M166,76.86a6.23,6.23,0,0,1-6.06-6.19,6.32,6.32,0,0,1,6.48-6.27,6.42,6.42,0,0,1,6,6.71A6.22,6.22,0,0,1,166,76.86Z"/><path class="cls-2" d="M114.61,76.89a6.24,6.24,0,0,1-.07-12.48,6.39,6.39,0,0,1,6.28,6.45A6.25,6.25,0,0,1,114.61,76.89Z"/><path class="cls-2" d="M62.73,64.41a6.35,6.35,0,0,1,6.48,6.24,6.25,6.25,0,1,1-6.48-6.24Z"/></svg>