<svg id="Layer_1" data-name="Layer 1" xmlns="http://www.w3.org/2000/svg" viewBox="0 0 65 65"><defs><style>.cls-1{fill:blue;}.cls-2{fill:#f3f945;}</style></defs><path class="cls-1" d="M63.93,42.86A5.4,5.4,0,0,1,62,45.63c-3.36,3-6.73,6-10,9a10.7,10.7,0,0,1-6.14,2.82c-4.79.64-9.56,1.38-14.34,2-4.16.59-3.73.73-7.44-.72l-1.26-.47L16.34,55.9l-.65-.22c0,.06-.07.09-.07.12-.09,1.89-.76,2.53-2.64,2.53H6.37A2.1,2.1,0,0,1,4,56V33.94A2.13,2.13,0,0,1,6.4,31.55q3.42,0,6.85,0a2.12,2.12,0,0,1,2.36,2.34v2a20.23,20.23,0,0,1,2.55.44c1.15.35,2.26.82,3.38,1.26a5.73,5.73,0,0,1,1,.57,16.52,16.52,0,0,0,8.55,2.53c2.92.11,5.84.4,8.73.78a5.1,5.1,0,0,1,4.42,4.75c0,.44.17.63.62.62s1,.08,1.58,0a1.64,1.64,0,0,0,.79-.28c3.65-2.43,7.28-4.88,10.93-7.31a3.65,3.65,0,0,1,5.63,2,1.15,1.15,0,0,0,.12.25ZM15.6,37.7c0,.73,0,1.39,0,2a.87.87,0,1,1-1.74,0,3.53,3.53,0,0,1,0-.46c0-1.76,0-3.51,0-5.27,0-.57-.18-.75-.73-.74-2.21,0-4.41,0-6.61,0-.54,0-.75.14-.75.73q0,10.9,0,21.81c0,.56.16.75.73.75,2.2,0,4.4,0,6.6,0,.74,0,.75,0,.75-.76V44.18a2.89,2.89,0,0,1,0-.59.87.87,0,0,1,1.72,0,2.82,2.82,0,0,1,0,.58c0,3,0,6,0,9.07a.63.63,0,0,0,.49.71c3.5,1.31,7,2.67,10.5,3.94a5,5,0,0,0,2.28.23c5.63-.76,11.26-1.62,16.89-2.39a8.58,8.58,0,0,0,4.94-2.28c1.45-1.39,3-2.7,4.47-4l6.22-5.59a2,2,0,0,0,.73-2,1.9,1.9,0,0,0-3.06-1c-3.74,2.5-7.47,5-11.23,7.5a2.52,2.52,0,0,1-1.3.34c-1.05,0-2.1-.18-3.15-.14-2.63.12-5.25.34-7.88.5q-4.7.28-9.4.53a3.36,3.36,0,0,1-2.73-1.22.88.88,0,0,1-.05-1.26.87.87,0,0,1,1.29.05,2.2,2.2,0,0,0,1.84.68c4.73-.3,9.46-.58,14.19-.87l1.84-.13a3.48,3.48,0,0,0-3.2-3.67c-3.27-.29-6.52-.65-9.79-.83a14.07,14.07,0,0,1-6.43-1.88c-.82-.47-1.66-.93-2.51-1.37A11.65,11.65,0,0,0,15.6,37.7Z"/><path class="cls-2" d="M33.94,3.9h8.65a1.79,1.79,0,0,1,2.06,1.81,7.61,7.61,0,0,0,4.5,6.11,2.07,2.07,0,0,1,1.44,2.45c-1.18,9.42-5.11,17.21-13.34,22.43-.75.48-1.56.87-2.34,1.3a1.66,1.66,0,0,1-1.67,0A27.29,27.29,0,0,1,19.36,22.64a32,32,0,0,1-2-8.25,2,2,0,0,1,1.28-2.31,7.71,7.71,0,0,0,4.6-6.49A1.7,1.7,0,0,1,25.05,4h8.89ZM25,5.73A.77.77,0,0,0,25,5.9a9.5,9.5,0,0,1-5.57,7.76.75.75,0,0,0-.29.64c.3,1.65.53,3.32,1,4.92,2.05,7.18,6.06,12.87,12.69,16.57a2.3,2.3,0,0,0,2.63,0c8.3-4.86,12.24-12.39,13.45-21.64.06-.44-.15-.61-.5-.78a9.17,9.17,0,0,1-5-5.52c-.24-.69-.36-1.43-.53-2.12Z"/><path class="cls-1" d="M9.7,48.81a3.1,3.1,0,0,1,3.06,3.11,3.1,3.1,0,1,1-6.2,0A3.08,3.08,0,0,1,9.7,48.81ZM8.32,51.88a1.34,1.34,0,0,0,1.29,1.37A1.37,1.37,0,0,0,11,51.9a1.34,1.34,0,0,0-1.33-1.33A1.3,1.3,0,0,0,8.32,51.88Z"/><path class="cls-2" d="M33.9,9c-1.91,0-3.83,0-5.74,0a.65.65,0,0,0-.75.51A11.89,11.89,0,0,1,23,15.3a.7.7,0,0,0-.34.87c.18.62.3,1.25.43,1.88a.88.88,0,0,1-.62,1.14.89.89,0,0,1-1-.71c-.24-1-.46-1.93-.64-2.91a1.23,1.23,0,0,1,.63-1.29,10.82,10.82,0,0,0,4.58-6,1.3,1.3,0,0,1,1.36-1l13-.08A1.37,1.37,0,0,1,41.9,8.27a10.49,10.49,0,0,0,4.5,5.78,1.42,1.42,0,0,1,.71,1.64c-.18.84-.33,1.68-.52,2.52-.15.66-.59,1-1.11.83s-.74-.58-.6-1.26.31-1.25.4-1.89a.76.76,0,0,0-.24-.61,12.32,12.32,0,0,1-4.63-5.95C40.29,9,40.1,9,39.8,9H33.9Z"/><path class="cls-2" d="M34.08,34.64c-.32-.14-.61-.23-.88-.38A23.73,23.73,0,0,1,22.87,22.64c-.28-.64-.15-1.11.36-1.35s1,0,1.24.63a22.12,22.12,0,0,0,5.62,8c1.05.92,2.25,1.68,3.36,2.52a1,1,0,0,0,1.25,0,22.26,22.26,0,0,0,8.62-10.06c.08-.18.15-.36.23-.53.29-.63.74-.85,1.24-.62a.89.89,0,0,1,.38,1.29,25.92,25.92,0,0,1-3.63,6.18A22.8,22.8,0,0,1,35,34.24,9.58,9.58,0,0,1,34.08,34.64Z"/><path class="cls-2" d="M33.42,22.75,35.25,20l3.23-4.86a2.66,2.66,0,0,1,.35-.46.79.79,0,0,1,1.07-.07.8.8,0,0,1,.31,1,2.91,2.91,0,0,1-.26.45L34.5,24.3c-.57.86-1,.91-1.79.21q-1.63-1.55-3.26-3.1c-.49-.47-.56-1-.21-1.38s.9-.38,1.43.13Z"/></svg>