<svg id="Layer_1" data-name="Layer 1" xmlns="http://www.w3.org/2000/svg" viewBox="0 0 65 65"><defs><style>.cls-1{fill:blue;}.cls-2{fill:#f3f945;}</style></defs><path class="cls-1" d="M44.52,49.3l1,3.74c.28,1,.57,2,.82,3a.5.5,0,0,0,.59.45c.72,0,1.44,0,2.15,0a2.57,2.57,0,1,1,0,5.14H14.66a2.57,2.57,0,1,1,0-5.14c.83,0,1.68,0,2.6,0l1.45-7.15H5.43a2.9,2.9,0,0,1-3.19-3.16V7.54A5,5,0,0,1,7.53,2.23H56.29a5,5,0,0,1,5.28,5.31V46.08a2.91,2.91,0,0,1-3.25,3.22H44.52ZM3.72,40.76H60.09V7.62A3.56,3.56,0,0,0,56.2,3.71H7.61A3.56,3.56,0,0,0,3.72,7.62V40.76ZM60.09,42.3H3.72v3.59c0,1.51.42,1.93,1.94,1.93h53a1.36,1.36,0,0,0,1.42-1.39C60.11,45.08,60.09,43.73,60.09,42.3ZM18.76,56.41H45l-2-7.08H20.2Zm13.15,3.72H48.78a4.15,4.15,0,0,0,.61,0,1.08,1.08,0,0,0,1-1A1,1,0,0,0,49.5,58a2.46,2.46,0,0,0-.67-.06H15a2.54,2.54,0,0,0-.67.06,1,1,0,0,0-.83,1.08,1.06,1.06,0,0,0,.95,1,4.28,4.28,0,0,0,.62,0Z"/><path class="cls-2" d="M52,36.49c-.56,0-.9-.43-1.3-.81-.22-.2-.36-.51-.81-.33s-.38.51-.39.85a5.2,5.2,0,0,1,0,.68,1.24,1.24,0,0,1-1.29,1.21c-.64,0-1.27,0-1.91,0a1.24,1.24,0,0,1-1.3-1.27,4.88,4.88,0,0,0,0-.86,1.3,1.3,0,0,0-.39-.58c-.26-.24-.47-.05-.66.16a7.66,7.66,0,0,1-.57.57,1.29,1.29,0,0,1-1.88,0c-.45-.42-.88-.85-1.3-1.3a1.28,1.28,0,0,1,0-1.92,5,5,0,0,0,.55-.58.78.78,0,0,0,.13-.61.79.79,0,0,0-.56-.38c-1.93-.09-2.15-.3-2.15-2.21,0-.35,0-.7,0-1.05a1.31,1.31,0,0,1,1.34-1.31,4.25,4.25,0,0,0,.8,0,.9.9,0,0,0,.56-.39.76.76,0,0,0-.15-.66c-1.3-1.39-1.3-1.7.06-3.07l0,0c1.33-1.54,2.14-1.31,3.16-.1a.62.62,0,0,0,.61.13.72.72,0,0,0,.39-.55c-.14-1.88.63-2.27,2.26-2.17h.3c1.65,0,2,.34,2,2,0,.23,0,.55.17.66a.57.57,0,0,0,.9-.05c1.12-1.35,1.92-1.23,3,0,.23.26.5.49.74.75a1.3,1.3,0,0,1,0,1.92,4.26,4.26,0,0,0-.55.58,1.09,1.09,0,0,0-.14.62c0,.32.24.44.56.4,1.7-.17,2.24.38,2.18,2.22-.07,2.08-.16,2.23-2.21,2.35a.71.71,0,0,0-.51.36.68.68,0,0,0,.11.62C55,33.42,55,34.2,53.63,35.44,53.14,35.86,52.8,36.49,52,36.49ZM41.22,24.17c.85.78,1.54,1.42,1,2.77s-1.56,1.28-2.63,1.29v1.58c1.1,0,2.06-.1,2.63,1.24s-.19,2-.89,2.69l1.11,1.15c.71-.82,1.39-1.45,2.71-.92s1.28,1.53,1.25,2.62H48c0-1.11-.06-2.07,1.27-2.62s2,.19,2.73.93l1.16-1.09c-.77-.75-1.54-1.36-1-2.72s1.53-1.33,2.63-1.28V28.18c-1.15.11-2.05,0-2.62-1.26s.25-2,1-2.74L52,23.05c-.72.79-1.36,1.53-2.71,1s-1.33-1.53-1.3-2.65H46.4c0,1.1.07,2.07-1.27,2.63s-2-.18-2.77-1Z"/><path class="cls-1" d="M33.11,11.19l-1.28.92-7.27,5.28c-.72.52-.9.5-1.53-.1l-5.81-5.6c-.14-.14-.3-.27-.48-.44l-3.52,2.6L8,17.69c-.41.3-.82.33-1.13-.11a.71.71,0,0,1,.23-1.06l.3-.22,6.88-5.09,1.78-1.32c.68-.5.87-.49,1.48.09l5.85,5.63.47.43,8.16-5.92c-.58-.09-1-.17-1.47-.23s-.82-.31-.75-.84.45-.69,1-.62c1.08.14,2.16.27,3.23.43.65.1.83.34.76,1-.13,1.08-.27,2.16-.41,3.24-.06.47-.31.78-.81.73a.7.7,0,0,1-.66-.86C33,12.43,33,11.88,33.11,11.19Z"/><path class="cls-2" d="M14.18,23.51v-6c0-.85.21-1.06,1.05-1.07h3.32c.76,0,1,.23,1,1V29.57c0,.77-.25,1-1,1H15.19c-.78,0-1-.24-1-1Zm1.5,5.54H18V18H15.68Z"/><path class="cls-2" d="M32.9,23.91c0,1.89,0,3.78,0,5.66,0,.78-.21,1-1,1H28.54c-.74,0-1-.22-1-.94q0-5.76,0-11.52c0-.67.22-.9.88-.91q1.79,0,3.57,0c.65,0,.88.25.88.91C32.91,20.05,32.9,22,32.9,23.91Zm-3.82-5.2V29.07h2.31V18.71Z"/><path class="cls-1" d="M20,34.48H7.46a3.11,3.11,0,0,1-.61,0c-.41-.09-.72-.38-.6-.78s.41-.48.67-.65.36,0,.54,0H32.7c.9,0,1.25.2,1.24.73s-.37.74-1.25.74Z"/><path class="cls-2" d="M12.6,25.09v4.49c0,.78-.22,1-1,1-1.15,0-2.3,0-3.44,0-.69,0-.92-.24-.92-.94,0-3,0-6.07,0-9.1,0-.69.24-.94.91-.94q1.76,0,3.51,0c.68,0,.91.24.91.94C12.6,22.05,12.6,23.57,12.6,25.09Zm-1.52,4v-8H8.79v8Z"/><path class="cls-1" d="M52.7,19.28a4.82,4.82,0,1,1,4.9-4.73A4.83,4.83,0,0,1,52.7,19.28Zm.1-1.48a3.34,3.34,0,1,0-3.37-3.34A3.35,3.35,0,0,0,52.8,17.8Z"/><path class="cls-1" d="M41.61,19.28a4.82,4.82,0,1,1,4.8-4.84A4.82,4.82,0,0,1,41.61,19.28Zm0-1.48a3.35,3.35,0,0,0,3.36-3.29,3.35,3.35,0,1,0-6.69,0A3.34,3.34,0,0,0,41.57,17.8Z"/><path class="cls-2" d="M26.36,26.46c0,1.05,0,2.09,0,3.14,0,.73-.23,1-.94,1-1.16,0-2.33,0-3.5,0-.67,0-.91-.25-.92-.94q0-3.23,0-6.45c0-.7.24-.92.94-.93,1.17,0,2.33,0,3.5,0,.68,0,.92.26.92.95C26.37,24.29,26.36,25.38,26.36,26.46Zm-1.52,2.62v-5.3H22.53v5.3Z"/><path class="cls-2" d="M50.77,29a3.59,3.59,0,1,1-3.58-3.61A3.59,3.59,0,0,1,50.77,29Zm-1.48,0a2.11,2.11,0,1,0-2.07,2.15A2.1,2.1,0,0,0,49.29,29Z"/><path class="cls-1" d="M52.32,14.56c.55-.58,1-1.07,1.49-1.54s.87-.46,1.17-.12A.75.75,0,0,1,54.87,14c-.63.63-1.26,1.28-1.91,1.9-.47.46-.79.46-1.27,0s-.66-.67-1-1a.74.74,0,0,1-.11-1.13c.31-.36.73-.32,1.17.1C51.93,14.09,52.08,14.29,52.32,14.56Z"/><path class="cls-1" d="M40.65,14.45c-.31-.25-.53-.4-.72-.59-.43-.43-.46-.86-.11-1.18A.73.73,0,0,1,41,12.8c.19.21.36.45.64.8a9.48,9.48,0,0,1,.73-.89.66.66,0,0,1,1,0,.68.68,0,0,1,0,1,8.91,8.91,0,0,1-.78.64l.56.59c.52.53.6.9.25,1.26s-.78.3-1.31-.24c-.15-.15-.27-.32-.52-.63a7.91,7.91,0,0,1-.67.85.68.68,0,0,1-1,.05.7.7,0,0,1,0-1.09C40.05,15,40.3,14.76,40.65,14.45Z"/></svg>