<svg id="Layer_1" data-name="Layer 1" xmlns="http://www.w3.org/2000/svg" viewBox="0 0 65 65"><defs><style>.cls-1{fill:#190f2d;}</style></defs><path class="cls-1" d="M50.63,54.15l1.19,1.43c-8.6,7.69-24.14,10.54-36.88,1.7A30.43,30.43,0,0,1,45,4.65a29.47,29.47,0,0,1,16.2,18.13C64,31.1,63.1,39.18,59.05,47l1.41.91,1.44.95-7.06,2.88-.3-7.62,2.76,1.72c5.33-9,5.36-23.92-5.26-34.13a28.56,28.56,0,1,0-1.41,42.47Z"/><path class="cls-1" d="M28.4,18.57a5.9,5.9,0,1,1-5.93-5.92A5.91,5.91,0,0,1,28.4,18.57Zm-10,.86c.72.71,1.38,1.4,2.08,2.06a.93.93,0,0,0,1.38,0c1.61-1.59,3.21-3.2,4.74-4.73l-1.34-1.52L21,19.43,19.81,18Z"/><path class="cls-1" d="M16.61,32.31a5.9,5.9,0,1,1,5.91,5.88A5.92,5.92,0,0,1,16.61,32.31Zm3.23-.49-1.49,1.45,1.89,1.79c.65.62,1.12.63,1.74,0l3.83-3.82c.28-.28.59-.53.84-.75l-1.47-1.59-4.11,4.22Z"/><path class="cls-1" d="M22.5,51.94a5.89,5.89,0,1,1,5.9-5.83A5.91,5.91,0,0,1,22.5,51.94Zm2.74-9.18L21.08,47l-1.23-1.38-1.49,1.36c.72.71,1.38,1.4,2.08,2.06a.93.93,0,0,0,1.38,0c1.62-1.59,3.22-3.2,4.84-4.82Z"/><path class="cls-1" d="M31.37,17.52V15.63H48v1.89Z"/><path class="cls-1" d="M48,29.38v1.89H31.38V29.38Z"/><path class="cls-1" d="M31.38,45V43.13H48V45Z"/><path class="cls-1" d="M31.4,19.54h8.74v1.91H31.4Z"/><path class="cls-1" d="M40.16,33.32v1.89H31.4V33.32Z"/><path class="cls-1" d="M31.38,49V47.06h8.76V49Z"/></svg>