<svg id="Layer_1" data-name="Layer 1" xmlns="http://www.w3.org/2000/svg" viewBox="0 0 65 65"><defs><style>.cls-1{fill:blue;}.cls-2{fill:#f3f945;}</style></defs><path class="cls-1" d="M2.53,26.93V4.18c0-1.83.81-2.64,2.65-2.64H37.37c1.84,0,2.66.82,2.66,2.64v45.5c0,1.78-.83,2.6-2.62,2.6H5.15c-1.79,0-2.62-.83-2.62-2.6ZM5.3,4.52,5,49.58l32.49-.25.19-44.75-8.8-.25A46.41,46.41,0,0,1,29,10,2.83,2.83,0,0,1,28.35,12a2.61,2.61,0,0,1-1.88.62H16.07a2.57,2.57,0,0,1-1.87-.64,2.72,2.72,0,0,1-.64-1.87A21,21,0,0,1,14,4.77ZM27.83,6.24l-12-.06V11l12-.13Z"/><path class="cls-1" d="M62.11,34.56c1.73.48,2.18,1.08,2.18,2.9s0,3.86,0,5.79a2.21,2.21,0,0,1-2.39,2.41h-4l-.18,0v4.37h2.06a2.19,2.19,0,0,1,2.1,1.29c.73,1.43,1.44,2.87,2.16,4.31a2.19,2.19,0,0,1,0,2c-.72,1.43-1.42,2.88-2.16,4.31a2.18,2.18,0,0,1-3,1A2.22,2.22,0,0,1,58,60c.45-.93.91-1.86,1.39-2.77a1.21,1.21,0,0,0,0-1.08,2.2,2.2,0,0,0-2.74-1.71c-1.22.15-2.48,0-3.72,0a1.18,1.18,0,0,0-.72.44,2.62,2.62,0,0,0,0,3.47A9.9,9.9,0,0,1,53,60.14a2.2,2.2,0,0,1-1,2.94,2.16,2.16,0,0,1-2.94-1c-.76-1.46-1.48-3-2.22-4.43a2.12,2.12,0,0,1,0-2c.73-1.45,1.45-2.92,2.19-4.37a2.16,2.16,0,0,1,2.07-1.23h2.05V45.66h-3.4c-.35,0-.69,0-1,0a2.17,2.17,0,0,1-2.11-2.13q0-3.37,0-6.76c0-1.15.71-1.83,2.17-2.2V25.83H42.27v-4.4h5.59a8.76,8.76,0,0,1,0-8.85H42.27V8.2c.19,0,.39,0,.59,0,4.2,0,8.4,0,12.61,0A8.79,8.79,0,0,1,62.39,22.4a1.41,1.41,0,0,0-.29.79c0,3.7,0,7.4,0,11.1A2.45,2.45,0,0,0,62.11,34.56Zm-.57-17.34A6,6,0,0,0,55.22,11a5.94,5.94,0,1,0,6.32,6.19ZM59.81,35.67l.13-11.11-8.23-.19.06,11.49Zm2.11,8.17c.13-2.09.26-4.17.38-6.26l-12.95-.25.06,6.7Z"/><path class="cls-2" d="M13.92,20c3.66-4.35,5-4.85,5.59-4.55a1.68,1.68,0,0,1,.62,1.12,2.42,2.42,0,0,1-.77,2.18q-2,2.05-4.09,4.09a2.21,2.21,0,0,1-3.44,0c-.67-.66-1.34-1.32-2-2a2.27,2.27,0,0,1-.66-2,1.84,1.84,0,0,1,.61-1.16C10.58,17.16,12.28,18,13.92,20Z"/><path class="cls-2" d="M13.92,29c3.66-4.35,5-4.85,5.59-4.55a1.68,1.68,0,0,1,.62,1.11,2.4,2.4,0,0,1-.77,2.18c-1.36,1.37-2.72,2.74-4.09,4.09a2.21,2.21,0,0,1-3.44,0c-.67-.66-1.34-1.32-2-2a2.27,2.27,0,0,1-.66-2,1.88,1.88,0,0,1,.61-1.17C10.58,26.18,12.28,27.06,13.92,29Z"/><path class="cls-2" d="M14.22,39.26c3.66-4.36,5-4.86,5.59-4.56a1.69,1.69,0,0,1,.63,1.12A2.45,2.45,0,0,1,19.66,38q-2,2.05-4.08,4.09a2.22,2.22,0,0,1-3.45,0c-.66-.66-1.34-1.32-2-2a2.29,2.29,0,0,1-.66-2,1.82,1.82,0,0,1,.62-1.16C10.88,36.45,12.59,37.33,14.22,39.26Z"/></svg>