<svg id="Layer_1" data-name="Layer 1" xmlns="http://www.w3.org/2000/svg" viewBox="0 0 65 65"><defs><style>.cls-1{fill:blue;}.cls-2{fill:#f3f945;}</style></defs><path class="cls-1" d="M51.18,33V10c0-1.34-.49-1.83-1.83-1.83H11.91c-1.31,0-1.81.5-1.82,1.79V53.2c0,1.29.51,1.79,1.82,1.79H34.48a1.43,1.43,0,0,1,0,2.85,4.73,4.73,0,0,1-.53,0h-22a4.33,4.33,0,0,1-4.7-4.73V10a4.33,4.33,0,0,1,4.71-4.71H49.32A4.34,4.34,0,0,1,54.05,10q0,11.73,0,23.47a.83.83,0,0,0,.51.87,13.51,13.51,0,1,1-7.81-1.52A25,25,0,0,1,50.6,33,3.47,3.47,0,0,1,51.18,33Zm-3,2.57A10.65,10.65,0,1,0,58.82,46.28,10.62,10.62,0,0,0,48.17,35.6Z"/><path class="cls-2" d="M28.63,25.6,32.43,21,36,16.57a1.49,1.49,0,0,1,2.53-.14L42,19.87l1.33-1.64c.5-.62,1-1.26,1.5-1.86A1.42,1.42,0,1,1,47,18.14c-1.24,1.59-2.49,3.16-3.77,4.71A1.39,1.39,0,0,1,41,23c-1.05-1-2.09-2.08-3.13-3.12l-.47-.44-3.34,4.08-4,4.9c-.87,1.06-1.66,1.09-2.64.11l-4.82-4.82-.51-.49-1.89,2.16-3.14,3.6a.86.86,0,0,0-.27.5c0,1.49,0,3,0,4.53H32a4.85,4.85,0,0,1,.66,0,1.43,1.43,0,0,1,0,2.84,4.64,4.64,0,0,1-.53,0H15.75c-1.34,0-1.83-.5-1.83-1.84V13.66A1.49,1.49,0,0,1,15.18,12a1.45,1.45,0,0,1,1.6,1.58c0,3.51,0,7,0,10.51v.8l2.43-2.76,1.53-1.75c.88-1,1.62-1,2.57-.06l4.82,4.81Z"/><path class="cls-2" d="M23.05,40.66h7.34a2.45,2.45,0,0,1,1,.21,1.39,1.39,0,0,1,.69,1.47,1.46,1.46,0,0,1-1.21,1.16,4.85,4.85,0,0,1-.66,0H15.33a1.43,1.43,0,0,1,0-2.86h7.69Z"/><path class="cls-1" d="M19.65,49.26H15.54a1.45,1.45,0,1,1,0-2.87h8.17a1.47,1.47,0,0,1,1.65,1.42c0,.87-.65,1.44-1.67,1.45Z"/><path class="cls-2" d="M49.61,42.31c0,.93,0,1.87,0,2.8A1.42,1.42,0,0,0,50,46c1.38,1.31,2.81,2.59,4.2,3.9a2.48,2.48,0,0,1,.65,1,1.33,1.33,0,0,1-.65,1.53,1.38,1.38,0,0,1-1.71-.19c-.79-.7-1.56-1.43-2.33-2.14-.93-.85-1.84-1.71-2.77-2.55A1.77,1.77,0,0,1,46.74,46c0-2.21,0-4.42,0-6.63,0-1,.54-1.62,1.42-1.63a1.45,1.45,0,0,1,1.44,1.62C49.62,40.36,49.61,41.33,49.61,42.31Z"/></svg>