<svg id="Layer_1" data-name="Layer 1" xmlns="http://www.w3.org/2000/svg" viewBox="0 0 65 65"><defs><style>.cls-1{fill:blue;}.cls-2{fill:#f3f945;}</style></defs><path class="cls-1" d="M56.68,30.32c-1.25,1.17-2.39,2.15-3.44,3.22-4.59,4.67-9.15,9.37-13.72,14.05-.8.81-.92.83-1.93.26C35,46.39,32.44,45,29.88,43.48a.91.91,0,0,0-1.09,0q-10,6.12-20,12.2c-.17.1-.35.21-.53.3a.87.87,0,0,1-1-1.43c.3-.28.62-.53.94-.79l20-16.34c1-.83,1-.83,2.13-.17l6.67,4,.69.38L52.49,26.48l-1.72-1.73C50,24,50.2,23.29,51.22,23L61,20.29c1.16-.32,1.66.16,1.37,1.32q-1.22,4.89-2.44,9.77c-.3,1.18-1,1.37-1.83.5C57.56,31.35,57.08,30.77,56.68,30.32ZM19.12,47.16l.06.12.39-.22c3-1.8,5.94-3.59,8.9-5.42a1.44,1.44,0,0,1,1.69,0c2.55,1.48,5.14,2.91,7.69,4.38a.62.62,0,0,0,.92-.14c.58-.64,1.2-1.24,1.8-1.86l15-15.33c.69-.7,1.06-.7,1.77,0l1.22,1.16,1.87-7.52-7.5,2.08,1.25,1.2c.67.66.67,1.06,0,1.73L38.77,43.07c-.68.7-.9.72-1.77.2-2.34-1.39-4.69-2.77-7-4.19a.77.77,0,0,0-1.11.1c-.55.5-1.15,1-1.73,1.42Z"/><path class="cls-1" d="M8.57,40.93c.25-1,.56-1.33,1.12-1.23s.81.58.66,1.54L10,43.66c-.14.87-.64,1.16-1.46.82S6.83,43.77,6,43.4s-.94-.73-.74-1.24.65-.65,1.37-.4l.28.06c-.09-.23-.15-.41-.23-.58-4-9.52-3-18.47,3.4-26.59A23.72,23.72,0,0,1,27.93,5.28C38.52,4.67,46.55,9.1,52.07,18.12a2.77,2.77,0,0,1,.28.54A.83.83,0,0,1,52,19.72a.8.8,0,0,1-1.1-.2,4.21,4.21,0,0,1-.36-.57c-5-8.17-12.23-12.28-21.76-12A23.72,23.72,0,0,0,8.32,40.56l.12.24A.51.51,0,0,0,8.57,40.93Z"/><path class="cls-2" d="M47.62,23.62v.82A1.53,1.53,0,0,1,46.46,26c-.3.11-.6.2-.91.3A1.16,1.16,0,0,0,44.86,28l.36.73a1.58,1.58,0,0,1-.36,2.2c-.35.36-.69.72-1.06,1.06a1.51,1.51,0,0,1-1.87.3l-.85-.43a1.17,1.17,0,0,0-1.71.69c-.68,2-.75,2.05-2.84,2.05-1.7,0-1.93-.16-2.44-1.75-.38-1.17-1-1.42-2.07-.86-1.49.75-1.77.71-3-.49l-.53-.53a1.64,1.64,0,0,1-.36-2.31c.27-.55.78-1.07.28-1.74a1.82,1.82,0,0,0-.6-.54c-.35-.17-.74-.23-1.1-.38a1.4,1.4,0,0,1-1-1.34c0-.66,0-1.32,0-2a1.46,1.46,0,0,1,1-1.4c.32-.12.65-.2,1-.31a1.17,1.17,0,0,0,.72-1.75c-.12-.25-.25-.49-.37-.73a1.53,1.53,0,0,1,.31-2c.38-.39.76-.77,1.16-1.15A1.53,1.53,0,0,1,31.44,15c.28.13.56.28.85.43A1.16,1.16,0,0,0,34,14.71c.66-2,.74-2,2.84-2,1.71,0,1.94.17,2.47,1.81.35,1.08,1,1.34,2,.84a4.47,4.47,0,0,1,1.18-.49c1.08-.19,3.19,1.81,3,2.89a6.34,6.34,0,0,1-.64,1.56,1.19,1.19,0,0,0,.67,1.62l.19.06C47.51,21.55,47.62,21.7,47.62,23.62Zm-16.9-7c-1.09,1-1.09,1-.48,2.18a1.68,1.68,0,0,1,.23.49,1.64,1.64,0,0,1,0,.79c-.45,1.27-.94,2.52-2.58,2.65a.61.61,0,0,0-.41.36c-.23.91,0,1.26.85,1.54a4.52,4.52,0,0,1,.83.29,1.35,1.35,0,0,1,.59.51c.57,1.21,1.2,2.43.11,3.71a.58.58,0,0,0-.08.54,1.12,1.12,0,0,0,1.72.53,4.83,4.83,0,0,1,.86-.41,1.35,1.35,0,0,1,.77,0c1.27.46,2.53.94,2.65,2.59a.56.56,0,0,0,.37.39c.93.22,1.23,0,1.53-.86a3.68,3.68,0,0,1,.28-.83,1.92,1.92,0,0,1,.65-.65,3.08,3.08,0,0,1,3.81.09.73.73,0,0,0,.21.07l1-1c-.46-1-1.12-1.89-.55-3.28s1.65-1.51,2.69-1.94V22.87c-1-.44-2.12-.53-2.69-1.94s.09-2.23.51-3.19l-1.07-1.11-.67.34a7,7,0,0,0-.67.34,1.49,1.49,0,0,1-1.35,0,2.93,2.93,0,0,1-2.37-2.52c0-.14-.29-.33-.46-.35-1.1-.13-1.1-.12-1.45,1a3.05,3.05,0,0,1-.25.7,2.07,2.07,0,0,1-.62.66c-1.27.71-2.56,1-3.81-.06A.71.71,0,0,0,30.72,16.63Z"/><path class="cls-2" d="M26.51,29.93a6.76,6.76,0,0,1-.77,1.3,1.51,1.51,0,0,0-.47,1.39,2.36,2.36,0,0,1,0,.75,1.24,1.24,0,0,0,.38,1.1,2.47,2.47,0,0,1-.72,3.84,2.43,2.43,0,0,1-1.37.12,1.45,1.45,0,0,0-1.44.29,1,1,0,0,1-.4.24,1.67,1.67,0,0,0-1.14,1.29,1.66,1.66,0,0,1-1.77,1.3,7.47,7.47,0,0,1-1.16,0,1.75,1.75,0,0,1-1.5-1.48,1.19,1.19,0,0,0-.82-1,1.25,1.25,0,0,1-.48-.26A1.69,1.69,0,0,0,13,38.49a1.5,1.5,0,0,1-1.69-.6,6.73,6.73,0,0,1-.79-1.35A1.64,1.64,0,0,1,11,34.62a1.36,1.36,0,0,0,.49-1.38,1.73,1.73,0,0,1,0-.75,1.19,1.19,0,0,0-.41-1.2,1.76,1.76,0,0,1-.28-2.51c.78-1.38,1.23-1.67,2.45-1.39a1.5,1.5,0,0,0,1.44-.29c.2-.18.5-.24.69-.42a2.33,2.33,0,0,0,.7-.81c.46-1.28.88-1.6,2.26-1.6s1.92.29,2.32,1.59a1.13,1.13,0,0,0,.76.86,1.63,1.63,0,0,1,.59.33,1.64,1.64,0,0,0,1.63.32,1.63,1.63,0,0,1,2,.93C26,28.8,26.21,29.33,26.51,29.93Zm-1.7-.08c-.45-.32-.81-.76-1-.69A2.65,2.65,0,0,1,21,28.47a1,1,0,0,0-.42-.22,1.84,1.84,0,0,1-1.48-1.65A.6.6,0,0,0,18.4,26c-.45,0-.6.2-.67.58a1.89,1.89,0,0,1-1.47,1.66,2.25,2.25,0,0,0-1,.59,1.61,1.61,0,0,1-1.81.38,1,1,0,0,0-.53-.09,1,1,0,0,0-.51.41c-.09.15-.11.5,0,.57a2.43,2.43,0,0,1,.84,2.73.81.81,0,0,0,0,.41,2.07,2.07,0,0,1-.75,2.35.87.87,0,0,0-.09.69.51.51,0,0,0,.77.38,1.92,1.92,0,0,1,2.29.47.7.7,0,0,0,.29.19,2.52,2.52,0,0,1,2.06,2.47c.47-.13,1,.3,1.16-.38a2.28,2.28,0,0,1,1.79-2,.69.69,0,0,0,.3-.17A2.52,2.52,0,0,1,24,36.74s.09,0,.15-.05l.47-.82c-1.1-.71-1.17-1.73-1.15-2.95S23.5,30.68,24.81,29.85Z"/><path class="cls-1" d="M51.63,40c-1,.51-1.5.48-1.79,0s-.05-1,.8-1.46,1.43-.88,2.16-1.29a.91.91,0,0,1,1.48.58c.25.82.48,1.66.72,2.48s.14,1.32-.39,1.52-1-.06-1.34-1l-.33.68c-4,8-10.35,12.86-19.17,14.34a24.36,24.36,0,0,1-14.92-2.2,1.69,1.69,0,0,1-.76-.78.87.87,0,0,1,.32-.8,1.33,1.33,0,0,1,1-.07c1.54.52,3,1.23,4.6,1.65a23.65,23.65,0,0,0,27.39-13C51.47,40.48,51.52,40.32,51.63,40Z"/><path class="cls-2" d="M36.7,29.18a5.57,5.57,0,1,1,5.56-5.6A5.56,5.56,0,0,1,36.7,29.18Zm-3.83-5.57a3.78,3.78,0,0,0,3.8,3.81,3.81,3.81,0,1,0-3.8-3.81Z"/><path class="cls-2" d="M21.84,32.94a3.45,3.45,0,1,1-3.43-3.49A3.46,3.46,0,0,1,21.84,32.94Zm-1.77,0a1.69,1.69,0,0,0-1.68-1.69,1.69,1.69,0,1,0,0,3.38A1.68,1.68,0,0,0,20.07,32.91Z"/></svg>