<svg id="Layer_1" data-name="Layer 1" xmlns="http://www.w3.org/2000/svg" viewBox="0 0 65 65"><defs><style>.cls-1{fill:#190f2d;}</style></defs><path class="cls-1" d="M59.47,53c.44,0,.78,0,1.12,0a.71.71,0,0,1,.8.77c0,.72,0,1.44,0,2.16a2.75,2.75,0,0,1-2.62,2.58H6.61c-1.66,0-2.82-.79-3.05-2.22a12.09,12.09,0,0,1,0-2.69c0-.22.42-.51.69-.59A4.65,4.65,0,0,1,5.4,53V19.63c0-2.16,1.08-3.25,3.24-3.25,4.26,0,8.53,0,12.79,0a2,2,0,0,0,1-.25,1,1,0,0,0,.4-.61,3.35,3.35,0,0,1,3.05-3.11.89.89,0,0,0,.82-.53,7.93,7.93,0,0,1,7.68-4.2,7.87,7.87,0,0,1,7.25,5.4,10.28,10.28,0,0,1,.48,2.28c.11.69.4,1,1.11,1,.34,0,.68,0,1,0H56.34a2.84,2.84,0,0,1,3.13,3.12V53Zm-49.1-31.7V49.49H54.52V21.33H45.13a4.92,4.92,0,0,1-3.9,4.11,18.21,18.21,0,0,1-2.87.16l-.69,0v4.42c.77.11,1.36.16,1.82-.69a2.37,2.37,0,0,1,2.8-.94,2.56,2.56,0,0,1,.08,4.85,2.29,2.29,0,0,1-2.82-.85,1.64,1.64,0,0,0-1.89-.87,3.25,3.25,0,0,1-.54,0c-.7,0-.93-.24-.93-.95,0-1.23,0-2.45,0-3.67V25.64h-3c0,.79,0,1.53,0,2.26a.63.63,0,0,0,.41.69,2.51,2.51,0,0,1,1.33,3,2.58,2.58,0,0,1-2.51,1.87,2.56,2.56,0,0,1-1.15-4.82c.19-.11.45-.29.46-.45,0-.83,0-1.67,0-2.53h-3c0,.19,0,.34,0,.5,0,1.48,0,3,0,4.45,0,.73-.23,1-1,1a10.84,10.84,0,0,1-1.14,0,.87.87,0,0,0-1,.57,2.47,2.47,0,0,1-3.15,1.11,2.56,2.56,0,0,1,.68-4.91,2.57,2.57,0,0,1,2.51,1.31c.11.18.28.41.46.45a6.25,6.25,0,0,0,1.15,0V25.59c-.81,0-1.58,0-2.36,0A5,5,0,0,1,20,22.24c-.1-.29-.17-.6-.27-.92ZM58,53a4.07,4.07,0,0,0,0-.46V19.38a1.39,1.39,0,0,0-1.56-1.55H44.81c-.12,0-.25,0-.37,0l.76,2h9.68C55.82,19.86,56,20,56,21v28.9c0,.91-.19,1.1-1.09,1.1H10c-.9,0-1.09-.19-1.09-1.08v-29c0-.89.19-1.07,1.1-1.07h9.7l.76-2H8.53c-1.2,0-1.69.5-1.69,1.73V53ZM32.41,24.15h3c1.57,0,3.13,0,4.69,0a3.55,3.55,0,0,0,1.2-6.92,1,1,0,0,1-.65-1.07,6.8,6.8,0,0,0-13-3,1.06,1.06,0,0,1-1.23.75,1.87,1.87,0,0,0-2.15,2.2,1,1,0,0,1-.77,1.19,3.52,3.52,0,0,0-2.36,3.31,3.6,3.6,0,0,0,3.77,3.6C27.41,24.17,29.91,24.15,32.41,24.15ZM59.9,54.5h-55c0,.47,0,.91,0,1.35A1.27,1.27,0,0,0,6,57.05a4.73,4.73,0,0,0,.84,0q25.38,0,50.75,0c2.25,0,2.47-.61,2.35-2.51C59.94,54.58,59.93,54.57,59.9,54.5ZM23.36,29.74a1.12,1.12,0,0,0,0,2.24,1.12,1.12,0,1,0,0-2.24Zm10.17,1.17A1.1,1.1,0,1,0,32.4,32,1.1,1.1,0,0,0,33.53,30.91Zm7.95-1.17a1.12,1.12,0,1,0,1.15,1.08A1.16,1.16,0,0,0,41.48,29.74Z"/><path class="cls-1" d="M36.06,43v4.1c0,1-.17,1.15-1.15,1.15h-5c-.85,0-1.05-.2-1.05-1.07V43H26.46c-.41,0-.82,0-1-.44s.1-.75.39-1l5.89-5.83c.57-.56.86-.57,1.42,0L39,41.46c.29.29.61.56.41,1s-.6.45-1,.45ZM32.5,37l-4.38,4.52,0,0,1.2,0c.72,0,1,.26,1,1,0,1.2,0,2.4,0,3.6,0,.21,0,.42,0,.61h4.34c0-1.44,0-2.84,0-4.24,0-.7.26-.95.94-1h1.31Z"/><path class="cls-1" d="M32.48,15a8.23,8.23,0,0,1,6.92,3.77c.36.53.33.95,0,1.21s-.78.14-1.14-.39a6.82,6.82,0,0,0-11.5,0c-.28.4-.59.68-1.09.4s-.47-.67-.12-1.19A8.23,8.23,0,0,1,32.48,15Z"/><path class="cls-1" d="M32.49,17.91a5.32,5.32,0,0,1,4.41,2.38c.29.4.38.8-.06,1.16s-.77.14-1.11-.32a3.88,3.88,0,0,0-6.52,0c-.35.46-.76.59-1.11.32s-.36-.75-.07-1.16A5.29,5.29,0,0,1,32.49,17.91Z"/><path class="cls-1" d="M32.45,20.86a2.42,2.42,0,0,1,2,1A.71.71,0,0,1,34.33,23a.7.7,0,0,1-1-.15c-.65-.68-1-.67-1.73,0a.71.71,0,1,1-1.11-.9A2.45,2.45,0,0,1,32.45,20.86Z"/></svg>