<svg id="Layer_1" data-name="Layer 1" xmlns="http://www.w3.org/2000/svg" viewBox="0 0 65 65"><defs><style>.cls-1{fill:blue;}.cls-2{fill:#f3f945;}</style></defs><path class="cls-1" d="M7.43,39.18c0,2.61,0,5.17,0,7.73a2.26,2.26,0,0,0,2.37,2.14h7.57c1.13,0,1.46.42,1.14,1.51a5.47,5.47,0,0,0,3.83,7,5.28,5.28,0,0,0,5.36-1.45,5.43,5.43,0,0,0,1.43-5.53c-.34-1.19,0-1.63,1.22-1.63h7.41c.41,0,.7.18.7.62s-.29.58-.68.59H30.31c.72,3.3-.15,6-3,7.75A6.33,6.33,0,0,1,20,57.69c-2.59-1.79-3.46-4.34-2.74-7.5h-.6c-2.21,0-4.42,0-6.62,0a3.54,3.54,0,0,1-3.81-3.82c0-2.45,0-4.9,0-7.35,0-1.11.44-1.43,1.53-1.09A5.58,5.58,0,0,0,14,29.46a5.54,5.54,0,0,0-6.1-2.25l-.38.11a.94.94,0,0,1-1.32-.91c0-2.7-.06-5.39,0-8.08A3.46,3.46,0,0,1,9.87,15H17.3c-.72-3.52.28-6.3,3.48-8a6.25,6.25,0,0,1,7.07.63C30.27,9.43,31,11.93,30.31,15h7.17c.17,0,.38,0,.49,0s.47.39.47.58a.83.83,0,0,1-.48.56,2.28,2.28,0,0,1-.83,0H30.28c-1.1,0-1.43-.42-1.12-1.46a5.48,5.48,0,0,0-3.88-7A5.29,5.29,0,0,0,20,9.13a5.41,5.41,0,0,0-1.43,5.52c.34,1.19,0,1.63-1.23,1.63-2.45,0-4.9,0-7.35,0a2.35,2.35,0,0,0-2.55,2.54v7.34A6.77,6.77,0,0,1,14.2,28a6.54,6.54,0,0,1,1.94,5A6.82,6.82,0,0,1,7.43,39.18Z"/><path class="cls-2" d="M32.77,24.1l2-2c-.14-.3-.36-.77-.57-1.25A1.61,1.61,0,0,1,35,18.48c.88-.43,1.75-.84,2.64-1.24a1.66,1.66,0,0,1,2.37.87c.21.44.31,1.06.65,1.27s.93-.06,1.41-.05c1,0,2.09,0,3.13.11a.56.56,0,0,0,.7-.41,8.78,8.78,0,0,1,.52-1.12,1.54,1.54,0,0,1,2.08-.75c1,.45,2,.91,3,1.4a1.56,1.56,0,0,1,.81,2c-.15.44-.36.87-.49,1.31a.66.66,0,0,0,.12.56c.46.51,1,1,1.46,1.46a.56.56,0,0,0,.47.1c.4-.15.78-.36,1.17-.53a1.57,1.57,0,0,1,2.28.83Q58,25.62,58.64,27a1.61,1.61,0,0,1-.87,2.32l-1.28.61v5.12l1.34.63A1.6,1.6,0,0,1,58.66,38c-.42.93-.84,1.87-1.27,2.8a1.59,1.59,0,0,1-2.33.89c-.46-.2-1-.61-1.38-.54s-.71.64-1.07,1-.58.53-.9.83c.21.45.42.9.62,1.36a1.64,1.64,0,0,1-.86,2.41c-.91.44-1.82.86-2.74,1.28a1.55,1.55,0,0,1-2.17-.75l0,0c-.25-.49-.39-1.21-.79-1.42s-1.08.1-1.64.1c-1,0-1.9-.06-2.84-.14-.33,0-.52,0-.64.34a12.22,12.22,0,0,1-.54,1.16A1.56,1.56,0,0,1,38,48c-1-.45-2-.91-3-1.39a1.56,1.56,0,0,1-.8-2.15c.23-.51.47-1,.65-1.41l-2-2-1.37.6a1.6,1.6,0,0,1-2.31-.87c-.43-.9-.84-1.8-1.24-2.7a1.66,1.66,0,0,1,.9-2.4c.42-.2,1-.3,1.22-.63s-.05-.85,0-1.29c0-1.1,0-2.21.11-3.3,0-.34,0-.51-.35-.64a8.59,8.59,0,0,1-1.07-.49,1.56,1.56,0,0,1-.84-2.14c.44-1,.92-2,1.42-3.05a1.56,1.56,0,0,1,2.07-.7C31.85,23.66,32.37,23.92,32.77,24.1ZM50.32,42.73c1-1,1.86-1.94,2.73-2.89a.44.44,0,0,1,.62-.13c.6.31,1.22.57,1.81.88.43.22.7.14.89-.3.4-.86.8-1.73,1.22-2.58.22-.44.08-.7-.34-.89-.61-.27-1.21-.59-1.82-.85a.43.43,0,0,1-.29-.6,12,12,0,0,0,0-5.5.47.47,0,0,1,.32-.64c.62-.27,1.22-.57,1.83-.85a.55.55,0,0,0,.3-.86c-.42-.87-.83-1.75-1.24-2.63a.52.52,0,0,0-.81-.29c-.62.31-1.24.61-1.87.88a.58.58,0,0,1-.52,0c-.95-.95-1.86-1.93-2.83-2.95.29-.61.61-1.33,1-2,.22-.43.16-.72-.31-.94-.88-.4-1.75-.82-2.62-1.26a.55.55,0,0,0-.86.3c-.29.63-.6,1.24-.88,1.87-.11.27-.24.38-.55.3a11.62,11.62,0,0,0-5.65,0,.41.41,0,0,1-.56-.28c-.27-.62-.59-1.21-.86-1.83-.2-.46-.49-.55-.94-.33-.82.4-1.65.79-2.48,1.16-.49.22-.56.52-.32,1,.35.7.67,1.41.84,1.76l-3.18,3.26c-.46-.21-1.19-.54-1.9-.9a.55.55,0,0,0-.86.29c-.41.88-.82,1.76-1.24,2.64a.53.53,0,0,0,.3.81c.63.29,1.24.61,1.88.89a.42.42,0,0,1,.29.59,12.14,12.14,0,0,0,0,5.56.41.41,0,0,1-.27.56c-.6.26-1.18.55-1.77.83s-.64.45-.38,1c.37.8.74,1.59,1.12,2.38.29.6.42.65,1.05.36l2-.93c1,1,2,1.88,2.94,2.81a.56.56,0,0,1,.07.51c-.25.6-.55,1.19-.83,1.78s-.25.72.33,1c.83.4,1.67.77,2.49,1.17a.57.57,0,0,0,.9-.3c.28-.63.57-1.26.9-1.87a.59.59,0,0,1,.48-.27,12.7,12.7,0,0,0,5.72,0,.59.59,0,0,1,.5.24c.34.63.63,1.27.92,1.92a.54.54,0,0,0,.82.3L51,45.6c.42-.19.48-.45.27-.85C50.93,44.05,50.61,43.34,50.32,42.73Z"/><path class="cls-1" d="M52.22,32.55a9,9,0,1,1-8.92-9A8.95,8.95,0,0,1,52.22,32.55Zm-9,7.77a7.77,7.77,0,1,0-7.77-7.76A7.77,7.77,0,0,0,43.25,40.32Z"/></svg>