<svg id="Layer_1" data-name="Layer 1" xmlns="http://www.w3.org/2000/svg" viewBox="0 0 65 65"><defs><style>.cls-1{fill:#190f2d;}</style></defs><path class="cls-1" d="M30.05,21.29h9.64c0-.58,0-1.13,0-1.67A2.11,2.11,0,0,1,42,17.37c1.69,0,3.39,0,5.08,0a2.11,2.11,0,0,1,2.29,2.28v5.08A2.11,2.11,0,0,1,47.08,27c-1.71,0-3.42,0-5.14,0a2.12,2.12,0,0,1-2.25-2.28V23.08h-9.6V33.67h9.6V32.09A2.14,2.14,0,0,1,42,29.77h5a2.11,2.11,0,0,1,2.3,2.28v5.08a2.13,2.13,0,0,1-2.25,2.28c-1.71,0-3.42,0-5.14,0a2.14,2.14,0,0,1-2.25-2.28c0-.55,0-1.09,0-1.67H30.05v1c0,1-.26,1.24-1.23,1.24h-12v8.37h22.9V44.6a2.19,2.19,0,0,1,2.47-2.44H47a2.15,2.15,0,0,1,2.35,2.36v5a2.12,2.12,0,0,1-2.26,2.26c-1.71,0-3.43,0-5.14,0a2.12,2.12,0,0,1-2.24-2.22c0-.55,0-1.09,0-1.73H16.41c-1.18,0-1.38-.2-1.38-1.39V37.72H2.94c-1,0-1.23-.26-1.23-1.24V3.25C1.71,2.24,2,2,3,2H19.76a3.41,3.41,0,0,1,2.56,1.06Q25.64,6.41,29,9.72a3.4,3.4,0,0,1,1.07,2.56c0,2.76,0,5.51,0,8.27ZM3.44,36H28.29c0-.2,0-.38,0-.56q0-11.56,0-23.13a1.44,1.44,0,0,0-1.61-1.63H22.5c-.77,0-1.07-.31-1.08-1.08V5.46c0-1.21-.55-1.75-1.77-1.75H3.44Zm41.13-4.49c-.84,0-1.67,0-2.51,0-.48,0-.66.21-.66.66,0,1.63,0,3.26,0,4.9,0,.45.18.67.65.67,1.66,0,3.31,0,5,0,.43,0,.62-.19.62-.64,0-1.65,0-3.3,0-5,0-.49-.22-.65-.67-.64C46.16,31.49,45.37,31.48,44.57,31.48Zm3,15.55c0-.82,0-1.64,0-2.45,0-.49-.16-.71-.67-.71q-2.45,0-4.89,0c-.47,0-.67.19-.67.66q0,2.44,0,4.89c0,.45.16.68.65.67q2.48,0,5,0c.44,0,.63-.17.63-.62C47.61,48.66,47.62,47.84,47.62,47Zm0-24.85c0-.81,0-1.63,0-2.44,0-.47-.17-.67-.64-.66q-2.48,0-5,0c-.44,0-.64.18-.63.62v4.95c0,.43.17.63.62.63q2.47,0,4.95,0c.46,0,.66-.17.65-.65C47.61,23.81,47.62,23,47.62,22.18ZM25.51,8.9,23.17,6.53V8.9Z"/><path class="cls-1" d="M5.32,44.13c-.22.83-.4,1.53-.6,2.23s-.6,1-1.15.79-.68-.58-.5-1.25c.41-1.56.82-3.11,1.25-4.66.22-.79.71-1,1.44-.63,1.42.74,2.85,1.49,4.27,2.25.6.32.78.76.54,1.24s-.73.58-1.36.26L6.78,43.09c.24.54.39.92.58,1.29C11.67,53,18.54,58.34,28,59.8c10.1,1.55,18.68-1.72,25.55-9.34.68-.75,1.11-.9,1.57-.48s.39.86-.29,1.63C48.71,58.55,41,62.21,31.73,61.86c-12-.45-20.72-6.32-26.09-17.1Z"/><path class="cls-1" d="M60.8,25.34c.33-.81.61-1.51.9-2.2s.66-.8,1.14-.62a.85.85,0,0,1,.44,1.26q-.9,2.28-1.83,4.53c-.32.76-.84.93-1.5.47-1.35-.92-2.68-1.86-4-2.8a.86.86,0,0,1-.35-1.25.89.89,0,0,1,1.34-.14l2.29,1.58c-.12-.4-.17-.66-.26-.9-3.69-10.61-11.08-17-22.09-19.09A23.65,23.65,0,0,0,29.49,6c-.52.06-1,0-1.21-.56s.16-1.06.83-1.13a26.87,26.87,0,0,1,9.42.46q16.61,3.95,22.1,20.13C60.67,25,60.71,25.12,60.8,25.34Z"/><path class="cls-1" d="M59.9,43.05a4.46,4.46,0,0,1-.19.64c-.46,1-.91,2-1.39,2.91a.87.87,0,1,1-1.52-.78L58.16,43c.2-.41.53-.7,1-.54A2.8,2.8,0,0,1,59.9,43.05Z"/><path class="cls-1" d="M61.66,35.69c-.1.72-.22,1.73-.37,2.73-.11.64-.53,1-1,.87s-.73-.49-.66-1.12c.12-1,.25-1.94.37-2.91.07-.6.41-.94.92-.9S61.7,34.8,61.66,35.69Z"/><path class="cls-1" d="M15.88,33.07h-1a1.42,1.42,0,0,1-1.6-1.33A1.49,1.49,0,0,0,11,30.8a1.4,1.4,0,0,1-2.07-.19c-.51-.5-1-1-1.52-1.51a1.37,1.37,0,0,1-.18-2,1.5,1.5,0,0,0-1-2.32A1.37,1.37,0,0,1,5,23.22c0-.74,0-1.47,0-2.21a1.32,1.32,0,0,1,1.15-1.43A1.77,1.77,0,0,0,7.57,18a1.1,1.1,0,0,0-.25-.59c-.63-1-.6-1.45.22-2.26l1.38-1.38a1.38,1.38,0,0,1,2-.22,1.49,1.49,0,0,0,2.31-1,1.39,1.39,0,0,1,1.53-1.26H17a1.36,1.36,0,0,1,1.5,1.22c.07.28.11.68.31.81a4.17,4.17,0,0,0,1.34.55c.16,0,.4-.16.58-.28a1.44,1.44,0,0,1,2.17.2l1.38,1.38a1.42,1.42,0,0,1,.23,2.12c-.13.21-.35.49-.3.68a4.56,4.56,0,0,0,.61,1.39c.12.17.53.16.8.22A1.34,1.34,0,0,1,26.77,21c0,.82,0,1.63,0,2.45s-.45,1.23-1.39,1.43A1.52,1.52,0,0,0,24.46,27a1.43,1.43,0,0,1-.23,2.21c-.48.49-1,1-1.47,1.47a1.38,1.38,0,0,1-1.88.19c-.25-.16-.56-.41-.79-.37a4,4,0,0,0-1.35.56c-.15.09-.17.43-.23.66a1.42,1.42,0,0,1-1.65,1.34ZM23,16.52,21.59,15c-.84,1-1.77.65-2.78.22s-2-.79-1.92-2.2h-2a1.89,1.89,0,0,0-.1.32A1.59,1.59,0,0,1,13.49,15a1.88,1.88,0,0,0-.39.16c-1,.47-2,1-2.92-.12L8.69,16.43c1,.86.77,1.83.24,2.81a.08.08,0,0,0,0,.05c-.35,1.06-.77,2-2.16,1.87v2.05C8.11,23.05,8.49,24,8.9,25s.92,2-.18,2.89l1.36,1.4c1.43-.77,1.43-.77,3-.12l.11.05a2,2,0,0,1,1.74,2s.06.09.08.14H16.9c-.14-1.39.79-1.84,1.86-2.17l.17-.07a2,2,0,0,1,2.67.18s.08,0,.09,0l1.39-1.34c-1.15-.89-.64-1.86-.23-2.91s.83-1.85,2.07-1.87c0,0,.07,0,.14-.09,0-.42,0-.87,0-1.31,0-.16,0-.32,0-.44a4.44,4.44,0,0,1-1.51-.64,6,6,0,0,1-.74-1.52C22.29,18.2,22,17.28,23,16.52Z"/><path class="cls-1" d="M9.89,22.17a6,6,0,1,1,6,6A6,6,0,0,1,9.89,22.17Zm1.72,0a4.28,4.28,0,1,0,8.56,0,4.28,4.28,0,1,0-8.56,0Z"/></svg>