<svg id="Layer_1" data-name="Layer 1" xmlns="http://www.w3.org/2000/svg" viewBox="0 0 65 65"><defs><style>.cls-1{fill:#190f2d;}</style></defs><path class="cls-1" d="M9,50.08H55.9v-.76c0-7-.06-14,0-21.07,0-2.42-1.47-4.19-4.39-3.73v2.39c0,.84,0,1.67,0,2.5,0,.53-.25.83-.78.84s-1.21,0-1.81,0-.78-.24-.77-.71.33-.73.82-.72h1V24.45H46c-.31,0-.62,0-.94,0a.69.69,0,0,1-.77-.71c0-.49.31-.71.76-.74s.87,0,1.31,0H50.1V19.38c0-.46,0-.91,0-1.37a.72.72,0,0,1,.82-.8c.87,0,1.74,0,2.61,0a.54.54,0,0,0,.63-.43,3.61,3.61,0,0,1,4.19-2.41,3.63,3.63,0,0,1-.42,7.17,3.61,3.61,0,0,1-3.75-2.41.6.6,0,0,0-.71-.49c-.61,0-1.24,0-1.9,0V23h1.06a4.63,4.63,0,0,1,4.72,4.81c0,1.6,0,3.2,0,4.81q0,9.95,0,19.89a4.59,4.59,0,0,1-3.44,4.69,6.1,6.1,0,0,1-1.48.16c-3.26,0-6.52,0-9.79,0h-.72v4.36h2.58c.87,0,1.23.2,1.23.71s-.36.72-1.21.72H20c-.52,0-.88-.2-.87-.74s.37-.7.86-.69H23V57.36H12.48a4.64,4.64,0,0,1-5-4.94V28a4.65,4.65,0,0,1,5-5h.79V18.65c-.74,0-1.49,0-2.22,0-.15,0-.32.32-.4.53a3.67,3.67,0,0,1-3.62,2.34,3.63,3.63,0,0,1-.76-7.11,3.55,3.55,0,0,1,4.32,2.13.83.83,0,0,0,1,.65c.74,0,1.49,0,2.24,0s.92.22.93.94c0,1.37,0,2.74,0,4.12V23h4.57c.88,0,1.26.24,1.24.76s-.37.7-1.23.7H14.82v4.37h1.07a.69.69,0,0,1,.81.67c0,.51-.31.75-.8.77H14.22c-.66,0-.88-.25-.88-.93,0-1.37,0-2.75,0-4.12v-.66C10.38,24,8.93,26,9,28,9,35.1,9,42.25,9,49.4Zm47,1.5H9a10.53,10.53,0,0,0,0,1.78A3.13,3.13,0,0,0,12.4,55.9h39c.48,0,1,0,1.44,0a3,3,0,0,0,2.9-2.3A12.84,12.84,0,0,0,55.94,51.58ZM24.5,57.39v4.28H40.38V57.39ZM59.76,17.93a2.18,2.18,0,0,0-2.16-2.19,2.23,2.23,0,0,0-2.19,2.18,2.2,2.2,0,0,0,2.18,2.17A2.15,2.15,0,0,0,59.76,17.93ZM7.25,20.09a2.18,2.18,0,1,0-2.14-2.2A2.16,2.16,0,0,0,7.25,20.09Z"/><path class="cls-1" d="M22.4,23.54c-.39-.51-.84-1.11-1.31-1.69a.78.78,0,0,1,.08-1.2c.81-.78,1.6-1.57,2.38-2.38a.83.83,0,0,1,1.26-.07c.61.48,1.18,1.21,1.85,1.32s1.34-.58,2.05-.74a1.13,1.13,0,0,0,1-1.29c0-.49.13-1,.18-1.48a.75.75,0,0,1,.82-.75h3.5a.78.78,0,0,1,.84.8c.08.66.14,1.33.27,2a.87.87,0,0,0,.42.55c.69.32,1.41.61,2.13.86a.93.93,0,0,0,.7-.06c.55-.37,1.06-.8,1.59-1.21a.8.8,0,0,1,1.21.08l2.38,2.38a.8.8,0,0,1,0,1.21l-1.31,1.69c.42,1,.8,1.91,1.21,2.81a.72.72,0,0,0,.48.35c.59.12,1.19.18,1.79.25a.77.77,0,0,1,.76.82c0,1.17,0,2.33,0,3.5a.75.75,0,0,1-.74.83,8.63,8.63,0,0,1-1.23.16c-.58,0-.8.23-1,.79a14.16,14.16,0,0,1-.9,2.31.66.66,0,0,0,.09.83c.31.34.57.72.85,1.08a.76.76,0,0,1-.07,1.11c-.82.83-1.64,1.65-2.47,2.47a.7.7,0,0,1-1.1,0,1.89,1.89,0,0,0-2.87-.25,5.73,5.73,0,0,1-1.68.63.59.59,0,0,0-.48.6c-.26,2,0,1.93-2.17,1.91-.74,0-1.49,0-2.24,0-.53,0-.92-.26-.88-.75.11-1.37-.63-1.91-1.83-2.18a4.64,4.64,0,0,1-1.5-.73.7.7,0,0,0-1,.09c-1.56,1.25-1.38,1.24-2.78-.18-.53-.53-1.05-1.07-1.59-1.58s-.53-.85-.09-1.25a2,2,0,0,0,.38-2.93,2,2,0,0,1-.35-1c0-.89-.6-1-1.31-1.09-2-.12-1.64-.41-1.66-1.88,0-.83,0-1.66,0-2.49A.79.79,0,0,1,19,27c.57-.06,1.15-.13,1.72-.24a.77.77,0,0,0,.48-.36C21.61,25.45,22,24.53,22.4,23.54ZM42.31,37.7l-1-1.26a1,1,0,0,1-.09-1.09c.5-1.18,1-2.38,1.36-3.59a1,1,0,0,1,.95-.81,11.09,11.09,0,0,0,1.29-.16c.16,0,.39-.22.4-.34,0-.7,0-1.4,0-2.11-.7-.09-1.32-.2-1.94-.25s-.73-.33-.91-.78C42,26.24,41.5,25.18,41,24.15A.93.93,0,0,1,41,23c.44-.55.86-1.11,1.23-1.59l-1.69-1.75c-.52.41-1.07.82-1.6,1.26a1.09,1.09,0,0,1-1.31.12,31.07,31.07,0,0,0-3-1.2,1,1,0,0,1-.75-.86c-.07-.74-.19-1.48-.29-2.24h-2.4c-.1.75-.21,1.46-.28,2.18a1,1,0,0,1-.82.94A23,23,0,0,0,27.25,21a1.1,1.1,0,0,1-1.36-.1c-.54-.45-1.1-.86-1.63-1.27l-1.71,1.69c.43.57.85,1.13,1.29,1.68a.9.9,0,0,1,.06,1.08c-.52,1.06-1,2.13-1.46,3.22a1,1,0,0,1-.93.77c-.63.06-1.26.17-1.87.25v2.39l1.69.22a1,1,0,0,1,.93.82c.39,1.2.85,2.37,1.34,3.53a1,1,0,0,1-.11,1.2c-.33.39-.63.81-.89,1.16l1.66,1.76.94-.73c.73-.56.81-.5,1.6-.09A23.94,23.94,0,0,0,29.92,40c1,.35,1,.29,1.17,1.37s.14,1,1.13,1c1.41,0,1.42,0,1.59-1.41a.87.87,0,0,1,.73-.87,10.13,10.13,0,0,0,3.76-1.6.84.84,0,0,1,1.13,0l1.15.89Z"/><path class="cls-1" d="M47,9.46a14.35,14.35,0,0,1,1.51-2.05,3.51,3.51,0,0,1,4.23-.3A3.63,3.63,0,0,1,51,13.81a3.55,3.55,0,0,1-3.52-2.28.82.82,0,0,0-1-.64,18.74,18.74,0,0,1-2.12,0c-.44,0-.58.13-.57.57,0,1.66,0,3.32,0,5a5.43,5.43,0,0,1,0,.57.66.66,0,0,1-.69.66.67.67,0,0,1-.72-.7c0-.91,0-1.83,0-2.74q0-1.9,0-3.81c0-.74.21-.95,1-.95Zm3.78,2.89a2.18,2.18,0,1,0-2.14-2.2A2.18,2.18,0,0,0,50.79,12.35Z"/><path class="cls-1" d="M17.64,9.46h3.81c.83,0,1,.2,1,1v6.36c0,.5-.24.82-.74.81s-.69-.32-.69-.79v-.5c0-1.6,0-3.2,0-4.8,0-.57-.17-.71-.71-.68-.7,0-1.41,0-2.12,0a.67.67,0,0,0-.79.54,3.61,3.61,0,0,1-7-1,3.62,3.62,0,0,1,7-1.53C17.5,9,17.56,9.24,17.64,9.46Zm-1.42.75A2.18,2.18,0,1,0,14,12.35,2.18,2.18,0,0,0,16.22,10.21Z"/><path class="cls-1" d="M33.17,8.93v3.84c0,.66-.26,1-.72,1s-.74-.37-.75-1V9c-2.2-.89-3.21-2.43-2.83-4.28A3.63,3.63,0,0,1,36,4.78C36.33,6.6,35.3,8.13,33.17,8.93ZM34.6,5.36a2.17,2.17,0,1,0-2.19,2.15A2.14,2.14,0,0,0,34.6,5.36Z"/><path class="cls-1" d="M32.45,23.47A6.48,6.48,0,1,1,26,29.91,6.49,6.49,0,0,1,32.45,23.47Zm5,6.49a5,5,0,1,0-5.06,5A5,5,0,0,0,37.44,30Z"/></svg>