<svg id="Layer_1" data-name="Layer 1" xmlns="http://www.w3.org/2000/svg" viewBox="0 0 65 65"><defs><style>.cls-1{fill:#190f2d;}</style></defs><path class="cls-1" d="M63,44.9c-.59,1.69-1.8,2.26-3.53,2.25-11,0-22,0-33,0-.58,0-.81.12-.87.75-.14,1.68-.4,3.34-.61,5.06H40.05c-.11-1-.24-1.87-.31-2.8A.84.84,0,0,1,41,49.29a1.39,1.39,0,0,1,.49.82c.14.71.19,1.45.28,2.17,0,.22.07.43.11.7h2.69c.79,0,1.22.32,1.21.9s-.44.88-1.19.88H20.4a2.08,2.08,0,0,1-.35,0,.91.91,0,0,1-.83-.92.87.87,0,0,1,.9-.84c1,0,2,0,3,0l.73-5.85H5.28c-2.13,0-3.23-1.09-3.23-3.21V18a2.86,2.86,0,0,1,3.16-3.17q27.1,0,54.22,0c1.74,0,3,.57,3.52,2.26ZM3.84,41.5l.41,0c1.13,0,2.26,0,3.39,0a.88.88,0,0,1,1,.84.89.89,0,0,1-.95.93c-.37,0-.75,0-1.13,0H3.84c0,.38,0,.68,0,1,0,.73.46,1.06,1.35,1.06H59.83a1.08,1.08,0,0,0,.58-.07,1.78,1.78,0,0,0,.69-.73,4.16,4.16,0,0,0,0-1.23h-49a3.82,3.82,0,0,1-.83-.06.8.8,0,0,1-.67-.86.82.82,0,0,1,.77-.84,6.52,6.52,0,0,1,.77,0h49V18c0-1.09-.32-1.4-1.43-1.4H5.27c-1.13,0-1.43.31-1.43,1.45V41.5Z"/><path class="cls-1" d="M29.84,35.38c.12.66.23,1.19.32,1.73a.89.89,0,0,1-.65,1.15.87.87,0,0,1-1.07-.76c-.35-1.66-.7-3.33-1-5-.14-.74.42-1.19,1.25-1,1.2.23,2.4.5,3.6.75.42.09.85.17,1.27.28a.9.9,0,0,1,.71,1,.88.88,0,0,1-1.06.71A17.93,17.93,0,0,0,31,33.92c.18.16.37.33.56.48a11.06,11.06,0,0,0,17.26-5.65,4.28,4.28,0,0,1,.15-.51.84.84,0,0,1,1-.51.79.79,0,0,1,.65.92,5.6,5.6,0,0,1-.32,1.2,12.82,12.82,0,0,1-19.82,6Z"/><path class="cls-1" d="M35.13,22.26c-.16-.64-.31-1.19-.44-1.74a.91.91,0,0,1,.62-1.17.9.9,0,0,1,1.11.73c.41,1.61.82,3.22,1.21,4.84.19.79-.25,1.3-1.06,1.18-1.66-.24-3.32-.51-5-.8a.84.84,0,0,1-.77-1.05.87.87,0,0,1,1.08-.68c.73.1,1.47.22,2.21.28a10,10,0,0,0-5.45-2.37A11,11,0,0,0,16.51,30c-.13.5-.33.9-.92.92a.79.79,0,0,1-.84-.61,1.26,1.26,0,0,1,0-.58,12.81,12.81,0,0,1,20-7.69A4.09,4.09,0,0,0,35.13,22.26Z"/><path class="cls-1" d="M10.55,26.14a2.79,2.79,0,0,1-2.78-2.81,2.8,2.8,0,1,1,5.59,0A2.77,2.77,0,0,1,10.55,26.14Zm.1-3.8a1,1,0,0,0-1.09.95,1,1,0,0,0,.9,1.05,1,1,0,0,0,1.11-.9A1,1,0,0,0,10.65,22.34Z"/><path class="cls-1" d="M36.39,30.05a2.79,2.79,0,0,1,2.76-2.83A2.84,2.84,0,0,1,42,30a2.79,2.79,0,0,1-2.78,2.81A2.76,2.76,0,0,1,36.39,30.05Zm3.79,0a1,1,0,0,0-1-1,1,1,0,0,0-1,.95,1,1,0,0,0,1,1.05A1,1,0,0,0,40.18,30.05Z"/><path class="cls-1" d="M25.75,30a2.8,2.8,0,1,1,2.86-2.71A2.76,2.76,0,0,1,25.75,30Zm.09-3.8a1,1,0,0,0-1,1,1,1,0,0,0,1,1,1,1,0,0,0,1-1A1,1,0,0,0,25.84,26.15Z"/><path class="cls-1" d="M51.64,34.8a2.8,2.8,0,1,1,5.59,0,2.8,2.8,0,0,1-5.59,0Zm3.8,0a1,1,0,0,0-1-1,1,1,0,0,0,0,2A1,1,0,0,0,55.44,34.82Z"/><path class="cls-1" d="M49,23.84a11.3,11.3,0,0,1-1-.84.87.87,0,0,1,0-1.23.88.88,0,0,1,1.23,0,5.7,5.7,0,0,1,.43.42l.48.44c.24-.28.45-.58.7-.82a.89.89,0,1,1,1.25,1.26c-.23.24-.49.45-.79.73.28.29.53.53.76.79a.88.88,0,0,1,0,1.32.9.9,0,0,1-1.31-.08c-.23-.22-.43-.46-.82-.88a7.18,7.18,0,0,1-.68.91.89.89,0,1,1-1.24-1.26A11.66,11.66,0,0,1,49,23.84Z"/><path class="cls-1" d="M14.76,36.46a7.12,7.12,0,0,1-.68.84.87.87,0,0,1-1.27,0,.86.86,0,0,1,0-1.27,4.54,4.54,0,0,1,.38-.38c.12-.11.25-.2.58-.45a9.28,9.28,0,0,1-.93-.71.86.86,0,0,1,0-1.31.9.9,0,0,1,1.28,0c.14.12.26.25.39.38l.5.48a8.07,8.07,0,0,1,.65-.86.87.87,0,0,1,1.27,0,.89.89,0,0,1,0,1.28c-.23.24-.51.44-.82.72.31.32.57.56.8.81a.9.9,0,1,1-1.27,1.26l-.38-.38Z"/></svg>