<svg id="Layer_1" data-name="Layer 1" xmlns="http://www.w3.org/2000/svg" viewBox="0 0 65 65"><defs><style>.cls-1{fill:#4dc0b3;}</style></defs><path class="cls-1" d="M63.44,33.4c-.15.6-.27,1.21-.47,1.79A12.3,12.3,0,0,1,58.47,41,30.49,30.49,0,0,1,48,45.94a57.47,57.47,0,0,1-18.13,2A52.5,52.5,0,0,1,14.77,45.2a25.28,25.28,0,0,1-9.65-5.51,9.78,9.78,0,0,1-3.41-7.07,9.36,9.36,0,0,1,2.78-6.55,22,22,0,0,1,7.81-5.2,47.63,47.63,0,0,1,13.8-3.39,60.79,60.79,0,0,1,14.14.14c5.86.75,11.52,2.19,16.6,5.35a13.94,13.94,0,0,1,5.74,6,23,23,0,0,1,.86,2.74ZM10.85,40.76c.1-.36.18-.62.24-.88,1.17-4.63,2.32-9.27,3.49-13.9A1.28,1.28,0,0,1,16,24.86c1.73,0,3.46,0,5.19,0a5.07,5.07,0,0,1,4.88,3.92,6.82,6.82,0,0,1-.37,3.79,7.27,7.27,0,0,1-6.42,5.06c-1.5.09-3,.06-4.52,0a.56.56,0,0,0-.65.51c-.23,1-.46,2-.76,3-.15.52,0,.73.46.93a49.12,49.12,0,0,0,15.33,3.2,58.17,58.17,0,0,0,11.72-.49,41.22,41.22,0,0,0,12.06-3.43,17.49,17.49,0,0,0,6.28-4.58,6.29,6.29,0,0,0,0-8.62,15.77,15.77,0,0,0-4.74-3.77,42.2,42.2,0,0,0-16.72-4.58,58,58,0,0,0-13.23.33,42.52,42.52,0,0,0-12,3.31,17.45,17.45,0,0,0-6.63,4.79c-1.45,1.81-2.16,3.83-1.33,6.12C5.67,37.47,8.15,39.16,10.85,40.76Zm4-5.63c1.43,0,2.77,0,4.11,0a4.74,4.74,0,0,0,4.27-3.28c.12-.36.21-.73.3-1.1A2.58,2.58,0,0,0,21,27.38c-1.22,0-2.45,0-3.68,0-.4,0-.55.15-.64.52-.41,1.74-.85,3.47-1.28,5.2C15.23,33.75,15.07,34.4,14.89,35.13Z"/><path class="cls-1" d="M48.29,24.91a22.6,22.6,0,0,1,3.19,0,5,5,0,0,1,4.34,5.88,7.56,7.56,0,0,1-7.74,6.87c-1.15,0-2.3.05-3.44,0-.68,0-.89.22-1,.83-.21,1.08-.52,2.14-.8,3.21a1.27,1.27,0,0,1-1.59,1.07,1.29,1.29,0,0,1-.84-1.68Q42.28,33.54,44.16,26a1.31,1.31,0,0,1,1.48-1.12h2.65ZM44.48,35.15h1.65A21,21,0,0,0,49.31,35c2.18-.37,3.6-2.06,4-4.55a2.56,2.56,0,0,0-2.52-3.1c-1.32,0-2.65,0-4,0a.66.66,0,0,0-.49.36C45.71,30.17,45.11,32.6,44.48,35.15Z"/><path class="cls-1" d="M32.11,24.86c1.39,0,2.74,0,4.08,0a4.14,4.14,0,0,1,4.13,3.51,7.39,7.39,0,0,1-.17,2.38c-.36,1.93-.78,3.86-1.19,5.78a1.23,1.23,0,0,1-1.55,1.1A1.25,1.25,0,0,1,36.52,36l1.29-6.31A1.76,1.76,0,0,0,36,27.38c-1.26,0-2.53,0-3.8,0-.39,0-.55.11-.62.52-.49,2.78-1,5.56-1.52,8.35l-.06.35a1.25,1.25,0,0,1-1.5,1,1.18,1.18,0,0,1-1-1.48c.3-1.84.65-3.68,1-5.51q.77-4.21,1.54-8.41c.16-.89.77-1.36,1.48-1.22a1.31,1.31,0,0,1,1,1.71l-.27,1.54C32.16,24.43,32.15,24.59,32.11,24.86Z"/></svg>