<svg id="Layer_1" data-name="Layer 1" xmlns="http://www.w3.org/2000/svg" viewBox="0 0 65 65"><defs><style>.cls-1{fill:blue;}.cls-2{fill:#f3f945;}</style></defs><path class="cls-1" d="M23.15,62.55c-11.34.12-20-7.24-21.4-16.8a20.51,20.51,0,0,1,6-18.22C11.9,23.32,16.12,19.14,20.31,15a2.38,2.38,0,0,1,3.79,0l4.16,4.17c1.36,1.36,1.37,2.57,0,3.92C24,27.29,19.79,31.51,15.57,35.76a9.14,9.14,0,0,0-2.11,10.16,8.87,8.87,0,0,0,14.4,2.67c3.72-3.66,7.39-7.37,11.07-11.06l2.13-2.12a2.32,2.32,0,0,1,3.44,0c1.57,1.54,3.11,3.08,4.64,4.65a2.25,2.25,0,0,1,0,3.34c-4.51,4.51-9,9.06-13.55,13.52A19.05,19.05,0,0,1,23.15,62.55ZM37.23,41.06l-.46.43c-2.67,2.68-5.33,5.38-8,8A10.15,10.15,0,0,1,12.47,46.8a10.32,10.32,0,0,1,2-11.74c2.62-2.67,5.28-5.3,7.94-7.94a1.82,1.82,0,0,1,.53-.28l-6.34-6.37a2.25,2.25,0,0,0-.21.17c-2.8,2.81-5.7,5.54-8.39,8.45A18.71,18.71,0,0,0,3.18,46.45,17.73,17.73,0,0,0,15.89,60.37a18.13,18.13,0,0,0,18.66-4.25c3-2.77,5.82-5.76,8.71-8.65a2.3,2.3,0,0,0,.17-.2ZM23.82,25.69c1.3-1.29,2.6-2.56,3.87-3.86a1,1,0,0,0-.11-1.57Q25.32,18,23,15.7a1.06,1.06,0,0,0-1.67,0c-1,1-2,2-3,3-.27.26-.57.49-.82.71ZM44.47,46.26C45.72,45,47,43.73,48.29,42.43a1,1,0,0,0,0-1.47c-1.56-1.59-3.14-3.17-4.72-4.73a1,1,0,0,0-1.44,0c-1.31,1.29-2.6,2.61-3.85,3.87Z"/><path class="cls-1" d="M50.06,27.41a13.57,13.57,0,1,1,13.58-13.5A13.61,13.61,0,0,1,50.06,27.41Zm9.79-6.18a12.25,12.25,0,1,0-19.5,0,10.6,10.6,0,0,1,6.79-6.43,5.42,5.42,0,0,1-1-8,5.32,5.32,0,0,1,7.5-.4,5.1,5.1,0,0,1,1.74,3.47,5.38,5.38,0,0,1-2.35,5A10.63,10.63,0,0,1,59.85,21.23ZM50,26.16a12.5,12.5,0,0,0,8.4-3.25.9.9,0,0,0,.29-1.11,9.08,9.08,0,0,0-17.25.09.79.79,0,0,0,.24.95A12.42,12.42,0,0,0,50,26.16Zm.07-19.92a4,4,0,0,0-4,4.06,4,4,0,1,0,4-4.06Z"/><path class="cls-2" d="M30,18.45c-.16-.16-.44-.33-.46-.52a.9.9,0,0,1,.29-.71,6.41,6.41,0,0,1,1.13-.6l3-1.55c.41-.21.8-.3,1.05.18s-.08.75-.48.95l-4,2.05C30.38,18.32,30.22,18.36,30,18.45Z"/><path class="cls-2" d="M49.06,29.31a4,4,0,0,1-.21.56l-2.05,4c-.21.41-.49.7-1,.44s-.36-.62-.16-1c.7-1.36,1.37-2.74,2.1-4.09a1.05,1.05,0,0,1,.77-.39C48.71,28.85,48.9,29.16,49.06,29.31Z"/><path class="cls-2" d="M50.6,39c-.15-.14-.45-.3-.47-.48a1,1,0,0,1,.31-.75c.58-.37,1.22-.65,1.84-1l2.45-1.24a.61.61,0,0,1,.89.23.58.58,0,0,1-.28.87c-1.44.75-2.9,1.48-4.35,2.21A2.15,2.15,0,0,1,50.6,39Z"/><path class="cls-2" d="M24.84,13.3c.11-.26.16-.44.24-.6.66-1.31,1.34-2.62,2-3.94.22-.43.51-.75,1-.47s.33.67.13,1.06c-.69,1.35-1.35,2.71-2.08,4a1.06,1.06,0,0,1-.77.4C25.2,13.79,25,13.47,24.84,13.3Z"/><path class="cls-2" d="M52.43,32.82a5.33,5.33,0,0,1-.4.55l-3,3c-.31.31-.66.46-1,.12s-.21-.7.1-1c1-1,2-2.07,3.1-3.06a1.18,1.18,0,0,1,.85-.2C52.18,32.28,52.29,32.61,52.43,32.82Z"/><path class="cls-2" d="M31.83,12.1a2.86,2.86,0,0,1-.34.58c-1,1.07-2.11,2.12-3.16,3.17a.62.62,0,0,1-1,.06c-.33-.33-.21-.67.09-1,1-1,2.07-2.09,3.14-3.11a1,1,0,0,1,.75-.22C31.51,11.63,31.65,11.91,31.83,12.1Z"/></svg>