<svg id="Layer_1" data-name="Layer 1" xmlns="http://www.w3.org/2000/svg" viewBox="0 0 65 65"><defs><style>.cls-1{fill:#190f2d;}</style></defs><path class="cls-1" d="M27.25,63.33c-.55-.38-1.1-.75-1.64-1.15A1.89,1.89,0,0,1,25,60.56c0-1.94,0-3.89,0-5.84a.93.93,0,0,1,1-1.07c.57,0,.9.38.9,1.1,0,1.85,0,3.69,0,5.54,0,.93.3,1.23,1.22,1.23H59.88c.93,0,1.22-.29,1.22-1.22V39.64c0-.87-.3-1.19-1.14-1.19H40.39l-.33,0a1.57,1.57,0,0,0-.06.28,2.8,2.8,0,0,1-3,2.65c-3.11,0-6.22,0-9.33,0h-.75v.68c0,2.69,0,5.38,0,8.07a.93.93,0,0,1-1.46.91c-.44-.21-.46-.61-.46-1q0-3.94,0-7.89V41.4h-.72c-6.35,0-12.69,0-19,0a3.22,3.22,0,0,1-3.11-1.91A1.84,1.84,0,0,1,2,38.63C2,31.58,2,24.54,2,17.5a3.05,3.05,0,0,1,2.77-2.8h8.19a.9.9,0,0,1,1,.88c0,.56-.37.91-1,.91H5.18c-1,0-1.3.28-1.3,1.27V31.16A2.67,2.67,0,0,0,4.15,31L6.89,28.4a2.84,2.84,0,0,1,4.18,0c1.31,1.27,2.63,2.52,4,3.82a5.07,5.07,0,0,0,.67-.5q2.09-2,4.14-4l5.25-5.12a15.17,15.17,0,0,1,1.22-1.06,2.87,2.87,0,0,1,3.79.22c1.6,1.54,3.18,3.11,4.78,4.65,1,1,2,1.92,3.11,2.93,0-.19,0-.33,0-.48V17.75c0-.95-.3-1.24-1.28-1.24H17.52c-.67,0-1.05-.36-1-.92s.4-.89,1.07-.89c6.52,0,13.05,0,19.58,0A2.73,2.73,0,0,1,40,17.66q0,9.09,0,18.19v.79h.81c6.35,0,12.69,0,19,0a3.5,3.5,0,0,1,2.33.79A2.56,2.56,0,0,1,63,39.53V50.48c0,3.09-.07,6.19,0,9.28.06,1.81-.57,3-2.31,3.57ZM21,39.6H36.87c.88,0,1.2-.32,1.2-1.2,0-2,0-4,0-6a1.28,1.28,0,0,0-.36-.82c-.92-.94-1.9-1.83-2.84-2.75l-5.72-5.59A2.61,2.61,0,0,0,28.7,23a1,1,0,0,0-1.44.14c-1.8,1.71-3.6,3.42-5.38,5.14s-3.62,3.53-5.42,5.29a1.68,1.68,0,0,1-2.68,0l-4-3.84a1,1,0,0,0-1.64,0c-1.31,1.27-2.63,2.53-3.91,3.82a1.4,1.4,0,0,0-.37.87c0,1.3,0,2.61,0,3.91,0,1.08.27,1.34,1.36,1.34Z"/><path class="cls-1" d="M32.5,1.67H60a2.82,2.82,0,0,1,3,2.46c0,.41,0,.84,0,1.26,0,1.52,0,3.05,0,4.57a2.83,2.83,0,0,1-2.82,2.9c-.22,0-.44,0-.66,0q-27.08,0-54.14,0A3.3,3.3,0,0,1,2.14,11,2.16,2.16,0,0,1,2,10c0-1.84,0-3.69,0-5.53a3.06,3.06,0,0,1,2.8-2.84c1,0,2,0,3,0Zm0,1.81H5.09c-.9,0-1.21.3-1.21,1.18V9.89c0,.85.32,1.16,1.17,1.17H59.74c1.09,0,1.36-.26,1.36-1.34V4.84c0-1.12-.25-1.36-1.38-1.36Z"/><path class="cls-1" d="M52.73,34.5h-7.1q-3.1,0-3.11-3.12V26.93c0-.72.33-1.12.89-1.12s.91.41.91,1.11c0,1.53,0,3,0,4.58,0,.9.28,1.19,1.19,1.19H59.91c.89,0,1.19-.32,1.19-1.21V17.7c0-.88-.31-1.19-1.2-1.19H45.51c-.89,0-1.18.3-1.18,1.2,0,1.51,0,3,0,4.52a1.46,1.46,0,0,1-.42,1,.83.83,0,0,1-1.35-.66c0-1.84-.06-3.69,0-5.53A2.64,2.64,0,0,1,45.4,14.7H60.09A2.87,2.87,0,0,1,63,17.65c0,4.6,0,9.19,0,13.79A2.92,2.92,0,0,1,60,34.5Z"/><path class="cls-1" d="M39,50c0-1.27.07-2.54,0-3.79-.13-1.89,1.53-3.29,3.59-2.12q2.61,1.48,5.24,2.95c.66.37,1.34.7,2,1.09a2.1,2.1,0,0,1,0,3.76c-2.45,1.4-4.91,2.78-7.4,4.12C40.57,57,39,56,39,53.88Zm1.81,0c0,1.34,0,2.69,0,4,0,.56.18.65.66.4s.95-.49,1.43-.76l6-3.33c.11-.06.26-.2.25-.29a.59.59,0,0,0-.27-.34l-7.23-4c-.68-.38-.81-.31-.81.44C40.78,47.4,40.79,48.68,40.79,50Z"/><path class="cls-1" d="M56.8,20.72H53.7v7.79h.76c.48,0,1.06.5,1.07.87s-.57.91-1.05.92c-1.18,0-2.36,0-3.55,0a.9.9,0,1,1,0-1.79h.74V20.74H48.61c0,.28,0,.57,0,.85a.89.89,0,0,1-.85.91.87.87,0,0,1-.92-.84,13.81,13.81,0,0,1,0-1.93.84.84,0,0,1,.92-.83h9.93a.84.84,0,0,1,.9.91c0,.61,0,1.21,0,1.81a.85.85,0,0,1-.82.88.88.88,0,0,1-.95-.81A7.64,7.64,0,0,1,56.8,20.72Z"/><path class="cls-1" d="M12.89,48.05c-2.53,0-5.06,0-7.59,0a1.5,1.5,0,0,1-.92-.31.83.83,0,0,1,.3-1.38,1.83,1.83,0,0,1,.7-.1h15.3a.93.93,0,0,1,1,.92.91.91,0,0,1-1,.88C18.07,48.06,15.48,48.05,12.89,48.05Z"/><path class="cls-1" d="M12.85,52.87H5.14a.92.92,0,0,1-1-.88,1,1,0,0,1,1-.92H20.36a2.45,2.45,0,0,1,.54,0,.86.86,0,0,1,.76.93.84.84,0,0,1-.86.84c-.6,0-1.2,0-1.81,0Z"/><path class="cls-1" d="M12.89,57.69c-2.53,0-5.06,0-7.59,0a1.5,1.5,0,0,1-.92-.31A.83.83,0,0,1,4.68,56a1.77,1.77,0,0,1,.65-.1H20.68a.94.94,0,0,1,1,.92.91.91,0,0,1-1,.88Z"/><path class="cls-1" d="M15.12,25.77a3.47,3.47,0,0,1-3.36-3.16,3.54,3.54,0,0,1,3.32-3.22,3.24,3.24,0,0,1,3.31,3.19A3.17,3.17,0,0,1,15.12,25.77Zm0-1.81a1.36,1.36,0,0,0,1.48-1.38,1.43,1.43,0,0,0-2.86,0A1.35,1.35,0,0,0,15.09,24Z"/><path class="cls-1" d="M8.78,6.37c.42,0,.84,0,1.26,0a.9.9,0,0,1,0,1.79q-1.29,0-2.58,0a.87.87,0,0,1-.87-.89.89.89,0,0,1,.92-.9H8.78Z"/><path class="cls-1" d="M54.94,7.26a1,1,0,0,1-1,.91.92.92,0,0,1-.93-.9.89.89,0,0,1,.92-.9A.91.91,0,0,1,54.94,7.26Z"/><path class="cls-1" d="M50.53,8.17a.93.93,0,0,1-1-.93.91.91,0,0,1,.95-.87.88.88,0,0,1,1,.92A.9.9,0,0,1,50.53,8.17Z"/><path class="cls-1" d="M58.38,7.25a1,1,0,0,1-1.9,0,.88.88,0,0,1,.9-.91A.9.9,0,0,1,58.38,7.25Z"/></svg>