<svg id="Layer_1" data-name="Layer 1" xmlns="http://www.w3.org/2000/svg" viewBox="0 0 65 65"><defs><style>.cls-1{fill:#190f2d;}</style></defs><path class="cls-1" d="M42.24,44.24c1.74-.51,3.43-1,5.14-1.5,2.6-.74,5.2-1.57,7.84-2.15a10.33,10.33,0,0,1,3.88-.05c2.56.44,3.86,2.54,3.32,5.15A5.52,5.52,0,0,1,59,50q-9.92,3.89-19.88,7.62a11.41,11.41,0,0,1-8.14.15c-2.31-.82-4.7-1.38-7-2.08a4.43,4.43,0,0,0-3.44.32c-.84.43-1.69.82-2.59,1.26.16.39.32.76.46,1.13a2.66,2.66,0,0,1-1.47,3.55c-1.38.6-2.78,1.18-4.18,1.74a2.65,2.65,0,0,1-3.59-1.5Q5.55,53.57,2,44.93a2.62,2.62,0,0,1,1.49-3.58c1.33-.57,2.67-1.12,4-1.66a2.69,2.69,0,0,1,3.77,1.53l.35.83.62-.26c2.41-1.15,4.84-2.26,7.23-3.46a10.3,10.3,0,0,1,11.26.88,5,5,0,0,0,1.48.67c2,.58,4.08,1.16,6.15,1.66A5.31,5.31,0,0,1,42.24,44.24Zm-25,11.4c1-.49,2-1,2.94-1.4a5.53,5.53,0,0,1,3.88-.32l4.18,1.19c1.31.38,2.65.7,3.93,1.17a8.94,8.94,0,0,0,6.4-.31q9.84-3.72,19.65-7.53a4.07,4.07,0,0,0,2.53-3.17,2.34,2.34,0,0,0-2-3,9.19,9.19,0,0,0-3.39.06c-2.8.68-5.54,1.54-8.31,2.33L42.73,45.9c0,.15,0,.23,0,.31a4.63,4.63,0,0,1-6,4.5l-6-1.62c-1.46-.39-2.93-.74-4.37-1.19a1.23,1.23,0,0,1-.71-.78c-.06-.23.23-.65.47-.81a1.27,1.27,0,0,1,.88,0l10.23,2.72a2.92,2.92,0,1,0,1.48-5.63c-1.22-.34-2.45-.64-3.66-1-2.15-.61-4.33-1-6.25-2.34a7.56,7.56,0,0,0-7.87-.5L13.68,43l-1.41.68Zm-5.54,6.54c.11,0,.29-.07.45-.14,1.32-.54,2.64-1.08,4-1.64a1,1,0,0,0,.61-1.52q-3.54-8.51-7.07-17a1,1,0,0,0-1.52-.61c-1.29.53-2.57,1.06-3.84,1.6-.83.34-1,.75-.65,1.59.87,2.11,1.75,4.21,2.63,6.32Q8.47,56,10.65,61.29A1.18,1.18,0,0,0,11.71,62.18Z"/><path class="cls-1" d="M45.25,37.65H43.66a1.93,1.93,0,0,1-2-1.88,2.79,2.79,0,0,0-4.76-2,1.91,1.91,0,0,1-2.8-.08c-.72-.7-1.43-1.41-2.13-2.12a1.94,1.94,0,0,1-.1-2.89,2.8,2.8,0,0,0-2-4.73A1.91,1.91,0,0,1,28,21.86q0-1.5,0-3a1.92,1.92,0,0,1,2-2.07,2.8,2.8,0,0,0,2-4.73A1.92,1.92,0,0,1,32,9.18c.69-.7,1.38-1.4,2.08-2.08A1.93,1.93,0,0,1,37,7a2.7,2.7,0,0,0,3,.55,2.72,2.72,0,0,0,1.7-2.49,1.94,1.94,0,0,1,2.15-2q1.44,0,2.88,0a1.93,1.93,0,0,1,2.11,2,2.73,2.73,0,0,0,1.74,2.53,2.71,2.71,0,0,0,3-.58,1.93,1.93,0,0,1,2.85.09c.71.7,1.42,1.41,2.12,2.12a1.92,1.92,0,0,1,.1,2.84,2.8,2.8,0,0,0,2,4.76,1.91,1.91,0,0,1,1.91,2c0,1,0,2.05,0,3.07a1.92,1.92,0,0,1-1.92,2,2.8,2.8,0,0,0-2,4.76,1.92,1.92,0,0,1-.07,2.8c-.73.74-1.46,1.48-2.21,2.21a1.91,1.91,0,0,1-2.76.07,2.71,2.71,0,0,0-3-.61,2.77,2.77,0,0,0-1.74,2.65,1.91,1.91,0,0,1-1.92,1.84ZM34.44,14.07a4.49,4.49,0,0,1-4.15,4.41c-.5.05-.61.23-.59.68,0,.83,0,1.67,0,2.51,0,.37.09.53.51.56A4.3,4.3,0,0,1,34.07,25a4.24,4.24,0,0,1-.78,4.68c-.27.32-.23.5,0,.76.64.61,1.26,1.23,1.87,1.86.26.28.44.3.75,0a4.48,4.48,0,0,1,7.44,3c0,.47.21.58.64.57.84,0,1.68,0,2.51,0,.41,0,.57-.1.6-.54a4.3,4.3,0,0,1,2.8-3.85,4.25,4.25,0,0,1,4.67.81c.29.25.47.22.71,0,.63-.65,1.26-1.28,1.91-1.9.26-.25.3-.42,0-.71a4.5,4.5,0,0,1,3.1-7.48c.38,0,.48-.18.47-.53,0-.84,0-1.68,0-2.51,0-.48-.1-.66-.62-.71a4.25,4.25,0,0,1-3.77-2.81,4.28,4.28,0,0,1,.8-4.63c.23-.27.28-.44,0-.71-.66-.63-1.31-1.29-2-1.95-.22-.23-.39-.28-.66,0A4.24,4.24,0,0,1,50,9.18a4.28,4.28,0,0,1-2.83-3.94c0-.36-.18-.45-.5-.45q-1.38,0-2.76,0c-.35,0-.45.14-.48.47a4.29,4.29,0,0,1-2.79,3.91,4.25,4.25,0,0,1-4.68-.81c-.29-.25-.47-.21-.71,0-.62.65-1.25,1.29-1.91,1.91-.3.28-.25.47,0,.75A4.46,4.46,0,0,1,34.44,14.07Z"/><path class="cls-1" d="M24.34,8.88l.19-.09a2.21,2.21,0,0,0,1.19-2.43,7.81,7.81,0,0,1,0-1.28c0-.42,0-.83.46-1.06s.82,0,1.19.22A5.32,5.32,0,0,1,27.5,13a1.26,1.26,0,0,0-.6,1.2q0,5,0,10.05a1.12,1.12,0,0,0,.52,1.05A5.28,5.28,0,0,1,27.21,34a1.62,1.62,0,0,1-1.12.19c-.46-.11-.48-.59-.47-1s0-.9,0-1.35c0-1.52,0-1.52-1.34-2.49a12.15,12.15,0,0,0-1.1.94.92.92,0,0,0-.21.59c0,.79,0,1.59,0,2.39a1.26,1.26,0,0,1-.44.9,1.29,1.29,0,0,1-1.06-.12,5.3,5.3,0,0,1-.18-8.84,1,1,0,0,0,.5-.93q0-5.19.05-10.36a.91.91,0,0,0-.47-.89,5.29,5.29,0,0,1,.07-8.77A1.67,1.67,0,0,1,22.59,4c.49.11.5.63.49,1.08,0,.63,0,1.27,0,1.9a1.28,1.28,0,0,0,.63,1.33A5.57,5.57,0,0,1,24.34,8.88ZM21.35,7a3.4,3.4,0,0,0,1.41,4.91,1.26,1.26,0,0,1,.79,1.24q-.06,6-.07,12.08a1.12,1.12,0,0,1-.71,1.15,3.33,3.33,0,0,0-1.85,2,3.25,3.25,0,0,0,.27,2.89c.06-.33,0-.67.08-1a2,2,0,0,1,.42-1c.63-.62,1.32-1.16,2-1.72a.88.88,0,0,1,1.27,0c.37.31.72.67,1.12.95a2.43,2.43,0,0,1,1.28,2.6s0,.06.08.13A2.63,2.63,0,0,0,27.6,31a3.56,3.56,0,0,0-1.71-4.68,1.19,1.19,0,0,1-.74-1.2q0-6,0-12A1.21,1.21,0,0,1,26,11.89a3.37,3.37,0,0,0,1.82-2.05,3.06,3.06,0,0,0-.28-2.78c-.07.32,0,.65-.08,1a1.67,1.67,0,0,1-.36.87c-.66.63-1.38,1.2-2.09,1.79a.87.87,0,0,1-1.22,0c-.31-.26-.61-.55-.93-.8C21.89,9.12,20.93,8.41,21.35,7Z"/><path class="cls-1" d="M45.28,30.86A10.5,10.5,0,1,1,55.77,20.35,10.53,10.53,0,0,1,45.28,30.86ZM54,20.38a8.77,8.77,0,1,0-8.8,8.74A8.8,8.8,0,0,0,54,20.38Z"/><path class="cls-1" d="M50.1,20.36l-2.2-1.27c-.62-.37-.8-.82-.53-1.3s.77-.55,1.38-.2l3.34,1.93c.82.48.81,1.21,0,1.7l-3.34,1.93c-.6.34-1.12.24-1.38-.25s-.07-.9.52-1.24Z"/><path class="cls-1" d="M40.44,20.36c.81.47,1.52.87,2.21,1.29s.8.82.52,1.29-.78.54-1.39.19c-1.1-.63-2.2-1.26-3.29-1.9-.86-.5-.86-1.23,0-1.73,1.1-.65,2.22-1.29,3.33-1.93.57-.33,1.07-.24,1.34.2s.12.94-.49,1.3S41.26,19.89,40.44,20.36Z"/><path class="cls-1" d="M46.81,17.87c0,.16-.06.32-.1.48-.41,1.51-.81,3-1.22,4.54-.19.68-.6,1-1.12.83s-.73-.57-.56-1.23c.42-1.61.86-3.22,1.3-4.83a.82.82,0,0,1,1-.67A.84.84,0,0,1,46.81,17.87Z"/></svg>