<svg id="Layer_1" data-name="Layer 1" xmlns="http://www.w3.org/2000/svg" viewBox="0 0 65 65"><defs><style>.cls-1{fill:#190f2d;}</style></defs><path class="cls-1" d="M44.07,43.37l.59.33c1.65.86,3.3,1.73,5,2.56a1.32,1.32,0,0,1,.8,1.31c0,1.1.09,2.2.13,3.31a.87.87,0,0,0,.52.86,2.88,2.88,0,0,1,1.49,3.31,2.93,2.93,0,0,1-5.68.05,2.88,2.88,0,0,1,1.42-3.34.72.72,0,0,0,.45-.76c-.07-.92-.07-1.84-.15-2.76a.89.89,0,0,0-.4-.6c-1.72-.93-3.47-1.83-5.22-2.7a.78.78,0,0,0-.67.1c-.34.23-.58.6-.93.79a1.89,1.89,0,0,0-.9,2,34.59,34.59,0,0,0,2.24,11.06c.38,1.08.73,2.17,1,3.28s-.17,1.44-1.17,1.44l-22.46,0c-1.06,0-1.45-.32-1.31-1.34a42.17,42.17,0,0,1,.92-4.3c.25-1,.66-1.93.92-2.92s-.2-1.43-1.13-1.33c-1.17.14-2.32.45-3.49.64s-2.49.44-3.74.54a3.5,3.5,0,0,1-1.53-.36,1.57,1.57,0,0,1-1-1.18,11.21,11.21,0,0,0-1.73-4.09,3.45,3.45,0,0,1-.39-1.09,1.26,1.26,0,0,1,.56-1.44,8.54,8.54,0,0,0,.71-.59c0-.09,0-.12,0-.12-1.31-.24-1.54-1.13-1.4-2.27a7.12,7.12,0,0,0,0-.8c0-1.32.15-1.06-1.1-1.26-1.84-.29-2-.66-1.49-2.41a11.64,11.64,0,0,1,2-3.77C7.42,34.7,8,34,8.52,33.22a4,4,0,0,0,.63-2.62c-.31-5.19.48-10.13,3.69-14.41a16.43,16.43,0,0,1,10-6.18,22.67,22.67,0,0,1,15.37,1.5l1,.53c.11-.16.23-.32.33-.49.39-.67.73-1.38,1.18-2a1.42,1.42,0,0,0,0-1.92,1,1,0,0,0-.91-.53,2.86,2.86,0,0,1-3-2.86A2.93,2.93,0,0,1,42.76,4a4.41,4.41,0,0,1-.48,1.74.74.74,0,0,0,0,.82c.27.41.48.86.75,1.27A1.23,1.23,0,0,1,43,9.3c-.62,1-1.21,2.08-1.81,3.13-.12.2-.23.42-.35.65.12.12.22.22.33.31a19,19,0,0,1,5.88,7.87.77.77,0,0,0,.84.59c2,0,4,0,6,0,.47,0,.69-.13.65-.62a2.53,2.53,0,0,1,0-.55,1.58,1.58,0,0,0-.85-1.79,2.75,2.75,0,0,1-1-3.32,2.94,2.94,0,0,1,5.6.24,2.84,2.84,0,0,1-1.28,3.24,1.1,1.1,0,0,0-.64,1.21c0,.76,0,1.51,0,2.27s-.32,1.12-1.11,1.12H48l.8,5.67c.12,0,.3,0,.48,0,2.33,0,4.66,0,7,0a.74.74,0,0,0,.76-.45,2.94,2.94,0,1,1,0,2.81.81.81,0,0,0-.86-.49q-3.52,0-7.05,0c-.32,0-.52,0-.59.43-.31,1.64-.66,3.27-1,4.91a2.91,2.91,0,0,0,0,.38H55.2c.93,0,1.22.28,1.22,1.19,0,1.41,0,2.83,0,4.24a.79.79,0,0,0,.47.81,2.89,2.89,0,0,1,1.38,3.56,2.93,2.93,0,0,1-5.7-1.11,2.74,2.74,0,0,1,1.51-2.43.87.87,0,0,0,.51-.92c0-1,0-2,0-2.95,0-.45-.15-.6-.61-.6-2.23,0-4.46,0-6.69,0a.82.82,0,0,0-.62.25C45.79,40.44,45,41.88,44.07,43.37ZM41.65,61.61c-.29-.87-.56-1.68-.84-2.49a32.75,32.75,0,0,1-2.17-12.85,1.47,1.47,0,0,1,.61-1.19,13.52,13.52,0,0,0,1.69-1.42c5.51-5.63,7.1-12.32,5-19.83A16.22,16.22,0,0,0,34.83,12.19,21.38,21.38,0,0,0,22,12.2a14.23,14.23,0,0,0-9.82,9.25,22.25,22.25,0,0,0-1.1,9.19A5.82,5.82,0,0,1,10,34.51c-.6.83-1.28,1.61-1.83,2.46s-1,1.75-1.54,2.73L8.28,40c.82.15,1.05.4,1.08,1.22,0,.61.06,1.23,0,1.84a1.13,1.13,0,0,0,.79,1.33c1.28.54,1.44,1.63.48,2.65-.32.34-.67.65-1,1,.08.14.12.28.2.39a10.24,10.24,0,0,1,1.65,3.8c.13.57.42.77.94.69,1.15-.16,2.29-.36,3.44-.55a30,30,0,0,1,3.73-.64,2.77,2.77,0,0,1,3,3.2,7.17,7.17,0,0,1-.31,1.43c-.35,1.09-.77,2.15-1.11,3.24-.19.63-.3,1.29-.46,2Zm18-32.4a1.09,1.09,0,1,0,.05,2.18,1.13,1.13,0,0,0,1.07-1.11A1.14,1.14,0,0,0,59.62,29.21ZM39.82,5.28A1.07,1.07,0,0,0,40.9,4.19a1,1,0,0,0-1-1.06,1.07,1.07,0,0,0-1.13,1A1.11,1.11,0,0,0,39.82,5.28Zm8.81,49a1.07,1.07,0,0,0,1.09,1.08,1.11,1.11,0,0,0,1.09-1,1.13,1.13,0,0,0-1.07-1.12A1.09,1.09,0,0,0,48.63,54.32Zm8-37.71a1.09,1.09,0,0,0-1.09-1.09,1,1,0,0,0-1.07,1,1.08,1.08,0,0,0,1,1.14A1.14,1.14,0,0,0,56.59,16.61Zm0,29.16a1.15,1.15,0,0,0-1.11-1.1,1.09,1.09,0,0,0-1,1.12,1.07,1.07,0,0,0,1,1.06A1.11,1.11,0,0,0,56.59,45.77Z"/><path class="cls-1" d="M16.58,23a10.87,10.87,0,0,1-.84-.74,1.41,1.41,0,0,1,0-2.12c.91-.95,1.84-1.87,2.78-2.78a1.44,1.44,0,0,1,2.18,0c.84.78.83.76,1.9.29.66-.28,1.33-.52,2-.76.3-.1.51-.2.47-.58-.22-1.86.61-2.42,2.37-2.32.94.05,1.88,0,2.82,0,1.23,0,1.77.54,1.77,1.75,0,1,0,.94.93,1.28a13.42,13.42,0,0,1,2,.88A.71.71,0,0,0,36,17.75a2.91,2.91,0,0,1,.43-.43,1.4,1.4,0,0,1,2,0c1,1,2,1.94,2.94,3a1.4,1.4,0,0,1-.08,2c-.79.88-.78.87-.3,1.95a17.88,17.88,0,0,1,.76,2,.54.54,0,0,0,.61.45c2,.05,2.26.3,2.26,2.35v3a1.44,1.44,0,0,1-1.53,1.61c-1.16.05-1.14.06-1.56,1.15-.27.68-.57,1.35-.91,2-.14.29-.14.47.11.68,1.28,1,1.51,1.93,0,3.31-.75.67-1.42,1.42-2.13,2.12a1.46,1.46,0,0,1-2.27,0c-.79-.75-.78-.73-1.76-.29a18.09,18.09,0,0,1-2,.79c-.41.12-.58.31-.52.73a3.75,3.75,0,0,1,0,.67,1.39,1.39,0,0,1-1.4,1.48q-2.09.06-4.17,0A1.41,1.41,0,0,1,25,44.76c0-1.13,0-1.11-1.1-1.52-.68-.27-1.35-.58-2-.91a.52.52,0,0,0-.74.12,7.4,7.4,0,0,1-.56.56,1.42,1.42,0,0,1-2.09,0c-1-.93-1.9-1.87-2.82-2.83a1.42,1.42,0,0,1,0-2.12c.8-.87.78-.86.3-2a17.88,17.88,0,0,1-.76-2,.55.55,0,0,0-.61-.45c-2.05-.06-2.26-.29-2.26-2.33,0-1,0-2,0-3s.52-1.66,1.52-1.58,1.38-.31,1.61-1.23A17.22,17.22,0,0,1,16.58,23ZM27,17.14l3-.88.27,2L30,20.81l.7.18a9.43,9.43,0,0,1,5.49,14.75,9.14,9.14,0,0,1-7.93,3.86c-.53,0-.73.14-.75.66s-.13,1.05-.19,1.58c-.11.84-.21,1.68-.31,2.55H30.1c0-.51,0-1,0-1.44a1,1,0,0,1,.83-1.07,12.43,12.43,0,0,0,4.16-1.72,1,1,0,0,1,1.33.16c.33.36.62.75.85,1L39.66,39c-.3-.27-.66-.57-1-.9a1,1,0,0,1-.16-1.32,12.08,12.08,0,0,0,1.71-4.11,1,1,0,0,1,1.14-.87c.44,0,.89,0,1.4,0V30c0-1.37,0-1.37-1.36-1.39-.76,0-1-.21-1.2-.95a12.18,12.18,0,0,0-1.63-3.94,1,1,0,0,1,.16-1.48l.92-.95L37.33,19c-.25.3-.49.66-.79,1a1,1,0,0,1-1.57.2,15.62,15.62,0,0,0-4.74-1.86l.4-2.27H27c0,.4,0,.79,0,1.17-1,.37-1,.37-1,1.33a12.9,12.9,0,0,0-4,1.69A1,1,0,0,1,20.62,20c-.32-.34-.61-.71-.83-1l-2.36,2.33.94.86a1,1,0,0,1,.18,1.38,12.2,12.2,0,0,0-1.71,4.11,1,1,0,0,1-1.09.85c-.46,0-.92,0-1.39,0v3.19c.49,0,.94,0,1.39,0a1,1,0,0,1,1.09.85,12,12,0,0,0,1.71,4.11,1,1,0,0,1-.18,1.37c-.33.32-.68.64-1,.92l2.26,2.24s0,0,.05,0l.83-.81c.55-.54.89-.53,1.58-.19,1.1.54,2.22,1,3.35,1.49a14.17,14.17,0,0,0,1.4.44c0-.67,0-1.38,0-2.09,0-.45-.15-.62-.6-.73a9.41,9.41,0,0,1-6.72-12,9.29,9.29,0,0,1,6-6.11c.22-.08.55-.31.56-.48,0-.75-.09-1.5-.14-2.25C26.75,18.47,27.05,18.06,27,17.14Zm-.26,20.32a1.8,1.8,0,0,0-1.08-2.25,5.57,5.57,0,0,1-2.86-6.06,1.68,1.68,0,0,1,.7-1c.41-.24.81.07,1.13.4.48.5,1,1,1.47,1.48.1.1.24.17.43.32l-.28-7.32c-2.84.39-5.35,4-5.27,7.46C21,33.75,23.88,37.22,26.71,37.46Zm2.79-13.1a5.94,5.94,0,0,1,4.72,7.22c0,.15,0,.37,0,.46.35.4.74.77,1.2,1.23A7.62,7.62,0,0,0,29.7,22.69Zm4.91,10.45c-.55-.53-1.11-1.12-1.72-1.65a1.31,1.31,0,0,1-.39-1.64,3.61,3.61,0,0,0,.11-2.34,3.93,3.93,0,0,0-2.36-2.7l-.24.23.91.7a1.21,1.21,0,0,1,.39,1.38c-.21.8-.45,1.6-.65,2.41a1.17,1.17,0,0,1-.95.92c-1.1.29-1.1.31-1.19,1.45,0,.17,0,.35,0,.6a2.73,2.73,0,0,0,1.06-.08c1.21-.67,2-.07,2.71.82a2.94,2.94,0,0,0,.31.3c1,1,1.11,1,2-.18A1.91,1.91,0,0,0,34.41,34.81Zm-6.61,2.9a6.82,6.82,0,0,0,3.76-.61c-.66-.8-1.21-1.6-2.39-1.1-.24.1-.57,0-.84.06a.48.48,0,0,0-.35.29C27.89,36.76,27.87,37.19,27.8,37.71Zm-2.84-6a3.2,3.2,0,0,0,1.73,2c-.09-.39-.08-.69-.22-.82C26,32.45,25.47,32.08,25,31.68Z"/></svg>