<svg id="Layer_1" data-name="Layer 1" xmlns="http://www.w3.org/2000/svg" viewBox="0 0 65 65"><defs><style>.cls-1{fill:blue;}.cls-2{fill:#f3f945;}</style></defs><path class="cls-1" d="M.29,9.32A12.73,12.73,0,0,1,1,8.15c1.5-1.9,3-3.78,4.53-5.67.77-1,1.6-1,2.36,0,1.54,1.89,3.07,3.8,4.6,5.7.13.16.23.33.36.49a1.26,1.26,0,0,1-1,2.11c-.39,0-.79,0-1.26,0V28.35c0,1.38-.4,1.77-1.76,1.78H4.62c-1.31,0-1.76-.44-1.76-1.74V10.77c-1,0-2.21.17-2.57-1.21Zm4-1.2A1.52,1.52,0,0,1,5.47,9.87c0,5.63,0,11.26,0,16.89v.72H8v-.75c0-5.47,0-10.94,0-16.41,0-.94-.1-1.9,1.17-2.2L6.75,5.05Z"/><path class="cls-2" d="M16.16,1.68a1.53,1.53,0,0,1,.93,1.24,1.28,1.28,0,0,1-1.27,1.33c-.85,0-1.69,0-2.54,0a1.28,1.28,0,0,1-1.33-1,1.33,1.33,0,0,1,.73-1.45l.21-.12Z"/><path class="cls-2" d="M23.92,1.68a1.5,1.5,0,0,1,.92,1.24,1.27,1.27,0,0,1-1.27,1.33c-.84,0-1.69,0-2.53,0a1.28,1.28,0,0,1-1.33-1,1.31,1.31,0,0,1,.73-1.45l.2-.12Z"/><path class="cls-2" d="M31.67,1.68a1.53,1.53,0,0,1,.93,1.24,1.28,1.28,0,0,1-1.27,1.33c-.85,0-1.69,0-2.54,0a1.28,1.28,0,0,1-1.33-1,1.33,1.33,0,0,1,.73-1.45l.21-.12Z"/><path class="cls-2" d="M39.43,1.68a1.51,1.51,0,0,1,.92,1.24,1.27,1.27,0,0,1-1.27,1.33c-.84,0-1.69,0-2.53,0a1.29,1.29,0,0,1-1.34-1A1.33,1.33,0,0,1,36,1.8l.2-.12Z"/><path class="cls-2" d="M47.18,1.68a1.5,1.5,0,0,1,.92,1.24,1.26,1.26,0,0,1-1.26,1.33c-.85,0-1.69,0-2.54,0a1.28,1.28,0,0,1-1.33-1A1.33,1.33,0,0,1,43.7,1.8l.21-.12Z"/><path class="cls-2" d="M54.93,1.68a1.51,1.51,0,0,1,.93,1.24,1.27,1.27,0,0,1-1.27,1.33c-.84,0-1.69,0-2.54,0a1.28,1.28,0,0,1-1.33-1,1.33,1.33,0,0,1,.74-1.45l.2-.12Z"/><path class="cls-2" d="M61.36,1.68a1.53,1.53,0,0,1,1,1.69c0,.32,0,.64,0,1a1.3,1.3,0,0,1-1.14,1.22,1.32,1.32,0,0,1-1.37-.87c-.06-.16-.14-.39-.25-.42A1.28,1.28,0,0,1,58.46,3a1.37,1.37,0,0,1,1-1.33Z"/><path class="cls-1" d="M36.51,45.69v2.47l.57.13a2.52,2.52,0,0,1,2,2.45c0,2.62,0,5.25,0,7.87a2.51,2.51,0,0,1-2.15,2.47,4.14,4.14,0,0,1-.79.06H5.83A4.32,4.32,0,0,1,4.64,61a2.55,2.55,0,0,1-1.77-2.55q0-3.77,0-7.51c0-1.54.86-2.45,2.55-2.76V45.72s0-.06-.08-.07c-1.91-.49-2.48-1.22-2.48-3.2V35.6a2.63,2.63,0,0,1,2.88-2.9H36.21a2.6,2.6,0,0,1,2.85,2.86v6.85C39.06,44.45,38.52,45.16,36.51,45.69Zm-31-10.38V43H36.44V35.31Zm0,23.19H36.43V50.83H5.5ZM33.85,45.68H8.08v2.5H33.85Z"/><path class="cls-1" d="M53.22,61.14H43.31c-1.2,0-1.67-.46-1.67-1.64,0-1.51,0-3,0-4.54,0-1.12.46-1.57,1.59-1.57h10c0-.45,0-.83,0-1.21A1.32,1.32,0,0,1,54,50.91a1.28,1.28,0,0,1,1.41.22c2,1.64,4.09,3.29,6.15,4.92a1.34,1.34,0,0,1,0,2.38c-2.08,1.66-4.14,3.35-6.24,5a1.24,1.24,0,0,1-2.06-.82A12.73,12.73,0,0,1,53.22,61.14Zm2.68-1.43L59,57.25,55.89,54.8A1.51,1.51,0,0,1,54.15,56c-3.07,0-6.14,0-9.21,0h-.66v2.58H45c3,0,6,0,9,0C54.92,58.52,55.62,58.71,55.9,59.71Z"/><path class="cls-2" d="M15.8,15.9c.45,0,.89,0,1.33,0a1.24,1.24,0,0,1,1.23,1.3,1.22,1.22,0,0,1-1.21,1.26,24.68,24.68,0,0,1-2.72,0,1.23,1.23,0,0,1-1.2-1.27,1.26,1.26,0,0,1,1.24-1.3C14.91,15.87,15.36,15.9,15.8,15.9Z"/><path class="cls-2" d="M48.11,32.76c0,.42,0,.85,0,1.27a1.29,1.29,0,0,1-2.57,0c0-.86,0-1.73,0-2.6a1.25,1.25,0,0,1,1.27-1.27,1.28,1.28,0,0,1,1.31,1.3c0,.44,0,.88,0,1.33Z"/><path class="cls-2" d="M45.52,40.42c0-.43,0-.85,0-1.27a1.29,1.29,0,0,1,2.57,0c0,.89,0,1.78,0,2.66A1.25,1.25,0,0,1,46.79,43a1.27,1.27,0,0,1-1.27-1.27C45.49,41.31,45.52,40.86,45.52,40.42Z"/><path class="cls-2" d="M39,18.49c-.43,0-.85,0-1.27,0a1.29,1.29,0,0,1,0-2.58c.87,0,1.74,0,2.6,0a1.25,1.25,0,0,1,1.28,1.27,1.27,1.27,0,0,1-1.29,1.31c-.44,0-.89,0-1.33,0Z"/><path class="cls-2" d="M45.52,48.21c0-.45,0-.89,0-1.33a1.26,1.26,0,0,1,1.3-1.24,1.22,1.22,0,0,1,1.26,1.21,24.68,24.68,0,0,1,0,2.72,1.23,1.23,0,0,1-1.26,1.21,1.26,1.26,0,0,1-1.3-1.24C45.49,49.1,45.52,48.65,45.52,48.21Z"/><path class="cls-2" d="M31.26,18.49c-.42,0-.85,0-1.27,0a1.26,1.26,0,0,1-1.25-1.29A1.24,1.24,0,0,1,30,15.91c.89,0,1.78,0,2.66,0a1.23,1.23,0,0,1,1.22,1.25,1.26,1.26,0,0,1-1.22,1.32c-.46,0-.93,0-1.39,0Z"/><path class="cls-2" d="M23.53,18.49c-.42,0-.85,0-1.27,0a1.29,1.29,0,0,1,0-2.58c.85,0,1.7,0,2.54,0a1.26,1.26,0,0,1,1.31,1.3,1.27,1.27,0,0,1-1.32,1.29c-.42,0-.85,0-1.27,0Z"/><path class="cls-2" d="M48.11,25c0,.42,0,.84,0,1.27a1.26,1.26,0,0,1-1.29,1.25,1.24,1.24,0,0,1-1.29-1.24c0-.89,0-1.78,0-2.66a1.29,1.29,0,0,1,2.57,0c0,.46,0,.92,0,1.39Z"/><path class="cls-2" d="M59.76,10.73c0-.46,0-.92,0-1.39a1.27,1.27,0,0,1,2.53,0,26.9,26.9,0,0,1,0,2.84A1.26,1.26,0,0,1,61,13.31a1.27,1.27,0,0,1-1.23-1.25c0-.44,0-.88,0-1.33Z"/><path class="cls-2" d="M62.32,26.25c0,.42,0,.85,0,1.27A1.29,1.29,0,0,1,61,28.82a1.27,1.27,0,0,1-1.25-1.29q0-1.3,0-2.61A1.27,1.27,0,0,1,61,23.65a1.3,1.3,0,0,1,1.29,1.27C62.34,25.36,62.32,25.81,62.32,26.25Z"/><path class="cls-2" d="M62.32,34c0,.44,0,.89,0,1.33A1.29,1.29,0,0,1,61,36.57a1.26,1.26,0,0,1-1.27-1.26c0-.89,0-1.78,0-2.67A1.25,1.25,0,0,1,61,31.41a1.29,1.29,0,0,1,1.31,1.24C62.34,33.09,62.32,33.54,62.32,34Z"/><path class="cls-2" d="M59.76,18.47c0-.44,0-.89,0-1.33a1.28,1.28,0,0,1,2.55-.07c0,.95,0,1.9,0,2.85a1.27,1.27,0,0,1-2.53-.06c0-.46,0-.92,0-1.39Z"/><path class="cls-2" d="M59.76,41.77c0-.46,0-.93,0-1.39a1.27,1.27,0,0,1,2.54,0q.06,1.39,0,2.79a1.28,1.28,0,0,1-2.55,0C59.74,42.66,59.76,42.21,59.76,41.77Z"/><path class="cls-2" d="M59.76,49.51c0-.47,0-.93,0-1.4a1.27,1.27,0,0,1,2.53,0,26.9,26.9,0,0,1,0,2.84A1.25,1.25,0,0,1,61,52.08a1.26,1.26,0,0,1-1.23-1.24c0-.45,0-.89,0-1.33Z"/><path class="cls-2" d="M48.13,17.86a6.51,6.51,0,0,1-.07.87,1.21,1.21,0,0,1-1.11,1,1.32,1.32,0,0,1-1.35-.81,1.21,1.21,0,0,0-.52-.53,1.34,1.34,0,0,1-.83-1.34,1.2,1.2,0,0,1,1.07-1.13,8.57,8.57,0,0,1,1.68,0A1.18,1.18,0,0,1,48.08,17,8,8,0,0,1,48.13,17.86Z"/><path class="cls-2" d="M10.68,37.89c.44,0,.89,0,1.33,0a1.27,1.27,0,0,1,.05,2.53c-1,0-1.9,0-2.85,0a1.28,1.28,0,0,1,.08-2.55c.46,0,.93,0,1.39,0Z"/><path class="cls-2" d="M33.87,39.14a1.27,1.27,0,0,1-1.28,1.31,1.31,1.31,0,0,1-1.28-1.26,1.28,1.28,0,0,1,1.29-1.3A1.24,1.24,0,0,1,33.87,39.14Z"/><path class="cls-2" d="M10.66,53.4c.44,0,.89,0,1.33,0A1.28,1.28,0,0,1,12,56q-1.39.06-2.79,0a1.28,1.28,0,0,1,0-2.55C9.73,53.38,10.2,53.4,10.66,53.4Z"/><path class="cls-2" d="M33.87,54.68A1.28,1.28,0,0,1,32.62,56a1.31,1.31,0,0,1-1.31-1.3,1.27,1.27,0,0,1,1.33-1.26A1.23,1.23,0,0,1,33.87,54.68Z"/></svg>