<svg id="Layer_1" data-name="Layer 1" xmlns="http://www.w3.org/2000/svg" viewBox="0 0 65 65"><defs><style>.cls-1{fill:#190f2d;}</style></defs><path class="cls-1" d="M28.73,22.88c0-1.94,0-3.82,0-5.7,0-.17-.21-.36-.37-.5a6.16,6.16,0,0,1-1.91-6.57,6.07,6.07,0,0,1,5-4.48,6.34,6.34,0,0,1,5.29,11,1.26,1.26,0,0,0-.47,1.09c0,1.7,0,3.4,0,5.2H37c2,0,4.06-.1,6.07.11a12.77,12.77,0,0,1,10.73,7.86.74.74,0,0,0,.79.53,19.41,19.41,0,0,1,3.33.13,5.71,5.71,0,0,1,4.72,5.61q0,3.78,0,7.54A5.83,5.83,0,0,1,57,50.46c-.83,0-1.67,0-2.5,0a.62.62,0,0,0-.67.43,12.91,12.91,0,0,1-10.2,7.88,15,15,0,0,1-2.42.16c-5.82,0-11.63,0-17.45,0s-10.14-2.72-12.67-8.08a.8.8,0,0,0-.57-.37c-1.05-.06-2.11,0-3.15-.11a5.73,5.73,0,0,1-5-5.54c-.07-2.61-.07-5.23,0-7.84a5.79,5.79,0,0,1,5.74-5.62q1.19,0,2.37,0a.63.63,0,0,0,.68-.43,13,13,0,0,1,12.42-8.07c1.5,0,3,0,4.5,0Zm3.78,34.06V57c3,0,6,0,8.93,0a12.81,12.81,0,0,0,2.06-.15A11.15,11.15,0,0,0,53,45.61c0-3.12,0-6.24,0-9.36a12.08,12.08,0,0,0-.22-2.41,11.18,11.18,0,0,0-11-9H23.41A11.2,11.2,0,0,0,12.05,36.19c0,2.64,0,5.27,0,7.91a29.48,29.48,0,0,0,.15,3.39,11,11,0,0,0,9.92,9.42C25.57,57.07,29,56.94,32.51,56.94ZM10.24,48.57c-.22-5.13-.22-10.17,0-15.24-.7,0-1.43,0-2.16,0a3.86,3.86,0,0,0-3.79,3.82c0,2.52,0,5,0,7.55a3.78,3.78,0,0,0,3.14,3.72A22.75,22.75,0,0,0,10.24,48.57ZM54.77,33.28c.19,5.16.23,10.19,0,15.24.77,0,1.58,0,2.38,0a3.87,3.87,0,0,0,3.58-3.79c0-2.53,0-5.07,0-7.6a3.73,3.73,0,0,0-3-3.66A21.23,21.23,0,0,0,54.77,33.28ZM28.1,11.86a4.4,4.4,0,1,0,4.49-4.37A4.37,4.37,0,0,0,28.1,11.86Zm6.22,6.28H30.71v4.7h3.61Z"/><path class="cls-1" d="M32.47,51.61c-1.86,0-3.73,0-5.59,0A3.38,3.38,0,0,1,26,45a4.45,4.45,0,0,1,1.26-.17q5.25,0,10.51,0a3.42,3.42,0,0,1,3.63,3.42,3.34,3.34,0,0,1-3.27,3.38C36.24,51.63,34.35,51.61,32.47,51.61Zm0-1.92H33c1.63,0,3.25,0,4.87,0A1.44,1.44,0,0,0,39.43,48a1.46,1.46,0,0,0-1.62-1.24c-3.55,0-7.09,0-10.64,0a2.61,2.61,0,0,0-.48,0,1.43,1.43,0,0,0-1,2.09,1.56,1.56,0,0,0,1.53.78Z"/><path class="cls-1" d="M47.12,35.56a4.77,4.77,0,1,1-4.69-4.81A4.73,4.73,0,0,1,47.12,35.56Zm-7.58-.05a2.82,2.82,0,1,0,2.79-2.82A2.8,2.8,0,0,0,39.54,35.51Z"/><path class="cls-1" d="M17.87,35.49a4.77,4.77,0,1,1,4.7,4.79A4.74,4.74,0,0,1,17.87,35.49Zm4.79,2.85a2.82,2.82,0,1,0-2.84-2.79A2.79,2.79,0,0,0,22.66,38.34Z"/></svg>