<svg id="Layer_1" data-name="Layer 1" xmlns="http://www.w3.org/2000/svg" viewBox="0 0 408 370"><defs><style>.cls-1{fill:#4cc0b4;}</style></defs><path class="cls-1" d="M356,323.15c-1.9,5.26-4.93,9.43-10.72,10.79a17.61,17.61,0,0,1-4.09.44q-136.89,0-273.77,0c-8.87,0-14.8-6-14.81-14.89q0-25.47,0-51c0-8.69,6-14.7,14.68-14.71q31.11,0,62.23,0h3.68v-3.25c0-8.49-.14-17,0-25.48.41-21.36,10.19-37.39,28.15-49,1.21,1.31,2.29,2.55,3.44,3.73s2.25,2.13,2.91,2.75c-5,4.47-10.11,8.35-14.3,13.07A41.8,41.8,0,0,0,142.9,222.1c-.44,10.43-.1,20.9-.1,31.54H265.94c0-5.58.17-11.08,0-16.57-.3-7.58,0-15.3-1.53-22.66-2.62-13-10.38-22.79-21.7-29.72-.66-.41-1.33-.8-2.24-1.35l6.67-7.08a53,53,0,0,1,17,15.11A55.54,55.54,0,0,1,275.39,225c0,9.47,0,18.94,0,28.84h3.27c19.95,0,39.9.22,59.85-.11,8.75-.15,14.61,3,17.48,11.35ZM204.26,263.29q-67.81,0-135.64,0c-5,0-6.55,1.6-6.55,6.56q0,24.28,0,48.58c0,4.91,1.62,6.5,6.61,6.5H340c4.94,0,6.55-1.61,6.56-6.57q0-24,0-48c0-5.7-1.42-7.09-7.21-7.09Q271.79,263.27,204.26,263.29Z"/><path class="cls-1" d="M206.07,31c2.38,1.55,3.07,3.73,3,6.53-.16,7,0,14-.06,21,0,3.69-1.81,5.75-4.88,5.67s-4.56-2.07-4.57-5.67c0-7,.1-14-.06-21-.06-2.8.62-5,3-6.53Z"/><path class="cls-1" d="M311.47,244.11c11.26-28.27,12.09-56.64,1.68-85.06A113.46,113.46,0,0,0,270.54,104a115.73,115.73,0,0,0-132.49,0,113.43,113.43,0,0,0-45.19,62.92C85.23,193,87,218.74,97.21,244.32c-3.25,0-6.18.11-9.08-.09-.64,0-1.49-1.08-1.78-1.84A120.92,120.92,0,0,1,78.87,191c1.78-25.78,10.51-49.07,26.62-69.33,20.87-26.26,48-42,81.26-46.78a125.35,125.35,0,0,1,138.62,90.81c7.06,25.69,6,51.09-2.82,76.21-.68,1.92-1.55,2.67-3.58,2.49s-4.34-.06-6.52-.07C312.26,244.29,312.07,244.22,311.47,244.11Z"/><path class="cls-1" d="M249.32,142.63c-.06,25.05-20.29,44.89-45.69,44.8-24.59-.09-44.41-20.43-44.36-45.54,0-24.52,20.37-44.57,45.1-44.51A44.91,44.91,0,0,1,249.32,142.63Zm-44.77-35.78a35.55,35.55,0,1,0,35.3,35.68C240,123.26,223.84,106.93,204.55,106.85Z"/><path class="cls-1" d="M76.06,84.83c1.76,1.1,3.16,1.66,4.15,2.63,6,5.87,11.92,11.82,17.83,17.78,2.42,2.44,2.6,5.31.6,7.31s-4.91,1.88-7.32-.52c-6-6-12-12-18-18-1.62-1.61-2.48-3.59-1.26-5.58C72.9,87,74.58,86.11,76.06,84.83Z"/><path class="cls-1" d="M337.72,90.07a27.44,27.44,0,0,1-2.66,4.15q-8.82,9-17.79,17.82c-2.42,2.39-5.32,2.53-7.34.51s-1.81-4.85.62-7.3c6-6,12-12,18-18,1.62-1.62,3.61-2.45,5.59-1.21C335.56,86.91,336.46,88.59,337.72,90.07Z"/><path class="cls-1" d="M96.78,272.78c2.57,0,5.54,2.06,7.23,5.78.89,1.95,1.84,3.07,4.22,3.33A9.49,9.49,0,0,1,113.81,298c-1.77,1.74-2.54,3.4-2,5.93a8.93,8.93,0,0,1-3.86,9.82,9.14,9.14,0,0,1-10.57.17,3.71,3.71,0,0,0-4.32.06c-3.54,2-7.15,2.13-10.57-.29a8.89,8.89,0,0,1-3.81-9.57c.5-2.56-.23-4.29-2-6.21-5.47-5.91-2.51-14.68,5.44-16a5.17,5.17,0,0,0,4.46-3.46C88.26,274.72,91.38,272.82,96.78,272.78Zm10.49,18.05c-7.18,1.27-10.26-2.4-12.11-8.15-1.55,6.16-5,9.13-11.51,8.74,5.48,3.63,6.69,8.28,4,14.48,3.16-1.6,5.42-3.63,7.68-3.63s4.49,2.06,7,3.36c-.38-3-1.52-5.81-.82-8.1S104.79,293.59,107.27,290.83Z"/><path class="cls-1" d="M171.85,291.7a63.34,63.34,0,0,1-4.27,7.06,5.86,5.86,0,0,0-1.39,4.16c.05,2.66,0,5.64-1.13,7.94-2.23,4.56-7.77,5.9-12.51,3.37-1.94-1-3.42-1.24-5.4-.06a9.42,9.42,0,0,1-14-9.61c.44-2.68.16-4.76-2.06-6.79-2.74-2.5-3.33-5.94-2.12-9.53a9,9,0,0,1,7.81-6.36,4.49,4.49,0,0,0,4.14-3c1.65-3.88,4.59-6.1,8.93-6.07s7.23,2.3,8.87,6.18a4.25,4.25,0,0,0,3.91,2.88,9.29,9.29,0,0,1,8.48,9.4Zm-22-8.94c-1.61,6.09-5.24,9-11.67,8.71,5.53,3.64,6.69,8.22,4.24,13.78l14.84-.1c-2.77-5.68-.89-10.14,4.15-13.85C154.85,291.77,151.44,288.84,149.8,282.76Z"/><path class="cls-1" d="M204.65,272.76a9.27,9.27,0,0,1,8.49,6,4.42,4.42,0,0,0,4.05,3.11,8.94,8.94,0,0,1,7.88,6.26,8.75,8.75,0,0,1-2.19,9.8,6.44,6.44,0,0,0-2,6.52,8.78,8.78,0,0,1-3.86,9.27,9,9,0,0,1-10.3.38,4.21,4.21,0,0,0-4.85,0,9.47,9.47,0,0,1-14.21-9.87,6.47,6.47,0,0,0-1.93-6.24c-5.53-5.87-2.63-14.69,5.3-16a5.49,5.49,0,0,0,4.64-3.67C197.38,274.69,200.36,272.8,204.65,272.76Zm11.57,18.12c-6.95,1-10.21-2.29-11.94-8.17-1.61,6-5.12,9.11-11.63,8.75,5.65,3.58,6.55,8.31,4.59,14.29,4.87-4.45,9.41-3.93,14.27.41-.5-3.48-1.68-6.25-1-8.43S213.75,293.7,216.22,290.88Z"/><path class="cls-1" d="M280.89,291.71a65.3,65.3,0,0,1-4.28,7.06,5.8,5.8,0,0,0-1.38,4.15c0,2.66,0,5.64-1.13,7.94-2.24,4.57-7.78,5.9-12.52,3.37-1.94-1-3.43-1.23-5.4-.06a9.41,9.41,0,0,1-14-9.62c.44-2.68.14-4.75-2.07-6.78-2.74-2.51-3.33-5.95-2.11-9.54a9.11,9.11,0,0,1,8.11-6.4,4,4,0,0,0,3.7-2.71c1.67-4,4.59-6.34,9.08-6.32s7.34,2.48,9,6.44a3.78,3.78,0,0,0,3.48,2.57c5.34.65,8.74,4.49,8.76,9.45Zm-29.16,14c4.89-4.32,9.44-3.88,14.3,0-2.49-6.11-.8-10.62,4.36-14.36-6.6.6-9.86-2.69-11.57-8.58-1.64,6-5.12,9.12-11.63,8.72C252.58,295.08,253.89,299.62,251.73,305.66Z"/><path class="cls-1" d="M313.53,272.75a9.33,9.33,0,0,1,8.64,6,4.43,4.43,0,0,0,4.06,3.11,8.94,8.94,0,0,1,7.88,6.26,8.76,8.76,0,0,1-2.19,9.8,6.4,6.4,0,0,0-2,6.52,8.77,8.77,0,0,1-3.87,9.27,9,9,0,0,1-10.3.38,4.21,4.21,0,0,0-4.85,0,9.47,9.47,0,0,1-14.2-9.87,6.11,6.11,0,0,0-2-6.24,8.76,8.76,0,0,1-2.24-9.78,8.94,8.94,0,0,1,7.84-6.31,4.46,4.46,0,0,0,4.1-3.07A9.35,9.35,0,0,1,313.53,272.75Zm-7.28,32.91c4.89-4.32,9.43-3.88,14.29,0-2.48-6.11-.79-10.62,4.62-14.08-3.25-.7-6.22-.57-8-1.95s-2.44-4.28-3.58-6.52l-.73-.6c-.95,6.44-4.7,9.21-11.11,8.94C307.1,295.08,308.41,299.62,306.25,305.66Z"/></svg>