<svg id="Layer_1" data-name="Layer 1" xmlns="http://www.w3.org/2000/svg" viewBox="0 0 65 65"><defs><style>.cls-1{fill:blue;}.cls-2{fill:#f3f945;}</style></defs><path class="cls-1" d="M60.82,31.61c0,3.36,0,6.72,0,10.07A18.19,18.19,0,0,1,46.55,59.52a19.16,19.16,0,0,1-4.14.45c-6.65,0-13.31,0-20,0A18.24,18.24,0,0,1,4.22,44.21a18.05,18.05,0,0,1-.17-2.65q0-9.95,0-19.9A18.15,18.15,0,0,1,17.61,3.85a18.48,18.48,0,0,1,4.75-.62c6.71-.07,13.43,0,20.14,0A18.24,18.24,0,0,1,60.65,19a20.43,20.43,0,0,1,.16,2.71C60.83,25,60.82,28.31,60.82,31.61Zm-4.06.05c0-3.34,0-6.68,0-10a13.77,13.77,0,0,0-.17-2.4,14.16,14.16,0,0,0-14.19-12H22.44A14.2,14.2,0,0,0,8.1,21.61q0,10,0,20A14.83,14.83,0,0,0,8.28,44a14.17,14.17,0,0,0,14.28,12c6.59,0,13.18,0,19.77,0a14.47,14.47,0,0,0,2.46-.17,14.18,14.18,0,0,0,12-14.27C56.77,38.21,56.76,34.93,56.76,31.66Z"/><path class="cls-2" d="M25.52,27.54l-8.15-8.15c-.2-.19-.4-.38-.58-.58a2,2,0,0,1,0-2.85,2,2,0,0,1,2.85,0c1.76,1.73,3.5,3.48,5.24,5.23,1.12,1.11,2.23,2.23,3.43,3.43,0-.29,0-.47,0-.64,0-1.48,0-3,0-4.44a2,2,0,1,1,4.05,0c0,3.31,0,6.63,0,9.94a2,2,0,0,1-2.16,2.13c-3.29,0-6.59,0-9.88,0a2,2,0,1,1,0-4.05Z"/><path class="cls-2" d="M36.49,38.56c0,1.69,0,3.27,0,4.84a3.31,3.31,0,0,1-.1.94,2,2,0,0,1-3.93-.44q0-5.19,0-10.39a1.93,1.93,0,0,1,1.92-1.9q5.16,0,10.32,0a2,2,0,0,1-.07,4c-1.69,0-3.38,0-5.22,0,.22.24.36.4.51.55,2.67,2.67,5.34,5.35,8,8a2.09,2.09,0,0,1,.68,2,2,2,0,0,1-3.37,1c-1-1-1.95-1.94-2.92-2.91L37,39.06C36.88,38.91,36.73,38.78,36.49,38.56Z"/></svg>