<svg id="Layer_1" data-name="Layer 1" xmlns="http://www.w3.org/2000/svg" viewBox="0 0 65 65"><defs><style>.cls-1{fill:#f3f945;}.cls-2{fill:blue;}</style></defs><path class="cls-1" d="M5.85,13.35a11.26,11.26,0,0,1,.63-1q1.93-2.44,3.89-4.87a1.14,1.14,0,0,1,2,0l3.95,4.89c.11.13.2.28.3.42a1.08,1.08,0,0,1-.84,1.81c-.34,0-.69,0-1.09,0v15.1c0,1.18-.34,1.52-1.51,1.52H9.57c-1.13,0-1.51-.38-1.51-1.49V14.59c-.89,0-1.89.15-2.21-1Zm7.65-1L11.4,9.68,9.3,12.31c.87.26,1,.88,1,1.64,0,4.79,0,9.58,0,14.38v.59h2.2v-.66c0-4.83,0-9.66,0-14.48A1.28,1.28,0,0,1,13.5,12.32Z"/><path class="cls-1" d="M52.09,60c-1-.44-.81-1.33-.82-2.2H42.79c-1.09,0-1.47-.39-1.48-1.47V52.59c0-1.1.36-1.45,1.48-1.45h8.5v-1A1.14,1.14,0,0,1,52,49a1.1,1.1,0,0,1,1.21.19l5.27,4.22c.83.66.86,1.38,0,2L52.72,60Zm-8.52-4.44h.68c2.54,0,5.09,0,7.64,0,.76,0,1.42.1,1.65,1l2.63-2.11-2.62-2.1c-.25.89-.88,1-1.63,1-2.6,0-5.2,0-7.8,0h-.55Z"/><path class="cls-2" d="M10.28,46.65V44.52l-.52-.11a2.18,2.18,0,0,1-1.69-2.15c0-2.22,0-4.44,0-6.65a2.18,2.18,0,0,1,2.27-2.21H36.83a2.19,2.19,0,0,1,2.27,2.26q0,3.2,0,6.39a2.21,2.21,0,0,1-2,2.41l-.22.07v2.13A2.28,2.28,0,0,1,39,48.42a3,3,0,0,1,.06.67c0,2.09,0,4.19,0,6.28a2.22,2.22,0,0,1-2.39,2.41H10.48a2.25,2.25,0,0,1-2.42-2.44v-6A2.34,2.34,0,0,1,10.28,46.65Zm0-4.43H36.85V35.64H10.32ZM36.86,55.53V49H10.33v6.58ZM12.52,46.67H34.63V44.53H12.52Z"/><path class="cls-1" d="M19.16,19c.38,0,.76,0,1.14,0a1.07,1.07,0,0,1,1.05,1.12,1,1,0,0,1-1,1.08,20.13,20.13,0,0,1-2.33,0,1,1,0,0,1-1-1.08A1.08,1.08,0,0,1,18,19C18.4,19,18.78,19,19.16,19Z"/><path class="cls-1" d="M46.87,33.4c0,.36,0,.73,0,1.09a1.08,1.08,0,0,1-1.12,1.11,1.07,1.07,0,0,1-1.09-1.09c0-.74,0-1.49,0-2.23a1.11,1.11,0,0,1,2.21,0c0,.38,0,.76,0,1.14Z"/><path class="cls-1" d="M46.87,40.08c0,.36,0,.73,0,1.09a1.09,1.09,0,0,1-1.1,1.08,1.07,1.07,0,0,1-1.11-1.07c0-.76,0-1.52,0-2.28a1.05,1.05,0,0,1,1.12-1,1.08,1.08,0,0,1,1.08,1c0,.39,0,.79,0,1.19Z"/><path class="cls-1" d="M39.09,21.21c-.36,0-.73,0-1.09,0a1.1,1.1,0,0,1-1.1-1.14A1.09,1.09,0,0,1,38,19c.74,0,1.49,0,2.23,0a1.07,1.07,0,0,1,1.08,1.1,1.08,1.08,0,0,1-1.08,1.1c-.38,0-.76,0-1.14,0Z"/><path class="cls-1" d="M46.87,46.72c0,.36,0,.73,0,1.09a1.11,1.11,0,0,1-2.21,0c0-.73,0-1.45,0-2.18a1.08,1.08,0,0,1,1.11-1.11,1.09,1.09,0,0,1,1.11,1.13c0,.36,0,.73,0,1.09Z"/><path class="cls-1" d="M32.49,19c.37,0,.73,0,1.09,0a1.08,1.08,0,0,1,1.07,1.11,1.06,1.06,0,0,1-1.07,1.1,21.68,21.68,0,0,1-2.28,0,1.1,1.1,0,0,1,0-2.2c.4,0,.8,0,1.19,0Z"/><path class="cls-1" d="M25.85,19c.36,0,.72,0,1.09,0a1.1,1.1,0,0,1,0,2.2,21.68,21.68,0,0,1-2.28,0,1.1,1.1,0,0,1,0-2.2c.4,0,.8,0,1.2,0Z"/><path class="cls-1" d="M46.87,26.75c0,.36,0,.72,0,1.09A1.09,1.09,0,0,1,45.74,29a1.08,1.08,0,0,1-1.09-1.09q0-1.11,0-2.22a1.11,1.11,0,0,1,2.21,0C46.89,26,46.87,26.38,46.87,26.75Z"/><path class="cls-1" d="M18.05,9c-.4,0-.8,0-1.19,0a1.09,1.09,0,0,1-1-1,1.08,1.08,0,0,1,1-1.13c.81,0,1.63,0,2.44,0a1.09,1.09,0,0,1,0,2.17C18.85,9,18.45,9,18.05,9Z"/><path class="cls-1" d="M24.69,6.81c.38,0,.76,0,1.14,0a1.1,1.1,0,0,1,1.08,1.1A1.09,1.09,0,0,1,25.82,9q-1.14,0-2.28,0a1.08,1.08,0,0,1-1.06-1.07,1.11,1.11,0,0,1,1.07-1.12C23.93,6.79,24.31,6.81,24.69,6.81Z"/><path class="cls-1" d="M31.34,9c-.4,0-.8,0-1.19,0a1.07,1.07,0,0,1-1-1,1.08,1.08,0,0,1,1-1.12c.81,0,1.63,0,2.44,0a1.07,1.07,0,0,1,1,1.13,1.11,1.11,0,0,1-1,1H31.34Z"/><path class="cls-1" d="M38,9c-.38,0-.76,0-1.14,0a1.1,1.1,0,0,1-1.06-1.07,1.07,1.07,0,0,1,1-1.11,23.82,23.82,0,0,1,2.39,0,1.07,1.07,0,0,1,1,1.09,1.1,1.1,0,0,1-1,1.09H38Z"/><path class="cls-1" d="M44.66,9c-.39,0-.79,0-1.19,0a1.1,1.1,0,0,1,0-2.19c.8,0,1.6,0,2.39,0a1.07,1.07,0,0,1,1,1.11A1.09,1.09,0,0,1,45.8,9C45.42,9,45,9,44.66,9Z"/><path class="cls-1" d="M51.32,9c-.4,0-.8,0-1.19,0a1.09,1.09,0,0,1-1.05-1.08,1.08,1.08,0,0,1,1-1.1,23.62,23.62,0,0,1,2.38,0,1.07,1.07,0,0,1,1,1.11,1.09,1.09,0,0,1-1,1.07C52.08,9,51.7,9,51.32,9Z"/><path class="cls-1" d="M56.86,14.57c0-.39,0-.79,0-1.19A1.09,1.09,0,0,1,59,13.32c0,.81,0,1.63,0,2.44a1.09,1.09,0,0,1-2.18,0C56.84,15.34,56.86,15,56.86,14.57Z"/><path class="cls-1" d="M56.86,27.83c0-.38,0-.76,0-1.14a1.1,1.1,0,0,1,1.08-1.05,1.08,1.08,0,0,1,1.1,1,23.62,23.62,0,0,1,0,2.38,1.09,1.09,0,0,1-2.18,0C56.84,28.63,56.86,28.23,56.86,27.83Z"/><path class="cls-1" d="M59.05,34.51c0,.37,0,.73,0,1.09a1.11,1.11,0,0,1-1.12,1.12,1.08,1.08,0,0,1-1.07-1.11c0-.74,0-1.48,0-2.23a1.08,1.08,0,0,1,1.08-1.09,1.11,1.11,0,0,1,1.11,1.08C59.07,33.75,59.05,34.13,59.05,34.51Z"/><path class="cls-1" d="M56.86,21.19c0-.38,0-.76,0-1.14A1.09,1.09,0,0,1,59,20c0,.79,0,1.59,0,2.38a1.07,1.07,0,0,1-1.09,1,1.09,1.09,0,0,1-1.09-1.09c0-.38,0-.76,0-1.14Z"/><path class="cls-1" d="M56.86,41.13c0-.38,0-.76,0-1.14a1.09,1.09,0,0,1,1.08-1.05A1.07,1.07,0,0,1,59,40a23.82,23.82,0,0,1,0,2.39,1.09,1.09,0,0,1-2.18,0C56.84,41.92,56.86,41.52,56.86,41.13Z"/><path class="cls-1" d="M56.86,47.78c0-.38,0-.76,0-1.14a1.09,1.09,0,0,1,1.07-1,1.07,1.07,0,0,1,1.1,1A20.52,20.52,0,0,1,59,49a1.07,1.07,0,0,1-1.09,1A1.1,1.1,0,0,1,56.86,49C56.84,48.58,56.86,48.18,56.86,47.78Z"/><path class="cls-1" d="M45.21,19a7,7,0,0,1,.92.12c.51.15.74.58.74,1.28s.16,1.51-.71,1.88a1.12,1.12,0,0,1-1.45-.64.83.83,0,0,0-.36-.42A1.11,1.11,0,0,1,44.69,19h.52Z"/><path class="cls-1" d="M57.38,6.77a7,7,0,0,1,.92.11c.53.15.76.56.75,1.26s.19,1.55-.74,1.91a1.1,1.1,0,0,1-1.42-.69A.8.8,0,0,0,56.52,9a1.16,1.16,0,0,1-.78-1.21,1.13,1.13,0,0,1,1.12-1h.52Z"/><path class="cls-1" d="M14.73,40c-.38,0-.76,0-1.14,0a1.09,1.09,0,0,1-1.08-1.11,1.08,1.08,0,0,1,1.09-1.08q1.14,0,2.28,0a1.09,1.09,0,0,1,1.06,1.07A1.11,1.11,0,0,1,15.87,40C15.49,40.06,15.11,40,14.73,40Z"/><path class="cls-1" d="M33.55,37.85a1.06,1.06,0,0,1,1.1,1A1.08,1.08,0,0,1,33.58,40a1.11,1.11,0,0,1-1.12-1.11A1.08,1.08,0,0,1,33.55,37.85Z"/><path class="cls-1" d="M14.68,53.34c-.36,0-.72,0-1.09,0a1.11,1.11,0,0,1-1.08-1.1,1.07,1.07,0,0,1,1.08-1.09q1.14,0,2.28,0a1.07,1.07,0,0,1,1.06,1.06,1.1,1.1,0,0,1-1,1.13c-.4,0-.8,0-1.2,0Z"/><path class="cls-1" d="M33.58,51.14a1.08,1.08,0,0,1,1.08,1.09,1.1,1.1,0,0,1-1.11,1.11,1.11,1.11,0,0,1-1.09-1.09A1.1,1.1,0,0,1,33.58,51.14Z"/></svg>