<svg id="Layer_1" data-name="Layer 1" xmlns="http://www.w3.org/2000/svg" viewBox="0 0 65 65"><defs><style>.cls-1{fill:#190f2d;}</style></defs><path class="cls-1" d="M6.06,53.38H60.81a2.6,2.6,0,0,1,2.73,1.68,2.57,2.57,0,0,1-2.21,3.41,5,5,0,0,1-.55,0H3.86a2.6,2.6,0,0,1-2.84-2A3,3,0,0,1,1,55.78q0-21.48,0-43a2.53,2.53,0,0,1,1.65-2.5A2.4,2.4,0,0,1,5.36,11,4.72,4.72,0,0,1,6,12.47a2.73,2.73,0,0,1,0,.86q0,19.59,0,39.19Z"/><path class="cls-1" d="M52.45,26.23a15.63,15.63,0,0,1,.65-5.61,10.32,10.32,0,0,1,1.49-2.87,3.84,3.84,0,0,1,5.2-.9,7.84,7.84,0,0,1,3.38,4.56,25.77,25.77,0,0,1,.74,3.49A1,1,0,0,1,63,26.14c-.61.05-1-.33-1.08-1.07a10.49,10.49,0,0,0-1.5-4.78,6.37,6.37,0,0,0-1.39-1.54,2,2,0,0,0-3.14.49,9.21,9.21,0,0,0-1.1,2.58,21.26,21.26,0,0,0-.38,6,7.48,7.48,0,0,1-2.85,6.1A5.82,5.82,0,0,1,46,35.27a5.92,5.92,0,0,1-3.71-3.38c-.32-.65-.59-1.31-.94-1.94a8.3,8.3,0,0,0-1-1.46c-1.8-2.09-4.1-2.12-5.94-.08a10.24,10.24,0,0,0-2.33,6.24,11.55,11.55,0,0,1-2.23,6.55,5.5,5.5,0,0,1-5.08,2.36,4.84,4.84,0,0,1-3.26-1.92,10,10,0,0,1-1.68-3.8,9.39,9.39,0,0,0-1-2.45A1.9,1.9,0,0,0,16,34.74a7.17,7.17,0,0,0-2.67,2.93c-.8,1.55-1.47,3.16-2.19,4.75-.1.2-.14.43-.23.64a1,1,0,0,1-1.24.61A1,1,0,0,1,9,42.43a21,21,0,0,1,4.13-7.85,8.3,8.3,0,0,1,2.21-1.74,3.78,3.78,0,0,1,5,1.18,10.1,10.1,0,0,1,1.5,3.54,9.83,9.83,0,0,0,1.1,2.65,2.87,2.87,0,0,0,4.53.6A7.59,7.59,0,0,0,30,35.67a22.35,22.35,0,0,1,1-5.19,9.31,9.31,0,0,1,3-4.36,5.35,5.35,0,0,1,6.92.14,10.76,10.76,0,0,1,2.8,3.87,11.92,11.92,0,0,0,1.13,2,3.35,3.35,0,0,0,4,1.13,5.68,5.68,0,0,0,3.65-4.85C52.49,27.71,52.45,27,52.45,26.23Z"/><path class="cls-1" d="M60.83,9.65c0,.64,0,1.28,0,1.92s-.36,1.17-1.12,1.18c-1.3,0-2.59,0-3.89,0-.77,0-1.12-.39-1.12-1.17,0-1.26,0-2.51,0-3.77a1,1,0,0,1,1.17-1.18h3.77A1,1,0,0,1,60.82,7.8C60.84,8.42,60.83,9,60.83,9.65Z"/><path class="cls-1" d="M35.05,39.65c0-.61,0-1.23,0-1.84a1,1,0,0,1,1.13-1.16h3.88a1,1,0,0,1,1.11,1.11c0,1.3,0,2.59,0,3.88,0,.77-.39,1.12-1.16,1.13H36.19a1,1,0,0,1-1.14-1.15C35,41,35.05,40.31,35.05,39.65Z"/><path class="cls-1" d="M38.26,15.79c0,.66,0,1.32,0,2a1,1,0,0,1-1,1.05q-2,0-4,0a1,1,0,0,1-1-1.05c0-1.33,0-2.67,0-4a.94.94,0,0,1,1-1c1.34,0,2.67,0,4,0,.69,0,1,.4,1,1.11S38.26,15.14,38.26,15.79Z"/><path class="cls-1" d="M21.58,28.69c0-.64,0-1.28,0-1.91a1,1,0,0,1,1.09-1.13h3.95a1,1,0,0,1,1.05,1c0,1.33,0,2.67,0,4a1,1,0,0,1-1,1.06c-1.34,0-2.68,0-4,0a1,1,0,0,1-1.06-1.09C21.57,30,21.58,29.35,21.58,28.69Z"/><path class="cls-1" d="M15.17,26.64c0,.65,0,1.31,0,2a1,1,0,0,1-1.11,1.1H10.17a1,1,0,0,1-1.08-1.06q0-2,0-4a.93.93,0,0,1,1-1c1.38,0,2.76,0,4.14,0,.63,0,.95.4,1,1.05S15.17,26,15.17,26.64Zm-2-1H11.1v2.1h2.07Z"/><path class="cls-1" d="M56.39,30.33c0-.64,0-1.28,0-1.92s.34-1.09,1-1.1c1.34,0,2.68,0,4,0a.94.94,0,0,1,1,1.05c0,1.34,0,2.67,0,4a.94.94,0,0,1-1,1q-2,0-4,0a1,1,0,0,1-1-1C56.38,31.68,56.39,31,56.39,30.33Zm2,1.07h2.09V29.33H58.39Z"/><path class="cls-1" d="M46.39,25.42c-.64,0-1.28,0-1.91,0s-1.09-.34-1.1-1q0-2,0-4a.94.94,0,0,1,1-1c1.34,0,2.68,0,4,0a1,1,0,0,1,1,1c0,1.34,0,2.67,0,4a1,1,0,0,1-1,1C47.75,25.44,47.07,25.42,46.39,25.42Zm1.09-4.08h-2.1v2.07h2.1Z"/><path class="cls-1" d="M20.22,48.3c0,.66,0,1.32,0,2a1,1,0,0,1-1.07,1.09c-1.32,0-2.63,0-3.95,0a1,1,0,0,1-1.09-1.06c0-1.32,0-2.64,0-3.95,0-.75.38-1.08,1.13-1.08,1.27,0,2.55,0,3.83,0,.8,0,1.14.36,1.15,1.18C20.23,47.06,20.22,47.68,20.22,48.3Zm-2,1.06V47.28H16.12v2.08Z"/></svg>