<svg id="Layer_1" data-name="Layer 1" xmlns="http://www.w3.org/2000/svg" viewBox="0 0 65 65"><defs><style>.cls-1{fill:#190f2d;}</style></defs><path class="cls-1" d="M50.17,33.11V8.7c0-1.47-.51-2-2-2H8.55c-1.44,0-2,.52-2,1.94V54.47c0,1.41.53,1.94,2,1.94H31.85c.24,0,.47,0,.7,0A1.52,1.52,0,0,1,34,57.94a1.53,1.53,0,0,1-1.37,1.5c-.21,0-.42,0-.63,0H8.51a4.6,4.6,0,0,1-5-5V8.65a4.6,4.6,0,0,1,5-5H48.23a4.6,4.6,0,0,1,5,5q0,12.5,0,25a.84.84,0,0,0,.51.88,14.29,14.29,0,1,1-5.26-1.63C49,32.91,49.55,33,50.17,33.11Zm-14.48,14A11.3,11.3,0,1,0,47,35.83,11.3,11.3,0,0,0,35.69,47.14Z"/><path class="cls-1" d="M26.25,25.22l4-4.92,3.81-4.66a1.58,1.58,0,0,1,2.68-.15l3.63,3.65,1.41-1.74c.53-.66,1-1.33,1.59-2a1.51,1.51,0,1,1,2.36,1.88q-2,2.52-4,5a1.5,1.5,0,0,1-2.38.1c-1.11-1.09-2.21-2.21-3.32-3.31-.14-.15-.3-.29-.49-.47L32,23l-4.25,5.2c-.93,1.13-1.76,1.16-2.81.11l-5.1-5.1-.55-.52-2,2.29L14,28.76a1,1,0,0,0-.29.53c0,1.58,0,3.16,0,4.81H29.87a5.3,5.3,0,0,1,.69,0,1.51,1.51,0,0,1,0,3,3.58,3.58,0,0,1-.57,0H12.58c-1.41,0-1.94-.53-1.94-2V12.56A1.59,1.59,0,0,1,12,10.78a1.55,1.55,0,0,1,1.7,1.68V24.25l.18.17a5.14,5.14,0,0,1,.35-.55q1.83-2.1,3.67-4.19c.93-1.06,1.72-1.08,2.73-.07l5.11,5.1C25.88,24.88,26.05,25,26.25,25.22Z"/><path class="cls-1" d="M20.27,41.19c2.63,0,5.27,0,7.91,0a1.58,1.58,0,0,1,1.56.87,1.52,1.52,0,0,1-1.15,2.16,4.38,4.38,0,0,1-.63,0H12.21a1.52,1.52,0,1,1,0-3h8Z"/><path class="cls-1" d="M16.72,50.32H12.36a1.53,1.53,0,1,1,0-3h8.79a1.53,1.53,0,1,1,0,3Z"/><path class="cls-1" d="M48.51,43c0,1,0,1.95,0,2.92a1.16,1.16,0,0,0,.42,1c1.51,1.36,3,2.73,4.48,4.12a2.55,2.55,0,0,1,.68,1,1.4,1.4,0,0,1-.71,1.61,1.47,1.47,0,0,1-1.81-.22c-.9-.8-1.77-1.62-2.66-2.44S47,49.24,46.1,48.39a1.83,1.83,0,0,1-.63-1.45c0-2.39,0-4.78,0-7.16A1.49,1.49,0,0,1,47,38.13a1.52,1.52,0,0,1,1.52,1.66C48.52,40.85,48.51,41.91,48.51,43Z"/></svg>