<svg id="Layer_1" data-name="Layer 1" xmlns="http://www.w3.org/2000/svg" viewBox="0 0 65 65"><defs><style>.cls-1{fill:#190f2d;}</style></defs><path class="cls-1" d="M15.35,21.62a16.76,16.76,0,0,1,15.43-16A16.19,16.19,0,0,1,43.17,9.75a16.56,16.56,0,0,1,5.64,11.87h8.53c.84,0,1,.17,1,1v3.82c0,1-.13,1.15-1.12,1.15-2.91,0-5.81,0-8.71,0a.74.74,0,0,0-.83.59A15.66,15.66,0,0,1,44,33.91c-.3.31-.4.53-.14.93.47.72.89,1.48,1.3,2.24a.6.6,0,0,0,.67.36,1.94,1.94,0,0,1,2,1q3.72,6.4,7.4,12.82A2,2,0,0,1,54.5,54c-2.1,1.25-4.22,2.48-6.36,3.67a2,2,0,0,1-2.86-1q-2.61-4.51-5.21-9l-2-3.48a2.08,2.08,0,0,1,.08-2.38.6.6,0,0,0,.06-.52c-.48-.88-1-1.74-1.5-2.62-.2-.39-.45-.23-.72-.17a16.52,16.52,0,0,1-13.1-2.32,16.32,16.32,0,0,1-6.45-8,.71.71,0,0,0-.79-.56c-2.69,0-5.39,0-8.08,0-.89,0-1-.16-1-1V22.68c0-.92.15-1.06,1.09-1.06h7.73ZM43.81,38.38,42,35.2c-.66-1.15-.64-1.22.31-2.15a14.42,14.42,0,0,0,4.54-12.57A14.88,14.88,0,1,0,36.19,36.53c1.09-.3,1.24-.24,1.82.76s1.27,2.19,1.93,3.33Z"/><path class="cls-1" d="M17.25,57.93c-2.95,0-5.89,0-8.83,0a2,2,0,0,1-2.15-2.33,2.4,2.4,0,0,1,.31-.86Q11,47.07,15.42,39.4a2,2,0,0,1,3.69,0Q23.55,47.05,28,54.72a2.05,2.05,0,0,1-1.89,3.2C23.13,57.94,20.19,57.93,17.25,57.93Zm.12-17.84-.22,0L8,56H26.57Z"/><path class="cls-1" d="M32,34.22a12,12,0,1,1,12-11.92A12,12,0,0,1,32,34.22Zm10.12-12.6a10.07,10.07,0,0,0-10.4-9.5A10,10,0,0,0,22,21.62c.86,0,1.72,0,2.57,0a1.52,1.52,0,0,0,.9-.37c1.94-1.9,3.86-3.83,5.78-5.75.76-.76.84-.76,1.63,0q2.88,2.88,5.77,5.75a1.07,1.07,0,0,0,.6.35C40.22,21.64,41.16,21.62,42.16,21.62Zm-18.63,6a10.1,10.1,0,0,0,17.15,0c-1.27,0-2.38,0-3.49,0a1.66,1.66,0,0,1-1-.42c-1-.88-1.85-1.81-2.76-2.73l-1.3-1.36c-1.17,1.17-2.32,2.21-3.33,3.37a3.05,3.05,0,0,1-2.84,1.18A21.31,21.31,0,0,0,23.53,27.61Z"/><path class="cls-1" d="M18.2,47.54c0,1,0,2.05,0,3.07a.83.83,0,0,1-.65.93,1.56,1.56,0,0,1-1-.31c-.16-.1-.21-.43-.21-.66,0-2,0-4.07,0-6.1a.92.92,0,1,1,1.84,0C18.21,45.48,18.2,46.51,18.2,47.54Z"/><path class="cls-1" d="M17.25,54.76a.9.9,0,0,1-.89-.91.86.86,0,0,1,.94-.9.87.87,0,0,1,.86.92A.9.9,0,0,1,17.25,54.76Z"/></svg>