<svg id="Layer_1" data-name="Layer 1" xmlns="http://www.w3.org/2000/svg" viewBox="0 0 65 65"><defs><style>.cls-1{fill:blue;}.cls-2{fill:#f3f945;}</style></defs><path class="cls-1" d="M51.32,44.7H54a1.41,1.41,0,0,1,1.11,2.37q-3.84,4.51-7.67,9a1.37,1.37,0,0,1-2.24,0c-1-1.18-2-2.37-3-3.5-1.16.72-2.26,1.48-3.43,2.09a18.88,18.88,0,0,1-10,2,17.74,17.74,0,0,1-10.68-4,14.49,14.49,0,0,1-5.6-12,15.65,15.65,0,0,1,2.29-7.57,64.07,64.07,0,0,1,7.69-10l.61-.71s0-.06,0-.09c-1.51-1-2.09-2.2-1.79-3.7s1.3-2.28,3.11-2.66l-2.52-2.51a3.31,3.31,0,0,1-1.05-2.4,3.36,3.36,0,0,1,4.87-3.06c.77.38.85.35,1.13-.47a3.36,3.36,0,0,1,6.4,0c.25.77.36.81,1.11.44a3.36,3.36,0,0,1,4.19,1,3.32,3.32,0,0,1-.18,4.3c-.74.8-1.53,1.55-2.3,2.32l-.38.41a3.28,3.28,0,0,1,3.11,2.83A3.24,3.24,0,0,1,37,22.21l4.33,5a2.08,2.08,0,0,1,2.41-1.67c1.81,0,3.61,0,5.41,0a2,2,0,0,1,2.18,2.19V44.7Zm-10,0a3.43,3.43,0,0,0,0-.41q0-6.93,0-13.87a1.24,1.24,0,0,0-.29-.73q-2.89-3.47-5.85-6.89a1,1,0,0,0-.66-.29c-3,0-6,0-9,0a1,1,0,0,0-.62.28c-.62.64-1.22,1.32-1.82,2a59.06,59.06,0,0,0-6.9,9.14,13.9,13.9,0,0,0-2.06,6.46A12.57,12.57,0,0,0,19.44,51.5c5.58,4.18,11.71,4.5,18.08,2a12.74,12.74,0,0,0,3.55-2.24c-1.17-1.37-2.31-2.73-3.46-4.06a1.43,1.43,0,0,1,1.16-2.46C39.61,44.71,40.45,44.7,41.32,44.7Zm-2.19,1.66,7.2,8.48,7.2-8.48H51c-1.1,0-1.29-.2-1.29-1.3V27.91c0-.65,0-.68-.67-.68H43.75c-.74,0-.74,0-.74.76V45.18c0,.92-.26,1.18-1.17,1.18ZM30,15.9c.95,0,1.9,0,2.85,0a1.19,1.19,0,0,0,.68-.26q1.74-1.71,3.45-3.45a1.69,1.69,0,0,0,.25-2.3A1.71,1.71,0,0,0,35,9.45a2.14,2.14,0,0,1-3.28-1.36,1.71,1.71,0,0,0-3.32,0,2.13,2.13,0,0,1-3.3,1.35,1.72,1.72,0,0,0-2.23.43,1.7,1.7,0,0,0,.2,2.27q1.74,1.78,3.53,3.52a.89.89,0,0,0,.58.24C28.13,15.92,29.08,15.9,30,15.9Zm.07,1.67H24.72a1.64,1.64,0,1,0,0,3.27H35.44a2.16,2.16,0,0,0,.94-.22,1.58,1.58,0,0,0,.8-1.76,1.63,1.63,0,0,0-1.57-1.28C33.78,17.56,31.94,17.57,30.11,17.57Z"/><path class="cls-2" d="M29.2,46.18c-.65-.23-1.26-.39-1.81-.65A4.44,4.44,0,0,1,25,42.75a.85.85,0,0,1,.5-1.19c.49-.16.87.08,1.09.68a3.51,3.51,0,0,0,4,2.21,6,6,0,0,0,1.77-.53,1.94,1.94,0,0,0,.23-3.43,8.56,8.56,0,0,0-2.19-.87c-.79-.25-1.63-.35-2.4-.64a3.64,3.64,0,0,1-2.63-3.59,4,4,0,0,1,2.73-3.68c.35-.13.72-.22,1.12-.35,0-.36,0-.72,0-1.09a.82.82,0,0,1,.78-.82.84.84,0,0,1,.86.74,3.62,3.62,0,0,1,0,.57v.6l.8.23a4.65,4.65,0,0,1,3,2.57.86.86,0,0,1-.28,1.25c-.46.24-.91,0-1.21-.53A3.53,3.53,0,0,0,28,33.6a2.05,2.05,0,0,0,.21,3.65,18.25,18.25,0,0,0,2.83.79,5.88,5.88,0,0,1,3.12,1.64,3.56,3.56,0,0,1-.75,5.52,9.6,9.6,0,0,1-2.21.83c-.27.08-.37.17-.35.44a6.77,6.77,0,0,1,0,.78A.83.83,0,0,1,30,48a.82.82,0,0,1-.77-.83c0-.18,0-.38,0-.57Z"/></svg>