<svg id="Layer_1" data-name="Layer 1" xmlns="http://www.w3.org/2000/svg" viewBox="0 0 65 65"><defs><style>.cls-1{fill:blue;}.cls-2{fill:#f3f945;}</style></defs><path class="cls-1" d="M59.38,60.28a1.33,1.33,0,0,1-1.3.65H5.42c-1,0-1.3-.29-1.3-1.28,0-7.14,0-14.28,0-21.42A1.31,1.31,0,0,1,4.82,37c2.91-1.73,5.8-3.47,8.7-5.21,1-.58,1.64-.21,1.65.94v5.14l.59-.47,6.87-5.49c.37-.29.73-.54,1.22-.31a1.12,1.12,0,0,1,.55,1.15v5.08c.2-.15.34-.24.46-.34l7-5.56c.37-.29.73-.56,1.22-.34s.57.69.57,1.18c0,1.65,0,3.31,0,5.08l.51-.38L40.88,32a3.91,3.91,0,0,1,.47-.36.88.88,0,0,1,1.42.68c0,.68,0,1.37,0,2v3.49h1.9c.07-.87.14-1.74.2-2.62q.68-9.81,1.34-19.64l.21-3.12c.07-1,.35-1.3,1.37-1.3h4.8c.89,0,1.2.31,1.26,1.18l1,15.18c.23,3.31.45,6.63.68,10l0,.42c.84,0,1.67,0,2.51,0a1.15,1.15,0,0,1,1.22.68ZM57.52,39.75H42.32c-1.07,0-1.37-.3-1.37-1.38V34.86c0-.15,0-.3,0-.51l-.53.4c-2.28,1.83-4.58,3.66-6.86,5.5-.37.29-.74.53-1.22.31s-.55-.7-.55-1.19c0-1.53,0-3.06,0-4.58a4.36,4.36,0,0,0,0-.45l-.44.34-7,5.59a1.06,1.06,0,0,1-1.23.27c-.46-.23-.5-.65-.5-1.1V34.29l-.7.55-6.74,5.4a1.13,1.13,0,0,1-1.22.33c-.51-.23-.57-.69-.57-1.18,0-1.59,0-3.17,0-4.75,0-.18,0-.37,0-.62-2.37,1.42-4.64,2.79-6.93,4.14a.78.78,0,0,0-.42.77q0,9.8,0,19.59c0,.17,0,.35,0,.53h27.6V47.57c0-1.12.27-1.38,1.41-1.39h6.37c1.2,0,1.43.24,1.43,1.42V59.05H57.52ZM48.27,13,46.56,37.87h7.23c-.57-8.3-1.14-16.56-1.71-24.83Zm-12.8,35v11h5.44v-11Z"/><path class="cls-2" d="M47.73,5.66a3.5,3.5,0,0,1,2,1.5,1,1,0,0,0,.55.35,1,1,0,0,1,.77,1.07A.93.93,0,0,1,50,9.32a2.2,2.2,0,0,1-1.63-.93c-.13-.17-.25-.35-.39-.52-.38-.45-.61-.46-1.06-.07a9.62,9.62,0,0,1-1.15,1,2.26,2.26,0,0,1-3.21-.29,7.89,7.89,0,0,1-.66-.63.6.6,0,0,0-1,0c-.21.22-.43.44-.66.64a2.39,2.39,0,0,1-3.56,0c-.51-.41-1.09-.72-1.6-1.13a1.44,1.44,0,0,1-.47-.78c-.1-.47.27-.73.65-.94h.43c1.17.23,1.86,1.22,2.78,1.85.93-.65,1.58-1.61,2.72-1.85h.44A5.05,5.05,0,0,1,43.71,7c.59.6.68.59,1.3,0a5.3,5.3,0,0,1,2-1.35Z"/><path class="cls-1" d="M17,51.68c0-.81,0-1.62,0-2.43S17.32,48,18.21,48c1.06,0,2.12,0,3.18,0,.82,0,1.15.33,1.16,1.14,0,1.69,0,3.38,0,5.08,0,.8-.36,1.14-1.17,1.14H18.2c-.84,0-1.17-.33-1.18-1.18S17,52.53,17,51.68Zm1.89-1.77v3.62h1.77V49.91Z"/><path class="cls-1" d="M15.17,51.75c0,.85,0,1.69,0,2.54S14.81,55.4,14,55.4c-1.08,0-2.16,0-3.23,0-.8,0-1.15-.35-1.16-1.16q0-2.54,0-5.07c0-.78.34-1.12,1.12-1.13,1.1,0,2.19,0,3.29,0,.8,0,1.1.32,1.12,1.12S15.17,50.89,15.17,51.75Zm-1.88,1.78v-3.6H11.52v3.6Z"/><path class="cls-1" d="M24.39,51.71V49.18c0-.81.31-1.13,1.1-1.14,1.11,0,2.23,0,3.35,0,.74,0,1.07.36,1.07,1.11q0,2.57,0,5.13c0,.77-.35,1.12-1.13,1.12-1.1,0-2.19,0-3.29,0-.75,0-1.09-.35-1.09-1.1S24.39,52.58,24.39,51.71ZM28,53.53V49.92H26.28v3.61Z"/></svg>