<svg id="Layer_1" data-name="Layer 1" xmlns="http://www.w3.org/2000/svg" viewBox="0 0 65 65"><defs><style>.cls-1{fill:#190f2d;}</style></defs><path class="cls-1" d="M45.24,16.32c0,.13,0,.22,0,.31,0,2.25.06,4.5,0,6.75A12.93,12.93,0,0,1,19.47,24c-.22-2-.08-4.11-.1-6.16,0-.5,0-1,0-1.54ZM39,26.36a6.71,6.71,0,1,0-6.73,6.7A6.71,6.71,0,0,0,39,26.36Z"/><path class="cls-1" d="M32.32,6.09H46c1,0,1.14.14,1.15,1.15q0,3.06,0,6.1c0,.86-.18,1.05-1,1.05H18.48c-.83,0-1-.19-1-1.05V7.19c0-.94.16-1.1,1.08-1.1Z"/><path class="cls-1" d="M31.06,55.65c-4.11-.07-8.56-2.15-12.22-6a1,1,0,1,1,1.37-1.29,16.36,16.36,0,0,0,9.25,5.16,16,16,0,0,0,14.6-4.77l.44-.46a.94.94,0,1,1,1.35,1.3,18.47,18.47,0,0,1-14.79,6.07Z"/><path class="cls-1" d="M61.53,27.73a14.39,14.39,0,0,1-11.34,14c-.73.16-1.21-.07-1.35-.65s.19-1,1-1.21c4.79-1.26,8-4.17,9.42-9A12.47,12.47,0,0,0,59.14,24a3.81,3.81,0,0,1-.13-.45.93.93,0,0,1,.66-1.19.89.89,0,0,1,1.15.72c.27,1.41.48,2.84.71,4.26A2,2,0,0,1,61.53,27.73Z"/><path class="cls-1" d="M2.94,27.66c.29-1.48.55-3,.87-4.46A.91.91,0,0,1,5,22.41a1,1,0,0,1,.58,1.32A12.51,12.51,0,0,0,7.28,34.9a12.69,12.69,0,0,0,7.43,5L15,40c.64.18.94.6.82,1.15a.93.93,0,0,1-1.27.67,17.48,17.48,0,0,1-1.91-.56A14.3,14.3,0,0,1,3.11,27.7Z"/><path class="cls-1" d="M31.79,50a13.12,13.12,0,0,1-9.23-4.3c-.55-.56-.59-1.12-.14-1.53s1-.32,1.49.22A11.45,11.45,0,0,0,30.77,48a11.31,11.31,0,0,0,9.76-3.39c.14-.13.26-.28.41-.41a.92.92,0,0,1,1.28,0,.9.9,0,0,1,.07,1.31,17.2,17.2,0,0,1-1.94,1.78A13.37,13.37,0,0,1,31.79,50Z"/><path class="cls-1" d="M7.34,27.34c.19-1.06.35-2.12.59-3.16.16-.73.65-1,1.21-.86s.78.65.59,1.37a8.63,8.63,0,0,0,2.5,9.15,9,9,0,0,0,4,2.07c.73.19,1.06.78.76,1.35a.94.94,0,0,1-1.14.49A10.83,10.83,0,0,1,7.34,27.34Z"/><path class="cls-1" d="M57.31,27.34a10.84,10.84,0,0,1-8.55,10.41,1,1,0,0,1-1.2-.65.92.92,0,0,1,.77-1.18,8.93,8.93,0,0,0,5-3.05A8.61,8.61,0,0,0,55,25.09c0-.17-.1-.34-.14-.51a1,1,0,0,1,.62-1.26.92.92,0,0,1,1.19.75C56.93,25.15,57.11,26.25,57.31,27.34Z"/><path class="cls-1" d="M32.32,44.4a8.52,8.52,0,0,1-6.17-2.7c-.49-.51-.53-1-.13-1.45s1-.37,1.49.14A6.3,6.3,0,0,0,34.75,42a11,11,0,0,0,2.48-1.71c.62-.48,1.46-.36,1.59.35a1.35,1.35,0,0,1-.32,1A8.31,8.31,0,0,1,32.32,44.4Z"/><path class="cls-1" d="M11.72,27.06c.12-.69.22-1.39.39-2.07a.93.93,0,0,1,1.17-.77,1,1,0,0,1,.63,1.26,5.31,5.31,0,0,0-.08,2.77,4.89,4.89,0,0,0,3.5,3.54c.15.05.31.08.45.14a.89.89,0,0,1,.58,1.13.85.85,0,0,1-1,.65A6.38,6.38,0,0,1,16,33.33,6.94,6.94,0,0,1,11.72,27.06Z"/><path class="cls-1" d="M52.91,27a7,7,0,0,1-5.25,6.65c-.72.18-1.24,0-1.38-.61s.15-1,.87-1.22a4.91,4.91,0,0,0,3.6-6.25c-.17-.71.06-1.21.62-1.36s1,.18,1.21.89S52.8,26.38,52.91,27Z"/><path class="cls-1" d="M27.5,26.35a4.82,4.82,0,1,1,4.8,4.82A4.84,4.84,0,0,1,27.5,26.35Zm2.32,0a2.5,2.5,0,1,0,2.47-2.53A2.51,2.51,0,0,0,29.82,26.36Z"/></svg>