<svg id="Layer_1" data-name="Layer 1" xmlns="http://www.w3.org/2000/svg" viewBox="0 0 65 65"><defs><style>.cls-1{fill:blue;}.cls-2{fill:#f3f945;}</style></defs><path class="cls-1" d="M31.71,56.64H33.4V42.28c0-1.05.22-1.27,1.28-1.27h3.16c.93,0,1.16.23,1.16,1.16V56.63h1.73V38.51c0-1,.21-1.21,1.2-1.21h3.32c.81,0,1.07.26,1.07,1.09V56.62a3.08,3.08,0,0,0,.38,0c1.93,0,3.86,0,5.8,0a1.12,1.12,0,0,0,1.26-1.28q0-12.47,0-24.94c0-.1,0-.2,0-.37H45.63a2.36,2.36,0,0,1-.46,0,.79.79,0,0,1-.71-.82.78.78,0,0,1,.72-.81,2.36,2.36,0,0,1,.46,0h8.11c0-1.45,0-2.86,0-4.27a1,1,0,0,0-1-.9H43.92s0,0-.1.09c0,.3,0,.66,0,1a.83.83,0,0,1-.86.89.81.81,0,0,1-.8-.89q0-3.83,0-7.66a1.3,1.3,0,0,1,1.35-1.39c1.76,0,3.52,0,5.28,0a.85.85,0,0,1,.91.92,5.66,5.66,0,0,1,0,.62l3.53-2.78L49.8,11.34c0,.07-.08.09-.08.12-.07,1.22-.2,1.34-1.42,1.34H41.72a1.83,1.83,0,0,0-2.06,2.07v2.9c0,.14,0,.27,0,.41a.83.83,0,0,1-.84.81.79.79,0,0,1-.81-.83c0-1.27-.06-2.55,0-3.82a3.39,3.39,0,0,1,3.43-3.2c2,0,4,0,5.95,0H48v-.58a1.29,1.29,0,0,1,2.16-1l3.7,2.91c.26.2.52.4.77.61a1.24,1.24,0,0,1,0,1.95q-2.28,1.86-4.63,3.65a1.26,1.26,0,0,1-2-1c0-.22,0-.44,0-.7H43.85v4.57h.58c2.63,0,5.28.06,7.91,0a2.94,2.94,0,0,1,3.1,3.08c0,10.21,0,20.42,0,30.63a2.79,2.79,0,0,1-3.08,3.07H12.76a2.79,2.79,0,0,1-3.08-3.07V24.62a2.77,2.77,0,0,1,3-3.06h8.53V17H17.11c0,.23,0,.47-.05.7a1.26,1.26,0,0,1-2,1Q12.69,16.88,10.41,15a1.22,1.22,0,0,1,0-1.94c1.51-1.21,3-2.4,4.55-3.59a1.3,1.3,0,0,1,2.08,1c0,.2,0,.41,0,.68h6.41a3.43,3.43,0,0,1,3.6,3.37c.06,1.22,0,2.45,0,3.67,0,.42-.17.8-.6.84a1.22,1.22,0,0,1-.86-.27,1.17,1.17,0,0,1-.2-.77c0-1,0-2.07,0-3.1a1.84,1.84,0,0,0-2.07-2.07H16.91c-1.35,0-1.43-.07-1.55-1.5l-3.49,2.75,3.48,2.74c0-.2,0-.33.05-.45,0-.77.31-1.05,1.09-1.05h4.87A1.39,1.39,0,0,1,23,16.87c0,2.45,0,4.9,0,7.35,0,.66-.31,1-.83,1s-.83-.37-.83-1c0-.31,0-.62,0-1l-.53,0c-2.67,0-5.35,0-8,0-1,0-1.39.36-1.39,1.4v3.78h8c.14,0,.28,0,.42,0a.82.82,0,0,1,.85.85.81.81,0,0,1-.84.8c-.92,0-1.83,0-2.74,0H11.34V55.2c0,1.1.36,1.46,1.45,1.46h6v-6.5c0-.78.28-1,1.06-1h3.47c.81,0,1.07.27,1.07,1.09v6.43h1.73V46.32c0-.94.22-1.17,1.15-1.17h3.36c.81,0,1.08.28,1.09,1.1V56.64ZM44.64,39H42.42V56.62h2.22ZM37.3,56.64V42.71H35.11V56.64ZM30,46.86H27.81v9.77H30Zm-7.33,9.78V50.81H20.47v5.83Z"/><path class="cls-2" d="M26.33,19.55c.45.19.85.4,1.27.53a1.39,1.39,0,0,0,.7,0c.33-.1.63-.32,1-.39a1.25,1.25,0,0,0,.94-1c.38-1.09.42-1.09,1.56-1.09.67,0,1.34,0,2,0a.85.85,0,0,1,1,.67,1.78,1.78,0,0,0,1.51,1.52.35.35,0,0,1,.14.06,1.38,1.38,0,0,0,1.61,0c.85-.44,1-.38,1.66.3.5.5,1,1,1.51,1.5a.87.87,0,0,1,.2,1.17,2.14,2.14,0,0,0,0,2.2,2,2,0,0,0,1.35,1.29c.71.21.82.43.82,1.18s0,1.48,0,2.22a.91.91,0,0,1-.68,1,2.13,2.13,0,0,0-1.58,1.53,2,2,0,0,0,0,1.83c.38.7.31.9-.25,1.45s-1,1-1.57,1.58a.89.89,0,0,1-1.2.23,2.12,2.12,0,0,0-2.15,0,2.06,2.06,0,0,0-1.33,1.38c-.19.68-.44.81-1.14.81H31.43a1,1,0,0,1-1.09-.75,1.67,1.67,0,0,0-1.44-1.44.18.18,0,0,1-.1,0,1.53,1.53,0,0,0-1.8,0c-.71.38-.91.3-1.46-.25L24,35.5a.88.88,0,0,1-.24-1.2,2.19,2.19,0,0,0,.05-2.16,2,2,0,0,0-1.44-1.33,1,1,0,0,1-.76-1.08c0-.77,0-1.55,0-2.33a.9.9,0,0,1,.69-1,2.11,2.11,0,0,0,1.55-1.49,2,2,0,0,0,0-1.92c-.36-.64-.27-.86.24-1.37S25.11,20.5,25.68,20A4.55,4.55,0,0,1,26.33,19.55Zm6.09,18.34c1.14,0,.86.16,1.23-.81a1.41,1.41,0,0,1,1-.95,8.27,8.27,0,0,0,1.71-.72,1.29,1.29,0,0,1,1.36,0,1.14,1.14,0,0,0,.47.2,1,1,0,0,0,.57-.1c.16-.08.26-.28.41-.38a.71.71,0,0,0,.2-1.12,1.44,1.44,0,0,1,.06-1.69,4.65,4.65,0,0,0,.59-1.42,1.45,1.45,0,0,1,1.16-1.23c.21-.05.55-.15.57-.28a4.58,4.58,0,0,0,0-1.43c0-.15-.39-.3-.62-.37a1.51,1.51,0,0,1-1.15-1.23,6.47,6.47,0,0,0-.66-1.56,1.35,1.35,0,0,1-.06-1.37c.38-.8.34-.78-.26-1.45-.36-.4-.67-.52-1.13-.22a1.43,1.43,0,0,1-1.69,0,5.78,5.78,0,0,0-1.52-.62,1.3,1.3,0,0,1-1.09-1,.81.81,0,0,0-1.08-.74.38.38,0,0,1-.15,0c-.53-.11-.8.12-.9.63a1.43,1.43,0,0,1-1.27,1.17A3.46,3.46,0,0,0,29,21.6a1.68,1.68,0,0,1-2,0c-.14-.08-.4-.19-.47-.13a4.84,4.84,0,0,0-1,1c-.09.14.1.51.22.74a1.41,1.41,0,0,1-.05,1.55,4.53,4.53,0,0,0-.6,1.42,1.61,1.61,0,0,1-1.31,1.35c-.17.05-.47.15-.48.25a5.34,5.34,0,0,0,0,1.44c0,.15.39.29.63.35A1.46,1.46,0,0,1,25,30.83a6.47,6.47,0,0,0,.66,1.56,1.37,1.37,0,0,1,.07,1.41c-.38.78-.32.76.24,1.42a.81.81,0,0,0,1.23.2,1.35,1.35,0,0,1,1.59.06,6.31,6.31,0,0,0,1.52.62,1.34,1.34,0,0,1,1.12,1.06C31.6,37.73,31.88,38.06,32.42,37.89Z"/><path class="cls-1" d="M32.56,8.69,29.93,12c.07.06.09.09.12.1,1.17.07,1.29.19,1.29,1.35,0,.9,0,1.8,0,2.69a.85.85,0,0,1-.8,1,.88.88,0,0,1-.86-1c0-.77,0-1.54,0-2.36-.26,0-.47,0-.67,0a1.26,1.26,0,0,1-.95-2c1.14-1.51,2.32-3,3.51-4.47a1.23,1.23,0,0,1,2,0c1.19,1.48,2.35,3,3.52,4.47A1.19,1.19,0,0,1,37.21,13a1.27,1.27,0,0,1-1.15.76h-.62v2.35a.86.86,0,0,1-.71,1,.8.8,0,0,1-.95-.82c0-1.11,0-2.21,0-3.32a.78.78,0,0,1,.81-.82c.17,0,.34,0,.67,0Z"/><path class="cls-2" d="M20,26.93a1.12,1.12,0,1,1,1.16-1.08A1.15,1.15,0,0,1,20,26.93Z"/><path class="cls-2" d="M16.83,25.81a1.1,1.1,0,0,1-1.1,1.12,1.12,1.12,0,1,1,1.1-1.12Z"/><path class="cls-2" d="M32.55,23A5.62,5.62,0,1,1,27,28.56,5.6,5.6,0,0,1,32.55,23Zm3.94,5.6a3.94,3.94,0,1,0-3.93,4A3.92,3.92,0,0,0,36.49,28.57Z"/></svg>