<svg id="Layer_1" data-name="Layer 1" xmlns="http://www.w3.org/2000/svg" viewBox="0 0 65 65"><defs><style>.cls-1{fill:blue;}.cls-2{fill:#f3f945;}</style></defs><path class="cls-1" d="M44.6,59.15H20.5a2.36,2.36,0,0,0-.28-.12,2.66,2.66,0,0,1,.85-5.19h4.36V50.29H12.31A6.21,6.21,0,0,1,6,44.15q0-16,0-32.09A6.17,6.17,0,0,1,12.06,6q20.48,0,41,0a5.77,5.77,0,0,1,5.14,2.91,15.06,15.06,0,0,1,1,2.48V44.91c-.1.33-.18.66-.29,1a6.21,6.21,0,0,1-6.07,4.4H39.68v3.55c1.52,0,3,0,4.46,0A2.65,2.65,0,0,1,45,59ZM57.38,41.39v-29a4.46,4.46,0,0,0-4.73-4.71H12.45a4.46,4.46,0,0,0-4.73,4.71v29Zm0,1.83H7.76a4.51,4.51,0,0,0,4.72,5.29q20.07,0,40.14,0a6.2,6.2,0,0,0,1.29-.12A4.52,4.52,0,0,0,57.34,43.22ZM32.55,55.61H21a.88.88,0,0,0,0,1.75,3,3,0,0,0,.52,0H43.67a3,3,0,0,0,.52,0,.88.88,0,0,0-.06-1.75H32.55Zm5.29-5.28H27.28V53.8H37.84Z"/><path class="cls-2" d="M40.47,31.84,38,33.16c-.4.21-.79.42-1.2.61A5.43,5.43,0,0,0,35,35a3.43,3.43,0,0,1-4.41.5,3.54,3.54,0,0,1,2.54-6.46,1.25,1.25,0,0,0,.51,0c1.63-.46,3.25-.94,4.88-1.42a1.58,1.58,0,0,0,.2-.12,8.81,8.81,0,0,0-.91-.92,7.65,7.65,0,0,0-8.42-1.37,7.68,7.68,0,0,0-4.84,7c-.1,1.46-.69,2-2.16,2H16a1.83,1.83,0,0,1-2-2.06,18.59,18.59,0,0,1,36.58-4.43,26.61,26.61,0,0,1,.61,4.56,1.75,1.75,0,0,1-1.89,1.93h-6.8a1.77,1.77,0,0,1-1.92-1.85C40.52,32.28,40.5,32.09,40.47,31.84ZM20,21.32a16.76,16.76,0,0,0-4.31,11.2h7.07A9.93,9.93,0,0,1,25,26.33ZM43.76,20a16.8,16.8,0,0,0-10.27-4.25v7a26.12,26.12,0,0,1,2.79.85A26.66,26.66,0,0,1,38.8,25ZM21.39,20l5,5,.33-.25a9.44,9.44,0,0,1,4.41-1.82c.42-.06.54-.18.54-.6,0-2,0-4,0-6,0-.17,0-.34,0-.54A16.74,16.74,0,0,0,21.39,20Zm28,12.56a16.79,16.79,0,0,0-4.27-11.16l-5,5c.46.71.46.71,1.3.48L44.46,26a1.61,1.61,0,0,1,2.07.89A1.59,1.59,0,0,1,45.67,29a17.18,17.18,0,0,1-2.23,1.2,1.55,1.55,0,0,0-1.13,2.15l0,.17ZM32.54,34.31a1.77,1.77,0,1,0-1.76-1.78A1.76,1.76,0,0,0,32.54,34.31Zm10.6-5.93-.06-.15-7.64,2.13.71,1.77Z"/><path class="cls-2" d="M32.57,46.71a9,9,0,0,1-1,0,.84.84,0,0,1-.75-.85.8.8,0,0,1,.74-.85,14.3,14.3,0,0,1,2.07,0,.79.79,0,0,1,.72.87.81.81,0,0,1-.71.83c-.34,0-.69,0-1,0Z"/></svg>