<svg id="Layer_1" data-name="Layer 1" xmlns="http://www.w3.org/2000/svg" viewBox="0 0 65 65"><defs><style>.cls-1{fill:#190f2d;}</style></defs><path class="cls-1" d="M13.23,29.07c0-.95,0-1.82,0-2.68A2.62,2.62,0,0,1,16,23.6H26.6a2.6,2.6,0,0,1,2.8,2.77c0,.87,0,1.73,0,2.7H58.57A2.67,2.67,0,0,1,61.44,31a2.57,2.57,0,0,1-2,3.26,5.77,5.77,0,0,1-1,.07h-29c0,.92,0,1.78,0,2.64a2.61,2.61,0,0,1-2.81,2.83H16a2.62,2.62,0,0,1-2.8-2.8c0-.86,0-1.72,0-2.64l-.69,0c-2.31,0-4.63,0-6.94,0A2.63,2.63,0,0,1,3,30.79,2.65,2.65,0,0,1,5.6,29.07c2.28,0,4.55,0,6.83,0Z"/><path class="cls-1" d="M24.2,55.15H5.9A4.32,4.32,0,0,1,4.65,55a2.56,2.56,0,0,1-1.82-2.84,2.6,2.6,0,0,1,2.53-2.24c.87,0,1.73,0,2.6,0H24.2c0-.93,0-1.81,0-2.68a2.59,2.59,0,0,1,2.74-2.78H37.62a2.61,2.61,0,0,1,2.75,2.78c0,.86,0,1.72,0,2.68H58.72a2.6,2.6,0,0,1,2.81,2.77,2.57,2.57,0,0,1-2.28,2.41,7.86,7.86,0,0,1-.84,0h-18c0,.91,0,1.75,0,2.59a2.65,2.65,0,0,1-2.88,2.9H27a2.62,2.62,0,0,1-2.84-2.86C24.19,56.94,24.2,56.09,24.2,55.15Z"/><path class="cls-1" d="M50.28,13.44c0,.92,0,1.78,0,2.64a2.62,2.62,0,0,1-2.82,2.82c-3.52,0-7.05,0-10.57,0a2.59,2.59,0,0,1-2.78-2.79c0-.87,0-1.73,0-2.67H5.78a3,3,0,0,1-2-.58,2.59,2.59,0,0,1-.89-2.76A2.55,2.55,0,0,1,5.18,8.24c.28,0,.57,0,.85,0H34.11c0-.91,0-1.77,0-2.63A2.62,2.62,0,0,1,37,2.73H47.46a2.63,2.63,0,0,1,2.82,2.83c0,.86,0,1.72,0,2.66h.77c2.61,0,5.23,0,7.84,0a2.58,2.58,0,0,1,2.49,3.5,2.63,2.63,0,0,1-2.6,1.7h-8.5Z"/></svg>