<svg id="Layer_1" data-name="Layer 1" xmlns="http://www.w3.org/2000/svg" viewBox="0 0 65 65"><defs><style>.cls-1{fill:blue;}.cls-2{fill:#f3f945;}</style></defs><path class="cls-1" d="M1,10.27a11.36,11.36,0,0,1,.73-1.16c1.5-1.91,3-3.79,4.53-5.68a1.34,1.34,0,0,1,2.36-.05l4.6,5.7c.13.16.23.33.36.49a1.26,1.26,0,0,1-1,2.12c-.4,0-.8,0-1.26,0V29.31c0,1.37-.4,1.77-1.77,1.77H5.32c-1.31,0-1.76-.44-1.76-1.74V11.72c-1,0-2.21.17-2.57-1.21Zm4-1.2a1.53,1.53,0,0,1,1.18,1.75c0,5.63,0,11.26,0,16.89v.72H8.74v-.75c0-5.47,0-10.94,0-16.4,0-.95-.1-1.91,1.17-2.21L7.45,6Z"/><path class="cls-2" d="M16.86,2.63a1.5,1.5,0,0,1,.92,1.24A1.26,1.26,0,0,1,16.52,5.2c-.85,0-1.7,0-2.54,0a1.28,1.28,0,0,1-1.33-1,1.33,1.33,0,0,1,.73-1.45l.21-.12Z"/><path class="cls-2" d="M24.61,2.63a1.51,1.51,0,0,1,.93,1.24A1.27,1.27,0,0,1,24.27,5.2c-.84,0-1.69,0-2.54,0a1.28,1.28,0,0,1-1.33-1,1.33,1.33,0,0,1,.74-1.45l.2-.12Z"/><path class="cls-2" d="M32.37,2.63a1.5,1.5,0,0,1,.92,1.24A1.27,1.27,0,0,1,32,5.2c-.84,0-1.69,0-2.53,0a1.28,1.28,0,0,1-1.33-1,1.33,1.33,0,0,1,.73-1.45,2.25,2.25,0,0,0,.21-.12Z"/><path class="cls-2" d="M40.12,2.63a1.53,1.53,0,0,1,.93,1.24A1.27,1.27,0,0,1,39.78,5.2c-.85,0-1.69,0-2.54,0a1.28,1.28,0,0,1-1.33-1,1.33,1.33,0,0,1,.73-1.45,2.25,2.25,0,0,0,.21-.12Z"/><path class="cls-2" d="M47.88,2.63a1.5,1.5,0,0,1,.92,1.24A1.27,1.27,0,0,1,47.53,5.2c-.84,0-1.69,0-2.53,0a1.28,1.28,0,0,1-1.33-1,1.32,1.32,0,0,1,.73-1.45,2.25,2.25,0,0,0,.21-.12Z"/><path class="cls-2" d="M55.63,2.63a1.53,1.53,0,0,1,.93,1.24A1.28,1.28,0,0,1,55.29,5.2c-.85,0-1.69,0-2.54,0a1.28,1.28,0,0,1-1.33-1,1.33,1.33,0,0,1,.73-1.45,2.25,2.25,0,0,0,.21-.12Z"/><path class="cls-2" d="M62.05,2.63a1.55,1.55,0,0,1,1,1.69c0,.32,0,.65,0,1A1.29,1.29,0,0,1,61.87,6.5a1.34,1.34,0,0,1-1.37-.87c-.06-.15-.13-.39-.24-.42A1.27,1.27,0,0,1,59.16,4a1.38,1.38,0,0,1,1-1.33Z"/><path class="cls-1" d="M37.21,46.64v2.47l.57.13a2.52,2.52,0,0,1,2,2.45c0,2.62,0,5.25,0,7.87A2.52,2.52,0,0,1,37.59,62a5,5,0,0,1-.78.05H6.53a4.39,4.39,0,0,1-1.2-.15,2.53,2.53,0,0,1-1.76-2.55q0-3.77,0-7.51c0-1.54.86-2.45,2.55-2.76V46.67s0-.06-.08-.06c-1.91-.5-2.48-1.23-2.48-3.21V36.55a2.63,2.63,0,0,1,2.88-2.9H36.91a2.61,2.61,0,0,1,2.85,2.86v6.85C39.76,45.4,39.21,46.11,37.21,46.64Zm-31-10.38v7.67H37.14V36.26Zm0,23.19H37.13V51.78H6.2ZM34.55,46.63H8.78v2.5H34.55Z"/><path class="cls-1" d="M53.92,62.1H44c-1.19,0-1.66-.47-1.66-1.64,0-1.52,0-3,0-4.54,0-1.13.46-1.58,1.59-1.58H54c0-.45,0-.83,0-1.21a1.32,1.32,0,0,1,.77-1.27,1.29,1.29,0,0,1,1.41.22c2.05,1.64,4.09,3.29,6.14,4.92,1,.77,1,1.61,0,2.38-2.08,1.66-4.14,3.35-6.24,5A1.24,1.24,0,0,1,54,63.55,10.65,10.65,0,0,1,53.92,62.1Zm2.68-1.44,3.06-2.45-3.07-2.45a1.53,1.53,0,0,1-1.74,1.17c-3.07,0-6.14,0-9.21,0H45v2.57h.75c3,0,6,0,9,0C55.62,59.48,56.31,59.66,56.6,60.66Z"/><path class="cls-2" d="M16.5,16.85c.44,0,.89,0,1.33,0a1.25,1.25,0,0,1,1.23,1.3,1.22,1.22,0,0,1-1.21,1.26,24.68,24.68,0,0,1-2.72,0,1.22,1.22,0,0,1-1.2-1.27,1.26,1.26,0,0,1,1.24-1.29C15.61,16.82,16.06,16.85,16.5,16.85Z"/><path class="cls-2" d="M48.81,33.71c0,.42,0,.85,0,1.27a1.26,1.26,0,0,1-1.3,1.24A1.25,1.25,0,0,1,46.23,35c0-.87,0-1.74,0-2.6a1.24,1.24,0,0,1,1.26-1.27,1.27,1.27,0,0,1,1.32,1.29c0,.44,0,.89,0,1.33Z"/><path class="cls-2" d="M46.22,41.37c0-.42,0-.85,0-1.27a1.27,1.27,0,0,1,1.29-1.26,1.25,1.25,0,0,1,1.29,1.25c0,.88,0,1.77,0,2.66A1.24,1.24,0,0,1,47.49,44a1.26,1.26,0,0,1-1.27-1.27C46.19,42.26,46.22,41.81,46.22,41.37Z"/><path class="cls-2" d="M39.71,19.44c-.43,0-.85,0-1.27,0a1.29,1.29,0,0,1,0-2.57c.87,0,1.74,0,2.6,0a1.24,1.24,0,0,1,1.27,1.26A1.28,1.28,0,0,1,41,19.44c-.45,0-.89,0-1.33,0Z"/><path class="cls-2" d="M46.22,49.16c0-.45,0-.89,0-1.33a1.25,1.25,0,0,1,1.3-1.23,1.22,1.22,0,0,1,1.26,1.21,24.5,24.5,0,0,1,0,2.71,1.23,1.23,0,0,1-1.27,1.21,1.26,1.26,0,0,1-1.29-1.24C46.19,50.05,46.22,49.6,46.22,49.16Z"/><path class="cls-2" d="M32,19.44c-.43,0-.85,0-1.27,0a1.26,1.26,0,0,1-1.25-1.29,1.24,1.24,0,0,1,1.25-1.28c.89,0,1.78,0,2.66,0a1.23,1.23,0,0,1,1.22,1.26,1.26,1.26,0,0,1-1.22,1.31c-.46,0-.93,0-1.39,0Z"/><path class="cls-2" d="M24.23,19.44c-.42,0-.85,0-1.27,0a1.29,1.29,0,0,1,0-2.58c.85,0,1.69,0,2.54,0a1.3,1.3,0,1,1,0,2.59c-.42,0-.85,0-1.27,0Z"/><path class="cls-2" d="M48.81,25.94c0,.42,0,.85,0,1.27a1.25,1.25,0,0,1-1.28,1.25,1.23,1.23,0,0,1-1.29-1.24c0-.89,0-1.78,0-2.66a1.29,1.29,0,0,1,2.57,0c0,.46,0,.92,0,1.39Z"/><path class="cls-2" d="M60.46,11.69c0-.47,0-.93,0-1.39a1.27,1.27,0,0,1,1.22-1.2A1.26,1.26,0,0,1,63,10.26a26.9,26.9,0,0,1,0,2.84,1.25,1.25,0,0,1-1.31,1.16A1.26,1.26,0,0,1,60.46,13c0-.45,0-.89,0-1.33Z"/><path class="cls-2" d="M63,27.2c0,.43,0,.85,0,1.27a1.3,1.3,0,0,1-1.32,1.3,1.26,1.26,0,0,1-1.24-1.29c0-.87,0-1.74,0-2.6a1.27,1.27,0,0,1,1.27-1.27A1.29,1.29,0,0,1,63,25.87C63,26.32,63,26.76,63,27.2Z"/><path class="cls-2" d="M63,34.93c0,.45,0,.89,0,1.33a1.29,1.29,0,0,1-1.28,1.27,1.27,1.27,0,0,1-1.27-1.27c0-.89,0-1.78,0-2.66a1.27,1.27,0,0,1,1.24-1.24A1.28,1.28,0,0,1,63,33.6C63,34,63,34.49,63,34.93Z"/><path class="cls-2" d="M60.46,19.42c0-.44,0-.88,0-1.33A1.27,1.27,0,0,1,63,18a26.9,26.9,0,0,1,0,2.84,1.27,1.27,0,0,1-2.54-.06c0-.46,0-.92,0-1.39Z"/><path class="cls-2" d="M60.46,42.72c0-.46,0-.93,0-1.39a1.28,1.28,0,0,1,2.55,0c0,.92,0,1.85,0,2.78a1.26,1.26,0,0,1-1.29,1.18,1.27,1.27,0,0,1-1.25-1.23C60.44,43.61,60.46,43.16,60.46,42.72Z"/><path class="cls-2" d="M60.46,50.46c0-.47,0-.93,0-1.39a1.27,1.27,0,0,1,1.22-1.2A1.26,1.26,0,0,1,63,49a26.9,26.9,0,0,1,0,2.84A1.24,1.24,0,0,1,61.69,53a1.26,1.26,0,0,1-1.23-1.24c0-.44,0-.89,0-1.33Z"/><path class="cls-2" d="M48.83,18.82a6.78,6.78,0,0,1-.07.87,1.21,1.21,0,0,1-1.11,1,1.31,1.31,0,0,1-1.35-.81,1.23,1.23,0,0,0-.53-.53A1.31,1.31,0,0,1,45,18,1.2,1.2,0,0,1,46,16.89a7.86,7.86,0,0,1,1.68,0A1.18,1.18,0,0,1,48.78,18C48.82,18.22,48.81,18.51,48.83,18.82Z"/><path class="cls-2" d="M11.38,38.84c.44,0,.89,0,1.33,0a1.27,1.27,0,0,1,0,2.54c-.94,0-1.89,0-2.84,0a1.25,1.25,0,0,1-1.16-1.31A1.27,1.27,0,0,1,10,38.84c.46,0,.92,0,1.39,0Z"/><path class="cls-2" d="M34.57,40.09a1.27,1.27,0,0,1-1.28,1.31A1.3,1.3,0,0,1,32,40.14a1.27,1.27,0,0,1,1.29-1.3A1.24,1.24,0,0,1,34.57,40.09Z"/><path class="cls-2" d="M11.36,54.35c.44,0,.89,0,1.33,0a1.27,1.27,0,0,1,0,2.54c-.92,0-1.85,0-2.78,0a1.26,1.26,0,0,1-1.18-1.29A1.24,1.24,0,0,1,10,54.36C10.43,54.33,10.89,54.35,11.36,54.35Z"/><path class="cls-2" d="M34.57,55.63a1.27,1.27,0,0,1-1.25,1.28A1.3,1.3,0,0,1,32,55.62a1.27,1.27,0,0,1,1.33-1.27A1.24,1.24,0,0,1,34.57,55.63Z"/></svg>