<svg id="Layer_1" data-name="Layer 1" xmlns="http://www.w3.org/2000/svg" viewBox="0 0 65 65"><defs><style>.cls-1{fill:#190f2d;}</style></defs><path class="cls-1" d="M29.38,23.2c0-1.95,0-3.83,0-5.71,0-.17-.21-.36-.36-.5a6.1,6.1,0,0,1-1.91-6.56,6,6,0,0,1,5-4.48,6.34,6.34,0,0,1,5.29,11A1.26,1.26,0,0,0,36.93,18c0,1.7,0,3.41,0,5.21h.73c2,0,4.07-.11,6.07.11a12.74,12.74,0,0,1,10.73,7.85.75.75,0,0,0,.79.54,20.49,20.49,0,0,1,3.33.12,5.71,5.71,0,0,1,4.72,5.62q0,3.77,0,7.54a5.84,5.84,0,0,1-5.63,5.8c-.83,0-1.67,0-2.5,0a.62.62,0,0,0-.67.44,12.92,12.92,0,0,1-10.2,7.88,16.22,16.22,0,0,1-2.42.16c-5.82,0-11.63,0-17.45,0S14.3,56.53,11.77,51.18a.8.8,0,0,0-.57-.37c-1-.06-2.11,0-3.15-.12a5.72,5.72,0,0,1-5-5.53C3,42.55,3,39.93,3,37.32a5.8,5.8,0,0,1,5.74-5.63c.79,0,1.58,0,2.37,0a.62.62,0,0,0,.68-.43A13,13,0,0,1,24.23,23.2c1.5,0,3,0,4.5,0Zm3.78,34.06v.07c3,0,6,0,8.93,0a11.76,11.76,0,0,0,2.06-.15,11.14,11.14,0,0,0,9.46-11.24c0-3.12,0-6.24,0-9.36a12.24,12.24,0,0,0-.22-2.42,11.18,11.18,0,0,0-11-9q-9.15,0-18.3,0A11.2,11.2,0,0,0,12.7,36.51c0,2.63,0,5.27,0,7.9a29.65,29.65,0,0,0,.15,3.4,11,11,0,0,0,9.92,9.41C26.22,57.39,29.69,57.26,33.16,57.26ZM10.89,48.88c-.22-5.13-.22-10.17,0-15.24-.7,0-1.43,0-2.16,0a3.85,3.85,0,0,0-3.79,3.82c0,2.51,0,5,0,7.54a3.78,3.78,0,0,0,3.14,3.73A24.81,24.81,0,0,0,10.89,48.88ZM55.42,33.59c.19,5.16.23,10.19,0,15.25.77,0,1.58,0,2.38,0A3.88,3.88,0,0,0,61.36,45q0-3.8,0-7.6a3.73,3.73,0,0,0-3-3.65A21.26,21.26,0,0,0,55.42,33.59ZM28.75,12.18a4.4,4.4,0,1,0,4.49-4.37A4.39,4.39,0,0,0,28.75,12.18ZM35,18.45H31.36v4.7H35Z"/><path class="cls-1" d="M33.12,51.92c-1.86,0-3.73,0-5.59,0a3.38,3.38,0,0,1-.89-6.61,4.46,4.46,0,0,1,1.26-.18c3.5,0,7,0,10.51,0A3.4,3.4,0,0,1,42,48.53a3.33,3.33,0,0,1-3.27,3.38C36.89,52,35,51.92,33.12,51.92Zm0-1.92h.55c1.62,0,3.24,0,4.86,0a1.43,1.43,0,0,0,1.54-1.67,1.46,1.46,0,0,0-1.62-1.23c-3.55,0-7.09,0-10.64,0a2.59,2.59,0,0,0-.48,0,1.44,1.44,0,0,0-1,2.09A1.54,1.54,0,0,0,27.9,50Z"/><path class="cls-1" d="M47.77,35.87a4.77,4.77,0,1,1-4.69-4.8A4.74,4.74,0,0,1,47.77,35.87Zm-7.58,0A2.82,2.82,0,1,0,43,33,2.79,2.79,0,0,0,40.19,35.83Z"/><path class="cls-1" d="M18.52,35.8a4.77,4.77,0,1,1,4.7,4.8A4.74,4.74,0,0,1,18.52,35.8Zm4.79,2.85a2.82,2.82,0,0,0,0-5.63,2.82,2.82,0,1,0,0,5.63Z"/></svg>