<svg id="Layer_1" data-name="Layer 1" xmlns="http://www.w3.org/2000/svg" viewBox="0 0 65 65"><defs><style>.cls-1{fill:#190f2d;}</style></defs><path class="cls-1" d="M26.75,63.39c-.55-.39-1.1-.76-1.64-1.16a1.86,1.86,0,0,1-.62-1.61c0-1.94,0-3.89,0-5.84a.94.94,0,0,1,1-1.07c.58,0,.9.38.91,1.1v5.54c0,.93.3,1.23,1.22,1.23H59.38c.92,0,1.22-.29,1.22-1.23V39.7c0-.87-.3-1.2-1.14-1.2H39.88l-.32,0a1.64,1.64,0,0,0-.07.28,2.79,2.79,0,0,1-3,2.65H26.41v.68q0,4,0,8.07a.92.92,0,0,1-1.45.91c-.45-.22-.47-.61-.47-1V41.46h-.72c-6.35,0-12.7,0-19,0A3.22,3.22,0,0,1,1.6,39.57a2,2,0,0,1-.14-.88c0-7,0-14.09,0-21.14a3.07,3.07,0,0,1,2.78-2.79h8.19a.91.91,0,0,1,1,.89c0,.55-.37.91-1,.91H4.68c-1,0-1.3.27-1.3,1.27V31.22a1.47,1.47,0,0,0,.27-.16c.91-.86,1.83-1.73,2.73-2.61a2.84,2.84,0,0,1,4.18,0l4,3.82a5.15,5.15,0,0,0,.68-.5c1.39-1.33,2.76-2.67,4.14-4l5.25-5.12c.39-.38.8-.73,1.21-1.07a2.89,2.89,0,0,1,3.8.23c1.6,1.54,3.18,3.11,4.78,4.65,1,1,2,1.92,3.1,2.93a3.13,3.13,0,0,0,.05-.48c0-3.69,0-7.39,0-11.08,0-.95-.31-1.24-1.28-1.24H17c-.66,0-1-.35-1-.91s.4-.89,1.06-.89c6.53,0,13.06,0,19.58,0a2.74,2.74,0,0,1,2.88,2.94q0,9.09,0,18.18v.79h.82c6.34,0,12.69,0,19,0a3.57,3.57,0,0,1,2.34.8,2.56,2.56,0,0,1,.85,2.1q0,5.49,0,11c0,3.09-.07,6.19,0,9.27.06,1.82-.58,3-2.31,3.58ZM20.46,39.66h15.9c.88,0,1.2-.31,1.21-1.19,0-2,0-4,0-6a1.28,1.28,0,0,0-.36-.82c-.93-.94-1.9-1.83-2.85-2.75l-5.72-5.59a2.24,2.24,0,0,0-.43-.31,1,1,0,0,0-1.44.14l-5.38,5.14c-1.81,1.75-3.61,3.53-5.42,5.29a1.67,1.67,0,0,1-2.67,0l-4-3.84a1,1,0,0,0-1.63,0C6.37,31,5.05,32.24,3.76,33.53a1.38,1.38,0,0,0-.36.88c0,1.3,0,2.61,0,3.91,0,1.08.26,1.34,1.36,1.34Z"/><path class="cls-1" d="M32,1.73H59.46a2.81,2.81,0,0,1,3,2.45c0,.42,0,.85,0,1.27,0,1.52,0,3.05,0,4.57a2.84,2.84,0,0,1-2.82,2.9h-.66q-27.06,0-54.14,0a3.32,3.32,0,0,1-3.27-1.85,2.18,2.18,0,0,1-.18-1c0-1.84,0-3.69,0-5.54A3.06,3.06,0,0,1,4.23,1.73c1,0,2,0,3,0Zm.06,1.81H4.59c-.9,0-1.21.3-1.21,1.18,0,1.74,0,3.49,0,5.23,0,.84.32,1.16,1.17,1.16H59.24c1.09,0,1.36-.27,1.36-1.34V4.9c0-1.12-.25-1.36-1.39-1.36Z"/><path class="cls-1" d="M52.23,34.55c-2.37,0-4.74,0-7.11,0-2.06,0-3.1-1-3.1-3.11,0-1.48,0-3,0-4.45,0-.72.33-1.12.89-1.12s.91.41.91,1.11c0,1.52,0,3.05,0,4.57,0,.91.28,1.19,1.19,1.2H59.41c.89,0,1.19-.32,1.19-1.21V17.76c0-.88-.32-1.19-1.21-1.19q-7.19,0-14.39,0c-.88,0-1.17.29-1.17,1.2,0,1.5,0,3,0,4.51a1.51,1.51,0,0,1-.41,1A.83.83,0,0,1,42,22.61c0-1.84-.06-3.69,0-5.53a2.65,2.65,0,0,1,2.84-2.32H59.59a2.87,2.87,0,0,1,2.95,3c0,4.59-.06,9.19,0,13.78a2.9,2.9,0,0,1-3.08,3.06Z"/><path class="cls-1" d="M38.48,50c0-1.26.07-2.53,0-3.79C38.33,44.35,40,43,42.05,44.12l5.23,3c.66.37,1.35.7,2,1.09a2.09,2.09,0,0,1,0,3.75c-2.44,1.41-4.9,2.79-7.39,4.12-1.83,1-3.41,0-3.42-2.09C38.47,52.63,38.48,51.33,38.48,50Zm1.81,0c0,1.34,0,2.68,0,4,0,.56.18.65.65.4s1-.5,1.43-.76q3-1.65,6-3.33c.11-.06.27-.21.25-.29a.54.54,0,0,0-.26-.34l-7.24-4c-.67-.38-.8-.31-.8.44C40.28,47.45,40.28,48.74,40.29,50Z"/><path class="cls-1" d="M56.3,20.78H53.2v7.79c.25,0,.51,0,.76,0,.48,0,1.06.51,1.07.88s-.58.91-1.05.92c-1.18,0-2.37,0-3.55,0a.9.9,0,1,1,0-1.8c.23,0,.47,0,.74,0V20.8H48.1c0,.27,0,.56,0,.85a.9.9,0,0,1-.86.91.88.88,0,0,1-.92-.84,13.81,13.81,0,0,1,0-1.93.84.84,0,0,1,.92-.84c3.31,0,6.62,0,9.93,0a.85.85,0,0,1,.9.91c0,.6,0,1.21,0,1.81a.84.84,0,0,1-.82.87.88.88,0,0,1-1-.8A7.82,7.82,0,0,1,56.3,20.78Z"/><path class="cls-1" d="M12.39,48.11c-2.53,0-5.06,0-7.59,0a1.54,1.54,0,0,1-.92-.31.83.83,0,0,1,.3-1.38,1.8,1.8,0,0,1,.7-.1h15.3a.94.94,0,0,1,1,.91.92.92,0,0,1-1,.89Z"/><path class="cls-1" d="M12.35,52.93H4.64a.91.91,0,0,1-1-.88.94.94,0,0,1,1-.92H19.86a3.09,3.09,0,0,1,.53,0,.85.85,0,0,1,.76.94.82.82,0,0,1-.85.84c-.6,0-1.21,0-1.81,0Z"/><path class="cls-1" d="M12.39,57.74c-2.53,0-5.06,0-7.59,0a1.48,1.48,0,0,1-.92-.31A.83.83,0,0,1,4.18,56a1.72,1.72,0,0,1,.64-.1H20.18a1,1,0,0,1,1,.92.91.91,0,0,1-1,.88Z"/><path class="cls-1" d="M14.61,25.83a3.49,3.49,0,0,1-3.36-3.16,3.56,3.56,0,0,1,3.33-3.22,3.23,3.23,0,0,1,3.3,3.18A3.16,3.16,0,0,1,14.61,25.83Zm0-1.81a1.36,1.36,0,0,0,1.48-1.38,1.43,1.43,0,0,0-2.86,0A1.35,1.35,0,0,0,14.59,24Z"/><path class="cls-1" d="M8.28,6.43c.42,0,.84,0,1.26,0a.9.9,0,0,1,0,1.79q-1.29,0-2.58,0A.9.9,0,0,1,7,6.43H8.28Z"/><path class="cls-1" d="M54.44,7.32a1,1,0,0,1-1,.91.91.91,0,0,1-.93-.9.88.88,0,0,1,.92-.9A.91.91,0,0,1,54.44,7.32Z"/><path class="cls-1" d="M50,8.23a.94.94,0,0,1-1-.93.91.91,0,0,1,1-.87.89.89,0,0,1,1,.91A.91.91,0,0,1,50,8.23Z"/><path class="cls-1" d="M57.88,7.3a1,1,0,0,1-1.91,0,1,1,0,0,1,1.91,0Z"/></svg>