<svg id="Layer_1" data-name="Layer 1" xmlns="http://www.w3.org/2000/svg" viewBox="0 0 65 65"><defs><style>.cls-1{fill:blue;}.cls-2{fill:#f3f945;}</style></defs><path class="cls-1" d="M57.65,1.67c.33.07.65.13,1,.21a5,5,0,0,1,3.81,5.33,48.51,48.51,0,0,1-5.8,18.84,33.08,33.08,0,0,1-6.44,8.08.93.93,0,0,0-.3,1.11c.91,3,1.76,6.11,2.67,9.15a5.27,5.27,0,0,1-1.44,5.68c-2.67,2.63-5.3,5.32-8,8a5,5,0,0,1-7.58-.41,5.51,5.51,0,0,1-.89-1.76,61.31,61.31,0,0,0-4.27-10.5,3.76,3.76,0,0,0-.87-1c-.36-.34-.78-.6-1.12-.94-2.22-2.2-4.56-4.3-6.6-6.66a19.64,19.64,0,0,0-7.71-5.2c-2-.82-4-1.53-6-2.22A5.07,5.07,0,0,1,4.53,24,4.48,4.48,0,0,1,5.82,21.1c2.85-2.87,5.69-5.75,8.59-8.58a4.68,4.68,0,0,1,4.78-1.15c3.32.93,6.64,1.9,10,2.87A.73.73,0,0,0,30,14C35.19,8.38,41.72,5.08,49,3.23c2.56-.65,5.2-1,7.81-1.47.12,0,.22-.06.34-.09Zm-.92,3c-1.37.25-3.36.55-5.32,1a40.13,40.13,0,0,0-14.07,5.85,38.06,38.06,0,0,0-7.58,7.2A43.82,43.82,0,0,0,22.19,31a2.27,2.27,0,0,0,.56,2.67l7.79,7.79a2.19,2.19,0,0,0,2.67.54c1.73-.81,3.48-1.58,5.14-2.52a47.05,47.05,0,0,0,8.12-5.93,35.74,35.74,0,0,0,6.11-6.6c4.12-6,6.06-12.83,6.92-20C59.65,5.7,58.62,4.67,56.73,4.69ZM27.49,16.81c-3.18-.91-6.25-1.81-9.33-2.66a1.93,1.93,0,0,0-1.9.67c-2.71,2.71-5.43,5.4-8.13,8.12A2.1,2.1,0,0,0,9,26.55c1.07.36,2.16.67,3.21,1.1,2.32,1,4.62,2,6.94,3A46.93,46.93,0,0,1,27.49,16.81Zm19.78,20A47.44,47.44,0,0,1,33.57,45a75.87,75.87,0,0,1,4,10.24A2.06,2.06,0,0,0,41,56c2.78-2.74,5.53-5.51,8.29-8.28a2,2,0,0,0,.53-2.05C49,42.73,48.15,39.81,47.27,36.78Z"/><path class="cls-2" d="M2.42,56.9c.47-1.5.88-3,1.43-4.5.83-2.22,1.67-4.45,2.68-6.6a8.43,8.43,0,0,1,10-4.22,8.67,8.67,0,0,1,6.29,8.9,8.14,8.14,0,0,1-4.16,6.87,38.15,38.15,0,0,1-7.52,3.06c-1.09.35-2.2.67-3.3,1a4,4,0,0,1-5.3-2.82.71.71,0,0,0-.1-.14ZM14.09,44.21A5.52,5.52,0,0,0,9,47.33,57.25,57.25,0,0,0,5.42,57.4a1,1,0,0,0,1.15,1.27,7.51,7.51,0,0,0,1-.25,54.78,54.78,0,0,0,9.06-3.29,5.61,5.61,0,0,0,1.71-1.2,5.48,5.48,0,0,0,1.06-6.2A5.61,5.61,0,0,0,14.09,44.21Z"/><path class="cls-2" d="M52.75,16.86a9.52,9.52,0,0,1-2.61,5.44,11,11,0,0,1-6.36,3.9c-3.94.7-6.59-2-5.79-5.95a12,12,0,0,1,9.15-8.79C50.35,10.94,52.83,13,52.75,16.86Zm-2.85-.62-.07,0a5.2,5.2,0,0,0-.07-.69c-.21-.91-1-1.32-2.2-1.14a9.18,9.18,0,0,0-6.66,6.35,5.44,5.44,0,0,0-.11.81,1.58,1.58,0,0,0,1.78,1.82,2.65,2.65,0,0,0,.69-.07A9,9,0,0,0,49.38,18,11.43,11.43,0,0,0,49.9,16.24Z"/></svg>