<svg id="Layer_1" data-name="Layer 1" xmlns="http://www.w3.org/2000/svg" viewBox="0 0 65 65"><defs><style>.cls-1{fill:blue;}.cls-2{fill:#f3f945;}</style></defs><path class="cls-1" d="M3.12,39.6c0-.79,0-1.59,0-2.38a2.17,2.17,0,0,1,2.2-2.28c.9,0,1.8,0,2.7,0a.59.59,0,0,0,.69-.48c.36-1,.77-2,1.21-2.93.16-.35.18-.56-.12-.84-.64-.59-1.25-1.22-1.86-1.85a2.17,2.17,0,0,1,0-3.26q1.65-1.68,3.33-3.33a2.17,2.17,0,0,1,3.26,0c.64.62,1.28,1.26,1.9,1.9a.5.5,0,0,0,.69.11c1-.46,2.05-.88,3.09-1.29.3-.11.42-.23.41-.55,0-.86,0-1.72,0-2.57a2.24,2.24,0,0,1,2.42-2.45H27.6A2.22,2.22,0,0,1,30,19.75c0,.88,0,1.76,0,2.63a.55.55,0,0,0,.44.61c1,.39,2,.81,3,1.25.32.14.5.15.74-.11.6-.64,1.23-1.25,1.86-1.86a2.18,2.18,0,0,1,3.3,0c1.11,1.09,2.2,2.18,3.29,3.29a2.18,2.18,0,0,1,0,3.3c-.6.62-1.19,1.24-1.83,1.81-.32.3-.29.52-.12.89a28.87,28.87,0,0,1,1.17,2.82.7.7,0,0,0,.82.57c.79,0,1.59,0,2.38,0a2.24,2.24,0,0,1,2.43,2.44q0,2.24,0,4.47a2.24,2.24,0,0,1-2.43,2.44c-.84,0-1.67,0-2.51,0a.56.56,0,0,0-.65.45c-.38,1-.79,2-1.24,3a.62.62,0,0,0,.16.84c.63.6,1.25,1.22,1.86,1.85a2.18,2.18,0,0,1,0,3.22c-1.11,1.13-2.23,2.26-3.37,3.37a2.18,2.18,0,0,1-3.22,0c-.65-.62-1.28-1.25-1.9-1.9a.53.53,0,0,0-.73-.12c-1,.45-2,.87-3,1.26-.32.13-.45.26-.44.61,0,.83,0,1.67,0,2.5a2.24,2.24,0,0,1-2.46,2.47c-1.51,0-3,0-4.53,0a2.22,2.22,0,0,1-2.36-2.32c0-.9,0-1.79,0-2.69,0-.32-.11-.44-.41-.56-1-.4-2.07-.83-3.09-1.28a.51.51,0,0,0-.69.11c-.6.63-1.23,1.25-1.86,1.86a2.18,2.18,0,0,1-3.34,0L8,53.68a2.19,2.19,0,0,1,0-3.35c.6-.61,1.2-1.22,1.82-1.81a.57.57,0,0,0,.14-.78c-.45-1-.87-2-1.24-3a.59.59,0,0,0-.7-.47c-.85,0-1.71,0-2.56,0a2.23,2.23,0,0,1-2.34-2.35Zm1.47,0v2.2c0,.81.24,1,1.07,1,1.06,0,2.12,0,3.18,0,.61,0,.88.27,1.09.83q.73,2,1.65,4A1,1,0,0,1,11.41,49c-.76.74-1.5,1.49-2.25,2.24-.6.6-.6.91,0,1.49q1.53,1.55,3.07,3.07c.56.55.88.55,1.44,0,.76-.75,1.51-1.49,2.25-2.25a1.06,1.06,0,0,1,1.41-.2c1.28.61,2.6,1.14,3.93,1.63.58.21.9.48.88,1.13,0,1.08,0,2.16,0,3.24,0,.74.25,1,1,1,1.45,0,2.9,0,4.35,0,.86,0,1.07-.21,1.07-1.09q0-1.59,0-3.18a1,1,0,0,1,.81-1c1.35-.5,2.69-1.05,4-1.66a1.06,1.06,0,0,1,1.41.18c.74.76,1.5,1.5,2.25,2.25.57.56.89.57,1.44,0l3.12-3.11c.53-.54.53-.85,0-1.4L39.21,49A1,1,0,0,1,39,47.7c.62-1.35,1.19-2.72,1.71-4.1a1,1,0,0,1,1.06-.79c1.08,0,2.16,0,3.24,0,.77,0,1-.25,1-1,0-1.45,0-2.89,0-4.34,0-.81-.23-1-1.07-1-1,0-2.08,0-3.12,0-.66,0-.95-.28-1.17-.89a41.14,41.14,0,0,0-1.61-3.88,1.11,1.11,0,0,1,.2-1.47c.76-.73,1.5-1.49,2.25-2.24.54-.55.54-.87,0-1.4Q40,24.93,38.4,23.36c-.51-.5-.84-.5-1.36,0-.77.76-1.53,1.52-2.29,2.29a1,1,0,0,1-1.41.19c-1.28-.6-2.6-1.15-3.93-1.63A1.07,1.07,0,0,1,28.53,23c0-1.06,0-2.12,0-3.18,0-.74-.26-1-1-1-1.47,0-2.94,0-4.4,0-.77,0-1,.25-1,1,0,1.06,0,2.12,0,3.18,0,.64-.29.92-.86,1.14-1.34.49-2.66,1-3.94,1.62a1.07,1.07,0,0,1-1.41-.18c-.74-.76-1.5-1.51-2.25-2.25-.58-.57-.88-.58-1.44,0L9.1,26.51c-.53.54-.53.86,0,1.4.74.76,1.48,1.51,2.25,2.25a1.08,1.08,0,0,1,.2,1.46c-.6,1.26-1.12,2.56-1.62,3.87-.29.77-.36.89-1.21.9H5.55c-.72,0-1,.25-1,1Z"/><path class="cls-2" d="M49.11,15.91c-.94,0-1.8,0-2.65,0a1.25,1.25,0,0,1-.92-.41,1.2,1.2,0,0,1,.18-1c2.39-3.7,4.81-7.37,7.23-11,.56-.84,1-.84,1.61,0,2.41,3.66,4.82,7.31,7.2,11a1.29,1.29,0,0,1,.2,1,1.36,1.36,0,0,1-1,.41c-.83.06-1.66,0-2.58,0V35.19c0,1-.16,1.2-1.2,1.2H50.29c-1,0-1.18-.13-1.18-1.21V15.91ZM57,34.9v-19c0-1.48,0-1.48,1.51-1.48H60L53.75,4.9l-6.23,9.5.24,0h1.59c1.07,0,1.23.16,1.23,1.24V34.9Z"/><path class="cls-1" d="M25.32,52.77A13.17,13.17,0,1,1,38.5,39.65,13.15,13.15,0,0,1,25.32,52.77Zm9.51-6.43a11.56,11.56,0,0,0-1.34-15.12A11.68,11.68,0,0,0,15.81,46.35c0-.12.11-.22.15-.33a6.49,6.49,0,0,1,6.24-4.28c2.12,0,4.24,0,6.36,0a6.5,6.5,0,0,1,6.08,4.15ZM23.05,51.08c.09-.73.17-1.37.24-2s.11-1.34.2-2c.26-2,.27-2-.92-3.48a1.06,1.06,0,0,0-.75-.35,5,5,0,0,0-4.72,4.2.82.82,0,0,0,.13.61A11.46,11.46,0,0,0,23.05,51.08Zm4.55,0A11.41,11.41,0,0,0,33.45,48a.74.74,0,0,0,.1-.56,5.05,5.05,0,0,0-3.73-4.09c-1.31-.32-1.38-.3-2.17.78a2.88,2.88,0,0,1-.3.39A1.39,1.39,0,0,0,27,45.82c.1.71.16,1.42.24,2.13C27.36,49,27.48,50,27.6,51.08Zm-1.48.18c0-.4-.08-.76-.11-1.12-.15-1.36-.28-2.71-.44-4.07a1.59,1.59,0,0,0-.22-.43,1.67,1.67,0,0,0-.28.45,9,9,0,0,0-.11,1c-.14,1.37-.29,2.74-.43,4.14Zm-1.9-8c.31.62.64,1.15,1.35.9.34-.12.6-.51.89-.78l-.12-.12Z"/><path class="cls-2" d="M25.29,29.71a5.48,5.48,0,1,1-5.44,5.51A5.45,5.45,0,0,1,25.29,29.71Zm.06,1.47a4,4,0,1,0,4,4A4,4,0,0,0,25.35,31.18Z"/></svg>