<svg id="Layer_1" data-name="Layer 1" xmlns="http://www.w3.org/2000/svg" viewBox="0 0 65 65"><defs><style>.cls-1{fill:blue;}.cls-2{fill:#f3f945;}</style></defs><path class="cls-1" d="M35.33,2,53.91,17.66a18.39,18.39,0,0,1,1.7,1.48,1.81,1.81,0,0,1,.51,1.13q.09,18.75.11,37.52a5,5,0,0,1-5.18,5.1H13.46a5,5,0,0,1-5.13-5.15c0-1.92,0-3.84,0-5.84H6.17c-.66,0-1.31,0-2,0a2.81,2.81,0,0,1-2.87-3c0-3,0-6,0-9V35.05A2.84,2.84,0,0,1,4.4,32H8.33V7.51c0-3,1.31-4.69,4.18-5.45a.33.33,0,0,0,.1-.06ZM9.59,51.9a1.85,1.85,0,0,0-.07.19c0,1.77.07,3.54,0,5.3a4,4,0,0,0,4.3,4.33c12.31-.06,24.62,0,36.93,0,2.79,0,4.31-1.52,4.3-4.29L54.94,22v-.69H35.57c-1.43,0-2-.59-2-2q0-7.65.07-15.29c0-.23,0-.46,0-.76h-20A3.83,3.83,0,0,0,9.52,7.33q0,12,0,24V32H35.8a2.76,2.76,0,0,1,3,2.72q0,7.26,0,14.51a2.69,2.69,0,0,1-2.08,2.59,5.62,5.62,0,0,1-1.3.1H9.59ZM20.05,33.16H4.59c-1.5,0-2.07.57-2.07,2.09V48.63c0,1.48.57,2,2.05,2h31c1.5,0,2.05-.54,2.05-2V35.22c0-1.52-.55-2.06-2.09-2.06ZM34.86,3.34c0,.26,0,.39,0,.52q0,7.73-.07,15.45c0,.69.08.77.81.77H54.86Z"/><path class="cls-2" d="M24,41.81l-.87,3.35c-.18.69-.36,1.38-.52,2.07-.08.33-.2.51-.59.49-.67,0-1.5.18-2-.14s-.47-1.15-.66-1.77c-.74-2.4-1.48-4.8-2.23-7.25h2.35L21.1,45.2h.14l1.63-6.66h2.47l1.59,6.64h.14l1.61-6.66h2.19a3.86,3.86,0,0,1-.1.49c-.83,2.7-1.67,5.41-2.48,8.11-.13.44-.32.62-.79.58-.62-.06-1.42.16-1.83-.15s-.39-1.11-.54-1.71c-.35-1.35-.69-2.7-1-4Z"/><path class="cls-2" d="M11.56,47.7H9.27V36.16h7.1v1.75H11.59v3H15.2v1.82H11.56Z"/></svg>