<svg id="Layer_1" data-name="Layer 1" xmlns="http://www.w3.org/2000/svg" viewBox="0 0 65 65"><defs><style>.cls-1{fill:#190f2d;}</style></defs><path class="cls-1" d="M55.49,2l.9.26a5.66,5.66,0,0,1,4,5.25c0,1.48,0,3,0,4.46a1.54,1.54,0,1,1-3.07-.05c0-1.37,0-2.73,0-4.1a2.56,2.56,0,0,0-2.71-2.73H9.79A2.56,2.56,0,0,0,7.1,7.83q0,12.36,0,24.73a2.58,2.58,0,0,0,2.77,2.73H37.69c1.31,0,1.87.58,1.86,1.88q0,3,0,6.07a1.66,1.66,0,0,1-1.91,1.92l-17.6,0a1.4,1.4,0,0,0-1.63,1.45c-.07.71,0,1.42,0,2.22H37.65c1,0,1.58.34,1.81,1.11a1.5,1.5,0,0,1-1.18,1.92,4.29,4.29,0,0,1-.71,0c-6.78,0-13.56,0-20.33,0a2.56,2.56,0,0,1-1.29-.3,1.38,1.38,0,0,1-.62-1,29.76,29.76,0,0,1,.14-4.91,4.13,4.13,0,0,1,3.19-3.54,5.07,5.07,0,0,1,1.24-.11h4.89V38.38H10.29c-3.45,0-5.43-1.55-6.22-4.89,0,0-.05-.07-.07-.1V7a1.73,1.73,0,0,0,.11-.32A5.53,5.53,0,0,1,7.32,2.53,11.93,11.93,0,0,1,8.88,2ZM36.44,38.43h-8.5V42h8.5Z"/><path class="cls-1" d="M42.63,49.1c0-2.48,0-5,0-7.43A6.08,6.08,0,0,1,49,35.29h5.11a6.08,6.08,0,0,1,6.22,6.19q0,7.57,0,15.16a6.09,6.09,0,0,1-6.25,6.23H48.87a6.07,6.07,0,0,1-6.24-6.23C42.61,54.13,42.63,51.62,42.63,49.1Zm14.64,0c0-2.52,0-5,0-7.55a3,3,0,0,0-3.13-3.15H48.84a3,3,0,0,0-3.13,3.14q0,7.57,0,15.15a3,3,0,0,0,3.15,3.12H54a3,3,0,0,0,3.3-3.28Z"/><path class="cls-1" d="M52.18,15.5A17.8,17.8,0,0,1,64.3,20.74a1.51,1.51,0,0,1,.46,1.72,1.49,1.49,0,0,1-1.29,1A1.87,1.87,0,0,1,62,22.78,14.34,14.34,0,0,0,55,19a15,15,0,0,0-14,3.74,1.93,1.93,0,0,1-1.5.72,1.45,1.45,0,0,1-1.31-1,1.49,1.49,0,0,1,.38-1.69A17.76,17.76,0,0,1,43,17.59,19,19,0,0,1,52.18,15.5Z"/><path class="cls-1" d="M51.62,21.66a12,12,0,0,1,8.29,3.42A1.53,1.53,0,0,1,60.32,27a1.47,1.47,0,0,1-1.57.82,2,2,0,0,1-.93-.47,9.09,9.09,0,0,0-12.67,0,1.55,1.55,0,0,1-2.28,0,1.57,1.57,0,0,1,.19-2.28A12.26,12.26,0,0,1,51.62,21.66Z"/><path class="cls-1" d="M51.5,27.83a6,6,0,0,1,4.08,1.65,1.56,1.56,0,0,1,.19,2.18,1.53,1.53,0,0,1-2.23.12,2.86,2.86,0,0,0-4.1,0,1.54,1.54,0,1,1-2-2.31A6,6,0,0,1,51.5,27.83Z"/><path class="cls-1" d="M51.46,50.62c-.4,0-.79,0-1.19,0a1.54,1.54,0,0,1,0-3.07q1.18,0,2.37,0a1.54,1.54,0,0,1,0,3.07C52.29,50.65,51.87,50.62,51.46,50.62Z"/><path class="cls-1" d="M51.5,56.7c-.42,0-.83,0-1.25,0a1.49,1.49,0,0,1-1.44-1.38A1.41,1.41,0,0,1,50,53.69a16.41,16.41,0,0,1,2.89,0,1.46,1.46,0,0,1,1.26,1.61,1.52,1.52,0,0,1-1.49,1.41C52.29,56.72,51.89,56.7,51.5,56.7Z"/></svg>