<svg id="Layer_1" data-name="Layer 1" xmlns="http://www.w3.org/2000/svg" viewBox="0 0 65 65"><defs><style>.cls-1{fill:blue;}.cls-2{fill:#f3f945;}</style></defs><path class="cls-1" d="M63,42.54c-.58,1.69-1.8,2.26-3.53,2.25-11,0-22,0-33,0-.58,0-.8.11-.86.75-.15,1.67-.4,3.34-.62,5.06H40.1c-.11-1-.24-1.88-.3-2.8a.83.83,0,0,1,1.26-.84,1.39,1.39,0,0,1,.49.81c.14.72.19,1.46.28,2.18,0,.22.07.43.11.7h2.69c.79,0,1.22.32,1.21.9s-.44.88-1.18.88H20.46a2.17,2.17,0,0,1-.36,0,.91.91,0,0,1-.83-.92.86.86,0,0,1,.9-.84c1,0,2,0,3,0l.73-5.85H5.33c-2.13,0-3.22-1.09-3.22-3.21V15.63a2.85,2.85,0,0,1,3.15-3.17q27.12,0,54.22,0c1.74,0,3,.58,3.52,2.27ZM3.89,39.14l.41,0c1.13,0,2.26,0,3.39,0a.87.87,0,0,1,1,.84.89.89,0,0,1-.94.93c-.38,0-.76,0-1.13,0H3.89c0,.38,0,.68,0,1,0,.73.45,1.06,1.35,1.06H59.88a1.08,1.08,0,0,0,.58-.07,1.88,1.88,0,0,0,.7-.73,4.19,4.19,0,0,0,0-1.23h-49a3.73,3.73,0,0,1-.82-.06A.79.79,0,0,1,10.7,40a.81.81,0,0,1,.76-.84,6.52,6.52,0,0,1,.77,0h49V15.65c0-1.09-.32-1.4-1.44-1.4H5.33c-1.14,0-1.44.3-1.44,1.45V39.14Z"/><path class="cls-1" d="M29.89,33c.12.66.23,1.19.33,1.73a.89.89,0,0,1-.65,1.14.87.87,0,0,1-1.08-.75c-.35-1.67-.69-3.33-1-5-.14-.74.42-1.19,1.25-1,1.2.23,2.4.49,3.6.75.43.09.86.17,1.27.28a.89.89,0,0,1,.71,1,.88.88,0,0,1-1.06.71A17.68,17.68,0,0,0,31,31.56c.19.16.37.33.57.48a11.05,11.05,0,0,0,17.25-5.65,3,3,0,0,1,.16-.51.82.82,0,0,1,1-.51.79.79,0,0,1,.66.92,6.25,6.25,0,0,1-.32,1.2,12.82,12.82,0,0,1-19.82,6Z"/><path class="cls-1" d="M35.18,19.89c-.16-.63-.31-1.18-.43-1.73a.89.89,0,1,1,1.72-.44c.42,1.61.83,3.22,1.21,4.84.19.79-.24,1.3-1.06,1.18-1.66-.24-3.32-.51-5-.8a.85.85,0,0,1-.77-1.06A.87.87,0,0,1,32,21.21c.74.1,1.47.22,2.22.28a10,10,0,0,0-5.46-2.37,11,11,0,0,0-12.15,8.5c-.13.5-.32.9-.91.92a.81.81,0,0,1-.85-.61,1.26,1.26,0,0,1,0-.58,12.81,12.81,0,0,1,20-7.69C34.9,19.73,35,19.78,35.18,19.89Z"/><path class="cls-1" d="M10.61,23.78A2.79,2.79,0,0,1,7.83,21a2.84,2.84,0,0,1,2.82-2.79A2.81,2.81,0,0,1,13.41,21,2.77,2.77,0,0,1,10.61,23.78ZM10.7,20a1,1,0,0,0-1.09.95A1,1,0,0,0,10.52,22a1,1,0,0,0,1.1-.9A1,1,0,0,0,10.7,20Z"/><path class="cls-2" d="M36.44,27.69a2.79,2.79,0,0,1,2.76-2.83A2.83,2.83,0,0,1,42,27.63a2.8,2.8,0,0,1-5.59.06Zm3.8,0a1,1,0,0,0-1-1,1,1,0,0,0-1,1,1,1,0,0,0,1,1.05A1,1,0,0,0,40.24,27.69Z"/><path class="cls-2" d="M25.8,27.59a2.79,2.79,0,0,1-2.72-2.81A2.83,2.83,0,0,1,26,22a2.79,2.79,0,0,1,2.7,2.88A2.76,2.76,0,0,1,25.8,27.59Zm.1-3.8a1,1,0,0,0-1,1,1,1,0,0,0,1,1,1,1,0,0,0,1.05-1A1,1,0,0,0,25.9,23.79Z"/><path class="cls-1" d="M51.69,32.44a2.8,2.8,0,1,1,2.8,2.79A2.79,2.79,0,0,1,51.69,32.44Zm3.8,0a1,1,0,0,0-1-1,1,1,0,0,0-.05,2A1,1,0,0,0,55.49,32.46Z"/><path class="cls-2" d="M49.09,21.48c-.43-.37-.73-.58-1-.84a.88.88,0,0,1,1.25-1.25c.15.13.28.28.42.41l.48.45a9.5,9.5,0,0,1,.71-.82.88.88,0,1,1,1.24,1.25c-.23.25-.49.46-.78.73.28.3.52.54.75.8a.88.88,0,0,1,.05,1.32.91.91,0,0,1-1.32-.08c-.23-.22-.43-.46-.81-.88a9.78,9.78,0,0,1-.68.91.89.89,0,1,1-1.24-1.26A11.23,11.23,0,0,1,49.09,21.48Z"/><path class="cls-2" d="M14.82,34.1a9.93,9.93,0,0,1-.68.84.89.89,0,0,1-1.28,0,.86.86,0,0,1,0-1.27,3.32,3.32,0,0,1,.37-.38c.12-.11.26-.2.58-.45a8,8,0,0,1-.92-.71.85.85,0,0,1,0-1.31.9.9,0,0,1,1.28.05l.38.38.51.48a6.85,6.85,0,0,1,.64-.86A.88.88,0,1,1,17,32.13c-.23.24-.5.44-.81.71.31.32.56.57.79.82A.92.92,0,0,1,17,35a.91.91,0,0,1-1.28-.08l-.38-.37Z"/></svg>