<svg id="Layer_1" data-name="Layer 1" xmlns="http://www.w3.org/2000/svg" viewBox="0 0 65 65"><defs><style>.cls-1{fill:blue;}.cls-2{fill:#f3f945;}</style></defs><path class="cls-1" d="M63,40.4a1.19,1.19,0,0,1-1.18.62c-.75,0-1.51,0-2.33,0,0,.19.08.36.13.51.2.71.45,1.4.59,2.12A2.92,2.92,0,0,1,58.72,47a19.33,19.33,0,0,1-2.33,1,9.35,9.35,0,0,1-1.12.4,2.79,2.79,0,0,0-2.15,2.84,20.17,20.17,0,0,1-.47,3.1,3.06,3.06,0,0,1-3.35,2.59c-1.16,0-2.33-.16-3.49-.28a2.42,2.42,0,0,0-2.53,1.17c-.65,1-1.28,2-2,3a3.12,3.12,0,0,1-4.22.95,10.41,10.41,0,0,1-1-.56c-.67-.4-1.33-.8-2-1.21a2.49,2.49,0,0,0-2.9,0c-.58.37-1.17.74-1.77,1.08A15,15,0,0,1,27.6,62a2.86,2.86,0,0,1-3.41-.78,10.79,10.79,0,0,1-1.68-2.36c-1-1.94-2.4-2.48-4.44-2.08a10.89,10.89,0,0,1-3.07.09,2.61,2.61,0,0,1-2.39-2c-.31-1.11-.42-2.29-.62-3.44a1.64,1.64,0,0,1,0-.23A2.78,2.78,0,0,0,9.8,48.36a24.86,24.86,0,0,1-2.62-1C5.12,46.52,4.46,45.13,5,43c.16-.63.38-1.25.61-2H3.43c-.9,0-1.33-.31-1.32-.91s.45-.88,1.3-.88H61.68a1.37,1.37,0,0,1,1.32.6ZM15.08,41c.11.23.17.4.25.55a18.39,18.39,0,0,0,5.29,6.26c6.14,4.52,12.76,5.3,19.81,2.43.74-.29,1.24-.18,1.46.36s0,1-.73,1.27a20.91,20.91,0,0,1-18.25-.51,20.76,20.76,0,0,1-9.6-9.87c-.13-.27-.2-.52-.61-.51C11.12,41,9.53,41,8,41c-.16,0-.42.11-.46.24a24.64,24.64,0,0,0-.83,2.65,1.27,1.27,0,0,0,.78,1.62,11,11,0,0,0,1.36.59c.9.36,1.82.67,2.7,1.07a3.47,3.47,0,0,1,2,2.5c.12.5.19,1,.27,1.52.12.84.19,1.7.36,2.53.22,1.07.65,1.39,1.73,1.4A10.55,10.55,0,0,0,17,55.08c.81-.07,1.62-.18,2.42-.23a3.86,3.86,0,0,1,3.7,1.71c.64.93,1.22,1.9,1.87,2.82.84,1.17,1.42,1.29,2.67.6.73-.4,1.44-.84,2.13-1.3a4.58,4.58,0,0,1,5.54,0c.67.46,1.36.88,2.07,1.28,1.32.73,1.89.61,2.76-.61.58-.81,1.09-1.66,1.62-2.49a4.17,4.17,0,0,1,4.27-2c1.08.11,2.17.23,3.25.26A1.39,1.39,0,0,0,51,53.81a22.37,22.37,0,0,0,.38-2.71,4.49,4.49,0,0,1,3.4-4.42c.22-.06.45-.15.67-.23.7-.27,1.42-.5,2.09-.83a1.4,1.4,0,0,0,.9-1.93,22.51,22.51,0,0,0-.76-2.37.69.69,0,0,0-.53-.3c-1.54,0-3.09,0-4.64,0-.36,0-.5.15-.65.44-.42.81-.84,1.63-1.32,2.4a20.4,20.4,0,0,1-5,5.49c-.62.48-1.16.49-1.51,0s-.21-.93.43-1.45l.14-.11a19.22,19.22,0,0,0,4.3-4.65c.43-.67.81-1.37,1.25-2.13Z"/><path class="cls-1" d="M63,25.06a1.34,1.34,0,0,1-1.26.59H3.35a3,3,0,0,1-.42,0,.91.91,0,0,1-.82-.93A.89.89,0,0,1,3,23.86H5.65c-.1-.31-.19-.56-.26-.82-.17-.61-.38-1.21-.5-1.83a2.92,2.92,0,0,1,1.52-3.32,14.35,14.35,0,0,1,3-1.24A3.17,3.17,0,0,0,12,13.38a14.52,14.52,0,0,1,.45-2.93A3,3,0,0,1,15.71,8a35.33,35.33,0,0,1,3.55.27A2.46,2.46,0,0,0,21.84,7c.54-.88,1.09-1.75,1.69-2.59a3.28,3.28,0,0,1,3.15-1.74,6.15,6.15,0,0,1,1.89.65c.84.44,1.64.95,2.44,1.47a2.64,2.64,0,0,0,3.11,0A33.07,33.07,0,0,1,37,3.14a3.1,3.1,0,0,1,4.31,1C42,5,42.54,5.94,43.15,6.86A2.68,2.68,0,0,0,45,8.25a.78.78,0,0,1,.64,1,.81.81,0,0,1-.93.72,2.91,2.91,0,0,1-2-.9,18.08,18.08,0,0,1-1.32-1.68c-.5-.71-.93-1.48-1.46-2.16a1.43,1.43,0,0,0-2.17-.47c-.79.41-1.53.91-2.3,1.37a4.54,4.54,0,0,1-3.39,1,10,10,0,0,1-2.29-.94c-.8-.41-1.54-1-2.35-1.38a1.47,1.47,0,0,0-2.22.48c-.42.53-.76,1.11-1.14,1.67l-.88,1.34A4,4,0,0,1,19.25,10c-.87-.08-1.73-.19-2.6-.27-1.9-.18-2.4.23-2.67,2.13-.14,1-.26,2.08-.44,3.11a3.62,3.62,0,0,1-2.29,2.83c-.93.38-1.89.7-2.83,1.06-1.85.7-2.12,1.25-1.51,3.1.2.62.29,1.43.73,1.77s1.21.11,1.84.12c.93,0,1.86,0,2.79,0a1,1,0,0,0,1.16-.71,20,20,0,0,1,4.4-6.07A.87.87,0,0,1,19.15,17a.9.9,0,0,1,0,1.32c-.1.11-.2.2-.3.3a19.69,19.69,0,0,0-3.35,4.45c-.12.22-.23.45-.37.73H50c-.09-.18-.16-.35-.24-.51A19.5,19.5,0,0,0,30.92,13a19.86,19.86,0,0,0-8.35,2.67c-.24.14-.56.34-.76.27a1.46,1.46,0,0,1-.8-.64c-.21-.43.06-.8.45-1a21.28,21.28,0,0,1,30.32,9.08.74.74,0,0,0,.79.52c1.49,0,3,0,4.46,0,.37,0,.58-.08.69-.47.21-.76.5-1.5.69-2.27a1.36,1.36,0,0,0-.84-1.85c-.69-.34-1.42-.58-2.14-.86-.24-.09-.49-.18-.73-.25a4.48,4.48,0,0,1-3.36-4.39A22.69,22.69,0,0,0,51,11.19c-.23-1.14-.64-1.45-1.8-1.47h-.35a.84.84,0,0,1-.8-.88A.81.81,0,0,1,48.83,8c1.56-.11,3.2.33,3.74,2.3a30,30,0,0,1,.54,3.15c0,.31.09.63.13.94a2.2,2.2,0,0,0,1.54,1.93l2.5.92c2.81,1,3.53,2.53,2.61,5.37-.13.41-.28.81-.44,1.3.82,0,1.56,0,2.31,0a1.19,1.19,0,0,1,1.24.61Z"/><path class="cls-2" d="M33.68,32.86c-.25.88-.51,1.76-.76,2.65-.21.72-.56,1.08-1.09,1.06s-.93-.48-1.09-1.07a22.49,22.49,0,0,0-.9-2.7l-.51,2.84c-.08.41-.27.82-.72.82a1.39,1.39,0,0,1-.91-.38,1.11,1.11,0,0,1-.11-.84c.33-2,.7-4,1.06-6a1.06,1.06,0,0,1,1-1,1.07,1.07,0,0,1,1.07.86l1.07,3.65c.12-.39.2-.6.26-.82.28-1,.55-1.94.84-2.91a1,1,0,0,1,2,.06q.61,3.12,1.19,6.24a.86.86,0,0,1-.71,1.11.88.88,0,0,1-1-.81c-.19-.93-.36-1.87-.53-2.8Z"/><path class="cls-2" d="M54.35,32.79c.38-1.3.71-2.42,1-3.55a1.09,1.09,0,0,1,1.06-.94c.53,0,.92.36,1,1,.39,2,.77,4,1.13,6,.14.76-.32,1.27-1,1.16-.49-.09-.67-.44-.76-.88-.18-.93-.35-1.87-.62-2.82-.12.39-.25.78-.36,1.17-.16.55-.33,1.1-.47,1.66a1.06,1.06,0,0,1-1.06.94c-.6,0-.91-.4-1.06-1-.21-.74-.43-1.48-.65-2.22a1,1,0,0,0-.29-.51c-.17.9-.33,1.81-.51,2.71-.13.69-.52,1-1.08.9s-.78-.57-.66-1.25l1-5.67c0-.14.06-.28.09-.41a1,1,0,0,1,2-.1c.31,1,.58,2,.88,3C54.16,32.23,54.23,32.42,54.35,32.79Z"/><path class="cls-2" d="M17.36,33.33c.51.58,1,1.1,1.44,1.65a.9.9,0,1,1-1.34,1.17,21.53,21.53,0,0,0-1.83-1.9c0,.45,0,.9,0,1.35,0,.77-.73,1.22-1.3.84a1.14,1.14,0,0,1-.45-.76c0-2.16,0-4.32,0-6.47a.83.83,0,0,1,.84-.9,12.31,12.31,0,0,1,2.19,0,2.53,2.53,0,0,1,.81,4.8Zm-1.68-3.24v1.57c.59,0,1.19.15,1.53-.43a.84.84,0,0,0,0-.71C16.88,29.94,16.28,30.07,15.68,30.09Z"/><path class="cls-2" d="M41.82,31.52c0-.74,0-1.47,0-2.2s.34-1,.85-1a.91.91,0,0,1,.93,1c0,1.39,0,2.78,0,4.16A1.29,1.29,0,0,0,45,34.79a1.31,1.31,0,0,0,1.38-1.32c0-1.35,0-2.7,0-4,0-.71.32-1.12.86-1.13s.92.41.92,1.14c0,1.36,0,2.73,0,4.1a3.15,3.15,0,0,1-6.29,0Z"/><path class="cls-2" d="M8.22,33.74c0,.63,0,1.2,0,1.77s-.35,1.05-.87,1.06a.92.92,0,0,1-.9-1q0-3.09,0-6.18A.92.92,0,0,1,7.5,28.29a13.33,13.33,0,0,1,2.19.09,2.64,2.64,0,0,1,2.18,2.94,2.73,2.73,0,0,1-2.59,2.41C9,33.75,8.62,33.74,8.22,33.74Zm0-1.79c.62,0,1.31.21,1.68-.45a1.16,1.16,0,0,0,0-1c-.39-.62-1-.46-1.67-.41Z"/><path class="cls-2" d="M22.89,33.33V34.8h1.7c.62,0,1,.33,1,.87a.89.89,0,0,1-1,.9c-.85,0-1.7,0-2.55,0a.89.89,0,0,1-1-1q0-3.18,0-6.36a.89.89,0,0,1,1-1q1.27,0,2.55,0a.89.89,0,0,1,1,.9c0,.54-.36.86-1,.88h-1.7v1.48c.49,0,1,0,1.47,0s1,.34,1,.84-.37.9-1,.94c-.24,0-.48,0-.72,0Z"/><path class="cls-2" d="M38.09,32.43c0-1,0-2,0-3,0-.69.34-1.1.88-1.1s.89.41.89,1.1q0,3,0,6.06c0,.69-.35,1.11-.89,1.11s-.88-.41-.88-1.11C38.09,34.45,38.09,33.44,38.09,32.43Z"/></svg>