<svg id="Layer_1" data-name="Layer 1" xmlns="http://www.w3.org/2000/svg" viewBox="0 0 65 65"><defs><style>.cls-1{fill:blue;}.cls-2{fill:#f3f945;}</style></defs><path class="cls-1" d="M61.32,57.53c-.52.5-1,1-1.58,1.49-1.58,1.29-3.18,2.54-4.77,3.81a1.36,1.36,0,0,1-1.52.35,1.41,1.41,0,0,1-.75-1.44c0-.27,0-.53,0-.89H43.32c-1.25,0-1.67-.42-1.67-1.66V55.11c0-1.24.39-1.64,1.61-1.64h9.45c0-.43,0-.81,0-1.18a1.24,1.24,0,0,1,.71-1.16,1.2,1.2,0,0,1,1.35.18L60.65,56a6.35,6.35,0,0,1,.67.7Zm-17.17.84h.75c2.83,0,5.65,0,8.47,0,.85,0,1.58.12,1.84,1.13l2.92-2.34-2.92-2.33c-.28,1-1,1.12-1.81,1.11-2.87,0-5.75,0-8.63,0h-.62Z"/><path class="cls-2" d="M61.32,21.81c-.42.74-.91,1-1.49.9a1.23,1.23,0,0,1-.95-1.21c0-.79,0-1.57,0-2.36a1.22,1.22,0,0,1,2.34-.57,1.47,1.47,0,0,0,.1.13Z"/><path class="cls-2" d="M17.42,4.3a1.42,1.42,0,0,1,.88,1.17,1.21,1.21,0,0,1-1.2,1.27c-.81,0-1.61,0-2.42,0a1.21,1.21,0,0,1-1.26-1,1.25,1.25,0,0,1,.69-1.38l.2-.11Z"/><path class="cls-2" d="M61.32,36.56c-.42.74-.91,1-1.49.9a1.23,1.23,0,0,1-.95-1.22c0-.78,0-1.56,0-2.35a1.22,1.22,0,0,1,2.34-.57,1.47,1.47,0,0,0,.1.13Z"/><path class="cls-2" d="M24.8,4.3a1.45,1.45,0,0,1,.88,1.17,1.22,1.22,0,0,1-1.21,1.27c-.8,0-1.61,0-2.41,0a1.23,1.23,0,0,1-1.27-1,1.26,1.26,0,0,1,.7-1.38l.2-.11Z"/><path class="cls-2" d="M61.32,43.94c-.42.73-.91,1-1.49.89a1.21,1.21,0,0,1-.95-1.21c0-.79,0-1.57,0-2.36a1.22,1.22,0,0,1,2.34-.56,1.47,1.47,0,0,1,.1.13Z"/><path class="cls-2" d="M32.17,4.3a1.42,1.42,0,0,1,.88,1.17,1.21,1.21,0,0,1-1.21,1.27c-.8,0-1.6,0-2.41,0a1.21,1.21,0,0,1-1.26-1,1.25,1.25,0,0,1,.69-1.38l.2-.11Z"/><path class="cls-2" d="M39.55,4.3a1.45,1.45,0,0,1,.88,1.17,1.22,1.22,0,0,1-1.21,1.27c-.8,0-1.61,0-2.41,0a1.23,1.23,0,0,1-1.27-1,1.26,1.26,0,0,1,.7-1.38l.19-.11Z"/><path class="cls-2" d="M61.32,51.31c-.42.74-.91,1-1.49.89A1.21,1.21,0,0,1,58.88,51c0-.78,0-1.57,0-2.35a1.22,1.22,0,0,1,2.34-.57,1.47,1.47,0,0,0,.1.13Z"/><path class="cls-2" d="M46.92,4.3a1.42,1.42,0,0,1,.88,1.17,1.21,1.21,0,0,1-1.21,1.27c-.8,0-1.6,0-2.41,0a1.21,1.21,0,0,1-1.26-1,1.25,1.25,0,0,1,.69-1.38l.2-.11Z"/><path class="cls-2" d="M54.29,4.3a1.42,1.42,0,0,1,.88,1.17A1.21,1.21,0,0,1,54,6.74c-.8,0-1.61,0-2.41,0a1.22,1.22,0,0,1-1.27-1A1.26,1.26,0,0,1,51,4.41l.19-.11Z"/><path class="cls-2" d="M61.32,14.44c-.42.74-.91,1-1.49.89a1.21,1.21,0,0,1-.95-1.21c0-.78,0-1.57,0-2.35a1.22,1.22,0,0,1,2.34-.57,1.47,1.47,0,0,1,.1.13Z"/><path class="cls-2" d="M61.32,29.19c-.42.74-.91,1-1.49.89a1.21,1.21,0,0,1-.95-1.21c0-.78,0-1.57,0-2.35A1.22,1.22,0,0,1,61.22,26a1.47,1.47,0,0,1,.1.13Z"/><path class="cls-2" d="M61.32,7.06c-.56,1-1.49,1.27-2.06.55A7,7,0,0,0,58,6.36c-.72-.57-.43-1.51.55-2.06H60.4l.92.92Z"/><path class="cls-1" d="M7.23,48.49V46.15a8.69,8.69,0,0,1-.85-.23A2.37,2.37,0,0,1,4.79,43.6q0-3.65,0-7.31A2.42,2.42,0,0,1,7.32,33.8H36.64a2.45,2.45,0,0,1,2.56,2.58c0,2.33,0,4.65,0,7A2.46,2.46,0,0,1,37,46.07l-.24.08v2.36a2.51,2.51,0,0,1,2.35,2,3.13,3.13,0,0,1,.07.75v7a2.46,2.46,0,0,1-2.61,2.65H7.39a2.46,2.46,0,0,1-2.61-2.61c0-2.22,0-4.45,0-6.68C4.78,49.67,5.39,48.89,7.23,48.49Zm.06-12.21v7.29H36.71V36.28ZM36.72,51H7.3v7.3H36.72Zm-27-2.53h24.5V46.14H9.72Z"/><path class="cls-1" d="M4.78,12.91c-.46,0-.83,0-1.19,0a1.17,1.17,0,0,1-1.09-.72,1.19,1.19,0,0,1,.17-1.3c1.61-2,3.21-4,4.83-6a1.19,1.19,0,0,1,1.94,0c1.58,1.93,3.14,3.88,4.69,5.83.34.43.7.89.37,1.51a1.51,1.51,0,0,1-1.51.74h-.84v16.7c0,1.35-.37,1.72-1.7,1.72H6.53c-1.36,0-1.75-.39-1.75-1.74V12.91ZM9.7,28.84v-.7c0-5.28,0-10.55,0-15.83,0-.86.06-1.63,1.12-1.9L8.47,7.5,6.15,10.41c.95.28,1.11.95,1.11,1.77q0,8,0,16v.66Z"/><path class="cls-2" d="M47.81,26.44c0,.4,0,.8,0,1.2a1.23,1.23,0,0,1-2.45,0c0-.82,0-1.65,0-2.47A1.19,1.19,0,0,1,46.57,24a1.21,1.21,0,0,1,1.23,1.19C47.83,25.59,47.81,26,47.81,26.44Z"/><path class="cls-2" d="M45.34,33.8c0-.4,0-.81,0-1.21a1.21,1.21,0,0,1,1.25-1.23,1.18,1.18,0,0,1,1.21,1.2c0,.82,0,1.65,0,2.47a1.23,1.23,0,0,1-2.45,0C45.32,34.61,45.34,34.2,45.34,33.8Z"/><path class="cls-2" d="M17.07,20.28c-.42,0-.85,0-1.27,0A1.19,1.19,0,0,1,14.64,19a1.17,1.17,0,0,1,1.15-1.2c.86,0,1.73,0,2.59,0a1.22,1.22,0,0,1,0,2.43,11.63,11.63,0,0,1-1.32,0Z"/><path class="cls-2" d="M24.5,20.28c-.42,0-.84,0-1.26,0A1.21,1.21,0,0,1,22,19a1.19,1.19,0,0,1,1.21-1.21c.82,0,1.65,0,2.47,0a1.23,1.23,0,0,1,0,2.45c-.4,0-.81,0-1.21,0Z"/><path class="cls-2" d="M31.82,20.28c-.42,0-.85,0-1.27,0A1.19,1.19,0,0,1,29.39,19a1.16,1.16,0,0,1,1.15-1.2c.86,0,1.73,0,2.59,0a1.22,1.22,0,0,1,0,2.43,11.63,11.63,0,0,1-1.32,0Z"/><path class="cls-2" d="M39.25,17.82c.4,0,.8,0,1.2,0a1.21,1.21,0,0,1,1.19,1.23,1.18,1.18,0,0,1-1.19,1.22c-.85,0-1.69,0-2.53,0a1.22,1.22,0,0,1,0-2.44c.43,0,.88,0,1.32,0Z"/><path class="cls-2" d="M45.34,41.13c0-.4,0-.8,0-1.2a1.23,1.23,0,0,1,2.45,0,23.54,23.54,0,0,1,0,2.52,1.17,1.17,0,0,1-1.24,1.17,1.2,1.2,0,0,1-1.2-1.21C45.32,42,45.34,41.56,45.34,41.13Z"/><path class="cls-2" d="M45.34,48.55c0-.4,0-.81,0-1.21a1.21,1.21,0,0,1,1.24-1.23,1.18,1.18,0,0,1,1.22,1.2c0,.82,0,1.65,0,2.47a1.23,1.23,0,0,1-2.45,0C45.32,49.36,45.34,49,45.34,48.55Z"/><path class="cls-2" d="M47.83,19.72a7,7,0,0,1-.07.79,1.16,1.16,0,0,1-1.06,1,1.26,1.26,0,0,1-1.28-.76,1.12,1.12,0,0,0-.5-.51,1.25,1.25,0,0,1-.78-1.27,1.12,1.12,0,0,1,1-1.08,7.78,7.78,0,0,1,1.6,0,1.13,1.13,0,0,1,1,1.06,5.36,5.36,0,0,1,0,.8Z"/><path class="cls-2" d="M12.17,41.17c-.42,0-.85,0-1.27,0a1.21,1.21,0,0,1-1.19-1.22,1.2,1.2,0,0,1,1.2-1.21c.85,0,1.69,0,2.53,0a1.2,1.2,0,0,1,1.18,1.18,1.22,1.22,0,0,1-1.19,1.24C13,41.19,12.59,41.17,12.17,41.17Z"/><path class="cls-2" d="M33.14,38.73A1.18,1.18,0,0,1,34.26,40,1.22,1.22,0,0,1,33,41.17a1.25,1.25,0,0,1-1.14-1.28A1.22,1.22,0,0,1,33.14,38.73Z"/><path class="cls-2" d="M12.18,53.48c.42,0,.84,0,1.26,0a1.22,1.22,0,0,1,1.18,1.19A1.2,1.2,0,0,1,13.5,55.9c-.9,0-1.81.05-2.71,0a1.21,1.21,0,0,1,.06-2.41C11.29,53.46,11.73,53.48,12.18,53.48Z"/><path class="cls-2" d="M33.07,53.48a1.19,1.19,0,0,1,1.2,1.2A1.23,1.23,0,0,1,33,55.92a1.25,1.25,0,0,1-1.21-1.21A1.21,1.21,0,0,1,33.07,53.48Z"/></svg>