<svg id="Layer_1" data-name="Layer 1" xmlns="http://www.w3.org/2000/svg" viewBox="0 0 65 65"><defs><style>.cls-1{fill:#190f2d;}</style></defs><path class="cls-1" d="M56.6,23.75a47.57,47.57,0,0,1-3.2,17.79A31.56,31.56,0,0,1,34.75,59.75a7.41,7.41,0,0,1-5.81-.47c-9.51-4.09-15.59-11.2-18.61-21a47.74,47.74,0,0,1-1.83-17c.1-1.55.27-3.11.51-4.66a4.7,4.7,0,0,1,3-3.75C18.12,10.26,24.3,7.7,30.47,5.12a5,5,0,0,1,4,0L52.7,12.75A5,5,0,0,1,56,17.07C56.23,19.29,56.4,21.52,56.6,23.75Zm-46.41,0a51.07,51.07,0,0,0,1.45,12.08C14.33,46.4,20.51,54,30.81,58a4.35,4.35,0,0,0,3.25,0A29.57,29.57,0,0,0,51.92,40.1a46.05,46.05,0,0,0,2.14-23,3.14,3.14,0,0,0-2-2.6L33.76,6.9a3.33,3.33,0,0,0-2.66,0L12.91,14.51a3.2,3.2,0,0,0-2.09,2.74C10.58,19.41,10.4,21.58,10.19,23.75Z"/><path class="cls-1" d="M52.47,24.34a43.06,43.06,0,0,1-3.24,16.41A27.24,27.24,0,0,1,33.35,55.81a2.77,2.77,0,0,1-1.84,0c-9.41-3.62-15.1-10.54-17.6-20.18a45.62,45.62,0,0,1-.87-18,1.19,1.19,0,0,1,.81-1.05c6-2.51,12-5,18.08-7.54A1.64,1.64,0,0,1,33,9c6,2.49,12,5,18,7.51a1.17,1.17,0,0,1,.82,1.06C52.05,19.85,52.26,22.1,52.47,24.34Zm-1.94.15c-.15-1.94-.31-3.87-.44-5.81a.72.72,0,0,0-.52-.68L32.86,11a1.16,1.16,0,0,0-.78,0L15.26,18a.62.62,0,0,0-.45.6c-.06.91-.19,1.81-.25,2.72A42.45,42.45,0,0,0,16.29,37a25.55,25.55,0,0,0,15.6,16.87,1.53,1.53,0,0,0,1,0A25.12,25.12,0,0,0,47.19,40.67,39.81,39.81,0,0,0,50.53,24.49Z"/><path class="cls-1" d="M32.47,44.21H28a4.45,4.45,0,0,1-4.55-4.5c0-2.45,0-4.91,0-7.37a4.47,4.47,0,0,1,1.8-3.64,1.15,1.15,0,0,0,.35-.73,27.59,27.59,0,0,1,.2-3.54A6.82,6.82,0,0,1,33.08,19a6.9,6.9,0,0,1,6.24,6.61c0,.81,0,1.62,0,2.43a1,1,0,0,0,.31.62,4.55,4.55,0,0,1,1.84,3.75c0,2.4,0,4.8,0,7.19a4.45,4.45,0,0,1-4.62,4.6Zm-.08-1.9h4.52a2.54,2.54,0,0,0,2.68-2.69c0-2.4,0-4.79,0-7.19a2.56,2.56,0,0,0-2.68-2.7H28a2.55,2.55,0,0,0-2.67,2.7q0,3.6,0,7.2A2.53,2.53,0,0,0,28,42.3Zm5-14.52c0-.73,0-1.44,0-2.14a5,5,0,0,0-9.1-2.57c-1,1.45-.89,3.06-.83,4.71Z"/><path class="cls-1" d="M31.5,37c-1.41-.88-1.93-1.91-1.61-3.14A2.63,2.63,0,0,1,35,33.74a2.55,2.55,0,0,1-1.11,3,.74.74,0,0,0-.45.84v.06c.09,2.19-.19,2.33-1,2.32s-1-.18-.93-2.35Zm.94-1.8a.66.66,0,0,0,.72-.68.69.69,0,0,0-.74-.74.68.68,0,0,0-.69.72A.66.66,0,0,0,32.44,35.22Z"/></svg>