<svg id="Layer_1" data-name="Layer 1" xmlns="http://www.w3.org/2000/svg" viewBox="0 0 65 65"><defs><style>.cls-1{fill:#190f2d;}</style></defs><path class="cls-1" d="M17.92,30.08v-.85q0-5.6,0-11.18c0-1.24.53-1.77,1.77-1.77h5.13v-.67c0-3.79,0-7.57,0-11.36,0-1.24.52-1.77,1.76-1.77H38.3c1.23,0,1.75.53,1.75,1.78,0,3.77,0,7.53,0,11.3v.72h.67c1.53,0,3.05,0,4.58,0A1.48,1.48,0,0,1,47,17.94c0,3.78,0,7.57,0,11.35v.76l.67,0h4.58a1.47,1.47,0,0,1,1.65,1.65V43.86c.52.07,1,.13,1.53.23a8.83,8.83,0,0,1,7,8.39,9.62,9.62,0,0,1-1.9,6.58,8.39,8.39,0,0,1-6.74,3.33q-21.35,0-42.69,0a8.78,8.78,0,0,1-8.63-8.68A9.58,9.58,0,0,1,4.32,47.3,8.61,8.61,0,0,1,10.45,44l.57-.08v-12c0-1.32.52-1.82,1.84-1.83ZM32.41,61h21.1a7.22,7.22,0,0,0,6.14-3.16,8,8,0,0,0,1.34-5,7.36,7.36,0,0,0-7.45-7.48q-21.09,0-42.2,0a7.25,7.25,0,0,0-3.8,1c-3.2,1.95-4.19,5.19-3.44,8.89A7.22,7.22,0,0,0,11.31,61C18.34,61,25.37,61,32.41,61Zm6.17-44.64V4H34.93c0,1.79,0,3.53,0,5.27,0,.69-.25.95-.92,1H30.91c-.71,0-.95-.26-.95-1,0-1.55,0-3.09,0-4.64V4H26.28V16.34ZM28,17.73c0,1.81,0,3.55,0,5.29,0,.72-.25,1-1,1C26,24,25,24,24,24c-.64,0-.9-.27-.9-.91,0-1.45,0-2.89,0-4.34v-1H19.4V30.14H31.69V17.73Zm5.17,0V30.06l.33,0c2.24,0,4.48,0,6.72,0,1.54,0,3.09,0,4.63,0h.63V17.74H41.83V23c0,.75-.25,1-1,1h-3c-.75,0-1-.25-1-1,0-1.55,0-3.09,0-4.64q0-.3,0-.63ZM21.12,31.54v5.24c0,.77-.24,1-1,1h-3c-.71,0-1-.24-1-1V31.56H12.48v12.3h12.3V31.54Zm31.29,0H48.76c0,.22,0,.41,0,.6v4.58c0,.85-.21,1.06-1,1.07H44.78c-.79,0-1-.23-1-1V32.18c0-.21,0-.42,0-.62H40.09V43.85H52.41Zm-26.12,0v12.3H38.6V31.55H34.93v.68c0,1.55,0,3.09,0,4.64,0,.65-.25.91-.88.91H30.83c-.61,0-.86-.26-.87-.87,0-.81,0-1.62,0-2.44V31.54ZM31.42,8.71h2V4h-2Zm-6.88,9v4.78h2V17.74Zm15.83,0h-2v4.76h2ZM17.62,31.54v4.77h2V31.54Zm13.81,0v4.77h2V31.54Zm13.81,0v4.78h2V31.54Z"/><path class="cls-1" d="M11.79,9.71V21.85c0,1-.15,1.19-1.21,1.19H7.31c-1,0-1.15-.19-1.15-1.13V9.71c-.92,0-1.8,0-2.68,0a1.43,1.43,0,0,1-.72-.19c-.41-.26-.37-.73.06-1.16C4,7.15,5.2,6,6.39,4.78l2-2c.46-.45.78-.47,1.23,0,1.87,1.86,3.73,3.71,5.57,5.6a1,1,0,0,1,.23.83,1.06,1.06,0,0,1-.79.46C13.7,9.74,12.79,9.71,11.79,9.71ZM10.36,21.59V9.67c0-1.33.08-1.4,1.43-1.4h1.09L9.07,4.42,5.22,8.27c-.08,0,0,0,0,0H6.52c.89,0,1.07.19,1.07,1.09V21.59Z"/><path class="cls-1" d="M58.72,9.71V21.94c0,.89-.2,1.09-1.07,1.1h-3.5c-.85,0-1.06-.2-1.06-1.05V9.71H50.48c-.41,0-.83,0-1-.45s.09-.74.38-1l5.3-5.29c.62-.62.87-.62,1.48,0L62,8.25c.28.27.56.53.39,1s-.57.49-1,.49C60.51,9.7,59.66,9.71,58.72,9.71ZM52,8.27h1.31c1,0,1.17.16,1.17,1.17V21.56h2.77V9.29c0-.81.21-1,1-1h1.53l-3.9-3.91Z"/><path class="cls-1" d="M32.47,58.87H11.72A5.34,5.34,0,0,1,6.27,55C5,50.5,8.09,47.39,11.82,47.41c13.77.05,27.54,0,41.31,0a5.39,5.39,0,0,1,5.63,4.44c.72,4-1.71,6.41-4.31,6.9a8.12,8.12,0,0,1-1.48.09Zm25-5.69a4,4,0,0,0-4.11-4.32,4.29,4.29,0,1,0,0,8.58A4,4,0,0,0,57.44,53.18Zm-50,0a4,4,0,0,0,4.16,4.26,4.29,4.29,0,1,0,0-8.58A4,4,0,0,0,7.44,53.18Zm31.9,4.25a4.29,4.29,0,1,0-4.28-4.25A4.26,4.26,0,0,0,39.34,57.43Zm-13.78,0a4.29,4.29,0,1,0-4.31-4.28A4.27,4.27,0,0,0,25.56,57.43Zm-9.95-8.56c2.47,2.88,2.47,5.7,0,8.52h6c-2.41-2.87-2.4-5.69,0-8.52Zm33.64,8.55c-2.46-2.89-2.43-5.71,0-8.52h-6c2.45,2.84,2.43,5.66,0,8.52Zm-13.83,0c-2.42-2.87-2.42-5.69,0-8.49h-6c2.45,2.93,2.46,4.89.06,8.49Z"/><path class="cls-1" d="M50.74,53.12a2.38,2.38,0,0,1,2.43-2.38,2.43,2.43,0,0,1,2.42,2.42,2.46,2.46,0,0,1-2.42,2.43A2.43,2.43,0,0,1,50.74,53.12Zm2.39,1a1,1,0,0,0,1-.94,1,1,0,0,0-1-1,1,1,0,0,0-1,.93A1,1,0,0,0,53.13,54.15Z"/><path class="cls-1" d="M14.15,53.16a2.44,2.44,0,0,1-2.42,2.43,2.46,2.46,0,0,1-2.44-2.47,2.43,2.43,0,0,1,2.46-2.38A2.39,2.39,0,0,1,14.15,53.16Zm-1.44,0a1,1,0,0,0-1-1,1,1,0,0,0-.94,1,1,1,0,0,0,1,1A1,1,0,0,0,12.71,53.13Z"/><path class="cls-1" d="M36.93,53.16a2.42,2.42,0,0,1,4.84,0,2.42,2.42,0,1,1-4.84,0Zm3.4,0a1,1,0,0,0-2,0,1,1,0,1,0,2,0Z"/><path class="cls-1" d="M25.55,50.74A2.38,2.38,0,0,1,28,53.15a2.42,2.42,0,1,1-4.84,0A2.4,2.4,0,0,1,25.55,50.74Zm1,2.41a1,1,0,0,0-2,0,1,1,0,1,0,2,0Z"/></svg>