<svg id="Layer_1" data-name="Layer 1" xmlns="http://www.w3.org/2000/svg" viewBox="0 0 65 65"><defs><style>.cls-1{fill:#190f2d;}</style></defs><path class="cls-1" d="M2,55.63V11.16a11.21,11.21,0,0,1,.86-1.93A4.18,4.18,0,0,1,6.44,7.36c.92,0,1.84,0,2.75,0A6,6,0,0,1,12,3,16.83,16.83,0,0,1,14.6,2H50.28l.33.11a6.14,6.14,0,0,1,4.78,4.08c.14.36.21.75.33,1.16.25,0,.49,0,.72,0C61.19,7,63,9,62.93,13.82c-.17,9.65,0,19.3,0,29,0,4,0,8,0,12a4.38,4.38,0,0,1-2.34,4,10.84,10.84,0,0,1-1.23.51v2.3c0,1-.25,1.3-1.29,1.3H7c-1.28,0-1.46-.19-1.46-1.49V59.24a4.5,4.5,0,0,1-3.12-2.47C2.27,56.4,2.15,56,2,55.63ZM53.84,7.35c0-.14,0-.24-.05-.33a4.46,4.46,0,0,0-4.41-3.23q-16.91,0-33.82,0a4.45,4.45,0,0,0-4.64,4.34c-.05.7-.35,1-1.06,1h-3c-2.07,0-3.11,1-3.11,3.1v42.2q0,3.1,3.11,3.1H58c2.12,0,3.15-1,3.15-3.12V12.27c0-2.12-1-3.14-3.13-3.14H14.16a4.85,4.85,0,0,1-.66,0,.84.84,0,0,1-.79-.88.85.85,0,0,1,.8-.88,4,4,0,0,1,.6,0H53.84Zm3.66,52H7.4v1.72H57.5Z"/><path class="cls-1" d="M32.5,14.49H54.43c1.07,0,1.32.24,1.32,1.33V43.7c0,1.11-.24,1.34-1.37,1.34H10.51c-1.14,0-1.38-.23-1.38-1.33V15.83c0-1.11.24-1.34,1.37-1.34ZM11,29.73a2,2,0,0,0,.31,0c3.17,0,6.35,0,9.52,0a.85.85,0,0,0,.6-.4c1-2,2-3.92,3-5.89.21-.42.42-.82,1-.81s.76.42,1,.84L32.1,35.12c.09.18.2.36.34.61.14-.25.25-.43.34-.62q2.92-5.84,5.84-11.68c.2-.4.42-.77.94-.78s.76.35,1,.76c1,1.95,1.95,3.89,2.91,5.85a.8.8,0,0,0,.86.52c3,0,6,0,9,0h.61V16.31H11Zm43,1.83h-.78c-3.19,0-6.38,0-9.57,0a1.39,1.39,0,0,1-1.44-.88c-.71-1.53-1.49-3-2.25-4.52-.09-.18-.19-.36-.34-.62-.46.92-.87,1.73-1.27,2.54Q35.83,33,33.38,37.92c-.24.48-.56.9-1.13.69a1.52,1.52,0,0,1-.75-.75c-2-3.88-3.91-7.78-5.86-11.67-.09-.19-.2-.36-.34-.61-.14.26-.25.44-.34.63-.74,1.47-1.5,2.93-2.19,4.42a1.47,1.47,0,0,1-1.53.94c-3.19,0-6.38,0-9.57,0H11V43.23h43Z"/><path class="cls-1" d="M28.87,50.4H47.24c1.15,0,1.37.22,1.37,1.39v2.56c0,1.17-.22,1.4-1.37,1.4H10.45c-1.07,0-1.31-.25-1.32-1.34V51.79c0-1.17.22-1.39,1.38-1.39ZM11,53.93H21.67V52.21H11ZM46.8,52.21H36.08v1.72H46.8ZM23.52,53.92h10.7V52.21H23.52Z"/><path class="cls-1" d="M54.85,55.75a4.46,4.46,0,1,1,4.46-4.46A4.47,4.47,0,0,1,54.85,55.75Zm0-1.79a2.68,2.68,0,1,0-2.67-2.69A2.68,2.68,0,0,0,54.85,54Z"/></svg>