<svg id="Layer_1" data-name="Layer 1" xmlns="http://www.w3.org/2000/svg" viewBox="0 0 65 65"><defs><style>.cls-1{fill:blue;}.cls-2{fill:#f3f945;}</style></defs><path class="cls-1" d="M18.28,61.93H5.38c-1.85,0-2.79-1.41-1.86-3A11.35,11.35,0,0,0,5,52.67c-.12-4.74,0-9.48,0-14.22a2,2,0,0,1,2.23-2.21H29.37a2,2,0,0,1,2.23,2.22q0,8.51,0,17a2.58,2.58,0,0,0,.24,1c.4.86.85,1.7,1.27,2.55a1.91,1.91,0,0,1-1.82,2.9ZM29.67,38.18H6.91V55.24H29.67ZM31.47,60c-.41-.82-.82-1.59-1.17-2.37a.7.7,0,0,0-.77-.46c-1.81,0-3.61,0-5.41,0H7.06c-.21,0-.53,0-.59.13C6,58.18,5.55,59.07,5.09,60Z"/><path class="cls-1" d="M46.51,12.9a5.55,5.55,0,0,1-.88-8.18,5.45,5.45,0,0,1,7.7-.38,5.33,5.33,0,0,1,1.81,4.34c0,1.42-.46,2.19-2.17,4.17a16.39,16.39,0,0,1,2,.28,5.64,5.64,0,0,1,4.25,5.5c0,2.77,0,5.55,0,8.32v.71H62v1.87H37.35V27.69h2.81V27c0-2.68,0-5.35,0-8a5.72,5.72,0,0,1,5.95-6.07ZM57.29,27.65V27.2c0-2.82,0-5.63,0-8.44a3.79,3.79,0,0,0-3.94-3.93H46a3.8,3.8,0,0,0-4,4c0,2.79,0,5.59,0,8.38,0,.15,0,.3,0,.48h2.13c0-.19,0-.34-.06-.49-.36-1.93-.73-3.85-1.09-5.78a1,1,0,0,1,1.07-1.32H55.25a1,1,0,0,1,1,1.28l-.63,3.33c-.18,1-.36,2-.54,3ZM45.13,22c.34,1.82.66,3.61,1,5.39,0,.12.26.27.41.27q3.12,0,6.24,0c.14,0,.39-.15.41-.27.36-1.78.68-3.57,1-5.39ZM53.25,8.38A3.57,3.57,0,1,0,49.73,12,3.57,3.57,0,0,0,53.25,8.38Z"/><path class="cls-2" d="M28.41,11.38l-2.1-1.49,1.07-1.54.85.57c1.23.87,2.47,1.72,3.69,2.6.84.59.86,1.26,0,1.84L27.4,16.55,26.31,15l2.21-1.57H11.64v19H9.72V12.86c0-1.09.27-1.36,1.37-1.36H28.37Z"/><path class="cls-2" d="M41.53,48.31l1.08,1.55-2.2,1.56H53.46v-17h1.93V52c0,1.08-.28,1.36-1.38,1.36H40.35L42.6,55l-1.08,1.56c-1.62-1.14-3.22-2.24-4.79-3.38a.9.9,0,0,1,.06-1.52C38.33,50.53,39.9,49.45,41.53,48.31Z"/><path class="cls-2" d="M18.38,53.86a13.83,13.83,0,0,1-8.56-3.43c-1.44-1.17-1.44-1.53,0-2.67a13.27,13.27,0,0,1,8.77-3.42A13.12,13.12,0,0,1,26,47.19a14.56,14.56,0,0,1,1.42,1.18.9.9,0,0,1,0,1.42A14.19,14.19,0,0,1,18.38,53.86Zm1.8-4.75A1.9,1.9,0,1,0,18.27,51,1.9,1.9,0,0,0,20.18,49.11Zm1.37-2.34-.13.16a3.88,3.88,0,0,1-.06,4.43A14.11,14.11,0,0,0,25.47,49Zm-6.62,4.59.17-.18a3.92,3.92,0,0,1,.08-4.34,14,14,0,0,0-4.1,2.33Z"/><path class="cls-2" d="M26,41.34,24.89,44l-1.74-.75,1.14-2.61Z"/><path class="cls-2" d="M19.19,42.4H17.36V39.6h1.83Z"/><path class="cls-2" d="M12.29,40.6l1.14,2.61L11.7,44l-1.15-2.61Z"/><path class="cls-2" d="M50.63,24.79a1,1,0,0,1-1.9.06,1,1,0,1,1,1.9-.06Z"/></svg>