<svg id="Layer_1" data-name="Layer 1" xmlns="http://www.w3.org/2000/svg" viewBox="0 0 65 65"><defs><style>.cls-1{fill:#4dc0b3;}</style></defs><path class="cls-1" d="M13.38,55.47A3,3,0,0,1,10,58H5.15A2.91,2.91,0,0,1,2,54.77Q2,48,2,41.17A2.87,2.87,0,0,1,5.1,38h5.21a2.87,2.87,0,0,1,2.95,2.06.72.72,0,0,0,.5.37q1.44.06,2.88,0a2.3,2.3,0,0,0,.87-.29c4.71-2.17,9.3-2.08,13.7.79a10.46,10.46,0,0,1,2,2,.93.93,0,0,0,.81.42c2.47,0,4.93,0,7.4,0a4.55,4.55,0,0,1,3.87,1.52c.18-.09.38-.18.58-.29,3.32-1.8,6.63-3.62,10-5.39a4.4,4.4,0,0,1,6.52,3.19,4.3,4.3,0,0,1-1.94,4.44l-9.75,6.94c-2.23,1.58-4.51,3.1-6.68,4.77A10.68,10.68,0,0,1,33.6,60.33c-5.27-1.66-10.58-3.18-15.89-4.7a10.2,10.2,0,0,0-2.42-.16C14.66,55.45,14,55.47,13.38,55.47Zm0-1.51c1.16,0,2.26,0,3.36,0a5.07,5.07,0,0,1,1.35.2q8.29,2.41,16.56,4.88a8.49,8.49,0,0,0,7.89-1.31c1.64-1.2,3.3-2.35,5-3.52l12-8.54a3,3,0,0,0,1.41-2.38,2.94,2.94,0,0,0-4.42-2.7c-3.33,1.78-6.64,3.59-10,5.4-.16.08-.31.18-.46.27.92,3.26-1.44,6-4.85,5.83-3.61-.14-7.22,0-10.84,0a4.17,4.17,0,0,1-.5,0,.72.72,0,0,1-.74-.77.7.7,0,0,1,.78-.72h11.9a2.82,2.82,0,0,0,2.94-2.65,2.78,2.78,0,0,0-2.84-3c-2.84,0-5.68,0-8.52,0a1.1,1.1,0,0,1-1.14-.59,6.23,6.23,0,0,0-2.84-2.74,11.83,11.83,0,0,0-10.68-.29,6.8,6.8,0,0,1-3.29.69c-.68,0-1.36,0-2.06,0Zm-1.52-6c0-2.28,0-4.55,0-6.83,0-1.11-.51-1.6-1.62-1.61H5.17c-1.19,0-1.66.49-1.66,1.69V54.69c0,1.25.49,1.75,1.73,1.75,1.59,0,3.18,0,4.77,0,1.38,0,1.85-.46,1.85-1.83C11.87,52.4,11.87,50.18,11.87,48Z"/><path class="cls-1" d="M49.39,10.28a12.43,12.43,0,0,1-1.27-1.22,1.13,1.13,0,0,1-.29-.87,1,1,0,0,1,.74-.52c2.45-.23,4.91-.42,7.36-.59.61,0,.91.25.86.87-.17,2.45-.35,4.91-.58,7.36a.77.77,0,0,1-1.36.49c-.44-.38-.81-.84-1.26-1.31l-.54.5c-1.11,1.11-2.21,2.22-3.32,3.32-.59.59-.89.58-1.48,0q-1.35-1.33-2.7-2.7c-.58-.58-.57-.88,0-1.47l3.32-3.32Zm-2.34,4.49,2,2.08.31-.28q1.74-1.75,3.5-3.49c.52-.52.86-.53,1.37,0a2.75,2.75,0,0,1,.37.65l.27-.2.38-4.9-5,.4.29.34c.91.94.9,1,0,2l-.36.35Z"/><path class="cls-1" d="M31.52,28.2l3.67-3.68c.8-.8,1-.8,1.84,0l2.52,2.52c.54.55.54.89,0,1.44C38.28,29.77,37,31,35.66,32.37A17.16,17.16,0,0,1,37,33.6a1.08,1.08,0,0,1,.29.86,1.1,1.1,0,0,1-.79.54c-2.41.23-4.82.41-7.24.59-.67,0-1-.25-.93-.92.18-2.44.35-4.87.58-7.3a1,1,0,0,1,.53-.74,1,1,0,0,1,.82.23A18.6,18.6,0,0,1,31.52,28.2ZM30.45,29l-.23.19L29.83,34l5-.41c-.22-.24-.36-.4-.52-.56-.56-.58-.57-.91,0-1.47l.48-.49,3.25-3.24-2-2.05-.25.23-3.54,3.54c-.52.51-.87.52-1.38,0A4.54,4.54,0,0,1,30.45,29Z"/><path class="cls-1" d="M53.57,28.17a15.86,15.86,0,0,1,1.29-1.3,1,1,0,0,1,.81-.25,1,1,0,0,1,.54.73c.23,2.47.41,4.95.59,7.42a.72.72,0,0,1-.86.83c-2.47-.19-4.95-.37-7.42-.6a1,1,0,0,1-.69-.52,1,1,0,0,1,.24-.82,17.15,17.15,0,0,1,1.36-1.3L46,28.94c-1.18-1.17-1.18-1.17,0-2.35.75-.76,1.5-1.51,2.26-2.26.55-.54.88-.54,1.43,0l3.36,3.36Zm1.28.86-.37.31c-.89.86-1,.86-1.92,0-1.18-1.18-2.35-2.37-3.48-3.51l-2.06,2c.12.13.26.29.41.43l3.32,3.32c.57.58.57.91,0,1.49l-.55.58,5,.39Z"/><path class="cls-1" d="M35.67,10.3l3.77,3.77c.68.68.68,1,0,1.65-.87.87-1.74,1.75-2.62,2.61-.56.56-.86.56-1.42,0C34.26,17.22,33.14,16.09,32,15l-.54-.51a15.32,15.32,0,0,1-1.21,1.3,1.1,1.1,0,0,1-.87.28,1.18,1.18,0,0,1-.53-.81c-.22-2.39-.39-4.79-.57-7.18-.06-.72.22-1,.95-1,2.39.17,4.79.35,7.18.58a1.06,1.06,0,0,1,.81.51,1.29,1.29,0,0,1-.33.95A12.72,12.72,0,0,1,35.67,10.3Zm2.39,4.53-.28-.3L34.28,11c-.51-.51-.51-.88,0-1.38a2.75,2.75,0,0,1,.65-.37L34.73,9l-4.9-.38.41,5,.42-.37.26-.27c.49-.44.83-.42,1.35.09l3.78,3.81Z"/></svg>