<svg id="Layer_1" data-name="Layer 1" xmlns="http://www.w3.org/2000/svg" viewBox="0 0 462 384"><path d="M442,73.36c-.61,2.24-1.16,4.51-1.86,6.73A45.28,45.28,0,0,1,429,98.84c-36.68,36.67-73.24,73.47-110.09,110-22.22,22-49.21,33.23-80.55,33.86-10.63.21-17.22-6.22-16.91-16.78.89-30.52,11.25-57.37,32.72-79.18Q309.63,90.34,366,34.8c12.46-12.31,28-15.57,44.63-10.39,16.84,5.26,26.91,17.23,30.63,34.51.18.83.5,1.64.75,2.46ZM252.89,210.83c14.54-1.74,31.93-10.52,44-22.56q55.15-54.9,110.09-110c6.55-6.57,6.69-15.6.56-21.67s-15.23-5.74-21.7.72Q330.94,112.16,276.1,167.1a82.16,82.16,0,0,0-18.8,29.38C255.58,201.07,254.4,205.86,252.89,210.83Z"/><path d="M58.76,226.65q0-44,0-87.94c0-37.72,26.06-68.57,63.28-74.82A67.28,67.28,0,0,1,133.21,63q62.49-.09,125,0c8.37,0,14.53,5.08,15.9,12.92a14.77,14.77,0,0,1-9.87,16.16,27,27,0,0,1-8.09,1q-60.42.07-120.86,0c-22.76,0-40.19,13.56-45.37,35.31a46.49,46.49,0,0,0-1.17,10.73q-.11,88.31-.07,176.61c0,7,2.41,12.51,9,15.43s12.3,1,17.45-3.74c7.35-6.75,14.89-13.28,22.26-20a18.2,18.2,0,0,1,12.88-4.93q78,.09,156,0c22.25,0,39.76-13.87,44.77-35.52a48.71,48.71,0,0,0,1.08-10.38c.13-10.72,0-21.45.06-32.18a15.09,15.09,0,0,1,15-15.39c8.34,0,14.9,6.77,14.92,15.45,0,11.73.07,23.45,0,35.18-.24,35.21-28.15,67.11-63,71.93a108.4,108.4,0,0,1-14.52,1q-72.78.09-145.56,0a11.1,11.1,0,0,0-8.28,3.27c-6.1,5.7-12.2,11.45-18.76,16.61-14.51,11.43-30.68,13.6-47.33,5.71S59,336.26,58.83,317.57C58.59,287.27,58.76,257,58.76,226.65Z"/><path d="M156.06,182.86c-7.1,0-14.2.06-21.31,0-9.73-.1-16.19-6.27-16.1-15.26.09-8.63,6.82-14.78,16.28-14.79,14.45,0,28.91-.07,43.36,0a15.1,15.1,0,0,1,15.07,12.52A14.84,14.84,0,0,1,183.24,182a22.13,22.13,0,0,1-6.24.8C170,182.92,163,182.86,156.06,182.86Z"/><path d="M155.83,242.74c-7.1,0-14.21.07-21.31,0-9.5-.12-15.92-6.29-15.87-15.11s6.73-14.92,16.14-14.94c14.58,0,29.16-.09,43.74,0A15,15,0,0,1,183,242a22.92,22.92,0,0,1-6.26.71C169.78,242.79,162.81,242.74,155.83,242.74Z"/></svg>