<svg xmlns="http://www.w3.org/2000/svg" xmlns:xlink="http://www.w3.org/1999/xlink" viewBox="0 0 750 500"><defs><style>.cls-1{isolation:isolate;}.cls-2{opacity:0.5;fill:url(#linear-gradient);}.cls-12,.cls-3{fill:none;}.cls-3{stroke:#072359;stroke-linecap:round;stroke-miterlimit:10;stroke-width:2px;}.cls-4{fill:#072359;}.cls-5{fill:#5de4e3;}.cls-6{fill:#b78879;}.cls-7{fill:#e8af8b;}.cls-8{fill:#0869a6;}.cls-9{fill:#0a5d87;}.cls-10{fill:#ebf5f8;}.cls-11{fill:#c0e1e9;}.cls-13{fill:#0388a6;}.cls-14{fill:#02667d;}.cls-15{fill:#036c77;}.cls-16{fill:#89665b;}.cls-17{fill:#00cbe7;}.cls-18{fill:#0499a5;}.cls-19{fill:#f0b792;}.cls-20{fill:#b4896e;}.cls-21{fill:#e3f2f5;mix-blend-mode:multiply;}</style><linearGradient id="linear-gradient" x1="65.74" y1="245.26" x2="693.12" y2="245.26" gradientUnits="userSpaceOnUse"><stop offset="0.58" stop-color="#99d9ee"/><stop offset="1" stop-color="#1d262d"/></linearGradient></defs><g class="cls-1"><g id="OBJECTS"><path class="cls-2" d="M250.12,102.58c32.17,9.41,60.95,30,94.18,34.32,69,9,125.87-50.55,192.53-60.29C650.24,60,732.59,184.12,673.39,282.17,662.78,299.75,648,315.32,642.28,335c-3.49,12-3.4,24.86-7.39,36.7-10.31,30.54-46.33,46.48-78.4,43.26-65.82-6.59-107.35-69.46-166.38-94.5-44.7-19-98.65-14.36-139.49,11.91-27,17.34-75.62,71.06-122.54,47.81-31.89-15.8-63.85-66-62.29-124.44C69.56,114.26,181.06,82.39,250.12,102.58Z"/><line class="cls-3" x1="78.38" y1="443.3" x2="671.86" y2="443.3"/><path class="cls-4" d="M584.71,442.74H531.36a13.88,13.88,0,0,1-13.87-13.86V323.62a1.34,1.34,0,0,1,2.68,0V428.88a11.19,11.19,0,0,0,11.19,11.18h53.35a11.2,11.2,0,0,0,11.19-11.19V323.62a1.34,1.34,0,0,1,2.68,0V428.87A13.89,13.89,0,0,1,584.71,442.74Z"/><path class="cls-5" d="M587.63,443h-59.2A14.46,14.46,0,0,1,518,438.44a18.73,18.73,0,0,1-5-13.61l3.28-145.47a7.44,7.44,0,0,1,7.4-7.24h68.76a7.44,7.44,0,0,1,7.4,7.24l3.28,145.48a18.76,18.76,0,0,1-5,13.6A14.5,14.5,0,0,1,587.63,443Zm-64-167.28a3.86,3.86,0,0,0-3.83,3.75l-3.28,145.48a15.21,15.21,0,0,0,4,11,11,11,0,0,0,7.86,3.45h59.2a11,11,0,0,0,7.86-3.45,15.11,15.11,0,0,0,4-11l-3.28-145.5a3.85,3.85,0,0,0-3.83-3.75Z"/><path class="cls-5" d="M600.71,279.34a8.35,8.35,0,0,0-8.3-8.12H523.65a8.35,8.35,0,0,0-8.29,8.12L514.71,308h5.36l.07-3.15a6.78,6.78,0,0,1,6.77-6.61h62.25a6.77,6.77,0,0,1,6.76,6.61L596,308h5.36Zm-15,8.26H530.33a3.24,3.24,0,1,1,0-6.47h55.41a3.24,3.24,0,0,1,0,6.47Z"/><rect class="cls-5" x="516.54" y="343.95" width="82.99" height="7.01"/><path class="cls-4" d="M340.82,442.74H287.47a13.88,13.88,0,0,1-13.87-13.86V323.62a1.34,1.34,0,1,1,2.68,0V428.88a11.19,11.19,0,0,0,11.19,11.18h53.35A11.2,11.2,0,0,0,352,428.87V323.62a1.34,1.34,0,1,1,2.68,0V428.87A13.88,13.88,0,0,1,340.82,442.74Z"/><path class="cls-5" d="M343.75,443H284.54a14.49,14.49,0,0,1-10.42-4.53,18.77,18.77,0,0,1-5-13.61l3.28-145.47a7.44,7.44,0,0,1,7.41-7.24h68.75a7.44,7.44,0,0,1,7.41,7.24l3.28,145.48a18.76,18.76,0,0,1-5,13.6A14.49,14.49,0,0,1,343.75,443Zm-64-167.28a3.86,3.86,0,0,0-3.84,3.75l-3.27,145.48a15.16,15.16,0,0,0,4,11,11,11,0,0,0,7.86,3.45h59.21A10.92,10.92,0,0,0,351.6,436a15.11,15.11,0,0,0,4-11l-3.28-145.5a3.85,3.85,0,0,0-3.83-3.75Z"/><path class="cls-5" d="M356.82,279.34a8.35,8.35,0,0,0-8.3-8.12H279.77a8.35,8.35,0,0,0-8.3,8.12L270.83,308h5.35l.08-3.15a6.76,6.76,0,0,1,6.76-6.61h62.25a6.76,6.76,0,0,1,6.76,6.61l.07,3.15h5.36Zm-15,8.26H286.44a3.24,3.24,0,1,1,0-6.47h55.41a3.24,3.24,0,1,1,0,6.47Z"/><rect class="cls-5" x="272.65" y="343.95" width="82.99" height="7.01"/><path class="cls-6" d="M326.43,206.08c-.46,3.29.41,6.14,2,6.35s3.17-2.27,3.63-5.56-.4-6.14-1.95-6.36S326.9,202.78,326.43,206.08Z"/><polygon class="cls-6" points="326.76 214.31 326.76 220.5 314.12 229.58 301.49 220.5 301.49 214.31 326.76 214.31"/><path class="cls-6" d="M301.81,206.08c.47,3.29-.41,6.14-1.95,6.35s-3.17-2.27-3.64-5.56.41-6.14,1.95-6.36S301.35,202.78,301.81,206.08Z"/><ellipse class="cls-7" cx="314.12" cy="206.69" rx="14.18" ry="16.83"/><path class="cls-8" d="M328,210.39c2-2.59,1.14-6.26,1.28-12.27.08-3.61.72-7.66,0-10.59-.93-3.76-3.23-2.82-8.44-7s-10.73-4.82-17,.27-5.28,12.34-4.77,17-.91,10.6.93,10.73l1.41-9.58a2.41,2.41,0,0,1,3.45-1.82c3.09,1.48,7.9,3.3,11,2,4.84-2,7.69-5.57,9.08-4.69S328,210.39,328,210.39Z"/><path class="cls-4" d="M322,207.25a2.68,2.68,0,0,1-3.25,0Z"/><path class="cls-4" d="M324.43,205.38h-.1a25.61,25.61,0,0,0-7.12,0,.45.45,0,0,1-.5-.39.45.45,0,0,1,.38-.5,26.69,26.69,0,0,1,7.44,0,.45.45,0,0,1-.1.88Z"/><path class="cls-4" d="M306.32,207.25a2.69,2.69,0,0,0,3.26,0Z"/><path class="cls-4" d="M303.86,205.38a.45.45,0,0,1-.1-.88,26.7,26.7,0,0,1,7.44,0,.45.45,0,0,1-.12.89,25.61,25.61,0,0,0-7.12,0Z"/><path class="cls-6" d="M317.39,211.49a1.11,1.11,0,0,1-.34,1,3.09,3.09,0,0,1-.88.61,5.07,5.07,0,0,1-2,.41,4.92,4.92,0,0,1-2-.41,2.9,2.9,0,0,1-.88-.61,1.09,1.09,0,0,1-.34-1,1.12,1.12,0,0,0,.62.64,3.26,3.26,0,0,0,.83.29,8.33,8.33,0,0,0,1.8.18,7.66,7.66,0,0,0,1.79-.18,3.48,3.48,0,0,0,.84-.29A1.1,1.1,0,0,0,317.39,211.49Z"/><path class="cls-4" d="M315.8,218.11a7.8,7.8,0,0,0,1.49-.54,5,5,0,0,0,1.29-.79,5.42,5.42,0,0,0,.86-1.09,8.44,8.44,0,0,0,.6-1.36h.08a2.07,2.07,0,0,1,.12,1.76,2.75,2.75,0,0,1-1.24,1.28,6.34,6.34,0,0,1-3.19.83Z"/><path class="cls-8" d="M280.91,344h33.21V319.6H287.35c-10.65,0-37,10.12-31.63,29.35Z"/><polygon class="cls-9" points="284.52 336.18 314.12 336.18 314.12 343.95 280.91 343.95 284.52 336.18"/><path class="cls-8" d="M271.18,418.28,255.72,349a15.79,15.79,0,0,1,15.41-19.23h0a17.12,17.12,0,0,1,17.07,15.81l5.56,72.75Z"/><path class="cls-9" d="M293.76,418.28l.3,3.33a3.73,3.73,0,0,0,1,2.21h0a3.76,3.76,0,0,1,1,2.18l.67,7.09-16.48-2.24-2.11-12.57Z"/><path class="cls-4" d="M262,443.3s-1.32-3.25.53-5.11,11.37-1.77,15.76-11.81c2.34-5.32,10.87-4,12.72,0s5.83,7.16,5.3,3.45c0,0,1.27-.38,1.8,1.21s2.17,12.26,2.17,12.26Z"/><path class="cls-8" d="M347.33,344H314.12V319.6H340.9c10.65,0,35.83,9,31.63,29.35Z"/><polygon class="cls-9" points="343.73 336.18 314.12 336.18 314.12 343.95 347.33 343.95 343.73 336.18"/><path class="cls-8" d="M357.06,418.28,372.53,349a15.8,15.8,0,0,0-15.42-19.23h0a17.11,17.11,0,0,0-17.06,15.81l-5.57,72.75Z"/><path class="cls-9" d="M334.48,418.28l-.29,3.33a3.79,3.79,0,0,1-1,2.21h0a3.77,3.77,0,0,0-1,2.18l-.67,7.09,16.48-2.24,2.11-12.57Z"/><path class="cls-4" d="M366.24,443.3s1.33-3.25-.53-5.11-11.37-1.77-15.76-11.81c-2.33-5.32-10.86-4-12.72,0s-5.82,7.16-5.29,3.45c0,0-1.28-.38-1.81,1.21S328,443.3,328,443.3Z"/><path class="cls-8" d="M274.89,322.28c2.08-.74-.07-2.36,3.16-5.18h72.14c3.24,2.82,1.09,4.44,3.17,5.18Z"/><path class="cls-10" d="M287.35,229.58h0a16.85,16.85,0,0,0-16.58,13.81c-2.74,15-6.44,38.38-5.42,50.43h15.56l6.44-26.58Z"/><path class="cls-11" d="M282.42,251.07c0,6.38-12.87,25.14-14.61,30.06H284l3.36-13.89V251.07Z"/><path class="cls-10" d="M340.9,229.58h0a16.84,16.84,0,0,1,16.57,13.81c2.74,15,2.74,36.51,1.72,48.55l-16.75,1.88C336.38,278.19,340.9,229.58,340.9,229.58Z"/><path class="cls-11" d="M345.8,252.2l-6.44,18.61c.25,9.29,1.1,17.91,3.08,23l11.78-8.14C349.25,279.42,345.8,256.9,345.8,252.2Z"/><path class="cls-10" d="M350.19,317.1h0a40.3,40.3,0,0,0-3.56-16.54l-2.16-4.81a40.14,40.14,0,0,1-3.57-16.53s11.08-34.51,0-49.64H287.35c-11.09,15.13,0,49.64,0,49.64a40.3,40.3,0,0,1-3.57,16.53l-2.16,4.81a40.15,40.15,0,0,0-3.57,16.54h72.14Z"/><path class="cls-11" d="M346.63,300.56l-2.16-4.81a40.14,40.14,0,0,1-3.57-16.53s1.09-3.4,2.25-8.53c-2.08,8.07-10.95,7.55-27.7,7.55-17.38,0-31.33-12.26-32.28-18.34h0a122.3,122.3,0,0,0,4.18,19.32,40.3,40.3,0,0,1-3.57,16.53l-2.16,4.81c-2.36,5.23-6.73,11.8-3.57,16.54h72.14C353.36,311.44,349,305.79,346.63,300.56Z"/><path class="cls-11" d="M343.33,269.86l0-.12h0Z"/><polygon class="cls-11" points="314.12 229.58 305.66 244.11 293.45 229.58 314.12 229.58"/><polygon class="cls-10" points="301.49 220.5 293.45 229.58 305.27 240.62 314.12 229.58 301.49 220.5"/><polygon class="cls-11" points="314.12 229.58 322.58 244.11 334.79 229.58 314.12 229.58"/><polygon class="cls-10" points="326.76 220.5 334.79 229.58 322.98 240.62 314.12 229.58 326.76 220.5"/><polygon class="cls-12" points="307.95 264.81 305.91 263.15 305.91 263.15 307.95 264.81"/><path class="cls-7" d="M318.14,240.16l-2.67-3.69a1.54,1.54,0,0,0-1.23-.62h-4.18l5.94-9a2.15,2.15,0,0,0-3.37-2.66l-11.38,12.27a4,4,0,0,0-1.08,2.75V249.5s-1.72,2.26-4.37,5.4l10.11,8.25,1.38-3,1.93-1.63a5.77,5.77,0,0,0,2-4.4v-6.43l2.87-1.78,1.88,2.37c2.37.4,2.37-3.56,2.37-3.56A4.19,4.19,0,0,0,318.14,240.16Z"/><path class="cls-10" d="M277.22,272.12c-9.89,5.4-11.87,12.62-11.87,21.7,0,3.16,4.55,10.69,14.64,6.33,9.45-4.07,28-35.33,28-35.33l-2-1.67h0L295.8,254.9C291.13,260.42,283.53,268.67,277.22,272.12Z"/><polygon class="cls-10" points="331.54 301.93 300 301.93 298.7 282.78 332.84 282.78 331.54 301.93"/><path class="cls-10" d="M332.29,310.08c.31,1.94,1.23,3.48,4.66,3.79s16.14-3.29,21.75-20.05c0,0,2.66-6.39-4.48-8.14a11.22,11.22,0,0,0-12.54,5c-.83,1.85-3.06,5.25-4.36,5.87S332.29,310.08,332.29,310.08Z"/><path class="cls-7" d="M302.75,295.63l16.65,9s14.24,6.17,16.31,6.79,7.88-6.31,4-11.07a3.73,3.73,0,0,1-.89-2l-.66-5.66a2.65,2.65,0,0,0-.94-1.73l-4.62-3.85-.29,4.26a3.83,3.83,0,0,0,.84,2.68l.87,1.09h-5.46l-17.13-4.38a4.57,4.57,0,0,0-3.43.47l-.54.3-2.54-.54a2.33,2.33,0,0,0-2.77,1.82l-.2,1A1.68,1.68,0,0,0,302.75,295.63Z"/><path class="cls-4" d="M462.76,442.74H409.41a13.88,13.88,0,0,1-13.87-13.86V323.62a1.34,1.34,0,1,1,2.68,0V428.88a11.19,11.19,0,0,0,11.19,11.18h53.35A11.2,11.2,0,0,0,474,428.87V323.62a1.34,1.34,0,1,1,2.68,0V428.87A13.88,13.88,0,0,1,462.76,442.74Z"/><path class="cls-5" d="M465.69,443h-59.2a14.5,14.5,0,0,1-10.43-4.53,18.72,18.72,0,0,1-5-13.61l3.28-145.47a7.44,7.44,0,0,1,7.4-7.24h68.76a7.44,7.44,0,0,1,7.4,7.24l3.28,145.48a18.76,18.76,0,0,1-5,13.6A14.48,14.48,0,0,1,465.69,443Zm-64-167.28a3.85,3.85,0,0,0-3.83,3.75L394.6,424.92a15.13,15.13,0,0,0,4,11,10.94,10.94,0,0,0,7.86,3.45h59.2a11,11,0,0,0,7.86-3.45,15.2,15.2,0,0,0,4-11l-3.28-145.5a3.86,3.86,0,0,0-3.83-3.75Z"/><path class="cls-5" d="M478.76,279.34a8.35,8.35,0,0,0-8.29-8.12H401.71a8.35,8.35,0,0,0-8.3,8.12L392.77,308h5.36l.07-3.15a6.77,6.77,0,0,1,6.76-6.61h62.25a6.78,6.78,0,0,1,6.77,6.61l.07,3.15h5.36Zm-15,8.26H408.38a3.24,3.24,0,1,1,0-6.47h55.41a3.24,3.24,0,1,1,0,6.47Z"/><rect class="cls-5" x="394.59" y="343.95" width="82.99" height="7.01"/><path class="cls-13" d="M435.83,344H429c-6.51,0-24.82,3.47-23.87,7,0,0-22.36,5.08-26.51-5.55-3.58-9.19,1.91-21.62,21.71-21.62h35.55Z"/><path class="cls-14" d="M435.84,329.72c-17,0-29.91,11.51-33.82,11.6L401,354.2c6.14.5,4.15-3.28,4.15-3.28-1.08-4,17.36-7,23.87-7h6.86Z"/><path class="cls-6" d="M431.85,429.83l-2.53-13.58-16.62.86,5,12.72s13.73,6.47,13.8,6.47S432.82,435,431.85,429.83Z"/><path class="cls-4" d="M397.55,443.3s-1.33-3.25.53-5.11,11.37-1.77,15.76-11.81c2.33-5.32,10.86-4,12.71,0s5.83,7.16,5.3,3.45c0,0,1.28-.38,1.81,1.21s2.17,12.26,2.17,12.26Z"/><path class="cls-13" d="M378.11,342.87c0,7.71,33.94,77.41,33.94,77.41h19.48s-2.76-42.34-23.19-69.36l-1.6-5.88c-2.11-7.75-9.56-14-20.43-13.13h0a8.2,8.2,0,0,0-8.2,8.2Z"/><polygon class="cls-13" points="431.53 420.28 408.19 420.28 403.93 411.55 431.53 410.74 431.53 420.28"/><path class="cls-15" d="M405.94,407.37s22.07,3.48,21.5,3.49l-19.6.58Z"/><path class="cls-13" d="M435.87,344h6.86c6.51,0,24.82,3.47,23.87,7,0,0,22.36,5.08,26.51-5.55,3.58-9.19-1.91-21.62-21.71-21.62H435.85Z"/><path class="cls-14" d="M435.86,329.72c17,0,29.91,11.51,33.82,11.6l1.06,12.88c-6.13.5-4.14-3.28-4.14-3.28,1.08-4-17.36-7-23.87-7h-6.86Z"/><path class="cls-6" d="M439.85,429.83l2.53-13.58,16.62.86-5,12.72s-13.73,6.47-13.8,6.47S438.88,435,439.85,429.83Z"/><path class="cls-4" d="M474.15,443.3s1.33-3.25-.53-5.11-11.37-1.77-15.76-11.81c-2.33-5.32-10.86-4-12.72,0s-5.82,7.16-5.29,3.45c0,0-1.28-.38-1.81,1.21s-2.17,12.26-2.17,12.26Z"/><path class="cls-13" d="M493.59,342.87c0,7.71-33.94,77.41-33.94,77.41H440.17s2.76-42.34,23.19-69.36L465,345c2.11-7.75,9.56-14,20.43-13.13h0a8.2,8.2,0,0,1,8.2,8.2Z"/><polygon class="cls-13" points="440.17 420.28 463.5 420.28 467.77 411.55 440.17 410.74 440.17 420.28"/><path class="cls-15" d="M465.76,407.37s-22.08,3.48-21.5,3.49l19.6.58Z"/><polygon class="cls-10" points="402.02 319.29 404.02 270.8 397.18 229.63 474.47 229.63 467.64 270.8 469.64 319.29 402.02 319.29"/><path class="cls-11" d="M467.64,270.8l.75-4.52-10.11,30.93a7.92,7.92,0,0,1-7.51,5.45H420.89a7.9,7.9,0,0,1-7.51-5.45l-10.11-30.93h0c.14.88.75,4.52.75,4.52l-2,48.49h67.62Z"/><path class="cls-16" d="M448.14,206.08c-.47,3.29.41,6.14,1.95,6.35s3.17-2.27,3.64-5.56-.41-6.14-2-6.36S448.6,202.78,448.14,206.08Z"/><polygon class="cls-16" points="448.46 214.31 448.46 220.5 435.83 229.58 423.19 220.5 423.19 214.31 448.46 214.31"/><path class="cls-16" d="M423.52,206.08c.46,3.29-.41,6.14-1.95,6.35s-3.18-2.27-3.64-5.56.4-6.14,1.95-6.36S423.05,202.78,423.52,206.08Z"/><ellipse class="cls-6" cx="435.83" cy="206.69" rx="14.18" ry="16.83"/><path class="cls-4" d="M421.65,208.58h0a4.55,4.55,0,0,1-1.31-3.2v-7.53s-2.56-3-1.65-6.31,6.1-4.58,5.19-7.83,5.79-8.54,9.86-4.78c0,0,1.24,1.32,6.68-1.71,5-2.77,9.48,4.15,7.14,8.22a8.22,8.22,0,0,1,3.54,9.45c0,.64,0,7.55,0,10.37a4.64,4.64,0,0,1-.58,2.24l-.61,1.08-2.14-12.47s-4.23,1.09-7.35-3.37c0,0-4,4.49-9.14,3.47s-6.06,1.83-7.89,1.83Z"/><path class="cls-4" d="M443.68,207.25a2.69,2.69,0,0,1-3.26,0Z"/><path class="cls-4" d="M446.14,205.38H446a25.59,25.59,0,0,0-7.12,0,.46.46,0,0,1-.51-.39.45.45,0,0,1,.38-.5,26.7,26.7,0,0,1,7.44,0,.43.43,0,0,1,.34.53A.44.44,0,0,1,446.14,205.38Z"/><path class="cls-4" d="M428,207.25a2.69,2.69,0,0,0,3.26,0Z"/><path class="cls-4" d="M425.56,205.38a.44.44,0,0,1-.43-.35.43.43,0,0,1,.34-.53,26.7,26.7,0,0,1,7.44,0,.45.45,0,0,1,.38.5.46.46,0,0,1-.51.39,25.59,25.59,0,0,0-7.12,0Z"/><path class="cls-16" d="M439.09,211.49a1.06,1.06,0,0,1-.34,1,3,3,0,0,1-.88.61,5,5,0,0,1-2,.41,4.87,4.87,0,0,1-2-.41,2.79,2.79,0,0,1-.88-.61,1.06,1.06,0,0,1-.34-1,1.1,1.1,0,0,0,.61.64,3.48,3.48,0,0,0,.84.29,8.24,8.24,0,0,0,1.79.18,7.66,7.66,0,0,0,1.79-.18,3.48,3.48,0,0,0,.84-.29A1.1,1.1,0,0,0,439.09,211.49Z"/><path class="cls-4" d="M437.5,218.11a7.56,7.56,0,0,0,1.49-.54,4.86,4.86,0,0,0,1.3-.79,5,5,0,0,0,.85-1.09,7,7,0,0,0,.6-1.36h.09a2.15,2.15,0,0,1,.12,1.76,2.72,2.72,0,0,1-1.25,1.28,6.34,6.34,0,0,1-3.19.83Z"/><polygon class="cls-11" points="435.83 229.58 427.37 244.11 415.16 229.58 435.83 229.58"/><polygon class="cls-10" points="423.19 220.5 415.16 229.58 426.97 240.62 435.83 229.58 423.19 220.5"/><polygon class="cls-11" points="435.83 229.58 444.29 244.11 456.5 229.58 435.83 229.58"/><polygon class="cls-10" points="448.46 220.5 456.5 229.58 444.68 240.62 435.83 229.58 448.46 220.5"/><path class="cls-17" d="M435.83,229.58l6.17,7.7-3.64,8.45,1.7,9.12a27,27,0,0,1,.4,3.46l3.28,64.88a4,4,0,0,1-1.09,3l-6.82,7.27L429,326.15a4,4,0,0,1-1.09-3l3.28-64.88a27,27,0,0,1,.41-3.46l1.69-9.12-3.64-8.45Z"/><polygon class="cls-18" points="429.65 237.28 430.04 238.18 435.83 229.58 429.65 237.28"/><polygon class="cls-18" points="442 237.28 441.62 238.18 435.83 229.58 442 237.28"/><polygon class="cls-10" points="451.62 323.88 420.08 323.88 418.78 304.73 452.92 304.73 451.62 323.88"/><path class="cls-10" d="M397.18,229.63,404,270.8l-5.13,33.53,7,11.18s-9.94,1.87-7.76,12.42c0,0-17.08-7.94-20.81-21.2C377.31,306.73,375.14,238.77,397.18,229.63Z"/><path class="cls-11" d="M398.89,304.33c-5.48-8-9.6-8.59-9.6-8.59l14-29.46.75,4.52Z"/><path class="cls-6" d="M398.12,327.93l11.56,5a3.51,3.51,0,0,0,2.39.13l15.19-4.68a2,2,0,0,0,1.41-1.9v-3.16a2,2,0,0,0-2.24-2l-6.58.84,7.68-2.21a2,2,0,0,0,1.3-2.65h0a2,2,0,0,0-2-1.24l-8.09.66-1.39-1.1a6.29,6.29,0,0,0-4.92-1.25l-6.54,1.12S395.69,317.38,398.12,327.93Z"/><path class="cls-10" d="M474.47,229.63l-6.83,41.17,5.12,33.53-7,11.18s9.93,1.87,7.76,12.42c0,0,17.08-7.94,20.8-21.2C494.34,306.73,496.52,238.77,474.47,229.63Z"/><path class="cls-11" d="M472.76,304.33c5.48-8,9.61-8.59,9.61-8.59l-14-29.46-.75,4.52Z"/><path class="cls-6" d="M473.54,327.93l-11.57,5a3.48,3.48,0,0,1-2.38.13l-15.2-4.68a2,2,0,0,1-1.4-1.9v-3.16a2,2,0,0,1,2.24-2l6.57.84L444.12,320a2,2,0,0,1-1.29-2.65h0a2,2,0,0,1,2-1.24l8.1.66,1.39-1.1a6.27,6.27,0,0,1,4.91-1.25l6.55,1.12S476,317.38,473.54,327.93Z"/><path class="cls-4" d="M218.88,442.74H165.53a13.88,13.88,0,0,1-13.87-13.86V323.62a1.34,1.34,0,1,1,2.68,0V428.88a11.19,11.19,0,0,0,11.19,11.18h53.35a11.2,11.2,0,0,0,11.19-11.19V323.62a1.34,1.34,0,1,1,2.68,0V428.87A13.88,13.88,0,0,1,218.88,442.74Z"/><path class="cls-5" d="M221.81,443H162.6a14.49,14.49,0,0,1-10.42-4.53,18.72,18.72,0,0,1-5-13.61l3.28-145.47a7.44,7.44,0,0,1,7.4-7.24h68.76a7.44,7.44,0,0,1,7.4,7.24l3.28,145.48a18.76,18.76,0,0,1-5,13.6A14.48,14.48,0,0,1,221.81,443Zm-64-167.28a3.85,3.85,0,0,0-3.83,3.75l-3.28,145.48a15.13,15.13,0,0,0,4,11,10.92,10.92,0,0,0,7.85,3.45h59.21a11,11,0,0,0,7.86-3.45,15.2,15.2,0,0,0,4-11l-3.28-145.5a3.86,3.86,0,0,0-3.83-3.75Z"/><path class="cls-5" d="M234.88,279.34a8.35,8.35,0,0,0-8.29-8.12H157.83a8.35,8.35,0,0,0-8.3,8.12L148.89,308h5.36l.07-3.15a6.77,6.77,0,0,1,6.76-6.61h62.25a6.78,6.78,0,0,1,6.77,6.61l.07,3.15h5.36Zm-15,8.26H164.5a3.24,3.24,0,1,1,0-6.47h55.41a3.24,3.24,0,1,1,0,6.47Z"/><rect class="cls-5" x="150.71" y="343.95" width="82.99" height="7.01"/><path class="cls-4" d="M216.89,344c7.3,0,14.12-11.64,10.71-21.67-3.83-11.29-13.39-17.72-14.85-27.5H171c-1.46,9.78-11,16.21-14.85,27.5-3.41,10,3.41,21.67,10.71,21.67Z"/><path class="cls-4" d="M193.45,319.69c3.4,0,11.47-3.37,18.65-.09,10,4.55,8.84,13.67,7.82,23.51a126,126,0,0,1-5.42,24.81H165.76s0-21.19-4.13-25.93c-3.26-3.75-4.15-12.93,1.26-19.71,4.16-5.22,12.62-5.82,17.21-5.18C183.37,317.54,187.85,319.69,193.45,319.69Z"/><path class="cls-4" d="M178.38,427.89c-3.29,5.87-5.88,13.65-1.79,15.08h12.83c3,0,3.27-8.12,3.27-13.31s-.68-16.51-1.5-16.78S178.38,427.89,178.38,427.89Z"/><path class="cls-19" d="M172.73,367.92c0,11.34,8.33,41.75,8.33,48.33s-5.13,16.5-4.17,18.11,15,2.88,15,0V414.81a25,25,0,0,0-.9-6.61h0a24.57,24.57,0,0,1-.82-8.61c.6-7.36,1.72-22.37,1.72-31.67Z"/><path class="cls-4" d="M208,427.89c3.28,5.87,5.87,13.65,1.78,15.08H197c-3,0-3.27-8.12-3.27-13.31s.68-16.51,1.5-16.78S208,427.89,208,427.89Z"/><path class="cls-19" d="M214.5,367.92c-2.84,12.68-9.15,41.75-9.15,48.33s5.13,16.5,4.17,18.11-15,2.88-15,0V414.81a25,25,0,0,1,.89-6.61h0a24.57,24.57,0,0,0,.82-8.61c-.6-7.36-1.71-22.37-1.71-31.67Z"/><path class="cls-4" d="M206.12,187.66c.15.12,1.23,1,2.45,2.11a11.56,11.56,0,0,1,4,8.73V233h-18.2Z"/><path class="cls-10" d="M214.24,229.58h0a8.51,8.51,0,0,1,8.51,8.51V288.5H210l-1.18-58.92Z"/><path class="cls-11" d="M209.11,245.08l4.13-.73c0,6.75,1.5,9.54,2.54,14.69s.46,25.56,4.11,26.7l-2,2.76H210Z"/><path class="cls-10" d="M169.49,229.58h0a8.51,8.51,0,0,0-8.51,8.51V288.5h12.77l1.18-58.92Z"/><path class="cls-11" d="M174.62,245.08l-4.13-.73c0,6.75-1.5,9.54-2.54,14.69s-.46,25.56-4.11,26.7l2,2.76h7.89Z"/><path class="cls-10" d="M208.8,229.58h5.44s-2.34,20.29,0,29.44-2.77,18.88-3.62,22.11,4.67,10.47,2.13,13.65c-3.4,4.25-20.88,4.5-20.88,4.5s-17.48-.25-20.89-4.5c-2.54-3.18,3-10.43,2.13-13.65s-6-12.95-3.62-22.11,0-29.44,0-29.44H208.8Z"/><path class="cls-11" d="M171,294.78c3.41,4.25,20.89,4.5,20.89,4.5s17.48-.25,20.88-4.5c1.68-2.1-.15-6-1.35-9.28-.06,2.1-4.7,7.63-12,8.29-12.27,1.11-22-3.81-26.33-12.66C174,284.35,168.44,291.6,171,294.78Z"/><path class="cls-11" d="M174.93,233.83c.24.49,10.84,20.45,10.84,20.45l6.1-8.18Z"/><polygon class="cls-10" points="181.22 226.91 174.93 229.58 174.93 233.83 185.75 252.2 191.87 246.1 181.22 234.17 181.22 226.91"/><path class="cls-11" d="M207.18,233c-.24.5-9.22,21.31-9.22,21.31l-6.09-8.18Z"/><polygon class="cls-10" points="202.51 226.91 208.8 229.58 197.98 252.2 191.87 246.1 202.51 234.17 202.51 226.91"/><polygon class="cls-19" points="202.51 221.95 202.51 234.17 191.87 246.1 181.22 234.17 181.22 215.18 202.51 221.95"/><path class="cls-20" d="M181.57,215.05v19L192.21,246l2.49-2.78c0-11.65,7.81-13.72,7.81-13.72V222Z"/><path class="cls-19" d="M202.42,224.48c7.12.77,7.81-6.49,6.34-14.29-1-5.52,5.41-13.07-2.7-19.42s-22.23,2.15-24.18,16.52S202.42,224.48,202.42,224.48Z"/><path class="cls-4" d="M198.41,206.54a10,10,0,0,1,3.18-1.46,4.53,4.53,0,0,1,1.8-.2,3,3,0,0,1,1.64.84l0,.09-1.67,0c-.52,0-1-.05-1.6,0a11.47,11.47,0,0,0-1.64.28,12.08,12.08,0,0,0-1.62.5Z"/><circle class="cls-4" cx="202.75" cy="208.3" r="1.72"/><path class="cls-4" d="M201.15,216.2a1.26,1.26,0,0,1,.69-.43c.22-.08.45,0,.68.09a13.51,13.51,0,0,1,1.36.34v.09a13.51,13.51,0,0,1-1.36.34c-.23,0-.46.17-.68.1a1.34,1.34,0,0,1-.69-.44Z"/><path class="cls-4" d="M213.21,194.9c-1.59,11.31-18.53,9.25-18.53,18.37v33.87h0A16.09,16.09,0,0,1,181,239.46c-3.23-5.22-7.77-9.88-11.7-9.88,0,0,0-5.81,5.32-13.84,2.19-3.29-2.47-15.84,6.71-27.11,5-6.17,15.51-4.7,15.51-4.7C204.47,179.49,214.33,186.89,213.21,194.9Z"/><path class="cls-19" d="M212.42,302.73c-3.69-1.83-6.65-.81-8.36.71a28.56,28.56,0,0,1-4.2,5.18,31.22,31.22,0,0,1-5.48,3.74,5.06,5.06,0,0,0-2.24,2.43L188,324a1.14,1.14,0,0,0,1,1.54,2.3,2.3,0,0,0,2.08-1.27l1.83-3.55-1.15,3.46a1,1,0,0,0,.9,1.24l.22,0A3.08,3.08,0,0,0,195,324.1l3.46-4.74-1.34,4.73a1.25,1.25,0,0,0,1.09,1.54h.05a2.14,2.14,0,0,0,1.89-1.09l3-5.18,1.81,4.95c.25.69,1.05.94,1.41.43a.88.88,0,0,0,.14-.43l.27-8.59a41.54,41.54,0,0,0,9.82-4.8C218,308.9,216.68,304.84,212.42,302.73Z"/><path class="cls-10" d="M222.75,288.5s-3.73-7.37-11.41-.9c-5,4.22-4,11.15-7.28,15.84,1.71-1.52,4.67-2.54,8.36-.71,4.26,2.11,5.61,6.17,4.23,8.19C222.93,306.73,226.59,294.78,222.75,288.5Z"/><path class="cls-19" d="M171.31,302.73c3.7-1.83,6.65-.81,8.36.71a29,29,0,0,0,4.2,5.18,31.22,31.22,0,0,0,5.48,3.74,5.06,5.06,0,0,1,2.24,2.43l4.19,9.17a1.14,1.14,0,0,1-.95,1.54,2.3,2.3,0,0,1-2.08-1.27l-1.83-3.55,1.15,3.46a1,1,0,0,1-.9,1.24l-.22,0a3.08,3.08,0,0,1-2.24-1.26l-3.46-4.74,1.34,4.73a1.25,1.25,0,0,1-1.09,1.54h-.05a2.14,2.14,0,0,1-1.89-1.09l-3-5.18-1.81,4.95c-.25.69-1.05.94-1.41.43a.88.88,0,0,1-.14-.43l-.27-8.59a41.54,41.54,0,0,1-9.82-4.8C165.7,308.9,167.05,304.84,171.31,302.73Z"/><path class="cls-10" d="M161,288.5s3.73-7.37,11.41-.9c5,4.22,4,11.15,7.28,15.84-1.71-1.52-4.66-2.54-8.36-.71-4.26,2.11-5.61,6.17-4.23,8.19C160.8,306.73,157.14,294.78,161,288.5Z"/><path class="cls-4" d="M644.12,442.73h0c-15.12,0-26.39-11.81-25.28-25.28l5.32-64.64c.17-2,2.49-3.56,5.19-3.56h29.53c2.7,0,5,1.58,5.19,3.56l5.32,64.64C670.5,430.92,659.23,442.73,644.12,442.73Z"/><path class="cls-8" d="M668.5,406.64l-4.43-53.83c-.17-2-2.49-3.56-5.19-3.56h-20v41.64a15.75,15.75,0,0,0,15.75,15.75Z"/><path class="cls-8" d="M674.72,281.3c-1-1-3.12-1-5.74,0a25.51,25.51,0,0,0-8.54,5.81c-3.91,3.92-5.26,8.75-6.15,11.94a9.8,9.8,0,0,1-1.19,3.17l-.55.56-1.06,1.05c-.86.86-1.76,1.75-2.55,2.67a25.24,25.24,0,0,0-5,9c-.07.22-.13.45-.19.67V290.31c0-.05,0-.1,0-.16a13.86,13.86,0,0,1,3.28-7.75c.44-.52.93-1,1.45-1.52l.62-.61.31-.32h0a11.31,11.31,0,0,1,3.42-1.94,24.82,24.82,0,0,0,5.64-3.15c2.25-1.74,3.67-3.92,3.79-5.83a2.51,2.51,0,0,0-.61-2c-.7-.69-2.11-.8-3.78-.27a13.38,13.38,0,0,0-5.19,3.32c-2.34,2.34-3,5.36-3.4,7.35a5.58,5.58,0,0,1-.54,1.84l-.32.32-.61.61c-.51.5-1,1-1.5,1.57a14.74,14.74,0,0,0-2.57,4.34v-8.31a22.68,22.68,0,0,1,1.57-6.79A48.59,48.59,0,0,0,648,260.24c.67-6.16-.81-10.25-2.4-12a3.1,3.1,0,0,0-2.23-1.18c-2.82,0-6,6.22-6,14.54,0,5.66,2.46,10.13,4.09,13.08a10,10,0,0,1,1.4,3.17v12.31a15.8,15.8,0,0,0-2.86-5c-.5-.57-1-1.09-1.53-1.6l-.63-.62-.31-.32h0a10.87,10.87,0,0,1-1.94-3.42,25,25,0,0,0-3.15-5.63c-1.74-2.26-3.92-3.68-5.84-3.8a2.5,2.5,0,0,0-2,.61c-.7.7-.8,2.11-.27,3.78a13.19,13.19,0,0,0,3.32,5.2c2.33,2.33,5.35,3,7.35,3.39a5.85,5.85,0,0,1,1.83.54l.32.32.63.63c.49.49,1,1,1.48,1.54a14.93,14.93,0,0,1,2.89,5.25,15.21,15.21,0,0,1,.58,3c.07.74.06,1.49.06,2.21V297h.05v17.54c-.08-.28-.15-.57-.24-.85a26.52,26.52,0,0,0-5.18-9.42c-.85-1-1.75-1.87-2.62-2.73l-1-1.06-.55-.55a21.84,21.84,0,0,1-3.58-5.79,46.58,46.58,0,0,0-5.62-9.28c-3.75-4.69-7.61-6.5-10-6.63a3.19,3.19,0,0,0-2.46.75c-2,2,.09,8.52,5.84,14.28,3.92,3.92,8.75,5.26,12,6.16a9.7,9.7,0,0,1,3.17,1.19h0l.54.54c.35.36.71.71,1.07,1.06.85.85,1.74,1.73,2.56,2.68a25.24,25.24,0,0,1,6,14.19c.12,1.29.11,2.57.11,3.82,0,.46,0,.93,0,1.39h0v8.42a18.62,18.62,0,0,0-3.41-6c-.59-.68-1.21-1.29-1.8-1.88l-.72-.72-.37-.37a10.93,10.93,0,0,1-2-4.22,24.54,24.54,0,0,0-3.29-7,9.16,9.16,0,0,0-6.38-4.12,4.19,4.19,0,0,0-3.27,1c-1,1-1.27,2.76-.84,4.82a12.87,12.87,0,0,0,3.59,6.37c2.74,2.74,6.63,3.11,9.21,3.36a6.56,6.56,0,0,1,2.34.43l.37.37.73.73c.58.57,1.18,1.17,1.75,1.82a17.49,17.49,0,0,1,3.41,6.21,17,17,0,0,1,.69,3.5,2,2,0,0,1,0,.25c0,.57,0,1.15,0,1.71v.95h0v9.35h.95v-8.71h.05c0-.32,0-.63,0-1,0-.66,0-1.35-.05-2v-.61c0-.16,0-.32,0-.47a15.3,15.3,0,0,1,.64-3.26,16,16,0,0,1,3.18-5.79c.51-.59,1.08-1.16,1.69-1.76l.72-.73.37-.37a11.07,11.07,0,0,1,4.22-2,24.81,24.81,0,0,0,7-3.29,9.18,9.18,0,0,0,4.12-6.38,4.09,4.09,0,0,0-1-3.27c-2-2-7.27-1.18-11.19,2.75-2.74,2.73-3.11,6.62-3.36,9.2a6.63,6.63,0,0,1-.43,2.35l-.37.37-.72.72c-.59.59-1.21,1.2-1.74,1.82a17.07,17.07,0,0,0-3.13,5.46v-6.47h0c0-.47,0-.93,0-1.39,0-1.29,0-2.51.11-3.71a24.08,24.08,0,0,1,.95-4.88,24.4,24.4,0,0,1,4.77-8.65c.77-.9,1.65-1.77,2.5-2.62l1.06-1.06.54-.54h0a21.91,21.91,0,0,1,5.8-3.58,46.91,46.91,0,0,0,9.29-5.62c4.69-3.76,6.49-7.61,6.63-10A3.17,3.17,0,0,0,674.72,281.3Z"/><path class="cls-4" d="M106.12,442.73h0c15.12,0,26.39-11.81,25.28-25.28l-5.33-64.64c-.16-2-2.48-3.56-5.18-3.56H91.36c-2.7,0-5,1.58-5.19,3.56l-5.33,64.64C79.74,430.92,91,442.73,106.12,442.73Z"/><path class="cls-8" d="M81.74,406.64l4.43-53.83c.17-2,2.49-3.56,5.19-3.56h20v41.64a15.75,15.75,0,0,1-15.75,15.75Z"/><path class="cls-8" d="M75.52,281.3c1-1,3.12-1,5.74,0a25.6,25.6,0,0,1,8.54,5.81c3.91,3.92,5.26,8.75,6.15,11.94a9.8,9.8,0,0,0,1.19,3.17l.55.56,1.06,1.05c.86.86,1.76,1.75,2.55,2.67a25.24,25.24,0,0,1,5,9c.07.22.13.45.19.67V290.31c0-.05,0-.1,0-.16a13.86,13.86,0,0,0-3.28-7.75c-.44-.52-.93-1-1.45-1.52l-.62-.61-.31-.32h0A11.31,11.31,0,0,0,97.35,278a24.82,24.82,0,0,1-5.64-3.15c-2.25-1.74-3.67-3.92-3.79-5.83a2.51,2.51,0,0,1,.61-2c.7-.69,2.11-.8,3.77-.27a13.34,13.34,0,0,1,5.2,3.32c2.34,2.34,3,5.36,3.4,7.35a5.58,5.58,0,0,0,.54,1.84l.32.32.61.61c.51.5,1,1,1.5,1.57a14.74,14.74,0,0,1,2.57,4.34v-8.31a22.68,22.68,0,0,0-1.57-6.79,48.59,48.59,0,0,1-2.59-10.78c-.67-6.16.81-10.25,2.4-12a3.1,3.1,0,0,1,2.23-1.18c2.82,0,6,6.22,6,14.54,0,5.66-2.46,10.13-4.09,13.08a10,10,0,0,0-1.4,3.17v12.31a15.8,15.8,0,0,1,2.86-5c.5-.57,1-1.09,1.53-1.6l.63-.62.31-.32h0a10.87,10.87,0,0,0,1.94-3.42,25,25,0,0,1,3.15-5.63c1.74-2.26,3.92-3.68,5.83-3.8a2.51,2.51,0,0,1,2,.61c.7.7.8,2.11.27,3.78a13.19,13.19,0,0,1-3.32,5.2c-2.33,2.33-5.35,3-7.35,3.39a5.85,5.85,0,0,0-1.83.54l-.32.32-.63.63c-.49.49-1,1-1.48,1.54a14.93,14.93,0,0,0-2.89,5.25,15.21,15.21,0,0,0-.58,3c-.07.74-.06,1.49-.06,2.21V297h0v17.54c.08-.28.15-.57.24-.85a26.52,26.52,0,0,1,5.18-9.42c.85-1,1.75-1.87,2.62-2.73l1-1.06.55-.55a21.57,21.57,0,0,0,3.57-5.79,47.16,47.16,0,0,1,5.63-9.28c3.75-4.69,7.61-6.5,10-6.63a3.18,3.18,0,0,1,2.46.75c2,2-.08,8.52-5.83,14.28-3.92,3.92-8.75,5.26-11.95,6.16a9.7,9.7,0,0,0-3.17,1.19h0l-.54.54-1.07,1.06c-.85.85-1.74,1.73-2.56,2.68a25.24,25.24,0,0,0-6,14.19c-.12,1.29-.11,2.57-.11,3.82,0,.46,0,.93,0,1.39h0v8.42a18.62,18.62,0,0,1,3.41-6c.59-.68,1.21-1.29,1.8-1.88l.72-.72.37-.37a10.93,10.93,0,0,0,2-4.22,24.54,24.54,0,0,1,3.29-7,9.16,9.16,0,0,1,6.38-4.12,4.19,4.19,0,0,1,3.27,1c1,1,1.27,2.76.84,4.82a12.87,12.87,0,0,1-3.59,6.37c-2.74,2.74-6.63,3.11-9.21,3.36a6.56,6.56,0,0,0-2.34.43l-.37.37-.73.73c-.58.57-1.19,1.17-1.75,1.82a17.19,17.19,0,0,0-4.1,9.71,2,2,0,0,0,0,.25c0,.57,0,1.15,0,1.71v.95h0v9.35h-1v-8.71h0c0-.32,0-.63,0-1,0-.66,0-1.35,0-2v-.61c0-.16,0-.32,0-.47a15.3,15.3,0,0,0-.64-3.26,16,16,0,0,0-3.18-5.79c-.51-.59-1.08-1.16-1.69-1.76l-.72-.73-.37-.37a11.07,11.07,0,0,0-4.22-2,24.81,24.81,0,0,1-7-3.29,9.18,9.18,0,0,1-4.12-6.38,4.09,4.09,0,0,1,1-3.27c2-2,7.27-1.18,11.19,2.75,2.74,2.73,3.11,6.62,3.36,9.2a6.63,6.63,0,0,0,.43,2.35l.37.37.72.72c.59.59,1.21,1.2,1.74,1.82a17.07,17.07,0,0,1,3.13,5.46v-6.47h0c0-.47,0-.93,0-1.39,0-1.29,0-2.51-.11-3.71a24.08,24.08,0,0,0-1-4.88,24.4,24.4,0,0,0-4.77-8.65c-.77-.9-1.65-1.77-2.5-2.62L97,303.47l-.54-.54h0a21.91,21.91,0,0,0-5.8-3.58,46.91,46.91,0,0,1-9.29-5.62c-4.69-3.76-6.49-7.61-6.63-10A3.17,3.17,0,0,1,75.52,281.3Z"/><circle class="cls-8" cx="558.03" cy="130.2" r="37.62"/><circle class="cls-10" cx="558.03" cy="130.2" r="29.59" transform="translate(283.44 633.15) rotate(-74.5)"/><path class="cls-21" d="M558,100.62a29.59,29.59,0,0,0-25.22,45c12.3-12.3,27.67-27.7,40.66-40.7A29.39,29.39,0,0,0,558,100.62Z"/><path class="cls-8" d="M557.88,132.36c-.24-2.12-.4-4.24-.6-6.36s-.32-4.24-.45-6.36a38.72,38.72,0,0,1-.3-6.36,23,23,0,0,1,1.35-6.36h.3a23,23,0,0,1,1.35,6.36,38.72,38.72,0,0,1-.3,6.36q-.18,3.18-.45,6.36c-.2,2.12-.36,4.24-.6,6.36Z"/><path class="cls-8" d="M559.57,128.52c-.86,1.46-1.78,2.86-2.66,4.3s-1.83,2.82-2.78,4.21a24.29,24.29,0,0,1-2.89,4.11,18.27,18.27,0,0,1-1.92,1.69,11.13,11.13,0,0,1-2.27,1.4l-.23-.19a11,11,0,0,1,.85-2.52,17.35,17.35,0,0,1,1.22-2.25,24.76,24.76,0,0,1,3.36-3.74c1.14-1.23,2.3-2.44,3.48-3.65s2.37-2.39,3.6-3.55Z"/></g></g></svg>