<svg id="Layer_1" data-name="Layer 1" xmlns="http://www.w3.org/2000/svg" viewBox="0 0 390 431"><defs><style>.cls-1{fill:#eeea4c;}.cls-2{fill:#fff;}</style></defs><path d="M99.56,359c1.42,2.54,3,5.1,4.31,7.75,3.64,7.14,1.56,15-5.3,19.22-5.52,3.39-11.18,6.59-16.92,9.59-7.24,3.77-15.39,1.49-19.45-5.62q-24-42-47.76-84.19c-4.09-7.27-1.68-15.49,5.48-19.77,5.14-3.07,10.38-6,15.63-8.84C43.6,272.74,51.67,275,56.38,283c1,1.71,2,3.43,3.21,5.47,1.24-.65,2.42-1.23,3.55-1.88,14-8,27.84-16.13,41.85-24.05,9.15-5.17,18.85-8.91,29.59-7.36A84.49,84.49,0,0,1,150,259.42c16.59,5.77,33.08,11.75,50.39,15.23,12.13,2.44,19.73,15.76,16.43,27.7-.3,1.06-.58,2.12-1.17,4.26,3.09-1.53,5.51-2.56,7.76-3.86q28-16.23,56-32.52c7.91-4.59,16.17-8.25,25.38-9.54,11.72-1.64,22.48,4.18,26.3,14.54a24,24,0,0,1-9.94,29.31q-51,31.4-102,62.76c-12.29,7.61-25.18,9.39-39.09,5.58-21.5-5.9-43.13-11.35-64.56-17.5C109.31,353.59,104.42,354.25,99.56,359ZM65.47,299C75,315.7,84.1,331.8,93.3,348c2.93-1.67,5.65-3,8.09-4.67,3.25-2.27,6.49-2.44,10.26-1.41,23.07,6.3,46.26,12.16,69.25,18.74,12.26,3.52,23.06,2,33.88-4.79,33-20.65,66.25-40.87,99.41-61.26,5.53-3.4,7.57-8.72,5.64-14.69-1.69-5.2-5.87-7.63-12.46-7.2-8.23.52-15.32,4.19-22.25,8.2-18.89,10.94-37.74,21.95-56.63,32.88-8.67,5-18.06,7.78-28,5.66-15.82-3.38-31.5-7.4-47.21-11.28-4.51-1.11-6.43-4.21-5.39-7.86,1-3.37,4.32-4.88,8.56-3.74,4.57,1.23,9.09,2.66,13.68,3.81,8.09,2,16.15,4.36,24.36,5.69,6,1,10.17-2.72,11-8.22.74-5.07-2.7-10-8.05-11.47-1.68-.46-3.45-.62-5.11-1.14-16.86-5.3-33.8-10.37-50.53-16.09-8.83-3-17.31-3.08-25.34,1.26C99.46,279.61,82.73,289.27,65.47,299ZM94.75,374.8l-1.29-1.43c-.36-.79-.66-1.61-1.09-2.36Q69.24,330.2,46.13,289.38c-1.37-2.42-2.92-2.73-5.19-1.41-4.21,2.45-8.46,4.81-12.69,7.21s-4.35,2.76-2,6.87q11.33,20,22.66,40c7.62,13.44,15.31,26.85,22.84,40.34,1.57,2.81,3.12,3.37,5.93,1.62,4.34-2.69,8.87-5.09,13.35-7.56C92.2,375.81,93.5,375.35,94.75,374.8Z"/><path d="M321.89,201.9a107.61,107.61,0,0,0-4.14-43.51C301.93,108,268,77.51,215.93,67.29a74.28,74.28,0,0,0-8.17-.94c-5.32-.44-7.39-2.55-7.41-7.83,0-7.85,0-15.71,0-23.57,0-7.43,2-9.46,9.4-8.82,26.14,2.25,50.63,9.81,72.92,23.71q62.11,38.75,77,110.51a149.47,149.47,0,0,1,2.79,38.3c-.06,1,0,1.94,0,3.39,1.87,0,3.57,0,5.27,0,3.91.15,7.06,1.7,8.77,5.34a9.18,9.18,0,0,1-1.31,10.16c-8.18,10.38-16.31,20.81-24.6,31.11-4,5-10.6,5.06-14.58.15-8.48-10.47-16.86-21-25-31.74-4.69-6.15-1-14.06,6.72-15C318.91,202,320.15,202,321.89,201.9Zm40.25,12.58c-2-.09-3.1-.16-4.21-.18-6.59-.14-8.67-2.63-8.1-9.07,1.49-16.89.66-33.69-3.85-50.06Q322.12,68.46,235.58,42.91c-7.34-2.16-15-3.15-23.08-4.79,0,5.11.17,9.34-.07,13.54-.15,2.62,1.23,3,3.25,3.49,10,2.46,20.37,4.13,29.95,7.77a137.82,137.82,0,0,1,88,145.16c-.41,3.52-2.29,5.71-6,6.14-.92.1-1.83.27-3.25.48l18.78,23.81C349.43,230.59,355.51,222.9,362.14,214.48Z"/><path d="M230.06,170.39c7,4,14.4,7.43,20.91,12.11,18.84,13.53,29.18,32.29,32.32,55.12a6.08,6.08,0,0,1-5.41,7.19,20.9,20.9,0,0,1-3.36.17q-70.86,0-141.72,0c-7.21,0-9-2.11-8.27-9.35.09-.87.17-1.74.34-2.59,6.08-29.65,23-50.19,51.4-61.2.58-.23,1.11-.56,1.69-.86-24.51-19.55-21-50.77-4.51-66.42,17.37-16.53,44.79-16.22,61.37.81S252.84,152.08,230.06,170.39Zm39.78,62.13c-4.32-25.5-29.18-53.22-65.75-53.43-35.58-.21-61.72,26.26-66.52,53.43ZM235,135.6a31.26,31.26,0,1,0-31,31.22A31,31,0,0,0,235,135.6Z"/><path d="M49.93,187.56c-4.37,0-8.75.09-13.12,0-4.53-.12-7-2.62-6.73-7.1a162.66,162.66,0,0,1,16.65-61.95c1.8-3.65,5.23-4.7,8.83-2.69q12.09,6.74,24,13.79c3.31,1.95,4.22,4.75,2.58,8.34a132.93,132.93,0,0,0-11.75,43.76c-.33,3.6-2.8,5.74-6.59,5.84C59.18,187.65,54.55,187.56,49.93,187.56ZM55,129.39a149.57,149.57,0,0,0-12.32,46c3.85,0,7.34-.2,10.81.06,3.75.28,6.3-.29,6.05-4.91a16.77,16.77,0,0,1,1-5.12c2.55-9.32,5.16-18.62,7.85-28.31Z"/><path d="M191.89,46.1c0,4.24.05,8.49,0,12.73-.06,4.67-2.11,7.08-6.62,7.44a124.16,124.16,0,0,0-42.45,11.15c-4.49,2.07-7.18,1.15-9.7-3.15q-6.44-11-12.72-22c-2.59-4.54-1.55-7.72,3.18-10a166.09,166.09,0,0,1,58.82-16.1c7.4-.64,9.5,1.36,9.5,8.75Q191.91,40.49,191.89,46.1Zm-12.21-7.5A150.67,150.67,0,0,0,133.63,51l7.63,13.19c.56.07.84.19,1,.11a152.46,152.46,0,0,1,35.25-9.47,3.23,3.23,0,0,0,2-2.34C179.79,48,179.68,43.51,179.68,38.6Z"/><path d="M30.06,203.5c-.13-5,2.11-7.46,7.08-7.5q13.1-.09,26.21,0c4.33,0,6.69,2.26,7,6.59a123.87,123.87,0,0,0,11.09,42c2.26,4.89,1.38,7.51-3.3,10.22Q67.51,261,56.8,267.07C51.65,270,48.54,269,46,263.69A165.92,165.92,0,0,1,30.06,203.5ZM55,254.12c4.12-2.36,8.07-4.48,11.83-6.89A3.47,3.47,0,0,0,68,244.11a139.67,139.67,0,0,1-8.91-33.35c-.13-.95-1.25-2.48-2-2.51-4.69-.23-9.39-.12-14.41-.12A149.52,149.52,0,0,0,55,254.12Z"/><path d="M127.52,83.43c-1,1.35-1.83,3.45-3.4,4.57a133.23,133.23,0,0,0-31.73,32c-2.43,3.46-5,4-8.77,1.92Q71.71,115.26,60,108.31c-3.74-2.22-4.41-5.62-1.94-9.27A165.88,165.88,0,0,1,103.3,53.85c3.5-2.35,6.93-1.73,9,1.8,4.81,8,9.41,16.14,14,24.25A20.49,20.49,0,0,1,127.52,83.43ZM105.16,67.35A151.23,151.23,0,0,0,71.49,101l13.05,7.52,28.12-28.24Z"/><path class="cls-1" d="M269.84,232.52H137.57c4.8-27.17,30.94-53.64,66.52-53.43C240.66,179.3,265.52,207,269.84,232.52Z"/><path class="cls-2" d="M235,135.6a31.26,31.26,0,1,1-31.47-31.12A31,31,0,0,1,235,135.6Z"/><path d="M46.45,303.65a6,6,0,0,1-5.68,5.84,6.16,6.16,0,0,1-6-5.93,6.08,6.08,0,0,1,5.75-5.78A5.87,5.87,0,0,1,46.45,303.65Z"/></svg>