<svg id="Layer_1" data-name="Layer 1" xmlns="http://www.w3.org/2000/svg" viewBox="0 0 64 64"><defs><style>.cls-1{fill:#1a0f2e;}</style></defs><path class="cls-1" d="M45.45,1a7.59,7.59,0,0,1,3.1,1.37A6.38,6.38,0,0,1,51,7.49v35.9a10.54,10.54,0,0,1,2,0,3.72,3.72,0,0,1,3.11,3.67c0,4.69,0,9.37,0,14.06a1.3,1.3,0,0,1-1.33,1.39,1.31,1.31,0,0,1-1.27-1.46q0-6.63,0-13.27c0-.2,0-.4,0-.6a1.23,1.23,0,0,0-1.2-1.31A1.25,1.25,0,0,0,51,47.15c0,.78,0,1.56,0,2.34S50.5,51,49.72,51s-1.29-.54-1.31-1.47c0-1.16,0-2.32,0-3.48a1.3,1.3,0,0,0-1-1.42,1.24,1.24,0,0,0-1.49,1.3c0,1.08,0,2.17,0,3.25,0,.22,0,.44,0,.66A1.25,1.25,0,0,1,44.49,51a1.24,1.24,0,0,1-1.19-1.26c0-1.67,0-3.33,0-5a1.27,1.27,0,0,0-1.76-1.32,1.23,1.23,0,0,0-.78,1.23v4.87A1.34,1.34,0,0,1,39.61,51a1.29,1.29,0,0,1-1.46-1.24,7.85,7.85,0,0,1,0-.84V35.8c0-.9-.47-1.43-1.24-1.45a1.26,1.26,0,0,0-1.29,1.18,4,4,0,0,0,0,.6c0,5.28,0,10.57,0,15.86,0,1.29-.73,1.82-2,1.42-1.65-.55-3.29-1.12-4.95-1.64-1-.32-1.81.27-1.62,1.21a1.58,1.58,0,0,0,.54.82c2,1.68,3.95,3.32,5.91,5a22.73,22.73,0,0,1,1.73,1.67,1.06,1.06,0,0,1,.31,1.2,1.27,1.27,0,0,1-1.2.84l-1.09,0c-4.68,0-9.37-.07-14.06,0a6.6,6.6,0,0,1-6.71-6.69c.05-16.06,0-32.12,0-48.19A6.34,6.34,0,0,1,17.83,1.1a1.47,1.47,0,0,0,.22-.1Zm2.94,10.32H15.13V52.17c.08,0,.11.07.15.07,3,0,5.93,0,8.89,0a.51.51,0,0,0,.36-.28c.89-2.58,2.74-3.49,5.3-2.6L33,50.45V38.18H23.9c-.72,0-1.44,0-2.16,0a2.42,2.42,0,0,1-.81-.15,1.25,1.25,0,0,1-.69-1.45,1.3,1.3,0,0,1,1.35-1H33c.07-.37.1-.67.17-1a3.85,3.85,0,0,1,7.59.91c0,1.56,0,3.12,0,4.68v.47a11.17,11.17,0,0,1,2.56.3,11,11,0,0,1,2.15,1.39,3.63,3.63,0,0,1,2.93-.19Zm0-2.65V7.6a3.81,3.81,0,0,0-4-4q-12.61,0-25.22,0a4,4,0,0,0-4,5.09ZM15.05,54.84a15.21,15.21,0,0,0,.18,2.21,3.77,3.77,0,0,0,4,2.9H30.13c.16,0,.33,0,.62-.05-1.59-1.35-3.18-2.53-4.54-3.93A3.89,3.89,0,0,0,23,54.81C20.39,54.89,17.79,54.84,15.05,54.84Z"/><path class="cls-1" d="M39.78,21.51c1,1.41,2.08,2.79,3.12,4.16a1.24,1.24,0,0,1,.3,1.38,2,2,0,0,1-.94.82A1.12,1.12,0,0,1,41,27.38c-.86-1.13-1.71-2.27-2.56-3.41l-.23-.29-2,2.69c-.24.32-.47.65-.72,1a1.29,1.29,0,1,1-2-1.56q1.41-1.9,2.84-3.79l.34-.48c-1.07-1.42-2.15-2.84-3.19-4.27a1.28,1.28,0,0,1,.73-2.11,1.32,1.32,0,0,1,1.38.63l2.27,3,.44.55,2.66-3.53a1.34,1.34,0,0,1,1.42-.68A1.29,1.29,0,0,1,43,17.23c-.92,1.26-1.87,2.5-2.8,3.75Z"/><path class="cls-1" d="M30.55,20A28.6,28.6,0,0,1,30.28,24a5,5,0,0,1-5.55,3.89,5.14,5.14,0,0,1-4.51-5.1q0-3.12,0-6.24a1.32,1.32,0,0,1,1.24-1.48,1.34,1.34,0,0,1,1.32,1.47c0,2,0,4,0,6.06a2.56,2.56,0,1,0,5.11,0c0-2.08,0-4.16,0-6.24a1.23,1.23,0,0,1,1-1.27,1.16,1.16,0,0,1,1.34.55,2,2,0,0,1,.23,1c0,1.1,0,2.2,0,3.3Z"/><path class="cls-1" d="M25.35,33.07h-3.6c-.95,0-1.53-.51-1.53-1.3s.58-1.31,1.53-1.31H29c.94,0,1.53.53,1.51,1.33s-.59,1.27-1.5,1.28Z"/><path class="cls-1" d="M24.08,43.3c-.83,0-1.67,0-2.51,0a1.26,1.26,0,0,1-1.35-1.22,1.21,1.21,0,0,1,1.24-1.33c1.73,0,3.47,0,5.21,0a1.22,1.22,0,0,1,1.23,1.33,1.28,1.28,0,0,1-1.36,1.22C25.72,43.31,24.9,43.3,24.08,43.3Z"/></svg>