<svg id="Layer_1" data-name="Layer 1" xmlns="http://www.w3.org/2000/svg" viewBox="0 0 64 64"><defs><style>.cls-1{fill:#1a0f2e;}</style></defs><path class="cls-1" d="M52.12,31.32c0,2.24,0,4.49,0,6.73a2.76,2.76,0,0,1-3,2.91q-6.66-.06-13.33,0a2.81,2.81,0,0,1-3-3c.07-4.48.06-9,0-13.45a2.76,2.76,0,0,1,2.86-2.87c4.51,0,9,0,13.52,0a2.6,2.6,0,0,1,2.84,2.79C52.13,26.75,52.12,29,52.12,31.32ZM38,23.58H35.83c-.84,0-1.08.23-1.08,1.08q0,6.66,0,13.33c0,.8.25,1,1,1H49.26c.81,0,1-.23,1-1.06,0-1.53,0-3.06,0-4.59,0-2.93,0-5.87,0-8.8,0-.78-.23-1-1-1-.52,0-1.05,0-1.57,0s-.66.15-.65.64c0,1.62,0,3.23,0,4.84a1.35,1.35,0,0,1-.7,1.31A1.28,1.28,0,0,1,45,30.19c-.68-.45-1.34-.93-2-1.35a.92.92,0,0,0-.76,0c-.71.42-1.37.89-2,1.35a1.26,1.26,0,0,1-1.41.16A1.35,1.35,0,0,1,38,29.06V23.58Zm2,0v4.49l1.69-1.14c.79-.53,1-.53,1.81,0l1.81,1.21V25.26c0-1.68,0-1.68-1.66-1.68Z"/><path class="cls-1" d="M12,31.33c0-2.26,0-4.53,0-6.79a2.74,2.74,0,0,1,2.92-2.88c4.46,0,8.92,0,13.39,0a2.65,2.65,0,0,1,2.92,2.91V38.11A2.65,2.65,0,0,1,28.39,41c-4.52,0-9,0-13.58,0A2.69,2.69,0,0,1,12,38.18C12,35.9,12,33.61,12,31.33Zm14.2-7.74c0,.25,0,.41,0,.57,0,1.58,0,3.15,0,4.72a1.52,1.52,0,0,1-.69,1.45,1.37,1.37,0,0,1-1.58-.21c-.6-.41-1.23-.79-1.81-1.24a.72.72,0,0,0-1,0c-.58.41-1.18.79-1.77,1.19a1.39,1.39,0,0,1-1.57.26,1.42,1.42,0,0,1-.69-1.44c0-1.57,0-3.14,0-4.71,0-.45-.12-.66-.6-.63s-1,0-1.51,0c-1,0-1.12.17-1.12,1.15V37.87c0,1,.16,1.17,1.16,1.17H28.08c1.13,0,1.3-.17,1.3-1.32V24.9a1.49,1.49,0,0,0-.08-.74c-.14-.23-.41-.52-.65-.54C27.86,23.55,27.06,23.59,26.2,23.59Zm-2,0c-1.67,0-3.26,0-4.85,0-.42,0-.48.21-.48.55,0,.88,0,1.76,0,2.64v1.17c.17,0,.24,0,.29,0l1.46-1c.85-.57,1.06-.57,1.92,0l1.66,1.11Z"/><path class="cls-1" d="M43.37,52.3c0-2.26,0-4.53,0-6.79a2.65,2.65,0,0,1,2.77-2.83H59.85a2.65,2.65,0,0,1,2.78,2.78q0,6.85,0,13.71A2.65,2.65,0,0,1,59.74,62H46.22a2.65,2.65,0,0,1-2.85-2.86C43.36,56.82,43.37,54.56,43.37,52.3Zm5-7.71H46.28c-.82,0-1.06.21-1.06,1q0,6.69,0,13.39c0,.81.24,1,1.06,1q6.69,0,13.39,0c.88,0,1.06-.22,1.06-1.1V45.52c0-.71-.22-.92-.95-.93-.54,0-1.09,0-1.63,0s-.66.16-.65.65c0,1.61,0,3.23,0,4.84a1.31,1.31,0,0,1-.64,1.27,1.29,1.29,0,0,1-1.47-.14c-.62-.43-1.27-.83-1.87-1.28a.75.75,0,0,0-1.05,0c-.58.44-1.22.82-1.82,1.23a1.36,1.36,0,0,1-1.52.22,1.46,1.46,0,0,1-.73-1.43c0-.75,0-1.51,0-2.26Zm1.94,4.5L52,48c.92-.62,1.07-.62,2,0,.51.35,1,.68,1.67,1.11,0-1.53,0-2.87,0-4.2,0-.11-.3-.31-.47-.31-1,0-2,0-3,0H50.35Z"/><path class="cls-1" d="M20.76,52.36v6.72A2.66,2.66,0,0,1,17.9,62H4.38A2.68,2.68,0,0,1,1.49,59q0-6.72,0-13.45a2.7,2.7,0,0,1,2.9-2.91H17.85a2.69,2.69,0,0,1,2.91,3ZM3.4,52.29c0,2.29,0,4.57,0,6.85,0,.61.25.91.85.93l.62,0H17.94a.83.83,0,0,0,.95-.91c0-.19,0-.38,0-.57V46q0-.35,0-.69a.72.72,0,0,0-.82-.75,15.88,15.88,0,0,1-1.69,0c-.59,0-.71.21-.71.72,0,1.6,0,3.19,0,4.78,0,1.3-1,1.81-2.11,1.11-.65-.42-1.3-.84-1.93-1.3a.68.68,0,0,0-.94,0c-.59.44-1.22.83-1.82,1.24a1.4,1.4,0,0,1-1.58.23,1.4,1.4,0,0,1-.66-1.44c0-1.57,0-3.14,0-4.71,0-.46-.14-.65-.61-.62s-1.09,0-1.64,0c-.76,0-1,.2-1,1Zm10.36-3.2V44.6c-1.69,0-3.34,0-5,0-.11,0-.3.26-.31.4,0,.63,0,1.26,0,1.89v2.21c.73-.48,1.31-.83,1.86-1.23a1.25,1.25,0,0,1,1.66,0C12.51,48.28,13.09,48.64,13.76,49.09Z"/><path class="cls-1" d="M41.66,10.56c0,2.29,0,4.57,0,6.85a2.67,2.67,0,0,1-2.76,2.78c-4.57,0-9.14,0-13.71,0a2.67,2.67,0,0,1-2.76-2.77c0-4.59,0-9.18,0-13.76A2.58,2.58,0,0,1,25.23.92c4.55,0,9.1,0,13.65,0a2.72,2.72,0,0,1,2.79,2.8C41.61,6,41.66,8.28,41.66,10.56Zm-9.59,7.72h6.6c1,0,1.16-.19,1.16-1.18,0-3,0-6,0-9,0-1.38,0-2.76,0-4.15,0-.85-.21-1.07-1.07-1.1-.5,0-1,0-1.51,0s-.66.13-.65.64c0,1.57,0,3.14,0,4.72a1.44,1.44,0,0,1-.69,1.43,1.36,1.36,0,0,1-1.57-.23c-.56-.38-1.14-.73-1.66-1.14a.86.86,0,0,0-1.22,0c-.56.44-1.18.8-1.76,1.2a1.34,1.34,0,0,1-1.52.19,1.41,1.41,0,0,1-.68-1.38c0-1.61,0-3.23,0-4.84,0-.4-.13-.58-.53-.57-.57,0-1.13,0-1.7,0-.77,0-1,.27-1,1.05V17.24c0,.81.24,1,1.05,1Zm2.53-11c.07-.15.13-.22.13-.29,0-1.26,0-2.52,0-3.77,0-.4-.28-.41-.57-.41-1.4,0-2.8,0-4.21,0-.44,0-.64.15-.63.62,0,1.09,0,2.18,0,3.27a6,6,0,0,0,.1.63c.67-.44,1.25-.81,1.81-1.21a1.23,1.23,0,0,1,1.61,0C33.42,6.49,34,6.86,34.6,7.26Z"/><path class="cls-1" d="M41.66,52.33c0,2.29,0,4.57,0,6.85A2.72,2.72,0,0,1,38.85,62q-6.78,0-13.57,0a2.73,2.73,0,0,1-2.83-2.83q.07-6.83,0-13.64a2.71,2.71,0,0,1,2.85-2.81c4.5,0,9,0,13.51,0a2.73,2.73,0,0,1,2.87,2.87C41.6,47.8,41.66,50.07,41.66,52.33Zm-5-7.73v.76c0,1.55,0,3.1,0,4.65a1.4,1.4,0,0,1-.72,1.36,1.31,1.31,0,0,1-1.47-.2c-.66-.44-1.33-.87-2-1.33a.57.57,0,0,0-.78,0c-.65.47-1.32.89-2,1.34a1.29,1.29,0,0,1-1.46.19A1.37,1.37,0,0,1,27.51,50c0-1.61,0-3.22,0-4.84,0-.42-.12-.6-.56-.57s-1.05,0-1.58,0c-.88,0-1.09.21-1.09,1.13V58.91c0,.94.21,1.17,1.14,1.17q6.6,0,13.2,0c1,0,1.2-.22,1.2-1.23q0-6.54,0-13.07c0-.19.06-.43,0-.56s-.43-.57-.68-.6C38.32,44.55,37.52,44.6,36.61,44.6Zm-7.26,4.33.19.08c.57-.37,1.16-.73,1.71-1.14a1.24,1.24,0,0,1,1.65,0c.55.4,1.12.76,1.8,1.21V44.67a1.06,1.06,0,0,0-.22-.07H31c-1.68,0-1.68,0-1.68,1.67Z"/><path class="cls-1" d="M45.89,10.62A9,9,0,0,1,54.81,1.7a8.8,8.8,0,0,1,8.91,8.91,8.74,8.74,0,0,1-8.9,8.91A8.86,8.86,0,0,1,45.89,10.62Zm9,7.05a7.07,7.07,0,1,0,0-14.13,7,7,0,0,0-7.08,7.06A7,7,0,0,0,54.84,17.67Z"/><path class="cls-1" d="M47.08,36.26c.44,0,.88,0,1.32,0a.91.91,0,0,1,.92.91.85.85,0,0,1-.9.91c-.9,0-1.8,0-2.7,0a.83.83,0,0,1-.88-.92.88.88,0,0,1,.92-.9C46.2,36.25,46.64,36.26,47.08,36.26Z"/><path class="cls-1" d="M26.12,38.09c-.46,0-.92,0-1.37,0a.91.91,0,0,1,0-1.81c.94-.05,1.88,0,2.82,0a.91.91,0,0,1,0,1.81c-.46,0-.92,0-1.38,0Z"/><path class="cls-1" d="M57.58,57.26c.39,0,.79,0,1.19,0a.92.92,0,0,1,1,.89c0,.58-.28.92-.93,1-.87,0-1.75,0-2.63,0a.83.83,0,0,1-.91-.89.91.91,0,0,1,1-.94h1.32Z"/><path class="cls-1" d="M15.67,59.11c-.46,0-.92,0-1.38,0a.82.82,0,0,1-.86-.88.84.84,0,0,1,.83-.93,22.11,22.11,0,0,1,2.82,0,.84.84,0,0,1,.83.93.82.82,0,0,1-.86.88C16.59,59.13,16.13,59.11,15.67,59.11Z"/><path class="cls-1" d="M36.62,17.33c-.47,0-.95,0-1.43,0a.87.87,0,0,1-.85-.84.9.9,0,0,1,.81-1c1,0,1.92,0,2.88,0a.82.82,0,0,1,.83.91.83.83,0,0,1-.86.89c-.46,0-.92,0-1.38,0Z"/><path class="cls-1" d="M36.61,59.11c-.46,0-.91,0-1.37,0a.88.88,0,0,1-.9-.87.93.93,0,0,1,.89-.95c.92,0,1.84,0,2.75,0a.9.9,0,0,1,.89.95.85.85,0,0,1-.88.87C37.53,59.13,37.07,59.11,36.61,59.11Z"/><path class="cls-1" d="M53.81,11.58,56.3,8.74c.3-.35.59-.71.92-1a.83.83,0,0,1,1.27-.07.86.86,0,0,1,.07,1.24c-1.31,1.55-2.65,3.08-4,4.6a.91.91,0,0,1-1.39,0q-1.05-1-2-2a.83.83,0,0,1,0-1.32.88.88,0,0,1,1.29.06C52.87,10.65,53.31,11.09,53.81,11.58Z"/></svg>