<svg id="Layer_1" data-name="Layer 1" xmlns="http://www.w3.org/2000/svg" viewBox="0 0 64 64"><defs><style>.cls-1{fill:#1a0f2e;}</style></defs><path class="cls-1" d="M63,5.54V46c-.67,2-2.11,2.63-4.12,2.61-5.71-.06-11.43,0-17.14,0h-.8c0,2.21,0,4.34,0,6.48,0,.15.21.36.37.44,1,.49,2,1,3,1.42a.93.93,0,0,1,.6,1c0,.56,0,1.12,0,1.68,0,1.18-.17,1.35-1.34,1.35H21a3.85,3.85,0,0,1-.48,0,.79.79,0,0,1-.82-.89c0-.72,0-1.44,0-2.16a.93.93,0,0,1,.63-1c1-.45,1.94-.93,2.92-1.37a.62.62,0,0,0,.42-.68c0-1.14,0-2.28,0-3.42V48.54H5.47a8.71,8.71,0,0,1-1-.05A3.19,3.19,0,0,1,1.61,45.3V6.17a3.12,3.12,0,0,1,1-2.26,3.61,3.61,0,0,1,2.73-1h54A6.65,6.65,0,0,1,60.2,3a3.15,3.15,0,0,1,2.56,2ZM3.13,39.45H61.48V6.71c0-1.65-.59-2.24-2.23-2.24H5.36c-1.64,0-2.23.59-2.23,2.23V39.45ZM39.4,48.57H25.25v6.71H39.37c0-.19,0-.34,0-.5Zm-8.94-4.69a2.43,2.43,0,1,0,2.45-2.48A2.45,2.45,0,0,0,30.46,43.88Z"/><path class="cls-1" d="M32.36,7.46H54a4.87,4.87,0,0,1,.54,0,.7.7,0,0,1,.69.7.7.7,0,0,1-.59.78,3,3,0,0,1-.6,0H10.53c-.22,0-.5,0-.64-.08s-.52-.51-.5-.75.37-.5.62-.67.39,0,.59,0Z"/><path class="cls-1" d="M32.29,36.71H10.59c-.18,0-.41.07-.53,0-.27-.18-.6-.41-.68-.69s.17-.68.57-.78a2.33,2.33,0,0,1,.53,0H54.13c.21,0,.5,0,.63.09s.46.5.44.74-.32.5-.56.66-.39,0-.59,0Z"/><path class="cls-1" d="M50.17,20.56c0,1.18,0,2.36,0,3.53a4.19,4.19,0,0,1-8.38,0c0-2.45,0-4.91,0-7.37,0-.58.32-.95.78-.93s.75.37.75,1c0,2.43,0,4.87,0,7.3a2.66,2.66,0,0,0,5.09,1.05,3.88,3.88,0,0,0,.23-1.4c0-2.21,0-4.43,0-6.65a3.09,3.09,0,0,1,0-.53.71.71,0,0,1,.82-.69.68.68,0,0,1,.67.77Z"/><path class="cls-1" d="M10,20.54V16.82c0-.68.25-1,.73-1s.77.34.77,1.06c0,2.39,0,4.79,0,7.19a2.69,2.69,0,1,0,5.37.15c0-2.42,0-4.84,0-7.25,0-.68.3-1.07.79-1.06s.75.41.75,1c0,2.36,0,4.71,0,7.07a4.2,4.2,0,0,1-8.3.91A5.86,5.86,0,0,1,10,23.71C10,22.65,10,21.6,10,20.54Z"/><path class="cls-1" d="M24.81,20.28c.56-1.07,1.08-2.08,1.61-3.08.12-.25.25-.5.38-.74.33-.63.72-.82,1.17-.58s.49.64.19,1.25-.47.92-.7,1.39c-.52,1-1,2-1.56,3a.87.87,0,0,0,0,.88c.72,1.42,1.41,2.86,2.11,4.29a3.26,3.26,0,0,1,.18.38.76.76,0,0,1-.35,1,.73.73,0,0,1-1-.38c-.52-1.05-1-2.11-1.55-3.17l-.45-.87-1.55,3c-.17.33-.33.68-.52,1A.75.75,0,1,1,21.39,27c.76-1.52,1.5-3,2.28-4.54a1,1,0,0,0,0-1.05c-.75-1.47-1.47-3-2.19-4.45-.27-.58,0-1.14.48-1.24s.73.19.93.59C23.5,17.63,24.14,18.92,24.81,20.28Z"/><path class="cls-1" d="M32.3,32.07a.7.7,0,0,1-.74-.76,2.36,2.36,0,0,1,.17-.63l6.7-17.79.11-.27a.82.82,0,0,1,1-.55.76.76,0,0,1,.36,1.07c-.5,1.35-1,2.69-1.52,4l-5.28,14.1C33,31.68,32.82,32.06,32.3,32.07Z"/><path class="cls-1" d="M54.73,22v5.22c0,.63-.25,1-.72,1s-.79-.36-.8-1c0-3.48,0-6.95,0-10.43,0-.78.63-1.22,1.15-.81a1.16,1.16,0,0,1,.34.82C54.74,18.52,54.73,20.26,54.73,22Z"/><path class="cls-1" d="M32.87,45.35a1.53,1.53,0,0,1-1.52-1.52,1.54,1.54,0,1,1,1.52,1.52Z"/></svg>