<svg id="Layer_1" data-name="Layer 1" xmlns="http://www.w3.org/2000/svg" viewBox="0 0 64 64"><defs><style>.cls-1{fill:#1a0f2e;}</style></defs><path class="cls-1" d="M1.49,17.59l7.47,0H9.7V46.56H1.49Z"/><path class="cls-1" d="M27.55,19.71A12.36,12.36,0,1,1,15.15,32,12.36,12.36,0,0,1,27.55,19.71Zm0,8.27a4.09,4.09,0,1,0,4.1,4.11A4.11,4.11,0,0,0,27.54,28Z"/><path class="cls-1" d="M44.25,17.65H62.73V25.9h-5.1V46.48H49.4V25.91H44.25Z"/><path class="cls-1" d="M43.34,10.32l-2,2.8c-9.19-5.89-18.34-5.89-27.55,0L12,10.7l-.26-.38C20.37,3.64,33.94,3.19,43.34,10.32Z"/><path class="cls-1" d="M11.71,53.83,13.8,51a23.38,23.38,0,0,0,27.44,0l2.09,2.86C34.73,60.48,21.18,61,11.71,53.83Z"/><path class="cls-1" d="M39.11,48a19.57,19.57,0,0,1-23.19,0L18,45.16a16.31,16.31,0,0,0,19,0Z"/><path class="cls-1" d="M18,19l-2.09-2.87a19.59,19.59,0,0,1,23.19,0L37,19A16.3,16.3,0,0,0,18,19Z"/></svg>