<svg id="Layer_1" data-name="Layer 1" xmlns="http://www.w3.org/2000/svg" viewBox="0 0 64 64"><defs><style>.cls-1{fill:#1a0f2e;}</style></defs><path class="cls-1" d="M1.35,13.62V10.49H2.56V3.75a2.74,2.74,0,0,1,3-3c4,0,8.07,0,12.1,0a2.7,2.7,0,0,1,3,3c0,2,0,4.06,0,6.08,0,.21,0,.42,0,.68h1.15c0,1,0,1.94,0,2.88a2.64,2.64,0,0,1-2.64,2.51H18l5.46,5.47a3.57,3.57,0,0,0,.1-.57c0-.94-.09-1.88-.17-2.82a.51.51,0,0,1,.38-.63c.84-.32,1.67-.68,2.5-1l2.16-.9c1,.93,1.7,2,2.69,2.82l.19-.12V14.3H33.2v4c.28-.26.43-.38.55-.52.63-.68,1.26-1.36,1.86-2.06a.53.53,0,0,1,.71-.18c1.41.61,2.84,1.2,4.26,1.77a.5.5,0,0,1,.38.57c-.06,1-.1,1.92-.12,2.89a2.29,2.29,0,0,0,.14.64l5.54-5.54H45.14a2.46,2.46,0,0,1-2.45-1.78,27.07,27.07,0,0,1-.27-3.67H43.7v-.7c0-2,0-4.1,0-6.14A2.68,2.68,0,0,1,46.61.75q6.11,0,12.22,0a2.73,2.73,0,0,1,3,3v6.82H63c0,.84,0,1.64,0,2.44a2.73,2.73,0,0,1-2.92,2.94c-3.41,0-6.82,0-10.23,0a1.38,1.38,0,0,0-.88.36c-2.07,2-4.12,4.1-6.18,6.16-.12.12-.22.25-.42.48.3,0,.47,0,.64,0,.94,0,1.88-.08,2.82-.14a.5.5,0,0,1,.59.35c.58,1.45,1.2,2.89,1.77,4.34a.71.71,0,0,1-.15.64c-.67.66-1.4,1.26-2.08,1.91a3.4,3.4,0,0,0-.45.7h4.06v1.85H45.46c.26.28.37.43.51.56.68.62,1.38,1.22,2,1.86a.72.72,0,0,1,.16.64q-.86,2.18-1.79,4.32a.77.77,0,0,1-.56.36c-1,0-1.92-.09-2.88-.12a3.68,3.68,0,0,0-.67.12c.17.2.24.29.32.37q3.12,3.14,6.26,6.25a1.13,1.13,0,0,0,.74.26c3.07,0,6.14,0,9.21,0a2.75,2.75,0,0,1,3,3V57H63c0,.7,0,1.36,0,2a3,3,0,0,1-2.16,3.39H44.57c-.92-.38-1.8-.91-1.94-1.94a29,29,0,0,1,0-3.5h1.1v-.7c0-2.05,0-4.1,0-6.14a2.59,2.59,0,0,1,1.11-2.34,6.79,6.79,0,0,1,1.34-.59l-5.25-5.25v3.73c-1.53.63-3.09,1.28-4.67,1.91a.64.64,0,0,1-.54-.14c-.65-.68-1.27-1.39-1.91-2.09-.13-.14-.3-.26-.59-.51v4.1H31.34V44.81c-1.24.82-1.88,2-2.89,2.87-1.57-.65-3.17-1.3-4.74-2a.6.6,0,0,1-.27-.49c0-1,.1-1.92.15-2.88a3.12,3.12,0,0,0,0-.52l-5.33,5.37c1.77.46,2.42,1.3,2.42,3.22s0,3.93,0,5.9v.64l1.17.05c0,1.09.07,2.13,0,3.16a2.59,2.59,0,0,1-.68,1.36,6.11,6.11,0,0,1-1.33.87H3.51a3.13,3.13,0,0,1-2.16-2.29V57H2.56V50.21a2.75,2.75,0,0,1,3-3h9.27a1.28,1.28,0,0,0,1-.39c2-2,3.94-3.95,5.91-5.93.13-.13.25-.28.5-.55a4.88,4.88,0,0,0-.78-.15c-.94,0-1.88.08-2.82.14A.53.53,0,0,1,18,40c-.57-1.43-1.16-2.86-1.77-4.27a.51.51,0,0,1,.17-.71c.72-.62,1.41-1.26,2.1-1.9a4.26,4.26,0,0,0,.45-.55H15V30.72h4a5.11,5.11,0,0,0-.49-.67c-.69-.64-1.38-1.28-2.09-1.89a.53.53,0,0,1-.18-.72C16.83,26,17.41,24.6,18,23.17a.54.54,0,0,1,.64-.38c.94.06,1.88.11,2.82.14a3.53,3.53,0,0,0,.67-.11l-.46-.49c-2-2-4-4-6.06-6a1.43,1.43,0,0,0-.93-.37c-3.45,0-6.9,0-10.35,0a3.79,3.79,0,0,1-.89-.09A2.87,2.87,0,0,1,1.35,13.62ZM21,38.37c.28,0,.57,0,.84,0a1.25,1.25,0,0,1,1.21.46c.66.73,1.4,1.39,2.07,2.11a1.2,1.2,0,0,1,.28.72c0,.8-.09,1.6-.09,2.4a.68.68,0,0,0,.32.52c.64.32,1.32.56,2,.85a.49.49,0,0,0,.66-.18c.51-.6,1-1.18,1.58-1.74a1.12,1.12,0,0,1,.71-.31c1.08,0,2.17,0,3.25,0a1.11,1.11,0,0,1,.71.32c.56.56,1.07,1.19,1.63,1.76a.69.69,0,0,0,.59.14c.57-.19,1.11-.49,1.67-.67a.78.78,0,0,0,.63-1,5.88,5.88,0,0,1,0-2.54c.29-.73,1.2-1.2,1.73-1.88a2.6,2.6,0,0,1,2.67-1c1.56.22,1.57.16,2.16-1.26s.61-1.4-.54-2.26a3.5,3.5,0,0,1-1.37-3.06A3.87,3.87,0,0,1,45.4,28c.82-.57.76-.67.37-1.59-.24-.57-.36-1.36-.79-1.63s-1.21-.07-1.82,0A2.1,2.1,0,0,1,41,24a4.42,4.42,0,0,0-.89-.89A2.64,2.64,0,0,1,39,20.33c.22-1.59.12-1.6-1.34-2.21a4.68,4.68,0,0,1-.56-.23c-.5-.33-.83-.18-1.19.26-.52.64-1,1.45-1.69,1.75s-1.62,0-2.43.11A2.75,2.75,0,0,1,29,18.79c-1-1.24-1-1.19-2.51-.57-1.23.51-1.23.51-1.13,1.87.13,1.79.05,1.72-1.12,3.08s-2.27,2-4,1.54a.94.94,0,0,0-1.3.8,3.37,3.37,0,0,1-.45,1.11c-.36.57-.16.92.31,1.3s1.38.95,1.67,1.6,0,1.55.11,2.32a3,3,0,0,1-1.36,3.05c-1.08.81-1,.88-.51,2.12C19.39,38.53,19.39,38.53,21,38.37ZM4.39,10.46H18.81c0-2.37,0-4.69,0-7,0-.58-.39-.89-1.06-.89H5.47c-.73,0-1.06.34-1.07,1.07s0,1.53,0,2.29Zm55.54,0c0-2.39,0-4.73,0-7.08,0-.58-.41-.84-1.1-.84H46.66c-.82,0-1.13.32-1.13,1.12,0,1.89,0,3.78,0,5.66v1.14ZM18.82,56.93V50.3c0-1-.28-1.28-1.28-1.28-3.95,0-7.91,0-11.86,0-1,0-1.29.29-1.29,1.29v6.07a5.28,5.28,0,0,0,0,.55Zm26.71,0H59.92c0-.19,0-.35,0-.51V50.27c0-1-.31-1.25-1.26-1.25-2.29,0-4.58,0-6.87,0-1.72,0-3.45,0-5.17,0-.72,0-1.11.29-1.12.89C45.52,52.24,45.53,54.56,45.53,56.92ZM3.23,12.33c-.13,1.5.12,1.78,1.55,1.78H18.86c.85,0,1.16-.32,1.16-1.17v-.61Zm57.9,0H44.34c0,.15,0,.27,0,.39,0,1.12.24,1.38,1.37,1.38H60c.88,0,1.19-.32,1.2-1.2C61.15,12.73,61.14,12.55,61.13,12.34ZM3.23,58.8c-.13,1.51.12,1.78,1.55,1.78H18.86c.85,0,1.16-.31,1.16-1.16V58.8Zm57.92,0H44.36c-.15,1.53.07,1.77,1.56,1.77H60c.88,0,1.19-.32,1.2-1.2Z"/><path class="cls-1" d="M31.35,9.84a4.59,4.59,0,0,1-3.54-3.7,4.51,4.51,0,1,1,5.84,3.53c-.36.12-.51.27-.49.67,0,.69,0,1.39,0,2.12H31.35ZM35,5.32a2.7,2.7,0,1,0-2.66,2.76A2.68,2.68,0,0,0,35,5.32Z"/><path class="cls-1" d="M51.38,32.56V30.73c.73,0,1.44,0,2.15,0a.49.49,0,0,0,.58-.43,4.52,4.52,0,0,1,8.84.87,4.51,4.51,0,0,1-8.7,2c-.18-.49-.39-.69-.93-.64S52.05,32.56,51.38,32.56Zm7.07,1.68a2.68,2.68,0,0,0,2.69-2.65,2.69,2.69,0,1,0-5.38,0A2.65,2.65,0,0,0,58.45,34.24Z"/><path class="cls-1" d="M10.56,30.75h2.59v1.81c-.68,0-1.38,0-2.07,0-.43,0-.61.12-.76.54a4.5,4.5,0,0,1-8.63-.44,4.47,4.47,0,0,1,3-5.38,4.46,4.46,0,0,1,5.57,2.63C10.36,30.16,10.44,30.42,10.56,30.75ZM6.07,34.23a2.62,2.62,0,0,0,2.7-2.69,2.7,2.7,0,0,0-5.39,0A2.62,2.62,0,0,0,6.07,34.23Z"/><path class="cls-1" d="M31.35,53.3V50.77h1.81v2.5a4.57,4.57,0,0,1,3.55,5.23,4.51,4.51,0,0,1-8.94-.33A4.53,4.53,0,0,1,31.35,53.3ZM35,57.77a2.7,2.7,0,1,0-5.39,0,2.7,2.7,0,0,0,5.39,0Z"/><path class="cls-1" d="M32.2,37.85a6.17,6.17,0,0,1-6.31-6.31,6.33,6.33,0,0,1,12.65-.07A6.23,6.23,0,0,1,32.2,37.85Zm0-1.8a4.48,4.48,0,0,0,4.51-4.43,4.5,4.5,0,1,0-9,0A4.47,4.47,0,0,0,32.19,36.05Z"/><path class="cls-1" d="M24.07,32.46H22.32V30.68h1.75Z"/><path class="cls-1" d="M40.37,30.67h1.74v1.78H40.37Z"/></svg>