<svg id="Layer_1" data-name="Layer 1" xmlns="http://www.w3.org/2000/svg" viewBox="0 0 64 64"><defs><style>.cls-1{fill:#f9ed32;}</style></defs><path d="M23.55,59.51c0-.29,0-.5,0-.72,0-6.72,0-13.45,0-20.18a22.1,22.1,0,0,1,.28-5.51,15,15,0,0,1,7.33-9.86,1,1,0,0,0,.57-1c0-3.88,0-7.75,0-11.63a1.89,1.89,0,0,1,.61-1.5c2-2,4-4,6-6a1.7,1.7,0,0,1,1.28-.52q11.52,0,23.05,0c1,0,1.32.34,1.32,1.35v40.3c0,1-.36,1.34-1.33,1.34H54l8.61,8.57a4.3,4.3,0,0,1-5.73,6.41c-2.76-2.6-5.4-5.31-8-8a17.78,17.78,0,0,1-1.7-2.39l-.43-.62c-1.44.55-2.79,1-4.14,1.59a.63.63,0,0,0-.34.44c0,2.59,0,5.18,0,7.77,0,0,0,.08.09.21.36,0,.77,0,1.18,0a1,1,0,0,1,1.06,1,1.06,1.06,0,0,1-1,1.1c-.18,0-.35,0-.53,0H2.08a3.64,3.64,0,0,1-.66,0A1,1,0,0,1,.5,60.52a1,1,0,0,1,1-1c.21,0,.43,0,.65,0l.7,0v-19c0-1.21.27-1.49,1.49-1.49H9.5c1.33,0,1.58.25,1.58,1.55V59.47h2.11V32.35c0-1.36.29-1.66,1.64-1.66h5.1c1.22,0,1.54.32,1.54,1.56V58.57a1.87,1.87,0,0,0,0,.58c.05.14.21.33.34.34C22.39,59.53,23,59.51,23.55,59.51ZM61.88,4.72H41v.75c0,1.72,0,3.44,0,5.16,0,.86-.39,1.22-1.25,1.22H33.92V22c6.38-1.64,11.95-.36,16.25,4.67s4.66,10.78,2,16.78h9.67ZM51.71,36.48a13.07,13.07,0,1,0-13.06,13A13.08,13.08,0,0,0,51.71,36.48Zm-32.43,23V32.86H15.37V59.47ZM9,59.48V41.17H5V59.48Zm20.7,0a1.06,1.06,0,0,0,.07-.22c0-3.41,0-6.82,0-10.24a1,1,0,0,0-.34-.57c-.8-.79-1.64-1.55-2.42-2.36a18.78,18.78,0,0,1-1.22-1.59v15ZM51.18,51.9c2.33,2.34,4.65,4.69,7,7A2.14,2.14,0,0,0,61,59a2.11,2.11,0,0,0,.16-3.34c-2.23-2.26-4.49-4.5-6.74-6.74a.66.66,0,0,0-.18-.12ZM36.09,59.46h4v-8h-4Zm-4.25,0H34c0-2.8,0-5.56,0-8.31a.51.51,0,0,0-.25-.37c-.59-.26-1.2-.49-1.85-.75v9.43Zm7-49.74V5.93L35,9.72ZM49.66,50.07l2.77-2.78-1.78-1.21-2.29,2.11Z"/><path d="M12.79,5.2V15.33H23A11.27,11.27,0,1,1,12.79,5.2ZM10.7,7.33a9.18,9.18,0,0,0-7.8,6.72c-.93,3.32.47,7,2,8.27,1.85-2,3.72-4.08,5.56-6.13a1.14,1.14,0,0,0,.2-.71q0-3,0-6.07ZM6.4,23.84a9,9,0,0,0,8.87,1,9,9,0,0,0,5.59-7.3,1.35,1.35,0,0,0-.24-.06c-2.7,0-5.4,0-8.1,0a.75.75,0,0,0-.5.2Z"/><path d="M26.29,14.13H14V1.93C20.14,1.09,26.89,6.42,26.29,14.13ZM24.12,12C23.54,6.88,19,4.09,16.17,4.1V12Z"/><path class="cls-1" d="M19.28,59.47H15.37V32.86h3.91Z"/><path class="cls-1" d="M9,59.48H5V41.17H9Z"/><path class="cls-1" d="M29.65,59.47H25.74v-15A18.78,18.78,0,0,0,27,46.08c.78.81,1.62,1.57,2.42,2.36a1,1,0,0,1,.34.57c0,3.42,0,6.83,0,10.24A1.06,1.06,0,0,1,29.65,59.47Z"/><path class="cls-1" d="M51.18,51.9l3.06-3.06a.66.66,0,0,1,.18.12c2.25,2.24,4.51,4.48,6.74,6.74A2.11,2.11,0,0,1,61,59a2.14,2.14,0,0,1-2.81-.13C55.83,56.59,53.51,54.24,51.18,51.9Z"/><path class="cls-1" d="M36.09,59.46v-8h4v8Z"/><path class="cls-1" d="M49.66,50.07l-1.3-1.88,2.29-2.11,1.78,1.21Z"/><path d="M47.86,17.86h-9a1.14,1.14,0,0,1-1.25-.74,1,1,0,0,1,.83-1.35,1.83,1.83,0,0,1,.33,0H57c.77,0,1.24.41,1.25,1s-.5,1.07-1.29,1.07Z"/><path d="M51.71,12.73H46.56c-.72,0-1.16-.34-1.24-.9s.36-1.21,1.16-1.23,1.57,0,2.35,0h7.82a4.17,4.17,0,0,1,.71.05,1,1,0,0,1,.85,1,1,1,0,0,1-.89,1,9.41,9.41,0,0,1-1.3,0Z"/><path d="M51.77,20.88h5.15c.8,0,1.3.42,1.3,1.06s-.48,1-1.3,1H46.56c-.83,0-1.27-.39-1.25-1.08s.46-1,1.25-1Z"/><path d="M55.33,26c.56,0,1.13,0,1.69,0a1.12,1.12,0,0,1,1.2,1,1.09,1.09,0,0,1-1.15,1.09c-1.17,0-2.35,0-3.52,0A1.06,1.06,0,0,1,52.42,27a1.11,1.11,0,0,1,1.21-1h1.7Z"/><path d="M56.33,38.38c-.31,0-.61,0-.91,0a1,1,0,0,1-1-1,1,1,0,0,1,.86-1.11,12.26,12.26,0,0,1,2,0,1,1,0,0,1,.88,1,1,1,0,0,1-1,1C56.94,38.4,56.63,38.38,56.33,38.38Z"/><path d="M56.29,33.26a6.91,6.91,0,0,1-.91,0,1,1,0,0,1-.93-1.07,1,1,0,0,1,1-1,15.77,15.77,0,0,1,1.82,0,1,1,0,0,1,1,1,1.08,1.08,0,0,1-1,1.06C56.94,33.29,56.61,33.26,56.29,33.26Z"/><path d="M50.13,36.44a11.48,11.48,0,1,1-11.44-11.5A11.5,11.5,0,0,1,50.13,36.44Zm-20.84,0a9.37,9.37,0,1,0,9.38-9.36A9.38,9.38,0,0,0,29.29,36.42Z"/><path d="M38.29,37.76c1.13-1.23,2.22-2.41,3.3-3.6A1.09,1.09,0,0,1,43,33.78a1,1,0,0,1,.34,1.59C41.92,37,40.49,38.5,39.05,40a.93.93,0,0,1-1.4,0c-.76-.68-1.5-1.39-2.22-2.11a1.05,1.05,0,1,1,1.49-1.48C37.37,36.86,37.8,37.29,38.29,37.76Z"/></svg>