<svg id="Layer_1" data-name="Layer 1" xmlns="http://www.w3.org/2000/svg" viewBox="0 0 338 429"><path d="M167.39,409c-6.48-1.67-13.21-2.69-19.38-5.13-28.06-11.13-44.88-31.72-50.24-61.48-.49-2.74-1.53-4.19-4.27-5.17-30.48-10.9-49-41.16-46.3-73.38,2.94-34.78,16.66-64,42.28-87.63a126.82,126.82,0,0,1,42.65-25.69c-19.51-16.73-28.55-37.69-25.91-63,1.91-18.25,10.37-33.42,24.37-45.29,28.73-24.36,71.11-21.47,96.77,6.45,25.25,27.48,25.5,73.67-8.1,101.83,1.81.72,3.49,1.32,5.11,2,43.44,19.31,69.78,52.27,78.23,99.08,3.06,16.93,2.67,33.79-5.15,49.72-8.52,17.37-21.83,29.49-40,36.07-2.25.81-3.46,1.8-3.8,4.28-4.78,34.76-33.56,62.72-68,66.7a7.53,7.53,0,0,0-1.73.64Zm85.87-94.14c13.42-6.44,22.37-16.3,26.39-30.24,3.51-12.21,1.91-24.49-.74-36.61-13.7-62.62-82.1-98.95-141.62-75.28C96.47,189,70.43,226.66,69.73,270.63a46,46,0,0,0,9.71,29.58A44.78,44.78,0,0,0,98,314.72c9-40,42.49-63.33,77-63.56C210.36,250.91,244.15,274.53,253.26,314.86ZM119.37,330.09a56.26,56.26,0,1,0,56.29-56.35A56.43,56.43,0,0,0,119.37,330.09ZM175.75,142.9a47.23,47.23,0,0,0,47.12-47.81c-.1-25.74-21.56-47-47.38-46.89-26.11.08-47.22,21.54-47.11,47.9A47.27,47.27,0,0,0,175.75,142.9Z"/><path d="M168.12,329.24c7.29-7.81,13.63-14.83,20.23-21.61,6.21-6.38,16.29-4,18.94,4.26a10.75,10.75,0,0,1-2.51,11.1c-9.21,10-18.42,20-27.81,29.79-4.53,4.73-11,4.83-15.74.36q-7.64-7.17-14.8-14.81a11.19,11.19,0,0,1,15.74-15.89C164.28,324.35,166,326.74,168.12,329.24Z"/></svg>