<svg id="Layer_1" data-name="Layer 1" xmlns="http://www.w3.org/2000/svg" viewBox="0 0 65 65"><defs><style>.cls-1{fill:#4dc0b3;}</style></defs><path class="cls-1" d="M8,62.29c-.24-.09-.49-.17-.73-.28A3.71,3.71,0,0,1,5,58.39V32.64a3.72,3.72,0,0,1,3.93-4h.88V23.79a3.7,3.7,0,0,1,1.09-2.68q7.49-7.59,15-15.18a4,4,0,0,1,2.88-1.22q10.35,0,20.7,0A3.65,3.65,0,0,1,53,8.5V35.88h1a3.68,3.68,0,0,1,3.76,3.73q0,9.48,0,19a3.65,3.65,0,0,1-2.75,3.61,1.92,1.92,0,0,0-.25.12ZM31.39,59.9H53.77A1.64,1.64,0,0,0,55.64,58V39.7a4.29,4.29,0,0,0,0-.62,1,1,0,0,0-1-1,5.93,5.93,0,0,0-.73,0c-7.35,0-14.7,0-22,0a4.54,4.54,0,0,1-3.56-1.46c-1.51-1.61-3.13-3.12-4.67-4.71a2.5,2.5,0,0,0-1.94-.8H8.71c-.89,0-1.26.39-1.29,1.26V58.46c0,.13,0,.26,0,.39a1,1,0,0,0,.91,1,5.16,5.16,0,0,0,.79,0Zm19.22-24V8.69c0-1.24-.37-1.6-1.61-1.6H29v.75c0,4,0,8,0,12a3.72,3.72,0,0,1-4,4H12.89c-.22,0-.44,0-.65,0v4.74H13c2.94,0,5.88,0,8.83,0a3.2,3.2,0,0,1,2.4.9c1.8,1.81,3.61,3.6,5.37,5.44a2.77,2.77,0,0,0,2.15.87H50.61ZM14.05,21.49H25c1.24,0,1.56-.31,1.56-1.55q0-5.23,0-10.46c0-.18,0-.36,0-.5Z"/><path class="cls-1" d="M53.16,54.21c-.22.31-.37.74-.66.91a1.17,1.17,0,0,1-1.38-.46c-.28-.44-.5-.92-.8-1.35a.91.91,0,0,0-.59-.36c-1.65,0-3.3,0-4.95,0a.63.63,0,0,0-.65.39c-.15.31-.33.59-.49.88a2.82,2.82,0,0,1-.18.29c-.41.61-1.19.94-1.61.69a1.57,1.57,0,0,1-.52-1.94c.86-1.75,1.74-3.48,2.61-5.23l2.13-4.33a1,1,0,0,1,1.45-.36,2.31,2.31,0,0,1,.56.75c1.51,3,3,6,4.5,9C52.75,53.4,52.93,53.74,53.16,54.21Zm-4.49-4L47,46.93l-1.66,3.33Z"/><path class="cls-1" d="M30.35,54.94a1.14,1.14,0,0,1-1.16-.68c-.46-1.39-1.41-1.74-2.79-1.59a25.25,25.25,0,0,1-3.37,0c-.37,0-.59.08-.69.47a9.1,9.1,0,0,1-.37,1c-.28.76-1.08,1.29-1.61,1.08a1.55,1.55,0,0,1-.58-2.08c.93-1.88,1.88-3.75,2.81-5.63.64-1.3,1.24-2.64,1.93-3.92a1.06,1.06,0,0,1,1.79,0c1.66,3.26,3.27,6.56,4.92,9.83A.92.92,0,0,1,30.35,54.94Zm-6.59-4.71h3.3l-1.66-3.3Z"/><path class="cls-1" d="M36.44,51l.32-.57C37.9,48.2,39,46,40.18,43.82a1.53,1.53,0,0,1,.78-.73,1.14,1.14,0,0,1,1.54,1.42,2.16,2.16,0,0,1-.22.58c-1.48,3-3,5.95-4.46,8.94a1.91,1.91,0,0,1-1.33,1,1,1,0,0,1-1.27-.69c-.47-1-1-2-1.49-3-1-2.09-2.09-4.19-3.14-6.28a2.07,2.07,0,0,1-.21-.57,1.63,1.63,0,0,1,.8-1.55,1.59,1.59,0,0,1,1.56.89C33.85,46,35,48.12,36.06,50.27Z"/><path class="cls-1" d="M14.62,45.5c-.45,0-.83,0-1.2,0a1.14,1.14,0,0,1-1.21-1.19,1.13,1.13,0,0,1,1.2-1.21q2.38,0,4.77,0a1.11,1.11,0,0,1,1.21,1.19,1.12,1.12,0,0,1-1.19,1.21c-.37,0-.74,0-1.19,0v.64c0,1.76,0,3.52,0,5.28a3.7,3.7,0,0,1-3.34,3.67A3.71,3.71,0,0,1,9.84,52c-.19-1.13.48-1.87,1.47-1.64a1.13,1.13,0,0,1,.89,1.14c.1.91.67,1.35,1.48,1.18a1.09,1.09,0,0,0,.92-1,3.39,3.39,0,0,0,0-.45Z"/><path class="cls-1" d="M39.84,28.68h7c.95,0,1.42.46,1.37,1.3a1.05,1.05,0,0,1-.9,1.06,3.14,3.14,0,0,1-.61.05H33a3.57,3.57,0,0,1-.56,0,1.2,1.2,0,0,1,0-2.36c.2,0,.41,0,.62,0Z"/><path class="cls-1" d="M39.78,11.9h-7c-.77,0-1.21-.32-1.33-.93a1.14,1.14,0,0,1,1.15-1.44c1.27,0,2.54,0,3.81,0H46.84c.91,0,1.35.42,1.35,1.21s-.47,1.17-1.33,1.17Z"/><path class="cls-1" d="M39.84,21.49c-2.34,0-4.68,0-7,0A2,2,0,0,1,31.68,21a.94.94,0,0,1-.15-1.24,3.47,3.47,0,0,1,.93-.69s.11,0,.17,0c4.77,0,9.55,0,14.32,0a1.09,1.09,0,0,1,1.23,1.1A1.11,1.11,0,0,1,47,21.48H39.84Z"/><path class="cls-1" d="M36.22,14.29c1.16,0,2.32,0,3.48,0,.83,0,1.27.44,1.29,1.17a1.13,1.13,0,0,1-1.22,1.24c-.75,0-1.5,0-2.24,0q-2.39,0-4.77,0a1.21,1.21,0,1,1-.07-2.41C33.87,14.27,35.05,14.29,36.22,14.29Z"/><path class="cls-1" d="M36.22,23.9H39.7c.85,0,1.29.43,1.29,1.2s-.47,1.18-1.33,1.18c-2.32,0-4.64,0-6.95,0a1.15,1.15,0,0,1-1.17-.62,1.17,1.17,0,0,1,1-1.75c1.22,0,2.43,0,3.65,0Z"/></svg>