<svg id="Layer_1" data-name="Layer 1" xmlns="http://www.w3.org/2000/svg" viewBox="0 0 65 65"><defs><style>.cls-1{fill:#4dc0b3;}</style></defs><path class="cls-1" d="M63,39.66v2.68a.9.9,0,0,0-.08.28,2.31,2.31,0,0,1-1.73,2.16c-.68.24-1.34.51-2,.8a1.06,1.06,0,0,0-.47.51c-.45,1-.89,2.06-1.29,3.11a1.13,1.13,0,0,0,0,.75c.28.76.62,1.5.94,2.25A2,2,0,0,1,58,54.53c-.77.84-1.58,1.65-2.42,2.42a2,2,0,0,1-2.28.36c-.77-.32-1.53-.68-2.31-1a1.17,1.17,0,0,0-.74,0c-1,.4-2.05.82-3.06,1.27a1.24,1.24,0,0,0-.57.56c-.34.74-.61,1.51-.92,2.26a2,2,0,0,1-1.86,1.37c-1.14,0-2.29,0-3.43,0a2,2,0,0,1-1.9-1.39c-.32-.76-.61-1.55-1-2.31a1.06,1.06,0,0,0-.5-.48c-1-.45-2.06-.88-3.11-1.28a1.08,1.08,0,0,0-.75,0c-.78.29-1.53.64-2.3,1a1.92,1.92,0,0,1-2.14-.26,35.41,35.41,0,0,1-2.66-2.68,1,1,0,0,0-.9-.43A46.55,46.55,0,0,1,10.26,52a14.07,14.07,0,0,1-5.32-2.78,4.65,4.65,0,0,1-1.63-3.64q0-17.51,0-35A4.23,4.23,0,0,1,4.77,7.19,13.53,13.53,0,0,1,7.5,5.34,33.36,33.36,0,0,1,19.13,2.51l2.6-.24h4.89l2.49.23a39.76,39.76,0,0,1,9.23,1.78A13.92,13.92,0,0,1,43.48,7a4.5,4.5,0,0,1,1.59,3.6c0,2.75,0,5.51,0,8.27a4.17,4.17,0,0,0,.56,2.69,13.62,13.62,0,0,1,1,2.34,1.14,1.14,0,0,0,.55.51c1,.45,2,.87,3,1.27a1.19,1.19,0,0,0,.79,0c.75-.27,1.47-.61,2.2-.92a2.11,2.11,0,0,1,2.43.39c.79.75,1.56,1.51,2.3,2.31a2.06,2.06,0,0,1,.4,2.37c-.33.77-.67,1.53-1,2.31a1.09,1.09,0,0,0,0,.69c.41,1.05.84,2.09,1.29,3.11a1.09,1.09,0,0,0,.53.53c.76.35,1.54.62,2.31,1a2.1,2.1,0,0,1,1.35,1.82A2.36,2.36,0,0,0,63,39.66ZM54.16,55.51a1.91,1.91,0,0,0,.32-.24c.61-.6,1.2-1.21,1.82-1.8a.58.58,0,0,0,.1-.77c-.38-.87-.74-1.75-1.12-2.62a1.47,1.47,0,0,1,.07-1.32c.56-1.25,1.08-2.52,1.57-3.81a1.51,1.51,0,0,1,.94-1c.89-.32,1.77-.68,2.64-1.06a.77.77,0,0,0,.4-.53c0-.87.05-1.75,0-2.62a.77.77,0,0,0-.4-.52c-.89-.39-1.79-.75-2.7-1.09a1.49,1.49,0,0,1-.89-1c-.48-1.28-1-2.56-1.56-3.81a1.5,1.5,0,0,1-.06-1.38c.38-.86.74-1.75,1.13-2.61a.55.55,0,0,0-.13-.72c-.6-.57-1.19-1.16-1.77-1.76a.58.58,0,0,0-.77-.13c-.88.4-1.78.76-2.67,1.15a1.38,1.38,0,0,1-1.22-.06c-1.28-.57-2.58-1.12-3.9-1.62a1.46,1.46,0,0,1-.95-.86c-.34-.88-.71-1.76-1-2.65a.62.62,0,0,0-.67-.49c-.82,0-1.63,0-2.45,0a.59.59,0,0,0-.63.46c-.34.89-.71,1.76-1,2.65a1.48,1.48,0,0,1-1,.89c-1.3.49-2.58,1-3.85,1.6a1.42,1.42,0,0,1-1.27.07c-.87-.38-1.75-.73-2.62-1.13a.64.64,0,0,0-.82.12c-.56.58-1.12,1.14-1.69,1.69a.67.67,0,0,0-.16.87c.39.83.71,1.68,1.09,2.51a1.54,1.54,0,0,1-.05,1.43c-.57,1.23-1.1,2.48-1.56,3.75a1.57,1.57,0,0,1-1,1c-.87.33-1.73.7-2.6,1a.6.6,0,0,0-.45.64c0,.8,0,1.6,0,2.39a.67.67,0,0,0,.51.73c.87.32,1.72.7,2.6,1a1.53,1.53,0,0,1,.92,1c.48,1.28,1,2.55,1.58,3.79a1.49,1.49,0,0,1,.06,1.33c-.4.88-.78,1.77-1.13,2.68a.78.78,0,0,0,.1.65c.58.63,1.2,1.21,1.79,1.83a.57.57,0,0,0,.72.12c.89-.4,1.78-.76,2.67-1.16a1.48,1.48,0,0,1,1.28.06c1.27.57,2.55,1.1,3.85,1.6a1.49,1.49,0,0,1,1,.89c.33.87.7,1.72,1,2.6a.65.65,0,0,0,.71.52h2.33a.69.69,0,0,0,.76-.55c.31-.87.69-1.72,1-2.59a1.42,1.42,0,0,1,.94-.86c1.3-.5,2.59-1,3.86-1.6a1.49,1.49,0,0,1,1.33-.06c.86.38,1.74.75,2.61,1.12ZM25.07,4.25A50.65,50.65,0,0,0,13.71,5.32a19.48,19.48,0,0,0-6.1,2.2A7.69,7.69,0,0,0,5.86,8.93a1.77,1.77,0,0,0,0,2.57,4.32,4.32,0,0,0,1.07,1,22.87,22.87,0,0,0,2.78,1.44,33.58,33.58,0,0,0,9.46,2A50.44,50.44,0,0,0,35.4,15a17.23,17.23,0,0,0,6.15-2.51C43.6,11,43.62,9.38,41.5,8a16.81,16.81,0,0,0-3.59-1.75A41,41,0,0,0,25.07,4.25ZM5.31,13.81v.66c0,2.37,0,4.74,0,7.11a2.75,2.75,0,0,0,1.24,2.53,16.15,16.15,0,0,0,3,1.68c5.12,2,10.48,2.38,15.91,2.3a.77.77,0,0,0,.47-.24c.87-.88,1.71-1.79,2.6-2.66A2.09,2.09,0,0,1,31,24.8c.75.32,1.49.66,2.25.95a1,1,0,0,0,.69,0c1-.41,2.08-.84,3.1-1.3a1.12,1.12,0,0,0,.54-.51c.31-.67.58-1.35.83-2a2.33,2.33,0,0,1,2.39-1.68H43V13.87c-.61.37-1.15.74-1.73,1a31.62,31.62,0,0,1-11.24,2.95,52.81,52.81,0,0,1-13.47-.22C12.64,17.05,8.77,16.2,5.31,13.81Zm0,23.95v.48c0,2.41,0,4.82,0,7.22A2.66,2.66,0,0,0,6.51,48a20.51,20.51,0,0,0,3.68,1.93c4.64,1.68,9.48,2,14.37,2.12a1.74,1.74,0,0,0,2-1.32c.28-.78.49-1.42-.06-2.14a2.35,2.35,0,0,1-.44-1,3.11,3.11,0,0,0-2.65-2.62,2.56,2.56,0,0,1-2.13-2.84s0-.06-.07-.1c-1.19-.11-2.39-.19-3.58-.33a30.83,30.83,0,0,1-8.57-2C7.76,39.11,6.56,38.4,5.31,37.76Zm0-12c0,2.6.05,5.12,0,7.64a2.82,2.82,0,0,0,1.37,2.7,20.47,20.47,0,0,0,3.45,1.78,36,36,0,0,0,10.29,2c.28,0,.56,0,.88,0a2.48,2.48,0,0,1,2-2.7c.44-.14.85-.39,1.3-.51a1.31,1.31,0,0,0,1-1.09,3.57,3.57,0,0,1,.51-1.35,3.15,3.15,0,0,0-.05-3.78.62.62,0,0,0-.61-.39c-2,0-4,0-6.05-.21C14.51,29.44,9.65,28.62,5.31,25.77Z"/><path class="cls-1" d="M42.45,54A12.92,12.92,0,1,1,55,40.62,13,13,0,0,1,42.45,54ZM53,40.74A10.93,10.93,0,1,0,42.46,52,11,11,0,0,0,53,40.74Z"/><path class="cls-1" d="M10.25,20.66c0,.73-.52,1.22-1.12,1.07a5.08,5.08,0,0,1-1.44-.61A.85.85,0,0,1,7.36,20c.16-.42.49-.74.93-.63a7.06,7.06,0,0,1,1.68.71C10.15,20.22,10.2,20.54,10.25,20.66Z"/><path class="cls-1" d="M13.44,21a8.52,8.52,0,0,1,1.2.29.92.92,0,0,1,.57,1.14.94.94,0,0,1-1,.75,7.21,7.21,0,0,1-1.3-.3.9.9,0,0,1-.6-1.11C12.36,21.31,12.78,21,13.44,21Z"/><path class="cls-1" d="M34.15,41A7.95,7.95,0,1,1,42,49,7.94,7.94,0,0,1,34.15,41Zm2,.05a6,6,0,1,0,5.93-6A5.94,5.94,0,0,0,36.14,41.06Z"/></svg>