<svg id="Layer_1" data-name="Layer 1" xmlns="http://www.w3.org/2000/svg" viewBox="0 0 65 65"><defs><style>.cls-1{fill:#4dc0b3;}</style></defs><path class="cls-1" d="M35.37,46.9c-.14,1.42-.2,2.77-.42,4.09a19.34,19.34,0,0,1-.85,3.37,7.42,7.42,0,0,1-5.64,4.94,15.09,15.09,0,0,1-6.45.07,6.62,6.62,0,0,1-5.31-5c-.14-.5-.36-.61-.84-.6-3.07,0-6.13,0-9.2,0a2.72,2.72,0,0,1-3-3V24.64a2.73,2.73,0,0,1,3.08-3H8.82v-.72c0-2.05,0-4.09,0-6.13A4.78,4.78,0,0,1,13.7,9.83q17.84,0,35.69,0a4.78,4.78,0,0,1,4.86,5.1q0,10.45,0,20.91c0,2,0,4,0,5.95a4.82,4.82,0,0,1-5.1,5.11H35.37ZM21.25,25.6c2,.73,2.55,1.48,2.55,3.62v7.31a2.41,2.41,0,0,1,2.33.13,13.75,13.75,0,0,1,1.63,1.68c1.68-.48,2.57-.06,3.63,1.81a7.83,7.83,0,0,1,1.66-.07,2.79,2.79,0,0,1,2.28,2.73c0,.79,0,1.58,0,2.37.23,0,.35,0,.47,0,4.5,0,9,0,13.49,0a3.16,3.16,0,0,0,3.3-3.4q0-13.45,0-26.92a3.14,3.14,0,0,0-3.37-3.38H13.88a3.13,3.13,0,0,0-3.37,3.37c0,2,0,4.09,0,6.13,0,.18,0,.35.05.59h.7c2.39,0,4.78,0,7.17,0a2.67,2.67,0,0,1,2.82,2.8Zm-3,14v-.83q0-5,0-10a2.87,2.87,0,0,1,.87-2.27,1.2,1.2,0,0,0,.44-1.13c0-.22,0-.44,0-.67,0-1.11-.32-1.42-1.43-1.42H6.81c-1.17,0-1.45.28-1.45,1.44V50.66c0,1.13.3,1.43,1.41,1.43h8.77c.2,0,.39,0,.61,0C16,51,15.84,50,15.78,49a6.34,6.34,0,0,0-3.69-5.77,4.87,4.87,0,0,1-1.8-1.78,2.57,2.57,0,0,1,1.73-4,4.76,4.76,0,0,1,3.42.61C16.35,38.52,17.25,39,18.25,39.59Zm3.85-5.71V29.41c0-.33,0-.66,0-1A1.11,1.11,0,0,0,21,27.37a1.12,1.12,0,0,0-1,1,6.1,6.1,0,0,0,0,.74c0,3.86,0,7.72,0,11.58,0,1.06-.59,1.4-1.51.89-1.26-.69-2.48-1.43-3.76-2.06a5,5,0,0,0-1.86-.5,1.58,1.58,0,0,0-1.12.54.93.93,0,0,0,.25,1.27,8.35,8.35,0,0,0,1.68,1.29,7.09,7.09,0,0,1,3.7,5.53c.27,1.9.47,3.82.87,5.69A5.05,5.05,0,0,0,23,57.8a19.53,19.53,0,0,0,3.42.12c3.5-.15,5.58-1.8,6.49-5.17s.79-6.63.76-10a.51.51,0,0,0,0-.13,1.09,1.09,0,0,0-1-.92c-.59,0-.88.36-1.05.86-.07.19,0,.41-.11.6a.77.77,0,0,1-.87.61.8.8,0,0,1-.76-.76,4,4,0,0,1,0-.49c0-.51,0-1,0-1.53a1.16,1.16,0,0,0-1-1.14,1.1,1.1,0,0,0-1.12,1,2,2,0,0,0,0,.24.83.83,0,0,1-.87.84c-.48,0-.78-.38-.8-1s0-1.23,0-1.84A1.1,1.1,0,0,0,24.86,38a1.15,1.15,0,0,0-1.05,1.09c-.12.71-.42,1-.92,1s-.78-.42-.79-1.12Z"/><path class="cls-1" d="M57.68,50.77v-.86q0-18.54,0-37.1a3.46,3.46,0,0,1,.05-.79.76.76,0,0,1,.85-.64.79.79,0,0,1,.78.73,3.35,3.35,0,0,1,0,.55V51.17c0,1.07-.21,1.28-1.29,1.28H40.42c-.22,0-.51.06-.66-.05a1.55,1.55,0,0,1-.61-.79c-.1-.42.19-.73.64-.81a4.46,4.46,0,0,1,.73,0H57.68Z"/><path class="cls-1" d="M6,6.35v11A2.47,2.47,0,0,1,6,18a.79.79,0,0,1-.84.66.79.79,0,0,1-.8-.71,2,2,0,0,1,0-.49V5.86c0-1,.24-1.2,1.18-1.2H44.24a3.1,3.1,0,0,1,.43,0,.77.77,0,0,1,.71.78.76.76,0,0,1-.65.84,4.85,4.85,0,0,1-.85,0H6Z"/><path class="cls-1" d="M29.56,25.06H26c-.71,0-1-.3-1-1q0-3.64,0-7.29c0-.74.31-1,1.06-1h7.23c.79,0,1.08.28,1.08,1.07q0,3.59,0,7.17c0,.83-.29,1.09-1.12,1.1Zm-2.91-1.73h5.92V17.44H26.65Z"/><path class="cls-1" d="M42.75,38.3H38.52c-1,0-1.37-.6-.87-1.48Q39.8,33.07,42,29.34c.49-.85,1.2-.85,1.69,0Q45.84,33.1,48,36.87c.46.81.1,1.42-.83,1.43C45.69,38.31,44.22,38.3,42.75,38.3Zm3.14-1.72-3.08-5.32-3.07,5.32Z"/><path class="cls-1" d="M47.54,20.39a4.73,4.73,0,1,1-4.7-4.74A4.73,4.73,0,0,1,47.54,20.39Zm-1.68,0a3.05,3.05,0,1,0-3,3A3.09,3.09,0,0,0,45.86,20.41Z"/></svg>