<svg id="Layer_1" data-name="Layer 1" xmlns="http://www.w3.org/2000/svg" viewBox="0 0 65 65"><defs><style>.cls-1{fill:blue;}.cls-2{fill:#f3f945;}</style></defs><path class="cls-1" d="M26.6,34.53c1.14-2.82,2.63-4,5-3.86,2.06.09,3.65,1.46,4.41,3.87H48.88a4,4,0,0,1,4.23,4.22v2.71H60v9.7H53.11v2.66a4,4,0,0,1-4.29,4.3H44.4V56.25h2.07c.9,0,1.81,0,2.71,0a2,2,0,0,0,2-2c0-1,0-2,0-3.07H34.48V41.48H51.16c0-1.19.07-2.33,0-3.45a1.82,1.82,0,0,0-1.83-1.6H36.13a.35.35,0,0,0-.11,0c-1,2.52-2.54,3.72-4.71,3.72S27.72,39,26.62,36.42H19.19A4,4,0,0,1,15,32.23c0-1.25,0-2.5,0-3.81H6.5V18.68H15V17.41a3.81,3.81,0,0,1,3.5-4c2-.15,4.1,0,6.2,0v1.83c-.21,0-.41,0-.62,0H19.17a2.09,2.09,0,0,0-2.26,2.27v1.12h16.2v9.73H16.91v1.72c0,.77,0,1.53,0,2.3a2,2,0,0,0,1.94,2.1C21.44,34.56,24,34.53,26.6,34.53Zm4.64-13.94H8.39v5.89H31.24ZM58.1,43.4H36.35v5.85H58.1ZM31.33,32.55a2.88,2.88,0,0,0-2.88,2.87,2.88,2.88,0,1,0,5.75,0A2.85,2.85,0,0,0,31.33,32.55Z"/><path class="cls-2" d="M38.14,15.27H35.6V13.4h2.65A9.14,9.14,0,0,1,44.1,6.12a9.07,9.07,0,0,1,9.15,1.36,3,3,0,0,0,1.54-3.59h1.93V5.46h1.67v1.9c-.56,0-1.1,0-1.65,0a1.12,1.12,0,0,0-1,.39c-.34.38-.73.72-1.1,1.07,2.72,4,2.94,8-.13,11.85a8.6,8.6,0,0,1-9.46,3C40.9,22.54,38.72,19.57,38.14,15.27ZM51.89,8.9a7.29,7.29,0,0,0-9.83.8,7.38,7.38,0,0,0,10.7,10.18c3.06-3.21,2.3-7.7.54-9.54L51.65,12c1.34,2.66.87,5.19-1.27,6.77A5,5,0,0,1,43.29,12c1.5-2.25,4-2.76,6.93-1.45ZM47.51,16,46,14.59,48.8,12a3,3,0,0,0-3.95,1.07,3.07,3.07,0,0,0,.6,4A3.11,3.11,0,0,0,49.62,17c1-.94,1.24-2.82.46-3.63Z"/><path class="cls-2" d="M33.33,56.25V58.1l-.65,0c-1.5,0-3,0-4.52,0a.64.64,0,0,0-.73.47,3.84,3.84,0,1,1,0-2.88.77.77,0,0,0,.87.55c1.46,0,2.93,0,4.4,0Zm-9.44,2.89a2,2,0,0,0,0-3.9,2,2,0,1,0,0,3.9Z"/><path class="cls-2" d="M41.93,56.3v1.78H35.6V56.3Z"/><path class="cls-2" d="M33.32,15.25H27.19V13.42h6.13Z"/></svg>