<svg id="Layer_1" data-name="Layer 1" xmlns="http://www.w3.org/2000/svg" viewBox="0 0 65 65"><defs><style>.cls-1{fill:blue;}.cls-2{fill:#f3f945;}</style></defs><path class="cls-1" d="M50.78,42.23l.78-.44a3.29,3.29,0,1,1,3.28,5.69c-3.38,2-6.78,3.93-10.17,5.88-3.73,2.16-7.48,4.29-11.19,6.48a6.78,6.78,0,0,1-6.45.43C23,58.6,19,57,15,55.34l-.53-.2c0,.3,0,.54,0,.78a2.33,2.33,0,0,1-2.28,2.31c-1.7,0-3.41,0-5.11,0a2.26,2.26,0,0,1-2.26-2.31q0-7.32,0-14.65a2.31,2.31,0,0,1,2.36-2.34c1.55,0,3.1,0,4.65,0a2.42,2.42,0,0,1,2.64,2.62v.51a4.71,4.71,0,0,0,2.8-.5c.47-.24.92-.52,1.38-.78a7.76,7.76,0,0,1,8.1,0L27,41s0,0,.09,0c-.16-.52-.3-1-.48-1.55a.59.59,0,0,0-.38-.26C25.63,39,25,39,24.46,38.85A1.59,1.59,0,0,1,23,37.14V35.38a1.64,1.64,0,0,1,1.49-1.74c.53-.08,1-.18,1.57-.22a.55.55,0,0,0,.58-.52,2.29,2.29,0,0,1,.15-.51c.18-.36,0-.55-.26-.77-2.21-1.69-4.39-3.41-6.6-5.1a1.29,1.29,0,0,1-.55-1.15c0-4.86,0-9.73,0-14.59,0-.91.19-1.09,1.11-1.1.57,0,1.26.18,1.67-.08s.38-.95.57-1.45a6.17,6.17,0,1,1-.27,3.56c-.11-.55-.32-.67-.8-.62-.27,0-.54,0-.87,0v.65q0,6.55,0,13.12a1.09,1.09,0,0,0,.29.75c2,1.62,4.11,3.21,6.17,4.8a1.42,1.42,0,0,0,.22.13,7.23,7.23,0,0,0,.52-.93A.62.62,0,0,0,28,29.1c-.33-.49-.7-1-1-1.43a1.56,1.56,0,0,1,.17-2.18c.44-.47.9-.93,1.37-1.37a1.52,1.52,0,0,1,2-.17c.49.33,1,.68,1.43,1a.57.57,0,0,0,.72.07c1.05-.48,2.12-.91,3.19-1.32.29-.11.46-.21.48-.55.05-.55.15-1.09.24-1.63a1.61,1.61,0,0,1,1.7-1.46c.6,0,1.21,0,1.82,0a1.56,1.56,0,0,1,1.67,1.41c.11.58.16,1.17.3,1.74a.74.74,0,0,0,.4.45c1.08.48,2.18.93,3.29,1.37a.78.78,0,0,0,.6-.06c.48-.3.92-.67,1.39-1a1.57,1.57,0,0,1,2.18.13c.48.44.94.9,1.37,1.38a1.6,1.6,0,0,1,.16,2.1c-.17.26-.36.5-.55.76-.76,1-.76,1,0,2.18l2.78-2.16c1.18-.91,2.36-1.82,3.52-2.75a.92.92,0,0,0,.34-.61q0-6.82,0-13.64c0-.08,0-.16,0-.27H56a6.24,6.24,0,0,1-6.85,5.39,6.18,6.18,0,0,1,0-12.28A6.25,6.25,0,0,1,56,9.68h2c.71,0,.92.22.92.92,0,5,0,10,0,14.94a1.11,1.11,0,0,1-.53,1c-2.16,1.66-4.31,3.34-6.46,5-.24.19-.64.33-.43.77s0,1.16.89,1.14a7.42,7.42,0,0,1,1.39.21,1.65,1.65,0,0,1,1.55,1.75c0,.57,0,1.14,0,1.71a1.62,1.62,0,0,1-1.47,1.75c-.57.11-1.16.18-1.74.29a1.25,1.25,0,0,0-.37.21s0,0,0,.06ZM14.5,43.49a1.44,1.44,0,0,0-.05.24c0,3.18,0,6.35,0,9.53a.72.72,0,0,0,.41.5c4.3,1.78,8.62,3.52,12.92,5.29a5.11,5.11,0,0,0,4.73-.3q10.78-6.24,21.56-12.46a2.6,2.6,0,0,0,.67-.56A1.86,1.86,0,0,0,52.29,43q-4.77,2.73-9.52,5.48a1.6,1.6,0,0,0-.4.33,3.67,3.67,0,0,1-3,1.36H29.91c-.19,0-.45,0-.57-.07s-.49-.46-.47-.69.33-.46.56-.61.38,0,.58,0c3.08,0,6.15,0,9.23,0a3.37,3.37,0,0,0,1.26-.21,2,2,0,0,0-.8-3.87c-2.25,0-4.5,0-6.76,0-3.73,0-3.25.12-6.06-2A6.45,6.45,0,0,0,19,42.21,7.19,7.19,0,0,1,14.5,43.49ZM28,26.72c.5.68,1,1.38,1.52,2.07a.83.83,0,0,1,.05,1.08A11.32,11.32,0,0,0,27.85,34a.83.83,0,0,1-.79.73c-.57.07-1.13.14-1.69.25-1.07.22-.92-.07-.94,1.11,0,.31,0,.62,0,.94s.14.47.47.52c.68.08,1.35.22,2,.29a1,1,0,0,1,1,.91,12.4,12.4,0,0,0,1.51,3.74,1.48,1.48,0,0,0,1.43.8h2.53a2.33,2.33,0,0,0,.39-.06,8.85,8.85,0,0,1-.53-13.36,8.75,8.75,0,0,1,12.63.77,8.41,8.41,0,0,1,2,6.84,8.72,8.72,0,0,1-5.43,7l.81,2.13a.2.2,0,0,0,.11,0l5.22-3a3.58,3.58,0,0,1,.23-.84,12.1,12.1,0,0,0,1.72-4.15.8.8,0,0,1,.75-.71c.73-.09,1.47-.23,2.2-.33.32,0,.5-.16.49-.52s0-1,0-1.47c0-.31-.11-.45-.43-.49-.7-.08-1.39-.24-2.09-.31a1,1,0,0,1-.95-.86A10.58,10.58,0,0,0,48.86,30a1,1,0,0,1,.06-1.28c.44-.55.86-1.12,1.25-1.71a.58.58,0,0,0,0-.54c-.42-.52-.88-1-1.34-1.49-.8.59-1.49,1.07-2.15,1.59a1,1,0,0,1-1.23.05,14.44,14.44,0,0,0-3.15-1.4c-1.17-.27-1.72-.78-1.74-2,0-.56,0-1.34-.35-1.6s-1.13-.1-1.71-.11c0,0-.09,0-.12,0s-.4.24-.43.39c-.15.71-.26,1.43-.35,2.15a.92.92,0,0,1-.82.9,10.29,10.29,0,0,0-3.88,1.61,1,1,0,0,1-1.33-.07c-.64-.5-1.32-1-1.95-1.43Zm3.86,9.51a6.93,6.93,0,0,0,1.68,4.71,5.6,5.6,0,0,0,4.82,2.33,20.49,20.49,0,0,1,2.34.12,1.47,1.47,0,0,0,.51-.08,7.34,7.34,0,1,0-9.35-7.08ZM6.19,48.57c0,2.35,0,4.7,0,7.06,0,.88.32,1.2,1.2,1.21H11.8c.9,0,1.23-.35,1.23-1.26v-14c0-.9-.35-1.25-1.25-1.25-1.43,0-2.86,0-4.29,0-1,0-1.3.3-1.3,1.29C6.18,43.94,6.19,46.26,6.19,48.57ZM23.74,10.38a4.76,4.76,0,1,0,4.75-4.75A4.78,4.78,0,0,0,23.74,10.38Zm21.37,0a4.76,4.76,0,1,0,4.74-4.75A4.76,4.76,0,0,0,45.11,10.38Z"/><path class="cls-2" d="M27.72,11c.76-.78,1.45-1.49,2.15-2.19a5.4,5.4,0,0,1,.42-.41.68.68,0,0,1,1,0,.64.64,0,0,1,0,1c-.51.54-1,1.06-1.57,1.58s-.9.92-1.37,1.37a.73.73,0,0,1-1.17,0c-.48-.45-.95-.93-1.41-1.41a.65.65,0,0,1-.05-1,.67.67,0,0,1,1,0C27.06,10.24,27.35,10.58,27.72,11Z"/><path class="cls-2" d="M49,10.4,47.48,9a.7.7,0,0,1-.12-1.08c.28-.33.73-.3,1.12.09s.86.91,1.37,1.45L51.2,8.06c.33-.36.71-.51,1.13-.16s.29.72-.15,1.16-.86.85-1.41,1.38c.52.47,1,.89,1.46,1.33a.72.72,0,0,1,.13,1.09c-.29.33-.73.29-1.13-.1s-.87-.9-1.42-1.47l-1.29,1.44c-.33.36-.71.51-1.13.16s-.31-.71.14-1.16S48.41,10.9,49,10.4Z"/></svg>