<svg id="Layer_1" data-name="Layer 1" xmlns="http://www.w3.org/2000/svg" viewBox="0 0 65 65"><defs><style>.cls-1{fill:#190f2d;}</style></defs><path class="cls-1" d="M2.78,8.93A2.85,2.85,0,0,1,6,6.91c1.09,0,2.18,0,3.27,0,.7,0,1.11.34,1.11.89s-.4.89-1.09.89c-1.23,0-2.46,0-3.68,0-.79,0-1,.25-1,1V45.9c0,.84.24,1,1.2,1H52.37c.65,0,1,.36,1,.91a.89.89,0,0,1-1,.87h-5.2v1.41c0,1.86-.72,2.58-2.59,2.58H36.25c.13.27.22.46.32.65l3.64,7.13c.1.19.28.41.25.59a1.68,1.68,0,0,1-.4,1A.73.73,0,0,1,39,61.9a3,3,0,0,1-.37-.6c-1.38-2.69-2.77-5.38-4.13-8.08a.82.82,0,0,0-.86-.52q-4.34,0-8.67,0a.82.82,0,0,0-.86.52c-1.36,2.7-2.75,5.39-4.13,8.08a3.57,3.57,0,0,1-.29.51.81.81,0,0,1-1.11.26.79.79,0,0,1-.43-1,3.32,3.32,0,0,1,.25-.54L22,53.36c.09-.17.17-.35.3-.62l-.67,0H14c-1.79,0-2.51-.73-2.51-2.53V48.72h-.65c-1.6,0-3.2,0-4.8,0a2.85,2.85,0,0,1-3.21-2ZM45.4,48.76H13.22v1.29c0,.88,0,.88.87.88H44.91c.35,0,.5-.15.49-.51C45.39,49.89,45.4,49.36,45.4,48.76Z"/><path class="cls-1" d="M49.31,19.33A11.59,11.59,0,0,1,61,29.36a11.14,11.14,0,0,1-2.35,8.75c-.64.83-.66.81-.13,1.74Q60.77,43.68,63,47.5a3.39,3.39,0,1,1-5.63,3.76c-.58-.9-1.08-1.84-1.62-2.77l-3.31-5.75a.58.58,0,0,0-.74-.35,11.63,11.63,0,0,1-5.6-22.53,15.65,15.65,0,0,1,2-.45A11.79,11.79,0,0,1,49.31,19.33Zm.18,1.78a9.86,9.86,0,1,0,9.88,9.71A9.84,9.84,0,0,0,49.49,21.11Zm7.2,19.09-2.75,1.59c.06.12.12.25.19.37l4.56,7.9a1.63,1.63,0,0,0,1.79,1,1.61,1.61,0,0,0,1-2.55c-1.38-2.41-2.78-4.82-4.17-7.23Z"/><path class="cls-1" d="M19.09,24.23c1-.55,1.95-1.08,2.89-1.66a.93.93,0,0,0,.27-.67A2.9,2.9,0,0,1,24,19.09a2.79,2.79,0,0,1,3.2.5,2.68,2.68,0,0,1,1,2.32.71.71,0,0,0,.45.78c.92.5,1.82,1,2.75,1.54a3.2,3.2,0,0,1,2.72-.71.6.6,0,0,0,.46-.25c1.49-2.06,3-4.11,4.42-6.19a.8.8,0,0,0,0-.66,3,3,0,0,1,.33-3.29,2.94,2.94,0,0,1,5.22,1.6,2.94,2.94,0,0,1-3.41,3.18.65.65,0,0,0-.76.33q-2.13,3-4.28,6A.6.6,0,0,0,36,25a2.89,2.89,0,0,1-.41,3.41,3,3,0,0,1-3.26.75,2.88,2.88,0,0,1-1.86-2.83.8.8,0,0,0-.5-.87c-.77-.4-1.53-.84-2.28-1.28a.62.62,0,0,0-.79,0,2.79,2.79,0,0,1-3.33,0,.62.62,0,0,0-.79,0c-.73.43-1.46.86-2.22,1.25a.9.9,0,0,0-.56,1,2.9,2.9,0,0,1-2.6,3,3,3,0,0,1-1.18-5.78A3.13,3.13,0,0,1,19.09,24.23ZM25.23,23a1.19,1.19,0,0,0,1.16-1.19,1.18,1.18,0,0,0-2.35,0A1.2,1.2,0,0,0,25.23,23Zm15.18-8a1.17,1.17,0,0,0,1.13,1.21,1.18,1.18,0,0,0,.06-2.35A1.17,1.17,0,0,0,40.41,15Zm-7,12.63a1.2,1.2,0,0,0,1.18-1.17,1.21,1.21,0,0,0-1.17-1.18,1.2,1.2,0,0,0-1.18,1.17A1.18,1.18,0,0,0,33.39,27.59ZM18.22,26.44a1.22,1.22,0,0,0-1.16-1.2,1.24,1.24,0,0,0-1.2,1.16A1.19,1.19,0,0,0,17,27.58,1.18,1.18,0,0,0,18.22,26.44Z"/><path class="cls-1" d="M24.38,6.92c0-.68,0-1.25,0-1.82A2.11,2.11,0,0,1,26.44,3c1.9,0,3.8,0,5.7,0a2.16,2.16,0,0,1,2.1,2.21c0,.56,0,1.11,0,1.74h18.6c2,0,3,1,3,3,0,2.52,0,5,0,7.54a2.4,2.4,0,0,1-.09.76.72.72,0,0,1-.91.56A1.89,1.89,0,0,1,54.1,18c-.1-.13,0-.38,0-.58V9.86c0-.93-.23-1.16-1.16-1.16H13.65c-.21,0-.43,0-.65,0a.85.85,0,0,1-.82-.86A.83.83,0,0,1,12.92,7a2.81,2.81,0,0,1,.65,0H24.38Zm8.09,0a12.74,12.74,0,0,0,0-1.65.71.71,0,0,0-.5-.49c-1.75,0-3.51,0-5.27,0a.7.7,0,0,0-.49.44,16.2,16.2,0,0,0,0,1.71Z"/><path class="cls-1" d="M22.51,36.49V30.67c0-1,.3-1.28,1.27-1.29h3c.83,0,1.17.33,1.17,1.15q0,6,0,11.94c0,.79-.34,1.12-1.12,1.13H23.65c-.81,0-1.13-.34-1.14-1.17Zm1.83-5.3V41.78H26.1V31.19Z"/><path class="cls-1" d="M36.09,38.74c0,1.23,0,2.46,0,3.68,0,.87-.32,1.18-1.19,1.18H31.82c-.79,0-1.13-.34-1.13-1.12q0-3.72,0-7.42c0-.79.32-1.1,1.13-1.11,1,0,2.1,0,3.14,0,.82,0,1.12.3,1.13,1.11C36.1,36.29,36.09,37.52,36.09,38.74Zm-3.57-3v6h1.74v-6Z"/><path class="cls-1" d="M14.34,38.68c0-1.16,0-2.33,0-3.5,0-1,.29-1.23,1.25-1.23s2,0,3,0,1.19.31,1.2,1.17v7.3c0,.86-.33,1.18-1.19,1.18H15.47c-.79,0-1.12-.32-1.13-1.12C14.33,41.22,14.34,40,14.34,38.68Zm3.6,3.11v-6H16.16v6Z"/><path class="cls-1" d="M40.65,41.82h2.52c.69,0,1.08.35,1.07.9s-.39.87-1.05.88c-1.08,0-2.17,0-3.26,0-.72,0-1-.34-1-1.06s0-1.54,0-2.31c0-.62.33-1,.84-1s.91.36.93,1S40.65,41.24,40.65,41.82Z"/><path class="cls-1" d="M49.16,22.51a8.83,8.83,0,0,1,5.29,1.6.92.92,0,0,1,.35,1.32.88.88,0,0,1-1.31.16,6.93,6.93,0,0,0-4.12-1.3,6.67,6.67,0,1,0,6.4,4.43c-.08-.22-.17-.44-.23-.67a.88.88,0,0,1,.51-1.12.86.86,0,0,1,1.13.49,7.72,7.72,0,0,1,.77,4A8.44,8.44,0,1,1,47.4,22.8,11.67,11.67,0,0,1,49.16,22.51Z"/></svg>