<svg id="Layer_1" data-name="Layer 1" xmlns="http://www.w3.org/2000/svg" viewBox="0 0 65 65"><defs><style>.cls-1{fill:#4dc0b3;}</style></defs><path class="cls-1" d="M27.51,37.58H25.83a3.6,3.6,0,0,0-3.73,3.71c0,1.38,0,2.76,0,4.15,0,.71-.33,1.12-.89,1.13s-.91-.41-.9-1.11a48.43,48.43,0,0,1,.13-5.26,5.21,5.21,0,0,1,5-4.4,1.17,1.17,0,0,1,.68.26c.5.43,1,.92,1.45,1.38Z"/><path class="cls-1" d="M31.1,11.48a1.35,1.35,0,1,1,1.33,1.37A1.36,1.36,0,0,1,31.1,11.48Z"/><path class="cls-1" d="M10.88,31.92l1.17,1.14-1.18,1.21L9.68,33.11Z"/><path class="cls-1" d="M3.67,32.18a8.74,8.74,0,0,1,1.22-3.1,7.11,7.11,0,0,1,5.33-3.15.63.63,0,0,0,.63-.47,22.72,22.72,0,0,1,14-14,.58.58,0,0,0,.45-.59,7.18,7.18,0,0,1,14.31-.05.68.68,0,0,0,.53.65A22.77,22.77,0,0,1,54,25.41a.66.66,0,0,0,.65.52,7.19,7.19,0,0,1,6.43,5.84,7.1,7.1,0,0,1-4,7.76,18.23,18.23,0,0,1-2.58.74.8.8,0,0,0-.49.38A23,23,0,0,1,40,54.72a.74.74,0,0,0-.4.48,7.21,7.21,0,0,1-6.14,6.58.55.55,0,0,0-.15.08h-1.8a.39.39,0,0,0-.14-.08,7.17,7.17,0,0,1-6.12-6.58c0-.34-.21-.42-.46-.52a22.75,22.75,0,0,1-14-14,.59.59,0,0,0-.58-.47A6.78,6.78,0,0,1,4.89,37a18,18,0,0,1-1.22-3Zm35.81-19c-1,3.28-3.16,5.31-6.56,5.49-3.87.22-6.31-1.85-7.53-5.49A21.45,21.45,0,0,0,12.51,26c3.6,1.44,5.42,3.54,5.52,6.57.11,3.87-1.88,6.31-5.52,7.53A21.47,21.47,0,0,0,25.41,53c1-3.29,3.16-5.31,6.56-5.5,3.87-.21,6.3,1.86,7.53,5.5a21.49,21.49,0,0,0,12.88-12.9c-3.28-1-5.31-3.16-5.5-6.56-.21-3.87,1.86-6.3,5.5-7.53A21.49,21.49,0,0,0,39.48,13.15ZM29.3,11.49a3.15,3.15,0,1,0,3.16-3.13A3.16,3.16,0,0,0,29.3,11.49ZM54,35.78h1.74a.91.91,0,0,0,1-1q0-1.71,0-3.42a.89.89,0,0,0-1-1c-1.15,0-2.29,0-3.43,0a.89.89,0,0,0-1,1c0,1.14,0,2.29,0,3.43a.9.9,0,0,0,1,1ZM10.86,29.55a5.42,5.42,0,0,0-.73.46q-1.19,1.15-2.34,2.34a.91.91,0,0,0,0,1.47c.77.78,1.55,1.57,2.34,2.34a.91.91,0,0,0,1.46,0c.79-.77,1.58-1.55,2.35-2.34a.92.92,0,0,0,0-1.47c-.77-.79-1.55-1.57-2.35-2.34A4.39,4.39,0,0,0,10.86,29.55ZM33.62,54.66c.29-.24.47-.38.63-.53s.32-.32.48-.48c.49-.51.54-1,.13-1.43s-.9-.32-1.39.15l-1.08,1.07c-.2-.24-.33-.42-.49-.58s-.31-.33-.47-.48c-.51-.49-1-.54-1.43-.13s-.33.9.14,1.39l1.07,1.07c-.39.36-.73.65-1.05,1-.5.5-.54,1-.13,1.42s.89.34,1.38-.13.69-.67,1.1-1.07c.18.23.32.41.47.57l.52.52a.9.9,0,1,0,1.28-1.25C34.44,55.39,34.07,55.08,33.62,54.66Z"/><path class="cls-1" d="M25.17,28.3a23,23,0,0,1,.3-3.34A5.75,5.75,0,0,1,31,20.51a21.12,21.12,0,0,1,4,.16,5.56,5.56,0,0,1,4.54,5.07,35.35,35.35,0,0,1-.05,5.54A4.56,4.56,0,0,1,38,34.23c-.66.64-1.29,1.31-2,2a5.27,5.27,0,0,1-7.26,0c-.65-.63-1.26-1.28-1.91-1.91a5.49,5.49,0,0,1-1.64-3.88c0-.69,0-1.38,0-2.08Z"/><path class="cls-1" d="M37.29,37.43c.51-.49,1-1,1.55-1.46a1,1,0,0,1,.6-.17,5.37,5.37,0,0,1,5.13,5.12c0,1.55,0,3.11,0,4.66a.9.9,0,0,1-.91,1,.91.91,0,0,1-.88-1c0-1.4,0-2.8,0-4.2a3.6,3.6,0,0,0-3.73-3.76H37.38Z"/><path class="cls-1" d="M54.88,34H53.17V32.22h1.71Z"/></svg>