<svg id="Layer_1" data-name="Layer 1" xmlns="http://www.w3.org/2000/svg" viewBox="0 0 65 65"><defs><style>.cls-1{fill:#4dc0b3;}</style></defs><path class="cls-1" d="M15.31,22.93H11.88c-.47,0-1,0-1.43,0a.78.78,0,1,1,0-1.56c.43,0,.86,0,1.29,0,1.06,0,2.12,0,3.18,0,.36,0,.73,0,1,0,.85-1.07,1.62-2.18,2.53-3.17a18.48,18.48,0,0,1,12.13-6,19.06,19.06,0,0,1,6,37.58A18.66,18.66,0,0,1,18.9,44.67a.8.8,0,0,1-.25-1.06c.27-.48.81-.5,1.29-.1A31.41,31.41,0,0,0,23,46a17.52,17.52,0,1,0-6-23.1c-.45.85-.81,1.75-1.22,2.62-.26.55-.65.74-1.09.55s-.58-.66-.31-1.22S15,23.63,15.31,22.93Z"/><path class="cls-1" d="M31.66,24.86V18.92a4.35,4.35,0,0,1,0-.51.76.76,0,0,1,1.51,0,5.06,5.06,0,0,1,0,.55q0,5.69,0,11.37a1,1,0,0,0,.41.84c1.57,1.25,3.13,2.53,4.69,3.79.12.1.24.19.35.3a.76.76,0,0,1,.05,1,.78.78,0,0,1-1,.14c-.31-.22-.6-.48-.9-.72-1.52-1.24-3-2.48-4.58-3.7a1.26,1.26,0,0,1-.52-1.1C31.67,28.91,31.66,26.88,31.66,24.86Z"/><path class="cls-1" d="M14.89,31.37c.06.75.1,1.42.18,2.09s-.19,1-.7,1-.77-.26-.85-.82q-.07-.57-.12-1.14c0-.37,0-.74-.06-1.15l-.49,0H6.68c-.59,0-.94-.31-.94-.78s.35-.77.94-.77c3.37,0,6.73,0,10.09,0,1.38,0,2.76,0,4.14,0,.61,0,.95.27,1,.75s-.34.8-1,.8h-6Z"/><path class="cls-1" d="M20.27,39.7H16.12c-.61,0-.93-.27-.93-.77s.34-.78.94-.78h8.33c.59,0,.95.32.95.78s-.37.77-.95.77Z"/><path class="cls-1" d="M10.83,39.7c-.24,0-.49,0-.73,0a.73.73,0,0,1-.71-.7.71.71,0,0,1,.61-.8,10.11,10.11,0,0,1,1.74,0,.72.72,0,0,1,.6.8.76.76,0,0,1-.72.71Z"/><path class="cls-1" d="M46.86,30.45a.77.77,0,1,1-.87.74A.78.78,0,0,1,46.86,30.45Z"/><path class="cls-1" d="M33.21,45.12a.78.78,0,0,1-.76.86.77.77,0,0,1-.79-.83.78.78,0,1,1,1.55,0Z"/></svg>