<svg id="Layer_1" data-name="Layer 1" xmlns="http://www.w3.org/2000/svg" viewBox="0 0 65 65"><defs><style>.cls-1{fill:#4dc0b3;}</style></defs><path class="cls-1" d="M33,59.32H5c-1.6,0-1.89-.28-1.89-1.85V6.08c0-1.55.29-1.84,1.83-1.84H61.25c1.53,0,1.81.29,1.81,1.85V57.48c0,1.54-.29,1.84-1.82,1.84ZM25.36,35.19a.75.75,0,0,0,.1.16c2.66,3.52,5.31,7,8,10.54a1.11,1.11,0,0,0,.8.33c1.46,0,2.92,0,4.38,0a.71.71,0,0,0,.79-.54A4.65,4.65,0,0,1,44,42.64c3.51,0,7,0,10.53,0a4.79,4.79,0,1,1,.15,9.58c-3.63.06-7.27,0-10.9,0a4.48,4.48,0,0,1-3.82-2.08,14.44,14.44,0,0,1-.79-1.52c-1.83,0-3.68,0-5.53,0a2,2,0,0,1-1.84-.91C28.93,44,26.05,40.25,23.2,36.51a1,1,0,0,0-1.1-.43,11.71,11.71,0,0,1-10.77-3.52,12,12,0,0,1-.67-15.78c.12-.14.22-.29.38-.5H5.6v40.6h55V16.29H29a1.11,1.11,0,0,0,.14.26,12.3,12.3,0,0,1,2.69,6.06c.06.41.26.5.64.5,2.07,0,4.15,0,6.22,0a.67.67,0,0,0,.74-.5A4.7,4.7,0,0,1,44,19.5q5.19,0,10.38,0a4.79,4.79,0,1,1,.07,9.57c-3.56,0-7.12.05-10.67,0A4.51,4.51,0,0,1,39.35,26a.71.71,0,0,0-.81-.51c-1.58,0-3.17,0-4.75,0H32.05L30.33,30.6c.93,1.15,2,2.47,3.1,3.77a1,1,0,0,0,.64.24c1.56,0,3.12,0,4.68,0a.84.84,0,0,0,.62-.43A4.85,4.85,0,0,1,44.18,31H54.34a5.71,5.71,0,0,1,1.17.08,4.78,4.78,0,0,1-.66,9.44c-3.8.07-7.6.08-11.4,0a4.33,4.33,0,0,1-4.07-3,.79.79,0,0,0-.9-.59c-1.56,0-3.12,0-4.68,0a2.25,2.25,0,0,1-2.11-1c-.92-1.24-1.93-2.42-2.84-3.55ZM5.6,13.77l.38,0c2.63,0,5.26,0,7.9,0a2.07,2.07,0,0,0,.82-.23,11.87,11.87,0,0,1,10.57,0,2.69,2.69,0,0,0,1.11.26c8,0,15.93,0,23.9,0H51V6.68H5.55v6.71C5.56,13.5,5.58,13.62,5.6,13.77Zm8.94,11.49a5.7,5.7,0,0,1-.22-4.35,6,6,0,1,1,11.2,4.15c-.06.17-.11.49,0,.57A9,9,0,0,1,28,29.45a9.53,9.53,0,0,0-1.7-12.38,9.65,9.65,0,0,0-12.86.2c-3.79,3.56-3.72,9-1.59,12ZM49.15,49.75c1.8,0,3.61,0,5.41,0a2.4,2.4,0,1,0,0-4.79c-3.56,0-7.11,0-10.67,0A2.4,2.4,0,1,0,44,49.75Zm.08-11.54h5.18a2.4,2.4,0,1,0,.09-4.79q-5.26,0-10.51,0a2.4,2.4,0,1,0,.06,4.79Zm0-11.53h4.82a4.92,4.92,0,0,0,1.15-.09,2.39,2.39,0,0,0-.67-4.69c-3.53,0-7,0-10.58,0a2.39,2.39,0,1,0,.09,4.78C45.79,26.69,47.52,26.68,49.25,26.68Zm-33.08.71a5.64,5.64,0,0,0-1.94,3c-.4,1.43-.38,1.47.91,2.15l.39.21c3.32,1.68,6.59,1.24,9.83-.28A1,1,0,0,0,26,31.35a6,6,0,0,0-2.13-4A6.19,6.19,0,0,1,16.17,27.39Zm.24-4.71A3.59,3.59,0,1,0,20,19.13,3.53,3.53,0,0,0,16.41,22.68Zm37.08-8.93h7.12V6.67H53.49Z"/><path class="cls-1" d="M24.8,44.54a12.26,12.26,0,0,1-.92,1.67,15.2,15.2,0,0,1-1.65,1.66A1,1,0,0,0,21.89,49a22.59,22.59,0,0,1,.41,2.44,2.21,2.21,0,0,1-3.25,2.31,22.67,22.67,0,0,1-2.13-1.12,1,1,0,0,0-1.21,0c-.67.39-1.37.73-2.06,1.1a2.11,2.11,0,0,1-2.4-.15,2.25,2.25,0,0,1-.9-2.32c.14-.81.31-1.63.4-2.45a1.11,1.11,0,0,0-.26-.8c-.58-.66-1.24-1.24-1.84-1.88a2.24,2.24,0,0,1,1.16-3.8,24.26,24.26,0,0,1,2.67-.41.89.89,0,0,0,.81-.6c.33-.73.69-1.45,1.05-2.16a2.23,2.23,0,0,1,2.08-1.36,2.17,2.17,0,0,1,2.06,1.38c.33.71.7,1.39,1,2.1a.9.9,0,0,0,.85.64c.83.07,1.64.23,2.46.37A2.36,2.36,0,0,1,24.8,44.54Zm-14.14,0c.63.61,1.14,1.16,1.7,1.65a2.75,2.75,0,0,1,1,3c-.18.68-.27,1.39-.42,2.22.85-.45,1.57-.79,2.26-1.2a2.43,2.43,0,0,1,2.63,0c.71.39,1.43.76,2.27,1.21-.17-1-.31-1.83-.47-2.66a2.33,2.33,0,0,1,.57-2.1,17,17,0,0,1,1.4-1.28c.28-.25.59-.46.89-.68A13.09,13.09,0,0,0,20,44.2a2.61,2.61,0,0,1-2.26-1.61c-.32-.75-.72-1.47-1.14-2.32-.43.86-.81,1.58-1.14,2.33a2.53,2.53,0,0,1-2.17,1.6C12.43,44.29,11.62,44.44,10.66,44.58Z"/><path class="cls-1" d="M55.29,10.21c-1.19-1.35-1.36-1.89-.81-2.49s1.22-.46,2.58.71c.66-.69,1.31-1.7,2.41-.69.6.54.39,1.1-.78,2.49.61.74,1.71,1.4.72,2.55-.53.61-1,.44-2.43-.79-.73.51-1.32,1.82-2.49.71C53.89,12.13,54.09,11.6,55.29,10.21Z"/></svg>