<svg id="Layer_1" data-name="Layer 1" xmlns="http://www.w3.org/2000/svg" viewBox="0 0 65 65"><defs><style>.cls-1{fill:#4dc0b3;}</style></defs><path class="cls-1" d="M63.1,12.29v41.1c0,.15-.09.3-.12.46a11.31,11.31,0,0,1-7.77,9.32,23,23,0,0,1-2.51.61H11.61a2.62,2.62,0,0,0-.4-.11,11.46,11.46,0,0,1-10-11.27q0-19.55,0-39.1A11.45,11.45,0,0,1,12.63,1.9q19.52,0,39,0a11.47,11.47,0,0,1,11,8.45C62.85,11,63,11.64,63.1,12.29ZM58.83,32.84q0-9.59,0-19.16a7.26,7.26,0,0,0-7.5-7.52H13a7.26,7.26,0,0,0-7.48,7.49V52A7.28,7.28,0,0,0,13,59.52q19.21,0,38.43,0a8,8,0,0,0,2.43-.37,7.19,7.19,0,0,0,5-7.07Q58.85,42.44,58.83,32.84Z"/><path class="cls-1" d="M25.41,44.93a2.13,2.13,0,0,1-2.17-2.25,20.34,20.34,0,0,0-.68-5.44c-1.31-4.65-4.5-7.19-9.15-8a32.55,32.55,0,0,0-4-.36,2.19,2.19,0,0,1-2.28-2.15,2.16,2.16,0,0,1,2.3-2.12,20.77,20.77,0,0,0,5.66-.77c4.4-1.33,6.87-4.38,7.7-8.81a38.52,38.52,0,0,0,.4-4.32A2.22,2.22,0,0,1,25,8.55,2.08,2.08,0,0,1,27.36,9.9a3.92,3.92,0,0,1,.17,1.18,19.73,19.73,0,0,0,.69,5.19c1.34,4.65,4.55,7.17,9.19,8a35,35,0,0,0,4,.35,2.19,2.19,0,0,1,2.22,2.15,2.14,2.14,0,0,1-2.24,2.12,19.82,19.82,0,0,0-6.07.88c-4.19,1.39-6.53,4.39-7.34,8.64a36.34,36.34,0,0,0-.41,4.31A2.18,2.18,0,0,1,25.41,44.93ZM25.3,32.64A40.19,40.19,0,0,1,28,29.31a37.28,37.28,0,0,1,3.32-2.67,14.25,14.25,0,0,1-5.91-5.95c-2,3.15-2.19,3.37-6,6.06A14.23,14.23,0,0,1,25.3,32.64Z"/><path class="cls-1" d="M32.5,45.37a2.13,2.13,0,0,1,2-2.15,24.26,24.26,0,0,0,2.82-.28,5.85,5.85,0,0,0,4.95-5.28c.12-.74.14-1.49.19-2.23a2.19,2.19,0,0,1,2.16-2.22,2.22,2.22,0,0,1,2.14,2.31,18.16,18.16,0,0,0,.34,2.86,5.71,5.71,0,0,0,5,4.6,22.51,22.51,0,0,0,2.46.24,2.14,2.14,0,1,1,0,4.27,20.25,20.25,0,0,0-2.7.28,5.91,5.91,0,0,0-5,5.58c-.08.64-.11,1.28-.14,1.93a2.17,2.17,0,0,1-2.1,2.21,2.14,2.14,0,0,1-2.18-2.12c-.09-.92-.12-1.85-.3-2.75a5.76,5.76,0,0,0-5.11-4.9c-.86-.14-1.72-.18-2.59-.24A2.12,2.12,0,0,1,32.5,45.37Zm12.1-1.89-1.84,1.88,1.86,1.86,1.86-1.86Z"/></svg>