<svg id="Layer_1" data-name="Layer 1" xmlns="http://www.w3.org/2000/svg" viewBox="0 0 65 65"><defs><style>.cls-1{fill:#4dc0b3;}</style></defs><path class="cls-1" d="M38.53,19.07V12.61c-.67,0-1.32,0-2,0a1.43,1.43,0,0,1-1.48-.72,1.46,1.46,0,0,1,.27-1.63l5.1-7.18C41.24,2,42.19,2,43,3.06c1.71,2.41,3.42,4.83,5.14,7.23a1.37,1.37,0,0,1-1.22,2.32c-.64,0-1.28,0-2,0V19h6.42c0-.68,0-1.36,0-2a1.37,1.37,0,0,1,.71-1.37,1.4,1.4,0,0,1,1.58.21L61,21a1.36,1.36,0,0,1,0,2.44l-7.32,5.21a1.37,1.37,0,0,1-2.29-1.22c0-.66,0-1.32,0-2H44.9v.69c0,4.64,0,9.28,0,13.92A21.22,21.22,0,0,1,28.39,60.93,20.62,20.62,0,0,1,11.2,57.35,1.42,1.42,0,0,1,11,55l2.24-2.24a1.46,1.46,0,0,1,2.19-.19A14.73,14.73,0,0,0,34.53,50.4a14.12,14.12,0,0,0,4-9.64c.09-5,0-10,0-15a2,2,0,0,0,0-.27,5.44,5.44,0,0,0-.57,0c-4.68,0-9.36,0-14,0A14.81,14.81,0,0,0,9.16,37.37a14.37,14.37,0,0,0,2.16,11.05C12,49.5,12,50,11.09,50.88,10.4,51.57,9.71,52.27,9,53a1.43,1.43,0,0,1-2.39-.19A21.21,21.21,0,0,1,24,19.07c4.6,0,9.2,0,13.8,0Zm-26.22,37,.33.26c6.67,4.31,13.61,4.78,20.54.93,6.66-3.7,10-9.63,10.06-17.26.07-9.3,0-18.6,0-27.9,0-.93.25-1.18,1.18-1.18h2.15L41.72,4.13,36.86,11h2c1.09,0,1.31.22,1.31,1.3q0,13.86,0,27.72a18.52,18.52,0,0,1-.2,2.69A16.46,16.46,0,0,1,17.38,55.48c-1-.43-2-1-2.94-1.49ZM10,49.48,9.76,49a16,16,0,0,1-2-12.9A16.49,16.49,0,0,1,23.89,23.77c4.64,0,9.27,0,13.91,0h.71V20.71H23.91a20.26,20.26,0,0,0-7.72,1.51,19.56,19.56,0,0,0-8.63,29c.11.15.23.29.3.38Zm49.8-27.23L53,17.39v2.1c0,1-.24,1.22-1.2,1.22H44.94v3.06h6.9c.89,0,1.16.27,1.16,1.16v2.15l.34-.21Z"/><path class="cls-1" d="M34.36,33.28a15.12,15.12,0,0,1-.76,1.35.77.77,0,0,0-.09,1,.78.78,0,0,1,.09.21,1.83,1.83,0,0,0,1.8,1.62,1.22,1.22,0,0,1,1.07,1.34c0,1,0,2,0,3a1.24,1.24,0,0,1-1.15,1.39,1.85,1.85,0,0,0-1.69,1.45,1.47,1.47,0,0,0,.17,1.64,1.43,1.43,0,0,1-.19,2.22c-.61.61-1.21,1.23-1.83,1.83a1.43,1.43,0,0,1-2,.2c-.32-.2-.7-.56-1-.5a7.66,7.66,0,0,0-1.85.73c-.13.07-.17.38-.21.58-.3,1.53-.58,1.77-2.15,1.77H22.34a1.42,1.42,0,0,1-1.56-1.28c-.09-.37-.1-.9-.35-1.06a8.68,8.68,0,0,0-1.82-.78c-.1,0-.26.07-.37.13s-.48.33-.74.48a1.34,1.34,0,0,1-1.77-.17c-.72-.69-1.43-1.4-2.12-2.12a1.4,1.4,0,0,1-.11-1.92c.2-.31.57-.68.51-.94a7.2,7.2,0,0,0-.76-1.9c-.08-.15-.44-.19-.68-.23-1.35-.26-1.65-.61-1.65-2,0-.8,0-1.61,0-2.41a1.41,1.41,0,0,1,1.29-1.55c.35-.08.88-.07,1-.3a10.12,10.12,0,0,0,.8-1.88c0-.1-.07-.25-.14-.37s-.31-.45-.45-.68a1.38,1.38,0,0,1,.19-1.87c.65-.67,1.32-1.34,2-2a1.42,1.42,0,0,1,2-.19c.31.2.67.57.94.52a7.37,7.37,0,0,0,1.89-.77c.16-.08.19-.44.24-.69.26-1.35.59-1.64,1.95-1.64h2.47a1.27,1.27,0,0,1,1.45,1.21,1.75,1.75,0,0,0,1.33,1.59,1.59,1.59,0,0,0,1.8-.17,1.39,1.39,0,0,1,2.13.19c.64.64,1.29,1.26,1.9,1.92A6.64,6.64,0,0,1,34.36,33.28Zm-21.8,8.3c.41.08.73.18,1.06.21a1.25,1.25,0,0,1,1.14.94c.28.79.68,1.54.93,2.34a1.77,1.77,0,0,1-.11,1.08,7,7,0,0,1-.71,1.14c.35.32.69.59,1,.9s.52.68.78,1a5.48,5.48,0,0,1,1.22-.83,1.61,1.61,0,0,1,1-.11,19.64,19.64,0,0,1,2.59,1.08,1.65,1.65,0,0,1,.65.81,8,8,0,0,1,.29,1.26c.62,0,1.19,0,1.75,0,1,0,.85.18,1-.83a1.53,1.53,0,0,1,1.16-1.44,11,11,0,0,0,1.19-.48c1.81-.74,1.36-.73,2.9.27l.11.06,1.9-1.89c-.16-.23-.34-.54-.55-.82a1.17,1.17,0,0,1-.14-1.36c.35-.76.66-1.54,1-2.33a1.07,1.07,0,0,1,.94-.76c.39-.06.78-.17,1.15-.25V39c-.4-.08-.76-.18-1.12-.23a1.11,1.11,0,0,1-1-.8c-.32-.82-.66-1.63-1-2.44a1,1,0,0,1,.12-1.1c.24-.34.47-.7.63-1l-1.88-1.9c-.23.16-.52.32-.78.53a1.29,1.29,0,0,1-1.52.14c-.74-.35-1.51-.64-2.27-1a1,1,0,0,1-.71-.85c-.06-.42-.17-.83-.26-1.23H22.38c-.06.34-.15.65-.18.95a1.34,1.34,0,0,1-1,1.23c-.76.27-1.49.59-2.22.91a1.11,1.11,0,0,1-1.21-.11c-.32-.24-.67-.46-.9-.61l-2,1.93c1.34,1,.84,2.18.23,3.39l-.05.1a2.16,2.16,0,0,1-2.19,1.95c-.11,0-.32.22-.33.34C12.55,40,12.56,40.77,12.56,41.58Z"/><path class="cls-1" d="M23.65,47.24a7,7,0,1,1,7-7A7,7,0,0,1,23.65,47.24Zm.08-1.65a5.32,5.32,0,1,0-5.35-5.28A5.35,5.35,0,0,0,23.73,45.59Z"/></svg>