<svg id="Layer_1" data-name="Layer 1" xmlns="http://www.w3.org/2000/svg" viewBox="0 0 65 65"><defs><style>.cls-1{fill:#4dc0b3;}</style></defs><path class="cls-1" d="M26.82,28.94c.27.09.49.16.7.25.9.4,1.79.84,2.7,1.21a1.24,1.24,0,0,0,.85,0c1.15-.44,2.29-.91,3.42-1.4a1.08,1.08,0,0,0,.53-.5c.38-.94.72-1.89,1-2.85a1.18,1.18,0,0,1,1.3-.9c.82,0,1.65,0,2.47,0a1.1,1.1,0,0,1,1.18.8c.36,1,.72,1.93,1.13,2.87a1.23,1.23,0,0,0,.6.59c1.1.51,2.22,1,3.34,1.45a1.33,1.33,0,0,0,.9,0c1-.39,1.89-.84,2.81-1.28a1,1,0,0,1,1.19.19l2.15,2.14a1,1,0,0,1,.18,1.19c-.44.94-.88,1.87-1.27,2.82a1.22,1.22,0,0,0,0,.84c.43,1.13.88,2.25,1.37,3.37a1.25,1.25,0,0,0,.57.61c.95.39,1.93.73,2.9,1.06a.8.8,0,0,1,.6.89c0,.94,0,1.89,0,2.84a1.09,1.09,0,0,1-.81,1.17c-1,.32-1.89.7-2.85,1a1,1,0,0,0-.65.65c-.42,1.14-.92,2.25-1.35,3.38a1.13,1.13,0,0,0,0,.79c.39,1,.83,1.89,1.27,2.82a1,1,0,0,1-.22,1.28c-.65.64-1.29,1.28-1.92,1.93a1,1,0,0,1-1.29.23c-.94-.44-1.87-.88-2.82-1.27a1.23,1.23,0,0,0-.78,0c-1.13.44-2.24.94-3.38,1.36a1,1,0,0,0-.67.62c-.31.94-.68,1.86-1,2.8a1.09,1.09,0,0,1-1.18.86q-1.31,0-2.61,0A1.07,1.07,0,0,1,36.08,62c-.33-1-.67-1.95-1-2.91a1.08,1.08,0,0,0-.53-.5c-1.13-.49-2.27-1-3.42-1.4a1.28,1.28,0,0,0-.84,0c-.91.37-1.81.79-2.7,1.22a1.13,1.13,0,0,1-1.46-.22c-.6-.62-1.23-1.22-1.87-1.8a1.13,1.13,0,0,1-.27-1.5q.66-1.32,1.23-2.7a1.16,1.16,0,0,0,0-.78c-.44-1.17-.92-2.33-1.42-3.48a1,1,0,0,0-.52-.51c-.94-.37-1.89-.72-2.84-1a1.09,1.09,0,0,1-.86-1.19c0-.86,0-1.73,0-2.6a1.08,1.08,0,0,1,.82-1.15c1-.34,1.93-.72,2.88-1.12a1.22,1.22,0,0,0,.54-.58c.49-1.13,1-2.27,1.4-3.42a1.19,1.19,0,0,0,0-.79c-.38-.93-.81-1.85-1.25-2.76a1.08,1.08,0,0,1,.23-1.39c.68-.64,1.31-1.32,2-2A4.29,4.29,0,0,1,26.82,28.94Zm24.54,3.24a10,10,0,0,1-1-.87.52.52,0,0,0-.75-.11c-.81.42-1.63.79-2.44,1.2a1.34,1.34,0,0,1-1.46-.07,13,13,0,0,0-4.26-1.76,1.08,1.08,0,0,1-.88-.76c-.26-.72-.54-1.43-.8-2.14-.42-1.11-.42-1.1-1.58-1.09a.55.55,0,0,0-.62.44c-.3.87-.66,1.73-1,2.61a1.36,1.36,0,0,1-1.08,1,13.18,13.18,0,0,0-4.2,1.77,1.25,1.25,0,0,1-1.34.05l-1.78-.86c-1.17-.57-1.16-.56-2.08.37a.53.53,0,0,0-.13.74c.43.82.81,1.67,1.23,2.5a1.31,1.31,0,0,1-.08,1.4,13,13,0,0,0-1.77,4.26,1.15,1.15,0,0,1-.81.91c-.69.25-1.38.52-2.08.79-1.1.41-1.07.41-1.11,1.56a.68.68,0,0,0,.57.78,23.92,23.92,0,0,1,2.6,1,1.77,1.77,0,0,1,.79.85c.65,1.44,1.22,2.92,1.86,4.36a1.49,1.49,0,0,1,0,1.36c-.3.58-.58,1.18-.87,1.78-.55,1.14-.54,1.13.34,2a.59.59,0,0,0,.84.12c.8-.43,1.64-.79,2.45-1.2a1.25,1.25,0,0,1,1.34.06,15,15,0,0,0,4.37,1.84,1.52,1.52,0,0,1,.8.72,19.25,19.25,0,0,1,.75,2.09C37.68,61,37.68,61,38.88,61a.61.61,0,0,0,.7-.5c.27-.86.62-1.7.9-2.57a1.33,1.33,0,0,1,.89-.85c1.47-.59,2.91-1.24,4.39-1.8a2.12,2.12,0,0,1,1.27,0,12.14,12.14,0,0,1,1.79.84c1.19.57,1.17.56,2.09-.35A.58.58,0,0,0,51,55c-.42-.81-.8-1.63-1.2-2.44a1.33,1.33,0,0,1,.07-1.41A14.89,14.89,0,0,0,51.7,46.8a1.5,1.5,0,0,1,.71-.82,22,22,0,0,1,2.14-.82c1.22-.44,1.2-.44,1.21-1.74a.58.58,0,0,0-.46-.67c-.84-.29-1.65-.64-2.5-.91a1.67,1.67,0,0,1-1.11-1.19c-.5-1.37-1.07-2.71-1.69-4a1.58,1.58,0,0,1-.06-1.52C50.41,34.17,50.86,33.22,51.36,32.18Z"/><path class="cls-1" d="M38,23.12c-.66-.29-1.25-.52-1.82-.8a1,1,0,0,0-1.09,0,2.15,2.15,0,0,1-.79.35c-1,.14-1.3.78-1.55,1.63-.4,1.33-.44,1.32-1.83,1.32-1.91,0-1.79.16-2.39-1.74a1.92,1.92,0,0,0-1.11-1.14,3.05,3.05,0,0,0-3.38.11,1,1,0,0,1-1.33-.22c-.37-.4-.75-.77-1.14-1.14a.91.91,0,0,1-.23-1.23,3.15,3.15,0,0,0,.1-3.55,1.73,1.73,0,0,0-1-1c-1.77-.6-1.84-.37-1.81-2.55,0-1.24,0-1.32,1.19-1.66A2.51,2.51,0,0,0,21.6,9.83a2.77,2.77,0,0,0-.09-2.58c-.59-1.11-.53-1.18.38-2.07C23.34,3.74,23,3.7,25,4.62a1.41,1.41,0,0,0,1.55,0A1.36,1.36,0,0,1,27,4.38c1-.14,1.36-.83,1.62-1.72.35-1.25.42-1.26,1.75-1.25,1.85,0,1.91-.31,2.58,1.85.17.53.41.87,1,1a1.21,1.21,0,0,1,.57.22,2.09,2.09,0,0,0,2.39,0c1.26-.64,1.28-.6,2.21.4,1.34,1.42,1.29,1.18.46,2.91a1.52,1.52,0,0,0,0,1.71.65.65,0,0,1,.09.23c.17,1.2,1,1.64,2.06,1.92s1,.43,1,1.37v1.43c0,.47-.2.86-.65.93a3.1,3.1,0,0,0-2.65,2.55,1.49,1.49,0,0,0,0,1.1c1,2.25,1.1,1.74-.67,3.53A9.43,9.43,0,0,1,38,23.12ZM38.2,6.5c-.27-.06-.52-.2-.72-.14-.45.13-.86.44-1.31.53A2.33,2.33,0,0,1,35,6.81c-.86-.31-1.71-.68-2.54-1.07a2.13,2.13,0,0,1-.74-.66c-.17-.22-.19-.55-.33-.79s-.05-1-.66-.93c-.24.05-.49.59-.57.94a1.71,1.71,0,0,1-1.57,1.5,1.9,1.9,0,0,0-.91.36,2.79,2.79,0,0,1-3.52.11.51.51,0,0,0-.47,0,.66.66,0,0,0-.08.53,9.46,9.46,0,0,1,.52,1.25A2.53,2.53,0,0,1,24,9.3c-.29.83-.7,1.61-1,2.44a1.22,1.22,0,0,1-.79.87,13.47,13.47,0,0,0-1.38.52c-.16.07-.36.25-.37.38a.55.55,0,0,0,.33.41,2.84,2.84,0,0,1,2.51,2.56.16.16,0,0,0,.05.11,2.9,2.9,0,0,1,.12,3.64.46.46,0,0,0,.07.47.62.62,0,0,0,.52,0,9.4,9.4,0,0,0,1.1-.55,1.38,1.38,0,0,1,1.4.06,16,16,0,0,0,2.38,1,1.25,1.25,0,0,1,.88.77c.19.52.38,1,.61,1.56a.55.55,0,0,0,.37.29c.1,0,.26-.16.32-.28a6,6,0,0,0,.39-1,1.59,1.59,0,0,1,1.21-1.18,14.1,14.1,0,0,0,2.15-.93,1.42,1.42,0,0,1,1.41-.07,8.76,8.76,0,0,0,1.13.49.67.67,0,0,0,.52-.06c.09-.07.08-.32,0-.47a1.44,1.44,0,0,0-.22-.51,2,2,0,0,1,.1-2.56,1.51,1.51,0,0,0,.32-.66A2.82,2.82,0,0,1,40.73,14a.49.49,0,0,0,.28-.38.54.54,0,0,0-.27-.4,7.28,7.28,0,0,0-1.1-.41,1.52,1.52,0,0,1-1.12-1.18,8.72,8.72,0,0,0-.83-2,1.62,1.62,0,0,1-.1-1.79C37.79,7.47,38,7.06,38.2,6.5Z"/><path class="cls-1" d="M15,29.08h4c.79,0,1.21.34,1.2.94A1.06,1.06,0,0,1,19,31H10.83c-.73,0-1.12-.36-1.12-1s.39-1,1.11-1Z"/><path class="cls-1" d="M11.09,26.48H7c-.71,0-1.1-.36-1.09-1s.39-.92,1.08-.92h8.34c.68,0,1.06.36,1.06.94a.91.91,0,0,1-1,.95Z"/><path class="cls-1" d="M11.09,35.51c-1.36,0-2.72,0-4.08,0-.76,0-1.16-.35-1.15-1s.4-.92,1.14-.92h8.22c.73,0,1.12.34,1.12.94s-.39.95-1.11.95C13.85,35.52,12.47,35.51,11.09,35.51Z"/><path class="cls-1" d="M38.53,37.58a6,6,0,0,1,6.27,6.16,6.11,6.11,0,0,1-6.07,6.39,6.28,6.28,0,1,1-.2-12.55Zm4.36,6.13a4.11,4.11,0,0,0-4.34-4.18,4.31,4.31,0,0,0-4.34,4.37,4.46,4.46,0,0,0,4.43,4.35A4.35,4.35,0,0,0,42.89,43.71Z"/><path class="cls-1" d="M35,13.58a4.18,4.18,0,0,1-4.24,4.17A4.27,4.27,0,1,1,35,13.58Zm-2-.08a2.14,2.14,0,0,0-2.16-2.28,2.3,2.3,0,0,0-2.44,2.18,2.44,2.44,0,0,0,2.42,2.39A2.24,2.24,0,0,0,33,13.5Z"/></svg>