<svg id="Layer_1" data-name="Layer 1" xmlns="http://www.w3.org/2000/svg" viewBox="0 0 65 65"><defs><style>.cls-1{fill:#4dc0b3;}</style></defs><path class="cls-1" d="M13.05,40.68l8.09-3.93c3.26-1.57,6.23-.93,9.05,1.13a4.72,4.72,0,0,0,1.39.72q3,.85,5.94,1.61a4.5,4.5,0,0,1,3.07,2.15L45,41.19c3-.79,5.94-1.63,8.93-2.35A4.2,4.2,0,0,1,59,44.14a5.28,5.28,0,0,1-3.33,3.73q-9.15,3.51-18.32,7a8.7,8.7,0,0,1-5.93.12c-2.33-.75-4.67-1.48-7-2.25a3.55,3.55,0,0,0-2.87.21l-2.65,1.33c.14.32.26.61.37.9a2.51,2.51,0,0,1-1.35,3.37c-1.2.54-2.41,1.06-3.62,1.55a2.46,2.46,0,0,1-3.36-1.35Q7.6,51,4.31,43.33A2.47,2.47,0,0,1,5.65,40q1.77-.78,3.57-1.53a2.52,2.52,0,0,1,3.48,1.41C12.8,40.13,12.91,40.37,13.05,40.68ZM18.33,53c.86-.42,1.68-.81,2.49-1.23a5,5,0,0,1,4.08-.33c2.27.75,4.56,1.46,6.83,2.21A7.7,7.7,0,0,0,37,53.52c2.53-1,5.07-1.94,7.61-2.91l10.28-3.92a4.14,4.14,0,0,0,2.78-3.07,2.84,2.84,0,0,0-3.5-3.45c-4.27,1.11-8.53,2.25-12.79,3.39a1.68,1.68,0,0,0-.33.16,4.22,4.22,0,0,1-5.68,4.51c-1.56-.53-3.18-.89-4.77-1.33l-4.29-1.18a.66.66,0,0,1-.53-.86.64.64,0,0,1,.9-.45l.39.1c3,.83,6,1.66,9,2.47a2.75,2.75,0,0,0,3.51-1.89,2.71,2.71,0,0,0-2-3.41c-2.09-.58-4.19-1.1-6.27-1.73a6.85,6.85,0,0,1-2-1c-2.4-1.72-4.9-2.28-7.65-.93L14,41.73a5.06,5.06,0,0,0-.44.26ZM10.2,39.61a4.89,4.89,0,0,0-.53.17c-1.1.46-2.2.94-3.29,1.42A1.18,1.18,0,0,0,5.66,43l6.45,15a1.18,1.18,0,0,0,1.79.72l3.25-1.39a1.23,1.23,0,0,0,.75-1.91Q17,53.24,16,51c-1.49-3.48-3-7-4.47-10.42A1.33,1.33,0,0,0,10.2,39.61Z"/><path class="cls-1" d="M54.41,11.94a11.46,11.46,0,0,1-.82,1.42,1.18,1.18,0,0,0-.07,1.5,22.93,22.93,0,0,1,1.3,3.21.79.79,0,0,0,.71.65A9,9,0,0,1,56.7,19a1.19,1.19,0,0,1,1,1.21c0,.95,0,1.91,0,2.86a1.19,1.19,0,0,1-1,1.18c-.58.16-1.32.12-1.72.48s-.34,1.1-.57,1.64a21.25,21.25,0,0,1-1.1,2.31.68.68,0,0,0,0,.86,10.47,10.47,0,0,1,.68,1.05,1.24,1.24,0,0,1-.16,1.62c-.63.66-1.28,1.31-1.94,1.94a1.22,1.22,0,0,1-1.62.16c-.5-.29-1-.82-1.5-.85s-1,.51-1.51.72c-.85.35-1.72.61-2.57.94a.9.9,0,0,0-.44.48c-.14.43-.19.89-.31,1.33a1.24,1.24,0,0,1-1.31,1c-.88,0-1.75,0-2.63,0-.73,0-1.28-.37-1.32-1.08a2.11,2.11,0,0,0-2-2.18,10.4,10.4,0,0,1-2.47-1.14.62.62,0,0,0-.77,0c-.32.23-.66.44-1,.65a1.28,1.28,0,0,1-1.8-.17c-.62-.6-1.22-1.21-1.82-1.82a1.26,1.26,0,0,1-.19-1.71c.23-.37.47-.74.73-1.1a.62.62,0,0,0,0-.71c-.55-1.23-1-2.48-1.57-3.72a.9.9,0,0,0-.46-.44c-.43-.15-.89-.21-1.33-.32A1.21,1.21,0,0,1,25.05,23c0-.91,0-1.83,0-2.74A1.16,1.16,0,0,1,26.12,19a2.13,2.13,0,0,0,2.19-2,9.79,9.79,0,0,1,1.13-2.47.65.65,0,0,0,0-.82,11.59,11.59,0,0,1-.68-1A1.25,1.25,0,0,1,28.89,11c.62-.64,1.25-1.28,1.9-1.9a1.12,1.12,0,0,1,1.64-.15,2.18,2.18,0,0,0,3,.13A14.94,14.94,0,0,1,38,8.1a.92.92,0,0,0,.48-.51,9.8,9.8,0,0,0,.27-1.22A1.29,1.29,0,0,1,40.1,5.25h2.57c.75,0,1.29.34,1.33,1.06a2.18,2.18,0,0,0,2,2.21,10.41,10.41,0,0,1,2.47,1.15.57.57,0,0,0,.71,0c.36-.26.73-.49,1.1-.72A1.24,1.24,0,0,1,52,9.09c.64.61,1.28,1.24,1.89,1.9A4.34,4.34,0,0,1,54.41,11.94ZM52.85,31.18c-.31-.47-.62-1-1-1.49a1.07,1.07,0,0,1,0-1.25,14.58,14.58,0,0,0,1.51-3.36c.28-1.37.92-2,2.23-2,.58,0,.84-.27.76-.89s.16-1.41-.15-1.82-1.11-.35-1.7-.46a.94.94,0,0,1-.86-.84,11.84,11.84,0,0,0-1.8-4.34.94.94,0,0,1,0-1.2c.35-.51.68-1,1-1.48L51,10.15c-.47.3-1,.61-1.49,1a.94.94,0,0,1-1.2,0,11.6,11.6,0,0,0-4.34-1.8,1,1,0,0,1-.86-.91c-.1-.59-.25-1.18-.38-1.8-.76,0-1.48,0-2.2,0-.36,0-.46.14-.51.45-.08.47-.22.93-.29,1.4a1,1,0,0,1-.88.88,11.74,11.74,0,0,0-4.29,1.78,1,1,0,0,1-1.21,0c-.51-.36-1-.68-1.5-1L29.93,12c.33.5.67,1.05,1,1.58a.84.84,0,0,1,0,1.05,11.88,11.88,0,0,0-1.86,4.5.85.85,0,0,1-.77.73,12.1,12.1,0,0,0-1.56.35.61.61,0,0,0-.35.43,17,17,0,0,0,0,1.89.58.58,0,0,0,.33.4,14,14,0,0,0,1.56.34.89.89,0,0,1,.8.77A11.69,11.69,0,0,0,31,28.51a.89.89,0,0,1,0,1.1c-.37.53-.71,1.08-1.1,1.68.57.55,1.11,1.08,1.67,1.59a.54.54,0,0,0,.48,0c.48-.27.93-.58,1.39-.89a.83.83,0,0,1,1,0A12.57,12.57,0,0,0,39,33.88a.81.81,0,0,1,.71.71c.13.65.28,1.29.42,1.94H42.7c.13-.62.27-1.22.37-1.81a1,1,0,0,1,.84-.87A11.82,11.82,0,0,0,48.31,32a.87.87,0,0,1,1.1,0c.53.36,1.08.7,1.58,1Z"/><path class="cls-1" d="M31,21.56A10.38,10.38,0,1,1,41.31,32,10.41,10.41,0,0,1,31,21.56Zm1.37,0a9,9,0,1,0,9-9A9,9,0,0,0,32.37,21.59Z"/><path class="cls-1" d="M40.69,24.76c0-.92,0-1.83,0-2.74a.78.78,0,0,0-.3-.52,2.12,2.12,0,0,1,0-3.71.89.89,0,0,0,.32-.57c0-.51,0-1,0-1.54s.14-.84.68-.87.68.28.69.85q0,.31,0,.63a1.81,1.81,0,0,0,.75,1.87,2,2,0,0,1-.35,3.28.71.71,0,0,0-.41.71c0,1.79,0,3.58,0,5.36,0,.37-.06.69-.46.83s-.89-.17-.9-.78C40.68,26.62,40.69,25.69,40.69,24.76Zm1.44-5.06a.75.75,0,0,0-.71-.79.73.73,0,1,0,0,1.45A.71.71,0,0,0,42.13,19.7Z"/><path class="cls-1" d="M46.44,18.58c0,1,0,1.9,0,2.85a.91.91,0,0,0,.33.62,2.12,2.12,0,0,1,0,3.68,1,1,0,0,0-.35.61c-.06.43,0,.87,0,1.31a.64.64,0,0,1-.71.71c-.44,0-.63-.3-.64-.71a4.51,4.51,0,0,1,0-.52,1.67,1.67,0,0,0-.71-1.71,2,2,0,0,1,.32-3.32.72.72,0,0,0,.4-.72c0-1.88,0-3.76,0-5.65a1.19,1.19,0,0,1,.31-.79c.43-.38,1,0,1,.62,0,1,0,2,0,3Zm-.68,4.58a.71.71,0,0,0-.74.72.7.7,0,0,0,.7.75.73.73,0,0,0,.77-.75A.72.72,0,0,0,45.76,23.16Z"/><path class="cls-1" d="M37.7,18.05c0,.8,0,1.6,0,2.4A.82.82,0,0,0,38,21a2.13,2.13,0,0,1,0,3.72.8.8,0,0,0-.32.56c0,.76,0,1.52,0,2.28,0,.47-.19.8-.68.8s-.69-.33-.69-.8c0-.76,0-1.52,0-2.28a.8.8,0,0,0-.31-.57A2.12,2.12,0,0,1,36,21a.8.8,0,0,0,.31-.56c0-1.6,0-3.2,0-4.8,0-.61.42-1,.88-.78a1,1,0,0,1,.47.74C37.74,16.41,37.7,17.23,37.7,18.05Zm0,4.78a.73.73,0,1,0-1.45.08.67.67,0,0,0,.76.67A.69.69,0,0,0,37.75,22.83Z"/></svg>