<svg id="Layer_1" data-name="Layer 1" xmlns="http://www.w3.org/2000/svg" viewBox="0 0 65 65"><defs><style>.cls-1{fill:#4dc0b3;}</style></defs><path class="cls-1" d="M3.4,21.17c.19-1,.34-1.9.57-2.84A14.83,14.83,0,0,1,6.19,13.5c.4-.59.88-.75,1.32-.45s.48.81.1,1.4a13.7,13.7,0,0,0-1.13,13.9,12.64,12.64,0,0,0,2.62,3.7l5.54,5.58.6-.57c1.33-1.25,2.66-2.49,4-3.75a3.84,3.84,0,0,1,4.39-1,3.82,3.82,0,0,1,2.51,3.77c0,.08,0,.15,0,.29a4.15,4.15,0,0,1,3.28,1.11,4.05,4.05,0,0,1,1.21,3.32,4.2,4.2,0,0,1,3.15,1A4,4,0,0,1,35.08,45a8.39,8.39,0,0,1,1.42,0,3.94,3.94,0,0,1,3.28,3.2,4.21,4.21,0,0,0,2.72,2.47,2.27,2.27,0,0,0,2-3.8c-.12-.14-.26-.27-.4-.41L33.32,35.72a2.37,2.37,0,0,1-.34-.37.84.84,0,0,1,1.2-1.16,3.72,3.72,0,0,1,.46.43Q40,40,45.41,45.42a2.42,2.42,0,0,0,1.91.85A2.27,2.27,0,0,0,49,42.51a6.2,6.2,0,0,0-.44-.45L37.81,31.34a3.1,3.1,0,0,1-.45-.51.7.7,0,0,1,.17-1,1.69,1.69,0,0,1,1-.11c.19,0,.35.27.51.43Q44.44,35.55,49.84,41a2.41,2.41,0,0,0,2,.85,2.15,2.15,0,0,0,2-1.46,2.19,2.19,0,0,0-.55-2.46L48,32.73,46.91,31.6a.9.9,0,0,1-.11-1.35.88.88,0,0,1,1.3.14q2.19,2.16,4.36,4.34c.13.13.24.3.37.46,3.05-2.86,6-5.63,6.91-9.92,1.48-7-3-15.64-11.92-16.65a13.69,13.69,0,0,0-14.37,8.3,7.75,7.75,0,0,1-1,1.41c-2.21,2.87-4.4,5.76-6.65,8.6-.86,1.09-.31,1.79.71,2a4.42,4.42,0,0,0,3.52-.49c1.61-1.06,3.16-2.22,4.72-3.37,1.23-.91,2.44-1.86,3.64-2.82A1.47,1.47,0,0,1,39.71,22a13.81,13.81,0,0,0,6.42-.37l.16-.05c.65-.18,1.08,0,1.24.54a.84.84,0,0,1-.74,1.08c-1.41.28-2.83.49-4.25.71a5,5,0,0,1-.88,0c.16.19.26.32.37.43l3.14,3.13c.49.49.54,1,.15,1.39s-.86.31-1.35-.17l-4.73-4.82-1.33,1c-1.9,1.45-3.78,2.93-5.71,4.34a7.25,7.25,0,0,1-5.5,1.52,3.8,3.8,0,0,1-2.27-1.07,2.59,2.59,0,0,1-.07-3.57q3.39-4.43,6.82-8.83a.94.94,0,0,0,.13-1.15A14,14,0,0,0,17.25,8.6a13.64,13.64,0,0,0-6.93,2.9l-.14.11a.88.88,0,0,1-1.31-.08.86.86,0,0,1,.24-1.24,14.62,14.62,0,0,1,5.5-2.89,15.61,15.61,0,0,1,17.7,7l.25.38.35-.55a15.52,15.52,0,0,1,16.17-7.2A15.35,15.35,0,0,1,61.38,19.3c1.12,5.68-.6,10.47-4.66,14.5l-2.4,2.35c0,.05-.09.12-.17.22,1.53,1.47,2,3.18,1,5.12a3.85,3.85,0,0,1-3.89,2.06,4.25,4.25,0,0,1-1.18,3.25A4,4,0,0,1,46.8,48a4,4,0,0,1-2.6,4.18A3.84,3.84,0,0,1,39.68,51c-1,.93-2.07,1.83-3.07,2.75Q34.84,55.36,33.13,57a4,4,0,0,1-6.94-2.71,1.2,1.2,0,0,0,0-.17,4.05,4.05,0,0,1-3.44-1,4.12,4.12,0,0,1-1.3-3.32c-3.16-.45-4.26-1.52-4.46-4.4a4,4,0,0,1-4-2.13,3.91,3.91,0,0,1,.47-4.5l-2.95-2.94C9.55,34.91,8.6,34,7.7,33.05a15,15,0,0,1-4.2-8.94,1.19,1.19,0,0,0-.1-.32Zm30,23.51a2.29,2.29,0,0,0-3.88-1.46c-1.87,1.75-3.73,3.5-5.58,5.27a2.25,2.25,0,0,0-.13,3.3,2.27,2.27,0,0,0,3.26,0c.51-.47,1-.95,1.5-1.41a.85.85,0,0,1,1.26,0,.84.84,0,0,1-.09,1.26c-.34.35-.72.67-1.07,1a2.28,2.28,0,1,0,3.14,3.3q2.8-2.61,5.59-5.27a2.28,2.28,0,1,0-3.12-3.32c-.56.51-1.1,1-1.66,1.56a.88.88,0,0,1-1.31,0,.87.87,0,0,1,.13-1.26c.4-.4.83-.78,1.24-1.17A2.36,2.36,0,0,0,33.37,44.68Zm-4.44-4.43a2.16,2.16,0,0,0-1.35-1.91,2.11,2.11,0,0,0-2.43.37c-.74.65-1.45,1.34-2.17,2C21.8,41.85,20.6,43,19.43,44.09a2.28,2.28,0,1,0,3.09,3.34c1.9-1.77,3.79-3.56,5.68-5.35A2.35,2.35,0,0,0,28.93,40.25ZM22,33.78a2.22,2.22,0,0,0-1.52.68L14.94,39.7A2.29,2.29,0,0,0,14.78,43a2.27,2.27,0,0,0,3.23.11c.4-.35.78-.73,1.16-1.09,1.51-1.42,3-2.83,4.51-4.26a2.27,2.27,0,0,0,.55-2.56A2.31,2.31,0,0,0,22,33.78Z"/></svg>