<svg id="Layer_1" data-name="Layer 1" xmlns="http://www.w3.org/2000/svg" viewBox="0 0 65 65"><defs><style>.cls-1{fill:#4dc0b3;}</style></defs><path class="cls-1" d="M30.16,38.42v1.91h12.6a3.39,3.39,0,0,1,3.71,3.72v5.59A3.39,3.39,0,0,1,42.8,53.3H30.13v5a.9.9,0,0,1-.59,1,.92.92,0,0,1-1.08-.43l-5.8-7.19-.5-.6-3.93,4.87c-.77,1-1.54,1.89-2.29,2.84-.31.39-.64.69-1.16.51s-.58-.64-.58-1.12V35l-1.27.79a.94.94,0,0,1-1.33-.15Q9.47,33.53,7.33,31.4a.94.94,0,0,1-.15-1.32c.36-.56.73-1.11,1.06-1.69a.83.83,0,0,0,0-.62,21.45,21.45,0,0,0-.83-2A.88.88,0,0,0,7,25.34c-.62-.18-1.26-.29-1.89-.42a1,1,0,0,1-.85-1c0-2,0-4.07,0-6.11a.94.94,0,0,1,.86-1c.64-.14,1.27-.26,1.89-.43a1,1,0,0,0,.49-.44,20.48,20.48,0,0,0,.8-2,.92.92,0,0,0-.05-.71c-.31-.56-.67-1.1-1-1.64a.93.93,0,0,1,.15-1.32C8.77,8.86,10.19,7.43,11.61,6a1,1,0,0,1,1.33-.14c.54.35,1.07.72,1.64,1a.92.92,0,0,0,.71,0c.64-.22,1.25-.54,1.9-.76a.68.68,0,0,0,.51-.58c.12-.6.25-1.19.38-1.78s.39-.92,1.1-.92h6c.69,0,.92.2,1.08.86s.13,1.61.55,2.12,1.31.59,1.94.95a1.05,1.05,0,0,0,1.33-.09c.41-.31.86-.56,1.3-.83a.93.93,0,0,1,1.41.16c1.39,1.38,2.78,2.76,4.15,4.16a1.15,1.15,0,0,0,.89.37c6.37,0,12.74,0,19.1,0a3.56,3.56,0,0,1,3.78,3.76c-.06,1.86,0,3.72,0,5.58A3.4,3.4,0,0,1,57,23.55H40.1c.23,1.14-.5,1.34-1.31,1.48a4.7,4.7,0,0,0-1.29.4H49A3.39,3.39,0,0,1,52.46,28a4.35,4.35,0,0,1,.09,1c0,1.92,0,3.84,0,5.76a3.38,3.38,0,0,1-3.63,3.63H30.16ZM24.67,4.59H20c-.33,0-.43.14-.48.42-.11.54-.26,1.07-.35,1.61a1.2,1.2,0,0,1-.89,1c-.94.34-1.87.72-2.78,1.15a1.22,1.22,0,0,1-1.37-.09c-.56-.39-1.14-.72-1.61-1L9,11.24c.32.5.66,1.07,1,1.62a1.22,1.22,0,0,1,.06,1.37c-.42.89-.8,1.8-1.13,2.73a1.25,1.25,0,0,1-1,.93c-.67.12-1.33.3-2,.44v5c.71.16,1.39.32,2.08.46a1.11,1.11,0,0,1,.87.79c.38,1,.77,2,1.22,2.94A1.16,1.16,0,0,1,10,28.78C9.65,29.36,9.29,30,9,30.49l3.58,3.57c.56-.36,1.18-.73,1.77-1.13a1.05,1.05,0,0,1,1.12,0c1,.44,2,.84,2.94,1.22a1.17,1.17,0,0,1,.84.91c.1.54.25,1.07.34,1.61.06.35.19.48.56.48,1.39,0,2.77,0,4.16,0a.46.46,0,0,0,.53-.44c.1-.54.25-1.07.34-1.62a1.17,1.17,0,0,1,.86-.95c1-.35,1.91-.73,2.83-1.17a1.21,1.21,0,0,1,1.33.08c.56.38,1.14.73,1.67,1.06l3.56-3.57c-.35-.56-.73-1.18-1.12-1.78a1.07,1.07,0,0,1-.06-1.12c.44-1,.85-2,1.24-3a1.13,1.13,0,0,1,.89-.78c.56-.11,1.11-.25,1.67-.36.27-.06.42-.16.42-.48,0-1.43,0-2.86,0-4.28a.58.58,0,0,0-.36-.44,16.49,16.49,0,0,0-1.72-.39,1.13,1.13,0,0,1-.88-.79c-.37-1-.77-2-1.21-2.94a1.14,1.14,0,0,1,.07-1.22c.39-.58.75-1.18,1.1-1.73L31.81,7.63c-.54.34-1.14.71-1.72,1.09a1.14,1.14,0,0,1-1.23.07C27.92,8.35,27,8,26,7.59a1.19,1.19,0,0,1-.84-1C25,6,24.83,5.3,24.67,4.59Zm22.55,7.69c-3.12,0-6.24,0-9.35,0a1.56,1.56,0,0,0-1.76,1,1.08,1.08,0,0,0,0,.71,16.33,16.33,0,0,0,.78,1.89,1,1,0,0,0,.53.47c.59.18,1.22.28,1.83.42s.87.4.88,1.11c0,1.13,0,2.25,0,3.37,0,.47.13.61.6.61,5.44,0,10.88,0,16.32,0A1.72,1.72,0,0,0,59,19.9q0-2.85,0-5.7A1.7,1.7,0,0,0,57,12.28ZM28.38,56v-21a9,9,0,0,1-1.15.42.73.73,0,0,0-.61.7c-.1.58-.24,1.16-.38,1.73s-.39.86-1.06.86c-2,0-4,0-6.05,0a.94.94,0,0,1-1-.84c-.14-.63-.27-1.26-.43-1.89,0-.16-.13-.39-.26-.45-.46-.2-.95-.35-1.45-.53V56l.43-.51,4.9-6.07c.63-.77,1.13-.78,1.75,0l3,3.68Zm1.78-19.35.37,0H49.07a1.64,1.64,0,0,0,1.77-1.79c0-2,0-4,0-5.93A1.69,1.69,0,0,0,49,27.14H36.8a.78.78,0,0,0-.57.29c-.17.28-.45.57-.15,1s.71,1.09,1.05,1.63A.92.92,0,0,1,37,31.41l-4.27,4.28a.94.94,0,0,1-1.33.14c-.39-.26-.79-.49-1.24-.77Zm0,14.86.29,0c4.19,0,8.37,0,12.55,0a1.65,1.65,0,0,0,1.76-1.81c0-1.9,0-3.8,0-5.7,0-1.41-.61-2-2-2H30.16Z"/><path class="cls-1" d="M11.11,20.82A11.06,11.06,0,1,1,22.16,31.9,11.07,11.07,0,0,1,11.11,20.82Zm1.71,0a9.35,9.35,0,1,0,9.36-9.36A9.37,9.37,0,0,0,12.82,20.86Z"/><path class="cls-1" d="M17.55,18.05c.53,0,1.07,0,1.6,0s.6-.14.71-.54c.29-1,.63-2,.95-3a1.39,1.39,0,0,1,2.72,0c.34,1,.68,2.06,1,3.09a.48.48,0,0,0,.56.41c1.09,0,2.17,0,3.25,0a1.39,1.39,0,0,1,.86,2.58c-.87.64-1.74,1.29-2.64,1.9a.5.5,0,0,0-.21.7c.35,1,.68,2.05,1,3.08a1.38,1.38,0,0,1-2.18,1.6c-.88-.63-1.76-1.26-2.62-1.92a.53.53,0,0,0-.78,0c-.84.64-1.71,1.26-2.57,1.88A1.38,1.38,0,0,1,17,26.3c.33-1,.65-2.06,1-3.08a.5.5,0,0,0-.23-.7c-.89-.62-1.76-1.26-2.64-1.9A1.38,1.38,0,0,1,16,18.05C16.49,18,17,18.05,17.55,18.05Zm9.76,1.82,0-.11H24.6a1.41,1.41,0,0,1-1.55-1.14c-.22-.66-.43-1.33-.65-2-.06-.18-.13-.36-.22-.6a.84.84,0,0,0-.11.2c-.23.68-.45,1.36-.67,2.05-.43,1.32-.7,1.51-2.1,1.49-.74,0-1.49,0-2.27,0,0,.1,0,.14.07.16L19,21.33c.91.66,1,1.05.68,2.14-.25.78-.5,1.57-.76,2.35a17,17,0,0,0,2-1.31c1.09-.8,1.38-.79,2.48,0l1.88,1.37a22.64,22.64,0,0,0-.73-2.61,1.4,1.4,0,0,1,.6-1.83C25.87,20.91,26.59,20.4,27.31,19.87Z"/></svg>