<svg id="Layer_1" data-name="Layer 1" xmlns="http://www.w3.org/2000/svg" viewBox="0 0 65 65"><defs><style>.cls-1{fill:#4dc0b3;}</style></defs><path class="cls-1" d="M3.17,27.82l.15-.54A4.35,4.35,0,0,1,7.4,24c2.34-.05,4.68,0,7,0h.75V11.31a3.9,3.9,0,0,1,3-4,4.68,4.68,0,0,1,1.18-.12H53.15a3.91,3.91,0,0,1,4.16,4.19c0,5.67,0,11.34,0,17v.76c.55,0,1,0,1.52.12a3.21,3.21,0,0,1,2.75,3.11q0,7.29,0,14.6a3.24,3.24,0,0,1-3.2,3.17q-3.7,0-7.41,0a3.29,3.29,0,0,1-3.23-3.44c0-2,0-3.92,0-5.88v-.69H41.09v3c0,1.1,0,1.1,1.11,1.1h1.26c.8,0,1.21.32,1.19.9s-.42.86-1.18.86H29c-.71,0-1.09-.32-1.08-.89s.37-.86,1.09-.87,1.34,0,2,0c.15,0,.4-.19.41-.3,0-1.23,0-2.46,0-3.74H25v.68c0,3.18,0,6.35,0,9.53a4.41,4.41,0,0,1-3.39,4.54,6.6,6.6,0,0,1-1.47.14q-6,0-12.1,0a4.46,4.46,0,0,1-4.81-3.64s-.05-.06-.07-.08Zm52.37,1.39V11.44A2.19,2.19,0,0,0,53.07,9H19.43A2.18,2.18,0,0,0,17,11.44V24h3.36A4.44,4.44,0,0,1,25,28.61c0,1.2,0,2.4,0,3.6v.61H47.65a3.58,3.58,0,0,1,4.13-3.62C53,29.28,54.24,29.21,55.54,29.21ZM5,39.51V50.29a2.68,2.68,0,0,0,3,3H20.23a2.71,2.71,0,0,0,3-3q0-10.74,0-21.5a2.71,2.71,0,0,0-3-3H8a2.69,2.69,0,0,0-3,3Zm54.85.24h0c0-2.32,0-4.64,0-7A1.58,1.58,0,0,0,58,31H51.31a1.6,1.6,0,0,0-1.82,1.82V46.56a1.6,1.6,0,0,0,1.81,1.83H58c1.27,0,1.83-.58,1.83-1.86ZM47.7,34.68H25v3.61H47.7Zm-8.4,5.47H33.22v4H39.3Z"/></svg>