<svg id="Layer_1" data-name="Layer 1" xmlns="http://www.w3.org/2000/svg" viewBox="0 0 65 65"><defs><style>.cls-1{fill:#4dc0b3;}</style></defs><path class="cls-1" d="M28.13,43.23a9.52,9.52,0,1,1,9.8,0l.57.23Q49,47.24,50.75,58.32a1,1,0,0,1-1.07,1.27H16.36a1,1,0,0,1-1.06-1.28,17.74,17.74,0,0,1,7.79-12.7,17.42,17.42,0,0,1,4.64-2.23ZM48.58,57.59c-.63-5.57-6.2-12.85-15.21-13a15.75,15.75,0,0,0-15.91,13Zm-8-22.54A7.55,7.55,0,1,0,33,42.59,7.57,7.57,0,0,0,40.57,35.05Z"/><path class="cls-1" d="M14.07,36.73a18.95,18.95,0,0,1,37.71-2.29c.1.77.16,1.54.19,2.3S51.67,38,51,38s-1-.4-1-1.23A16.67,16.67,0,0,0,41.38,22.3a17,17,0,0,0-25,11.55c-.17,1-.24,2-.32,3-.06.83-.38,1.25-1,1.23s-1-.47-.95-1.3Z"/><path class="cls-1" d="M8.68,36H7c-1,0-2.1,0-3.15,0a1,1,0,0,1-1.07-1,1,1,0,0,1,1-.94c1.4,0,2.8,0,4.2,0h.67c-.43-.95-.39-1.39.11-1.72s1-.18,1.63.57c.41.47.83.94,1.24,1.42a1,1,0,0,1,0,1.41c-.48.58-1,1.14-1.48,1.7a1,1,0,0,1-1.44.27c-.45-.34-.49-.82-.13-1.45A2.21,2.21,0,0,0,8.68,36Z"/><path class="cls-1" d="M57.39,36c.14.36.34.64.3.87a1.29,1.29,0,0,1-.52.86,1.16,1.16,0,0,1-1-.1,20.32,20.32,0,0,1-1.86-2.08.9.9,0,0,1,.11-1.22c.49-.57,1-1.14,1.48-1.69a1,1,0,0,1,1.44-.31c.46.34.52.83.16,1.45a2.54,2.54,0,0,0-.12.26h4.76c.75,0,1.21.4,1.2,1s-.46,1-1.22,1Z"/><path class="cls-1" d="M32.05,10.72V5.87a1,1,0,0,1,.7-1.07A1,1,0,0,1,34,5.8c0,1.4,0,2.8,0,4.2v.68a.64.64,0,0,0,.2,0c.63-.39,1.17-.36,1.5.11a1,1,0,0,1-.29,1.44q-.81.73-1.65,1.44a1,1,0,0,1-1.47,0c-.57-.48-1.13-1-1.69-1.48a1,1,0,0,1-.26-1.39,1,1,0,0,1,1.45-.16Z"/><path class="cls-1" d="M16.46,17.08c.21-.35.32-.75.59-.92a1.1,1.1,0,0,1,.95-.09,1.1,1.1,0,0,1,.53.79,20.57,20.57,0,0,1-.15,2.72.88.88,0,0,1-.86.81c-.84.07-1.69.14-2.54.18a1,1,0,0,1-1-.89,1,1,0,0,1,.82-1l.51-.12c-.56-.51-1-.91-1.46-1.34l-2-2c-.53-.54-.6-1.12-.18-1.54s1-.4,1.58.18C14.29,14.91,15.38,16,16.46,17.08Z"/><path class="cls-1" d="M49.51,17.2c1.18-1.19,2.27-2.33,3.41-3.42a1.48,1.48,0,0,1,1-.4,1,1,0,0,1,.71.62,1.32,1.32,0,0,1-.26,1c-.95,1-2,2-2.95,3a7,7,0,0,1-.64.48l.57.17a.91.91,0,0,1,.75,1,.89.89,0,0,1-.92.88c-.93,0-1.86-.09-2.78-.2a.9.9,0,0,1-.76-1c-.06-.69-.1-1.38-.13-2.06,0-.89.21-1.31.83-1.38S49.32,16.24,49.51,17.2Z"/></svg>