<svg id="Layer_1" data-name="Layer 1" xmlns="http://www.w3.org/2000/svg" viewBox="0 0 65 65"><defs><style>.cls-1{fill:blue;}.cls-2{fill:#f3f945;}</style></defs><path class="cls-1" d="M56.72,23.75a47.57,47.57,0,0,1-3.2,17.79A31.56,31.56,0,0,1,34.87,59.75a7.41,7.41,0,0,1-5.81-.47c-9.51-4.09-15.6-11.2-18.61-21a47.74,47.74,0,0,1-1.83-17c.1-1.55.27-3.11.51-4.66a4.7,4.7,0,0,1,2.95-3.75c6.16-2.61,12.34-5.17,18.51-7.75a5,5,0,0,1,4,0l18.24,7.61a5,5,0,0,1,3.27,4.32C56.35,19.29,56.52,21.52,56.72,23.75Zm-46.41,0a51.12,51.12,0,0,0,1.45,12.08C14.45,46.41,20.63,54,30.93,58a4.35,4.35,0,0,0,3.25,0A29.59,29.59,0,0,0,52,40.1a46.17,46.17,0,0,0,2.14-23,3.14,3.14,0,0,0-2-2.6L33.88,6.9a3.33,3.33,0,0,0-2.66,0L13,14.51a3.2,3.2,0,0,0-2.09,2.74C10.7,19.41,10.52,21.58,10.31,23.75Z"/><path class="cls-1" d="M52.59,24.34a43.06,43.06,0,0,1-3.24,16.41A27.23,27.23,0,0,1,33.46,55.81a2.74,2.74,0,0,1-1.83,0C22.22,52.17,16.53,45.25,14,35.61a45.43,45.43,0,0,1-.87-18A1.19,1.19,0,0,1,14,16.57c6-2.51,12-5,18.08-7.54a1.64,1.64,0,0,1,1.07,0c6,2.49,12,5,18,7.51A1.19,1.19,0,0,1,52,17.61C52.17,19.85,52.38,22.1,52.59,24.34Zm-1.94.15c-.15-1.94-.31-3.87-.45-5.81a.7.7,0,0,0-.51-.68L33,11a1.16,1.16,0,0,0-.78,0L15.38,18a.62.62,0,0,0-.45.6c-.06.91-.19,1.81-.25,2.72A42.45,42.45,0,0,0,16.41,37,25.55,25.55,0,0,0,32,53.91a1.53,1.53,0,0,0,1,0A25.12,25.12,0,0,0,47.31,40.67,40,40,0,0,0,50.65,24.49Z"/><path class="cls-2" d="M32.59,44.21H28.07a4.45,4.45,0,0,1-4.55-4.5c0-2.45,0-4.91,0-7.37a4.47,4.47,0,0,1,1.8-3.64,1.15,1.15,0,0,0,.35-.73,27.59,27.59,0,0,1,.2-3.54A6.81,6.81,0,0,1,33.2,19a6.9,6.9,0,0,1,6.24,6.61c0,.81,0,1.62,0,2.43a1,1,0,0,0,.31.62,4.55,4.55,0,0,1,1.84,3.75c0,2.4,0,4.8,0,7.19A4.45,4.45,0,0,1,37,44.21Zm-.08-1.9H37a2.54,2.54,0,0,0,2.68-2.69c0-2.4,0-4.79,0-7.19A2.56,2.56,0,0,0,37,29.72H28.1a2.56,2.56,0,0,0-2.68,2.7v7.2a2.54,2.54,0,0,0,2.69,2.68Zm5-14.52c0-.73,0-1.44,0-2.14a5,5,0,0,0-3.67-4.59,5,5,0,0,0-5.42,2c-1,1.45-.9,3.06-.83,4.71Z"/><path class="cls-2" d="M31.62,37c-1.41-.88-1.93-1.91-1.61-3.14a2.63,2.63,0,0,1,5.07-.14,2.54,2.54,0,0,1-1.12,3,.75.75,0,0,0-.44.84v.06c.09,2.19-.19,2.33-1,2.32s-1-.18-.94-2.35C31.62,37.4,31.62,37.2,31.62,37Zm.94-1.8a.66.66,0,0,0,.72-.68.69.69,0,0,0-.74-.74.68.68,0,0,0-.69.72A.66.66,0,0,0,32.56,35.22Z"/></svg>