<svg id="Layer_1" data-name="Layer 1" xmlns="http://www.w3.org/2000/svg" viewBox="0 0 65 65"><defs><style>.cls-1{fill:#4dc0b3;}</style></defs><path class="cls-1" d="M14.61,23.64V19.59c-.7,0-1.41,0-2.11,0-.12,0-.26.29-.33.47a3.38,3.38,0,0,1-6.36,0,3.37,3.37,0,0,1,2-4.3,3.32,3.32,0,0,1,4.35,1.91.74.74,0,0,0,.88.58c.7,0,1.4,0,2.1,0s.89.2.89.91c0,1.26,0,2.52,0,3.79v.7h4.52c.47,0,.86.13.9.69s-.31.68-.89.68H16v4.07h1a.65.65,0,0,1,.73.67c0,.44-.29.66-.72.68s-1.08,0-1.63,0-.79-.24-.79-.84c0-1.49,0-3,0-4.47A3.06,3.06,0,0,0,10.58,28q0,10.29,0,20.56c0,.14,0,.27,0,.42H54.39v-.72c0-6.51-.06-13,0-19.51,0-2.45-1.34-4-4.1-3.65v4.5c0,.66-.21.87-.87.88-.47,0-.93,0-1.4,0s-.92-.28-.87-.7.39-.67.86-.65c.29,0,.58,0,.9,0V25H44.31c-.43,0-.73-.2-.75-.64s.3-.69.74-.72.73,0,1.1,0H49V23c0-1.3,0-2.6,0-3.9,0-.63.22-.83.85-.84h2.33a.52.52,0,0,0,.62-.42,3.38,3.38,0,0,1,3.94-2.22,3.39,3.39,0,0,1-.57,6.7,3.36,3.36,0,0,1-3.34-2.24.59.59,0,0,0-.7-.48c-.58,0-1.16,0-1.75,0a4,4,0,0,0,0,.41v3.64h.88a4.33,4.33,0,0,1,4.56,4.58v23a4.32,4.32,0,0,1-4.57,4.57H41.34v4.07h2.39a1.45,1.45,0,0,1,.63,0c.22.14.51.4.5.59a1.1,1.1,0,0,1-.49.67c-.15.1-.41,0-.63,0H21.21c-.81,0-1.14-.19-1.15-.66s.33-.67,1.13-.68h2.43V55.74H13.87A4.33,4.33,0,0,1,9.21,51.1q0-11.41,0-22.83a4.34,4.34,0,0,1,4.57-4.63ZM54.43,50.35H10.55a11.74,11.74,0,0,0,.1,1.71,2.91,2.91,0,0,0,3.12,2.32H49.92c.55,0,1.09,0,1.63,0a2.81,2.81,0,0,0,2.71-2.15A12.38,12.38,0,0,0,54.43,50.35ZM39.9,59.79v-4H25.07v4ZM56,20.94a2,2,0,0,0,0-4.07,2,2,0,0,0,0,4.07Zm-47,0a2,2,0,0,0,2-2,2.08,2.08,0,0,0-2-2,2,2,0,0,0,0,4.07Z"/><path class="cls-1" d="M43.4,22a5.78,5.78,0,0,1-.36.61c-.37.5-1,.95-1.07,1.49s.51,1.07.63,1.65a1.68,1.68,0,0,0,2,1.5,1,1,0,0,1,.63.09c.24.16.58.42.6.65.06,1.14,0,2.29,0,3.44a.66.66,0,0,1-.65.69c-.48.06-1,.15-1.44.19a.51.51,0,0,0-.55.45c-.27.82-.59,1.64-.94,2.43a.6.6,0,0,0,.08.73c.28.32.52.67.79,1A.72.72,0,0,1,43.05,38L40.79,40.3c-.35.35-.76.42-1.08.06a1.73,1.73,0,0,0-2.63-.24,9.65,9.65,0,0,1-1.61.64,1.1,1.1,0,0,0-.42.5,2.12,2.12,0,0,0-.09.57c-.17,1.24-.17,1.24-1.45,1.24-.84,0-1.67,0-2.5,0-.58,0-1-.23-.93-.79a1.6,1.6,0,0,0-1.5-1.88A5.23,5.23,0,0,1,27,39.64a.62.62,0,0,0-.86.08c-.27.25-.58.46-.87.68a.67.67,0,0,1-1-.06L21.89,38a.68.68,0,0,1-.05-1c.35-.47.91-.9,1-1.41s-.4-1-.62-1.52a2.88,2.88,0,0,1-.27-.83c-.06-.73-.47-1-1.13-1h-.06c-1.86-.12-1.56-.37-1.58-1.78,0-.76,0-1.52,0-2.28a.76.76,0,0,1,.79-.87,3.73,3.73,0,0,0,1.75-.28c.42-.29.53-1,.78-1.54l.05-.1c.76-.88.46-1.58-.25-2.36-.9-1-.84-1.06.12-2,.59-.59,1.19-1.17,1.76-1.77a.79.79,0,0,1,1.23-.07c.45.36.92.7,1.37,1.08a.59.59,0,0,0,.72.09,15.47,15.47,0,0,1,1.94-.79.58.58,0,0,0,.46-.57c.07-.61.15-1.23.22-1.84a.74.74,0,0,1,.86-.74h3.09c.57,0,.84.28.89.84a17.87,17.87,0,0,0,.23,1.79.73.73,0,0,0,.37.47c.66.31,1.35.58,2,.83a.8.8,0,0,0,.61-.05c.52-.36,1-.78,1.52-1.17a.73.73,0,0,1,1.09.07c.75.76,1.51,1.5,2.26,2.27A3.18,3.18,0,0,1,43.4,22ZM41.71,37.4l-.93-1.22a.74.74,0,0,1-.08-1A10,10,0,0,0,42,31.76a.77.77,0,0,1,.75-.68c.44,0,.89-.07,1.33-.16a.53.53,0,0,0,.35-.33c0-.63,0-1.27,0-1.94-.63-.09-1.2-.2-1.77-.24a1,1,0,0,1-.9-.75,30.23,30.23,0,0,0-1.31-2.9.92.92,0,0,1,.07-1.16c.4-.49.78-1,1.08-1.38l-1.55-1.67c-.52.4-1,.79-1.56,1.21a.94.94,0,0,1-1.12.08q-1.4-.61-2.85-1.14a.87.87,0,0,1-.68-.81c-.07-.69-.18-1.38-.27-2.07H31.35c-.09.73-.19,1.42-.26,2.11a.86.86,0,0,1-.67.77c-1,.35-1.92.72-2.85,1.14a1,1,0,0,1-1.17-.1c-.51-.42-1-.81-1.53-1.2l-1.6,1.6c.38.49.76,1,1.16,1.49a.88.88,0,0,1,.07,1.07c-.49,1-.93,2-1.36,3a.94.94,0,0,1-.82.7c-.59.06-1.18.16-1.8.24v2.23l1.61.2a1,1,0,0,1,.86.79c.36,1.12.79,2.21,1.25,3.29a.93.93,0,0,1-.08,1.07c-.32.39-.61.79-.85,1.1L24.88,39c.31-.24.65-.47.95-.74a1,1,0,0,1,1.31-.06,10.17,10.17,0,0,0,2.67,1.22c1.06.24,1.51.73,1.48,1.76a.43.43,0,0,0,0,0c0,.45.18.59.59.53h.35c1.35,0,1.35,0,1.52-1.33a.84.84,0,0,1,.71-.8,9.39,9.39,0,0,0,3.5-1.5.79.79,0,0,1,1.06.06c.36.29.73.56,1.1.85Z"/><path class="cls-1" d="M46.08,11a13.49,13.49,0,0,1,1.43-1.92,3.27,3.27,0,0,1,4-.27,3.39,3.39,0,0,1-1.64,6.25,3.33,3.33,0,0,1-3.29-2.14.73.73,0,0,0-.86-.59,19.83,19.83,0,0,1-2,0c-.42,0-.52.14-.52.54,0,1.53,0,3.07,0,4.6,0,.18,0,.35,0,.52a.63.63,0,0,1-.66.67.61.61,0,0,1-.66-.66c0-2.12,0-4.23,0-6.35,0-.48.35-.65.8-.65Zm3.55,2.7a2,2,0,1,0-2-2.05A2,2,0,0,0,49.63,13.71Z"/><path class="cls-1" d="M18.7,11h3.48c.83,0,1,.17,1,1,0,1.94,0,3.88,0,5.82,0,.47-.15.81-.65.86s-.68-.3-.69-.87c0-.16,0-.32,0-.47,0-1.48,0-2.95,0-4.43,0-.43-.12-.58-.56-.56-.87,0-1.74,0-2.6,0-1,2.2-2.34,3-4.16,2.63a3.39,3.39,0,0,1,0-6.6C16.34,8,17.67,8.8,18.7,11Zm-1.36.64a2,2,0,1,0-2,2.06A2,2,0,0,0,17.34,11.65Z"/><path class="cls-1" d="M33.17,10.52v3.3a4.51,4.51,0,0,1,0,.52c0,.43-.25.72-.68.71a.65.65,0,0,1-.68-.72c0-.91,0-1.82,0-2.73V10.51a3.54,3.54,0,0,1-2.42-2,3.34,3.34,0,0,1-.16-2.27,3.39,3.39,0,0,1,6.61.4C36.11,8.34,35.18,9.71,33.17,10.52Zm-.7-1.34a2,2,0,0,0,2-2,2,2,0,1,0-4,0A2,2,0,0,0,32.47,9.18Z"/><path class="cls-1" d="M26.44,30.09a6,6,0,1,1,6,6.09A6.06,6.06,0,0,1,26.44,30.09Zm1.37,0a4.68,4.68,0,1,0,4.71-4.67A4.65,4.65,0,0,0,27.81,30.13Z"/></svg>