<svg id="Layer_1" data-name="Layer 1" xmlns="http://www.w3.org/2000/svg" viewBox="0 0 65 65"><defs><style>.cls-1{fill:#4dc0b3;}</style></defs><path class="cls-1" d="M59.58,40.71h2.26a1,1,0,0,1,1,1.59c-.69,1.64-1.43,3.27-2.1,4.92a1.41,1.41,0,0,1-1.47,1c-2.76,0-5.53,0-8.29,0-4.57,0-9.14,0-13.71,0a1.48,1.48,0,0,1-1.59-1c-.63-1.6-1.35-3.16-2-4.74-.44-1,0-1.67,1.1-1.68h2.16V40c0-3.51,0-7,0-10.52a2.55,2.55,0,0,1,2.72-2.84q8.61,0,17.22,0a2.54,2.54,0,0,1,2.7,2.8c0,3.48,0,7,0,10.46ZM53.74,32.2H42.81v8.47H53.74ZM36.07,42.78c.41.95.83,1.85,1.18,2.78a.8.8,0,0,0,.9.58c3.67,0,7.35,0,11,0h9.24c.23,0,.59-.07.65-.21.49-1,.91-2,1.38-3.13Zm4.65-2.1V40c0-2.85,0-5.69,0-8.54,0-1,.34-1.3,1.31-1.3H54.46c1,0,1.35.34,1.35,1.33v9.23h1.68a2.42,2.42,0,0,0,0-.33c0-3.66,0-7.31,0-11,0-.63-.36-.74-.86-.74q-8.41,0-16.83,0c-.75,0-.88.16-.88.9,0,3.51,0,7,0,10.52v.62Z"/><path class="cls-1" d="M11.17,43.25v-1.4h-.72c-1.6,0-3.19,0-4.78,0a2,2,0,0,1-2-2q0-6.55,0-13.13a1.93,1.93,0,0,1,1.66-1.9,4.39,4.39,0,0,1,.89-.06H22.37c1.86,0,2.58.73,2.58,2.59V39.44a2.12,2.12,0,0,1-2.43,2.41H17.38v1.39h2.38c.88,0,1.22.36,1.23,1.25s0,1.65,0,2.48-.36,1.18-1.11,1.18q-5.61,0-11.22,0c-.73,0-1.07-.4-1.08-1.14,0-.89,0-1.79,0-2.68A1,1,0,0,1,8.7,43.25C9.5,43.23,10.3,43.25,11.17,43.25Zm-5.48-6.7H22.87V26.87H5.69Zm17.17,3.24V38.68H5.7v1.11ZM9.64,46.08h9.29v-.76H9.64Zm5.63-4.18h-2v1.3h2Z"/><path class="cls-1" d="M23.8,14.15c0-2.36,0-4.71,0-7.07a2.65,2.65,0,0,1,2.87-2.91h9.5A2.63,2.63,0,0,1,39,7q0,7.14,0,14.28a2.64,2.64,0,0,1-2.9,2.88q-4.73,0-9.43,0a2.66,2.66,0,0,1-2.9-2.89C23.79,18.91,23.8,16.53,23.8,14.15Zm13.14,3.67a2.84,2.84,0,0,0,.05-.38C37,14,37,10.51,37,7c0-.14,0-.33-.06-.43a1,1,0,0,0-.53-.36c-.12,0-.35.19-.42.34-.23.5-.41,1-.61,1.54a1.12,1.12,0,0,1-1.12.78H28.58a1.09,1.09,0,0,1-1.11-.79c-.19-.52-.39-1-.62-1.53-.08-.16-.3-.36-.43-.34a.88.88,0,0,0-.52.37,1.13,1.13,0,0,0-.06.56c0,3.35,0,6.71,0,10.07,0,.18,0,.37,0,.57ZM25.83,19.93V21c0,1,.13,1.15,1.13,1.15h8.16c2,0,2.08-.14,1.84-2.12l-.06-.09Zm8-13.64H29c0,.47.24.59.64.59,1.18,0,2.37,0,3.55,0C33.63,6.89,33.82,6.72,33.84,6.29Z"/><path class="cls-1" d="M21.33,56.87H16a4.79,4.79,0,0,1-5-4.95c0-.53,0-1.06,0-1.59a1,1,0,1,1,2,0c0,.55,0,1.1,0,1.66a2.73,2.73,0,0,0,2.83,2.81c3.79,0,7.57,0,11.35,0a.56.56,0,0,0,.6-.41,3.91,3.91,0,0,1,7.25,0,.58.58,0,0,0,.64.44c3.76,0,7.52,0,11.28,0a2.74,2.74,0,0,0,2.87-2.9c0-.55,0-1.11,0-1.66a1,1,0,0,1,1-1,1,1,0,0,1,1,1,15.35,15.35,0,0,1-.06,2.54,4.72,4.72,0,0,1-4.86,4.07c-3.7,0-7.4,0-11.09,0-.43,0-.67.07-.85.53a3.88,3.88,0,0,1-7.15,0,.74.74,0,0,0-.83-.55C25.12,56.88,23.22,56.87,21.33,56.87Zm11.94-1A1.87,1.87,0,0,0,31.46,54a1.88,1.88,0,1,0-.06,3.75A1.84,1.84,0,0,0,33.27,55.89Z"/><path class="cls-1" d="M51.86,17.51v4.07c0,.76-.39,1.22-1,1.23s-1-.47-1-1.25c0-2.57,0-5.14,0-7.71a2.77,2.77,0,0,0-3-3H43.17c-.75,0-1.19-.4-1.17-1a1,1,0,0,1,1.15-1A40.89,40.89,0,0,1,48,8.94a4.58,4.58,0,0,1,3.87,4.55c0,1.34,0,2.68,0,4Z"/><path class="cls-1" d="M11,17.16c0-1.09,0-2.17,0-3.25a4.8,4.8,0,0,1,5.11-5.1h3.5c.8,0,1.27.39,1.27,1s-.47,1-1.27,1H16A2.74,2.74,0,0,0,13,13.74c0,2.25,0,4.5,0,6.76,0,.19,0,.38,0,.57a1,1,0,1,1-2,0c0-1.29,0-2.59,0-3.88Z"/></svg>