<svg id="Layer_1" data-name="Layer 1" xmlns="http://www.w3.org/2000/svg" viewBox="0 0 65 65"><defs><style>.cls-1{fill:#4dc0b3;}</style></defs><path class="cls-1" d="M6,15.12A3.07,3.07,0,0,1,8.25,12L23.43,6.3c2.78-1,5.55-2.11,8.34-3.11a2.54,2.54,0,0,1,1.59,0Q45.14,7.55,56.88,12a3.11,3.11,0,0,1,2.19,3.67c-.47,4.4-.89,8.8-1.33,13.2L56.27,43.42c0,.34-.05.69-.09,1a3.18,3.18,0,0,1-1.39,2.43L34.43,61.41a2.92,2.92,0,0,1-3.77,0Q20.54,54.16,10.42,46.93A3.34,3.34,0,0,1,9,44.39Q7.89,33.71,6.83,23C6.56,20.33,6.28,17.65,6,15.12Zm6.14,1.71c0,.15,0,.24,0,.33q.67,6.75,1.34,13.48.57,5.64,1.12,11.27a1.71,1.71,0,0,0,.78,1.34Q23.71,49.15,32,55.09a.85.85,0,0,0,1.19,0q8.22-5.91,16.48-11.76a1.89,1.89,0,0,0,.88-1.5q1.17-12.1,2.41-24.2c.06-.62-.08-.87-.66-1.08q-9.51-3.52-19-7.11a1.83,1.83,0,0,0-1.38,0q-7.24,2.76-14.53,5.46Z"/><path class="cls-1" d="M44.11,44.35a2.84,2.84,0,0,1-2.5-1.88c-1-2.12-1.9-4.24-2.82-6.37a.84.84,0,0,0-.92-.6q-5.32,0-10.64,0a.81.81,0,0,0-.87.58q-1.42,3.3-2.92,6.56a2.93,2.93,0,0,1-5.59-1,3.4,3.4,0,0,1,.28-1.54Q24,26.94,29.83,13.77a3,3,0,0,1,5.47,0Q41.18,27,47,40.17A3,3,0,0,1,44.11,44.35ZM29.26,29.58h6.62l-3.31-7.44Z"/></svg>