<svg id="Layer_1" data-name="Layer 1" xmlns="http://www.w3.org/2000/svg" viewBox="0 0 65 65"><defs><style>.cls-1{fill:blue;}.cls-2{fill:#f3f945;}</style></defs><path class="cls-1" d="M1,10.48a12.73,12.73,0,0,1,.73-1.17c1.5-1.9,3-3.78,4.53-5.67a1.34,1.34,0,0,1,2.36-.05c1.54,1.89,3.07,3.8,4.6,5.7.13.16.23.33.36.49a1.26,1.26,0,0,1-1,2.11c-.4,0-.8,0-1.26,0V29.51c0,1.38-.4,1.77-1.76,1.78H5.33c-1.31,0-1.76-.44-1.76-1.74V11.93c-1,0-2.21.17-2.57-1.21Zm4-1.2A1.53,1.53,0,0,1,6.18,11c0,5.63,0,11.26,0,16.89v.72H8.75v-.75c0-5.47,0-10.94,0-16.41,0-.94-.1-1.9,1.17-2.2L7.46,6.21Z"/><path class="cls-2" d="M16.87,2.84a1.5,1.5,0,0,1,.92,1.24,1.26,1.26,0,0,1-1.26,1.33c-.85,0-1.69,0-2.54,0a1.28,1.28,0,0,1-1.33-1A1.33,1.33,0,0,1,13.39,3l.21-.12Z"/><path class="cls-2" d="M24.62,2.84a1.51,1.51,0,0,1,.93,1.24,1.27,1.27,0,0,1-1.27,1.33c-.84,0-1.69,0-2.54,0a1.28,1.28,0,0,1-1.33-1A1.32,1.32,0,0,1,21.15,3l.2-.12Z"/><path class="cls-2" d="M32.38,2.84a1.5,1.5,0,0,1,.92,1.24A1.26,1.26,0,0,1,32,5.41c-.85,0-1.7,0-2.54,0a1.28,1.28,0,0,1-1.33-1A1.33,1.33,0,0,1,28.9,3l.21-.12Z"/><path class="cls-2" d="M40.13,2.84a1.51,1.51,0,0,1,.93,1.24,1.27,1.27,0,0,1-1.27,1.33c-.84,0-1.69,0-2.54,0a1.28,1.28,0,0,1-1.33-1A1.32,1.32,0,0,1,36.66,3l.2-.12Z"/><path class="cls-2" d="M47.89,2.84a1.5,1.5,0,0,1,.92,1.24,1.27,1.27,0,0,1-1.27,1.33c-.84,0-1.69,0-2.53,0a1.28,1.28,0,0,1-1.33-1A1.31,1.31,0,0,1,44.41,3l.21-.12Z"/><path class="cls-2" d="M55.64,2.84a1.53,1.53,0,0,1,.93,1.24A1.27,1.27,0,0,1,55.3,5.41c-.85,0-1.69,0-2.54,0a1.28,1.28,0,0,1-1.33-1A1.33,1.33,0,0,1,52.16,3l.21-.12Z"/><path class="cls-2" d="M62.06,2.84a1.53,1.53,0,0,1,1,1.69c0,.32,0,.64,0,1a1.3,1.3,0,0,1-1.14,1.22,1.32,1.32,0,0,1-1.36-.87c-.06-.16-.14-.39-.25-.42a1.27,1.27,0,0,1-1.1-1.25,1.37,1.37,0,0,1,1-1.33Z"/><path class="cls-1" d="M37.22,46.85v2.46l.57.14a2.52,2.52,0,0,1,2,2.45c0,2.62,0,5.25,0,7.87a2.51,2.51,0,0,1-2.16,2.47,4,4,0,0,1-.78.06q-15.13,0-30.28,0a4.27,4.27,0,0,1-1.19-.15A2.54,2.54,0,0,1,3.58,59.6q0-3.76,0-7.51c0-1.54.86-2.45,2.55-2.76V46.88s0-.06-.08-.07c-1.91-.49-2.48-1.22-2.48-3.2V36.76a2.63,2.63,0,0,1,2.88-2.9H36.92a2.61,2.61,0,0,1,2.85,2.86v6.85C39.77,45.6,39.22,46.32,37.22,46.85Zm-31-10.38v7.67H37.15V36.47Zm0,23.19H37.14V52H6.21ZM34.56,46.84H8.79v2.5H34.56Z"/><path class="cls-1" d="M53.93,62.3H51.64c-2.54,0-5.08,0-7.63,0-1.19,0-1.66-.46-1.66-1.64,0-1.51,0-3,0-4.54,0-1.12.46-1.57,1.59-1.57H54c0-.45,0-.83,0-1.21a1.32,1.32,0,0,1,.77-1.27,1.27,1.27,0,0,1,1.41.22c2.05,1.64,4.09,3.29,6.14,4.92,1,.77,1,1.61,0,2.38-2.08,1.66-4.14,3.35-6.24,5A1.24,1.24,0,0,1,54,63.76,10.81,10.81,0,0,1,53.93,62.3Zm2.68-1.43,3.06-2.46L56.6,56a1.51,1.51,0,0,1-1.74,1.17c-3.07,0-6.14,0-9.21,0H45V59.7h.75c3,0,6,0,9,0C55.63,59.68,56.32,59.87,56.61,60.87Z"/><path class="cls-2" d="M16.51,17.06c.45,0,.89,0,1.33,0a1.25,1.25,0,0,1,1.23,1.3,1.22,1.22,0,0,1-1.21,1.26,24.68,24.68,0,0,1-2.72,0,1.22,1.22,0,0,1-1.2-1.27,1.26,1.26,0,0,1,1.24-1.3C15.62,17,16.07,17.06,16.51,17.06Z"/><path class="cls-2" d="M48.82,33.92c0,.42,0,.85,0,1.27a1.29,1.29,0,0,1-2.57,0c0-.86,0-1.73,0-2.6a1.25,1.25,0,0,1,1.26-1.27,1.29,1.29,0,0,1,1.32,1.3c0,.44,0,.88,0,1.33Z"/><path class="cls-2" d="M46.23,41.58c0-.43,0-.85,0-1.27a1.27,1.27,0,0,1,1.29-1.26,1.24,1.24,0,0,1,1.29,1.24c0,.89,0,1.78,0,2.66a1.25,1.25,0,0,1-1.31,1.23,1.27,1.27,0,0,1-1.27-1.27C46.2,42.46,46.23,42,46.23,41.58Z"/><path class="cls-2" d="M39.72,19.65c-.43,0-.85,0-1.27,0a1.29,1.29,0,0,1,0-2.58c.87,0,1.74,0,2.6,0a1.29,1.29,0,0,1,0,2.58c-.45,0-.89,0-1.33,0Z"/><path class="cls-2" d="M46.23,49.37c0-.45,0-.89,0-1.33a1.26,1.26,0,0,1,1.3-1.24A1.23,1.23,0,0,1,48.8,48a24.68,24.68,0,0,1,0,2.72,1.23,1.23,0,0,1-1.26,1.21,1.26,1.26,0,0,1-1.3-1.24C46.2,50.25,46.23,49.81,46.23,49.37Z"/><path class="cls-2" d="M32,19.65c-.43,0-.85,0-1.27,0a1.26,1.26,0,0,1-1.25-1.29,1.24,1.24,0,0,1,1.25-1.28c.89,0,1.78,0,2.66,0a1.23,1.23,0,0,1,1.22,1.25,1.26,1.26,0,0,1-1.22,1.32c-.46,0-.93,0-1.39,0Z"/><path class="cls-2" d="M24.24,19.65c-.42,0-.85,0-1.27,0a1.29,1.29,0,0,1,0-2.58c.85,0,1.7,0,2.54,0a1.26,1.26,0,0,1,1.31,1.3,1.28,1.28,0,0,1-1.32,1.29c-.42,0-.85,0-1.27,0Z"/><path class="cls-2" d="M48.82,26.15c0,.42,0,.84,0,1.27a1.26,1.26,0,0,1-1.28,1.25,1.24,1.24,0,0,1-1.29-1.24c0-.89,0-1.78,0-2.66a1.29,1.29,0,0,1,2.57,0c0,.46,0,.92,0,1.39Z"/><path class="cls-2" d="M60.47,11.89c0-.46,0-.93,0-1.39a1.27,1.27,0,0,1,2.53,0,26.9,26.9,0,0,1,0,2.84,1.26,1.26,0,0,1-1.31,1.17,1.27,1.27,0,0,1-1.23-1.25c0-.44,0-.88,0-1.33Z"/><path class="cls-2" d="M63,27.41c0,.42,0,.85,0,1.27A1.3,1.3,0,0,1,61.71,30a1.27,1.27,0,0,1-1.24-1.3c0-.86,0-1.73,0-2.6a1.27,1.27,0,0,1,1.27-1.27A1.3,1.3,0,0,1,63,26.08C63.05,26.52,63,27,63,27.41Z"/><path class="cls-2" d="M63,35.14c0,.44,0,.89,0,1.33a1.29,1.29,0,0,1-1.29,1.26,1.26,1.26,0,0,1-1.27-1.26c0-.89,0-1.78,0-2.67a1.26,1.26,0,0,1,1.24-1.23A1.28,1.28,0,0,1,63,33.81C63.05,34.25,63,34.7,63,35.14Z"/><path class="cls-2" d="M60.47,19.63c0-.44,0-.89,0-1.33a1.27,1.27,0,0,1,1.24-1.24A1.25,1.25,0,0,1,63,18.23a27.09,27.09,0,0,1,0,2.85A1.27,1.27,0,0,1,60.47,21c0-.46,0-.92,0-1.39Z"/><path class="cls-2" d="M60.47,42.93c0-.46,0-.93,0-1.39a1.28,1.28,0,0,1,2.55,0c0,.93,0,1.86,0,2.79a1.28,1.28,0,0,1-2.55-.05C60.45,43.82,60.47,43.37,60.47,42.93Z"/><path class="cls-2" d="M60.47,50.67c0-.47,0-.93,0-1.4a1.27,1.27,0,0,1,2.53,0,26.9,26.9,0,0,1,0,2.84,1.25,1.25,0,0,1-1.31,1.16A1.26,1.26,0,0,1,60.47,52c0-.45,0-.89,0-1.33Z"/><path class="cls-2" d="M48.84,19a6.51,6.51,0,0,1-.07.87,1.21,1.21,0,0,1-1.11,1,1.32,1.32,0,0,1-1.35-.81,1.18,1.18,0,0,0-.53-.53A1.33,1.33,0,0,1,45,18.23,1.19,1.19,0,0,1,46,17.1a8.57,8.57,0,0,1,1.68,0,1.19,1.19,0,0,1,1.08,1.06C48.83,18.43,48.82,18.71,48.84,19Z"/><path class="cls-2" d="M11.39,39.05c.44,0,.89,0,1.33,0a1.27,1.27,0,0,1,0,2.53,26.9,26.9,0,0,1-2.84,0,1.24,1.24,0,0,1-1.16-1.3A1.27,1.27,0,0,1,10,39.05c.46,0,.93,0,1.39,0Z"/><path class="cls-2" d="M34.58,40.3a1.27,1.27,0,0,1-1.28,1.31A1.3,1.3,0,0,1,32,40.35a1.27,1.27,0,0,1,1.29-1.3A1.24,1.24,0,0,1,34.58,40.3Z"/><path class="cls-2" d="M11.37,54.56c.44,0,.89,0,1.33,0a1.28,1.28,0,0,1,1.22,1.26,1.26,1.26,0,0,1-1.2,1.29c-.92,0-1.85,0-2.78,0a1.28,1.28,0,0,1,0-2.55C10.44,54.54,10.91,54.56,11.37,54.56Z"/><path class="cls-2" d="M34.58,55.84a1.28,1.28,0,0,1-1.25,1.28A1.31,1.31,0,0,1,32,55.82a1.27,1.27,0,0,1,1.33-1.26A1.23,1.23,0,0,1,34.58,55.84Z"/></svg>