<svg id="Layer_1" data-name="Layer 1" xmlns="http://www.w3.org/2000/svg" viewBox="0 0 65 65"><defs><style>.cls-1{fill:#190f2d;}</style></defs><path class="cls-1" d="M1.69,2.34c0-.26.27-.3.37-.48H9.43A3.14,3.14,0,0,1,7.91,3.45c-1.29.06-2.57,0-3.86,0a1.14,1.14,0,0,0-.7.1c-.21.19-.15.44-.16.68,0,.9,0,1.8,0,2.71A1.89,1.89,0,0,1,2,8.5c-.24.05-.33,0-.32-.27C1.67,6.27,1.57,4.3,1.69,2.34Z"/><path class="cls-1" d="M8.1,3.29,9.43,1.86h9.9a.29.29,0,0,1-.06.42,9.94,9.94,0,0,1-1.34,1.17c-3.12.06-6.23,0-9.34,0A.53.53,0,0,1,8.1,3.29Z"/><path class="cls-1" d="M18.12,3.29c.07-.34.34-.51.59-.7s.56-.36.62-.73H29a.25.25,0,0,1,0,.33,3.75,3.75,0,0,1-1.42,1.26c-3,.06-5.93,0-8.9,0A.62.62,0,0,1,18.12,3.29Z"/><path class="cls-1" d="M46,1.86c.27.22.57.42.47.84a4.27,4.27,0,0,1-.89.86c-.18.12-.36.26-.6.13a2.07,2.07,0,0,0-.25-.15A2,2,0,0,0,44,3.48c-2.39,0-4.79,0-7.18,0-.48-.25-.15-.51,0-.7s.64-.59,1-.88Z"/><path class="cls-1" d="M37.81,1.86c-.07.4-.39.6-.68.8a1.69,1.69,0,0,0-.53.63c-.2.23-.48.18-.73.19H28.51c-.25,0-.53,0-.73-.19.34-.53,1-.8,1.21-1.43Z"/><path class="cls-1" d="M56.66,38.45l.05.71c.38-.16.74-.29,1.08-.45a.76.76,0,0,1,1,.25,14.13,14.13,0,0,1,1.49,2.4A.84.84,0,0,1,60,42.48c-.4.34-.8.68-1.21,1s-.43.45-.24.82a2.16,2.16,0,0,1,.16.58.63.63,0,0,0,.7.57c.5,0,1,.09,1.5.15a.9.9,0,0,1,.91,1,14.81,14.81,0,0,1,.06,2.58.91.91,0,0,1-.85.86c-.52.08-1,.19-1.55.25-.36,0-.45.25-.58.56-.33.84-.05,1.32.67,1.8,1.48,1,1.46,1.06.64,2.66-.26.5-.55,1-.85,1.46a.77.77,0,0,1-1,.33c-.52-.21-1.07-.35-1.58-.58s-.59,0-.88.23a1.31,1.31,0,0,0-.28,1.86c.68,1.3.61,1.37-.62,2.22-.54.36-1.11.65-1.67,1a.85.85,0,0,1-1.21-.23c-.27-.33-.57-.63-.82-1a.71.71,0,0,0-.92-.26c-1,.38-1.06.35-1.13,1.48a9.76,9.76,0,0,1-.13,1.07.73.73,0,0,1-.66.68,14.87,14.87,0,0,1-2.83.11.83.83,0,0,1-.85-.77c-.08-.52-.21-1-.27-1.54s-.29-.55-.67-.7c-.84-.33-1.27,0-1.72.69-1,1.47-1,1.46-2.58.67-.48-.25-.93-.55-1.41-.8A.9.9,0,0,1,37.75,60c.16-.48.31-1,.51-1.42s0-.57-.2-.88c-.55-.7-1.08-.64-1.81-.3-1.66.79-1.68.75-2.7-.8a5.14,5.14,0,0,1-.61-1.1c.9-.79,1.84-1.53,2.69-2.38.16-.16.34-.41.66-.26.17.34,0,.57-.24.8a12.81,12.81,0,0,1-1.19,1c-.31.26-.27.49-.09.78s.35.63.79.46.83-.33,1.23-.52a1.13,1.13,0,0,1,1.47.25,11.78,11.78,0,0,0,1.37,1.27,1.21,1.21,0,0,1,.42,1.6c-.14.29-.24.6-.35.9s-.24.73.28,1,.77.22,1.05-.24.47-.61.68-.93A1.07,1.07,0,0,1,43,58.76a17.47,17.47,0,0,0,2.12.47,1,1,0,0,1,.85.83c.12.49.18,1,.28,1.48a.57.57,0,0,0,.73.52c.37-.05.73-.11.73-.61s.12-.84.13-1.26a1.07,1.07,0,0,1,.89-1.07,17.64,17.64,0,0,0,2.14-.66.89.89,0,0,1,.94.22,7,7,0,0,1,.93,1c.32.38.61.24.94,0s.62-.46.35-.87a2.07,2.07,0,0,1,.67-3.15,1.72,1.72,0,0,0,.29-.31c.77-.92.88-.95,2-.58.23.08.46.15.68.25.38.16.71.28,1-.22s.3-.69-.23-1.1a9.13,9.13,0,0,1-1.08-.87,1,1,0,0,1-.29-1.1,9.26,9.26,0,0,0,.45-1.94,1.14,1.14,0,0,1,.95-1c.45-.11.91-.16,1.36-.25s.46-.46.48-.83a.51.51,0,0,0-.49-.61c-.5-.08-1-.07-1.5-.19a1.09,1.09,0,0,1-.91-.85A15.48,15.48,0,0,0,56.72,44a1,1,0,0,1,.26-1.1,14.53,14.53,0,0,1,1.19-1c.41-.33.19-.62,0-.94s-.37-.51-.76-.29a10.78,10.78,0,0,1-1,.46,1.36,1.36,0,0,1-2-.81,10.5,10.5,0,0,1,2.06-1.82A.24.24,0,0,1,56.66,38.45Z"/><path class="cls-1" d="M36.22,52.82c-.85.76-1.71,1.51-2.56,2.28a1.35,1.35,0,0,1-.72.39c-.48-.81-.44-1,.26-1.55a4.69,4.69,0,0,0,1-1.11H20.78c0-.38,0-.38.6-1.06-.19-.16-.42-.1-.62-.1H14.14c-.31,0-.66.09-.87-.25.17-.27.46-.22.71-.22H32.8c.23,0,.44,0,.64.06-.43-.1-.9-.07-1.36-.17-.69-.15-1-.38-1-1.06a16,16,0,0,1,0-2.77.88.88,0,0,1,.76-.83c.51-.12,1-.23,1.54-.3s.55-.32.64-.69.21-.74-.19-1l-1.15-.88a1,1,0,0,1-.43-1.37,9.65,9.65,0,0,1,1.35-2.48,1,1,0,0,1,1.12-.37,13.13,13.13,0,0,1,1.38.46.78.78,0,0,0,1-.21c.3-.38.57-.71.26-1.23a7.51,7.51,0,0,1-.5-1.16,1,1,0,0,1,.34-1.34,12,12,0,0,1,2.47-1.5.94.94,0,0,1,1.14.29q.53.56,1,1.14a.72.72,0,0,0,.9.27c.4-.14.83-.24.86-.78s.11-1,.16-1.44a1,1,0,0,1,.81-.94,10.13,10.13,0,0,1,3.06-.1.88.88,0,0,1,.8.73,10.89,10.89,0,0,1,.35,2.13c-.3.87-.88,1.18-1.52.82a3.41,3.41,0,0,1-.36-1.39c-.06-.49-.34-.56-.75-.57s-.7.15-.72.61-.1.92-.16,1.37a1,1,0,0,1-.85,1,20.1,20.1,0,0,0-2,.58,1.21,1.21,0,0,1-1.48-.47c-.24-.34-.57-.62-.82-1s-.52-.19-.79,0-.59.34-.41.75.39.93.6,1.39a1,1,0,0,1-.22,1.21c-.52.56-1.07,1.08-1.56,1.67a1,1,0,0,1-1.15.29c-.46-.16-.92-.31-1.37-.49a.52.52,0,0,0-.74.28c-.16.34-.36.66,0,1s.75.55,1.11.83A1.18,1.18,0,0,1,36,44.86a12.12,12.12,0,0,0-.45,1.87,1.15,1.15,0,0,1-1,1c-.46.11-.91.17-1.37.25s-.46.41-.47.77.11.61.53.66l1.25.14a1.24,1.24,0,0,1,1.19,1.08,8.24,8.24,0,0,0,.46,1.56C36.28,52.4,36.41,52.61,36.22,52.82Z"/><path class="cls-1" d="M11.83,40.63c0-.71,0-1.41,0-2.11,0-.46-.13-.58-.58-.58-2.85,0-5.71,0-8.57,0-.81,0-1.08-.27-1.08-1.09q0-13.93,0-27.87c0-.12,0-.24,0-.36.35.14.27.47.27.72,0,2.41,0,4.82,0,7.23,0,3.25,0,6.49,0,9.74s0,6.46,0,9.74a1.33,1.33,0,0,0,.94-1.34c0-3.08,0-6.16,0-9.24s0-6.47,0-9.71a5.25,5.25,0,0,1,0-1.13c.05-.38.17-.91.27-.91s.16.27.21,1.5c.18,11.68.2,18.75,0,19.78,0,.13-.16.72.15,1,.15.15.45.15,1,.15h6c1.07,0,1.08,0,1.08-1.05,0-2.63,0-5.26,0-7.9a2.36,2.36,0,0,1,.1-.95.51.51,0,0,1,.19-.22A2.16,2.16,0,0,0,13,23.79c-.06-1.6,0-3.22,0-4.82,0-.24-.16-.64.34-.65a1.58,1.58,0,0,1,.14.93c0,2.43,0,4.85,0,7.27a1.81,1.81,0,0,0,.09.83c.2.24.48.18.73.18h8.38a3.39,3.39,0,0,1,.84,0c.29.13.25.35.1.53a3.4,3.4,0,0,1-1.18,1.05c-2.33.09-4.66,0-7,0H14.14a.65.65,0,0,0-.56.17,3.73,3.73,0,0,0-.1,1.41,12.29,12.29,0,0,1-.06,1.49,2.75,2.75,0,0,0-.08.9c0,2,0,3.93,0,5.89A1.71,1.71,0,0,1,11.83,40.63Z"/><path class="cls-1" d="M47.25,36.4c.59.19,1,0,1.31-.74a1.33,1.33,0,0,1,.88.11.88.88,0,0,0,1.12-.43,10.34,10.34,0,0,1,.65-.87c.53-.68.81-.75,1.6-.45a13.46,13.46,0,0,1,2.09,1.12c.17-.12.13-.25.13-.36a29.74,29.74,0,0,0,0-7.71c0-.19-.08-.52-.17-.93H51.32c.12-.38.44-.28.7-.29q1.32,0,2.64,0a1.69,1.69,0,0,0,1.21-.43c.21-.19.44-.43.79-.24V38.45A15.2,15.2,0,0,0,54.8,40c-.13.12-.24.27-.44.27A1.69,1.69,0,0,1,53,38c.11-.36.22-.73.36-1.08a.53.53,0,0,0-.32-.78c-.34-.16-.65-.34-.94.08s-.55.75-.82,1.12a1.06,1.06,0,0,1-1.16.46c-.76-.19-1.53-.35-2.29-.54C47.32,37.14,47.17,36.9,47.25,36.4Z"/><path class="cls-1" d="M56.66,25.17a.7.7,0,0,0-.54.24,1.9,1.9,0,0,1-1.73.61,16.35,16.35,0,0,0-3,.08l-10.16,0a.83.83,0,0,1,.19-.15,1.27,1.27,0,0,1,.77-.07,11.77,11.77,0,0,1,1.68,0,2.47,2.47,0,0,0,1-.08,4.93,4.93,0,0,0,1.27-.86l.3-.24,8,0a.83.83,0,0,0,.54-.29A1,1,0,0,0,55,23.6c-.28-1.68.16-4.44-.06-5.12a.45.45,0,0,1,0-.31.57.57,0,0,1,.22-.32,7.42,7.42,0,0,0,1-1,.68.68,0,0,1,.5.78C56.67,20.14,56.66,22.65,56.66,25.17Z"/><path class="cls-1" d="M45.07,3.67a2.07,2.07,0,0,0,.9-.61c.15-.15.27-.35.52-.36V9.59c-.27.29-.57.59-.91.9s-.52.46-.77.66H33.88a5.61,5.61,0,0,0,.7-.53,5.75,5.75,0,0,0,.81-.9l8.66-.07a.89.89,0,0,0,.69-.25,1,1,0,0,0,.12-.71c0-1.39,0-2.78,0-4.17C44.87,4.23,44.82,3.91,45.07,3.67Z"/><path class="cls-1" d="M3.14,14.18c-.26.51,0,1.05-.13,1.57-.38.37-.69.85-1.31.84,0-2.43,0-4.87,0-7.3,0-.22.07-.45-.07-.65,0-2,0-3.94,0-5.91a.5.5,0,0,1,.1-.39V8.41A1.66,1.66,0,0,0,3,6.75V3.87c0-.19-.07-.41.13-.56a.82.82,0,0,1,.12.2,3,3,0,0,1,.06.9c0,2.43,0,4.86,0,7.3a1.22,1.22,0,0,0,.12.7,1,1,0,0,0,.21.26,27.82,27.82,0,0,1,3.76.06s-.11,0-.23.12a.74.74,0,0,0-.23.42,3,3,0,0,1-.45.89Z"/><path class="cls-1" d="M11.83,40.63c.52-.18.78-.68,1.22-1,.19-.12.12-.37.12-.57V32.93a1,1,0,0,1,.09-.64.72.72,0,0,1,.22.66c0,3.7,0,7.4,0,11.11a2.2,2.2,0,0,1,0,.36,2.87,2.87,0,0,0-.1.88c0,1.7,0,3.4,0,5.1a2,2,0,0,1-1.16,1.52.35.35,0,0,1-.34-.07Z"/><path class="cls-1" d="M44.81,11.15a4.74,4.74,0,0,1,1.68-1.56l0,7.21a.31.31,0,0,1,0,.13.39.39,0,0,1-.17.28c-.14.14-.56.52-1.15,1H40.68a2.58,2.58,0,0,1,.13-.31A3,3,0,0,1,42,16.71a13.53,13.53,0,0,1,2.11-.06c.65,0,.72-.06.71-.68C44.85,14.36,44.93,12.75,44.81,11.15Z"/><path class="cls-1" d="M44.76,18.22,46,17.38l.5-.58,8.8,0,.85,0a1.55,1.55,0,0,1-.74,1h0a1,1,0,0,0-.25.43Z"/><path class="cls-1" d="M11.83,51.85a1.8,1.8,0,0,0,1.34-1.56V45.13c0-.22-.06-.45.09-.64a.66.66,0,0,1,.22.6c0,1.88,0,3.77,0,5.66a.88.88,0,0,1-.19.62c.18.2.42.12.63.12h7.3c.2,0,.5-.14.57.13s-.19.34-.36.44a1.46,1.46,0,0,0-.65.76c-2.73,0-5.45,0-8.18,0C12,52.84,11.81,52.64,11.83,51.85Z"/><path class="cls-1" d="M3.15,3.43a.24.24,0,0,1,0-.12l4.95,0H36.6l7.83,0c.2,0,.44-.12.6.13a1.57,1.57,0,0,1-1.1.18H4.25A1.56,1.56,0,0,1,3.15,3.43Z"/><path class="cls-1" d="M13.3,27.59l23.88,0a.94.94,0,0,0,.73-.34c.75-.76,1.51-1.5,2.26-2.26a1,1,0,0,1,.79-.36c1.81,0,3.61,0,5.42,0A2.15,2.15,0,0,1,44.47,26h-2.7c-.19,0-.4-.06-.57.1-.85.83-1.71,1.65-2.53,2.5a1.61,1.61,0,0,1-1.28.53q-11.65,0-23.31,0H13.3c.19-.21.45-.11.68-.11h8.61a1.71,1.71,0,0,1,1-.19c2.36,0,4.71,0,7.06,0A1.92,1.92,0,0,0,32.26,28a1,1,0,0,0-.72-.11H24.6a1.38,1.38,0,0,1-.93-.18H14C13.75,27.7,13.5,27.79,13.3,27.59Z"/><path class="cls-1" d="M17.76,18.26l-4.46,0c-.21.17-.12.41-.13.61v5.47a1.75,1.75,0,0,1-1.34,1.88V22.53q-.12-2.55,0-5.1a.66.66,0,0,1,.75-.62l6.39,0c.1.29-.09.47-.27.61S18.09,18,17.76,18.26Z"/><path class="cls-1" d="M3,25.52c0,3.24,0,6.47,0,9.7,0,.52-.41.59-.68.82s-.31.5-.54.39S1.7,36,1.7,35.71V26.37C2.08,26,2.35,25.46,3,25.52Z"/><path class="cls-1" d="M3,25.52c-.54.13-.81.67-1.31.85V16.59L3,15.75Z"/><path class="cls-1" d="M23.67,27.71c2.86,0,5.71,0,8.56,0,.15,0,.36-.09.43.1s-.13.27-.23.37a2.6,2.6,0,0,1-2.07.88c-2.59-.09-5.18,0-7.77,0C22.87,28.52,23.5,28.3,23.67,27.71Z"/><path class="cls-1" d="M55.19,38.93c-.48-.12-.64-.4-.45-.87s.22-.64.34-1c0-.06,0-.19.11,0a.86.86,0,0,1,0,.17A5.57,5.57,0,0,1,55.19,38.93Z"/><path class="cls-1" d="M55.19,38.93l0-1.68A2.55,2.55,0,0,1,55.19,38.93Z"/><path class="cls-1" d="M34.43,11.15c-1,0-2,0-3,0a.93.93,0,0,0-.74.3c-.76.78-1.53,1.54-2.3,2.31a1.11,1.11,0,0,1-.83.41l-8.21,0a.54.54,0,0,1,.28-.6c.33-.25.61-.56.93-.83,2.1,0,4.21,0,6.31,0a1.06,1.06,0,0,0,.85-.35c.73-.77,1.48-1.52,2.22-2.28a1.13,1.13,0,0,1,.84-.39l4.87,0c0,.39-.42.43-.61.66S34.48,10.78,34.43,11.15Z"/><path class="cls-1" d="M20.54,12.73a1.32,1.32,0,0,1-.68.8,1.62,1.62,0,0,0-.53.63H5.92c.06-.34.35-.46.58-.65s.57-.4.63-.78l7.09,0Z"/><path class="cls-1" d="M40.71,18.26h-5c-.08-.33.14-.52.36-.69s.56-.49.84-.74h4.95C41.7,17.47,41,17.73,40.71,18.26Z"/><path class="cls-1" d="M34.36,8.64H33a.7.7,0,0,1-.78-.73c0-.89,0-1.77,0-2.65A.7.7,0,0,1,33,4.5h2.59a.75.75,0,0,1,.83.83c0,.82,0,1.64,0,2.47a.76.76,0,0,1-.87.84Z"/><path class="cls-1" d="M40.65,8.64H39.39a.68.68,0,0,1-.76-.74c0-.88,0-1.76,0-2.65a.68.68,0,0,1,.75-.75c.88,0,1.76,0,2.64,0a.68.68,0,0,1,.74.76c0,.87,0,1.73,0,2.59a.71.71,0,0,1-.79.78Z"/><path class="cls-1" d="M7,8.17H6.21a.65.65,0,0,1-.67-.63.65.65,0,0,1,.56-.8A10.51,10.51,0,0,1,8,6.73a.65.65,0,0,1,.6.72.66.66,0,0,1-.66.71c-.3,0-.61,0-.91,0Z"/><path class="cls-1" d="M11.85,8.17h-.78a.67.67,0,0,1-.69-.69A.65.65,0,0,1,11,6.73a9,9,0,0,1,1.8,0,.66.66,0,0,1,.6.77.65.65,0,0,1-.65.66c-.3,0-.6,0-.9,0Z"/><path class="cls-1" d="M16.87,8.17a8,8,0,0,1-.85,0,.66.66,0,0,1-.67-.7A.66.66,0,0,1,16,6.72a10.23,10.23,0,0,1,1.75,0,.68.68,0,0,1,.64.8.67.67,0,0,1-.73.65Z"/><path class="cls-1" d="M50.61,42.46a7.11,7.11,0,1,1-10.24,9.39c.41-.34.54-1,1.12-1.1a1.2,1.2,0,0,1,.42.5,5.48,5.48,0,0,0,10-1.88,5.28,5.28,0,0,0-1.47-4.93c-.27-.29-.64-.49-.8-.88C50,43.23,50.48,43,50.61,42.46Z"/><path class="cls-1" d="M50.61,42.46c.09.73-.39.94-1,1.06-.28.11-.5-.08-.73-.19a5.5,5.5,0,0,0-7.82,4.25A6.63,6.63,0,0,0,41.33,50c.06.25.22.49.09.76-.32.38-.51.9-1.05,1.08a7.07,7.07,0,0,1,4.47-10.48A6.8,6.8,0,0,1,50.61,42.46Z"/><path class="cls-1" d="M23,38.92H16.82a1.5,1.5,0,0,1-.66-.08.69.69,0,0,1-.45-.71.65.65,0,0,1,.5-.67,2.81,2.81,0,0,1,.65-.07H29.58c.49,0,.83.28.82.78a.75.75,0,0,1-.8.74c-.26,0-.52,0-.78,0Z"/><path class="cls-1" d="M22.89,43.42H16.5c-.65,0-1-.25-1-.7s.41-.77,1-.77H29.2c.71,0,1.06.29,1,.82s-.43.66-.91.66Z"/><path class="cls-1" d="M22.47,34.33l-6,0c-.47,0-.78-.22-.8-.7s.3-.76.8-.76h7.17c.17.26-.06.4-.19.55A6.58,6.58,0,0,1,22.47,34.33Z"/><path class="cls-1" d="M22.47,34.33c0-.39.42-.43.61-.66s.55-.4.6-.77h5.91c.52,0,.87.33.83.76a.74.74,0,0,1-.83.7Z"/><path class="cls-1" d="M37,16.83c0,.34-.3.52-.54.68a1.76,1.76,0,0,0-.66.75H26.1c-.05-.38.27-.53.48-.74s.47-.47.72-.69Z"/><path class="cls-1" d="M27.3,16.83c-.1.45-.51.64-.78.94s-.28.33-.42.49H17.76a1.27,1.27,0,0,1,.64-.76,1.48,1.48,0,0,0,.57-.67Z"/><path class="cls-1" d="M11.83,17.43v5.1A28.33,28.33,0,0,1,11.76,19,4.62,4.62,0,0,1,11.83,17.43Z"/><path class="cls-1" d="M44.52,19.46h1.27a.73.73,0,0,1,.82.82c0,.82,0,1.65,0,2.47,0,.57-.28.83-.87.84H43.33a.8.8,0,0,1-.9-.84c0-.84,0-1.69,0-2.53a.73.73,0,0,1,.82-.77Z"/><path class="cls-1" d="M50.89,23.6H49.62c-.52,0-.83-.25-.83-.81V20.25a.72.72,0,0,1,.79-.79h2.59a.66.66,0,0,1,.75.74c0,.88,0,1.77,0,2.65a.68.68,0,0,1-.76.74Z"/><path class="cls-1" d="M27,23.12a7.85,7.85,0,0,1-.84,0,.72.72,0,0,1,0-1.43,12.63,12.63,0,0,1,1.74,0,.68.68,0,0,1,.67.72.66.66,0,0,1-.66.71c-.3,0-.61,0-.91,0Z"/><path class="cls-1" d="M17.23,21.67a7.85,7.85,0,0,1,.84,0,.67.67,0,0,1,.66.72.64.64,0,0,1-.65.72,14.6,14.6,0,0,1-1.75,0,.65.65,0,0,1-.62-.74.66.66,0,0,1,.62-.69,5.4,5.4,0,0,1,.9,0Z"/><path class="cls-1" d="M22.11,21.66c.26,0,.52,0,.78,0a.68.68,0,0,1,.69.75.64.64,0,0,1-.67.69c-.56,0-1.12,0-1.68,0a.67.67,0,0,1-.67-.71.67.67,0,0,1,.65-.73,6.76,6.76,0,0,1,.9,0Z"/><path class="cls-1" d="M33.74,6.54C33.58,5.9,34,6,34.4,6c.58-.06.5.29.54.66.07.6-.28.55-.69.58C33.69,7.23,33.66,6.93,33.74,6.54Z"/><path class="cls-1" d="M40.73,6c.66-.15.54.29.58.67.07.59-.3.5-.66.54-.54.06-.54-.23-.57-.64S40.27,5.86,40.73,6Z"/><path class="cls-1" d="M44.56,21c.55-.13.58.17.61.59s-.26.58-.69.61-.51-.3-.54-.67C43.89,21,44.14,20.85,44.56,21Z"/><path class="cls-1" d="M50.86,22.12c-.54.12-.6-.15-.62-.59s.17-.61.65-.62.58.17.58.62S51.35,22.26,50.86,22.12Z"/></svg>