<svg id="Layer_1" data-name="Layer 1" xmlns="http://www.w3.org/2000/svg" viewBox="0 0 65 65"><defs><style>.cls-1{fill:#190f2d;}</style></defs><path class="cls-1" d="M47.57,42c-1.3.61-2.51,1.19-3.74,1.73-.6.27-1.23.45-1.83.72a.69.69,0,0,0-.38.49c0,2.64,0,5.29,0,7.93a1.23,1.23,0,0,0,0,.21H44c1-2,2.48-2.9,4.26-2.48A3.54,3.54,0,0,1,51,54.07a3.59,3.59,0,0,1-2.77,3.53c-1.79.42-3.25-.42-4.33-2.53H41.07c-1.16,0-1.44-.28-1.44-1.46V45.22l-5.79.87c0,.12,0,.3,0,.48,0,2.76,0,5.53,0,8.3a.63.63,0,0,0,.45.72,3.59,3.59,0,1,1-5,4,3.65,3.65,0,0,1,2.1-4c.18-.08.42-.3.43-.46,0-3,0-6,0-9l-5.55-.78c0,.16,0,.37,0,.58,0,2.58,0,5.17,0,7.75,0,1.14-.28,1.42-1.4,1.43-.8,0-1.6,0-2.4,0a.66.66,0,0,0-.75.5,3.59,3.59,0,1,1,0-3,.71.71,0,0,0,.81.51c.57,0,1.14,0,1.75,0,0-.23,0-.41,0-.59,0-2.44,0-4.87,0-7.31a.7.7,0,0,0-.51-.76c-1.65-.7-3.28-1.46-4.92-2.21L18.34,42v5.16c0,1.29-.24,1.53-1.55,1.53s-2.7,0-4.06,0a.73.73,0,0,0-.82.51,3.54,3.54,0,0,1-4,2,3.6,3.6,0,0,1,0-7,3.56,3.56,0,0,1,4.05,2.05.69.69,0,0,0,.77.5c1.2,0,2.4,0,3.67,0,0-1.24,0-2.43,0-3.61a5.83,5.83,0,0,0-.08-2.3c-.3-.6-1.14-.94-1.75-1.39a49.74,49.74,0,0,1-6.4-5.82,1.3,1.3,0,0,1,0-2,48.72,48.72,0,0,1,7.8-6.83c.18-.13.41-.35.41-.54,0-1.88,0-3.76,0-5.72-1.36,0-2.69,0-4,0-.15,0-.33.3-.42.5A3.6,3.6,0,0,1,8.16,21a3.59,3.59,0,1,1,3.74-5.07.78.78,0,0,0,.86.54c1.36,0,2.71,0,4.06,0s1.52.24,1.52,1.55v5.1l.49-.22c1.68-.76,3.36-1.5,5-2.28.19-.09.44-.35.44-.53,0-2.62,0-5.24,0-7.86a.67.67,0,0,0-.06-.16H22c-1.09,2.09-2.55,2.91-4.38,2.44a3.59,3.59,0,0,1,.12-7A3.63,3.63,0,0,1,22,10.06H25c.91,0,1.26.34,1.26,1.26q0,3.91,0,7.81v.66L32.07,19V9.77C29.94,8.64,29.13,7.2,29.6,5.39a3.6,3.6,0,0,1,7,.15,3.64,3.64,0,0,1-2.52,4.21V19l5.54.84V11.44c0-1.09.3-1.38,1.4-1.38H44a3.63,3.63,0,0,1,3.48-2.61,3.57,3.57,0,0,1,3.57,3,3.64,3.64,0,0,1-2.44,4.06,3.53,3.53,0,0,1-4.3-1.82A.91.91,0,0,0,43.21,12c-.5,0-1,0-1.56,0,0,.2,0,.36,0,.52V20c0,.3,0,.51.38.65,1.77.75,3.52,1.55,5.27,2.32l.28.1c0-.23,0-.43,0-.62,0-1.62,0-3.24,0-4.85,0-.81.35-1.17,1.16-1.17h4.55A.61.61,0,0,0,54,16a3.55,3.55,0,0,1,4-2.11A3.6,3.6,0,0,1,58,21,3.58,3.58,0,0,1,54,18.88a.64.64,0,0,0-.67-.46c-1.22,0-2.45,0-3.72,0,0,.25,0,.45,0,.65,0,1.55,0,3.11,0,4.67a1,1,0,0,0,.5.94,40.56,40.56,0,0,1,7.84,6.66c.86.94.86,1.47,0,2.43A41.13,41.13,0,0,1,50,40.4a1,1,0,0,0-.52.93c0,1.76,0,3.52,0,5.36,1.37,0,2.7,0,4,0,.14,0,.31-.27.4-.45a3.62,3.62,0,1,1,0,3,.76.76,0,0,0-.86-.53c-1.41,0-2.83,0-4.24,0-1,0-1.33-.31-1.33-1.31ZM32.45,21.1A11.53,11.53,0,0,0,26.35,23a11,11,0,0,0-2,17.65,12.89,12.89,0,0,0,17.33.13,10.87,10.87,0,0,0,1.06-15.25C40.22,22.51,36.94,21.1,32.45,21.1ZM22.68,41.89c-5.18-6.33-5.14-12.5.05-18.73A39.53,39.53,0,0,0,9.9,32.55,39.37,39.37,0,0,0,22.68,41.89Zm21-18.33a13,13,0,0,1,3.63,9,13.29,13.29,0,0,1-3.52,8.94,39.09,39.09,0,0,0,12.5-8.93C53.69,29.43,46.84,24.51,43.68,23.56Zm12-6.08a1.56,1.56,0,0,0,1.64,1.59,1.62,1.62,0,0,0,0-3.23A1.57,1.57,0,0,0,55.65,17.48ZM33.07,7.86a1.62,1.62,0,1,0,0-3.23,1.62,1.62,0,0,0,0,3.23ZM20.05,11a1.55,1.55,0,0,0-1.59-1.58A1.62,1.62,0,1,0,20.05,11Zm-9.79,6.47a1.56,1.56,0,0,0-1.6-1.63,1.62,1.62,0,1,0,0,3.23A1.56,1.56,0,0,0,10.26,17.47Zm47,28.58a1.56,1.56,0,0,0-1.56,1.62,1.59,1.59,0,0,0,1.63,1.62,1.62,1.62,0,1,0-.07-3.24ZM47.47,9.42a1.62,1.62,0,0,0,0,3.23A1.59,1.59,0,0,0,49.07,11,1.57,1.57,0,0,0,47.47,9.42ZM20.05,54.11a1.58,1.58,0,0,0-1.61-1.64,1.62,1.62,0,1,0,0,3.23A1.57,1.57,0,0,0,20.05,54.11Zm25.81,0a1.57,1.57,0,0,0,1.62,1.63,1.62,1.62,0,1,0-1.62-1.63Zm-35.6-6.41a1.56,1.56,0,0,0-1.57-1.61A1.63,1.63,0,0,0,7,47.67,1.65,1.65,0,0,0,8.7,49.29,1.58,1.58,0,0,0,10.26,47.66ZM32.8,57.27a1.56,1.56,0,0,0-1.59,1.59,1.62,1.62,0,1,0,3.23,0A1.57,1.57,0,0,0,32.8,57.27Z"/><path class="cls-1" d="M32.81,25.87a6.89,6.89,0,0,1,7,6.87A6.78,6.78,0,0,1,34.57,39a7.13,7.13,0,0,1-8.25-4,6.63,6.63,0,0,1,5.09-9C31.87,26,32.35,25.93,32.81,25.87Zm0,2a10.8,10.8,0,0,0-1.27.19A4.72,4.72,0,0,0,28,31.38a4.23,4.23,0,0,0,1.25,4.43,5.25,5.25,0,0,0,6.41.64,4.47,4.47,0,0,0,2.24-3.8A4.89,4.89,0,0,0,32.82,27.84Z"/></svg>