<svg id="Layer_1" data-name="Layer 1" xmlns="http://www.w3.org/2000/svg" viewBox="0 0 65 65"><defs><style>.cls-1{fill:#190f2d;}</style></defs><path class="cls-1" d="M54.31,31.11A22.51,22.51,0,1,1,31.8,8.6,22.51,22.51,0,0,1,54.31,31.11ZM31.8,10A21.15,21.15,0,1,0,53,31.11,21.15,21.15,0,0,0,31.8,10Z"/><path class="cls-1" d="M50.38,31.11A18.58,18.58,0,1,1,31.8,12.53,18.58,18.58,0,0,1,50.38,31.11ZM31.8,13.66A17.45,17.45,0,1,0,49.25,31.11,17.45,17.45,0,0,0,31.8,13.66Z"/><path class="cls-1" d="M42.36,50l9.71,9.37a6.19,6.19,0,0,0,.81.32c.55.17,2.88.88,4.43-.51s.92-4.28.88-4.4a4.29,4.29,0,0,0-.2-.54l-9.26-9.3a23.44,23.44,0,0,1-2.92,2.79A22.21,22.21,0,0,1,42.36,50Z"/><path class="cls-1" d="M30.73,32.86a2.1,2.1,0,1,1-2.09-2.1A2.08,2.08,0,0,1,30.73,32.86Zm-2.09-1a1,1,0,1,0,1,1A1,1,0,0,0,28.64,31.84Z"/><path class="cls-1" d="M37.25,25.46a2.1,2.1,0,1,1-2.1-2.1A2.09,2.09,0,0,1,37.25,25.46Zm-2.1-1a1,1,0,1,0,1,1A1,1,0,0,0,35.15,24.44Z"/><path class="cls-1" d="M22.14,33.18A2.1,2.1,0,1,1,20,31.09,2.1,2.1,0,0,1,22.14,33.18Zm-2.1-1a1,1,0,1,0,1,1A1,1,0,0,0,20,32.16Z"/><path class="cls-1" d="M43.93,27.55a2.1,2.1,0,1,1-2.1-2.09A2.1,2.1,0,0,1,43.93,27.55Zm-2.1-1a1,1,0,1,0,1,1A1,1,0,0,0,41.83,26.54Z"/><path class="cls-1" d="M48.32,31.84a2.1,2.1,0,1,1-2.09-2.1A2.09,2.09,0,0,1,48.32,31.84Zm-2.09-1a1,1,0,1,0,1,1A1,1,0,0,0,46.23,30.82Z"/><path class="cls-1" d="M19.73,35.25c.07,2.88.13,5.77.2,8.65l.88.76q-.12-4.72-.22-9.46Z"/><path class="cls-1" d="M34.7,27.45l.36,21,.71.09-.21-21.19Z"/><path class="cls-1" d="M29.07,34.71l3,4.73,3.06.09-.06-1H32.62c-.92-1.46-1.83-2.93-2.75-4.4"/><path class="cls-1" d="M45.83,33.63c.07,2.68.15,5.36.22,8l1-.32-.1-7.85Z"/><path class="cls-1" d="M41.47,29.62c0,2.14,0,4.29,0,6.43l4.82,3.77V38.61l-3.74-3c-.06-2.07-.13-4.13-.19-6.19"/></svg>