<svg id="Layer_1" data-name="Layer 1" xmlns="http://www.w3.org/2000/svg" viewBox="0 0 65 65"><defs><style>.cls-1{fill:blue;}.cls-2{fill:#f3f945;}</style></defs><path class="cls-1" d="M55.61,40.75h3.23a2.47,2.47,0,0,1,2.56,2.58A13.51,13.51,0,0,1,61,45.39a.94.94,0,0,0,.06.55,3.83,3.83,0,0,1,0,3.29.86.86,0,0,0,0,.59,3.8,3.8,0,0,1,0,3.29.76.76,0,0,0,0,.59,3.87,3.87,0,0,1,0,3.29.88.88,0,0,0,0,.64,3.86,3.86,0,0,1,.16,2.85,2.43,2.43,0,0,1-2.44,1.68c-2.17,0-4.35,0-6.52,0a2.47,2.47,0,0,1-2.56-2.65,14,14,0,0,1,.37-2,.86.86,0,0,0,0-.48,3.79,3.79,0,0,1,0-3.35.8.8,0,0,0,0-.59,3.87,3.87,0,0,1,0-3.29.8.8,0,0,0,0-.59,3.83,3.83,0,0,1,0-3.29.88.88,0,0,0,0-.64,3.89,3.89,0,0,1-.14-2.9,2.45,2.45,0,0,1,2.35-1.63Zm0,2h-3c-.71,0-.85.18-.85,1s.15.95.83.95h6.15c.67,0,.81-.17.82-.9s-.13-1-.8-1Zm0,5.84c1,0,2.06,0,3.1,0,.65,0,.79-.18.8-.92s-.13-1-.76-1H52.45c-.64,0-.77.2-.77,1s.15.93.79.93C53.51,48.56,54.54,48.55,55.58,48.55Zm.06,2h-3.1c-.7,0-.86.18-.86.93s.13,1,.83,1h6.15c.66,0,.81-.17.82-.89s-.13-1-.8-1.05Zm-.06,3.9h-3c-.7,0-.86.18-.86.93s.13,1,.83,1h6.14c.69,0,.83-.17.83-1s-.14-1-.86-1Zm0,5.85H58.7c.63,0,.78-.19.78-.94s-.13-1-.78-1H52.49c-.66,0-.81.19-.81,1s.14,1,.81,1Z"/><path class="cls-1" d="M54.59,19.32l-1.16,1.53-1.56-1.17c1-1.33,2-2.64,3-3.91a.92.92,0,0,1,1.52,0c1,1.27,1.93,2.56,2.93,3.89l-1.55,1.17-1.18-1.54v.78a26.08,26.08,0,0,1-5.4,16.28A29.57,29.57,0,0,1,37.74,46.53a17.47,17.47,0,0,1-5.67,1c-3.15.05-6.3,0-9.45,0-.45,0-.9-.1-1.05-.56a1.16,1.16,0,0,1,.07-.94,1.46,1.46,0,0,1,1-.44c2.52,0,5-.08,7.56,0a20.22,20.22,0,0,0,13.14-4.33,27.71,27.71,0,0,0,9.12-10.9A25.52,25.52,0,0,0,54.59,19.32Z"/><path class="cls-1" d="M42,48.55c1.08,0,2.16,0,3.23,0a2.51,2.51,0,0,1,2.59,2.57,3.56,3.56,0,0,1-.41,2.12c-.07.11,0,.34.07.49a3.83,3.83,0,0,1,0,3.29.89.89,0,0,0,0,.64,3.75,3.75,0,0,1,.12,2.9,2.33,2.33,0,0,1-2.3,1.6c-2.24,0-4.47,0-6.71,0a2.52,2.52,0,0,1-2.5-2.55,3.63,3.63,0,0,1,.4-2.12.66.66,0,0,0,0-.49,3.77,3.77,0,0,1,0-3.34.72.72,0,0,0,0-.54,3.7,3.7,0,0,1-.29-2.55,2.45,2.45,0,0,1,2.46-2C39.72,48.54,40.84,48.55,42,48.55Zm0,2h-3c-.7,0-.85.17-.85.93s.14,1,.84,1H45c.66,0,.81-.19.81-1s-.13-1-.81-1ZM42,54.41H38.82c-.65,0-.79.18-.8.92s.14,1,.77,1h6.27c.63,0,.76-.21.76-1s-.15-.92-.8-.92Zm0,3.9c-1,0-2.07,0-3.1,0-.67,0-.82.18-.83.9s.14,1,.8,1H45c.67,0,.8-.19.79-1s-.16-.89-.83-.89C44,58.3,43,58.31,42,58.31Z"/><path class="cls-2" d="M20.46,51.5a8.78,8.78,0,1,1-8.73-8.8A8.8,8.8,0,0,1,20.46,51.5Zm-2,0a6.83,6.83,0,1,0-6.85,6.81A6.85,6.85,0,0,0,18.5,51.5Z"/><path class="cls-1" d="M15.38,8,13.84,9.14,12.65,7.61V39.25c0,1-.32,1.51-1,1.5s-1-.48-1-1.48V7.62L9.52,9.14,8,8c1-1.35,2-2.69,3-4a.9.9,0,0,1,1.47.12C13.44,5.37,14.38,6.64,15.38,8Z"/><path class="cls-1" d="M28.26,62.2H25.1a2.51,2.51,0,0,1-2.67-2.68,12.5,12.5,0,0,1,.39-2,.89.89,0,0,0-.05-.49,3.75,3.75,0,0,1-.26-2.67,2.39,2.39,0,0,1,2.32-1.9c2.29,0,4.58,0,6.88,0a2.29,2.29,0,0,1,2.22,1.62A3.8,3.8,0,0,1,33.8,57a.92.92,0,0,0,0,.69,3.77,3.77,0,0,1,.11,2.91,2.4,2.4,0,0,1-2.37,1.6c-1.09,0-2.19,0-3.29,0Zm-.06-5.85h3.22c.61,0,.75-.22.74-1s-.15-.9-.76-.9H25.14c-.63,0-.77.2-.78.94s.15,1,.8,1Zm.05,2c-1,0-2,0-3,0-.7,0-.84.17-.85.93s.14,1,.84,1h6.15c.67,0,.81-.19.81-1s-.13-1-.8-1C30.32,58.3,29.29,58.31,28.25,58.31Z"/><path class="cls-2" d="M12.68,49.41V50.5c1.6.27,2.78,1,2.57,2.88-.18,1.52-1.34,1.84-2.56,2.12l-.06.81H10.72l0-.7a9.27,9.27,0,0,1-1.76-.38c-.16-.07-.16-.63-.16-1,0-.63,0-.63,1.89-.75V52.46c-1.62-.27-2.79-1-2.54-2.94.2-1.48,1.35-1.78,2.56-2.06l.06-.81h1.9l0,.71c.65.41,1.94-.53,1.92,1a1.29,1.29,0,0,1-.21.84c-.15.16-.51.16-.78.19S13,49.41,12.68,49.41Zm-2,.11-.19-.14c-.15.21-.39.41-.4.62s.29.33.46.5l.13-.11Zm2,4c.43,0,.73-.18.6-.59-.06-.18-.34-.28-.6-.47Z"/></svg>