<svg id="Layer_1" data-name="Layer 1" xmlns="http://www.w3.org/2000/svg" viewBox="0 0 65 65"><defs><style>.cls-1{fill:blue;}.cls-2{fill:#f3f945;}</style></defs><path class="cls-1" d="M6.9,45.2a26.29,26.29,0,0,1,4.82-29.36,1.23,1.23,0,0,0,.36-1.36A9.37,9.37,0,0,1,29.16,7.24a.77.77,0,0,0,.76.49A26.24,26.24,0,0,1,56.13,27.28a24.41,24.41,0,0,1,.85,7,.79.79,0,0,0,.45.79,9.35,9.35,0,0,1-3.75,17.34,13.09,13.09,0,0,1-3.24-.21,1,1,0,0,0-1,.3,26.21,26.21,0,0,1-28.47,5.93.8.8,0,0,0-1.09.27,9.37,9.37,0,0,1-16.43-7,9.14,9.14,0,0,1,3-6.05Zm1.75-1.14c3.73-1.52,7.23-1.23,10.25,1.45,3.36,3,4,6.72,2.46,10.91a24.29,24.29,0,0,0,16.19.87,23.81,23.81,0,0,0,10.3-6.12,9.46,9.46,0,0,1-4.18-10.86,9.14,9.14,0,0,1,3.26-4.67,9.39,9.39,0,0,1,8-1.69c.18-14-12.17-24.86-24.68-24.14a9.47,9.47,0,0,1-.81,6.59,9.15,9.15,0,0,1-4.94,4.42,9.47,9.47,0,0,1-11.26-3.58C6.51,23.77,4.35,35.06,8.65,44.06ZM12.77,59.9A7.36,7.36,0,1,0,5.4,52.56,7.37,7.37,0,0,0,12.77,59.9Zm39.88-9.48a7.36,7.36,0,1,0-7.37-7.34A7.36,7.36,0,0,0,52.65,50.42ZM27.35,15.83a7.17,7.17,0,0,0-1.28-9.21,7.38,7.38,0,0,0-10.18.28c-2.36,2.4-2.87,6.94-1,8.86a17.92,17.92,0,0,1,1.4-1.82,19.34,19.34,0,0,1,1.8-1.45c-1.3-2.18-1.13-4.16.49-5.57a4,4,0,0,1,5-.1A3.81,3.81,0,0,1,25,9.06a4.07,4.07,0,0,1-.87,3.49A7.17,7.17,0,0,1,27.35,15.83Zm-6.1,3.6A7.41,7.41,0,0,0,25.47,18a.61.61,0,0,0,.26-.79,4.85,4.85,0,0,0-9.2,0,.62.62,0,0,0,.29.83A7.55,7.55,0,0,0,21.25,19.43ZM21.12,8a1.94,1.94,0,1,0,1.94,2A1.93,1.93,0,0,0,21.12,8Z"/><path class="cls-2" d="M30.72,48.56c-.59,0-1.17,0-1.76,0a1,1,0,0,1-1.05-.73,3,3,0,0,0-2.28-2.31,2.56,2.56,0,0,0-2.26,0c-1.11.57-1.23.5-2.12-.39-.65-.65-1.29-1.32-2-1.95a1.14,1.14,0,0,1-.3-1.52,2.84,2.84,0,0,0,.08-2.9,2.86,2.86,0,0,0-2-1.89c-.83-.24-1-.54-1-1.39,0-1,0-2,0-3.08A1.12,1.12,0,0,1,17,31.15a2.82,2.82,0,0,0,2.1-2,2.84,2.84,0,0,0-.05-2.73c-.43-.74-.31-1.06.3-1.67s1.48-1.47,2.22-2.22A1,1,0,0,1,23,22.27a2.92,2.92,0,0,0,3,.07,2.79,2.79,0,0,0,1.8-1.89c.28-.91.49-1,1.42-1h3.14a1,1,0,0,1,1.18.81,2.9,2.9,0,0,0,2.09,2.18,2.76,2.76,0,0,0,2.62-.06c.81-.45,1.07-.36,1.71.29s1.45,1.46,2.18,2.17a1.07,1.07,0,0,1,.28,1.46,2.9,2.9,0,0,0-.05,3,2.72,2.72,0,0,0,1.9,1.8c.88.25,1,.52,1,1.43s0,2,0,3.08a1.09,1.09,0,0,1-.84,1.23,2.86,2.86,0,0,0-2.14,2,2.78,2.78,0,0,0,.05,2.67c.45.81.35,1.06-.3,1.71s-1.46,1.44-2.18,2.18a1.08,1.08,0,0,1-1.46.28,2.88,2.88,0,0,0-3-.07,2.82,2.82,0,0,0-1.86,1.92c-.25.89-.48,1-1.43,1Zm8-4.9c.23-.21.49-.44.73-.68.92-.91.95-.93.4-2a1.76,1.76,0,0,1,.1-1.77,10.31,10.31,0,0,0,.91-2.2,1.86,1.86,0,0,1,1.32-1.42c1.08-.35,1.07-.39,1.07-1.5s0-1.22-1.12-1.59a1.83,1.83,0,0,1-1.27-1.4A8.2,8.2,0,0,0,40,29,1.94,1.94,0,0,1,40,26.86c.47-.9.43-.92-.3-1.65-.89-.89-.9-.91-2-.37a1.73,1.73,0,0,1-1.77-.08,8.38,8.38,0,0,0-2.07-.88,1.91,1.91,0,0,1-1.61-1.53c-.15-.7-.52-1.05-1.27-.89h-.18c-1.17,0-1.2,0-1.6,1.13a1.77,1.77,0,0,1-1.35,1.23,7.41,7.41,0,0,0-2.08.85,1.83,1.83,0,0,1-2.16,0,1,1,0,0,0-1.62.31l-.09.09C21,25.93,21,26,21.51,27a1.86,1.86,0,0,1-.1,1.94,7.61,7.61,0,0,0-.85,2,2,2,0,0,1-1.42,1.56c-1.21.43-1,.11-1,1.43,0,0,0,0,0,.07,0,1.14,0,1.18,1.09,1.55a1.79,1.79,0,0,1,1.28,1.38,8.72,8.72,0,0,0,.89,2.14,1.9,1.9,0,0,1,.07,2c-.49,1-.45,1,.31,1.76s.85.87,2,.34a1.73,1.73,0,0,1,1.77.07,10.82,10.82,0,0,0,2.25.94,1.82,1.82,0,0,1,1.38,1.28c.38,1.09.41,1.08,1.56,1.08s1.16,0,1.52-1a1.84,1.84,0,0,1,1.42-1.32,12.29,12.29,0,0,0,2.31-1,1.52,1.52,0,0,1,1.59-.06C37.91,43.32,38.29,43.46,38.73,43.66Z"/><path class="cls-1" d="M11.74,50.06c0-.69,0-1.38,0-2.07,0-.94.36-1.44,1-1.43s1,.49,1,1.4c0,1.17,0,2.34,0,3.51a.73.73,0,0,0,.43.74c.85.46,1.67.95,2.5,1.44.66.39.85.92.55,1.45s-.9.67-1.58.28c-1.07-.61-2.13-1.24-3.2-1.84a1.28,1.28,0,0,1-.72-1.22C11.74,51.57,11.74,50.81,11.74,50.06Z"/><path class="cls-1" d="M56.33,45.15a2.8,2.8,0,0,1-2,2.74c-.37.14-.65.24-.7.73a.85.85,0,0,1-.94.75.88.88,0,0,1-1-.81c0-.41-.25-.54-.6-.67A3.24,3.24,0,0,1,49,45.63a1,1,0,0,1,.59-1.24,1,1,0,0,1,1.3.57,2,2,0,0,0,2.86,1c.72-.35.78-1.07.07-1.45A8,8,0,0,0,52.34,44,12.17,12.17,0,0,1,51,43.57,2.7,2.7,0,0,1,49.22,41,2.79,2.79,0,0,1,51,38.36c.4-.19.69-.35.74-.86a.84.84,0,0,1,1-.71.85.85,0,0,1,.92.77c0,.43.27.58.63.73A3.27,3.27,0,0,1,56,40a1,1,0,1,1-1.78.93,1.66,1.66,0,0,0-2.34-.76,1.23,1.23,0,0,0-.56.81,1.09,1.09,0,0,0,.58.76,7,7,0,0,0,1.38.38c1.45.37,2.7,1,3,2.63C56.31,44.92,56.32,45.09,56.33,45.15Z"/><path class="cls-2" d="M30.76,26.6a7.4,7.4,0,1,1-7.47,7.33A7.4,7.4,0,0,1,30.76,26.6Zm0,12.78A5.38,5.38,0,1,0,25.31,34,5.37,5.37,0,0,0,30.72,39.38Z"/></svg>