<svg id="Layer_1" data-name="Layer 1" xmlns="http://www.w3.org/2000/svg" viewBox="0 0 65 65"><defs><style>.cls-1{fill:blue;}.cls-2{fill:#f3f945;}</style></defs><path class="cls-1" d="M2.73,32.31c0-.8,0-1.61,0-2.42A1,1,0,0,1,3.81,28.8c.58,0,1.16,0,1.74,0,.16,0,.42-.12.47-.25A.63.63,0,0,0,5.85,28c-.37-.41-.79-.79-1.17-1.19a1,1,0,0,1,0-1.58q1.7-1.72,3.42-3.42a1,1,0,0,1,1.62,0c.41.38.78.8,1.2,1.17a.68.68,0,0,0,.53.13c.11,0,.21-.28.21-.44,0-.6,0-1.2,0-1.8a1,1,0,0,1,1.06-1c1.65,0,3.31,0,5,0a1,1,0,0,1,1,1.06c0,.6,0,1.2,0,1.8a.58.58,0,0,0,.24.42.55.55,0,0,0,.47-.11c.42-.38.8-.79,1.2-1.18a1,1,0,0,1,1.66,0q1.71,1.66,3.38,3.38a1,1,0,0,1,0,1.62c-.39.4-.8.78-1.17,1.2a.63.63,0,0,0-.14.52c0,.11.28.21.43.22.56,0,1.12,0,1.68,0,.77,0,1.16.37,1.17,1.13,0,1.62,0,3.23,0,4.84a1,1,0,0,1-1.13,1.11c-.55,0-1.11,0-1.67,0-.17,0-.43.11-.48.23a.6.6,0,0,0,.14.52c.37.42.79.79,1.18,1.2a1,1,0,0,1,0,1.62Q24,41.18,22.33,42.85a1,1,0,0,1-1.63,0c-.37-.36-.71-.75-1.1-1.08a.86.86,0,0,0-.61-.22c-.11,0-.22.34-.23.54,0,.55,0,1.11,0,1.67a1,1,0,0,1-1,1.05c-1.66,0-3.31,0-5,0a1,1,0,0,1-1.05-1.1c0-.58,0-1.16,0-1.74,0-.15-.11-.4-.22-.43a.66.66,0,0,0-.52.13c-.42.37-.79.79-1.2,1.17a1,1,0,0,1-1.62,0C7,41.75,5.82,40.62,4.7,39.49a1,1,0,0,1,0-1.67c.37-.39.77-.76,1.13-1.16A.61.61,0,0,0,6,36.15c0-.13-.29-.24-.46-.25-.58,0-1.16,0-1.74,0A1,1,0,0,1,2.73,34.8C2.72,34,2.73,33.14,2.73,32.31Zm14,10.49c0-.61,0-1.15,0-1.68a1.13,1.13,0,0,1,.89-1.24,8.16,8.16,0,0,0,1.15-.47,1.14,1.14,0,0,1,1.55.28l1,1.23,2.35-2.33c-.4-.36-.8-.75-1.21-1.12A1.14,1.14,0,0,1,22.26,36a8,8,0,0,0,.47-1.14A1.18,1.18,0,0,1,24,33.89c.55,0,1.1,0,1.63,0V30.78c-.6,0-1.16,0-1.72,0A1.09,1.09,0,0,1,22.76,30a11.51,11.51,0,0,0-.52-1.26,1.09,1.09,0,0,1,.27-1.45c.43-.37.87-.73,1.28-1.07l-2.35-2.37-1.16,1.26a1.11,1.11,0,0,1-1.41.25,11.51,11.51,0,0,0-1.26-.52,1.11,1.11,0,0,1-.85-1.2c0-.57,0-1.14,0-1.71H13.65c0,.58,0,1.14,0,1.69a1.13,1.13,0,0,1-.84,1.22,9.77,9.77,0,0,0-1.26.51A1.11,1.11,0,0,1,10.1,25L9,23.83,6.65,26.14c.42.36.85.75,1.28,1.13a1.09,1.09,0,0,1,.24,1.41,11.29,11.29,0,0,0-.51,1.25,1.13,1.13,0,0,1-1.21.86c-.57,0-1.14,0-1.7,0V33.9H6.31c.85,0,1.09.18,1.38,1,.12.35.26.7.41,1,.36.77.33,1-.29,1.64-.37.36-.76.7-1.13,1l2.24,2.22s0,0,.06,0c.37-.36.75-.71,1.1-1.09a1.12,1.12,0,0,1,1.5-.26,8.62,8.62,0,0,0,1.09.45c.8.29,1,.52,1,1.36V42.8Z"/><path class="cls-2" d="M42.85,14.27c0-3,0-5.84,0-8.72,0-1.19.27-1.46,1.45-1.46h2.23c.94,0,1.28.34,1.28,1.26,0,2.75,0,5.51,0,8.26v.66c.47,0,.88,0,1.29,0a1,1,0,0,1,.81,1.59c-1.25,1.65-2.53,3.28-3.82,4.89a.94.94,0,0,1-1.56,0c-1.27-1.61-2.54-3.21-3.78-4.85a1,1,0,0,1,.8-1.59C42,14.25,42.37,14.27,42.85,14.27Zm4.2,2.05c-1-.19-1.22-.46-1.22-1.43V6.1h-1v.7c0,2.64,0,5.29,0,7.94a1.94,1.94,0,0,1-.2,1.06c-.19.28-.6.4-.94.6l1.65,2.12Z"/><path class="cls-2" d="M47.81,49.67v1.44c0,2.5,0,5,0,7.51,0,.9-.33,1.23-1.23,1.24H44c-.86,0-1.19-.35-1.19-1.22,0-2.73,0-5.46,0-8.19v-.78a5.09,5.09,0,0,1-1.24,0,1.45,1.45,0,0,1-.93-.54A1.2,1.2,0,0,1,40.81,48c1.19-1.61,2.44-3.19,3.69-4.76a1,1,0,0,1,1.69,0c1.23,1.56,2.44,3.13,3.66,4.69A.87.87,0,0,1,50,49.14a2,2,0,0,1-1,.52A5.91,5.91,0,0,1,47.81,49.67Zm-4.19-2.05c1,.25,1.21.48,1.21,1.48v8.73h1V49.19c0-1.1.13-1.28,1.19-1.58l-1.69-2.17Z"/><path class="cls-1" d="M34.91,28.92h1.81c.77,0,1.15.37,1.15,1.14,0,1.22,0,2.44,0,3.66a1,1,0,0,1-1.13,1.16H33.08c-.78,0-1.15-.37-1.16-1.13,0-1.23,0-2.45,0-3.67,0-.8.37-1.15,1.19-1.16Zm1,2H34v1.91h1.91Z"/><path class="cls-1" d="M47.81,31.94c0,.62,0,1.24,0,1.86a1,1,0,0,1-1.09,1.08H42.93a1,1,0,0,1-1.07-1.09c0-1.26,0-2.53,0-3.79a1,1,0,0,1,1.08-1.07c1.27,0,2.53,0,3.79,0A1,1,0,0,1,47.81,30C47.82,30.66,47.81,31.3,47.81,31.94Zm-3.94-1v1.92h1.91V30.94Z"/><path class="cls-1" d="M58.74,31.91c0,.64,0,1.28,0,1.92a1,1,0,0,1-1.06,1.05H53.83a1,1,0,0,1-1-1.06c0-1.28,0-2.56,0-3.85a1,1,0,0,1,1.05-1c1.28,0,2.57,0,3.85,0A1,1,0,0,1,58.74,30C58.76,30.62,58.74,31.26,58.74,31.91Zm-2,1V30.94h-1.9v1.93Z"/><path class="cls-1" d="M41.17,25.94h-.61a1,1,0,0,1,0-2,10.28,10.28,0,0,1,1.11,0,1,1,0,1,1,0,2Z"/><path class="cls-1" d="M41.13,39.84c-.21,0-.42,0-.62,0a1,1,0,0,1,0-2,10.26,10.26,0,0,1,1.24,0,1,1,0,0,1,1,1,1,1,0,0,1-1,1c-.21,0-.42,0-.62,0Z"/><path class="cls-1" d="M50.5,39.84a4.14,4.14,0,0,1-.61,0,1,1,0,0,1-1-1,1,1,0,0,1,.93-1,10.1,10.1,0,0,1,1.23,0,1,1,0,0,1,0,2C50.92,39.86,50.71,39.84,50.5,39.84Z"/><path class="cls-1" d="M50.51,25.93a3.65,3.65,0,0,1-.74,0,.92.92,0,0,1-.84-1,.9.9,0,0,1,.86-1,7.06,7.06,0,0,1,1.3,0,1,1,0,0,1,1,1,1,1,0,0,1-1,1h-.55Z"/><path class="cls-1" d="M36.51,25.93a4.56,4.56,0,0,1-.74,0,.93.93,0,0,1-.84-1,.92.92,0,0,1,.86-1,8.06,8.06,0,0,1,1.3,0,1,1,0,0,1,0,2h-.56Z"/><path class="cls-1" d="M36.53,37.87c.2,0,.41,0,.62,0a1,1,0,0,1,0,2,8.42,8.42,0,0,1-1.23,0,1,1,0,0,1-1-1,1,1,0,0,1,1-1c.21,0,.41,0,.62,0Z"/><path class="cls-1" d="M55.15,39.84c-.22,0-.45,0-.68,0a1,1,0,0,1-.87-1,.92.92,0,0,1,.89-.94,8.41,8.41,0,0,1,1.23,0,1,1,0,0,1,1,1,1,1,0,0,1-1,1h-.56Z"/><path class="cls-1" d="M55.14,25.94c-.21,0-.42,0-.62,0a1,1,0,0,1,0-2,9.4,9.4,0,0,1,1.3,0,1,1,0,0,1,.93,1,1,1,0,0,1-.91,1c-.23,0-.46,0-.68,0Z"/><path class="cls-1" d="M45.8,25.94h-.55a1,1,0,0,1,0-2,11.42,11.42,0,0,1,1.17,0,1,1,0,0,1,1,1,1,1,0,0,1-1,1Z"/><path class="cls-1" d="M45.81,39.84c-.21,0-.41,0-.62,0a1,1,0,0,1,0-2,10.26,10.26,0,0,1,1.24,0,1,1,0,0,1,.94,1,1,1,0,0,1-.91,1c-.22,0-.45,0-.68,0Z"/><path class="cls-1" d="M32.13,25.94c-.76,0-1.22-.4-1.2-1s.48-1,1.27-1,1.22.41,1.2,1S32.91,26,32.13,25.94Z"/><path class="cls-1" d="M32.15,39.85c-.77,0-1.23-.38-1.22-1s.47-1,1.25-1,1.23.39,1.22,1S32.93,39.85,32.15,39.85Z"/><path class="cls-1" d="M59.44,39.85c-.73,0-1.18-.38-1.19-1s.47-1,1.28-1,1.19.38,1.19,1S60.25,39.86,59.44,39.85Z"/><path class="cls-1" d="M59.48,25.94c-.77,0-1.23-.37-1.23-1s.46-1,1.24-1,1.24.38,1.23,1S60.26,25.94,59.48,25.94Z"/><path class="cls-2" d="M13,26.94c.09-.83-.23-1.86,1-2,.69-.06.9.37,1.05,1.93H16c.18-1.07.46-1.46,1.09-1.44s.93.44,1,1.49c.21,0,.42,0,.64,0,1,0,1.32.32,1.32,1.34v1.6c.82.11,2-.23,2,1.09s-1.13.87-1.91,1v.92c1.07.14,1.48.45,1.45,1.09s-.44.91-1.35,1c-.14.56-.12,1.26-.46,1.61s-1,.35-1.61.51c-.17,1-.45,1.35-1.07,1.33S16.1,38,16,36.9H15c-.09.77.26,2-1.07,1.92s-.88-1.12-1-2H11.4c-1,0-1.34-.32-1.34-1.32v-.64c-.84-.09-1.9.23-2-1.06,0-.67.4-.88,1.92-1v-.8a9.62,9.62,0,0,1-1.21-.55.91.91,0,0,1-.22-.62c0-.62.38-.9,1.48-1,0-.59,0-1.18,0-1.78a1,1,0,0,1,1.15-1.14c.29,0,.57,0,.86,0Zm-.92,2v5.88H18V29Z"/></svg>