<svg id="Layer_1" data-name="Layer 1" xmlns="http://www.w3.org/2000/svg" viewBox="0 0 65 65"><defs><style>.cls-1{fill:#190f2d;}</style></defs><path class="cls-1" d="M15.41,55.49H28l.27-.73A4.54,4.54,0,0,1,32.49,52a4.42,4.42,0,0,1,4.16,3,.7.7,0,0,0,.82.57c2.16-.05,4.32,0,6.46-.12a7.24,7.24,0,0,0,4.28-2,4.3,4.3,0,0,1-1.49-4.76,4.5,4.5,0,0,1,3.87-3.13,7.54,7.54,0,0,0-2.79-4.65,7.42,7.42,0,0,0-4.66-1.68c-1.67,0-3.34,0-5,0A8.65,8.65,0,0,1,32.05,37a.78.78,0,0,0-.6-.12,4.51,4.51,0,0,1-5.55-3.35,4.42,4.42,0,0,1,3.57-5.27,1.13,1.13,0,0,0,.8-.57,5.67,5.67,0,0,1,5-2.79c4.49,0,9,0,13.47,0h.74c-.65-.77-1.23-1.44-1.8-2.13a39,39,0,0,1-4.71-7c-2.76-5.37,1.05-12,7-13A9.64,9.64,0,0,1,61.22,11.1a7.72,7.72,0,0,1-.76,4.33,32.78,32.78,0,0,1-5,7.46c-.94,1.13-2,2.19-2.93,3.29a1.45,1.45,0,0,1-1.19.5H35.67a4.89,4.89,0,0,0-3.74,1.53,4.56,4.56,0,0,1,2.69,3.23,4.44,4.44,0,0,1-1.15,4.08,5.71,5.71,0,0,0,3.65,1.68c1.84.09,3.69.07,5.53.06a9.74,9.74,0,0,1,4.91,1.18,9.46,9.46,0,0,1,4.91,6.88.94.94,0,0,0,.45.58A4.49,4.49,0,0,1,55.31,51a4.36,4.36,0,0,1-4.47,3.41,2,2,0,0,0-1.58.62,9.07,9.07,0,0,1-6.09,2.42c-2.1,0-4.19,0-6.3,0-.75,2.24-2.17,3.62-4.61,3.53C30,60.86,28.72,59.51,28,57.42h-.69c-4.54,0-9.09,0-13.64,0a1.89,1.89,0,0,1-1.49-.64A50.4,50.4,0,0,1,5.66,48.5a12.48,12.48,0,0,1-1.89-4.4A8.64,8.64,0,0,1,6.1,36.52,9.15,9.15,0,0,1,16,33.67a9.24,9.24,0,0,1,6.76,7.81,8.63,8.63,0,0,1-1.23,5.63,40.36,40.36,0,0,1-5.33,7.44Zm-2.13-.26,1-1.1a40.9,40.9,0,0,0,5.78-8,7.17,7.17,0,0,0,1-3.22,7.78,7.78,0,0,0-9.63-7.49c-4.28,1-7.46,6-5,10.57A46.84,46.84,0,0,0,13.28,55.23ZM51.62,24.5c2.85-3.26,5.69-6.43,7.31-10.45a5.56,5.56,0,0,0,.41-2.28,7.74,7.74,0,0,0-9.61-7.13c-4.33,1.05-7.44,6.14-5,10.65A49,49,0,0,0,51.62,24.5ZM30.26,35.24a2.64,2.64,0,1,0-2.64-2.65A2.65,2.65,0,0,0,30.26,35.24ZM50.86,47.4a2.63,2.63,0,0,0-2.63,2.66,2.68,2.68,0,0,0,2.64,2.62A2.65,2.65,0,0,0,53.51,50,2.6,2.6,0,0,0,50.86,47.4ZM32.42,53.87a2.62,2.62,0,0,0-2.61,2.67,2.64,2.64,0,1,0,5.27,0A2.61,2.61,0,0,0,32.42,53.87Z"/><path class="cls-1" d="M13.3,38.36A3.69,3.69,0,0,1,17,42.09a3.82,3.82,0,0,1-3.77,3.73,3.73,3.73,0,1,1,0-7.46Zm1.89,3.72a1.91,1.91,0,1,0-3.81,0A1.93,1.93,0,0,0,13.28,44,1.87,1.87,0,0,0,15.19,42.08Z"/><path class="cls-1" d="M51.59,15.08a3.74,3.74,0,1,1,3.77-3.7A3.7,3.7,0,0,1,51.59,15.08Zm.08-5.64a1.83,1.83,0,0,0-2,1.81,1.89,1.89,0,0,0,1.85,2,1.84,1.84,0,0,0,1.95-1.82A1.85,1.85,0,0,0,51.67,9.44Z"/></svg>