<svg id="Layer_1" data-name="Layer 1" xmlns="http://www.w3.org/2000/svg" viewBox="0 0 65 65"><defs><style>.cls-1{fill:blue;}.cls-2{fill:#f3f945;}</style></defs><path class="cls-1" d="M38.43,1.69a4.07,4.07,0,0,1,2.56,2,.74.74,0,0,0,.49.21A2.54,2.54,0,0,1,44,6.59c0,.76,0,1.53,0,2.29a2.52,2.52,0,0,1-2.53,2.61c-1,0-2,0-3,0H28.28a2.6,2.6,0,0,1-2.93-2.92c0-.72,0-1.45,0-2.17A2.5,2.5,0,0,1,27.73,3.9a.76.76,0,0,0,.74-.43A3.83,3.83,0,0,1,30.9,1.69Zm-3.77,8h6.52c.78,0,1-.24,1-1s0-1.37,0-2-.25-1-1-1a1.58,1.58,0,0,1-1.78-1.09,1.82,1.82,0,0,0-1.88-1.13c-1.94,0-3.87,0-5.81,0A1.8,1.8,0,0,0,29.9,4.54,1.63,1.63,0,0,1,28,5.67c-.65-.06-.91.26-.92.93s0,1.37,0,2.05c0,.85.22,1.07,1.09,1.07Z"/><path class="cls-1" d="M17.17,11V56.55H52.65V22.09c0-.92.26-1.33.85-1.35s.92.42.92,1.35V57c0,1.1-.24,1.35-1.34,1.35H16.69c-1.06,0-1.31-.26-1.31-1.32V10.54c0-1,.26-1.31,1.27-1.31h6.06a.93.93,0,0,1,1,.92.9.9,0,0,1-1,.84H17.17Z"/><path class="cls-1" d="M58,33.79V57.66a3.87,3.87,0,0,1-4.24,4.23H16.09a3.87,3.87,0,0,1-4.24-4.23V46.85a3.11,3.11,0,0,1,0-.53.88.88,0,0,1,1.74,0,3,3,0,0,1,0,.52c0,3.65,0,7.29,0,10.94A2.09,2.09,0,0,0,16,60.12H53.82a2.1,2.1,0,0,0,2.36-2.35V9.86A2.12,2.12,0,0,0,53.8,7.47c-2.31,0-4.63,0-6.94,0A1.36,1.36,0,0,1,46,7.08a.89.89,0,0,1-.07-.85,1.21,1.21,0,0,1,.83-.51c2.53,0,5.06-.07,7.58,0a3.78,3.78,0,0,1,3.66,4Z"/><path class="cls-2" d="M44.58,22.9c1.46.13,1.84.55,1.84,1.94,0,.72,0,1.45,0,2.17A1.4,1.4,0,0,1,45,28.49a.54.54,0,0,0-.57.43c-.22.63-.49,1.24-.75,1.87.15.2.34.4.48.63a1.43,1.43,0,0,1-.28,1.73c-.48.52-1,1-1.49,1.5-1,1-1.58,1.07-2.71.15-.67.27-1.35.52-2,.82a.58.58,0,0,0-.28.42,1.48,1.48,0,0,1-1.66,1.5H33.39a1.48,1.48,0,0,1-1.59-1.45.74.74,0,0,0-.34-.5,10.52,10.52,0,0,0-1-.39c-.31-.12-.6-.28-.93-.43l-.34.3a1.42,1.42,0,0,1-2-.06c-.64-.6-1.27-1.23-1.87-1.87a1.39,1.39,0,0,1,0-2.05.52.52,0,0,0,.07-.72,3.38,3.38,0,0,1-.36-.8c-.19-.62-.38-1.12-1.22-1.17a1.16,1.16,0,0,1-1-1.23c0-1,0-1.92,0-2.88A1.35,1.35,0,0,1,24.16,23c.38,0,.56-.15.63-.51a2.88,2.88,0,0,1,.24-.66c.33-.62.62-1.16,0-1.86a1.17,1.17,0,0,1,.22-1.56c.63-.67,1.28-1.33,1.95-1.95a1.4,1.4,0,0,1,2,0,.55.55,0,0,0,.72.1,9.74,9.74,0,0,1,1.46-.6.56.56,0,0,0,.43-.59,1.38,1.38,0,0,1,1.49-1.4H35.9a1.38,1.38,0,0,1,1.47,1.42.55.55,0,0,0,.45.57,11.49,11.49,0,0,1,1.46.6.54.54,0,0,0,.71-.1,1.42,1.42,0,0,1,2.06.05c.49.46.94.94,1.42,1.41,1.11,1.11,1.14,1.58.2,2.82.16.37.35.73.5,1.11S44.45,22.52,44.58,22.9Zm-9,12.85c.12-1.38.18-1.4,1.44-1.82.7-.24,1.35-.63,2-.87A2.48,2.48,0,0,1,40.29,33c.25,0,.45.34.62.47L42.37,32a1.34,1.34,0,0,1-.52-1.73c.41-.88.78-1.78,1.12-2.69a1.18,1.18,0,0,1,1.13-.86l.51,0v-2c-.8,0-1.4-.11-1.68-1a25.59,25.59,0,0,0-1-2.54,1.16,1.16,0,0,1,.21-1.5l.3-.32L41,17.93c-1.07.9-1.08.89-2.32.24a9.79,9.79,0,0,0-1.57-.65c-1.35-.43-1.35-.42-1.51-1.82h-2c0,.7-.05,1.33-.81,1.63-.95.36-1.88.76-2.81,1.16a1.15,1.15,0,0,1-1.31-.17l-.44-.41L26.8,19.36l.36.38a1.16,1.16,0,0,1,.19,1.4c-.4.89-.78,1.79-1.12,2.7a1.18,1.18,0,0,1-1.08.85l-.57,0v2l.48,0a1.19,1.19,0,0,1,1.18.87c.34.91.73,1.81,1.12,2.7a1.16,1.16,0,0,1-.18,1.36l-.34.37,1.43,1.49A1.33,1.33,0,0,1,30.05,33c.87.41,1.75.77,2.65,1.1a1.19,1.19,0,0,1,.87,1.12c0,.17,0,.35,0,.55Z"/><path class="cls-1" d="M11.85,25.89v-16A3.85,3.85,0,0,1,16,5.7h6.34a2.33,2.33,0,0,1,.53,0,.83.83,0,0,1,.69.89.8.8,0,0,1-.81.84c-.59,0-1.18,0-1.77,0H16a2.12,2.12,0,0,0-2.42,2.4V42.13c0,.94-.29,1.38-.9,1.37s-.87-.43-.87-1.39Z"/><path class="cls-2" d="M40.55,41.06h7.11c.76,0,1.13.29,1.14.87s-.39.89-1.13.89H33.22c-.79,0-1.23-.48-1.06-1.11s.55-.65,1-.65Z"/><path class="cls-2" d="M40.44,50.51h-7a3.75,3.75,0,0,1-.58,0,.73.73,0,0,1-.71-.79,1.51,1.51,0,0,1,.54-.86c.16-.13.49-.1.74-.1h14a2.79,2.79,0,0,1,.58,0,.82.82,0,0,1,.73.92.79.79,0,0,1-.83.81c-.78,0-1.56,0-2.35,0Z"/><path class="cls-1" d="M52.65,11h-6a.88.88,0,1,1,0-1.76h6.88a.88.88,0,0,1,1,1q0,3.73,0,7.47a.9.9,0,0,1-.89,1c-.53,0-.87-.41-.87-1.05Z"/><path class="cls-2" d="M25.85,41.93c0,.41,0,.82,0,1.23a1.69,1.69,0,0,1-1.71,1.77c-.84,0-1.69,0-2.53,0a1.69,1.69,0,0,1-1.74-1.69c0-.86,0-1.73,0-2.59A1.68,1.68,0,0,1,21.59,39q1.29,0,2.58,0a1.67,1.67,0,0,1,1.68,1.69C25.86,41.07,25.85,41.5,25.85,41.93Zm-4.18-1.2v2.41h2.38V40.73Z"/><path class="cls-2" d="M25.85,49.62c0,.45,0,.9,0,1.35a1.66,1.66,0,0,1-1.65,1.64c-.88,0-1.76,0-2.64,0A1.65,1.65,0,0,1,19.88,51c-.05-.9,0-1.8,0-2.7a1.62,1.62,0,0,1,1.59-1.64,23.1,23.1,0,0,1,2.76,0,1.66,1.66,0,0,1,1.62,1.8c0,.39,0,.78,0,1.17Zm-1.8,1.2V48.43H21.66v2.39Z"/><path class="cls-2" d="M29,42.81a3.42,3.42,0,0,1-.64,0,.82.82,0,0,1-.73-.91.8.8,0,0,1,.82-.82,10.27,10.27,0,0,1,1.11,0,.87.87,0,0,1,.92.85.9.9,0,0,1-.89.9,5.81,5.81,0,0,1-.59,0Z"/><path class="cls-2" d="M29,50.5a4.7,4.7,0,0,1-.65,0,.78.78,0,0,1-.75-.75.75.75,0,0,1,.61-.92,5.44,5.44,0,0,1,1.56,0,.76.76,0,0,1,.66.89.82.82,0,0,1-.79.8c-.21,0-.43,0-.64,0Z"/><path class="cls-2" d="M34.6,8.06H31.19c-.65,0-1-.31-1-.84s.38-.91,1.05-.91h6.87c.69,0,1.07.33,1.07.89s-.37.86-1.08.87Z"/><path class="cls-2" d="M34.7,18.75c.79.19,1.59.34,2.37.58s.87.65.69,1.15a.89.89,0,0,1-1.3.49,5.1,5.1,0,1,0,2.75,2.57c-.05-.11-.11-.21-.16-.31a.9.9,0,0,1,.32-1.32c.47-.24.94-.06,1.25.51a6.63,6.63,0,0,1,.84,3.67,6.87,6.87,0,1,1-8-7.14c.39-.06.78-.09,1.17-.13Z"/></svg>