<svg id="Layer_1" data-name="Layer 1" xmlns="http://www.w3.org/2000/svg" viewBox="0 0 65 65"><defs><style>.cls-1{fill:blue;}.cls-2{fill:#f3f945;}</style></defs><path class="cls-1" d="M21.43,50.15V34.78a9.25,9.25,0,0,1,4.8-8.52,11.2,11.2,0,0,1,2.05-.85c.62-.21,1.07,0,1.21.47s-.1.91-.76,1.11a7.45,7.45,0,0,0-5.37,5.4,8.16,8.16,0,0,0-.28,2.09c0,5.09,0,10.19,0,15.29,0,.11,0,.23,0,.39h18c0-.42,0-.83,0-1.24a.52.52,0,0,0-.29-.36c-3.46-1.28-5.33-4-6.44-7.31a3.14,3.14,0,0,0-2-2.35,4.32,4.32,0,0,1-2.6-3.9.81.81,0,1,1,1.6-.26c0,.21.07.43.12.64A3.35,3.35,0,0,0,34.89,38c1.6,0,3.21,0,4.82,0a1.39,1.39,0,0,1,1.26.58c.33.44.71.83,1.07,1.25s.51.35.76,0l2.43-3.49-4.41-5.15c-1.27-1.47-2.52-3-3.8-4.41a1.35,1.35,0,0,1-.32-1.4c.32-1.07.59-2.15.89-3.3a4,4,0,0,0-3.42,1.53c-.54.76-.92,1.63-1.39,2.44-.14.23-.29.53-.5.6a1,1,0,0,1-.85-.1,1,1,0,0,1-.25-.87c1.57-3.73,3-5.32,7.43-5.29a.81.81,0,0,1,.83,1.11c-.31,1.21-.62,2.42-1,3.63a1,1,0,0,0,.23,1.1c2.66,3.06,5.29,6.14,7.93,9.22.59.69.6.9.08,1.65-.84,1.2-1.68,2.41-2.53,3.61a2,2,0,0,1-3.38.15,2.68,2.68,0,0,0-2.72-1.22,21.34,21.34,0,0,1-2.54,0c1.09,3.48,2.6,6.47,6.35,7.56a1,1,0,0,1,.87,1.15c0,.6,0,1.21,0,1.7a5.35,5.35,0,0,1,1.44.88,2.61,2.61,0,0,1,.58,1.47c.08,1.29,0,2.58,0,3.88a2.08,2.08,0,0,1-2.18,2.18c-1,0-2,0-3,0H21.92c-1.76,0-2.54-.78-2.54-2.55V52.7C19.38,51.18,19.88,50.54,21.43,50.15Zm10.66,1.7H21.8c-.54,0-.8.16-.78.74,0,1.15,0,2.31,0,3.47,0,.53.2.74.73.74H42.44c.54,0,.73-.23.72-.75,0-1.12,0-2.23,0-3.35,0-.78-.06-.84-.83-.84Z"/><path class="cls-1" d="M2.4,19.62a8.26,8.26,0,1,1,8.23,8.3A8.26,8.26,0,0,1,2.4,19.62ZM4,19.74A6.61,6.61,0,1,0,10.46,13,6.64,6.64,0,0,0,4,19.74Z"/><path class="cls-1" d="M62.48,19.67a8.26,8.26,0,1,1-8.2-8.27A8.27,8.27,0,0,1,62.48,19.67Zm-1.64-.09a6.61,6.61,0,1,0-6.54,6.7A6.63,6.63,0,0,0,60.84,19.58Z"/><path class="cls-2" d="M13.69,47c-.27,0-.54,0-.82,0a.75.75,0,0,1-.75-.75.71.71,0,0,1,.65-.83,10.92,10.92,0,0,1,2,0,.7.7,0,0,1,.61.8.75.75,0,0,1-.73.77c-.31,0-.62,0-.94,0Z"/><path class="cls-2" d="M51.17,47c-.29,0-.58,0-.87,0a.76.76,0,0,1-.79-.78.73.73,0,0,1,.69-.81,10.5,10.5,0,0,1,1.86,0,.73.73,0,0,1,.7.85.77.77,0,0,1-.82.75Z"/><path class="cls-2" d="M9.84,32.21c0-.27,0-.55,0-.82a.74.74,0,0,1,.72-.77.7.7,0,0,1,.85.63,10.8,10.8,0,0,1,0,2,.7.7,0,0,1-.84.63.74.74,0,0,1-.73-.77C9.83,32.79,9.84,32.5,9.84,32.21Z"/><path class="cls-2" d="M55,32.25c0,.29,0,.58,0,.87a.74.74,0,0,1-.71.73.71.71,0,0,1-.86-.61,11.78,11.78,0,0,1,0-2,.71.71,0,0,1,.83-.65.74.74,0,0,1,.75.75c0,.29,0,.58,0,.88Z"/><path class="cls-2" d="M9.85,45.3c0-.28,0-.55,0-.82a.73.73,0,0,1,.7-.74.69.69,0,0,1,.86.6,9.94,9.94,0,0,1,0,2,.69.69,0,0,1-.83.58.74.74,0,0,1-.72-.72c0-.31,0-.63,0-.94Z"/><path class="cls-2" d="M55,45.39c0,.27,0,.55,0,.82a.74.74,0,0,1-.76.75.72.72,0,0,1-.83-.66,11.43,11.43,0,0,1,0-1.94.71.71,0,0,1,.85-.63.72.72,0,0,1,.72.72c0,.31,0,.63,0,.94Z"/><path class="cls-2" d="M9.85,40.92c0-.27,0-.55,0-.82a.72.72,0,0,1,.71-.73.7.7,0,0,1,.86.61,10.91,10.91,0,0,1,0,2,.7.7,0,0,1-.86.62.72.72,0,0,1-.71-.72C9.83,41.55,9.85,41.23,9.85,40.92Z"/><path class="cls-2" d="M55,41c0,.3,0,.59,0,.88a.72.72,0,0,1-.72.72.7.7,0,0,1-.85-.62,11,11,0,0,1,0-2,.7.7,0,0,1,.87-.6.74.74,0,0,1,.7.73C55.05,40.4,55,40.69,55,41Z"/><path class="cls-2" d="M9.84,36.58c0-.28,0-.55,0-.83a.73.73,0,0,1,.74-.75.71.71,0,0,1,.84.64,10.37,10.37,0,0,1,0,1.93.7.7,0,0,1-.84.64.73.73,0,0,1-.74-.75C9.83,37.16,9.84,36.87,9.84,36.58Z"/><path class="cls-2" d="M46.92,47c-.28,0-.55,0-.82,0a.8.8,0,0,1-.07-1.6,10.5,10.5,0,0,1,1.86,0,.72.72,0,0,1,.67.87.73.73,0,0,1-.77.72C47.5,47.05,47.21,47,46.92,47Z"/><path class="cls-2" d="M55,36.65c0,.27,0,.55,0,.82a.73.73,0,0,1-.7.74.69.69,0,0,1-.86-.6,10.7,10.7,0,0,1,0-2A.68.68,0,0,1,54.3,35a.71.71,0,0,1,.72.71c0,.31,0,.62,0,.94Z"/><path class="cls-2" d="M17.88,47c-.27,0-.55,0-.82,0a.74.74,0,0,1-.75-.74.71.71,0,0,1,.64-.84,10.08,10.08,0,0,1,2,0,.7.7,0,0,1,.6.86.73.73,0,0,1-.72.71c-.31,0-.62,0-.93,0Z"/><path class="cls-2" d="M10.67,18.55c.67-.7,1.3-1.37,1.95-2a.82.82,0,1,1,1.15,1.15l-2,2c.57.52,1.12,1,1.65,1.52a3.31,3.31,0,0,1,.49.5.81.81,0,0,1-1.16,1.13c-.54-.51-1.06-1-1.58-1.58a5,5,0,0,1-.4-.59l-1.94,2c-.49.48-1,.53-1.33.16s-.3-.84.18-1.33l1.9-1.86c-.71-.69-1.38-1.32-2-2a.8.8,0,0,1,.34-1.41,1.31,1.31,0,0,1,.87.33C9.38,17.19,10,17.85,10.67,18.55Z"/><path class="cls-2" d="M53.31,20.53c1.15-1.15,2.29-2.33,3.48-3.46a1.27,1.27,0,0,1,.94-.23c.19,0,.43.36.47.58a1,1,0,0,1-.24.74q-2,2.09-4.1,4.12a.81.81,0,0,1-1.29,0c-.71-.7-1.4-1.42-2.08-2.15a.79.79,0,0,1,0-1.2.81.81,0,0,1,1.2.09Z"/></svg>