<svg id="Layer_1" data-name="Layer 1" xmlns="http://www.w3.org/2000/svg" viewBox="0 0 65 65"><defs><style>.cls-1{fill:#190f2d;}</style></defs><path class="cls-1" d="M25.77,28.92H18.4c-1.49,0-3,0-4.45,0A2.85,2.85,0,0,1,11.4,24.5q5.51-9.59,11-19.14a2.85,2.85,0,0,1,5.1,0c1.17,2,2.31,4,3.47,6,.43.75.68.82,1.47.45a6.41,6.41,0,0,1,1.28-.53,1.19,1.19,0,0,0,1-1c.16-.64.41-1.25.59-1.88a1,1,0,0,1,1-.76h3.88a.94.94,0,0,1,1,.76c0,.1.06.2.1.3A6.59,6.59,0,0,0,42.25,11a5.94,5.94,0,0,0,2.24,1,.82.82,0,0,0,.57-.07c.71-.34,1.4-.7,2.1-1.06a1,1,0,0,1,1.31.2c.89.9,1.8,1.8,2.7,2.69a1,1,0,0,1,.2,1.27c-.37.71-.75,1.42-1.08,2.15a1,1,0,0,0,0,.69c.1.34.36.64.43,1a2,2,0,0,0,1.86,1.74,11.5,11.5,0,0,1,1.26.4.94.94,0,0,1,.74,1c0,1.28,0,2.55,0,3.82a1,1,0,0,1-.78,1.07c-.73.21-1.46.44-2.17.72a1.31,1.31,0,0,0-.58.56,11.15,11.15,0,0,1-.51,1.22,1.61,1.61,0,0,0,.07,2c.28.44.48.94.73,1.4a1,1,0,0,1-.2,1.38c-.9.87-1.78,1.75-2.66,2.65a1,1,0,0,1-1.31.21c-.7-.37-1.38-.74-2.1-1.06a1.11,1.11,0,0,0-.74,0c-.52.18-1,.48-1.52.62a1.25,1.25,0,0,0-1,1c-.17.66-.42,1.29-.62,1.94a.92.92,0,0,1-1,.71H36.29a.9.9,0,0,1-.94-.69c-.23-.73-.49-1.44-.7-2.17a.86.86,0,0,0-.69-.72,2.13,2.13,0,0,1-.83-.31,2.21,2.21,0,0,0-2.65.09c-2,1.09-1.66,1.09-3.23-.48-.59-.58-1.16-1.18-1.76-1.74a1.07,1.07,0,0,1-.24-1.47c.32-.58.57-1.19.9-1.75a1,1,0,0,0,0-1.27A7,7,0,0,1,25.77,28.92ZM25,27.17c3.62,0,7.24,0,10.86,0,1.33,0,1.75-1,1.16-2-3.64-6.23-7.23-12.48-10.84-18.73-.69-1.21-1.62-1.21-2.32,0C20.22,12.67,16.65,18.91,13,25.12c-.61,1.05-.23,2.1,1.21,2.07C17.8,27.12,21.38,27.17,25,27.17Zm8.93-10.8A19.52,19.52,0,0,1,36,15.59a9.55,9.55,0,0,1,2.19-.3,8.63,8.63,0,0,1,8.71,10,8.29,8.29,0,0,1-6.38,7,8.35,8.35,0,0,1-9.07-3.06c-.11-.14-.27-.32-.42-.33-1.07,0-2.13,0-3.28,0a2.94,2.94,0,0,0,.23.47,1.58,1.58,0,0,1,0,1.94c-.37.61-.66,1.26-1,1.94.38.35.73.65,1,1s.62.74.9,1.07c.92-.46,1.66-.82,2.38-1.21a1.24,1.24,0,0,1,1.26,0,19.16,19.16,0,0,0,2.39,1,1.61,1.61,0,0,1,1.22,1.21c.19.73.31,1.7.82,2.06s1.46.09,2.22.13a.61.61,0,0,0,.73-.51c.15-.57.38-1.12.52-1.69a1.51,1.51,0,0,1,1.17-1.18,12.29,12.29,0,0,0,2.28-.94,1.49,1.49,0,0,1,1.6,0c.68.38,1.47,1,2.08.92s1.17-1,1.74-1.59l.05,0c0-.2.14-.44.08-.59-.31-.68-.71-1.31-1-2a1.89,1.89,0,0,1,0-1.13A27.35,27.35,0,0,1,49.6,27a1.75,1.75,0,0,1,.78-.81,13.2,13.2,0,0,1,2-.68.55.55,0,0,0,.45-.64c0-.65,0-1.31,0-2a.78.78,0,0,0-.41-.56c-.67-.27-1.38-.41-2-.71a1.78,1.78,0,0,1-.79-.79c-.43-.89-.75-1.83-1.17-2.73a1.27,1.27,0,0,1,0-1.21c.32-.6.59-1.22.93-1.8a.58.58,0,0,0-.15-.86A13.82,13.82,0,0,1,48,13.07a.66.66,0,0,0-1-.18,9.25,9.25,0,0,1-1.75.88,1.94,1.94,0,0,1-1.19,0c-.91-.31-1.78-.75-2.69-1.08a1.25,1.25,0,0,1-.86-.85c-.19-.67-.43-1.32-.63-2a.55.55,0,0,0-.63-.47c-.65,0-1.31,0-2,0a.83.83,0,0,0-.56.4,11.63,11.63,0,0,0-.6,1.81,1.54,1.54,0,0,1-1.19,1.16c-.86.27-1.68.65-2.56,1Zm.92,1.6c1.11,1.92,2.06,3.9,3.31,5.67,2,2.87.33,5.74-3.1,5.28a12.17,12.17,0,0,0-1.48,0,6.82,6.82,0,0,0,8.86.62A6.93,6.93,0,0,0,34.81,18Z"/><path class="cls-1" d="M15.2,44.49c2.86-1.54,5.71-3,8.51-4.6a4.79,4.79,0,0,1,4.72-.15c2.06,1,4.15,1.9,6.23,2.85s2.09,1,2.8,3a3.21,3.21,0,0,0,2.25-.65c3-2,6-4,9.12-6A34.15,34.15,0,0,1,52.47,37a4.27,4.27,0,0,1,3.16-.21c1.57.49,2.19,1.79,1.31,3.17a18.91,18.91,0,0,1-2.82,3.49,71.33,71.33,0,0,1-14,10.46,15.46,15.46,0,0,1-12,1.55,9.74,9.74,0,0,0-7.24,1.1c0,.18,0,.38,0,.59a2.48,2.48,0,0,1-1.44,2.48c-.9.46-1.83.89-2.76,1.28a2.53,2.53,0,0,1-3.34-1.24q-2.82-5.9-5.58-11.83A2.51,2.51,0,0,1,9,44.48c.7-.35,1.42-.67,2.13-1C13,42.64,13.94,42.88,15.2,44.49ZM20.07,55l.72-.32a11.46,11.46,0,0,1,8-.8A13.39,13.39,0,0,0,39,52.55a63.06,63.06,0,0,0,8.84-6c2.19-1.79,4.25-3.75,6.33-5.68a10,10,0,0,0,1.25-1.67c.29-.41.11-.74-.33-.77a4.11,4.11,0,0,0-1.79.1A20.88,20.88,0,0,0,50,40.27c-3.11,2-6.19,4.06-9.28,6.11a5.12,5.12,0,0,1-3.15,1,.84.84,0,0,0-.82.43,2.72,2.72,0,0,1-3.36,1c-1-.35-2-.66-2.91-1.08a5.42,5.42,0,0,0-3.87-.41,1.58,1.58,0,0,1-.38,0,.81.81,0,0,1-1-.76.79.79,0,0,1,.74-.93c.58-.1,1.18-.15,1.75-.28a3,3,0,0,1,1.86.18c1.44.55,2.89,1.07,4.35,1.59a1.12,1.12,0,0,0,1.55-.65,1.36,1.36,0,0,0-.74-2c-2.44-1.12-4.89-2.21-7.32-3.34a2.72,2.72,0,0,0-2.61.1c-1.87,1-3.76,2-5.64,3.05L15.89,46.1Zm-.85,2.45a5.89,5.89,0,0,0-.2-.6q-2.7-5.73-5.42-11.47a.86.86,0,0,0-1.3-.47c-.76.33-1.5.69-2.25,1s-1,.75-.57,1.56q1.17,2.49,2.36,5c1,2.08,2,4.17,2.95,6.25.29.63.66.83,1.19.61.92-.39,1.82-.81,2.7-1.27C18.92,57.93,19.06,57.6,19.22,57.41Z"/><path class="cls-1" d="M25,9.21a2.68,2.68,0,0,1,2.8,3.21c-.39,1.95-.57,3.93-.84,5.9a2,2,0,0,1-2.62,1.84A1.86,1.86,0,0,1,23,18.51c-.29-2.09-.59-4.19-.88-6.28A2.62,2.62,0,0,1,25,9.21Zm-.17,9.29.23,0a1.77,1.77,0,0,0,.15-.38c.3-2,.6-4.1.87-6.16.09-.7-.29-1-1.08-1s-1.17.34-1.08,1c.17,1.42.38,2.85.58,4.27Z"/><path class="cls-1" d="M27.61,23.45A2.63,2.63,0,1,1,25,20.81,2.66,2.66,0,0,1,27.61,23.45ZM25,22.56a.92.92,0,0,0-.91.88.91.91,0,0,0,.93.91.88.88,0,0,0,.86-.91A.87.87,0,0,0,25,22.56Z"/></svg>