<svg id="Layer_1" data-name="Layer 1" xmlns="http://www.w3.org/2000/svg" viewBox="0 0 65 65"><defs><style>.cls-1{fill:#190f2d;}</style></defs><path class="cls-1" d="M18.92,25.77c0-1.06,0-2.16,0-3.25a.86.86,0,0,0-.28-.54,8.94,8.94,0,0,1-2.73-7.07,23,23,0,0,1,.28-4.08,8.63,8.63,0,0,1,17,1.87,29.85,29.85,0,0,1-.1,4.23,8.47,8.47,0,0,1-2.54,5,1.41,1.41,0,0,0-.35.86c0,1,0,2,0,2.9.71.36,1.35.71,2,1,1.85.86,3.68,1.74,5.55,2.53a12.8,12.8,0,0,1,3.85,2.32,11.24,11.24,0,0,1,1.85-.63A4.12,4.12,0,0,1,48,33.07q3.52,6.09,7,12.21c1.76,3,3.53,6.09,5.27,9.16a4.26,4.26,0,0,1-2.43,6.27,5.44,5.44,0,0,1-1.45.18H32a4.26,4.26,0,0,1-4.22-5.77c0-.09,0-.19.07-.33H5.37c-1,0-1.16-.15-1.16-1.16V39.47a10.32,10.32,0,0,1,6.75-10,53.59,53.59,0,0,0,7.12-3.33A6.17,6.17,0,0,1,18.92,25.77ZM44.14,59.49H56.48a2.82,2.82,0,0,0,2.84-1.95A3,3,0,0,0,59,55q-3.55-6.12-7.08-12.25l-5.1-8.85a2.9,2.9,0,0,0-5.17,0c-1.64,2.83-3.26,5.67-4.9,8.5L29.45,55A3,3,0,0,0,29,57.07a2.86,2.86,0,0,0,2.95,2.41ZM13.43,53.34h9.49l.13-.17-2.81-2.66a1.09,1.09,0,0,1-.34-1.16c.65-2.9,1.29-5.81,1.93-8.71.26-1.22.52-2.44.76-3.53a8.26,8.26,0,0,1-.77-.69c-.21-.24-.38-.53-.65-.9-.27.31-.48.59-.73.84-.73.74-1.13.67-1.6-.23L15.72,30c-.14-.28-.29-.54-.45-.84-1.32.54-2.61,1.06-3.89,1.6a8.93,8.93,0,0,0-5.76,8.67V53.35H12v-11c0-.2-.06-.44,0-.58s.42-.55.68-.59.65.21.68.63a5.62,5.62,0,0,1,0,.58V53.34Zm3.88-39v1.12a7.44,7.44,0,0,0,2,5.18c.56.6,1.07,1.25,1.58,1.89A3.43,3.43,0,0,0,23.49,24a15,15,0,0,0,2.22,0,3.38,3.38,0,0,0,2.44-1.36c.59-.73,1.19-1.46,1.81-2.17a6.17,6.17,0,0,0,1.65-3.31,33.2,33.2,0,0,0,.18-4.46A7.24,7.24,0,0,0,17.91,10,9.91,9.91,0,0,0,17.31,14.36Zm8.73,39c.8,0,1.44,0,2.08,0a.87.87,0,0,0,.91-.53q5.61-9.78,11.26-19.54l.4-.71c-2-1.84-4.54-2.36-6.84-3.48-.11.21-.18.32-.24.45L30.2,36.28c-.36.7-.83.77-1.39.21-.3-.29-.56-.62-.82-.91l-1.35,1.51c-.1,0-.09.18-.06.31.84,3.8,1.65,7.61,2.53,11.4a1.85,1.85,0,0,1-.57,2.08C27.69,51.62,26.94,52.47,26,53.39Zm-1.46-.69c.93-.89,1.87-1.82,2.85-2.73a.87.87,0,0,0,.27-1q-.94-4.23-1.87-8.48c-.26-1.19-.53-2.39-.8-3.58h-1c-.9,4.15-1.8,8.27-2.7,12.4a.54.54,0,0,0,.11.41C22.52,50.75,23.57,51.74,24.58,52.7ZM20.34,24.19c0,.88,0,1.75,0,2.62a.75.75,0,0,0,.3.46c1.18,1,2.38,1.91,3.57,2.88.23.19.39.24.65,0,1.2-1,2.41-1.94,3.61-2.92a.72.72,0,0,0,.29-.41c0-.88,0-1.77,0-2.65A7.35,7.35,0,0,1,20.34,24.19ZM23.4,31.3c-1.52-1.23-3.07-2.48-4.63-3.72a.45.45,0,0,0-.37-.06c-.62.32-1.22.67-1.85,1L19.86,35Zm2.44-.1,3.5,3.66,3.23-6.34c-.61-.33-1.19-.66-1.78-1a.5.5,0,0,0-.46.05C28.78,28.83,27.24,30.07,25.84,31.2Zm-1.25,1.16-2.24,2.32c.5.82.5.82,1.46.82h1.58c1,0,1,0,1.37-.88Z"/><path class="cls-1" d="M44.23,37.38a3.37,3.37,0,0,1,3.34,3.72c-.27,2.43-.58,4.86-.91,7.28a2.49,2.49,0,0,1-4.92,0q-.5-3.66-.92-7.33A3.39,3.39,0,0,1,44.23,37.38Zm2,3.5a2,2,0,0,0-2.06-2.09A2,2,0,0,0,42.23,41c.28,2.37.58,4.73.89,7.1a1,1,0,0,0,1,1,1,1,0,0,0,1.11-1c.11-.69.19-1.39.28-2.09C45.76,44.26,46,42.54,46.18,40.88Z"/><path class="cls-1" d="M41.48,54.82a2.72,2.72,0,1,1,2.69,2.76A2.73,2.73,0,0,1,41.48,54.82Zm1.41,0a1.32,1.32,0,0,0,1.3,1.32,1.33,1.33,0,1,0-1.3-1.32Z"/></svg>