<svg id="Layer_1" data-name="Layer 1" xmlns="http://www.w3.org/2000/svg" viewBox="0 0 65 65"><defs><style>.cls-1{fill:blue;}.cls-2{fill:#f3f945;}</style></defs><path class="cls-1" d="M23.27,62.66c-.8-.16-1.62-.26-2.41-.48A15.08,15.08,0,0,1,10,51.88a2.44,2.44,0,0,1,3.86-2.68,4.09,4.09,0,0,1,.91,1.46,10.21,10.21,0,0,0,7.86,6.85,10.37,10.37,0,1,0-7.8-13.6c-.59,1.66-1.8,2.42-3.21,1.92a2.94,2.94,0,0,1-1.29-.94c-.94-1.23-1.82-2.51-2.67-3.8a2.46,2.46,0,0,1,4-2.88l.27.34c.95-1,1.82-2,2.84-2.89A15.3,15.3,0,1,1,26.3,62.56a1.39,1.39,0,0,0-.33.1Zm14.9-15.3c-.06-.68-.1-1.36-.19-2a13.56,13.56,0,0,0-19.66-10,13.77,13.77,0,0,0-5.42,5.15c-.56,1-1.21,1-1.84,0l-.72-1.07a.68.68,0,0,0-1-.26.67.67,0,0,0-.17,1c.83,1.21,1.67,2.42,2.53,3.61.43.6,1.08.48,1.34-.21,0-.1.06-.19.1-.28a12.13,12.13,0,1,1,.14,8.39c-.1-.26-.18-.52-.28-.78a.7.7,0,0,0-.92-.5c-.47.15-.53.53-.42,1,0,.09.07.18.1.28a13.57,13.57,0,0,0,26.42-4.33Z"/><path class="cls-1" d="M37.19,32.41c.44-1.42.84-2.67,1.24-3.93a2.67,2.67,0,0,1,.17-.5.82.82,0,0,1,1-.44.81.81,0,0,1,.64.87,2.15,2.15,0,0,1-.13.57c-.44,1.44-.88,2.88-1.33,4.32a1.64,1.64,0,0,1-1.61,1.37c-.75,0-1.26-.48-1.54-1.37-.37-1.18-.75-2.35-1.1-3.54a.58.58,0,0,0-.69-.5H19.9a3.12,3.12,0,0,1-3.43-3.42v-20a3.11,3.11,0,0,1,3.39-3.4H54.3a3.06,3.06,0,0,1,3.34,3.32q0,10.08,0,20.16a3.07,3.07,0,0,1-3.33,3.33H43.91a2.33,2.33,0,0,1-.53,0,.87.87,0,0,1,0-1.71,2.32,2.32,0,0,1,.59,0H54.23c1.2,0,1.65-.44,1.65-1.62v-20c0-1.18-.46-1.62-1.65-1.62H19.9c-1.2,0-1.67.47-1.67,1.68V25.82c0,1.21.47,1.68,1.66,1.68h14.7c.93,0,1.1.13,1.38,1Z"/><path class="cls-1" d="M24.39,55.85a8.55,8.55,0,0,1-8-5.77c-.27-.81-.13-1.3.42-1.49s1,.1,1.24.91A6.74,6.74,0,0,0,30.93,49,6.75,6.75,0,0,0,18,45.12c-.31.9-.67,1.17-1.25,1s-.71-.67-.42-1.53a8.51,8.51,0,1,1,8,11.28Z"/><path class="cls-2" d="M39.49,22a6,6,0,1,1,6-6A6,6,0,0,1,39.49,22Zm0-1.77A4.21,4.21,0,1,0,35.27,16,4.21,4.21,0,0,0,39.51,20.24Z"/><path class="cls-2" d="M27.55,17.11c1,1.16,2,2.23,2.91,3.31a.89.89,0,1,1-1.32,1.16q-1.68-1.89-3.34-3.79l-.53-.56c0,1.29,0,2.43,0,3.58,0,.19.06.46-.05.57a1.85,1.85,0,0,1-.83.6c-.43.1-.73-.23-.84-.65a1.8,1.8,0,0,1,0-.52V11.29c0-1,.27-1.24,1.21-1.24s1.72,0,2.58,0a3.59,3.59,0,0,1,3.49,3.2A3.58,3.58,0,0,1,27.92,17Zm-2.24-1.75h1.81a2.27,2.27,0,0,0,.52-.09A1.79,1.79,0,0,0,29,13.53a1.74,1.74,0,0,0-1.43-1.64,19.38,19.38,0,0,0-2.29,0Z"/><path class="cls-2" d="M24.35,42.17l.82.79a6.76,6.76,0,0,0,.52.55c.2.18.46.3.66.49a.81.81,0,0,1,.1,1.16.86.86,0,0,1-1.16.2,3.11,3.11,0,0,0-1-.32c-.16,0-.41.22-.48.4s.14.4.29.48a11.36,11.36,0,0,0,1.29.55A2.33,2.33,0,0,1,27,48.58,2.52,2.52,0,0,1,25.75,51a1.34,1.34,0,0,0-.59.71,1.05,1.05,0,0,1-.75.59,1.08,1.08,0,0,1-.83-.55.85.85,0,0,0-.6-.53,2.83,2.83,0,0,1-.58-.28.93.93,0,0,1-.5-1.27c.24-.45.75-.53,1.33-.29a3.65,3.65,0,0,0,1.12.26.81.81,0,0,0,.87-.72c.09-.47-.23-.65-.6-.81a11.23,11.23,0,0,1-1.5-.67,2.2,2.2,0,0,1-.1-3.79c.21-.14.32-.43.5-.62S24,42.5,24.35,42.17Z"/><path class="cls-2" d="M50.47,16v4.7a2.88,2.88,0,0,1,0,.59.86.86,0,0,1-1.66.08,2.69,2.69,0,0,1-.07-.75V11.42a4.51,4.51,0,0,1,0-.52.87.87,0,0,1,.89-.84.84.84,0,0,1,.85.86c0,.27,0,.55,0,.82Z"/></svg>