<svg id="Layer_1" data-name="Layer 1" xmlns="http://www.w3.org/2000/svg" viewBox="0 0 65 65"><defs><style>.cls-1{fill:#190f2d;}</style></defs><path class="cls-1" d="M61,38.15V40H38.53c.49,5.31-1.25,9.62-5.62,12.62s-9,3-13.77.65c-.41.43-.83.89-1.26,1.33A2.07,2.07,0,0,1,16,55.3a.58.58,0,0,0-.65.33c-1.3,2-2.59,3.92-3.91,5.87a3.84,3.84,0,0,1-3.85,1.79,3.79,3.79,0,0,1-3.27-2.71A3.91,3.91,0,0,1,6,56q2.85-1.93,5.73-3.81a.79.79,0,0,0,.45-.88,2,2,0,0,1,.67-1.73c.44-.44.89-.86,1.36-1.32A13.11,13.11,0,0,1,12.65,40H5.08V38.17l.9,0v-.62c0-2.79,0-5.59,0-8.39,0-.92.3-1.23,1.21-1.23,2.29,0,4.59,0,6.88,0,.92,0,1.23.3,1.23,1.21,0,1.51,0,3,0,4.55.61-.58,1.21-1.11,1.76-1.69.12-.12.11-.4.11-.6V21.68c0-1,.3-1.26,1.25-1.26H25.3c.88,0,1.2.32,1.2,1.19v7.23l1.87.26V12.44c0-1.08.26-1.35,1.33-1.35h6.71c1,0,1.28.29,1.28,1.28,0,8,0,15.94,0,23.9A12.52,12.52,0,0,0,38,38.15ZM36.76,41.88a11.2,11.2,0,1,0-11.2,11.19A11.22,11.22,0,0,0,36.76,41.88ZM30.27,13a1,1,0,0,0,0,.2q0,8.07,0,16.14a.74.74,0,0,0,.38.52,13.33,13.33,0,0,1,4,2.62c.4.38.77.8,1.21,1.26V13ZM13.15,38.12a15,15,0,0,0,.28-1.78c0-2,0-4,0-6v-.61H7.88v8.34Zm11.44-9.26V22.33H19.07v8.23A13.45,13.45,0,0,1,24.59,28.86ZM8.22,61.47a2.1,2.1,0,0,0,1.66-1c1.33-2,2.64-4,4-6,.28-.41,0-.57-.19-.81a.48.48,0,0,0-.77-.1c-.76.55-1.55,1-2.32,1.56-1.23.82-2.46,1.63-3.68,2.46A2.07,2.07,0,0,0,6.09,60,2.16,2.16,0,0,0,8.22,61.47Zm9.27-9L15,49.92a11.13,11.13,0,0,0-.87,1,.65.65,0,0,0,0,.59,24.63,24.63,0,0,0,1.77,1.77.62.62,0,0,0,.59,0A10.75,10.75,0,0,0,17.49,52.45Z"/><path class="cls-1" d="M53.55,51.25v3.17c0,1.21-.21,1.43-1.4,1.45l-.44,0,3.71,4.94L59,56a4,4,0,0,1-1.5-.57c-.28-.27-.23-.89-.33-1.38a2.86,2.86,0,0,1,.42-.08c1.09,0,2.18,0,3.26,0a1.31,1.31,0,0,1,.93.52,1.16,1.16,0,0,1-.12,1c-1.79,2.46-3.63,4.9-5.47,7.33a.92.92,0,0,1-1.61,0L49.15,55.6c-.25-.33-.42-.73-.13-1.06A1.65,1.65,0,0,1,50,54a10.8,10.8,0,0,1,1.72,0v-.87c0-.89,0-1.78,0-2.68s.34-1.11,1.09-1.12h5.31a1,1,0,0,1,1.06,1c0,.48,0,1,0,1.45,0,.08,0,.15,0,.27H57.31l0-.85Z"/><path class="cls-1" d="M46.15,51.2c-.21-1.52,0-1.77,1.78-1.89l-3.7-4.94-3.73,5h.75c.76,0,1.1.34,1.11,1.1,0,1.17,0,2.33,0,3.53h3.71v-.85h1.87c0,.64.05,1.3,0,2a.88.88,0,0,1-1,.8c-1.8,0-3.61,0-5.42,0a.93.93,0,0,1-1-1.06c0-1.18,0-2.36,0-3.6a12.09,12.09,0,0,1-1.71,0,1.77,1.77,0,0,1-1-.51c-.29-.33-.12-.73.13-1.07,1.82-2.42,3.63-4.85,5.45-7.26a1,1,0,0,1,1.62,0q2.76,3.64,5.49,7.32a.91.91,0,0,1-.61,1.53C48.66,51.24,47.4,51.2,46.15,51.2Z"/><path class="cls-1" d="M41.4,13.73v1.75H39.61V13.73Z"/><path class="cls-1" d="M41.39,31.79h-1.8V30h1.8Z"/><path class="cls-1" d="M41.39,34.52H39.61V32.75h1.78Z"/><path class="cls-1" d="M47.07,32.73h1.78V34.5H47.07Z"/><path class="cls-1" d="M48.87,30v1.76H47.06V30Z"/><path class="cls-1" d="M39.59,11h1.8v1.76h-1.8Z"/><path class="cls-1" d="M47.05,12.76V11h1.8v1.74Z"/><path class="cls-1" d="M47.05,15.47V13.73h1.81v1.74Z"/><path class="cls-1" d="M41.38,23.64H39.6V21.87h1.78Z"/><path class="cls-1" d="M48.85,23.64H47.06V21.87h1.79Z"/><path class="cls-1" d="M41.4,5.53v1.8H39.62C39.4,5.76,39.75,5.4,41.4,5.53Z"/><path class="cls-1" d="M48.83,7.33l-.21,0H47.07V5.57C48.55,5.27,49.05,5.76,48.83,7.33Z"/><path class="cls-1" d="M52.59,27.93v1.79H50.84C50.52,28.21,51.06,27.69,52.59,27.93Z"/><path class="cls-1" d="M58.26,27.92c1.63-.13,2,.23,1.77,1.8H58.26Z"/><path class="cls-1" d="M48.86,8.31V10H47.05V8.31Z"/><path class="cls-1" d="M41.38,10.05H39.61V8.31h1.77Z"/><path class="cls-1" d="M52.57,32.25H50.79V30.61h1.78Z"/><path class="cls-1" d="M60.06,30.61v1.63H58.25V30.61Z"/><path class="cls-1" d="M41.39,27.34v1.72H39.6V27.34Z"/><path class="cls-1" d="M47.06,24.59h1.79v1.74H47.06Z"/><path class="cls-1" d="M41.41,24.62v1.71H39.6V24.62Z"/><path class="cls-1" d="M41.4,37.2H39.59V35.48H41.4Z"/><path class="cls-1" d="M47.06,37.18V35.47h1.79v1.71Z"/><path class="cls-1" d="M52.59,35.66v1.62H50.8V35.66Z"/><path class="cls-1" d="M58.25,37.28V35.65H60v1.63Z"/><path class="cls-1" d="M47.06,27.32h1.79v1.73H47.06Z"/><path class="cls-1" d="M48.86,19.18v1.73h-1.8V19.18Z"/><path class="cls-1" d="M39.6,19.16h1.79v1.75H39.6Z"/><path class="cls-1" d="M48.87,16.47v1.71H47.06V16.47Z"/><path class="cls-1" d="M39.59,16.45h1.8v1.73h-1.8Z"/><path class="cls-1" d="M43.79,7.33H42.26V5.54h1.53Z"/><path class="cls-1" d="M44.67,5.52h1.52v1.8H44.67Z"/><path class="cls-1" d="M55.85,27.91h1.52v1.81H55.85Z"/><path class="cls-1" d="M58.25,34.75v-1.6H60v1.6Z"/><path class="cls-1" d="M55,29.73H53.47V27.92H55Z"/><path class="cls-1" d="M50.8,33.15h1.78v1.6H50.8Z"/><path class="cls-1" d="M25.59,32.55a9.33,9.33,0,1,1-9.35,9.28A9.35,9.35,0,0,1,25.59,32.55Zm0,1.87A7.46,7.46,0,1,0,33,41.89,7.48,7.48,0,0,0,25.6,34.42Z"/><path class="cls-1" d="M23.66,40H21.91a3.47,3.47,0,0,1,2.67-3.58,3.74,3.74,0,0,1,4.5,2.36,3.63,3.63,0,0,1-2,4.63c-.66.28-.51.76-.58,1.25H24.72a2.32,2.32,0,0,1,1.43-2.86,1.91,1.91,0,0,0,1.25-2.12,1.87,1.87,0,0,0-1.75-1.52,1.78,1.78,0,0,0-1.89,1.39C23.72,39.69,23.7,39.83,23.66,40Z"/><path class="cls-1" d="M24.66,47.44V45.65h1.8v1.79Z"/></svg>