<svg id="Layer_1" data-name="Layer 1" xmlns="http://www.w3.org/2000/svg" viewBox="0 0 65 65"><defs><style>.cls-1{fill:blue;}.cls-2{fill:#f3f945;}</style></defs><path class="cls-1" d="M34,7l5.62-.87c1.89-.3,3.79-.62,5.69-.91a.62.62,0,0,0,.58-.46,2.72,2.72,0,0,1,2.41-1.93,2.69,2.69,0,0,1,2.68,1.32,2.8,2.8,0,0,1,0,3.09.8.8,0,0,0,0,.66c.65,1.21,1.34,2.39,2,3.57a1.66,1.66,0,0,0,.48.51,8.56,8.56,0,1,1-9.94.09,2.91,2.91,0,0,0,.74-.82C44.89,10.22,45.5,9.14,46.1,8c.1-.19.19-.54.09-.65a.9.9,0,0,0-.69-.23c-2.86.43-5.71.89-8.57,1.35l-2.17.33c-.36.05-.49.21-.63.55A8.38,8.38,0,0,1,33,11.32a1.12,1.12,0,0,0-.32.92c.43,3,.84,6,1.25,9q1,7.06,2,14.13c.07.51.15,1,.21,1.53a1,1,0,0,1-1.07,1.23q-4.61,0-9.22,0c-.81,0-1.19-.46-1.08-1.27l2.79-20c.21-1.52.41-3,.63-4.54a.8.8,0,0,0-.32-.92,1.33,1.33,0,0,1-.5-.58c-.26-.6-.65-.66-1.26-.56-3.48.59-7,1.13-10.45,1.67-.33.05-.44.22-.62.48a1.62,1.62,0,0,0,.18,2.16,9.61,9.61,0,0,1,.57,1,11,11,0,0,0,2.3,3A8,8,0,0,1,20.6,27a8.21,8.21,0,0,1-6.54,6.12A8.57,8.57,0,0,1,7.3,17.84a3.17,3.17,0,0,0,.81-.9c.65-1.07,1.24-2.17,1.87-3.25A.6.6,0,0,0,10,13a2.84,2.84,0,0,1,4.65-3.24.68.68,0,0,0,.75.28l10.8-1.7a.58.58,0,0,0,.57-.53A3.6,3.6,0,0,1,28.8,5.15a.71.71,0,0,0,.47-.67c.05-.55.15-1.1.23-1.65a1,1,0,0,1,1.91,0c.08.59.14,1.18.25,1.76a.77.77,0,0,0,.32.5A4.16,4.16,0,0,1,34,7ZM5.71,24.75a6.66,6.66,0,1,0,6.65-6.66A6.67,6.67,0,0,0,5.71,24.75Zm42.82.95A6.66,6.66,0,1,0,41.88,19,6.66,6.66,0,0,0,48.53,25.7ZM34.12,36.15q-1.66-11.91-3.3-23.75h-.73c-1.1,7.93-2.2,15.83-3.3,23.75ZM30.47,10.47a1.91,1.91,0,1,0-1.92-1.88A1.91,1.91,0,0,0,30.47,10.47Zm19.72.06a9.55,9.55,0,0,0-1-1.75A1.18,1.18,0,0,0,48,8.71a10.32,10.32,0,0,0-1.09,1.82ZM10.72,16.24H14c-.34-.6-.64-1.15-1-1.69a1,1,0,0,0-1.32-.09C11.38,15,11.06,15.65,10.72,16.24ZM49.49,5.73a1,1,0,1,0-1,.93A1,1,0,0,0,49.49,5.73ZM13.32,11.44a1,1,0,1,0-1,.93A1,1,0,0,0,13.32,11.44Z"/><path class="cls-1" d="M12.37,56.05c0,.41,0,.72,0,1a.91.91,0,0,1-1,1c-2.84,0-5.67,0-8.51,0-.68,0-1-.41-1-1.2V40.33c0-1,.3-1.29,1.27-1.29H11c1.06,0,1.34.27,1.35,1.33v.51c1.72,0,3.38.07,5,0,5-.23,10-.54,15-.77a3.08,3.08,0,0,1,3.12,4.16,3,3,0,0,1-2.11,1.92L31,46.8c1.49.59,2.82,1.13,4.16,1.64a1.09,1.09,0,0,0,.63-.07l18.68-4.86A3.65,3.65,0,0,1,57.6,50a5.5,5.5,0,0,1-1.11.56C49.34,53.32,42.2,56.08,35,58.8a2.46,2.46,0,0,1-1.37.09c-5-1.15-10-2.36-15-3.49a6.1,6.1,0,0,0-2,.06C15.23,55.63,13.82,55.85,12.37,56.05Zm0-1.92,5.25-.75a2.7,2.7,0,0,1,.94,0c5,1.17,10.06,2.36,15.09,3.52a1.89,1.89,0,0,0,1.08-.07q6.52-2.48,13-5l8.09-3.11a1.86,1.86,0,0,0,1.36-1.5,1.79,1.79,0,0,0-2.45-1.89C48.53,47.05,42.26,48.66,36,50.31a2.38,2.38,0,0,1-1.6-.1c-2-.83-4-1.64-6.07-2.43a1.73,1.73,0,0,0-1-.06c-1.06.22-2.11.51-3.17.76-.68.17-1.19-.08-1.33-.63s.19-1,.85-1.2L28,45.58c1.62-.4,3.23-.79,4.84-1.2A1.2,1.2,0,0,0,32.48,42l-1.31,0-18.48.8-.29,0Zm-2,2V41H3.83V56.15Z"/><path class="cls-2" d="M11.49,26.2c1.28-1.29,2.55-2.59,3.87-3.85a1.42,1.42,0,0,1,1-.41.92.92,0,0,1,.51,1.58c-.48.53-1,1-1.51,1.52l-3.06,3.07c-.62.61-1.07.61-1.68,0S9.49,27,9,26.48A1,1,0,0,1,8.86,25a1,1,0,0,1,1.43.11c.36.34.71.69,1.06,1Z"/><path class="cls-2" d="M48.53,17.74c.73-.74,1.37-1.41,2-2.06s1.08-.59,1.5-.16.37,1-.16,1.51l-2,2,2.07,2a1,1,0,0,1,.36,1.11.94.94,0,0,1-1.63.31c-.69-.67-1.36-1.38-2.13-2.18l-1.67,1.75c-.17.17-.33.35-.51.5a1,1,0,0,1-1.34,0,.91.91,0,0,1,0-1.33c.54-.58,1.11-1.13,1.67-1.69l.5-.53c-.7-.69-1.42-1.34-2.06-2.07a1.42,1.42,0,0,1-.32-1c.15-.73,1-.89,1.61-.32S47.78,17,48.53,17.74Z"/></svg>