<svg id="Layer_1" data-name="Layer 1" xmlns="http://www.w3.org/2000/svg" viewBox="0 0 65 65"><defs><style>.cls-1{fill:#190f2d;}</style></defs><path class="cls-1" d="M14.61,13.11c0-.84,0-1.72,0-2.61a2.83,2.83,0,0,1,3-3H29.35a.73.73,0,0,0,.77-.44,2.77,2.77,0,0,1,4.87,0,.73.73,0,0,0,.77.44H47.33a2.87,2.87,0,0,1,3.17,3.18v2.4c1.75.23,3.44.37,5.08.71A16.27,16.27,0,0,1,59,15a3.08,3.08,0,0,1,1.9,3.1q-.08,14.55,0,29.11A3,3,0,0,1,59.35,50a13.32,13.32,0,0,1-4.9,1.59,30.49,30.49,0,0,1-10.22-.09c-.09,0-.19,0-.34,0v3.67c0,.78,0,1.57,0,2.36a2.76,2.76,0,0,1-1.7,2.9,18.56,18.56,0,0,1-3.94,1.36,27.7,27.7,0,0,1-13.08-.41,11.63,11.63,0,0,1-2.67-1.2,2.63,2.63,0,0,1-1.31-2.48c.05-1.85,0-3.7,0-5.55v-.64c-1.2.13-2.35.3-3.5.38A25.89,25.89,0,0,1,7.41,50.71a9,9,0,0,1-2.12-1.12,2.51,2.51,0,0,1-1.08-2.24c0-9.78,0-19.56,0-29.34A3.16,3.16,0,0,1,6,15a12.27,12.27,0,0,1,4.24-1.37C11.65,13.42,13.1,13.29,14.61,13.11Zm34,0c0-.84,0-1.74,0-2.64a.94.94,0,0,0-1.06-1q-6,0-12,0c-.18,0-.37.19-.52.34a12.36,12.36,0,0,1-1.15,1.14.79.79,0,0,0-.41.74q0,5.69,0,11.39c0,.17,0,.35,0,.51l4.7.49v-.64c0-1.79.06-3.58,0-5.37A2.9,2.9,0,0,1,40,15a17.62,17.62,0,0,1,3.6-1.24C45.22,13.44,46.89,13.31,48.61,13.08Zm-17,10.44a.75.75,0,0,0,0-.16c0-4,0-7.95,0-11.92,0-.16-.17-.35-.3-.48A13.36,13.36,0,0,1,30.1,9.77a.74.74,0,0,0-.68-.39H17.61c-.66,0-1.07.27-1.09.81,0,1,0,2,0,2.91,1.52.18,3,.31,4.44.53a11.93,11.93,0,0,1,4.33,1.45,2.93,2.93,0,0,1,1.63,2.85c-.06.9,0,1.81,0,2.71V24Zm-8.45,22c0,1.49,0,3,0,4.52a.94.94,0,0,0,.51,1,12.59,12.59,0,0,0,2.21,1,26.58,26.58,0,0,0,12.32.28,18.79,18.79,0,0,0,3.2-1.14c.27-.11.62-.46.63-.7.05-1.64,0-3.29,0-4.88A28,28,0,0,1,23.11,45.56Zm0,7.56c0,1.49,0,3,0,4.55a.91.91,0,0,0,.49.93,13.33,13.33,0,0,0,2.2,1,26.49,26.49,0,0,0,12.33.28,16.84,16.84,0,0,0,3.25-1.17,1.1,1.1,0,0,0,.6-.77c.06-1.61,0-3.22,0-4.77A28,28,0,0,1,23.11,53.12Zm0-22.68c0,1.47,0,3,0,4.5a1,1,0,0,0,.55,1,14.34,14.34,0,0,0,2.22.94,26.33,26.33,0,0,0,12.26.27A17.54,17.54,0,0,0,41.37,36a1.1,1.1,0,0,0,.6-.77c.06-1.61,0-3.22,0-4.78A27.8,27.8,0,0,1,23.11,30.44Zm0,7.57s0,0,0,0v3.48c0,1.85.09,2,1.82,2.64l.22.08a24.74,24.74,0,0,0,9.21,1,18.86,18.86,0,0,0,6-1.13c1.55-.61,1.65-.77,1.65-2.4V38A27.86,27.86,0,0,1,23.13,38Zm-17-18c0,1.56,0,3.15,0,4.74a1,1,0,0,0,.44.7,10.71,10.71,0,0,0,2.19,1,26.69,26.69,0,0,0,12.44.29.76.76,0,0,0,.41-.17,6.31,6.31,0,0,1,3-1.94c.14,0,.34-.24.34-.37,0-1.42,0-2.85,0-4.23A27.89,27.89,0,0,1,6.1,20.05Zm34,0c0,1.3,0,2.64,0,4a.61.61,0,0,0,.5.71,5.7,5.7,0,0,1,2.85,1.79,1,1,0,0,0,.51.25,27,27,0,0,0,11.17,0,19.11,19.11,0,0,0,3.25-1.17,1,1,0,0,0,.59-.72c.06-1.63,0-3.25,0-4.82A27.92,27.92,0,0,1,40.11,20.05ZM21.19,43.84a30.77,30.77,0,0,1-7.64.46A19.8,19.8,0,0,1,6.1,42.62V46.5c0,1.55.09,1.68,1.55,2.3l.44.16a25,25,0,0,0,9.68,1c1.15-.08,2.29-.28,3.42-.42Zm22.75,0a1.91,1.91,0,0,0,0,.26c0,1.66,0,3.31,0,5,0,.34.14.43.44.48a27.52,27.52,0,0,0,10.85-.09,21.45,21.45,0,0,0,3.2-1.14A1.06,1.06,0,0,0,59,47.18c-.05-.94,0-1.89,0-2.83V42.61a19.7,19.7,0,0,1-7.47,1.69A30.73,30.73,0,0,1,43.94,43.85ZM6.1,35.1v3.79c0,1.61.1,1.75,1.61,2.37l.39.14a24.79,24.79,0,0,0,9.49,1c1.21-.08,2.41-.28,3.59-.42V36.31C16.05,37.07,11,37.1,6.1,35.1Zm37.82-.8a2.52,2.52,0,0,0,.29.1,27.58,27.58,0,0,0,10.9-.06,20.38,20.38,0,0,0,3.26-1.15A1.06,1.06,0,0,0,59,32.05c-.05-.94,0-1.89,0-2.83V27.53c-4.94,2-10,2-15.08,1.22ZM6.1,27.54c0,1.56,0,3.09,0,4.63a.92.92,0,0,0,.5.92,14.24,14.24,0,0,0,2.2,1,26.58,26.58,0,0,0,10,.67c.8-.09,1.61-.25,2.39-.37v-5.6C16.08,29.49,11.05,29.54,6.1,27.54ZM43.89,36.3c0,1.8,0,3.55,0,5.29,0,.14.27.35.44.39a27.19,27.19,0,0,0,10.71-.06,21,21,0,0,0,3.31-1.17A1,1,0,0,0,59,39.61c-.05-.78,0-1.57,0-2.36V35.1C54.07,37.1,49.05,37.07,43.89,36.3ZM31.61,25.38c-1.61.22-3.16.34-4.67.65a14.94,14.94,0,0,0-3.15,1.11c-.9.43-.89.88,0,1.33a11,11,0,0,0,2.46,1,26.44,26.44,0,0,0,10.37.44,21.86,21.86,0,0,0,4-1A5.57,5.57,0,0,0,42,27.8a5.79,5.79,0,0,0-1.43-1,27.43,27.43,0,0,0-3.69-1c-1.09-.2-2.21-.24-3.36-.35v1.35c0,1-.28,1.47-.94,1.49s-1-.45-1-1.46ZM14.61,15c-1.78.26-3.47.43-5.13.79a11.85,11.85,0,0,0-2.84,1.1c-.71.36-.7.74,0,1.13a10.56,10.56,0,0,0,2.21,1,26.42,26.42,0,0,0,9.94.66,14.83,14.83,0,0,0,4.91-1.18,7.29,7.29,0,0,0,1.29-1,8.37,8.37,0,0,0-1.28-1,13.91,13.91,0,0,0-4.5-1.12c-.88-.1-1.77-.15-2.71-.22,0,.63,0,1.16,0,1.69,0,.7-.37,1.12-.94,1.12s-.93-.42-.94-1.11C14.6,16.23,14.61,15.68,14.61,15Zm34,0c-1.77.26-3.47.42-5.13.79a13.15,13.15,0,0,0-3,1.21c-.55.27-.54.62,0,.92a11,11,0,0,0,2.35,1.05,26.22,26.22,0,0,0,9.94.67,14.63,14.63,0,0,0,5-1.23,6.81,6.81,0,0,0,1.19-1,6.37,6.37,0,0,0-1.18-.92,18.83,18.83,0,0,0-7.21-1.38c-.05.07-.08.11-.08.14,0,.51,0,1,0,1.54,0,.69-.37,1.11-.94,1.11s-.94-.42-1-1.11ZM32.53,9.38a.93.93,0,0,0,1-.9.94.94,0,1,0-1,.9Z"/><path class="cls-1" d="M32.11,51l-2.36-.14a.94.94,0,0,1-1-1c0-.56.42-.91,1.07-.92,2.14,0,4.27,0,6.41-.13a17.2,17.2,0,0,0,2.43-.43c.75-.16,1.28.09,1.4.68s-.24,1-1,1.17A30.18,30.18,0,0,1,32.11,51Z"/><path class="cls-1" d="M26,50a1,1,0,0,1-1-.92.94.94,0,0,1,1.88,0A1,1,0,0,1,26,50Z"/><path class="cls-1" d="M32.65,58.55l-2.85-.16c-.65,0-1-.42-1-1s.45-.91,1.14-.91c1.67,0,3.34.08,5,0A36.42,36.42,0,0,0,38.65,56c.46-.08.9-.15,1.24.26a.93.93,0,0,1-.61,1.53c-1.22.25-2.46.47-3.71.62C34.6,58.49,33.61,58.49,32.65,58.55Z"/><path class="cls-1" d="M25.92,55.69a.94.94,0,0,1,1,.91,1,1,0,0,1-.92,1,1,1,0,0,1-1-.92A.94.94,0,0,1,25.92,55.69Z"/><path class="cls-1" d="M32.27,35.85l-2.48-.13a1,1,0,0,1-1-1c0-.55.45-.88,1.1-.89,2.13,0,4.27,0,6.41-.13a17.2,17.2,0,0,0,2.43-.43c.72-.15,1.23.08,1.37.65s-.22,1-.93,1.2A30.47,30.47,0,0,1,32.27,35.85Z"/><path class="cls-1" d="M26,33a.94.94,0,1,1-.95.93A1,1,0,0,1,26,33Z"/><path class="cls-1" d="M32.61,43.43c-.95,0-1.89-.09-2.83-.15a1,1,0,0,1-1-1c0-.56.45-.88,1.1-.89,2.14,0,4.28,0,6.41-.14a16.45,16.45,0,0,0,2.49-.44c.66-.12,1.13.1,1.29.62a1,1,0,0,1-.86,1.22c-1.25.24-2.51.46-3.78.61C34.5,43.37,33.55,43.38,32.61,43.43Z"/><path class="cls-1" d="M26,40.57a.94.94,0,1,1-1,.92A.95.95,0,0,1,26,40.57Z"/><path class="cls-1" d="M16,25.45a29.48,29.48,0,0,1-7-.73c-.65-.15-1-.51-.94-1s.57-1,1.33-.84c1.34.22,2.67.49,4,.59s2.86,0,4.29,0c.24,0,.47,0,.71,0a.94.94,0,0,1,.07,1.88C17.44,25.39,16.46,25.43,16,25.45Z"/><path class="cls-1" d="M23.1,23.54a.94.94,0,1,1-1-.92A1,1,0,0,1,23.1,23.54Z"/><path class="cls-1" d="M49.24,25.46l-2.45-.13a1,1,0,0,1-1-1c0-.55.46-.87,1.11-.88,2.14,0,4.28,0,6.41-.13a17.83,17.83,0,0,0,2.49-.45c.71-.13,1.22.15,1.31.74s-.25,1-1,1.13A30.46,30.46,0,0,1,49.24,25.46Z"/><path class="cls-1" d="M42.92,24.5a1,1,0,0,1-.92-1,.94.94,0,1,1,.92,1Z"/><path class="cls-1" d="M15.88,48.13A29.93,29.93,0,0,1,9,47.4c-.5-.11-.89-.33-1-.89s.5-1.11,1.25-1a28.06,28.06,0,0,0,2.84.48c1.84.11,3.69.1,5.53.14.21,0,.43,0,.65,0a1,1,0,0,1,1.05.87,1,1,0,0,1-1,1Z"/><path class="cls-1" d="M49.67,48.15,46.9,48c-.72,0-1.16-.44-1.12-1s.48-.88,1.18-.87c1.67,0,3.34.08,5,0,1.23-.07,2.45-.35,3.67-.52.3-.05.69-.14.9,0a1.34,1.34,0,0,1,.55.87.81.81,0,0,1-.76.89c-1.26.23-2.51.47-3.77.63C51.59,48.1,50.63,48.1,49.67,48.15Z"/><path class="cls-1" d="M15.46,40.59A31.42,31.42,0,0,1,9,39.85a1.11,1.11,0,0,1-1-.77c-.18-.7.42-1.25,1.23-1.11a28.58,28.58,0,0,0,2.89.49c1.8.1,3.61.1,5.41.13.26,0,.51,0,.77,0a.94.94,0,1,1,.08,1.88h-.24Z"/><path class="cls-1" d="M49.63,33l-2.76-.14c-.69,0-1.11-.42-1.09-1s.46-.9,1.15-.9c1.65,0,3.3.08,4.94,0a37.38,37.38,0,0,0,3.78-.54c.44-.07.86-.16,1.21.22a.93.93,0,0,1-.58,1.57c-1.26.25-2.54.47-3.83.63C51.52,33,50.57,33,49.63,33Z"/><path class="cls-1" d="M16,33a30,30,0,0,1-7-.73c-.45-.11-.83-.28-1-.76-.18-.7.42-1.26,1.22-1.12a26.17,26.17,0,0,0,2.9.48C14,31,15.78,31,17.6,31c.24,0,.48,0,.71,0a.94.94,0,1,1,.09,1.88C17.6,32.94,16.8,33,16,33Z"/><path class="cls-1" d="M49.56,40.59l-2.7-.14c-.69,0-1.1-.43-1.08-1s.46-.89,1.16-.9c2.11,0,4.23,0,6.34-.14A15.46,15.46,0,0,0,55.71,38c.52-.1,1-.1,1.29.43a.93.93,0,0,1-.72,1.38c-1.23.25-2.47.47-3.72.62C51.55,40.54,50.53,40.54,49.56,40.59Z"/></svg>