<svg id="Layer_1" data-name="Layer 1" xmlns="http://www.w3.org/2000/svg" viewBox="0 0 65 65"><defs><style>.cls-1{fill:blue;}.cls-2{fill:#f3f945;}.cls-3{fill:#190f2d;}</style></defs><path class="cls-1" d="M30.9,62.09c-1.11-.15-2.23-.27-3.34-.46A29.25,29.25,0,0,1,3.94,39c-.28-1.32-.39-2.68-.59-4,0-.17-.07-.33-.1-.5V31c.15-1.09.26-2.2.44-3.28A28.91,28.91,0,0,1,9.55,14.55c.09-.11.17-.23.32-.43H7.56a2.56,2.56,0,0,1-.62,0,.91.91,0,0,1-.73-1,.9.9,0,0,1,.89-.88c1.68,0,3.37,0,5.05,0a.83.83,0,0,1,.86.89c0,1.66,0,3.32,0,5a.92.92,0,0,1-1,.93,1,1,0,0,1-1-.93c0-.51,0-1,0-1.55,0-.18,0-.36,0-.55l-.17-.07c-.79,1.27-1.66,2.5-2.36,3.81a27.17,27.17,0,0,0,2.91,30.36,26.53,26.53,0,0,0,17.92,9.85,26.74,26.74,0,0,0,19.39-5A1.12,1.12,0,0,1,50,54.65a1,1,0,0,1,0,1.74A28.85,28.85,0,0,1,34.9,62a3.48,3.48,0,0,0-.44.1Z"/><path class="cls-1" d="M19.46,14.86c.58.2,1.05.35,1.51.53a7.25,7.25,0,0,0,2.32.92c.74,0,1.48-.59,2.23-.89.55-.23,1.13-.37,1.66-.62a1.28,1.28,0,0,0,.61-.56c.38-.82.68-1.66,1-2.49A2.07,2.07,0,0,1,30.7,10.3q1.92-.09,3.84,0a2.07,2.07,0,0,1,1.89,1.44c.34.83.65,1.67,1,2.49a1.33,1.33,0,0,0,.6.57c1.13.51,2.28,1,3.43,1.43a1.08,1.08,0,0,0,.73,0c.85-.33,1.68-.71,2.53-1.06a2.16,2.16,0,0,1,2.5.41c.86.81,1.69,1.65,2.51,2.51a2.16,2.16,0,0,1,.39,2.45c-.36.86-.75,1.71-1.09,2.58a1,1,0,0,0,0,.68c.46,1.17.94,2.33,1.45,3.48a1.15,1.15,0,0,0,.49.55c.84.37,1.69.7,2.54,1A2.12,2.12,0,0,1,55,30.84q.09,1.89,0,3.78a2.11,2.11,0,0,1-1.48,1.93c-.85.34-1.71.66-2.55,1a1.09,1.09,0,0,0-.47.5c-.51,1.17-1,2.35-1.46,3.54a1,1,0,0,0,0,.67c.33.86.71,1.69,1.07,2.54a2.18,2.18,0,0,1-.41,2.5c-.81.86-1.65,1.7-2.51,2.51a2.13,2.13,0,0,1-2.44.4c-.85-.34-1.68-.74-2.54-1.06a1.16,1.16,0,0,0-.78,0c-1.15.45-2.29.93-3.43,1.43a1.18,1.18,0,0,0-.57.53c-.36.8-.67,1.62-1,2.44a2.2,2.2,0,0,1-2,1.54c-1.22,0-2.45,0-3.67,0a2.18,2.18,0,0,1-2-1.54c-.33-.81-.63-1.64-1-2.44a1.25,1.25,0,0,0-.57-.54c-1.12-.49-2.26-.91-3.37-1.42a1,1,0,0,0-.9,0c-.8.37-1.61.7-2.42,1A2.2,2.2,0,0,1,18,49.79c-.84-.8-1.67-1.62-2.46-2.47a2.15,2.15,0,0,1-.4-2.5c.36-.84.74-1.68,1.07-2.53a1.08,1.08,0,0,0,0-.73c-.45-1.15-.93-2.29-1.43-3.43a1.15,1.15,0,0,0-.53-.58c-.78-.35-1.58-.65-2.38-1a2.31,2.31,0,0,1-1.63-2.2c0-1.13,0-2.26,0-3.38a2.29,2.29,0,0,1,1.6-2.17c.82-.31,1.64-.63,2.44-1a1.17,1.17,0,0,0,.5-.55c.5-1.15,1-2.31,1.45-3.48a1,1,0,0,0,0-.68c-.33-.85-.71-1.69-1.07-2.53a2.17,2.17,0,0,1,.41-2.54c.82-.86,1.64-1.72,2.53-2.5A6.62,6.62,0,0,1,19.46,14.86Zm-1,27c-.08.24-.13.47-.22.67-.41,1-.81,1.94-1.24,2.9a.62.62,0,0,0,.13.81c.68.67,1.33,1.37,2,2a.84.84,0,0,0,.74.13c1-.38,2-.81,3-1.25a1.5,1.5,0,0,1,1.35.08c1.38.61,2.77,1.18,4.17,1.72a1.49,1.49,0,0,1,1,.88c.38,1,.8,2,1.17,3a.65.65,0,0,0,.68.48H34a.66.66,0,0,0,.71-.52c.36-1,.77-1.91,1.14-2.88a1.55,1.55,0,0,1,1-.95Q39,48.1,41,47.17a1.59,1.59,0,0,1,1.41-.07c.94.42,1.9.8,2.84,1.23a.67.67,0,0,0,.87-.12c.65-.67,1.31-1.33,2-2a.66.66,0,0,0,.12-.87c-.42-.94-.8-1.9-1.22-2.84a1.56,1.56,0,0,1,.06-1.41c.62-1.35,1.19-2.73,1.71-4.11a1.56,1.56,0,0,1,1-1c1-.36,1.91-.77,2.88-1.13a.66.66,0,0,0,.52-.71c0-.91,0-1.83,0-2.75a.73.73,0,0,0-.54-.76c-1-.35-1.92-.76-2.88-1.13a1.55,1.55,0,0,1-.94-1c-.52-1.37-1.07-2.73-1.68-4.06A1.62,1.62,0,0,1,47,22.85q.66-1.41,1.2-2.85a.87.87,0,0,0-.11-.74c-.64-.71-1.34-1.36-2-2.05a.64.64,0,0,0-.82-.13c-1,.43-1.93.82-2.89,1.24a1.52,1.52,0,0,1-1.36-.05c-1.39-.62-2.8-1.19-4.22-1.75a1.43,1.43,0,0,1-.94-.84c-.38-1-.8-2-1.17-3a.68.68,0,0,0-.72-.51H31.2a.63.63,0,0,0-.66.5c-.38,1-.8,2-1.18,3a1.43,1.43,0,0,1-.93.85c-1.43.56-2.86,1.15-4.27,1.77a1.41,1.41,0,0,1-1.25.06c-1-.43-2-.83-2.95-1.26a.62.62,0,0,0-.82.11c-.66.68-1.34,1.36-2,2A.62.62,0,0,0,17,20c.43,1,.81,1.93,1.24,2.89a1.52,1.52,0,0,1-.06,1.36c-.62,1.37-1.19,2.76-1.73,4.17a1.53,1.53,0,0,1-.92,1c-1,.38-1.94.79-2.93,1.16a.64.64,0,0,0-.5.66c0,1,0,1.91,0,2.87,0,.36.17.53.5.66,1,.37,2,.79,3,1.18a1.43,1.43,0,0,1,.85.93c.56,1.43,1.16,2.85,1.75,4.27C18.28,41.4,18.37,41.61,18.45,41.82Z"/><path class="cls-2" d="M55.38,51.31h2.31a2.73,2.73,0,0,1,.57,0,1,1,0,0,1,.78,1,.9.9,0,0,1-.9.87c-1.66,0-3.33,0-5,0a.87.87,0,0,1-.92-.9c0-1.66,0-3.33,0-5a.92.92,0,0,1,.9-.93.94.94,0,0,1,1,.88,14.85,14.85,0,0,1,0,1.49v.6l.16.06c.58-.86,1.19-1.7,1.73-2.59A27.38,27.38,0,0,0,39.41,6.15a26.91,26.91,0,0,0-22.79,4.3l-.33.23a1,1,0,0,1-1.41-.24,1,1,0,0,1,.3-1.36c1.3-.84,2.57-1.73,3.94-2.45,16.21-8.52,36.59.12,41.63,17.71,2.77,9.67,1,18.56-5.09,26.58C55.58,51,55.51,51.12,55.38,51.31Z"/><path class="cls-1" d="M32.64,18a14.69,14.69,0,1,1-14.7,14.63A14.69,14.69,0,0,1,32.64,18Zm-.06,27.41A12.73,12.73,0,1,0,19.89,32.67,12.74,12.74,0,0,0,32.58,45.44Z"/><path class="cls-2" d="M33.6,26.11v1.77c0,1.15,0,2.3,0,3.44a.55.55,0,0,0,.46.64,4.87,4.87,0,0,1,0,9.34.51.51,0,0,0-.43.61,3.55,3.55,0,0,1,0,.8.89.89,0,0,1-.94.76c-.49,0-1-.28-.91-.76.12-1.11-.55-1.39-1.38-1.8a4.62,4.62,0,0,1-2.6-4,1,1,0,0,1,.88-1.19c.6-.05,1,.31,1.07,1a3,3,0,0,0,1.89,2.69,1.56,1.56,0,0,0,.07-.3c0-1.68,0-3.36,0-5.05,0-.33-.13-.44-.44-.54a4.88,4.88,0,0,1,0-9.36.49.49,0,0,0,.4-.57,3.57,3.57,0,0,1,0-.8,1,1,0,0,1,1.89,0s0,0,0,.06c-.2,1,.42,1.28,1.21,1.65a4.6,4.6,0,0,1,2.72,4.08,1,1,0,0,1-.84,1.22c-.62.07-1-.29-1.11-1A2.77,2.77,0,0,0,33.6,26.11Zm-2,5.37V26.12a2.79,2.79,0,0,0-1.92,2.59A2.85,2.85,0,0,0,31.61,31.48Zm2,2.47V39.3a2.82,2.82,0,0,0,0-5.35Z"/><path class="cls-3" d="M-153.39,121.26-34.81,235.52A66.76,66.76,0,0,0-25,239.44c6.68,2.05,35.22,10.81,54-6.21,20.7-18.74,11.28-52.16,10.83-53.66a51.06,51.06,0,0,0-2.47-6.63q-56.53-56.74-113-113.5a276.53,276.53,0,0,1-35.61,34.05A276.45,276.45,0,0,1-153.39,121.26Z"/></svg>