<svg id="Layer_1" data-name="Layer 1" xmlns="http://www.w3.org/2000/svg" viewBox="0 0 65 65"><defs><style>.cls-1{fill:#190f2d;}</style></defs><path class="cls-1" d="M33.09,62.89H23.58c-.86,0-1-.19-1-1.06,0-2.47,0-4.93,0-7.4A13.59,13.59,0,0,0,19,45.1a22.69,22.69,0,0,1-5.62-11,18.49,18.49,0,0,1,3.86-15.3,19.4,19.4,0,0,1,8.05-6.12,1.67,1.67,0,0,0,.67-.54,10.26,10.26,0,0,1,16.76-.23,1.7,1.7,0,0,0,.74.55,16.61,16.61,0,0,1,8.74,7.28,13.43,13.43,0,0,1,1.64,5.91c0,.9.13,1.8.2,2.7a4.75,4.75,0,0,0,1.24,2.81c.73.8,1.51,1.55,2.24,2.35a7.89,7.89,0,0,1,1.07,1.37,2.47,2.47,0,0,1-.66,3.42c-.45.36-1,.63-1.43,1s-.56.68-.12,1.18a3.15,3.15,0,0,1,.47,3.84,2,2,0,0,0-.19,1.6,3.54,3.54,0,0,1-.43,2.95,1.48,1.48,0,0,0-.15,1.35A5.43,5.43,0,0,1,56.4,53a3.17,3.17,0,0,1-3,2.69c-1.34.07-2.69,0-4,0a17.58,17.58,0,0,0-3.16.26,2.87,2.87,0,0,0-2.45,3c0,1,0,2,0,3,0,.72-.25,1-1,1Zm9.19-1.47c0-.93,0-1.8,0-2.66a4.19,4.19,0,0,1,3.34-4.17,21.52,21.52,0,0,1,3.93-.36c1.2,0,2.41.08,3.61,0A2,2,0,0,0,55,51.77a12.84,12.84,0,0,0-.35-1.39,2.29,2.29,0,0,1,.29-2.12,2.21,2.21,0,0,0,.34-2,3.09,3.09,0,0,1,.31-2.6,1.72,1.72,0,0,0-.31-2.25,2,2,0,0,1,.19-3.11,6.09,6.09,0,0,1,.87-.64c1.51-.91,1.62-1.57.43-2.87l-.33-.35-1.78-1.8a7.46,7.46,0,0,1-2.15-5.2,21.69,21.69,0,0,0-.42-3.94c-1-4.37-3.91-7.18-7.82-9.1,0,0-.1,0-.2,0a9.81,9.81,0,0,1-1.3,9.33c.57.61,1.06,1.19,1.59,1.73,1.69,1.69,1.71,1.83.58,3.91a.76.76,0,0,0-.11.54c.31,1,.71,1.77,1.94,1.92,1,.12,1.41.82,1.42,1.86,0,.56,0,1.12,0,1.68,0,2.3-.1,2.43-2.33,3.07a.8.8,0,0,0-.5.35c-.48.88-.81,1.78,0,2.65a.53.53,0,0,1,.06.1,1.74,1.74,0,0,1-.3,2.16c-.39.41-.79.8-1.19,1.19-1.74,1.75-1.78,1.75-3.95.58a.85.85,0,0,0-.54-.08,2.19,2.19,0,0,0-1.9,2,1.59,1.59,0,0,1-1.76,1.39c-.63,0-1.25,0-1.87,0-2.14,0-2.37-.17-2.92-2.2a.81.81,0,0,0-.43-.65c-.89-.49-1.79-.77-2.65.08l-.05,0a1.71,1.71,0,0,1-2.2-.3c-.41-.38-.79-.79-1.2-1.18-1.42-1.37-1.92-1.82-.57-3.91A.75.75,0,0,0,24,40.1c-.3-1-.71-1.78-1.94-1.92-1-.1-1.38-.78-1.42-1.74,0-.58,0-1.17,0-1.75,0-2.38.06-2.44,2.34-3.11a.82.82,0,0,0,.48-.3c.4-.88.81-1.7,0-2.68S23,27,23.81,26.18l2.31-2.4a10,10,0,0,1-1.38-9.25l-.67.34A17.8,17.8,0,0,0,19.6,18.3,17.3,17.3,0,0,0,14.84,34a21.13,21.13,0,0,0,5.28,10.17A15,15,0,0,1,24,54.38q0,3.23,0,6.44c0,.2,0,.39,0,.6Zm-.34-36.28a9.39,9.39,0,0,0-1.89,4.34,1.27,1.27,0,0,0,.27,1.1A7.38,7.38,0,0,1,29.7,40.7,7.29,7.29,0,0,1,28.28,31a2.52,2.52,0,0,0,.38-2.28,10.69,10.69,0,0,0-1.83-3.78c-.37.48-.67.88-1,1.26s-1.08.83-1.16,1.32.47,1,.75,1.57c0,0,.05.07.05.11a3.15,3.15,0,0,1,0,1.06c-.16.55-.49,1.06-.65,1.61a1.31,1.31,0,0,1-1.1,1c-1.63.42-1.63.44-1.63,2.14s0,1.68,1.66,2.13a1.55,1.55,0,0,0,.23.07,1,1,0,0,1,.77.74c.22.62.54,1.21.74,1.83a1.74,1.74,0,0,1,0,1c-.19.48-.53.89-.74,1.36a.68.68,0,0,0,.07.62c.58.63,1.19,1.25,1.83,1.82a.73.73,0,0,0,.66.08c.47-.21.89-.55,1.37-.74a1.54,1.54,0,0,1,.95,0c.57.17,1.09.51,1.66.67a1.34,1.34,0,0,1,1,1.11c.4,1.63.42,1.63,2.08,1.63s1.74,0,2.19-1.65a1.05,1.05,0,0,0,.06-.24,1,1,0,0,1,.75-.77,7.75,7.75,0,0,0,1.55-.63,1.35,1.35,0,0,1,1.55,0c1.43.87,1.45.84,2.62-.33s1.23-1.23.36-2.76a.86.86,0,0,0-.1-.16,1,1,0,0,1,0-1.07c.29-.59.47-1.24.78-1.82a1.66,1.66,0,0,1,.73-.68,8.79,8.79,0,0,1,1.44-.41.52.52,0,0,0,.46-.59c0-.56,0-1.12,0-1.68,0-1.52.2-1.18-1.19-1.58a2.45,2.45,0,0,1-.68-.21,2,2,0,0,1-.74-.68,10.65,10.65,0,0,1-.78-1.88,1.63,1.63,0,0,1,0-1c.17-.46.5-.86.71-1.32.08-.16.12-.47,0-.58C43.42,26.59,42.69,25.88,41.94,25.14Zm-6.53-5.45c0-.24,0-.4.05-.56a8,8,0,0,1,1.15-3.87,2.08,2.08,0,0,1,3.54-.14,3.12,3.12,0,0,1-.72,4.76,20.41,20.41,0,0,1-2.53,1.19v8.26c.47,0,.88,0,1.3,0s.44-.11.5-.44a10.47,10.47,0,0,1,1.5-3.83c.54-.87,1.11-1.72,1.66-2.58a8.23,8.23,0,0,0,1.38-4.29,8.81,8.81,0,0,0-9.75-9,8.7,8.7,0,0,0-7,12.47,29.29,29.29,0,0,0,1.59,2.55,12.76,12.76,0,0,1,1.94,4.24c.07.28.13.57.2.84h1.66a.67.67,0,0,0,.06-.19c0-2.61,0-5.22,0-7.82,0-.15-.24-.35-.41-.44a16.32,16.32,0,0,1-2.41-1.18,3.14,3.14,0,0,1-.09-4.91A1.93,1.93,0,0,1,32,15a6.14,6.14,0,0,1,1,2,22.5,22.5,0,0,1,.53,2.76Zm4.66,13.56A7.09,7.09,0,0,1,39,34.45a.8.8,0,0,0-.42.81,3.25,3.25,0,0,1,0,.54,2.34,2.34,0,0,1-2.45,2.45c-.91,0-1.81,0-2.71,0-2.17.16-3.25-1.08-3.06-3.06a1,1,0,0,0,0-.3c0-.11-.09-.25-.17-.28a2.38,2.38,0,0,1-1.29-1.57,5.84,5.84,0,0,0,1.89,6.63,5.9,5.9,0,0,0,7.2.11A5.81,5.81,0,0,0,40.07,33.25ZM30.34,30.8c0,.69,0,1.31,0,1.92a.55.55,0,0,0,.61.59c2.33,0,4.65,0,7,0,.2,0,.56-.28.58-.46a19.58,19.58,0,0,0,0-2Zm3.15-9.63v8.12h1.88V21.17ZM31.78,34.81c0,.4,0,.77,0,1.14a.81.81,0,0,0,.84.85c1.21,0,2.43,0,3.65,0a.81.81,0,0,0,.81-.81,10,10,0,0,0,0-1.23H32.24C32.1,34.76,32,34.79,31.78,34.81Zm.1-15.27a6,6,0,0,0-.82-3.47c-.4-.53-.8-.55-1.23-.06A1.71,1.71,0,0,0,30,18.48,16.39,16.39,0,0,0,31.88,19.54Zm5,0a19.67,19.67,0,0,0,1.86-1,1.65,1.65,0,0,0,.47-2.33c-.47-.8-1.07-.81-1.53,0A7.42,7.42,0,0,0,36.88,19.57Z"/><path class="cls-1" d="M45.41,12.47c-.28-.23-.59-.37-.65-.58a.92.92,0,0,1,.18-.79,17.05,17.05,0,0,1,2.27-1.3.82.82,0,0,1,.76.26c.13.16.15.66,0,.74C47.18,11.39,46.31,11.9,45.41,12.47Z"/><path class="cls-1" d="M23.59,12.41c-.26-.1-.42-.14-.55-.21l-1.87-1.08a.73.73,0,1,1,.73-1.24c.64.37,1.31.71,1.91,1.13a1,1,0,0,1,.31.8C24.09,12,23.77,12.22,23.59,12.41Z"/><path class="cls-1" d="M33.73,4.11a4.72,4.72,0,0,1,0-1.19,1.12,1.12,0,0,1,.62-.66.59.59,0,0,1,.75.58,22,22,0,0,1,0,2.57.58.58,0,0,1-.76.55,1.09,1.09,0,0,1-.61-.67,4.64,4.64,0,0,1,0-1.18Z"/><path class="cls-1" d="M42.71,4.85c-.1.26-.14.42-.21.55-.35.63-.72,1.25-1.08,1.87a.72.72,0,1,1-1.25-.71,20,20,0,0,1,1.16-1.95,1,1,0,0,1,.81-.3C42.36,4.35,42.53,4.67,42.71,4.85Z"/><path class="cls-1" d="M27.1,4.26a1.69,1.69,0,0,1,.47.39c.4.62.75,1.27,1.11,1.91a.67.67,0,0,1-.25,1,.68.68,0,0,1-1-.3c-.38-.65-.78-1.3-1.13-2S26.39,4.25,27.1,4.26Z"/></svg>