<svg id="Layer_1" data-name="Layer 1" xmlns="http://www.w3.org/2000/svg" viewBox="0 0 65 65"><defs><style>.cls-1{fill:#4dc0b3;}</style></defs><path class="cls-1" d="M2.39,9.11a18.61,18.61,0,0,1,.86-3,7.34,7.34,0,0,1,8.55-4,7.51,7.51,0,1,1-9.3,8.14c0-.18-.08-.35-.11-.53Z"/><path class="cls-1" d="M2.39,31a19,19,0,0,1,.86-3,7.41,7.41,0,0,1,8.56-4A7.51,7.51,0,1,1,2.5,32.1c0-.18-.08-.36-.11-.53Zm1.9.2a5.69,5.69,0,1,0,5.86-5.58A5.68,5.68,0,0,0,4.29,31.16Z"/><path class="cls-1" d="M2.39,52.8A18.53,18.53,0,0,1,3,50.46a7.49,7.49,0,0,1,8.52-4.73,7.53,7.53,0,1,1-9,8.21c0-.18-.07-.35-.1-.53ZM10,47.43a5.68,5.68,0,1,0,5.7,5.71A5.67,5.67,0,0,0,10,47.43Z"/><path class="cls-1" d="M46.16,53.14a7.53,7.53,0,1,1,7.55,7.48A7.53,7.53,0,0,1,46.16,53.14Z"/><path class="cls-1" d="M31.83,23.74a7.52,7.52,0,1,1-7.53,7.5A7.53,7.53,0,0,1,31.83,23.74Z"/><path class="cls-1" d="M46.16,31.25a7.53,7.53,0,1,1,7.52,7.52A7.5,7.5,0,0,1,46.16,31.25Zm1.84,0a5.69,5.69,0,1,0,5.74-5.65A5.68,5.68,0,0,0,48,31.23Z"/><path class="cls-1" d="M53.73,1.91a7.45,7.45,0,0,1,7.48,7.47,7.53,7.53,0,0,1-15.05,0A7.46,7.46,0,0,1,53.73,1.91ZM48,9.38a5.69,5.69,0,1,0,5.73-5.66A5.68,5.68,0,0,0,48,9.38Z"/><path class="cls-1" d="M31.82,45.59a7.52,7.52,0,1,1-7.52,7.52A7.54,7.54,0,0,1,31.82,45.59Zm-5.68,7.55a5.69,5.69,0,1,0,5.63-5.71A5.68,5.68,0,0,0,26.14,53.14Z"/><path class="cls-1" d="M24.3,9.41a7.53,7.53,0,1,1,15.05,0,7.53,7.53,0,0,1-15,0Zm1.84,0a5.69,5.69,0,1,0,5.73-5.66A5.69,5.69,0,0,0,26.14,9.38Z"/></svg>