<svg id="Layer_1" data-name="Layer 1" xmlns="http://www.w3.org/2000/svg" viewBox="0 0 65 65"><defs><style>.cls-1{fill:#4dc0b3;}</style></defs><path class="cls-1" d="M49.58,42.6v6.78c0,.8,0,.81-.84.81H35.8c0,.25,0,.46,0,.67,0,2.12,0,4.24,0,6.36,0,.5-.16.65-.65.65-4.88,0-9.75,0-14.62,0H13.38c-1.72,0-3.43,0-5.15,0-.53,0-.68-.17-.68-.69,0-3.89,0-7.79,0-11.69,0-2,0-4,0-5.93,0-.54.15-.72.71-.72q8.62,0,17.26,0H29V27.17h-.72l-13.84,0c-2.06,0-4.12-.05-6.17,0-.55,0-.73-.15-.72-.71,0-3.8,0-7.59,0-11.39V9c0-.8,0-.81.78-.81H23.62c3.79,0,7.59,0,11.38,0,.59,0,.79.15.78.77,0,2.58,0,5.15,0,7.73v.71h6.77c.9,0,.9,0,.9.87V23.5h4.11c3.06,0,6.11,0,9.16,0,.5,0,.54.26.54.64V41.58c0,.93,0,.93-1,.93l-6.17.05C50,42.56,49.81,42.58,49.58,42.6ZM35.14,11.91H8.22v14.6h2.39v-.76c0-3.56,0-7.12,0-10.67,0-.59.15-.8.77-.79,2.78,0,5.56,0,8.33,0,.58,0,.75.16.75.74,0,3.61,0,7.23,0,10.85v.63H29c0-.84,0-1.64,0-2.44,0-.43.14-.62.58-.61s1,0,1.56,0h4V18H32.71c0,.83,0,1.61,0,2.39,0,.44-.13.64-.62.64-2.87,0-5.75,0-8.62,0-.46,0-.59-.17-.59-.6,0-1.83,0-3.67,0-5.51,0-.51.18-.64.67-.64,2.81,0,5.63,0,8.44,0,.57,0,.74.17.72.72,0,.77,0,1.54,0,2.3h2.43Zm13.8,24.47h-.77c-5.14,0-10.27,0-15.41,0-.47,0-.68-.12-.68-.64,0-1.83,0-3.67,0-5.51,0-.43.13-.6.58-.6H53.59c.48,0,.62.18.62.63,0,1.46,0,2.92,0,4.38,0,1.73,0,1.73-1.72,1.73H49.63v2.48c1.36,0,2.65,0,3.95,0,.47,0,.64.16.63.62,0,.8,0,1.59,0,2.4h2.39V27.26H29.69V38.81h5.44c.48,0,.68.15.66.65,0,.8,0,1.59,0,2.39h5.51c0-.8,0-1.56,0-2.32,0-.53.17-.69.69-.68,2.1,0,4.2,0,6.3,0h.67ZM10.61,57.22c0-1.08,0-2.1,0-3.12,0-.52.16-.7.69-.69,1.78,0,3.56,0,5.33,0,.58,0,.78.18.76.75,0,1,0,2,0,3.05h2.45v-.71c0-3.57,0-7.15,0-10.72,0-.59.14-.8.76-.79,3.8,0,7.59,0,11.39,0,.63,0,.77.21.76.79,0,3.58,0,7.15,0,10.73v.72h2.41V42.6H8.22V57.22Zm9.86-11.6V57.19H32V45.62ZM32.76,30.28v5.46H49c0-.62.22-1.21-.57-1.63A1.38,1.38,0,0,1,48.24,32a1.46,1.46,0,0,1,2.09,0,1.34,1.34,0,0,1-.15,2.09c-.78.43-.6,1-.57,1.63h3.94V30.28Zm-13-3.76V14.94H11.26V26.52Zm16,23H48.91v-7H35.8ZM8.19,11.15h17.7V8.82H8.19ZM29.67,26.51H47.36V24.16H29.67Zm-3.76,13H8.21v2.34h17.7ZM42.8,18h-7v5.45h7ZM32.05,20.4V18c-.88,0-1.71,0-2.55,0-.13,0-.29.16-.37.28a1.5,1.5,0,0,1-1.71.8,1.45,1.45,0,0,1,0-2.8,1.48,1.48,0,0,1,1.71.76c.08.13.24.31.37.31.85,0,1.7,0,2.58,0V14.94H23.55V20.4ZM16.75,57.2c0-.9,0-1.75,0-2.61,0-.44-.12-.59-.57-.58-1.48,0-3,0-4.43,0-.17,0-.34,0-.51,0V57.2ZM41.94,41.84h7V39.5h-7Zm7.66,0h3.95V39.51H49.6ZM29,8.81H26.65v2.34H29Zm.69,2.34H32V8.8H29.68Zm3.09,0h2.35V8.82H32.77ZM48.11,26.5h2.35V24.16H48.11Zm5.39,0V24.17H51.16v2.34Zm3.1,0V24.16H54.25v2.36ZM29,41.86V39.5H26.65v2.36Zm.69,0H32V39.51H29.68Zm5.46-2.34H32.78v2.33h2.36Zm15-6.53a.86.86,0,0,0-.86-.82.84.84,0,0,0,.05,1.68A.86.86,0,0,0,50.12,33ZM27.79,18.5a.84.84,0,0,0,0-1.67.84.84,0,0,0,0,1.67Z"/><path class="cls-1" d="M14,45c.91,0,1.83,0,2.75,0,.42,0,.62.12.62.57,0,1.62,0,3.24,0,4.85,0,.4-.14.58-.56.58-1.88,0-3.76,0-5.63,0-.45,0-.59-.19-.59-.61,0-1.6,0-3.2,0-4.79,0-.44.15-.61.59-.6C12.13,45,13.07,45,14,45Zm2.69,5.34v-4.7H11.26v4.7Z"/></svg>