<svg id="Layer_1" data-name="Layer 1" xmlns="http://www.w3.org/2000/svg" viewBox="0 0 65 65"><defs><style>.cls-1{fill:#190f2d;}</style></defs><path class="cls-1" d="M61.55,1.52a3.45,3.45,0,0,1,1.58,3.22q0,22.31,0,44.62c0,2.22-1.09,3.31-3.29,3.32h-5.5a3,3,0,0,1-.6,0,.88.88,0,0,1-.81-1,.86.86,0,0,1,.86-.91c.4,0,.8,0,1.2,0h5.07c.82,0,1.13-.33,1.13-1.15V12.28c0-.14,0-.28,0-.45H3.21V49.41c0,1.08.26,1.33,1.37,1.33H9.89a4.82,4.82,0,0,1,.54,0,1,1,0,0,1,0,1.9,8,8,0,0,1-.85,0c-1.49,0-3-.06-4.46,0a3.74,3.74,0,0,1-3.62-1.53V2.85L2.85,1.52ZM3.21,9.82h58V4.66c0-1.23-.21-1.45-1.42-1.45H4.64a4.87,4.87,0,0,0-.54,0,.86.86,0,0,0-.88.89C3.2,6,3.21,7.89,3.21,9.82Z"/><path class="cls-1" d="M2.85,1.52,1.52,2.85V1.52Z"/><path class="cls-1" d="M8.83,28.45c.11.13.22.27.34.39q3.32,3.48,6.65,6.93a1.38,1.38,0,0,0,.87.38h31a1.11,1.11,0,0,0,.74-.26c2.33-2.4,4.63-4.81,6.94-7.23a4.23,4.23,0,0,0,.3-.42c-1.2,0-2.24,0-3.27,0a1,1,0,0,0-.55.31c-1.07,1-2.13,2.08-3.21,3.11a1,1,0,0,1-1.48.09.93.93,0,0,1,0-1.35c1.3-1.29,2.61-2.57,4-3.82a1.43,1.43,0,0,1,.88-.29c1.93.05,3.86.11,5.79.23a1.32,1.32,0,0,1,.89.56c.28.42,0,.84-.3,1.19l-6.3,6.58c-.71.74-1.41,1.5-2.14,2.22a1.26,1.26,0,0,0-.4,1c0,7,0,13.92,0,20.89a4,4,0,0,1-4.19,4.15c-8.85-.06-17.71,0-26.56,0A3.72,3.72,0,0,1,14.8,59c0-7,0-13.92,0-20.88A1.51,1.51,0,0,0,14.36,37Q10.16,32.7,6,28.32c-.51-.53-.61-1-.22-1.43a1.28,1.28,0,0,1,.78-.36c1.93-.1,3.86-.18,5.8-.21a1.5,1.5,0,0,1,1,.37c1.27,1.18,2.5,2.39,3.74,3.61a1,1,0,0,1,.14,1.48,1,1,0,0,1-1.49-.11c-1.06-1-2.09-2.06-3.17-3.06a1.48,1.48,0,0,0-.89-.34c-.92-.05-1.84,0-2.77,0Zm7.9,9.67v21c0,1.44.66,2.08,2.12,2.08H45.53c1.49,0,2.14-.64,2.14-2.11v-21Z"/><path class="cls-1" d="M43.69,32.92c-.81-.17-1.53-.34-2.26-.47a1.22,1.22,0,0,1-1-.94,22.51,22.51,0,0,0-1-2.38,1.21,1.21,0,0,1,0-1.35c.33-.46.59-1,.94-1.41s.34-.72-.1-1a4,4,0,0,1-.39-.36c-.66.43-1.32.84-2,1.28a1.21,1.21,0,0,1-1.35.06,22.75,22.75,0,0,0-2.44-1,1.21,1.21,0,0,1-.87-1c-.14-.75-.31-1.49-.48-2.27H31.61c-.16.73-.34,1.47-.48,2.22a1.22,1.22,0,0,1-.94,1,19.74,19.74,0,0,0-2.33,1,1.26,1.26,0,0,1-1.45-.06c-.61-.43-1.24-.82-1.86-1.22-.05,0-.09,0-.12,0-.8.7-.8.7-.23,1.56a8.17,8.17,0,0,1,.8,1.27A1.82,1.82,0,0,1,25,29c-.3.89-.72,1.73-1.05,2.61a1.18,1.18,0,0,1-1,.81l-2.31.48c0,.29,0,.56,0,.84a1,1,0,0,1-1,1,.94.94,0,0,1-.95-1c0-.48,0-1,0-1.45a1,1,0,0,1,1-1.16c.66-.15,1.33-.28,2-.41.33-.06.56-.17.63-.53a1.8,1.8,0,0,1,.25-.68,1.51,1.51,0,0,0-.18-2.08,11.52,11.52,0,0,1-.77-1.15,1,1,0,0,1,.15-1.41l1.8-1.79A1,1,0,0,1,24.94,23c.63.41,1.23.84,1.88,1.21a1.26,1.26,0,0,0,.75,0c.23,0,.43-.25.66-.28,1-.14,1.28-.77,1.36-1.66a10.84,10.84,0,0,1,.29-1.35.94.94,0,0,1,1-.83h2.59a1,1,0,0,1,1,.82c.15.73.28,1.46.48,2.18a1.2,1.2,0,0,0,.49.56c.21.14.52.15.72.3a1.48,1.48,0,0,0,2-.19,9.74,9.74,0,0,1,1.21-.8,1,1,0,0,1,1.32.13q.93.9,1.83,1.83a1,1,0,0,1,.12,1.37c-.38.56-.75,1.14-1.12,1.71a2,2,0,0,0-.2.31,3.9,3.9,0,0,0,1.18,2.4l2,.41c.78.17,1,.46,1,1.24,0,.49,0,1,0,1.45a.93.93,0,0,1-.9,1,1,1,0,0,1-1-.9C43.66,33.58,43.69,33.28,43.69,32.92Z"/><path class="cls-1" d="M32.17,26.9a6.62,6.62,0,0,1,6.62,6.34c0,.7-.3,1.18-.88,1.23s-1-.36-1-1.06a4.67,4.67,0,0,0-9.26-.71c0,.28-.06.56-.1.84a1,1,0,1,1-1.9-.12,10.33,10.33,0,0,1,.5-2.41A6.55,6.55,0,0,1,32.17,26.9Z"/><path class="cls-1" d="M39.75,5.59H55.62a5,5,0,0,1,.67,0,.87.87,0,0,1,.8.84.88.88,0,0,1-.68,1,2.89,2.89,0,0,1-.72.07h-32c-.86,0-1.33-.36-1.34-1s.46-1,1.33-1Z"/><path class="cls-1" d="M8,6.55a.92.92,0,1,1-.9-.93A.9.9,0,0,1,8,6.55Z"/><path class="cls-1" d="M12,6.54a.92.92,0,1,1-.91-.92A.92.92,0,0,1,12,6.54Z"/><path class="cls-1" d="M37.36,49.73c0-.9,0-1.81,0-2.72a3.05,3.05,0,1,1,6.1,0c0,1.89,0,3.78,0,5.68a3.05,3.05,0,1,1-6.1,0C37.34,51.66,37.36,50.7,37.36,49.73Zm1.93.05c0,.9,0,1.8,0,2.71s.45,1.29,1.12,1.29a1.16,1.16,0,0,0,1.13-1.29c0-1.8,0-3.61,0-5.41,0-.81-.45-1.29-1.12-1.29s-1.12.48-1.13,1.28S39.29,48.87,39.29,49.78Z"/><path class="cls-1" d="M27.09,46.46a3.38,3.38,0,0,1-.21.86.84.84,0,0,1-1,.43,1,1,0,0,1-.74-1c-.05-.82-.29-1.13-.95-1.2a1.19,1.19,0,0,0-1.22.51,1.66,1.66,0,0,0,.3,1.68c.77.71,1.55,1.41,2.37,2.05A3.66,3.66,0,0,1,27,53.13a3,3,0,0,1-3.48,2.55A2.87,2.87,0,0,1,21,52.22a.88.88,0,0,1,.86-.72.89.89,0,0,1,.95.6,1.22,1.22,0,0,1,.08.47,1,1,0,0,0,.79,1.16A1.22,1.22,0,0,0,25,53.31a1.65,1.65,0,0,0-.18-1.65c-.55-.53-1.14-1-1.71-1.52-.41-.36-.84-.69-1.23-1.07a3.46,3.46,0,0,1-.41-4.33,3.29,3.29,0,0,1,4.1-.79A2.81,2.81,0,0,1,27.09,46.46Z"/><path class="cls-1" d="M31.15,50.76v2.5c0,.45.3.53.65.53h2.42c.72,0,1.13.36,1.13,1s-.42,1-1.15,1-1.69,0-2.53,0a2.35,2.35,0,0,1-2.45-2.49c0-2.3,0-4.59,0-6.89a2.33,2.33,0,0,1,2.44-2.49c.84,0,1.69,0,2.53,0s1.15.35,1.16.95-.4,1-1.13,1-1.57,0-2.35,0c-.5,0-.75.17-.73.71s0,1.29,0,1.93c0,.32.12.42.42.42h2.48c.72,0,1.15.37,1.16.94s-.44,1-1.14,1C33.13,50.77,32.18,50.76,31.15,50.76Z"/></svg>