<svg id="Layer_1" data-name="Layer 1" xmlns="http://www.w3.org/2000/svg" viewBox="0 0 65 65"><defs><style>.cls-1{fill:#190f2d;}</style></defs><path class="cls-1" d="M31.49,33.38H57.07c1.66,0,2.41.74,2.41,2.39V59c0,1.62-.76,2.36-2.38,2.36H5.81A2.07,2.07,0,0,1,3.43,59V35.71a2.05,2.05,0,0,1,2.35-2.33Zm-24,24h48V49.43h-48Zm48-20H53c-6.5,0-13,0-19.5,0-.43,0-.66.1-.79.55-.27.94-.6,1.86-.91,2.79l-1.54,4.63H55.46Zm-48,8,.26,0c4,0,7.91,0,11.87,0,.38,0,.5-.16.6-.47.76-2.33,1.54-4.66,2.31-7,.06-.16.09-.34.14-.52H7.44v7.93Zm21.23-8a11.39,11.39,0,0,1-1.18,0,.65.65,0,0,0-.79.55c-.61,1.93-1.26,3.84-1.9,5.75-.18.55-.36,1.1-.57,1.72a11.39,11.39,0,0,1,1.18,0,.67.67,0,0,0,.8-.55c.64-2,1.33-4.07,2-6.1C28.36,38.32,28.51,37.88,28.67,37.38Z"/><path class="cls-1" d="M29.19,24.41c.37.33.74.69,1.16,1a.71.71,0,0,0,.54.06,1.85,1.85,0,0,1,1.92.44c1.79,1.77,3.56,3.56,5.44,5.46H29.38a1.9,1.9,0,0,1-1.87-2.18A1.28,1.28,0,0,0,27,27.73a4.06,4.06,0,0,1-.51-.6,12.05,12.05,0,1,1,2.7-2.72ZM11.44,17.33a8,8,0,1,0,8-8A8,8,0,0,0,11.44,17.33Z"/><path class="cls-1" d="M39.46,16.16l-7.33,7.35a30.68,30.68,0,0,0,.95-3.12c.22-1.1.24-2.23.38-3.34a1.5,1.5,0,0,1,.32-.81c1.36-1.41,2.75-2.79,4.14-4.17a2,2,0,0,1,3.08,0c.81.8,1.61,1.62,2.38,2.4L48.66,9.2,48.3,9a2,2,0,0,1,1.09-3.6c1.39,0,2.79,0,4.19,0a1.94,1.94,0,0,1,1.88,1.9c0,1.39,0,2.79,0,4.19a2,2,0,0,1-3.6,1.06,4.27,4.27,0,0,1-.26-.41c-.19.17-.36.31-.51.47l-6,6a2.06,2.06,0,0,1-3.31,0Z"/><path class="cls-1" d="M17.44,39.39a2,2,0,1,1,0,4,2,2,0,0,1-2-2A2,2,0,0,1,17.44,39.39Z"/></svg>