<svg id="Layer_1" data-name="Layer 1" xmlns="http://www.w3.org/2000/svg" viewBox="0 0 65 65"><defs><style>.cls-1{fill:blue;}.cls-2{fill:#f3f945;}</style></defs><path class="cls-1" d="M53,60A10.44,10.44,0,1,1,63.44,49.51,10.42,10.42,0,0,1,53,60Zm-1.48-9.56c-.66-.68-1.34-1.42-2.07-2.11a2.4,2.4,0,0,0-1-.57,1.45,1.45,0,0,0-1.63.75,1.52,1.52,0,0,0,.27,1.83c1,1.08,2.11,2.14,3.17,3.2a1.61,1.61,0,0,0,2.66,0l5.69-5.76a3.78,3.78,0,0,0,.38-.43,1.56,1.56,0,0,0-.21-2,1.51,1.51,0,0,0-2,0c-.18.15-.34.32-.51.49Z"/><path class="cls-1" d="M42.64,42.59a12.72,12.72,0,0,0-1.81,9.71H19.12c-1.51,0-2-.59-1.62-2.06A15.3,15.3,0,0,1,41.92,42C42.15,42.16,42.37,42.36,42.64,42.59Z"/><path class="cls-1" d="M40.08,29.54a7.74,7.74,0,1,1-7.73-7.73A7.72,7.72,0,0,1,40.08,29.54Z"/><path class="cls-2" d="M28,17.69c.34-1.29.64-2.52,1-3.72a.93.93,0,0,0-.38-1.2c-1-.72-1.88-1.49-2.8-2.26a2,2,0,0,1-.33-.5,1.88,1.88,0,0,1,.55-.24c1.24-.08,2.48-.16,3.72-.19A.79.79,0,0,0,30.64,9c.39-1.13.83-2.25,1.27-3.37A3.69,3.69,0,0,1,32.33,5a2.69,2.69,0,0,1,.47.61c.45,1.11.88,2.23,1.28,3.36a.74.74,0,0,0,.8.56c1.26,0,2.52.12,3.78.2a1.61,1.61,0,0,1,.49.21,1.62,1.62,0,0,1-.28.52c-.95.8-1.91,1.59-2.9,2.34a.81.81,0,0,0-.32,1c.34,1.15.64,2.31.94,3.48a2.44,2.44,0,0,1,0,.66,2.5,2.5,0,0,1-.69-.18c-1-.63-2-1.26-3-1.94a.89.89,0,0,0-1.2,0c-1,.7-2,1.35-3.06,2a.8.8,0,0,1-.53.09C28.08,18,28,17.78,28,17.69Z"/><path class="cls-2" d="M2.08,22.57c1.31.22,2.52.4,3.72.63a1,1,0,0,0,1.26-.55c.58-1,1.25-2,1.9-3a2.23,2.23,0,0,1,.48-.36c.1.17.27.33.3.51.2,1.23.4,2.46.56,3.7a.78.78,0,0,0,.7.76c1.2.28,2.4.62,3.59,1,.18.05.32.23.48.34-.13.15-.23.36-.4.44-1.1.58-2.2,1.15-3.32,1.68a.78.78,0,0,0-.52.9c.09,1.16.16,2.31.21,3.47a3,3,0,0,1-.19.81,3.67,3.67,0,0,1-.67-.39C9.33,31.66,8.5,30.83,7.69,30a.75.75,0,0,0-1-.2c-1.15.47-2.31.91-3.48,1.34a2,2,0,0,1-.6,0,2,2,0,0,1,.07-.65c.52-1.06,1-2.12,1.62-3.14a1,1,0,0,0-.15-1.3c-.79-.91-1.54-1.86-2.28-2.8a.68.68,0,0,1-.15-.5C1.78,22.66,2,22.6,2.08,22.57Z"/><path class="cls-2" d="M23.75,19.08c-1.06-.06-2.14-.1-3.2-.2a.78.78,0,0,0-.91.5c-.53,1.13-1.1,2.23-1.67,3.33-.09.17-.29.28-.43.42-.13-.17-.33-.32-.38-.52-.33-1.17-.65-2.35-.93-3.54a.84.84,0,0,0-.82-.73c-1.16-.16-2.33-.34-3.49-.54a3,3,0,0,1-.66-.29,2.55,2.55,0,0,1,.49-.58c1-.67,2-1.33,3-2a.76.76,0,0,0,.39-.9c-.21-1.16-.4-2.32-.58-3.49a3.65,3.65,0,0,1,.08-.79,3.71,3.71,0,0,1,.76.33c.91.72,1.82,1.44,2.69,2.2a.8.8,0,0,0,1.08.1c1.06-.59,2.16-1.13,3.25-1.68a2.21,2.21,0,0,1,.59-.09,2,2,0,0,1,0,.64c-.43,1.17-.87,2.33-1.35,3.48a.76.76,0,0,0,.21,1c.85.81,1.69,1.65,2.51,2.49a3.54,3.54,0,0,1,.41.67l-.81.2a1.13,1.13,0,0,1-.26,0Z"/><path class="cls-2" d="M53.68,31.78c0-1.05.08-2.11.18-3.15a.81.81,0,0,0-.54-.95c-1.1-.52-2.19-1.08-3.27-1.65a2.13,2.13,0,0,1-.43-.42,2.22,2.22,0,0,1,.52-.38c1.18-.33,2.35-.66,3.54-.93a.84.84,0,0,0,.73-.82c.16-1.17.34-2.34.54-3.5a3,3,0,0,1,.29-.66,2.85,2.85,0,0,1,.59.49c.66,1,1.3,2,1.91,3a.79.79,0,0,0,.95.43c1.2-.22,2.41-.41,3.61-.59a2.05,2.05,0,0,1,.64.11,1.92,1.92,0,0,1-.22.61c-.77,1-1.55,1.95-2.35,2.9a.72.72,0,0,0-.1.92c.6,1.11,1.17,2.24,1.73,3.37a1.87,1.87,0,0,1,.07.59,1.66,1.66,0,0,1-.59,0c-1.19-.44-2.37-.89-3.54-1.36A.7.7,0,0,0,57,30c-.82.85-1.65,1.69-2.5,2.51a3,3,0,0,1-.72.41c0-.26-.11-.51-.16-.77s0-.21,0-.32Z"/><path class="cls-2" d="M50.19,10.08c-.2,1.26-.33,2.42-.59,3.55a1.25,1.25,0,0,0,.71,1.6c.95.53,1.85,1.16,2.76,1.77a2.26,2.26,0,0,1,.37.47c-.19.11-.36.29-.56.32-1.18.2-2.37.39-3.56.54a.87.87,0,0,0-.86.77c-.25,1.17-.59,2.32-.91,3.48a2.37,2.37,0,0,1-.36.55,2.24,2.24,0,0,1-.47-.45c-.57-1.08-1.13-2.16-1.65-3.27a.8.8,0,0,0-1-.52c-1.22.1-2.44.15-3.66.2a1.67,1.67,0,0,1-.56-.18,1.91,1.91,0,0,1,.25-.54c.87-.89,1.75-1.77,2.65-2.63a.76.76,0,0,0,.21-1c-.48-1.15-.91-2.32-1.34-3.48a2.08,2.08,0,0,1,0-.66,2.78,2.78,0,0,1,.6.1c1.09.55,2.18,1.09,3.25,1.68a.81.81,0,0,0,1.08-.1c.94-.81,1.92-1.59,2.89-2.37a.77.77,0,0,1,.5-.16C50.08,9.8,50.15,10,50.19,10.08Z"/></svg>