<svg id="Layer_1" data-name="Layer 1" xmlns="http://www.w3.org/2000/svg" viewBox="0 0 65 65"><defs><style>.cls-1{fill:blue;}.cls-2{fill:#f3f945;}.cls-3{fill:#190f2d;}</style></defs><path class="cls-1" d="M52.22,37a12.31,12.31,0,1,1-12,18.77l-.51.27a52.77,52.77,0,0,1-12.14,4.95,1.51,1.51,0,0,1-.76,0,47.08,47.08,0,0,1-16.32-7.69A21,21,0,0,1,3,43.44a16.08,16.08,0,0,1-.9-5.33q0-13.74,0-27.49a1.08,1.08,0,0,1,.65-1.09,51.84,51.84,0,0,1,48.67-.08,1.33,1.33,0,0,1,.81,1.33q0,12.68,0,25.37ZM7.44,26.09c0,3.86-.05,7.73,0,11.6A14.29,14.29,0,0,0,8,41.37a14.9,14.9,0,0,0,5.43,7.43,40.19,40.19,0,0,0,13.5,6.66,1.14,1.14,0,0,0,.58,0,45.52,45.52,0,0,0,10.38-4.49,1,1,0,0,0,.59-1.09,12.17,12.17,0,0,1,7.82-12.13.81.81,0,0,0,.62-.9q0-11.51,0-23a.88.88,0,0,0-.65-1,45.85,45.85,0,0,0-15.94-4A46,46,0,0,0,7.94,12.9a.76.76,0,0,0-.52.81Q7.45,19.89,7.44,26.09Zm31.3,26-.38.2a45.64,45.64,0,0,1-10.62,4.52,2.18,2.18,0,0,1-1.16,0c-1.25-.38-2.5-.78-3.72-1.24a35,35,0,0,1-11.82-7C8,45.73,6,42.27,6,37.93,6,29.61,6,21.3,6,13a1.07,1.07,0,0,1,.68-1.08A46.92,46.92,0,0,1,25,7.33a47.61,47.61,0,0,1,22.44,4.44,1.39,1.39,0,0,1,1,1.46c0,7.69,0,15.39,0,23.08v.76l2.4-.23c0-.21,0-.4,0-.6,0-8.3,0-16.59,0-24.89a.88.88,0,0,0-.58-.9,49.87,49.87,0,0,0-28-5.34A49.66,49.66,0,0,0,4.05,10.49a.74.74,0,0,0-.5.76c0,8.94,0,17.88,0,26.82a14.93,14.93,0,0,0,.81,4.86,19.53,19.53,0,0,0,7,9.21,45.52,45.52,0,0,0,15.43,7.33,1.55,1.55,0,0,0,.77,0A53,53,0,0,0,36,56.33c1.22-.59,2.41-1.25,3.6-1.87ZM50.69,60A10.83,10.83,0,1,0,39.88,49.11,10.84,10.84,0,0,0,50.69,60Z"/><path class="cls-2" d="M32.82,26.39c1,0,1.81,0,2.67,0a2.58,2.58,0,0,1,2.6,1.41,2.42,2.42,0,0,1-.3,2.77,14,14,0,0,1,.54,2.2,2.24,2.24,0,0,1-1,1.88,2.73,2.73,0,0,1,.36,2.41,2.69,2.69,0,0,1-1.75,1.65c.05.21.11.4.15.59A2.49,2.49,0,0,1,34,42.35a11.06,11.06,0,0,1-1.63.07c-2.45,0-4.91,0-7.36,0a23.22,23.22,0,0,1-2.32-.32c-.59,1-1.74,1-2.94,1-.44,0-.89,0-1.33,0A2.29,2.29,0,0,1,16,40.59c0-3.14,0-6.27,0-9.41,0-.85,0-1.69,0-2.54a2.28,2.28,0,0,1,2.39-2.39,18.87,18.87,0,0,1,2,0c.68.06,1.35.23,2,.34,1-.93,2.13-1.93,3.24-2.91a2.32,2.32,0,0,1,.59-.41,4.45,4.45,0,0,0,2.54-3c.34-1,.78-2,1.19-3a2.06,2.06,0,0,1,3-1.19A3.62,3.62,0,0,1,35,20.67c-.45,1.61-1.17,3.15-1.78,4.72C33.1,25.71,33,26,32.82,26.39ZM29,41h4.4c.82,0,1.32-.45,1.33-1.1s-.5-1.09-1.31-1.11h-.6c-.61,0-.93-.26-.91-.72s.42-.72.92-.72c.78,0,1.57,0,2.35,0a1.11,1.11,0,0,0,1.22-1.07,1.13,1.13,0,0,0-1.24-1.11c-.6,0-1.21,0-1.81,0s-.93-.27-.9-.73.42-.72.92-.72c.79,0,1.57,0,2.36,0a1.08,1.08,0,0,0,1.19-1.08,1.09,1.09,0,0,0-1.18-1.1c-.62,0-1.24,0-1.87,0s-.93-.29-.89-.74.38-.71.87-.71,1.21,0,1.82,0c.78,0,1.24-.42,1.25-1.08s-.46-1.09-1.23-1.1-1.69,0-2.54,0c-1.61,0-2.17-.87-1.53-2.36.5-1.17,1-2.32,1.48-3.5a10.46,10.46,0,0,0,.58-2.33,2,2,0,0,0-1.24-2.14c-.69-.34-1-.25-1.25.47-.55,1.31-1.09,2.64-1.63,4a4.43,4.43,0,0,1-2.12,2.29,11.49,11.49,0,0,0-3.86,3.41A2.5,2.5,0,0,0,23.14,29c0,3.44,0,6.88,0,10.33,0,1.19.49,1.66,1.7,1.67Zm-7.32-6.3c0-2,0-3.9,0-5.85,0-.82-.3-1.11-1.13-1.12H18.37c-.63,0-.95.3-.95.92q0,6,0,12.07c0,.64.33.93,1,.94h2.11c.86,0,1.15-.3,1.15-1.17C21.68,38.53,21.67,36.6,21.67,34.67Z"/><path class="cls-1" d="M50.85,40.82c4.67,0,8.48,3.37,8.49,7.54s-3.76,7.55-8.45,7.58-8.51-3.37-8.53-7.52S46.14,40.84,50.85,40.82Zm0,1.32c-3.88,0-7.05,2.86-7,6.28s3.23,6.23,7.05,6.21,7-2.85,7-6.3S54.69,42.12,50.84,42.14Z"/><path class="cls-2" d="M49.37,50.32l3.78-3.78a1.17,1.17,0,0,1,.64-.38.84.84,0,0,1,.67.37,1,1,0,0,1-.16.86c-.52.61-1.12,1.16-1.69,1.73-.91.91-1.81,1.82-2.73,2.72-.57.56-1,.51-1.4-.16s-.95-1.63-1.42-2.45c-.31-.55-.25-1,.16-1.2s.78-.06,1.11.5S49,49.67,49.37,50.32Z"/><path class="cls-3" d="M-152,108.5-33.4,222.76a65.47,65.47,0,0,0,9.84,3.92c6.68,2,35.23,10.81,54-6.21,20.71-18.74,11.29-52.16,10.84-53.66a51.43,51.43,0,0,0-2.48-6.63l-113-113.49a277.19,277.19,0,0,1-35.61,34.05A277.07,277.07,0,0,1-152,108.5Z"/></svg>