<svg id="Layer_1" data-name="Layer 1" xmlns="http://www.w3.org/2000/svg" viewBox="0 0 65 65"><defs><style>.cls-1{fill:blue;}.cls-2{fill:#f3f945;}</style></defs><path class="cls-1" d="M40.69,50.86,37,50.1A17.91,17.91,0,0,1,28,61.17a16.94,16.94,0,0,1-10.81,1.91A17.95,17.95,0,0,1,14.91,28l-.75-3.69A11.37,11.37,0,1,1,23.94,9.69,11.4,11.4,0,0,1,16.53,23.8l.76,3.76a18,18,0,0,1,14.08,4.22L41,22.13a12.41,12.41,0,0,1-2.4-11,12.2,12.2,0,0,1,5.12-7.3A12.56,12.56,0,0,1,60.28,22.44a12.66,12.66,0,0,1-17.56,1.42L33.2,33.59a18.05,18.05,0,0,1,4.24,14.13l3.76.77a11.37,11.37,0,0,1,7.15-7.28,11,11,0,0,1,7.91.2,11.34,11.34,0,0,1-5.08,21.83A11.46,11.46,0,0,1,40.69,50.86Zm-21-21A15.51,15.51,0,1,0,35.17,45.34,15.56,15.56,0,0,0,19.7,29.83ZM47.5,14.39c-2.1-2.76-2.11-5.37-.06-7.31A4.9,4.9,0,0,1,54,6.9a4.82,4.82,0,0,1,1.7,3.1,5,5,0,0,1-1.6,4.38,9.18,9.18,0,0,1,5.2,5.34,10.11,10.11,0,1,0-16.92-.07C44.26,16.29,44.94,15.59,47.5,14.39ZM20.66,17.56A8.75,8.75,0,0,0,18.89,6.21a8.87,8.87,0,0,0-12.55,1c-3.09,3.55-2.42,8.4-.78,10.37a8.28,8.28,0,0,1,4.38-4.44,4.58,4.58,0,0,1,0-6.47,4.5,4.5,0,0,1,6-.32,4.37,4.37,0,0,1,1.64,2.8,4.56,4.56,0,0,1-1.28,4C18.85,14.58,19.23,15,20.66,17.56Zm38.92,39a8.74,8.74,0,0,0-1.47-11.1,8.87,8.87,0,0,0-12.2,0,8.75,8.75,0,0,0-1.44,11.09,8.39,8.39,0,0,1,4.4-4.5,4.56,4.56,0,0,1,0-6.43,4.5,4.5,0,0,1,6-.37A4.31,4.31,0,0,1,56.46,48,4.57,4.57,0,0,1,55.16,52,8.37,8.37,0,0,1,59.58,56.52ZM50.39,24.35a10.52,10.52,0,0,0,6.53-2.06.66.66,0,0,0,.3-.75,6.53,6.53,0,0,0-12.84-.06.74.74,0,0,0,.35.85A9.91,9.91,0,0,0,50.39,24.35Zm1.66,36.5a8.74,8.74,0,0,0,5.25-1.77.77.77,0,0,0,.3-.61,5.62,5.62,0,0,0-5.4-4.63,5.69,5.69,0,0,0-5.75,4.45.74.74,0,0,0,.34.86A9.23,9.23,0,0,0,52.05,60.85ZM12.84,21.9a9.45,9.45,0,0,0,5.47-1.69.74.74,0,0,0,.34-.9A5.66,5.66,0,0,0,13,14.9a5.59,5.59,0,0,0-5.48,4.6.73.73,0,0,0,.22.58A8.48,8.48,0,0,0,12.84,21.9Zm38-8.75a2.49,2.49,0,1,0-2.51-2.48A2.5,2.5,0,0,0,50.8,13.15ZM52,50.85a2.08,2.08,0,1,0,0-4.16,2.08,2.08,0,1,0,0,4.16Zm-36.84-41a2.09,2.09,0,1,0-2.1,2.1A2.1,2.1,0,0,0,15.18,9.81Z"/><path class="cls-2" d="M19.9,56.28H12.41c-1.78,0-2.64-.86-2.64-2.62,0-3.39,0-6.77,0-10.15a1,1,0,0,0-.4-.87,4.27,4.27,0,0,1-.9-1,1.73,1.73,0,0,1,.14-2.46c1.36-1.77,2.73-3.53,4.08-5.32a1.73,1.73,0,0,1,1.49-.74q5.76,0,11.53,0a1.67,1.67,0,0,1,1.44.72c1.38,1.83,2.77,3.66,4.2,5.45a1.63,1.63,0,0,1,.19,2,5.37,5.37,0,0,1-1,1.28,1.23,1.23,0,0,0-.49,1.07c0,3.32,0,6.64,0,10,0,1.84-.83,2.66-2.65,2.67Zm-5-2.45c0-1.54,0-3,0-4.52A2,2,0,0,1,17,47.17q3,0,5.91,0a1.92,1.92,0,0,1,2.1,2.1c0,1.31,0,2.61,0,3.92,0,.21,0,.42,0,.63h2.6V43.72L25.2,42.65a4,4,0,0,1-5.27-.07,4,4,0,0,1-5.25.07l-2.46,1.07V53.83Zm-4.2-13.36a1.52,1.52,0,0,0,2.74-.41,1.25,1.25,0,0,1,1.2-.93,1.12,1.12,0,0,1,1.11.77,1.59,1.59,0,0,0,1.58,1.25c.84,0,1.26-.54,1.56-1.28a1.17,1.17,0,0,1,2-.35,3.75,3.75,0,0,1,.36.69,1.56,1.56,0,0,0,2.86,0c.07-.14.08-.35.19-.43.34-.25.71-.63,1.06-.63s.73.38,1.07.63c.11.08.12.29.19.44a1.54,1.54,0,0,0,2.68.23c-1.22-1.59-2.44-3.18-3.68-4.76a.72.72,0,0,0-.52-.2H14.84a.72.72,0,0,0-.52.21C13.08,37.29,11.86,38.89,10.65,40.47Zm11.91,9.15H17.3v4.2h5.26Z"/></svg>