<svg id="Layer_1" data-name="Layer 1" xmlns="http://www.w3.org/2000/svg" viewBox="0 0 65 65"><defs><style>.cls-1{fill:#4dc0b3;}</style></defs><path class="cls-1" d="M37.11,4.79c.42.1.85.2,1.27.32a7.93,7.93,0,0,1,5.72,7.51c0,2.33,0,4.66,0,7v.65h7.42a7.94,7.94,0,0,1,8,8.07v7.2a8,8,0,0,1-8,8c-2.28,0-4.56,0-6.83,0h-.62V51a8,8,0,0,1-8,8.07q-3.6,0-7.2,0a7.94,7.94,0,0,1-8.07-8V43.58H13.52a7.92,7.92,0,0,1-8.11-6.81,1.63,1.63,0,0,0-.09-.19V27.26a.64.64,0,0,0,.08-.19,7.94,7.94,0,0,1,8.11-6.81h7.28v-.62c0-2.33,0-4.66,0-7a8,8,0,0,1,6-7.63l1-.24ZM24,20.26h8.31a1.61,1.61,0,0,1,1.62,1,1.59,1.59,0,0,1-1.62,2.2H13.48a4.77,4.77,0,0,0-5,5q0,3.53,0,7a4.77,4.77,0,0,0,4.93,5h7.36V32.27c0-1.35.58-1.94,1.93-1.94H40.89a1.38,1.38,0,0,0,0-.25c0-5.84,0-11.69,0-17.54A4.68,4.68,0,0,0,36.31,8q-3.87-.06-7.74,0A4.65,4.65,0,0,0,24,12.35C23.91,15,24,17.57,24,20.26Zm17,23.32h-8.4a1.59,1.59,0,0,1-.42-3.14,3.07,3.07,0,0,1,.68,0H51.44a4.77,4.77,0,0,0,5-4.93c0-2.37,0-4.73,0-7.1a4.77,4.77,0,0,0-5-4.93H44.61l-.5,0V31.6c0,1.31-.6,1.91-1.9,1.91H24c0,.17,0,.28,0,.38,0,5.74,0,11.48,0,17.22a4.74,4.74,0,0,0,4.74,4.76c2.42,0,4.84,0,7.26,0a4.77,4.77,0,0,0,5-4.94V43.58Z"/><path class="cls-1" d="M30.33,14.34a1.59,1.59,0,1,1-1.56-1.6A1.6,1.6,0,0,1,30.33,14.34Z"/><path class="cls-1" d="M36.15,51.1a1.59,1.59,0,1,1,1.6-1.57A1.6,1.6,0,0,1,36.15,51.1Z"/></svg>