<svg id="Layer_1" data-name="Layer 1" xmlns="http://www.w3.org/2000/svg" viewBox="0 0 65 65"><defs><style>.cls-1{fill:#190f2d;}</style></defs><path class="cls-1" d="M2.21,32.42q0-12.63,0-25.27A4.69,4.69,0,0,1,5.93,2.29,4.88,4.88,0,0,1,7,2.19H58a4.63,4.63,0,0,1,4.72,3.73,6,6,0,0,1,.11,1.34V57.73a4.7,4.7,0,0,1-5,5.06c-16.84,0-33.69,0-50.53,0a5,5,0,0,1-5.08-5.13C2.26,49.26,2.21,40.84,2.21,32.42ZM60.94,15H50a2.35,2.35,0,0,1-2.35-1.45c-.29-.62-.63-1.22-.91-1.84a.78.78,0,0,0-.84-.52c-1.52,0-3,0-4.55,0-.77,0-1.69-.21-2.26.13s-.77,1.27-1.14,1.94a.61.61,0,0,0,0,.12,2.53,2.53,0,0,1-2.63,1.62Q20,15,4.88,15H4.09V57.39a7.39,7.39,0,0,0,.06,1.15,2.76,2.76,0,0,0,2.33,2.32,7.81,7.81,0,0,0,1.08,0h34.9c5.11,0,10.22,0,15.33,0a2.82,2.82,0,0,0,3-1.95,5,5,0,0,0,.16-1.39q0-20.86,0-41.75Zm0-1.91c0-2,0-4,0-5.92a2.87,2.87,0,0,0-3.16-3.14q-25.26,0-50.54,0A2.87,2.87,0,0,0,4.09,7.21c0,1.77,0,3.55,0,5.32a5.66,5.66,0,0,0,0,.57l.43,0H35.35a.75.75,0,0,0,.78-.5c.31-.68.65-1.34,1-2a2.16,2.16,0,0,1,2.06-1.28h7a2.18,2.18,0,0,1,2.06,1.27c.29.57.61,1.13.85,1.73a1.12,1.12,0,0,0,1.25.79c3.27,0,6.54,0,9.81,0Z"/><path class="cls-1" d="M26.91,48.7h-.76c-4.94,0-9.88,0-14.82,0A3.89,3.89,0,0,1,8.85,48a3.24,3.24,0,0,1-1.38-3.13A24.53,24.53,0,0,1,20.11,25.82,25.18,25.18,0,0,1,56.27,39.34a29.22,29.22,0,0,1,1.23,5.29,3.36,3.36,0,0,1-3.61,4.06q-7.44,0-14.88,0a1,1,0,0,0-1.17.85,5.52,5.52,0,0,1-5.45,3.87,5.62,5.62,0,0,1-5.26-4C27.06,49.2,27,49,26.91,48.7Zm9.87-15.94c-9.88-3-19.64,4.78-19.79,14a.22.22,0,0,0,.11,0c3.16,0,6.32,0,9.48,0,.16,0,.4-.26.45-.45a5.16,5.16,0,0,1,1.84-2.85,7.55,7.55,0,0,0,1.91-2.12l1-1.42ZM19.55,35.65,15.5,31.73a2,2,0,0,1-.19.26A23,23,0,0,0,9.4,44.67c-.19,1.44.41,2.13,1.87,2.14,1.07,0,2.14,0,3.2,0,.39,0,.57-.07.6-.51a14.9,14.9,0,0,1,1.65-6.08C17.55,38.68,18.57,37.23,19.55,35.65Zm25.79.12A17.59,17.59,0,0,1,50,46.43c0,.14.21.36.32.36,1.36,0,2.73.05,4.09,0A1.45,1.45,0,0,0,55.68,45a23.05,23.05,0,0,0-6-13.09.8.8,0,0,0-.21-.17Zm2.8,11a15.76,15.76,0,0,0-7.36-12.32l-.2.66c-.4,1.58-.81,3.15-1.21,4.72-.47,1.84-.95,3.68-1.42,5.52-.27,1.06,0,1.42,1,1.42h9.14ZM17,30.34l4.21,4.05h0a17.44,17.44,0,0,1,10-4.1c.43,0,.4-.29.4-.57V24.48A23.46,23.46,0,0,0,17,30.34Zm16.58-5.85c0,.13-.09.18-.09.24,0,1.71,0,3.42,0,5.13,0,.15.27.39.45.42a25.47,25.47,0,0,1,2.52.43c1,.31,1.74.37,2.34-.73a1.42,1.42,0,0,1,1.89-.41,1.61,1.61,0,0,1,.86,1.82c-.07.39-.17.78-.25,1.13l2.61,1.84,4.16-4A23.29,23.29,0,0,0,33.55,24.49Zm2.72,23.23a3.76,3.76,0,1,0-3.71,3.78A3.73,3.73,0,0,0,36.27,47.72Zm2.95-14.88-.15-.07L32.59,42.1a6,6,0,0,1,3.85,1.56Z"/><path class="cls-1" d="M10.78,9.54c-.44,0-.89,0-1.34,0a.9.9,0,0,1-.93-.92.85.85,0,0,1,.86-.93c1,0,2,0,2.94,0a.83.83,0,0,1,.83.94.86.86,0,0,1-.89.9c-.48,0-1,0-1.47,0Z"/><path class="cls-1" d="M17.68,9.54c-.45,0-.89,0-1.34,0a.86.86,0,0,1-.91-.87.86.86,0,0,1,.86-1c1,0,1.92,0,2.87,0a.9.9,0,0,1,.9,1,1,1,0,0,1-1,.9H17.68Z"/><path class="cls-1" d="M24.63,9.53c-.47,0-.94,0-1.41,0a.86.86,0,0,1-.89-.89.83.83,0,0,1,.83-1c1-.05,2,0,3,0a.83.83,0,0,1,.8.91.86.86,0,0,1-.86.93C25.61,9.56,25.12,9.53,24.63,9.53Z"/><path class="cls-1" d="M33.46,47.76a.91.91,0,0,1-.93.92.92.92,0,0,1-.94-1,.89.89,0,0,1,1-.88A.91.91,0,0,1,33.46,47.76Z"/></svg>