<svg id="Layer_1" data-name="Layer 1" xmlns="http://www.w3.org/2000/svg" viewBox="0 0 65 65"><defs><style>.cls-1{fill:blue;}.cls-2{fill:#f3f945;}</style></defs><path class="cls-1" d="M30.77,61.88c-1.12-.15-2.24-.26-3.34-.45A29.23,29.23,0,0,1,3.81,38.75c-.28-1.32-.4-2.68-.6-4a4.42,4.42,0,0,0-.1-.5V30.79c.15-1.1.26-2.2.45-3.29A28.86,28.86,0,0,1,9.41,14.35l.33-.44H7.43a2.21,2.21,0,0,1-.63-.05.91.91,0,0,1-.73-1A.89.89,0,0,1,7,12c1.69,0,3.37,0,5.05,0a.84.84,0,0,1,.87.89c0,1.67,0,3.33,0,5a.92.92,0,0,1-1,.94,1,1,0,0,1-1-.93c0-.52,0-1,0-1.55,0-.18,0-.37,0-.55l-.17-.08C10,17,9.08,18.18,8.38,19.5a27.18,27.18,0,0,0,2.91,30.36,26.55,26.55,0,0,0,17.92,9.85,26.83,26.83,0,0,0,19.39-5,1.12,1.12,0,0,1,1.26-.24,1,1,0,0,1,0,1.74,29.08,29.08,0,0,1-15.11,5.6,3.82,3.82,0,0,0-.44.09Z"/><path class="cls-1" d="M19.33,14.66c.58.2,1.05.35,1.5.53a7.34,7.34,0,0,0,2.32.92c.74,0,1.48-.59,2.23-.9.55-.22,1.13-.37,1.67-.61a1.3,1.3,0,0,0,.61-.57c.37-.81.68-1.66,1-2.49a2.12,2.12,0,0,1,1.89-1.45q1.92-.09,3.84,0a2.1,2.1,0,0,1,1.9,1.44c.33.84.64,1.68,1,2.49a1.3,1.3,0,0,0,.6.58c1.13.5,2.28,1,3.43,1.43a1.08,1.08,0,0,0,.73,0c.85-.33,1.69-.72,2.53-1.07a2.19,2.19,0,0,1,2.5.41c.86.82,1.7,1.66,2.51,2.52A2.14,2.14,0,0,1,50,20.37c-.35.86-.75,1.71-1.09,2.58a1.06,1.06,0,0,0,0,.68c.46,1.17.95,2.33,1.45,3.48a1.13,1.13,0,0,0,.49.54c.84.38,1.7.7,2.55,1a2.15,2.15,0,0,1,1.47,1.94c.05,1.26.05,2.53,0,3.78a2.1,2.1,0,0,1-1.48,1.93c-.85.34-1.71.67-2.54,1a1,1,0,0,0-.47.5c-.51,1.17-1,2.35-1.47,3.53a1,1,0,0,0,0,.68c.33.85.71,1.69,1.07,2.53a2.18,2.18,0,0,1-.4,2.5c-.82.86-1.65,1.7-2.51,2.51a2.15,2.15,0,0,1-2.45.41c-.85-.35-1.68-.74-2.53-1.06a1.16,1.16,0,0,0-.78,0c-1.16.45-2.3.92-3.43,1.42a1.22,1.22,0,0,0-.58.54c-.36.8-.67,1.62-1,2.44a2.2,2.2,0,0,1-2,1.54q-1.83.08-3.66,0a2.19,2.19,0,0,1-2-1.54c-.32-.82-.63-1.64-1-2.44a1.2,1.2,0,0,0-.57-.54C26,49.93,24.81,49.5,23.7,49a1,1,0,0,0-.9,0c-.8.36-1.61.7-2.42,1a2.19,2.19,0,0,1-2.54-.43c-.85-.81-1.67-1.63-2.47-2.47a2.16,2.16,0,0,1-.4-2.5c.36-.84.74-1.68,1.07-2.53a1.08,1.08,0,0,0,0-.73c-.45-1.15-.92-2.3-1.42-3.43a1.25,1.25,0,0,0-.53-.58c-.78-.35-1.59-.65-2.39-1A2.29,2.29,0,0,1,10,34.18c0-1.12,0-2.25,0-3.38a2.26,2.26,0,0,1,1.59-2.16c.82-.32,1.64-.63,2.44-1a1.06,1.06,0,0,0,.5-.54c.5-1.15,1-2.31,1.45-3.48a1,1,0,0,0,0-.68c-.33-.85-.7-1.69-1.07-2.53a2.2,2.2,0,0,1,.41-2.55c.82-.85,1.64-1.71,2.53-2.49A5.69,5.69,0,0,1,19.33,14.66Zm-1,27a5.85,5.85,0,0,1-.22.67c-.4,1-.81,1.94-1.24,2.89A.64.64,0,0,0,17,46c.69.67,1.34,1.37,2,2a.9.9,0,0,0,.75.12c1-.38,2-.81,2.95-1.24a1.52,1.52,0,0,1,1.36.07c1.37.62,2.76,1.19,4.16,1.73a1.5,1.5,0,0,1,1,.87c.38,1,.8,2,1.18,3a.63.63,0,0,0,.67.49h2.81a.67.67,0,0,0,.7-.53c.36-1,.77-1.91,1.14-2.87a1.58,1.58,0,0,1,1-1c1.39-.52,2.76-1.09,4.11-1.7a1.58,1.58,0,0,1,1.42-.07c.93.42,1.89.8,2.83,1.23A.66.66,0,0,0,46,48c.65-.67,1.32-1.33,2-2a.67.67,0,0,0,.13-.87c-.43-.94-.8-1.9-1.23-2.84A1.53,1.53,0,0,1,47,40.9c.61-1.35,1.18-2.72,1.7-4.11a1.55,1.55,0,0,1,1-1c1-.36,1.92-.77,2.88-1.13a.68.68,0,0,0,.53-.71c0-.92,0-1.83,0-2.75a.72.72,0,0,0-.54-.76c-1-.35-1.91-.77-2.88-1.13a1.55,1.55,0,0,1-.94-1.05c-.51-1.37-1.07-2.73-1.68-4.06a1.64,1.64,0,0,1-.06-1.52c.43-.93.83-1.88,1.2-2.84a.9.9,0,0,0-.12-.75c-.64-.7-1.34-1.36-2-2a.63.63,0,0,0-.82-.14c-1,.44-1.93.82-2.89,1.25a1.52,1.52,0,0,1-1.36-.06c-1.39-.62-2.8-1.19-4.22-1.74a1.4,1.4,0,0,1-.93-.84c-.38-1-.81-2-1.18-3a.65.65,0,0,0-.71-.51H31.07a.65.65,0,0,0-.67.49c-.38,1-.8,2-1.18,3a1.44,1.44,0,0,1-.93.85c-1.43.56-2.86,1.14-4.27,1.76a1.41,1.41,0,0,1-1.25.07c-1-.43-2-.83-2.94-1.27A.63.63,0,0,0,19,17c-.67.68-1.35,1.35-2,2a.62.62,0,0,0-.12.82c.43.95.82,1.93,1.24,2.89A1.52,1.52,0,0,1,18,24.09c-.62,1.37-1.19,2.76-1.73,4.16a1.52,1.52,0,0,1-.92,1c-1,.37-1.94.79-2.92,1.16a.62.62,0,0,0-.5.66c0,1,0,1.91,0,2.86a.63.63,0,0,0,.51.66c1,.38,2,.8,3,1.18a1.46,1.46,0,0,1,.84.94c.56,1.43,1.17,2.85,1.76,4.27Z"/><path class="cls-2" d="M55.24,51.11h2.31a3.58,3.58,0,0,1,.57,0,1,1,0,0,1,.78,1,.91.91,0,0,1-.9.87c-1.66,0-3.32,0-5,0a.88.88,0,0,1-.92-.9c0-1.67,0-3.33,0-5a.92.92,0,0,1,.91-.93.93.93,0,0,1,1,.88c.05.49,0,1,0,1.49v.6l.15.06c.58-.86,1.19-1.71,1.73-2.59A27.38,27.38,0,0,0,39.27,6a26.85,26.85,0,0,0-22.79,4.3l-.33.22a1,1,0,0,1-1.41-.24.94.94,0,0,1,.31-1.35C16.34,8,17.61,7.14,19,6.43c16.21-8.52,36.59.12,41.64,17.71,2.77,9.66,1,18.56-5.1,26.57Z"/><path class="cls-1" d="M32.51,17.82A14.69,14.69,0,1,1,17.8,32.45,14.69,14.69,0,0,1,32.51,17.82Zm-.07,27.42A12.73,12.73,0,1,0,19.76,32.47,12.75,12.75,0,0,0,32.44,45.24Z"/><path class="cls-2" d="M33.47,25.9v1.78c0,1.15,0,2.29,0,3.44a.55.55,0,0,0,.46.64,4.87,4.87,0,0,1,0,9.34.51.51,0,0,0-.43.61,3.07,3.07,0,0,1,0,.8.89.89,0,0,1-.94.76c-.48,0-1-.29-.91-.76.12-1.12-.55-1.4-1.38-1.8a4.62,4.62,0,0,1-2.59-4.05,1,1,0,0,1,.87-1.19c.6,0,1,.3,1.07,1a3,3,0,0,0,1.9,2.69c0-.13.06-.22.06-.3,0-1.68,0-3.37,0-5,0-.33-.13-.44-.44-.54a4.88,4.88,0,0,1,0-9.36.48.48,0,0,0,.4-.57,3.55,3.55,0,0,1,0-.8,1,1,0,0,1,1.89,0s0,0,0,.05c-.2,1,.42,1.29,1.21,1.65a4.63,4.63,0,0,1,2.72,4.08,1,1,0,0,1-.84,1.23c-.62.07-1-.3-1.1-1A2.82,2.82,0,0,0,33.47,25.9Zm-2,5.38V25.92a2.78,2.78,0,0,0-1.92,2.59A2.86,2.86,0,0,0,31.47,31.28Zm2,2.47V39.1a2.83,2.83,0,0,0,0-5.35Z"/></svg>