<svg id="Layer_1" data-name="Layer 1" xmlns="http://www.w3.org/2000/svg" viewBox="0 0 65 65"><defs><style>.cls-1{fill:blue;}.cls-2{fill:#f3f945;}</style></defs><path class="cls-1" d="M32.84,17.65V26.8a4.76,4.76,0,0,1-5,5H9.34a4.76,4.76,0,0,1-5-5V12.27a2.36,2.36,0,0,1,0-.53.88.88,0,0,1,.9-.78.88.88,0,0,1,.92.77,2.81,2.81,0,0,1,0,.65V26.82A2.87,2.87,0,0,0,9.35,30H27.83A2.87,2.87,0,0,0,31,26.83V8.35a2.88,2.88,0,0,0-3.14-3.14H9.35A2.86,2.86,0,0,0,6.22,8.06a1,1,0,0,1-1,.95,1,1,0,0,1-.86-1.09A4.74,4.74,0,0,1,9.11,3.34c3.19,0,6.37,0,9.56,0h9.15a4.76,4.76,0,0,1,5,5Z"/><path class="cls-1" d="M49,40.61c.28-.23.44-.33.57-.46a6.93,6.93,0,0,1,8.76-.49,1.29,1.29,0,0,1,.52.8A7,7,0,0,1,53.65,48a6.88,6.88,0,0,1-4.09-.2c-.16-.06-.34-.09-.6-.16v.76q0,4.32,0,8.62a1.45,1.45,0,0,1-.15.85,1.17,1.17,0,0,1-.88.4c-.23,0-.48-.38-.62-.65a1.61,1.61,0,0,1,0-.7V48.49c0-.25,0-.5-.06-.84-.24.07-.43.1-.6.16A6.93,6.93,0,0,1,37.33,42a5,5,0,0,1,0-1.54,1.33,1.33,0,0,1,.51-.8,6.93,6.93,0,0,1,8.81.53c.13.12.27.22.48.38,0-.22.1-.36.12-.51s0-.36,0-.53A3.31,3.31,0,0,0,45.81,36a5.89,5.89,0,0,1-2.4-5,6.93,6.93,0,0,1,4.16-6.47,1.61,1.61,0,0,1,1.23.11,6.93,6.93,0,0,1,.79,12A1.27,1.27,0,0,0,49,37.92C49,38.76,49,39.6,49,40.61ZM44.2,46.53l0,.16c.86-.27,1.73-.51,2.57-.82a.73.73,0,0,0,.4-.56,5.26,5.26,0,0,0-7.83-4.6.72.72,0,0,0-.4.77A5.28,5.28,0,0,0,44.2,46.53ZM51,31.11a5.33,5.33,0,0,0-2.51-4.71.68.68,0,0,0-.86,0,5.27,5.27,0,0,0,0,9,.89.89,0,0,0,.78,0A5,5,0,0,0,51,31.11Zm.88,15.57,0-.15a5.25,5.25,0,0,0,5.24-5.07.74.74,0,0,0-.46-.79,5.81,5.81,0,0,0-3.28-.56A5.25,5.25,0,0,0,49,45.18a.67.67,0,0,0,.46.74Z"/><path class="cls-1" d="M57.59,20.43H36.19c-1,0-1.43-.32-1.41-1s.46-.92,1.39-.92H57.65a29.12,29.12,0,0,0-.24-3.77,2.67,2.67,0,0,0-2.79-2H36.2c-1,0-1.43-.31-1.42-1s.46-.93,1.44-.93H54.34a4.77,4.77,0,0,1,5.12,5.12V36.14c0,.93-.29,1.38-.91,1.4s-1-.45-1-1.41V20.43Z"/><path class="cls-1" d="M30.25,58.47H17.06A4.78,4.78,0,0,1,12,53.34V35.22c0-.16,0-.31,0-.47a.94.94,0,1,1,1.87,0c0,.18,0,.36,0,.54,0,6.05,0,12.11,0,18.17A2.88,2.88,0,0,0,17,56.59H43.79c1,0,1.43.33,1.41,1s-.48.91-1.41.91Z"/><path class="cls-2" d="M25.19,24.24c.44.06.81.08,1.17.15a.83.83,0,0,1,0,1.61,3.94,3.94,0,0,1-.77.08q-7,0-14,0a1.49,1.49,0,0,1-.8-.12,1.23,1.23,0,0,1-.55-.78,1.12,1.12,0,0,1,.57-.75A3.69,3.69,0,0,1,12,24.25c0-.19,0-.4,0-.61,0-1.8,0-3.61,0-5.41a3.6,3.6,0,0,1,0-.65.82.82,0,0,1,.86-.8.81.81,0,0,1,.83.77,5.06,5.06,0,0,1,0,.77v5.93H17.7v-.67q0-4.57,0-9.15a1.86,1.86,0,0,1,.13-.92A1.06,1.06,0,0,1,18.6,13a1.12,1.12,0,0,1,.75.51,1.74,1.74,0,0,1,.13.86c0,3,0,6.07,0,9.1v.76h3.93v-.72c0-4.3,0-8.6,0-12.89a1.83,1.83,0,0,1,.14-.92,1.05,1.05,0,0,1,.75-.51,1.1,1.1,0,0,1,.75.51,1.86,1.86,0,0,1,.13.92q0,6.42,0,12.84Z"/><path class="cls-1" d="M59.37,51.05a27.06,27.06,0,0,1,0,3.49,4.59,4.59,0,0,1-4.42,3.91c-1,0-2,0-3,0a.93.93,0,1,1,0-1.86c.85,0,1.7,0,2.55,0a2.87,2.87,0,0,0,3.09-3.06c0-1.8,0-3.6,0-5.4a1.33,1.33,0,0,1,.56-.92,1,1,0,0,1,.9.12,1.31,1.31,0,0,1,.37.87c0,.95,0,1.9,0,2.85Z"/><path class="cls-2" d="M25.24,40.4H19a3.65,3.65,0,0,1-.47,0,.93.93,0,0,1,0-1.86,3.85,3.85,0,0,1,.48,0H31.81a.94.94,0,0,1,1,.92,1,1,0,0,1-1,.95H25.24Z"/><path class="cls-2" d="M25.28,42.33h6.34c.76,0,1.2.34,1.21.92s-.43,1-1.17,1H18.84a1,1,0,0,1-1.15-.72c-.18-.61.31-1.16,1.06-1.16Z"/><path class="cls-2" d="M23.36,46.13h4.5c.74,0,1.19.38,1.17,1s-.45.9-1.16.91H18.8c-.7,0-1.14-.36-1.14-.93s.43-.93,1.13-.94Z"/><path class="cls-1" d="M42.36,16.62a4,4,0,0,1-1.16-.17,1.08,1.08,0,0,1-.55-.76c0-.27.32-.73.54-.76a10.17,10.17,0,0,1,2.34,0c.22,0,.54.49.54.76a1.08,1.08,0,0,1-.55.76A3.87,3.87,0,0,1,42.36,16.62Z"/><path class="cls-1" d="M48.05,16.62c-.38-.05-.76-.06-1.12-.14a.66.66,0,0,1-.59-.81c.07-.29.35-.72.58-.75a12.51,12.51,0,0,1,2.29,0,.64.64,0,0,1,.59.81,1.26,1.26,0,0,1-.6.75A4.26,4.26,0,0,1,48.05,16.62Z"/><path class="cls-1" d="M53.82,14.75a3.54,3.54,0,0,1,1.11.17,1.08,1.08,0,0,1,.55.76.93.93,0,0,1-.54.76,9.56,9.56,0,0,1-2.33,0c-.23,0-.55-.49-.55-.75a1.05,1.05,0,0,1,.55-.77A4.31,4.31,0,0,1,53.82,14.75Z"/></svg>