<svg id="Layer_1" data-name="Layer 1" xmlns="http://www.w3.org/2000/svg" viewBox="0 0 65 65"><defs><style>.cls-1{fill:blue;}.cls-2{fill:#f3f945;}</style></defs><path class="cls-1" d="M1.52,54.35a2.74,2.74,0,0,1,3-1.82c1.22.06,2.45,0,3.78,0V37.27c0-1.65.57-2.21,2.22-2.21H23.8V32.62a7.63,7.63,0,0,1,0-1,.82.82,0,0,1,.9-.73.81.81,0,0,1,.83.73,4,4,0,0,1,0,.78V52.51H39.22V21.72H25.61V27.4a5,5,0,0,1,0,.55.9.9,0,1,1-1.79,0c0-.24,0-.48,0-.72,0-1.82,0-3.63,0-5.44a1.69,1.69,0,0,1,1.92-1.93H39.14a1.7,1.7,0,0,1,1.93,1.93c0,1.85,0,3.7,0,5.55v.76H54.32c1.68,0,2.22.54,2.22,2.25V52.54H58c1,0,2,0,3,0a2.33,2.33,0,0,1,2.38,2.36c0,2,0,4,0,5.92A1.18,1.18,0,0,1,62.63,62H1.52Zm1.81,5.73H61.55V55.26c0-.78-.13-.91-.92-.91H50.79a4,4,0,0,1-.6,0,.9.9,0,0,1,0-1.77,2.39,2.39,0,0,1,.6,0h3.94V30H41.11V52.54h1.28c1.33,0,2.66,0,4,0a.9.9,0,1,1,.08,1.8H4a.6.6,0,0,0-.67.67Zm6.86-7.59H23.75V36.91H10.19Z"/><path class="cls-1" d="M36.76,17.26A4.3,4.3,0,0,1,36,17c-1.06-.54-2.11-1.08-3.15-1.66a.8.8,0,0,0-.88,0c-1,.56-2.07,1.08-3.09,1.64a1.65,1.65,0,0,1-2.53-1.8c.23-1.14.4-2.29.61-3.44a.89.89,0,0,0-.29-.9C25.82,10,25,9.17,24.14,8.35a1.62,1.62,0,0,1-.52-1.8,1.66,1.66,0,0,1,1.51-1.11c1.18-.16,2.35-.31,3.52-.52a1,1,0,0,0,.65-.49c.56-1,1.08-2.11,1.59-3.18a1.65,1.65,0,0,1,3.11,0c.51,1.07,1,2.13,1.58,3.18a1.05,1.05,0,0,0,.66.47c1.17.21,2.35.36,3.52.52a1.66,1.66,0,0,1,1.5,1.13,1.62,1.62,0,0,1-.53,1.79c-.82.8-1.63,1.62-2.47,2.39a1,1,0,0,0-.34,1.06c.23,1.18.42,2.37.61,3.56A1.64,1.64,0,0,1,36.76,17.26Zm-8.57-2a20.2,20.2,0,0,0,2.29-1.21,3.07,3.07,0,0,1,3.93,0,19.23,19.23,0,0,0,2.27,1.2c-.19-1.1-.28-2.11-.53-3.07a2.52,2.52,0,0,1,.92-2.83,27.18,27.18,0,0,0,2.09-2.18C38,7,36.92,6.82,35.78,6.7A2.06,2.06,0,0,1,34,5.34c-.45-1-1-2-1.53-3.11-.6,1.2-1.15,2.29-1.67,3.38a1.76,1.76,0,0,1-1.44,1c-.81.11-1.63.23-2.44.36-.4.05-.8.13-1.12.19.78.83,1.49,1.67,2.3,2.42a2.21,2.21,0,0,1,.72,2.27C28.56,13,28.4,14.07,28.19,15.29Z"/><path class="cls-2" d="M19.9,1a13.39,13.39,0,0,1,1.86,1,1,1,0,0,1,.08.93,1,1,0,0,1-.85.42,4.55,4.55,0,0,1-1.57-.71,1.05,1.05,0,0,1-.25-.92C19.25,1.47,19.61,1.28,19.9,1Z"/><path class="cls-2" d="M45.19,3.57c-.29-.28-.65-.47-.72-.74a1,1,0,0,1,.24-.92,4.6,4.6,0,0,1,1.58-.71,1,1,0,0,1,.84.42,1,1,0,0,1-.08.94A13.39,13.39,0,0,1,45.19,3.57Z"/><path class="cls-2" d="M47.41,7.85c.24,0,.47,0,.7,0a.8.8,0,0,1,.79.79.76.76,0,0,1-.66.9,6.75,6.75,0,0,1-1.68,0,.76.76,0,0,1-.64-.91.79.79,0,0,1,.79-.78C46.94,7.83,47.18,7.85,47.41,7.85Z"/><path class="cls-2" d="M18.16,7.83a6.74,6.74,0,0,1,.78,0,.79.79,0,0,1,.75.8.75.75,0,0,1-.6.9,7.08,7.08,0,0,1-1.84,0,.76.76,0,0,1-.62-.9.81.81,0,0,1,.75-.8C17.64,7.81,17.9,7.84,18.16,7.83Z"/><path class="cls-2" d="M22,15c0,.46-.4.67-.83.84s-1.09.72-1.74.23a.85.85,0,0,1,.1-1.39A7.07,7.07,0,0,1,20.87,14,.86.86,0,0,1,22,15Z"/><path class="cls-2" d="M45.2,13.85a14.53,14.53,0,0,1,1.86,1,1,1,0,0,1,.07.94,1.08,1.08,0,0,1-.91.4,3.63,3.63,0,0,1-1.47-.66,1.12,1.12,0,0,1-.28-1C44.53,14.31,44.91,14.12,45.2,13.85Z"/></svg>