<svg id="Layer_1" data-name="Layer 1" xmlns="http://www.w3.org/2000/svg" viewBox="0 0 65 65"><defs><style>.cls-1{fill:#190f2d;}</style></defs><path class="cls-1" d="M34.78,39.6V35.94c0-1.45,0-1.45-1.45-1.45H19.66A3.36,3.36,0,0,0,16,38c0,.49,0,1,0,1.54.26,0,.46,0,.67,0h3.23a3.26,3.26,0,0,1,3.39,3.26q.08,3.53,0,7a3.16,3.16,0,0,1-3.14,3.2c-3.16.06-6.31.06-9.47,0a3.17,3.17,0,0,1-3.14-3.3q0-3.44,0-6.87a3.25,3.25,0,0,1,3.32-3.33c1.13,0,2.27,0,3.4,0,.44,0,.57-.14.56-.57a9.62,9.62,0,0,1,.06-2,4.54,4.54,0,0,1,4.65-3.76c4.8,0,9.61,0,14.42,0h.71V29.76H19.32a5.77,5.77,0,0,1-6.07-6q0-6.37,0-12.75a5.77,5.77,0,0,1,4.63-5.82A7.37,7.37,0,0,1,19.37,5H51.05A5.72,5.72,0,0,1,57,9.5,6.19,6.19,0,0,1,57.15,11q0,6.4,0,12.81a5.78,5.78,0,0,1-4.95,5.9,6.24,6.24,0,0,1-1.15.06H36v3.51H51.12a4.53,4.53,0,0,1,4.73,3.92,9.52,9.52,0,0,1,0,1.85c0,.42.11.57.55.56,1.13,0,2.27,0,3.4,0a3.24,3.24,0,0,1,3.33,3.31q0,3.47,0,6.93a3.14,3.14,0,0,1-3.07,3.25c-3.19.07-6.39.07-9.58,0a3.18,3.18,0,0,1-3.1-3.24q-.06-3.49,0-7a3.27,3.27,0,0,1,3.38-3.27h4a19.41,19.41,0,0,0-.27-2.84,3.17,3.17,0,0,0-3.08-2.27h-15c-.4,0-.53.12-.52.52,0,1.35,0,2.7,0,4,0,.42.11.58.55.57,1.14,0,2.27,0,3.41,0a3.22,3.22,0,0,1,3.32,3.25q.06,3.52,0,7a3.11,3.11,0,0,1-3.11,3.2c-3.15.06-6.31.06-9.46,0a3.13,3.13,0,0,1-3.15-3.18c-.05-2.37-.05-4.73,0-7.1a3.22,3.22,0,0,1,3.36-3.22Zm.41-11.06H51a6.47,6.47,0,0,0,1.32-.09A4.51,4.51,0,0,0,55.93,24c0-4.29,0-8.58,0-12.87a4.59,4.59,0,0,0-4.89-4.87H19.14a4.56,4.56,0,0,0-4.67,4.62q0,6.56,0,13.1A4.5,4.5,0,0,0,19,28.53C24.38,28.56,29.79,28.54,35.19,28.54ZM15.46,40.84h0c-1.5,0-3,0-4.5,0A2,2,0,0,0,8.82,43q0,3.34,0,6.69A2,2,0,0,0,11,51.9q4.47,0,8.94,0a2.1,2.1,0,0,0,2.19-2.24q0-3.31,0-6.63a2.06,2.06,0,0,0-2.21-2.19C18.42,40.83,16.94,40.84,15.46,40.84Zm39.82,11h0c1.54,0,3.08,0,4.62,0a2,2,0,0,0,2-2q0-3.55,0-7.09A1.92,1.92,0,0,0,60,40.86c-3.06,0-6.11,0-9.17,0a2,2,0,0,0-2.15,2.24q0,3.26,0,6.51a2,2,0,0,0,2.22,2.23Z"/><path class="cls-1" d="M49.48,17.48c0,1.42,0,2.84,0,4.26a1.71,1.71,0,0,1-1.87,1.9H43.17a1.7,1.7,0,0,1-1.85-1.82V13a1.69,1.69,0,0,1,1.83-1.84H47.7A1.66,1.66,0,0,1,49.48,13C49.49,14.48,49.48,16,49.48,17.48Zm-6.94-.07c0,1.44,0,2.89,0,4.33,0,.48.18.7.68.7q2.19,0,4.38,0c.48,0,.7-.2.69-.69v-8.7c0-.52-.23-.72-.73-.72H43.28c-.53,0-.76.22-.75.76C42.55,14.53,42.54,16,42.54,17.41Z"/><path class="cls-1" d="M33.07,16.78h4.31c.21,0,.42,0,.63,0,.4,0,.67.21.64.65s-.3.55-.68.55H33.12c0,.18,0,.29,0,.4v4.07h1.47l3.29,0c.41,0,.8.09.81.6s-.38.63-.83.63H33.26a1.23,1.23,0,0,1-1.4-1.37q0-4.87,0-9.76a1.22,1.22,0,0,1,1.36-1.36c1.55,0,3.11,0,4.67,0,.4,0,.76.09.76.58s-.36.61-.79.61H33.59c-.24,0-.53-.07-.53.33C33.07,14,33.07,15.36,33.07,16.78Z"/><path class="cls-1" d="M24.87,23.74a3.57,3.57,0,0,1-3.41-3.22c0-.41,0-.82.51-.87s.66.33.72.77a2.17,2.17,0,0,0,1.78,2,2.22,2.22,0,1,0,.45-4.4,3.42,3.42,0,0,1-3.35-2.58A3.25,3.25,0,0,1,22.62,12a3.22,3.22,0,0,1,3.55-.6,3.37,3.37,0,0,1,2.14,3c0,.42-.12.75-.57.78s-.59-.25-.64-.65a2.22,2.22,0,0,0-3.15-2A2.2,2.2,0,0,0,22.7,15a2.16,2.16,0,0,0,2.08,1.75,3.53,3.53,0,0,1,3.46,2.69,3.4,3.4,0,0,1-1.89,3.87A8.11,8.11,0,0,1,24.87,23.74Z"/><path class="cls-1" d="M15.46,44H19c.46,0,.87.06.93.62s-.3.65-.9.65H11.86c-.6,0-.91-.23-.88-.65s.44-.64.91-.63Z"/><path class="cls-1" d="M15.42,48.75H11.85c-.44,0-.82-.07-.87-.61s.29-.69.86-.69l7.2,0c.44,0,.84.11.85.63s-.39.64-.84.63H15.42Z"/><path class="cls-1" d="M55.39,48.8H51.92l-.46,0c-.39-.06-.65-.26-.63-.68a.65.65,0,0,1,.68-.65c.52,0,1,0,1.56,0l5.71,0a2.68,2.68,0,0,1,.4,0c.36.07.61.27.59.66a.58.58,0,0,1-.64.6c-.56,0-1.11,0-1.67,0H55.39Z"/><path class="cls-1" d="M55.56,44h3.63c.45,0,.84.12.84.64s-.37.65-.83.65l-7.21,0c-.47,0-.86-.1-.89-.66S51.4,44,52,44h3.58Z"/></svg>