<svg id="Layer_1" data-name="Layer 1" xmlns="http://www.w3.org/2000/svg" viewBox="0 0 65 65"><defs><style>.cls-1{fill:#190f2d;}</style></defs><path class="cls-1" d="M14.3,33.31h-7V47.45a3.34,3.34,0,0,1,2.43,4A3.21,3.21,0,0,1,6.4,54,3.29,3.29,0,0,1,3.25,51.3c-.31-1.62.55-2.94,2.52-3.84v-.65c0-4.62,0-9.25,0-13.88,0-.91.2-1.11,1.1-1.12H14.3c0-.5,0-1,0-1.42a1.67,1.67,0,0,1,1.5-1.89c.87-.19,1.75-.36,2.61-.59a1.17,1.17,0,0,0,.59-.49c.58-.86.31-1.57-.18-2.45a2.91,2.91,0,0,0-3.21-1.74,49.69,49.69,0,0,1-5.18,0,.77.77,0,0,0-.89.56,3.2,3.2,0,0,1-3.61,1.93,3.29,3.29,0,0,1-2.7-3.16,3.34,3.34,0,0,1,2.51-3.27,3.26,3.26,0,0,1,3.85,2,.62.62,0,0,0,.7.48c2.27,0,4.54,0,6.82,0a1.26,1.26,0,0,0,.75-.36c1.19-1.16,2.34-2.36,3.54-3.52a1.52,1.52,0,0,1,2-.18c.78.48,1.54,1,2.3,1.49a1,1,0,0,0,1,.1,1.82,1.82,0,0,0,1.46-1.79,13.92,13.92,0,0,1,.39-1.9,1.61,1.61,0,0,1,1.65-1.34c.53,0,1.05,0,1.6,0v-7H17.64a3.34,3.34,0,0,1-4,2.43,3.23,3.23,0,0,1-2.57-3.2A3.25,3.25,0,0,1,13.7,3.27c1.66-.38,3,.43,3.95,2.48H32.19c.9,0,1.1.21,1.1,1.12,0,2.23,0,4.46,0,6.69v.72h1.56a1.65,1.65,0,0,1,1.74,1.4c.2.89.41,1.77.57,2.67.07.38.29.5.58.68a1.79,1.79,0,0,0,2.34-.23c.52-.45,1.37-.65,1.65-1.19a4.8,4.8,0,0,0,.11-2.09c0-1.74,0-3.49,0-5.23a.63.63,0,0,0-.46-.72,3.22,3.22,0,0,1-2-3.72,3.31,3.31,0,0,1,3.22-2.64,3.36,3.36,0,0,1,3.23,2.64,3.27,3.27,0,0,1-2,3.73.62.62,0,0,0-.47.7c0,2.28,0,4.55,0,6.82a1.25,1.25,0,0,0,.37.75c1.16,1.19,2.36,2.35,3.52,3.54a1.51,1.51,0,0,1,.16,2c-.49.8-1,1.58-1.52,2.35a1,1,0,0,0-.08.89,1.85,1.85,0,0,0,1.88,1.51,15.2,15.2,0,0,1,1.73.36,1.66,1.66,0,0,1,1.45,1.81v1.45h7V17.59a3.42,3.42,0,0,1-2.38-2.23,3.3,3.3,0,0,1,6.22-2.19,3.23,3.23,0,0,1-1.78,4.19.77.77,0,0,0-.57.88c0,4.63,0,9.26,0,13.89,0,.95-.19,1.15-1.13,1.15h-7.4v1.45a1.66,1.66,0,0,1-1.47,1.85c-.87.2-1.75.36-2.61.59a1.29,1.29,0,0,0-.63.53,1.75,1.75,0,0,0,.2,2.38c.45.51.66,1.36,1.19,1.65a4.73,4.73,0,0,0,2,.09h5.23a.65.65,0,0,0,.77-.48,3.22,3.22,0,0,1,3.67-2,3.32,3.32,0,0,1,2.68,3.25,3.36,3.36,0,0,1-2.66,3.22,3.27,3.27,0,0,1-3.69-2,.66.66,0,0,0-.74-.51c-2.25,0-4.51,0-6.76,0a1.42,1.42,0,0,0-.8.38c-1.18,1.15-2.32,2.33-3.5,3.48a1.54,1.54,0,0,1-2.06.18c-.77-.48-1.54-1-2.3-1.48a1,1,0,0,0-.94-.1A1.83,1.83,0,0,0,37,47.59a14.66,14.66,0,0,1-.38,1.84,1.62,1.62,0,0,1-1.69,1.37c-.5,0-1,0-1.55,0v7H47.51a3.13,3.13,0,0,1,2-2.26,4.4,4.4,0,0,1,2.13-.11A3.16,3.16,0,0,1,54,58.81a3.3,3.3,0,0,1-2.76,3c-1.61.29-3-.59-3.79-2.52H33c-.93,0-1.13-.2-1.13-1.15V50.81H30.3a1.63,1.63,0,0,1-1.76-1.43c-.2-.87-.41-1.74-.57-2.61a.91.91,0,0,0-.56-.7,1.83,1.83,0,0,0-2.39.24c-.52.44-1.35.66-1.64,1.19a4.58,4.58,0,0,0-.1,2c0,1.72,0,3.45,0,5.17a.74.74,0,0,0,.55.85,3.2,3.2,0,0,1,2,3.53,3.29,3.29,0,0,1-6.43.35,3.25,3.25,0,0,1,2-3.92.67.67,0,0,0,.5-.75c0-2.25,0-4.5,0-6.75a1.23,1.23,0,0,0-.34-.76c-1.16-1.19-2.36-2.35-3.52-3.54a1.52,1.52,0,0,1-.17-2.06c.49-.79,1-1.56,1.5-2.36a1.41,1.41,0,0,0,.07-.82c-.17-1.06-.9-1.45-1.9-1.55a14.6,14.6,0,0,1-1.72-.36A1.63,1.63,0,0,1,14.3,34.8C14.29,34.31,14.3,33.83,14.3,33.31Zm31.9,9.24-1-1.57c-1.2-1.86-1.19-1.86-.4-3.93a1.91,1.91,0,0,1,1.58-1.32c.82-.15,1.62-.36,2.44-.51.45-.07.59-.27.58-.72,0-1.26-.05-2.52,0-3.78,0-.61-.19-.82-.75-.88s-.83-.18-1.25-.26c-2.49-.52-2.09-.47-3-2.43A2,2,0,0,1,44.58,25c.57-.83,1.09-1.7,1.58-2.45l-3.62-3.65-1.54,1c-1.86,1.2-1.86,1.19-3.93.41a2,2,0,0,1-1.33-1.59c-.15-.82-.35-1.62-.5-2.44-.08-.44-.27-.59-.72-.58-1.22,0-2.44,0-3.66,0-.64,0-1,.12-1,.81a7.21,7.21,0,0,1-.25,1.19c-.52,2.49-.46,2.09-2.43,3a2,2,0,0,1-2.11-.17c-.83-.57-1.69-1.09-2.44-1.58L19,22.56c.31.5.65,1,1,1.55C21.15,26,21.13,26,20.35,28a1.92,1.92,0,0,1-1.58,1.32c-.82.15-1.63.36-2.45.51-.44.07-.58.27-.57.72,0,1.26.05,2.52,0,3.78,0,.61.19.82.75.88a12.58,12.58,0,0,1,1.25.26c2.49.52,2.09.46,3,2.43a2,2,0,0,1-.17,2.11c-.58.83-1.1,1.7-1.58,2.45l3.62,3.65,1.54-1C26,44,26,44,28.05,44.75a1.93,1.93,0,0,1,1.33,1.59c.16.83.36,1.66.52,2.5.07.39.24.52.65.52,1.28,0,2.56,0,3.83,0,.62,0,.83-.19.89-.75s.17-.83.26-1.25c.52-2.48.45-2.09,2.43-3a2,2,0,0,1,2.11.16c.83.58,1.7,1.1,2.52,1.63ZM14.37,8.31a1.85,1.85,0,0,0,1.84-1.79,1.87,1.87,0,0,0-1.84-1.87,1.83,1.83,0,0,0-1.82,1.87A1.8,1.8,0,0,0,14.37,8.31Zm28.21,0a1.81,1.81,0,0,0,1.83-1.8,1.84,1.84,0,0,0-1.85-1.86,1.88,1.88,0,0,0-1.81,1.85A1.83,1.83,0,0,0,42.58,8.34Zm16.05,4.19a1.81,1.81,0,0,0-1.83,1.85,1.86,1.86,0,0,0,1.82,1.82,1.89,1.89,0,0,0,1.84-1.87A1.84,1.84,0,0,0,58.63,12.53ZM8.33,50.73a1.83,1.83,0,1,0-3.66,0,1.83,1.83,0,1,0,3.66,0Zm42.4,6.05a1.86,1.86,0,0,0-1.82,1.81,1.89,1.89,0,0,0,1.87,1.85,1.84,1.84,0,0,0,1.8-1.83A1.81,1.81,0,0,0,50.73,56.78Zm7.89-12.39a1.85,1.85,0,0,0,1.82-1.83,1.89,1.89,0,0,0-1.84-1.83,1.84,1.84,0,0,0-1.83,1.88A1.81,1.81,0,0,0,58.62,44.39ZM8.36,22.6a1.82,1.82,0,0,0-1.74-1.9,1.85,1.85,0,0,0-1.93,1.78,1.88,1.88,0,0,0,1.78,1.88A1.86,1.86,0,0,0,8.36,22.6ZM20.71,58.55a1.86,1.86,0,0,0,1.79,1.86,1.88,1.88,0,0,0,1.88-1.85,1.84,1.84,0,0,0-1.84-1.81A1.81,1.81,0,0,0,20.71,58.55Z"/><path class="cls-1" d="M27.22,41c.14.5.26.86.35,1.23a.72.72,0,1,1-1.39.4c-.31-1-.63-2-.91-3a.71.71,0,0,1,.52-.95c1-.3,1.93-.61,2.9-.89a.69.69,0,0,1,1,.47c.14.48-.11.77-.55.93s-.76.24-1.24.39a7.39,7.39,0,0,0,3.3,1.33,8.52,8.52,0,0,0,9.91-8.7,12,12,0,0,0-.18-1.45c-.09-.5.06-.87.56-1s.76.21.87.69A10,10,0,0,1,27.65,41.21Z"/><path class="cls-1" d="M37.82,24c0-.43-.11-.85-.15-1.27a.72.72,0,1,1,1.43-.19c.17,1,.3,2,.43,3.07a.73.73,0,0,1-.7.88l-2.9.4c-.48.07-.87-.06-.94-.6s.28-.77.76-.84.67-.11,1.14-.17A7.65,7.65,0,0,0,33.19,24a8.52,8.52,0,0,0-9,10.11c.12.66,0,1-.51,1.1s-.76-.16-.91-.81A10,10,0,0,1,31,22.67a10.18,10.18,0,0,1,6.47,1.15l.22.11S37.74,23.94,37.82,24Z"/><path class="cls-1" d="M32.51,37.7a5.15,5.15,0,1,1,5.2-5.09A5.14,5.14,0,0,1,32.51,37.7Zm0-1.47a3.69,3.69,0,1,0-3.68-3.73A3.66,3.66,0,0,0,32.55,36.23Z"/></svg>