<svg id="Layer_1" data-name="Layer 1" xmlns="http://www.w3.org/2000/svg" viewBox="0 0 65 65"><defs><style>.cls-1{fill:blue;}.cls-2{fill:#f3f945;}</style></defs><path class="cls-1" d="M32.42,62.63h-2.2a2.46,2.46,0,0,1-2.68-2.51,4.53,4.53,0,0,0-4.14-4.49A4.26,4.26,0,0,0,20,56.73C18.46,58,17.32,58,15.89,56.58L13,53.65a2.46,2.46,0,0,1-.12-3.72A4.37,4.37,0,0,0,13.76,45a4.38,4.38,0,0,0-4.11-2.83,2.45,2.45,0,0,1-2.55-2.7V35.1a2.42,2.42,0,0,1,2.54-2.71,4.58,4.58,0,0,0,4.26-6,5.74,5.74,0,0,0-1.06-1.75A2.52,2.52,0,0,1,13,20.93L16,17.87a2.5,2.5,0,0,1,3.86-.11,4.55,4.55,0,0,0,6.42-.22,3,3,0,0,0,.42-.66.63.63,0,0,0-.25-.87c-1.69-1.36-3.35-2.76-5-4.13a1,1,0,0,1-.45-1.1c.16-.46.53-.56,1-.58,2.16-.13,4.33-.29,6.5-.39a.76.76,0,0,0,.76-.59c.75-2,1.54-3.93,2.31-5.89.17-.45.37-.88.95-.87s.73.43.9.86c.78,2,1.57,4,2.33,5.95a.72.72,0,0,0,.74.53c2.15.11,4.29.26,6.44.39.47,0,.9.11,1,.65s-.16.79-.5,1.08c-1.61,1.31-3.2,2.63-4.8,3.94-.66.55-.69.94-.11,1.59a4.55,4.55,0,0,0,6.4.39,3,3,0,0,1,1.75-.91,2.56,2.56,0,0,1,2.08.81c1,1.05,2.1,2.09,3.14,3.14A2.5,2.5,0,0,1,52,24.7a4.57,4.57,0,0,0,1.77,7.4,6.54,6.54,0,0,0,1.6.28A2.46,2.46,0,0,1,57.79,35q0,2.31,0,4.62a2.43,2.43,0,0,1-2.48,2.59,4.54,4.54,0,0,0-4.52,4.18,4.25,4.25,0,0,0,1.13,3.42c1.26,1.43,1.23,2.65-.11,4l-3,3a2.45,2.45,0,0,1-3.68.1,4.59,4.59,0,0,0-7.76,3.17,2.46,2.46,0,0,1-2.74,2.57ZM25.89,20c-.12,0-.16,0-.19,0a6.14,6.14,0,0,1-7.1-1.13c-.45-.41-.81-.39-1.27.07-1,1-2,2-3,3-.71.71-.71.92-.05,1.67a5.89,5.89,0,0,1,1.54,4.71,6.2,6.2,0,0,1-6,5.71c-.81.07-1,.25-1,1.06q0,2.1,0,4.2c0,.93.14,1.08,1.06,1.16a6,6,0,0,1,5.48,3.91A6,6,0,0,1,14.16,51c-.52.59-.52.89,0,1.45,1,1,2,2,3,3,.68.69.9.69,1.63.05a6,6,0,0,1,5.54-1.43A6.18,6.18,0,0,1,29.24,60c.06.71.26,1,.9,1h4.63a.79.79,0,0,0,.88-.86,7.85,7.85,0,0,1,.15-1.27,6.27,6.27,0,0,1,10.36-3.25c.62.56.9.55,1.5,0l2.92-2.93c.71-.71.71-.92.06-1.67a5.88,5.88,0,0,1-1.55-4.72,6.22,6.22,0,0,1,6.07-5.71c.67-.05.92-.26.92-.87,0-1.56,0-3.12,0-4.69,0-.54-.29-.8-.83-.84A7.62,7.62,0,0,1,54,33.93,6.26,6.26,0,0,1,50.69,23.6c.58-.65.58-.92,0-1.54-1-1-1.95-1.95-2.93-2.93-.68-.68-.9-.67-1.62,0a5.84,5.84,0,0,1-4.89,1.52c-.73-.11-1.43-.35-2.19-.54.25,1,.49,2,.76,3,.12.46.21.89-.22,1.22s-.87.14-1.28-.13c-1.79-1.15-3.6-2.28-5.38-3.44a.71.71,0,0,0-.92,0c-1.8,1.17-3.63,2.31-5.44,3.47a1,1,0,0,1-1.18.12,1,1,0,0,1-.27-1.15C25.36,22.13,25.61,21.1,25.89,20Zm11.73,1.66c-.06-.32-.09-.49-.13-.66-.39-1.51-.76-3-1.17-4.53a1.08,1.08,0,0,1,.41-1.28c1.22-1,2.42-2,3.62-3l.48-.44-.42-.06c-1.58-.09-3.16-.21-4.74-.27a1.22,1.22,0,0,1-1.3-.94C34.2,10,34,9.47,33.75,8.94L32.46,5.69c-.13.3-.22.47-.29.65-.55,1.39-1.13,2.77-1.64,4.18a1.3,1.3,0,0,1-1.36,1c-.93,0-1.86.09-2.8.15-.73,0-1.47.1-2.33.16.25.22.4.36.55.48,1.19,1,2.37,2,3.57,2.94a1.07,1.07,0,0,1,.42,1.28c-.19.59-.33,1.21-.48,1.82-.28,1.07-.55,2.14-.86,3.38.31-.19.48-.28.64-.39,1.3-.83,2.6-1.64,3.89-2.49a1.11,1.11,0,0,1,1.35,0c1.15.76,2.32,1.49,3.48,2.23Z"/><path class="cls-2" d="M45.26,37.29A12.82,12.82,0,1,1,32.45,24.48,12.81,12.81,0,0,1,45.26,37.29Zm-5,7.8a11.09,11.09,0,1,0-15.7,0c1.3-3.91,3.91-6.23,8.11-6.12C36.65,39,39.09,41.35,40.29,45.09Zm-7.9,3.31a11.22,11.22,0,0,0,5.89-1.65.71.71,0,0,0,.39-.84,6.09,6.09,0,0,0-1.41-3,6,6,0,0,0-6.46-2,6.13,6.13,0,0,0-4.55,4.9.84.84,0,0,0,.47,1.08A11.34,11.34,0,0,0,32.39,48.4Z"/><path class="cls-2" d="M32.47,38.68a4.16,4.16,0,1,1,0-8.31,4.16,4.16,0,0,1,0,8.31Zm2.42-4.09A2.45,2.45,0,1,0,32.4,37,2.47,2.47,0,0,0,34.89,34.59Z"/></svg>