<svg id="Layer_1" data-name="Layer 1" xmlns="http://www.w3.org/2000/svg" viewBox="0 0 65 65"><defs><style>.cls-1{fill:blue;}.cls-2{fill:#f3f945;}</style></defs><path class="cls-1" d="M31.36,61.88c-1.11-.15-2.23-.26-3.34-.45A29.26,29.26,0,0,1,4.4,38.75c-.28-1.32-.4-2.68-.59-4,0-.17-.07-.33-.1-.5V30.79c.14-1.1.26-2.2.44-3.29A28.88,28.88,0,0,1,10,14.35c.09-.11.17-.23.32-.44H8a2.11,2.11,0,0,1-.62-.05.91.91,0,0,1-.73-1A.89.89,0,0,1,7.56,12c1.68,0,3.36,0,5.05,0a.83.83,0,0,1,.86.89c0,1.67,0,3.33,0,5a.92.92,0,0,1-1,.94,1,1,0,0,1-1-.93c0-.52,0-1,0-1.55,0-.18,0-.37,0-.55l-.17-.08C10.55,17,9.68,18.18,9,19.5a27.18,27.18,0,0,0,2.91,30.36,26.57,26.57,0,0,0,17.93,9.85,26.79,26.79,0,0,0,19.38-5,1.14,1.14,0,0,1,1.27-.24,1,1,0,0,1,0,1.74,29.08,29.08,0,0,1-15.11,5.6,3.43,3.43,0,0,0-.44.09Z"/><path class="cls-1" d="M19.92,14.66c.58.2,1,.35,1.51.53a7.25,7.25,0,0,0,2.32.92c.74,0,1.48-.59,2.23-.9.55-.22,1.12-.37,1.66-.61a1.3,1.3,0,0,0,.61-.57c.37-.81.68-1.66,1-2.49a2.1,2.1,0,0,1,1.89-1.45q1.92-.09,3.84,0a2.1,2.1,0,0,1,1.89,1.44c.34.84.65,1.68,1,2.49a1.25,1.25,0,0,0,.6.58c1.13.5,2.28,1,3.43,1.43a1.08,1.08,0,0,0,.73,0c.85-.33,1.68-.72,2.53-1.07a2.19,2.19,0,0,1,2.5.41c.85.82,1.69,1.66,2.5,2.52a2.14,2.14,0,0,1,.4,2.45c-.36.86-.75,1.71-1.09,2.58a1,1,0,0,0,0,.68C50,24.8,50.49,26,51,27.11a1,1,0,0,0,.49.54c.83.38,1.69.7,2.54,1a2.14,2.14,0,0,1,1.47,1.94c.06,1.26.06,2.53,0,3.78A2.12,2.12,0,0,1,54,36.34c-.85.34-1.71.67-2.55,1a1.09,1.09,0,0,0-.47.5c-.51,1.17-1,2.35-1.46,3.53a1,1,0,0,0,0,.68c.33.85.71,1.69,1.06,2.53a2.15,2.15,0,0,1-.4,2.5c-.81.86-1.65,1.7-2.51,2.51a2.14,2.14,0,0,1-2.45.41c-.84-.35-1.67-.74-2.53-1.06a1.16,1.16,0,0,0-.78,0c-1.15.45-2.3.92-3.43,1.42a1.2,1.2,0,0,0-.57.54c-.36.8-.67,1.62-1,2.44a2.21,2.21,0,0,1-2,1.54c-1.22.05-2.45.05-3.67,0a2.2,2.2,0,0,1-2-1.54c-.32-.82-.62-1.64-1-2.44a1.2,1.2,0,0,0-.57-.54c-1.12-.49-2.26-.92-3.37-1.42a1,1,0,0,0-.9,0c-.8.36-1.61.7-2.42,1a2.2,2.2,0,0,1-2.55-.43c-.84-.81-1.67-1.63-2.47-2.47a2.17,2.17,0,0,1-.39-2.5c.35-.84.74-1.68,1.06-2.53a1.15,1.15,0,0,0,0-.73c-.45-1.15-.93-2.3-1.43-3.43a1.2,1.2,0,0,0-.53-.58c-.78-.35-1.58-.65-2.39-1a2.3,2.3,0,0,1-1.62-2.21c0-1.12,0-2.25,0-3.38a2.28,2.28,0,0,1,1.6-2.16c.82-.32,1.64-.63,2.44-1a1.1,1.1,0,0,0,.5-.54q.75-1.72,1.44-3.48a1.06,1.06,0,0,0,0-.68c-.33-.85-.71-1.69-1.07-2.53A2.18,2.18,0,0,1,16,17.87c.82-.85,1.64-1.71,2.52-2.49A6.06,6.06,0,0,1,19.92,14.66Zm-1,27c-.08.24-.13.46-.22.67-.41,1-.81,1.94-1.24,2.89a.63.63,0,0,0,.13.82c.68.67,1.33,1.37,2,2a.87.87,0,0,0,.74.12c1-.38,2-.81,2.95-1.24a1.52,1.52,0,0,1,1.36.07c1.37.62,2.77,1.19,4.17,1.73a1.48,1.48,0,0,1,1,.87c.38,1,.81,2,1.18,3a.63.63,0,0,0,.67.49h2.81a.68.68,0,0,0,.71-.53c.36-1,.77-1.91,1.13-2.87a1.62,1.62,0,0,1,1-1c1.39-.52,2.76-1.09,4.11-1.7a1.56,1.56,0,0,1,1.41-.07c.94.42,1.9.8,2.84,1.23a.66.66,0,0,0,.87-.13c.65-.67,1.31-1.33,2-2a.66.66,0,0,0,.12-.87c-.42-.94-.8-1.9-1.22-2.84a1.56,1.56,0,0,1,.06-1.41q.93-2,1.71-4.11a1.55,1.55,0,0,1,1-1c1-.36,1.91-.77,2.88-1.13a.67.67,0,0,0,.52-.71c0-.92,0-1.83,0-2.75a.72.72,0,0,0-.54-.76c-1-.35-1.92-.77-2.88-1.13a1.55,1.55,0,0,1-.94-1.05c-.52-1.37-1.07-2.73-1.69-4.06a1.67,1.67,0,0,1-.06-1.52c.43-.93.84-1.88,1.2-2.84a.89.89,0,0,0-.11-.75c-.64-.7-1.34-1.36-2-2a.62.62,0,0,0-.81-.14c-1,.44-1.94.82-2.89,1.25a1.52,1.52,0,0,1-1.36-.06c-1.39-.62-2.8-1.19-4.22-1.74a1.43,1.43,0,0,1-.94-.84c-.38-1-.8-2-1.17-3a.66.66,0,0,0-.72-.51H31.66a.64.64,0,0,0-.66.49c-.38,1-.8,2-1.18,3a1.48,1.48,0,0,1-.93.85c-1.43.56-2.86,1.14-4.27,1.76a1.42,1.42,0,0,1-1.25.07c-1-.43-2-.83-2.95-1.27a.63.63,0,0,0-.82.12c-.66.68-1.34,1.35-2,2a.64.64,0,0,0-.12.82c.43.95.82,1.93,1.25,2.89a1.52,1.52,0,0,1-.07,1.36c-.61,1.37-1.19,2.76-1.72,4.16a1.55,1.55,0,0,1-.92,1c-1,.37-1.94.79-2.93,1.16a.64.64,0,0,0-.5.66c0,1,0,1.91,0,2.86a.62.62,0,0,0,.5.66c1,.38,2,.8,3,1.18a1.46,1.46,0,0,1,.84.94c.57,1.43,1.17,2.85,1.76,4.27Z"/><path class="cls-2" d="M55.83,51.11h2.32a3.62,3.62,0,0,1,.57,0,1,1,0,0,1,.78,1,.91.91,0,0,1-.9.87c-1.67,0-3.33,0-5,0a.87.87,0,0,1-.92-.9c0-1.67,0-3.33,0-5a.91.91,0,0,1,.9-.93.94.94,0,0,1,1,.88,14.77,14.77,0,0,1,0,1.49v.6l.16.06c.58-.86,1.19-1.71,1.73-2.59A27.38,27.38,0,0,0,39.87,6a26.84,26.84,0,0,0-22.79,4.3l-.33.22a1,1,0,0,1-1.41-.24.93.93,0,0,1,.3-1.35c1.3-.84,2.57-1.74,3.94-2.45,16.21-8.52,36.59.12,41.63,17.71,2.77,9.66,1,18.56-5.09,26.57C56,50.81,56,50.92,55.83,51.11Z"/><path class="cls-1" d="M33.1,17.82A14.69,14.69,0,1,1,18.4,32.45,14.69,14.69,0,0,1,33.1,17.82ZM33,45.24A12.73,12.73,0,1,0,20.35,32.47,12.74,12.74,0,0,0,33,45.24Z"/><path class="cls-2" d="M34.06,25.9v1.78c0,1.15,0,2.29,0,3.44a.55.55,0,0,0,.46.64,4.87,4.87,0,0,1,0,9.34.51.51,0,0,0-.43.61,3.58,3.58,0,0,1,0,.8.89.89,0,0,1-.94.76c-.49,0-1-.29-.91-.76.12-1.12-.55-1.4-1.38-1.8a4.61,4.61,0,0,1-2.6-4.05,1,1,0,0,1,.88-1.19c.6,0,1,.3,1.06,1A3,3,0,0,0,32,39.16a1.57,1.57,0,0,0,.06-.3c0-1.68,0-3.37,0-5,0-.33-.12-.44-.43-.54a4.87,4.87,0,0,1,0-9.36.47.47,0,0,0,.4-.57,3.55,3.55,0,0,1,0-.8.92.92,0,0,1,1-.8.94.94,0,0,1,.92.8.43.43,0,0,0,0,.05c-.2,1,.41,1.29,1.21,1.65A4.63,4.63,0,0,1,38,28.32a1,1,0,0,1-.84,1.23c-.62.07-1-.3-1.11-1A2.81,2.81,0,0,0,34.06,25.9Zm-2,5.38V25.92a2.8,2.8,0,0,0-1.93,2.59A2.86,2.86,0,0,0,32.07,31.28Zm2,2.47V39.1a2.82,2.82,0,0,0,0-5.35Z"/></svg>