<svg id="Layer_1" data-name="Layer 1" xmlns="http://www.w3.org/2000/svg" viewBox="0 0 65 65"><defs><style>.cls-1{fill:#4dc0b3;}</style></defs><path class="cls-1" d="M42,34.12h2.31c1.28,0,1.51.23,1.51,1.48,0,.52,0,1,0,1.55a1,1,0,0,0,.3.65c.1.07.44-.1.61-.24.4-.35.76-.75,1.15-1.13a1,1,0,0,1,1.56,0q1.83,1.8,3.63,3.63a1,1,0,0,1,0,1.56c-.42.43-.86.84-1.26,1.28a.53.53,0,0,0-.13.48.67.67,0,0,0,.47.31c.72,0,1.44,0,2.15,0a1,1,0,0,1,1.07,1.08c0,1.84,0,3.67,0,5.5a1,1,0,0,1-1.08,1.06c-.72,0-1.44,0-2.15,0a.64.64,0,0,0-.46.32.55.55,0,0,0,.14.48c.42.46.88.87,1.3,1.32a.94.94,0,0,1,0,1.47c-1.21,1.24-2.44,2.46-3.68,3.68a.94.94,0,0,1-1.51,0c-.45-.43-.86-.89-1.32-1.3a.61.61,0,0,0-.5-.11.57.57,0,0,0-.27.43c0,.66,0,1.32,0,2,0,1-.31,1.29-1.29,1.29H12.69A2.9,2.9,0,0,1,9.5,57.71v-51a2.88,2.88,0,0,1,3.15-3.15q13.11,0,26.23,0A2.88,2.88,0,0,1,42,6.66V34.12Zm-2,0v-21H11.45V49.37H28.62c0-1.51,0-3,0-4.45,0-.91.32-1.23,1.21-1.24.62,0,1.23,0,1.85,0a.83.83,0,0,0,.61-.27c.07-.15-.08-.45-.21-.62a10.66,10.66,0,0,0-.88-.9c-.83-.83-.86-1-.25-2H27.9c-.86,0-1.19-.34-1.19-1.2,0-1.75,0-3.5,0-5.26,0-.85.33-1.19,1.19-1.19h5.26c.85,0,1.19.34,1.19,1.2s0,2,0,3.05c1-.61,1.2-.58,2,.24a11.64,11.64,0,0,0,.94.92.7.7,0,0,0,.57.18.73.73,0,0,0,.27-.55,9.08,9.08,0,0,0,0-1.38c-.07-1.37.16-1.87,1.72-1.75ZM11.41,51.33v6.26c0,1.1.28,1.38,1.37,1.38h22.1C33.53,57.62,32.24,56.32,31,55a1,1,0,0,1,0-1.64c.33-.35.69-.67,1-1s.64-.38.34-.75a1.05,1.05,0,0,0-.74-.27c-6.43,0-12.86,0-19.29,0Zm0-40.19H40.09V6.88c0-1.18-.26-1.43-1.44-1.43H12.38a.93.93,0,0,0-1,1C11.4,8,11.41,9.55,11.41,11.14ZM32.84,40.89l1.32,1.24a1.06,1.06,0,0,1,.22,1.4,7.5,7.5,0,0,0-.52,1.2,1.13,1.13,0,0,1-1.25.87c-.68,0-1.37,0-2.05,0v3.83c.68,0,1.34,0,2,0,.83,0,1,.15,1.33.91.14.37.3.73.47,1.09A1.06,1.06,0,0,1,34.07,53c-.4.4-.83.77-1.18,1.1l2.55,2.55,1.22-1.3a1,1,0,0,1,1.3-.22,8.24,8.24,0,0,0,1.26.54,1.13,1.13,0,0,1,.87,1.25c0,.68,0,1.37,0,2h3.82v-2.2a1,1,0,0,1,.73-1c.46-.18.93-.36,1.37-.58a1,1,0,0,1,1.35.22l1.24,1.28,2.5-2.51c-.39-.38-.8-.8-1.24-1.2a1.08,1.08,0,0,1-.23-1.45,8.19,8.19,0,0,0,.53-1.26,1.07,1.07,0,0,1,1.13-.78c.71,0,1.42,0,2.14,0V45.59c-.72,0-1.39,0-2.07,0a1.12,1.12,0,0,1-1.23-.89,7.22,7.22,0,0,0-.49-1.15,1.09,1.09,0,0,1,.26-1.49c.43-.4.83-.83,1.13-1.13l-2.49-2.51c-.34.36-.74.77-1.13,1.2a1.09,1.09,0,0,1-1.45.25,7.46,7.46,0,0,0-1.2-.51,1.1,1.1,0,0,1-.85-1.2c0-.69,0-1.39,0-2.1H40.09c0,.75,0,1.46,0,2.17a1,1,0,0,1-.76,1.09,11.58,11.58,0,0,0-1.26.53,1.08,1.08,0,0,1-1.49-.25c-.39-.44-.77-.89-1.13-1.32Zm-.43-6.73H28.66v3.75h3.75ZM38.18,59c0-.48,0-.92,0-1.35a.59.59,0,0,0-.3-.41.48.48,0,0,0-.45.1c-.55.53-1.08,1.08-1.65,1.66Z"/><path class="cls-1" d="M38.18,59H35.76c.57-.58,1.1-1.13,1.65-1.66a.48.48,0,0,1,.45-.1.59.59,0,0,1,.3.41C38.2,58,38.18,58.47,38.18,59Z"/><path class="cls-1" d="M25.76,15a7.65,7.65,0,1,1-7.66,7.61A7.65,7.65,0,0,1,25.76,15ZM23,25.4c-1.49-2.19-1.42-4.16.18-5.59a3.79,3.79,0,0,1,5-.07,3.69,3.69,0,0,1,1.32,2.4,3.86,3.86,0,0,1-1,3.18l1.34,1.29a5.65,5.65,0,0,0-.23-8.18,5.72,5.72,0,0,0-8.37.66c-1.83,2.29-1.56,6.16.53,7.57.18-.21.35-.43.54-.63S22.76,25.63,23,25.4Zm4.64-2.73a1.91,1.91,0,1,0-1.92,1.89A1.93,1.93,0,0,0,27.66,22.67Zm-4.34,5.16a5.72,5.72,0,0,0,4.87,0,2.86,2.86,0,0,0-2.44-1.36A2.8,2.8,0,0,0,23.32,27.83Z"/><path class="cls-1" d="M21,32.21h2.69a1,1,0,0,1,1.08,1.07q0,2.74,0,5.49a1,1,0,0,1-1.06,1.08h-5.5a1,1,0,0,1-1.08-1.06c0-1.83,0-3.66,0-5.5,0-.73.37-1.07,1.12-1.08Zm1.82,5.71V34.17H19.09v3.75Z"/><path class="cls-1" d="M20.93,43.68H18.24a1,1,0,0,1-1.09-.93c0-.59.42-1,1.11-1,1.81,0,3.62,0,5.44,0a1,1,0,0,1,1.09.93c0,.58-.42,1-1.11,1Z"/><path class="cls-1" d="M20.94,47.5H18.25c-.68,0-1.12-.4-1.1-1a1,1,0,0,1,1.1-.92h5.43c.7,0,1.13.39,1.11,1a1,1,0,0,1-1.1.92Z"/><path class="cls-1" d="M27.6,9.27H25c-.7,0-1.13-.38-1.13-1s.43-1,1.13-1c1.79,0,3.59,0,5.38,0,.7,0,1.13.37,1.13,1s-.43.95-1.13,1Z"/><path class="cls-1" d="M21.92,8.32a1,1,0,1,1-.94-1A1,1,0,0,1,21.92,8.32Z"/><path class="cls-1" d="M42,55.15a7.65,7.65,0,1,1,7.66-7.63A7.67,7.67,0,0,1,42,55.15Zm5.74-7.64A5.73,5.73,0,1,0,42,53.24,5.74,5.74,0,0,0,47.73,47.51Z"/><path class="cls-1" d="M45.82,47.54A3.82,3.82,0,1,1,42,43.68,3.83,3.83,0,0,1,45.82,47.54ZM42,49.41a1.91,1.91,0,1,0-1.92-1.88A1.93,1.93,0,0,0,42,49.41Z"/></svg>