<svg id="Layer_1" data-name="Layer 1" xmlns="http://www.w3.org/2000/svg" viewBox="0 0 65 65"><defs><style>.cls-1{fill:#4dc0b3;}</style></defs><path class="cls-1" d="M38.19,60.33H44v-.78q0-21.54,0-43.07a3,3,0,0,1,1.8-3,8.93,8.93,0,0,1,7.92,0,3,3,0,0,1,1.81,3q0,21.51,0,43v.87h3.82a.94.94,0,0,1,1,.92,1,1,0,0,1-1,1H5.61a1,1,0,0,1-1-1,.93.93,0,0,1,1-.94H9.43v-.73c0-6.87,0-13.74,0-20.61a2.7,2.7,0,0,1,1.45-2.62,8.64,8.64,0,0,1,8.58,0,2.77,2.77,0,0,1,1.49,2.67c0,6.85,0,13.7,0,20.55v.73h5.76v-.75q0-15.42,0-30.85a2.91,2.91,0,0,1,1.69-2.86,8.85,8.85,0,0,1,8.18,0,2.87,2.87,0,0,1,1.65,2.82q0,15.43,0,30.86Zm15.3,0V18.54a9.9,9.9,0,0,1-7.56,0v41.8Zm-24.86,0h7.59V30.84a9.89,9.89,0,0,1-7.59,0Zm-9.66,0V41.22a9.91,9.91,0,0,1-7.58,0V60.34Zm13.5-30.66a6.43,6.43,0,0,0,3.2-.76c.77-.47.81-.89,0-1.29a6.77,6.77,0,0,0-6.52,0c-.76.4-.73.8,0,1.25A6.46,6.46,0,0,0,32.47,29.68ZM15.2,40a6.28,6.28,0,0,0,3.26-.78c.69-.46.73-.86,0-1.23a6.84,6.84,0,0,0-6.58,0c-.75.39-.71.8,0,1.25A6.26,6.26,0,0,0,15.2,40Zm34.48-25.5a6,6,0,0,0-3.26.79c-.7.44-.73.85,0,1.22a6.82,6.82,0,0,0,6.53,0c.8-.4.77-.82,0-1.29A6.19,6.19,0,0,0,49.68,14.54Z"/><path class="cls-1" d="M48.9,4.76H47.22a1,1,0,0,1-1-.92.94.94,0,0,1,1-1c1.45-.09,2.91-.18,4.37-.24.88,0,1.28.42,1.16,1.31-.19,1.36-.4,2.73-.62,4.09A1,1,0,0,1,51,9a1,1,0,0,1-.81-1.17c.06-.54.15-1.07.23-1.68-.19.13-.34.23-.46.33a109.55,109.55,0,0,1-33.4,19.08l-2.82,1c-.75.26-1.3.07-1.49-.51s.12-1.06.88-1.31a116,116,0,0,0,20.8-9.37A102.63,102.63,0,0,0,48.37,5.23Z"/></svg>